<svg width="65" height="65" viewBox="0 0 65 65" fill="none" xmlns="http://www.w3.org/2000/svg">
<rect x="4.97461" y="4.83032" width="55.8125" height="55.8125" rx="3.8" fill="#F3E9FF"/>
<rect x="4.97461" y="4.83032" width="55.8125" height="55.8125" rx="3.8" fill="url(#paint0_linear_6415_9310)"/>
<rect x="4.97461" y="4.83032" width="55.8125" height="55.8125" rx="3.8" fill="url(#paint1_linear_6415_9310)"/>
<g opacity="0.64">
<path d="M53.3428 59.7431C52.4641 60.33 51.4567 60.6635 50.3859 60.6635H43.7351C41.0655 42.5665 41.2588 32.4211 43.7351 14.3239C43.7351 12.9982 44.6107 11.9236 45.6911 11.9236H51.3868C52.467 11.9236 53.3428 12.9982 53.3428 14.3239V59.7431Z" fill="url(#paint2_radial_6415_9310)"/>
<path d="M53.3428 59.7431C52.4641 60.33 51.4567 60.6635 50.3859 60.6635H43.7351C41.0655 42.5665 41.2588 32.4211 43.7351 14.3239C43.7351 12.9982 44.6107 11.9236 45.6911 11.9236H51.3868C52.467 11.9236 53.3428 12.9982 53.3428 14.3239V59.7431Z" fill="url(#paint3_radial_6415_9310)"/>
</g>
<path fill-rule="evenodd" clip-rule="evenodd" d="M23.8809 4.84595H21.8809V21.6272H4.92773V23.6272H21.8809V41.5647H4.92773V43.5647H21.8809V60.6584H23.8809V43.5647H41.8809V60.6584H43.8809V43.5647H60.7402V41.5647H43.8809V23.6272H60.7402V21.6272H43.8809V4.84595H41.8809V21.6272H23.8809V4.84595ZM41.8809 23.6272V41.5647H23.8809V23.6272H41.8809Z" fill="url(#paint4_linear_6415_9310)"/>
<path fill-rule="evenodd" clip-rule="evenodd" d="M23.8809 4.84595H21.8809V21.6272H4.92773V23.6272H21.8809V41.5647H4.92773V43.5647H21.8809V60.6584H23.8809V43.5647H41.8809V60.6584H43.8809V43.5647H60.7402V41.5647H43.8809V23.6272H60.7402V21.6272H43.8809V4.84595H41.8809V21.6272H23.8809V4.84595ZM41.8809 23.6272V41.5647H23.8809V23.6272H41.8809Z" fill="url(#paint5_linear_6415_9310)"/>
<path fill-rule="evenodd" clip-rule="evenodd" d="M23.8809 4.84595H21.8809V21.6272H4.92773V23.6272H21.8809V41.5647H4.92773V43.5647H21.8809V60.6584H23.8809V43.5647H41.8809V60.6584H43.8809V43.5647H60.7402V41.5647H43.8809V23.6272H60.7402V21.6272H43.8809V4.84595H41.8809V21.6272H23.8809V4.84595ZM41.8809 23.6272V41.5647H23.8809V23.6272H41.8809Z" fill="url(#paint6_linear_6415_9310)"/>
<path fill-rule="evenodd" clip-rule="evenodd" d="M23.8809 4.84595H21.8809V21.6272H4.92773V23.6272H21.8809V41.5647H4.92773V43.5647H21.8809V60.6584H23.8809V43.5647H41.8809V60.6584H43.8809V43.5647H60.7402V41.5647H43.8809V23.6272H60.7402V21.6272H43.8809V4.84595H41.8809V21.6272H23.8809V4.84595ZM41.8809 23.6272V41.5647H23.8809V23.6272H41.8809Z" fill="url(#paint7_linear_6415_9310)"/>
<path fill-rule="evenodd" clip-rule="evenodd" d="M23.8809 4.84595H21.8809V21.6272H4.92773V23.6272H21.8809V41.5647H4.92773V43.5647H21.8809V60.6584H23.8809V43.5647H41.8809V60.6584H43.8809V43.5647H47.8245V41.5647H43.8809V23.6272H47.8245V21.6272H43.8809V4.84595H41.8809V21.6272H23.8809V4.84595ZM41.8809 23.6272V41.5647H23.8809V23.6272H41.8809Z" fill="url(#paint8_linear_6415_9310)"/>
<path fill-rule="evenodd" clip-rule="evenodd" d="M23.8809 4.84595H21.8809V21.6272H4.92773V23.6272H21.8809V41.5647H4.92773V43.5647H21.8809V60.6584H23.8809V43.5647H41.8809V60.6584H43.8809V43.5647H47.8245V41.5647H43.8809V23.6272H47.8245V21.6272H43.8809V4.84595H41.8809V21.6272H23.8809V4.84595ZM41.8809 23.6272V41.5647H23.8809V23.6272H41.8809Z" fill="url(#paint9_linear_6415_9310)"/>
<path fill-rule="evenodd" clip-rule="evenodd" d="M23.8809 4.84595H21.8809V21.6272H4.92773V23.6272H21.8809V41.5647H4.92773V43.5647H21.8809V60.6584H23.8809V43.5647H41.8809V60.6584H43.8809V43.5647H47.8245V41.5647H43.8809V23.6272H47.8245V21.6272H43.8809V4.84595H41.8809V21.6272H23.8809V4.84595ZM41.8809 23.6272V41.5647H23.8809V23.6272H41.8809Z" fill="url(#paint10_linear_6415_9310)"/>
<path d="M56.7692 60.6384C56.7692 60.6384 54.455 60.6583 53.1411 60.6583H44.9805V14.3236C44.9805 12.9981 46.0549 11.9236 47.3805 11.9236H54.3691C55.6946 11.9236 56.7692 12.9981 56.7692 14.3236V60.6384Z" fill="url(#paint11_linear_6415_9310)"/>
<path d="M56.7692 60.6384C56.7692 60.6384 54.455 60.6583 53.1411 60.6583H44.9805V14.3236C44.9805 12.9981 46.0549 11.9236 47.3805 11.9236H54.3691C55.6946 11.9236 56.7692 12.9981 56.7692 14.3236V60.6384Z" fill="url(#paint12_linear_6415_9310)"/>
<path d="M56.7692 60.6384C56.7692 60.6384 54.455 60.6583 53.1411 60.6583H44.9805V14.3236C44.9805 12.9981 46.0549 11.9236 47.3805 11.9236H54.3691C55.6946 11.9236 56.7692 12.9981 56.7692 14.3236V60.6384Z" fill="url(#paint13_linear_6415_9310)"/>
<path d="M56.7692 60.6384C56.7692 60.6384 54.455 60.6583 53.1411 60.6583H44.9805V14.3236C44.9805 12.9981 46.0549 11.9236 47.3805 11.9236H54.3691C55.6946 11.9236 56.7692 12.9981 56.7692 14.3236V60.6384Z" fill="url(#paint14_linear_6415_9310)"/>
<path d="M56.7692 60.6384C56.7692 60.6384 54.455 60.6583 53.1411 60.6583H44.9805V14.3236C44.9805 12.9981 46.0549 11.9236 47.3805 11.9236H54.3691C55.6946 11.9236 56.7692 12.9981 56.7692 14.3236V60.6384Z" fill="url(#paint15_linear_6415_9310)"/>
<path d="M56.7692 60.6384C56.7692 60.6384 54.455 60.6583 53.1411 60.6583H44.9805V14.3236C44.9805 12.9981 46.0549 11.9236 47.3805 11.9236H54.3691C55.6946 11.9236 56.7692 12.9981 56.7692 14.3236V60.6384Z" fill="url(#paint16_linear_6415_9310)"/>
<path d="M56.7692 60.6384C56.7692 60.6384 54.455 60.6583 53.1411 60.6583H44.9805V14.3236C44.9805 12.9981 46.0549 11.9236 47.3805 11.9236H54.3691C55.6946 11.9236 56.7692 12.9981 56.7692 14.3236V60.6384Z" fill="url(#paint17_linear_6415_9310)"/>
<path d="M56.7692 60.6384C56.7692 60.6384 54.455 60.6583 53.1411 60.6583H44.9805V14.3236C44.9805 12.9981 46.0549 11.9236 47.3805 11.9236H54.3691C55.6946 11.9236 56.7692 12.9981 56.7692 14.3236V60.6384Z" fill="url(#paint18_linear_6415_9310)"/>
<path d="M27.7513 21.6272H23.8809V4.84595H21.8809V21.6272H4.92773V23.6272H21.8809V41.5647H4.92773V43.5647H21.8809V60.6584H23.8809V43.5647H27.7513V41.5647H23.8809V23.6272H27.7513V21.6272Z" fill="url(#paint19_radial_6415_9310)"/>
<path d="M27.7513 21.6272H23.8809V4.84595H21.8809V21.6272H4.92773V23.6272H21.8809V41.5647H4.92773V43.5647H21.8809V60.6584H23.8809V43.5647H27.7513V41.5647H23.8809V23.6272H27.7513V21.6272Z" fill="url(#paint20_linear_6415_9310)"/>
<path d="M38.7281 60.6583H26.9395V36.4301C26.9395 35.1046 28.0139 34.03 29.3395 34.03H36.3281C37.6536 34.03 38.7281 35.1046 38.7281 36.4301V60.6583Z" fill="url(#paint21_linear_6415_9310)"/>
<path d="M38.7281 60.6583H26.9395V36.4301C26.9395 35.1046 28.0139 34.03 29.3395 34.03H36.3281C37.6536 34.03 38.7281 35.1046 38.7281 36.4301V60.6583Z" fill="url(#paint22_linear_6415_9310)"/>
<path d="M38.7281 60.6583H26.9395V36.4301C26.9395 35.1046 28.0139 34.03 29.3395 34.03H36.3281C37.6536 34.03 38.7281 35.1046 38.7281 36.4301V60.6583Z" fill="url(#paint23_linear_6415_9310)"/>
<path d="M38.7281 60.6583H26.9395V36.4301C26.9395 35.1046 28.0139 34.03 29.3395 34.03H36.3281C37.6536 34.03 38.7281 35.1046 38.7281 36.4301V60.6583Z" fill="url(#paint24_linear_6415_9310)"/>
<path d="M38.7281 60.6583H26.9395V36.4301C26.9395 35.1046 28.0139 34.03 29.3395 34.03H36.3281C37.6536 34.03 38.7281 35.1046 38.7281 36.4301V60.6583Z" fill="url(#paint25_linear_6415_9310)"/>
<path d="M38.7281 60.6583H26.9395V36.4301C26.9395 35.1046 28.0139 34.03 29.3395 34.03H36.3281C37.6536 34.03 38.7281 35.1046 38.7281 36.4301V60.6583Z" fill="url(#paint26_linear_6415_9310)"/>
<path d="M20.6871 60.6582H12.5265C11.2126 60.6582 9.97656 60.3248 8.89844 59.738V20.4667C8.89844 19.1412 9.9729 18.0667 11.2985 18.0667H18.2871C19.6125 18.0667 20.6871 19.1412 20.6871 20.4667V60.6582Z" fill="url(#paint27_linear_6415_9310)"/>
<path d="M20.6871 60.6582H12.5265C11.2126 60.6582 9.97656 60.3248 8.89844 59.738V20.4667C8.89844 19.1412 9.9729 18.0667 11.2985 18.0667H18.2871C19.6125 18.0667 20.6871 19.1412 20.6871 20.4667V60.6582Z" fill="url(#paint28_linear_6415_9310)"/>
<path d="M20.6871 60.6582H12.5265C11.2126 60.6582 9.97656 60.3248 8.89844 59.738V20.4667C8.89844 19.1412 9.9729 18.0667 11.2985 18.0667H18.2871C19.6125 18.0667 20.6871 19.1412 20.6871 20.4667V60.6582Z" fill="url(#paint29_linear_6415_9310)"/>
<path d="M20.6871 60.6582H12.5265C11.2126 60.6582 9.97656 60.3248 8.89844 59.738V20.4667C8.89844 19.1412 9.9729 18.0667 11.2985 18.0667H18.2871C19.6125 18.0667 20.6871 19.1412 20.6871 20.4667V60.6582Z" fill="url(#paint30_linear_6415_9310)"/>
<path d="M20.6871 60.6582H12.5265C11.2126 60.6582 9.97656 60.3248 8.89844 59.738V20.4667C8.89844 19.1412 9.9729 18.0667 11.2985 18.0667H18.2871C19.6125 18.0667 20.6871 19.1412 20.6871 20.4667V60.6582Z" fill="url(#paint31_linear_6415_9310)"/>
<path d="M20.6871 60.6582H12.5265C11.2126 60.6582 9.97656 60.3248 8.89844 59.738V20.4667C8.89844 19.1412 9.9729 18.0667 11.2985 18.0667H18.2871C19.6125 18.0667 20.6871 19.1412 20.6871 20.4667V60.6582Z" fill="url(#paint32_linear_6415_9310)"/>
<defs>
<linearGradient id="paint0_linear_6415_9310" x1="32.8809" y1="2.76378" x2="32.8809" y2="5.86578" gradientUnits="userSpaceOnUse">
<stop offset="0.493741" stop-color="#D5B2FF"/>
<stop offset="0.796875" stop-color="#D5B2FF" stop-opacity="0.267485"/>
<stop offset="1" stop-color="#D5B2FF" stop-opacity="0"/>
</linearGradient>
<linearGradient id="paint1_linear_6415_9310" x1="32.8809" y1="61.4678" x2="32.8809" y2="53.576" gradientUnits="userSpaceOnUse">
<stop stop-color="#B9B2BF"/>
<stop offset="1" stop-color="#B9B2BF" stop-opacity="0"/>
</linearGradient>
<radialGradient id="paint2_radial_6415_9310" cx="0" cy="0" r="1" gradientUnits="userSpaceOnUse" gradientTransform="translate(46.8287 34.1796) rotate(89.5576) scale(24.3139 4.36477)">
<stop offset="0.802083" stop-color="#9B98B3"/>
<stop offset="1" stop-color="#9C83AE" stop-opacity="0"/>
</radialGradient>
<radialGradient id="paint3_radial_6415_9310" cx="0" cy="0" r="1" gradientUnits="userSpaceOnUse" gradientTransform="translate(46.8287 47.8851) rotate(93.4682) scale(21.7245 3.89993)">
<stop offset="0.802083" stop-color="#9B98B3"/>
<stop offset="1" stop-color="#9C83AE" stop-opacity="0"/>
</radialGradient>
<linearGradient id="paint4_linear_6415_9310" x1="32.834" y1="9.47095" x2="32.834" y2="60.6584" gradientUnits="userSpaceOnUse">
<stop stop-color="#C2BEC6"/>
<stop offset="1" stop-color="#BAACC6"/>
</linearGradient>
<linearGradient id="paint5_linear_6415_9310" x1="44.2716" y1="62.0887" x2="44.2716" y2="55.1263" gradientUnits="userSpaceOnUse">
<stop stop-color="#9E83B7"/>
<stop offset="1" stop-color="#9E83B7" stop-opacity="0"/>
</linearGradient>
<linearGradient id="paint6_linear_6415_9310" x1="2.99023" y1="35.4709" x2="13.6152" y2="35.4709" gradientUnits="userSpaceOnUse">
<stop stop-color="#96909C"/>
<stop offset="1" stop-color="#96909C" stop-opacity="0"/>
</linearGradient>
<linearGradient id="paint7_linear_6415_9310" x1="62.3652" y1="36.8459" x2="54.7402" y2="36.8459" gradientUnits="userSpaceOnUse">
<stop stop-color="#D6D1DA"/>
<stop offset="1" stop-color="#D6D1DA" stop-opacity="0"/>
</linearGradient>
<linearGradient id="paint8_linear_6415_9310" x1="49.2088" y1="37.4046" x2="41.1623" y2="37.4046" gradientUnits="userSpaceOnUse">
<stop offset="0.451612" stop-color="#7C7695"/>
<stop offset="1" stop-color="#7C7695" stop-opacity="0"/>
</linearGradient>
<linearGradient id="paint9_linear_6415_9310" x1="42.8927" y1="61.8038" x2="42.8927" y2="57.4777" gradientUnits="userSpaceOnUse">
<stop stop-color="#9070AD"/>
<stop offset="1" stop-color="#9070AD" stop-opacity="0"/>
</linearGradient>
<linearGradient id="paint10_linear_6415_9310" x1="40.124" y1="3.83396" x2="40.124" y2="21.0519" gradientUnits="userSpaceOnUse">
<stop offset="0.668342" stop-color="#C3BFC7"/>
<stop offset="1" stop-color="#C3BFC7" stop-opacity="0"/>
</linearGradient>
<linearGradient id="paint11_linear_6415_9310" x1="50.8748" y1="11.9236" x2="50.8748" y2="60.6583" gradientUnits="userSpaceOnUse">
<stop offset="0.179782" stop-color="#36A4F2"/>
<stop offset="1" stop-color="#3E79CB"/>
</linearGradient>
<linearGradient id="paint12_linear_6415_9310" x1="57.8894" y1="29.9953" x2="54.8878" y2="29.9953" gradientUnits="userSpaceOnUse">
<stop stop-color="#347BBF" stop-opacity="0.86"/>
<stop offset="0.802976" stop-color="#347BBF" stop-opacity="0.141611"/>
<stop offset="1" stop-color="#347BBF" stop-opacity="0"/>
</linearGradient>
<linearGradient id="paint13_linear_6415_9310" x1="56.7658" y1="34.8454" x2="51.8462" y2="34.8454" gradientUnits="userSpaceOnUse">
<stop offset="1.04815e-07" stop-color="#53BFFF" stop-opacity="0"/>
<stop offset="0.28125" stop-color="#53BFFF" stop-opacity="0.4845"/>
<stop offset="0.429146" stop-color="#53BFFF" stop-opacity="0.6"/>
<stop offset="0.493687" stop-color="#53BFFF" stop-opacity="0.61"/>
<stop offset="0.61891" stop-color="#53BFFF" stop-opacity="0.49"/>
<stop offset="0.898788" stop-color="#53BFFF" stop-opacity="0.0796442"/>
<stop offset="1" stop-color="#53BFFF" stop-opacity="0"/>
</linearGradient>
<linearGradient id="paint14_linear_6415_9310" x1="50.8748" y1="11.5896" x2="50.8748" y2="16.9356" gradientUnits="userSpaceOnUse">
<stop stop-color="#36A4F2"/>
<stop offset="0.735971" stop-color="#36A4F2" stop-opacity="0.102208"/>
<stop offset="1" stop-color="#36A4F2" stop-opacity="0"/>
</linearGradient>
<linearGradient id="paint15_linear_6415_9310" x1="50.8748" y1="42.9755" x2="50.8748" y2="60.6583" gradientUnits="userSpaceOnUse">
<stop stop-color="#36A4F2" stop-opacity="0"/>
<stop offset="1" stop-color="#3E79CB"/>
</linearGradient>
<linearGradient id="paint16_linear_6415_9310" x1="44.7914" y1="24.5003" x2="48.0811" y2="24.5003" gradientUnits="userSpaceOnUse">
<stop stop-color="#347BBF"/>
<stop offset="0.758535" stop-color="#347BBF" stop-opacity="0.141611"/>
<stop offset="0.871867" stop-color="#347BBF" stop-opacity="0.055107"/>
<stop offset="1" stop-color="#347BBF" stop-opacity="0"/>
</linearGradient>
<linearGradient id="paint17_linear_6415_9310" x1="49.4303" y1="11.3033" x2="49.4303" y2="14.1713" gradientUnits="userSpaceOnUse">
<stop stop-color="#347BBF"/>
<stop offset="0.717651" stop-color="#347BBF" stop-opacity="0.141611"/>
<stop offset="1" stop-color="#347BBF" stop-opacity="0"/>
</linearGradient>
<linearGradient id="paint18_linear_6415_9310" x1="44.2779" y1="59.6406" x2="47.9119" y2="59.4676" gradientUnits="userSpaceOnUse">
<stop offset="0.101608" stop-color="#404E95"/>
<stop offset="1" stop-color="#2F66B3" stop-opacity="0"/>
</linearGradient>
<radialGradient id="paint19_radial_6415_9310" cx="0" cy="0" r="1" gradientUnits="userSpaceOnUse" gradientTransform="translate(29.4818 42.5959) rotate(-180) scale(4.93177 4.75873)">
<stop offset="0.22807" stop-color="#86738A"/>
<stop offset="1" stop-color="#86738A" stop-opacity="0"/>
</radialGradient>
<linearGradient id="paint20_linear_6415_9310" x1="3.87121" y1="35.6741" x2="12.783" y2="35.6741" gradientUnits="userSpaceOnUse">
<stop stop-color="#88858D"/>
<stop offset="1" stop-color="#88858D" stop-opacity="0"/>
</linearGradient>
<linearGradient id="paint21_linear_6415_9310" x1="32.8338" y1="34.03" x2="32.8338" y2="60.6583" gradientUnits="userSpaceOnUse">
<stop offset="0.179782" stop-color="#E93586"/>
<stop offset="1" stop-color="#DD385F"/>
</linearGradient>
<linearGradient id="paint22_linear_6415_9310" x1="39.3511" y1="48.0847" x2="34.4413" y2="48.0847" gradientUnits="userSpaceOnUse">
<stop stop-color="#FA5598" stop-opacity="0"/>
<stop offset="0.248273" stop-color="#FA5598" stop-opacity="0.867767"/>
<stop offset="0.339131" stop-color="#FA5598"/>
<stop offset="0.483602" stop-color="#FA5598" stop-opacity="0.851367"/>
<stop offset="0.871782" stop-color="#FA5598" stop-opacity="0.123106"/>
<stop offset="1" stop-color="#FA5598" stop-opacity="0"/>
</linearGradient>
<linearGradient id="paint23_linear_6415_9310" x1="32.8338" y1="53.1868" x2="32.8338" y2="60.6583" gradientUnits="userSpaceOnUse">
<stop offset="0.179782" stop-color="#E93586" stop-opacity="0"/>
<stop offset="1" stop-color="#DD385F"/>
</linearGradient>
<linearGradient id="paint24_linear_6415_9310" x1="41.1784" y1="47.3549" x2="36.0998" y2="47.3549" gradientUnits="userSpaceOnUse">
<stop stop-color="#AC3D5F"/>
<stop offset="0.770799" stop-color="#AC3D5F" stop-opacity="0.0883209"/>
<stop offset="1" stop-color="#AC3D5F" stop-opacity="0"/>
</linearGradient>
<linearGradient id="paint25_linear_6415_9310" x1="26.9395" y1="48.5655" x2="29.4582" y2="48.5655" gradientUnits="userSpaceOnUse">
<stop stop-color="#AC3D5F"/>
<stop offset="0.776197" stop-color="#AC3D5F" stop-opacity="0.15696"/>
<stop offset="1" stop-color="#AC3D5F" stop-opacity="0"/>
</linearGradient>
<linearGradient id="paint26_linear_6415_9310" x1="31.0561" y1="33.3368" x2="31.0561" y2="36.1271" gradientUnits="userSpaceOnUse">
<stop stop-color="#AC3D5F"/>
<stop offset="0.770799" stop-color="#AC3D5F" stop-opacity="0.0883209"/>
<stop offset="1" stop-color="#AC3D5F" stop-opacity="0"/>
</linearGradient>
<linearGradient id="paint27_linear_6415_9310" x1="14.7928" y1="18.0667" x2="14.7928" y2="60.6582" gradientUnits="userSpaceOnUse">
<stop offset="0.179782" stop-color="#ABE263"/>
<stop offset="1" stop-color="#61E19B"/>
</linearGradient>
<linearGradient id="paint28_linear_6415_9310" x1="20.8146" y1="39.2512" x2="15.9364" y2="39.2512" gradientUnits="userSpaceOnUse">
<stop stop-color="#C9FE70" stop-opacity="0"/>
<stop offset="0.247141" stop-color="#C9FE70" stop-opacity="0.673855"/>
<stop offset="0.385214" stop-color="#C9FE70" stop-opacity="0.78"/>
<stop offset="0.486357" stop-color="#C9FE70" stop-opacity="0.667246"/>
<stop offset="0.694197" stop-color="#C9FE70" stop-opacity="0.3063"/>
<stop offset="0.867047" stop-color="#C9FE70" stop-opacity="0.0881096"/>
<stop offset="1" stop-color="#C9FE70" stop-opacity="0"/>
</linearGradient>
<linearGradient id="paint29_linear_6415_9310" x1="14.7928" y1="18.0667" x2="14.7928" y2="60.6582" gradientUnits="userSpaceOnUse">
<stop offset="0.401259" stop-color="#ABE263" stop-opacity="0"/>
<stop offset="1" stop-color="#61E19B"/>
</linearGradient>
<linearGradient id="paint30_linear_6415_9310" x1="8.89844" y1="39.3624" x2="11.4268" y2="39.3624" gradientUnits="userSpaceOnUse">
<stop stop-color="#6ACA77"/>
<stop offset="0.792089" stop-color="#6ACA77" stop-opacity="0.115368"/>
<stop offset="1" stop-color="#6ACA77" stop-opacity="0"/>
</linearGradient>
<linearGradient id="paint31_linear_6415_9310" x1="11.5946" y1="16.7447" x2="11.5946" y2="20.282" gradientUnits="userSpaceOnUse">
<stop stop-color="#6ACA77"/>
<stop offset="0.743892" stop-color="#6ACA77" stop-opacity="0.189194"/>
<stop offset="1" stop-color="#6ACA77" stop-opacity="0"/>
</linearGradient>
<linearGradient id="paint32_linear_6415_9310" x1="11.5946" y1="61.9236" x2="11.5946" y2="56.5254" gradientUnits="userSpaceOnUse">
<stop stop-color="#6ACA77"/>
<stop offset="0.743892" stop-color="#6ACA77" stop-opacity="0.189194"/>
<stop offset="1" stop-color="#6ACA77" stop-opacity="0"/>
</linearGradient>
</defs>
</svg>
