<svg width="65" height="65" viewBox="0 0 65 65" fill="none" xmlns="http://www.w3.org/2000/svg">
<circle cx="28.5781" cy="36.6584" r="24.0781" fill="url(#paint0_linear_6415_9332)"/>
<circle cx="28.5781" cy="36.6584" r="24.0781" fill="url(#paint1_radial_6415_9332)"/>
<circle cx="28.5781" cy="36.6584" r="24.0781" fill="url(#paint2_radial_6415_9332)"/>
<circle cx="28.5781" cy="36.6584" r="24.0781" fill="url(#paint3_linear_6415_9332)"/>
<circle cx="28.5781" cy="36.6584" r="24.0781" fill="url(#paint4_radial_6415_9332)"/>
<circle cx="28.5781" cy="36.6584" r="24.0781" fill="url(#paint5_radial_6415_9332)"/>
<circle cx="28.5781" cy="36.6584" r="17.6094" fill="url(#paint6_linear_6415_9332)"/>
<circle cx="28.5781" cy="36.6584" r="17.6094" fill="url(#paint7_radial_6415_9332)"/>
<circle cx="28.5781" cy="36.6584" r="17.6094" fill="url(#paint8_radial_6415_9332)"/>
<circle cx="28.5781" cy="36.6584" r="11.5156" fill="url(#paint9_linear_6415_9332)"/>
<circle cx="28.5781" cy="36.6584" r="11.5156" fill="url(#paint10_radial_6415_9332)"/>
<circle cx="28.5781" cy="36.6584" r="5.71875" fill="#F2E9FF"/>
<circle cx="28.5781" cy="36.6584" r="5.71875" fill="url(#paint11_radial_6415_9332)"/>
<circle cx="28.5781" cy="36.6584" r="5.71875" fill="url(#paint12_radial_6415_9332)"/>
<path d="M28.7688 36.4865C28.0917 35.8094 27.8418 35.0397 28.519 34.3626L31.949 30.9168C32.6261 30.2397 33.7239 30.2397 34.401 30.9168C35.0781 31.5939 35.0781 32.6917 34.401 33.3688L30.971 36.8147C30.2939 37.4918 29.446 37.1637 28.7688 36.4865Z" fill="#7C7088"/>
<path d="M28.7688 36.4865C28.0917 35.8094 27.8418 35.0397 28.519 34.3626L31.949 30.9168C32.6261 30.2397 33.7239 30.2397 34.401 30.9168C35.0781 31.5939 35.0781 32.6917 34.401 33.3688L30.971 36.8147C30.2939 37.4918 29.446 37.1637 28.7688 36.4865Z" fill="url(#paint13_linear_6415_9332)"/>
<path d="M28.7688 36.4865C28.0917 35.8094 27.8418 35.0397 28.519 34.3626L31.949 30.9168C32.6261 30.2397 33.7239 30.2397 34.401 30.9168C35.0781 31.5939 35.0781 32.6917 34.401 33.3688L30.971 36.8147C30.2939 37.4918 29.446 37.1637 28.7688 36.4865Z" fill="url(#paint14_linear_6415_9332)"/>
<path d="M45.3914 5.12565L48.2825 12.7678L39.3137 19.0491C36.3477 11.2047 40.7047 6.92714 43.9299 4.65731C44.4499 4.29135 45.1664 4.53092 45.3914 5.12565Z" fill="#2983DF"/>
<path d="M45.3914 5.12565L48.2825 12.7678L39.3137 19.0491C36.3477 11.2047 40.7047 6.92714 43.9299 4.65731C44.4499 4.29135 45.1664 4.53092 45.3914 5.12565Z" fill="url(#paint15_radial_6415_9332)"/>
<path d="M45.3914 5.12565L48.2825 12.7678L39.3137 19.0491C36.3477 11.2047 40.7047 6.92714 43.9299 4.65731C44.4499 4.29135 45.1664 4.53092 45.3914 5.12565Z" fill="url(#paint16_linear_6415_9332)"/>
<path d="M45.3914 5.12565L48.2825 12.7678L39.3137 19.0491C36.3477 11.2047 40.7047 6.92714 43.9299 4.65731C44.4499 4.29135 45.1664 4.53092 45.3914 5.12565Z" fill="url(#paint17_radial_6415_9332)" fill-opacity="0.8"/>
<path d="M45.3914 5.12565L48.2825 12.7678L39.3137 19.0491C36.3477 11.2047 40.7047 6.92714 43.9299 4.65731C44.4499 4.29135 45.1664 4.53092 45.3914 5.12565Z" fill="url(#paint18_radial_6415_9332)" fill-opacity="0.8"/>
<path d="M60.0532 19.7818L52.376 16.9851L46.2058 26.0306C54.0861 28.8998 58.3096 24.4903 60.5396 21.2374C60.8991 20.713 60.6507 19.9995 60.0532 19.7818Z" fill="#2980EB"/>
<path d="M60.0532 19.7818L52.376 16.9851L46.2058 26.0306C54.0861 28.8998 58.3096 24.4903 60.5396 21.2374C60.8991 20.713 60.6507 19.9995 60.0532 19.7818Z" fill="url(#paint19_linear_6415_9332)"/>
<path d="M60.0532 19.7818L52.376 16.9851L46.2058 26.0306C54.0861 28.8998 58.3096 24.4903 60.5396 21.2374C60.8991 20.713 60.6507 19.9995 60.0532 19.7818Z" fill="url(#paint20_radial_6415_9332)"/>
<path d="M60.0532 19.7818L52.376 16.9851L46.2058 26.0306C54.0861 28.8998 58.3096 24.4903 60.5396 21.2374C60.8991 20.713 60.6507 19.9995 60.0532 19.7818Z" fill="url(#paint21_radial_6415_9332)" fill-opacity="0.7"/>
<path d="M60.0532 19.7818L52.376 16.9851L46.2058 26.0306C54.0861 28.8998 58.3096 24.4903 60.5396 21.2374C60.8991 20.713 60.6507 19.9995 60.0532 19.7818Z" fill="url(#paint22_radial_6415_9332)" fill-opacity="0.6"/>
<path d="M60.0532 19.7818L52.376 16.9851L46.2058 26.0306C54.0861 28.8998 58.3096 24.4903 60.5396 21.2374C60.8991 20.713 60.6507 19.9995 60.0532 19.7818Z" fill="url(#paint23_radial_6415_9332)" fill-opacity="0.4"/>
<path d="M33.8614 22.156L47.1129 12.3369C48.871 11.0225 51.4993 11.365 52.8259 12.731C54.3004 14.3134 54.4752 16.6432 53.2104 18.362L43.4306 31.653C40.9739 34.9918 36.1302 35.3821 33.1705 32.4798C30.1872 29.5544 30.5149 24.6578 33.8614 22.156Z" fill="#52BCF0"/>
<path d="M33.8614 22.156L47.1129 12.3369C48.871 11.0225 51.4993 11.365 52.8259 12.731C54.3004 14.3134 54.4752 16.6432 53.2104 18.362L43.4306 31.653C40.9739 34.9918 36.1302 35.3821 33.1705 32.4798C30.1872 29.5544 30.5149 24.6578 33.8614 22.156Z" fill="url(#paint24_radial_6415_9332)"/>
<path d="M33.8614 22.156L47.1129 12.3369C48.871 11.0225 51.4993 11.365 52.8259 12.731C54.3004 14.3134 54.4752 16.6432 53.2104 18.362L43.4306 31.653C40.9739 34.9918 36.1302 35.3821 33.1705 32.4798C30.1872 29.5544 30.5149 24.6578 33.8614 22.156Z" fill="url(#paint25_radial_6415_9332)"/>
<path d="M33.8614 22.156L47.1129 12.3369C48.871 11.0225 51.4993 11.365 52.8259 12.731C54.3004 14.3134 54.4752 16.6432 53.2104 18.362L43.4306 31.653C40.9739 34.9918 36.1302 35.3821 33.1705 32.4798C30.1872 29.5544 30.5149 24.6578 33.8614 22.156Z" fill="url(#paint26_radial_6415_9332)"/>
<path d="M33.8614 22.156L47.1129 12.3369C48.871 11.0225 51.4993 11.365 52.8259 12.731C54.3004 14.3134 54.4752 16.6432 53.2104 18.362L43.4306 31.653C40.9739 34.9918 36.1302 35.3821 33.1705 32.4798C30.1872 29.5544 30.5149 24.6578 33.8614 22.156Z" fill="url(#paint27_radial_6415_9332)"/>
<path d="M33.8614 22.156L47.1129 12.3369C48.871 11.0225 51.4993 11.365 52.8259 12.731C54.3004 14.3134 54.4752 16.6432 53.2104 18.362L43.4306 31.653C40.9739 34.9918 36.1302 35.3821 33.1705 32.4798C30.1872 29.5544 30.5149 24.6578 33.8614 22.156Z" fill="url(#paint28_linear_6415_9332)" fill-opacity="0.8"/>
<rect x="52.5488" y="10.2205" width="3.53605" height="18.0754" rx="0.884013" transform="rotate(45 52.5488 10.2205)" fill="#2984E4"/>
<rect x="52.5488" y="10.2205" width="3.53605" height="18.0754" rx="0.884013" transform="rotate(45 52.5488 10.2205)" fill="url(#paint29_radial_6415_9332)"/>
<rect x="52.5488" y="10.2205" width="3.53605" height="18.0754" rx="0.884013" transform="rotate(45 52.5488 10.2205)" fill="url(#paint30_linear_6415_9332)" fill-opacity="0.8"/>
<rect x="52.5488" y="10.2205" width="3.53605" height="18.0754" rx="0.884013" transform="rotate(45 52.5488 10.2205)" fill="url(#paint31_radial_6415_9332)"/>
<rect x="52.5488" y="10.2205" width="3.53605" height="18.0754" rx="0.884013" transform="rotate(45 52.5488 10.2205)" fill="url(#paint32_radial_6415_9332)"/>
<rect x="52.5488" y="10.2205" width="3.53605" height="18.0754" rx="0.884013" transform="rotate(45 52.5488 10.2205)" fill="url(#paint33_linear_6415_9332)" fill-opacity="0.6"/>
<rect x="52.5488" y="10.2205" width="3.53605" height="18.0754" rx="0.884013" transform="rotate(45 52.5488 10.2205)" fill="url(#paint34_radial_6415_9332)"/>
<rect x="52.5488" y="10.2205" width="3.53605" height="18.0754" rx="0.884013" transform="rotate(45 52.5488 10.2205)" fill="url(#paint35_radial_6415_9332)"/>
<defs>
<linearGradient id="paint0_linear_6415_9332" x1="39.5671" y1="14.9793" x2="19.3662" y2="56.0683" gradientUnits="userSpaceOnUse">
<stop stop-color="#E6378B"/>
<stop offset="1" stop-color="#EF3A5C"/>
</linearGradient>
<radialGradient id="paint1_radial_6415_9332" cx="0" cy="0" r="1" gradientUnits="userSpaceOnUse" gradientTransform="translate(40.4446 21.396) rotate(124.825) scale(10.6693 15.5162)">
<stop offset="0.219108" stop-color="#B82974"/>
<stop offset="1" stop-color="#B82974" stop-opacity="0"/>
</radialGradient>
<radialGradient id="paint2_radial_6415_9332" cx="0" cy="0" r="1" gradientUnits="userSpaceOnUse" gradientTransform="translate(28.6529 35.9659) rotate(-29.1086) scale(24.433)">
<stop stop-color="#FF6AA2" stop-opacity="0"/>
<stop offset="0.807029" stop-color="#FF6AA2" stop-opacity="0"/>
<stop offset="0.836567" stop-color="#FF6AA2" stop-opacity="0.216676"/>
<stop offset="0.878292" stop-color="#FF6AA2" stop-opacity="0.87"/>
<stop offset="0.894773" stop-color="#FF6AA2"/>
<stop offset="0.909656" stop-color="#FF6AA2"/>
<stop offset="0.952007" stop-color="#FF6AA2" stop-opacity="0.312263"/>
<stop offset="1" stop-color="#FF6AA2" stop-opacity="0"/>
</radialGradient>
<linearGradient id="paint3_linear_6415_9332" x1="39.5671" y1="14.9793" x2="19.3662" y2="56.0683" gradientUnits="userSpaceOnUse">
<stop stop-color="#E6378B" stop-opacity="0"/>
<stop offset="1" stop-color="#EF3A5C"/>
</linearGradient>
<radialGradient id="paint4_radial_6415_9332" cx="0" cy="0" r="1" gradientUnits="userSpaceOnUse" gradientTransform="translate(30.71 39.1987) rotate(-124.54) scale(27.4539 26.1532)">
<stop offset="0.00406931" stop-color="#BF577D" stop-opacity="0"/>
<stop offset="0.884519" stop-color="#BF577D" stop-opacity="0.133453"/>
<stop offset="0.973143" stop-color="#BF577D"/>
</radialGradient>
<radialGradient id="paint5_radial_6415_9332" cx="0" cy="0" r="1" gradientUnits="userSpaceOnUse" gradientTransform="translate(28.6693 35.6068) rotate(107.442) scale(25.4709)">
<stop stop-color="#BC2954" stop-opacity="0"/>
<stop offset="0.885643" stop-color="#BC2954" stop-opacity="0.133453"/>
<stop offset="0.923839" stop-color="#BC2954" stop-opacity="0.361303"/>
<stop offset="0.99093" stop-color="#BC2954"/>
</radialGradient>
<linearGradient id="paint6_linear_6415_9332" x1="41.2062" y1="45.5137" x2="15.0576" y2="18.3496" gradientUnits="userSpaceOnUse">
<stop stop-color="#F2E9FF"/>
<stop offset="0.37822" stop-color="#F1E8FF"/>
<stop offset="1" stop-color="#F1E7FF"/>
</linearGradient>
<radialGradient id="paint7_radial_6415_9332" cx="0" cy="0" r="1" gradientUnits="userSpaceOnUse" gradientTransform="translate(22.9276 36.6584) scale(23.2599)">
<stop offset="0.86129" stop-color="#CBC4DF" stop-opacity="0"/>
<stop offset="1" stop-color="#CBC4DF"/>
</radialGradient>
<radialGradient id="paint8_radial_6415_9332" cx="0" cy="0" r="1" gradientUnits="userSpaceOnUse" gradientTransform="translate(36.8904 20.2536) rotate(118.217) scale(11.8125 6.46548)">
<stop stop-color="#9DA8B4"/>
<stop offset="1" stop-color="#9DA8B4" stop-opacity="0"/>
</radialGradient>
<linearGradient id="paint9_linear_6415_9332" x1="36.2557" y1="28.8852" x2="22.6737" y2="47.1638" gradientUnits="userSpaceOnUse">
<stop stop-color="#D2347A"/>
<stop offset="1" stop-color="#ED3963"/>
</linearGradient>
<radialGradient id="paint10_radial_6415_9332" cx="0" cy="0" r="1" gradientUnits="userSpaceOnUse" gradientTransform="translate(34.4787 29.266) rotate(131.253) scale(8.94853)">
<stop stop-color="#962359"/>
<stop offset="0.947427" stop-color="#962359" stop-opacity="0"/>
</radialGradient>
<radialGradient id="paint11_radial_6415_9332" cx="0" cy="0" r="1" gradientUnits="userSpaceOnUse" gradientTransform="translate(27.4972 34.7242) rotate(67.2035) scale(9.50064)">
<stop offset="0.612995" stop-color="#C9BED9" stop-opacity="0"/>
<stop offset="1" stop-color="#C9BED9"/>
</radialGradient>
<radialGradient id="paint12_radial_6415_9332" cx="0" cy="0" r="1" gradientUnits="userSpaceOnUse" gradientTransform="translate(32.5 32.7205) rotate(119.708) scale(6.25281)">
<stop stop-color="#857D97"/>
<stop offset="1" stop-color="#857D97" stop-opacity="0"/>
</radialGradient>
<linearGradient id="paint13_linear_6415_9332" x1="32.7966" y1="35.2984" x2="31.514" y2="33.9809" gradientUnits="userSpaceOnUse">
<stop stop-color="#7E5F8A"/>
<stop offset="1" stop-color="#7E5F8A" stop-opacity="0"/>
</linearGradient>
<linearGradient id="paint14_linear_6415_9332" x1="30.3016" y1="32.383" x2="30.7782" y2="32.8315" gradientUnits="userSpaceOnUse">
<stop stop-color="#746D7C"/>
<stop offset="1" stop-color="#746D7C" stop-opacity="0"/>
</linearGradient>
<radialGradient id="paint15_radial_6415_9332" cx="0" cy="0" r="1" gradientUnits="userSpaceOnUse" gradientTransform="translate(43.6577 13.0491) rotate(-157.278) scale(5.42068 9.84192)">
<stop offset="0.749676" stop-color="#6897C2" stop-opacity="0"/>
<stop offset="1" stop-color="#6897C2"/>
</radialGradient>
<linearGradient id="paint16_linear_6415_9332" x1="47.439" y1="9.36157" x2="44.2515" y2="10.4866" gradientUnits="userSpaceOnUse">
<stop stop-color="#58C3FF"/>
<stop offset="1" stop-color="#58C3FF" stop-opacity="0"/>
</linearGradient>
<radialGradient id="paint17_radial_6415_9332" cx="0" cy="0" r="1" gradientUnits="userSpaceOnUse" gradientTransform="translate(45.2679 8.29154) rotate(159.125) scale(1.61279 5.22974)">
<stop stop-color="#61CEFF" stop-opacity="0.91"/>
<stop offset="0.130208" stop-color="#61CEFF" stop-opacity="0.81"/>
<stop offset="0.342648" stop-color="#61CEFF" stop-opacity="0.629625"/>
<stop offset="0.643821" stop-color="#61CEFF" stop-opacity="0.230767"/>
<stop offset="0.84002" stop-color="#61CEFF" stop-opacity="0.0478216"/>
<stop offset="1" stop-color="#61CEFF" stop-opacity="0"/>
</radialGradient>
<radialGradient id="paint18_radial_6415_9332" cx="0" cy="0" r="1" gradientUnits="userSpaceOnUse" gradientTransform="translate(44.6242 6.75082) rotate(179.805) scale(1.47423 2.03542)">
<stop stop-color="#61CEFF" stop-opacity="0.69"/>
<stop offset="0.275025" stop-color="#61CEFF" stop-opacity="0.467031"/>
<stop offset="0.551302" stop-color="#61CEFF" stop-opacity="0.230767"/>
<stop offset="0.752579" stop-color="#61CEFF" stop-opacity="0.0802962"/>
<stop offset="1" stop-color="#61CEFF" stop-opacity="0"/>
</radialGradient>
<linearGradient id="paint19_linear_6415_9332" x1="56.7516" y1="17.799" x2="55.5641" y2="20.3615" gradientUnits="userSpaceOnUse">
<stop stop-color="#49B6FF"/>
<stop offset="1" stop-color="#49B6FF" stop-opacity="0"/>
</linearGradient>
<radialGradient id="paint20_radial_6415_9332" cx="0" cy="0" r="1" gradientUnits="userSpaceOnUse" gradientTransform="translate(51.7516 19.2052) rotate(79.5793) scale(8.29303 10.6829)">
<stop offset="0.814441" stop-color="#5066D2" stop-opacity="0"/>
<stop offset="0.92639" stop-color="#5066D2"/>
</radialGradient>
<radialGradient id="paint21_radial_6415_9332" cx="0" cy="0" r="1" gradientUnits="userSpaceOnUse" gradientTransform="translate(58.3004 20.4615) rotate(-160.121) scale(1.55421 1.43408)">
<stop stop-color="#61CEFF" stop-opacity="0.62"/>
<stop offset="0.1875" stop-color="#61CEFF" stop-opacity="0.623375"/>
<stop offset="0.442377" stop-color="#61CEFF" stop-opacity="0.42"/>
<stop offset="0.613012" stop-color="#61CEFF" stop-opacity="0.285582"/>
<stop offset="0.831915" stop-color="#61CEFF" stop-opacity="0.0956062"/>
<stop offset="1" stop-color="#61CEFF" stop-opacity="0"/>
</radialGradient>
<radialGradient id="paint22_radial_6415_9332" cx="0" cy="0" r="1" gradientUnits="userSpaceOnUse" gradientTransform="translate(57.1998 20.1449) rotate(-70.5575) scale(1.90919 5.17424)">
<stop stop-color="#61CEFF" stop-opacity="0.92"/>
<stop offset="0.209924" stop-color="#61CEFF" stop-opacity="0.83"/>
<stop offset="0.419125" stop-color="#61CEFF" stop-opacity="0.586094"/>
<stop offset="0.570058" stop-color="#61CEFF" stop-opacity="0.29"/>
<stop offset="0.707842" stop-color="#61CEFF" stop-opacity="0.15"/>
<stop offset="0.854955" stop-color="#61CEFF" stop-opacity="0.0575139"/>
<stop offset="1" stop-color="#61CEFF" stop-opacity="0"/>
</radialGradient>
<radialGradient id="paint23_radial_6415_9332" cx="0" cy="0" r="1" gradientUnits="userSpaceOnUse" gradientTransform="translate(55.2762 19.3169) rotate(-69.2499) scale(1.57736 4.08731)">
<stop stop-color="#61CEFF" stop-opacity="0.92"/>
<stop offset="0.272375" stop-color="#61CEFF" stop-opacity="0.83"/>
<stop offset="0.438199" stop-color="#61CEFF" stop-opacity="0.586094"/>
<stop offset="0.602123" stop-color="#61CEFF" stop-opacity="0.29"/>
<stop offset="0.733195" stop-color="#61CEFF" stop-opacity="0.15"/>
<stop offset="0.854955" stop-color="#61CEFF" stop-opacity="0.0575139"/>
<stop offset="1" stop-color="#61CEFF" stop-opacity="0"/>
</radialGradient>
<radialGradient id="paint24_radial_6415_9332" cx="0" cy="0" r="1" gradientUnits="userSpaceOnUse" gradientTransform="translate(54.815 12.4866) rotate(143.326) scale(7.32504 7.54806)">
<stop offset="0.422676" stop-color="#6BFFFF"/>
<stop offset="1" stop-color="#6BFFFF" stop-opacity="0"/>
</radialGradient>
<radialGradient id="paint25_radial_6415_9332" cx="0" cy="0" r="1" gradientUnits="userSpaceOnUse" gradientTransform="translate(48.5142 17.8284) rotate(137.684) scale(21.6938 21.9765)">
<stop offset="0.837515" stop-color="#5E9BDB" stop-opacity="0"/>
<stop offset="1" stop-color="#5E9BDB"/>
</radialGradient>
<radialGradient id="paint26_radial_6415_9332" cx="0" cy="0" r="1" gradientUnits="userSpaceOnUse" gradientTransform="translate(42.2892 22.9695) rotate(134.318) scale(3.94104 2.07373)">
<stop offset="0.360543" stop-color="#49A0E1"/>
<stop offset="1" stop-color="#49A0E1" stop-opacity="0"/>
</radialGradient>
<radialGradient id="paint27_radial_6415_9332" cx="0" cy="0" r="1" gradientUnits="userSpaceOnUse" gradientTransform="translate(51.2068 26.2308) rotate(174.74) scale(20.208 23.1912)">
<stop stop-color="#73A6BC" stop-opacity="0"/>
<stop offset="0.863454" stop-color="#73A6BC" stop-opacity="0"/>
<stop offset="0.927954" stop-color="#73A6BC" stop-opacity="0.367982"/>
<stop offset="1" stop-color="#73A6BC"/>
</radialGradient>
<linearGradient id="paint28_linear_6415_9332" x1="40.3654" y1="17.2296" x2="41.7775" y2="18.9333" gradientUnits="userSpaceOnUse">
<stop stop-color="#73A6BC"/>
<stop offset="0.216354" stop-color="#73A6BC" stop-opacity="0.752139"/>
<stop offset="0.649486" stop-color="#73A6BC" stop-opacity="0.245957"/>
<stop offset="1" stop-color="#73A6BC" stop-opacity="0"/>
</linearGradient>
<radialGradient id="paint29_radial_6415_9332" cx="0" cy="0" r="1" gradientUnits="userSpaceOnUse" gradientTransform="translate(54.1624 11.9882) rotate(-89.5692) scale(5.87799 2.23904)">
<stop stop-color="#60CAFF"/>
<stop offset="1" stop-color="#60CAFF" stop-opacity="0"/>
</radialGradient>
<linearGradient id="paint30_linear_6415_9332" x1="56.1454" y1="18.6293" x2="52.5007" y2="18.6293" gradientUnits="userSpaceOnUse">
<stop stop-color="#3C6FD4"/>
<stop offset="0.11676" stop-color="#3C6FD4" stop-opacity="0.323631"/>
<stop offset="0.2296" stop-color="#3C6FD4" stop-opacity="0"/>
<stop offset="1" stop-color="#3C6FD4" stop-opacity="0"/>
</linearGradient>
<radialGradient id="paint31_radial_6415_9332" cx="0" cy="0" r="1" gradientUnits="userSpaceOnUse" gradientTransform="translate(55.7688 10.3561) rotate(137.386) scale(1.2115 4.8677)">
<stop stop-color="#3C6FD4"/>
<stop offset="0.546147" stop-color="#3C6FD4" stop-opacity="0.323631"/>
<stop offset="0.781897" stop-color="#3C6FD4" stop-opacity="0.0903368"/>
<stop offset="1" stop-color="#3C6FD4" stop-opacity="0"/>
</radialGradient>
<radialGradient id="paint32_radial_6415_9332" cx="0" cy="0" r="1" gradientUnits="userSpaceOnUse" gradientTransform="translate(55.4959 27.7618) rotate(-128.816) scale(1.58719 8.65774)">
<stop stop-color="#3C6FD4"/>
<stop offset="0.363774" stop-color="#3C6FD4" stop-opacity="0.323631"/>
<stop offset="0.614826" stop-color="#3C6FD4" stop-opacity="0"/>
</radialGradient>
<linearGradient id="paint33_linear_6415_9332" x1="52.372" y1="19.1163" x2="56.3282" y2="19.0963" gradientUnits="userSpaceOnUse">
<stop offset="0.0417817" stop-color="#2985C3"/>
<stop offset="0.123078" stop-color="#2985C3" stop-opacity="0.63544"/>
<stop offset="0.155514" stop-color="#2985C3" stop-opacity="0.313317"/>
<stop offset="0.204261" stop-color="#2985C3" stop-opacity="0"/>
<stop offset="0.349746" stop-color="#2985C3" stop-opacity="0"/>
</linearGradient>
<radialGradient id="paint34_radial_6415_9332" cx="0" cy="0" r="1" gradientUnits="userSpaceOnUse" gradientTransform="translate(53.1797 27.8524) rotate(-49.9106) scale(1.4002 3.00956)">
<stop stop-color="#2985C3"/>
<stop offset="0.513046" stop-color="#2985C3" stop-opacity="0.313317"/>
<stop offset="1" stop-color="#2985C3" stop-opacity="0"/>
</radialGradient>
<radialGradient id="paint35_radial_6415_9332" cx="0" cy="0" r="1" gradientUnits="userSpaceOnUse" gradientTransform="translate(52.6358 10.783) rotate(34.439) scale(0.876865 1.88472)">
<stop stop-color="#2985C3"/>
<stop offset="0.3125" stop-color="#2985C3" stop-opacity="0.313317"/>
<stop offset="1" stop-color="#2985C3" stop-opacity="0"/>
</radialGradient>
</defs>
</svg>
