<svg width="65" height="65" viewBox="0 0 65 65" fill="none" xmlns="http://www.w3.org/2000/svg">
<rect width="15.026" height="24.4173" rx="5" transform="matrix(-0.707107 -0.707107 -0.707107 0.707107 29.3398 46.4709)" fill="url(#paint0_linear_6415_9365)"/>
<rect width="15.026" height="24.4173" rx="5" transform="matrix(-0.707107 -0.707107 -0.707107 0.707107 29.3398 46.4709)" fill="url(#paint1_linear_6415_9365)"/>
<rect width="15.026" height="24.4173" rx="5" transform="matrix(-0.707107 -0.707107 -0.707107 0.707107 29.3398 46.4709)" fill="url(#paint2_linear_6415_9365)"/>
<rect width="15.026" height="24.4173" rx="5" transform="matrix(-0.707107 -0.707107 -0.707107 0.707107 29.3398 46.4709)" fill="url(#paint3_radial_6415_9365)"/>
<path fill-rule="evenodd" clip-rule="evenodd" d="M38.3555 48.3303C26.4123 48.3303 16.7305 38.6485 16.7305 26.7053C16.7305 14.7621 26.4123 5.08032 38.3555 5.08032C50.2986 5.08032 59.9805 14.7621 59.9805 26.7053C59.9805 38.6485 50.2986 48.3303 38.3555 48.3303ZM38.3555 44.8303C28.3453 44.8303 20.2305 36.7155 20.2305 26.7053C20.2305 16.6952 28.3453 8.58032 38.3555 8.58032C48.3656 8.58032 56.4805 16.6952 56.4805 26.7053C56.4805 36.7155 48.3656 44.8303 38.3555 44.8303Z" fill="url(#paint4_linear_6415_9365)"/>
<path fill-rule="evenodd" clip-rule="evenodd" d="M38.3562 47.841C26.6831 47.841 17.2203 38.3781 17.2203 26.7051C17.2203 15.032 26.6831 5.56909 38.3562 5.56909C50.0293 5.56909 59.4922 15.032 59.4922 26.7051C59.4922 38.3781 50.0293 47.841 38.3562 47.841ZM38.3562 44.4202C28.5725 44.4202 20.6411 36.4888 20.6411 26.7051C20.6411 16.9213 28.5725 8.98994 38.3562 8.98994C48.14 8.98994 56.0713 16.9213 56.0713 26.7051C56.0713 36.4888 48.14 44.4202 38.3562 44.4202Z" fill="url(#paint5_linear_6415_9365)"/>
<path fill-rule="evenodd" clip-rule="evenodd" d="M38.3562 47.841C26.6831 47.841 17.2203 38.3781 17.2203 26.7051C17.2203 15.032 26.6831 5.56909 38.3562 5.56909C50.0293 5.56909 59.4922 15.032 59.4922 26.7051C59.4922 38.3781 50.0293 47.841 38.3562 47.841ZM38.3562 44.4202C28.5725 44.4202 20.6411 36.4888 20.6411 26.7051C20.6411 16.9213 28.5725 8.98994 38.3562 8.98994C48.14 8.98994 56.0713 16.9213 56.0713 26.7051C56.0713 36.4888 48.14 44.4202 38.3562 44.4202Z" fill="url(#paint6_radial_6415_9365)"/>
<circle cx="18.5901" cy="18.5901" r="18.5901" transform="matrix(-1 0 0 1 56.9453 8.11499)" fill="url(#paint7_linear_6415_9365)"/>
<circle cx="18.125" cy="18.125" r="18.125" transform="matrix(-1 0 0 1 56.4805 8.58032)" fill="#B5F1FF"/>
<circle cx="18.125" cy="18.125" r="18.125" transform="matrix(-1 0 0 1 56.4805 8.58032)" fill="url(#paint8_radial_6415_9365)"/>
<ellipse cx="41.985" cy="18.8026" rx="7.6164" ry="9.37927" transform="rotate(-38.8957 41.985 18.8026)" fill="url(#paint9_linear_6415_9365)"/>
<defs>
<linearGradient id="paint0_linear_6415_9365" x1="1.25953" y1="20.7271" x2="9.92159" y2="3.66812" gradientUnits="userSpaceOnUse">
<stop stop-color="#A0659C"/>
<stop offset="1" stop-color="#895792"/>
</linearGradient>
<linearGradient id="paint1_linear_6415_9365" x1="7.49091" y1="1.06066" x2="7.51302" y2="9.63433" gradientUnits="userSpaceOnUse">
<stop stop-color="#6C3B74"/>
<stop offset="1" stop-color="#845590" stop-opacity="0"/>
</linearGradient>
<linearGradient id="paint2_linear_6415_9365" x1="15.2249" y1="16.6612" x2="4.92765" y2="16.3518" gradientUnits="userSpaceOnUse">
<stop offset="0.115168" stop-color="#703D7A"/>
<stop offset="1" stop-color="#703D7A" stop-opacity="0"/>
</linearGradient>
<radialGradient id="paint3_radial_6415_9365" cx="0" cy="0" r="1" gradientUnits="userSpaceOnUse" gradientTransform="translate(7.6014 -0.375651) rotate(92.4424) scale(4.66673 10.8457)">
<stop stop-color="#2F1A3D"/>
<stop offset="1" stop-color="#532D64" stop-opacity="0"/>
</radialGradient>
<linearGradient id="paint4_linear_6415_9365" x1="38.3555" y1="5.08032" x2="38.3555" y2="48.3303" gradientUnits="userSpaceOnUse">
<stop offset="0.378529" stop-color="#344A7D"/>
<stop offset="0.633316" stop-color="#785790"/>
<stop offset="0.837142" stop-color="#785790"/>
<stop offset="1" stop-color="#9872A2"/>
</linearGradient>
<linearGradient id="paint5_linear_6415_9365" x1="38.3562" y1="5.56909" x2="38.3562" y2="47.841" gradientUnits="userSpaceOnUse">
<stop stop-color="#475890"/>
<stop offset="1" stop-color="#7A4D87"/>
</linearGradient>
<radialGradient id="paint6_radial_6415_9365" cx="0" cy="0" r="1" gradientUnits="userSpaceOnUse" gradientTransform="translate(38.3562 15.5488) rotate(-89.9999) scale(10.25 19.0625)">
<stop offset="0.704268" stop-color="#566298"/>
<stop offset="0.786585" stop-color="#566298" stop-opacity="0"/>
</radialGradient>
<linearGradient id="paint7_linear_6415_9365" x1="18.5901" y1="0" x2="18.5901" y2="37.1802" gradientUnits="userSpaceOnUse">
<stop stop-color="#204083"/>
<stop offset="1" stop-color="#523573"/>
</linearGradient>
<radialGradient id="paint8_radial_6415_9365" cx="0" cy="0" r="1" gradientUnits="userSpaceOnUse" gradientTransform="translate(18.125 19.1563) rotate(90) scale(22)">
<stop offset="0.651103" stop-color="#33A2F3" stop-opacity="0"/>
<stop offset="1" stop-color="#0093FF"/>
</radialGradient>
<linearGradient id="paint9_linear_6415_9365" x1="41.985" y1="9.42331" x2="41.985" y2="28.1819" gradientUnits="userSpaceOnUse">
<stop stop-color="white"/>
<stop offset="0.209118" stop-color="white" stop-opacity="0.84797"/>
<stop offset="1" stop-color="white" stop-opacity="0"/>
</linearGradient>
</defs>
</svg>
