<svg width="136" height="80" viewBox="0 0 136 80" fill="none" xmlns="http://www.w3.org/2000/svg">
<g filter="url(#filter0_d_2012_924)">
<rect x="8" y="6" width="120" height="64" rx="8" fill="white" fill-opacity="0.5" shape-rendering="crispEdges"/>
<g clip-path="url(#clip0_2012_924)">
<path d="M37.5 38C37.5 33.6 41.215 30 45.7556 30H90.2444C94.785 30 98.5 33.6 98.5 38C98.5 42.4 94.785 46 90.2444 46H37.5V38Z" fill="#FF680A"/>
<path d="M61.9913 35.7778H64.8807V41.5111H66.2108V35.7778H69.1003V34.6667H61.9913V35.7778Z" fill="white"/>
<path d="M51.5804 40.3556H51.03V34.6223H49.6541V40.3556H45.3887V34.6223H44.0128V40.8445C44.0128 41.2 44.3338 41.5111 44.7007 41.5111H50.9842V42.5334H52.2684V41.0667C52.2684 41.0667 52.2684 41.0667 52.2684 41.0223C52.2684 41.0223 52.2684 41.0223 52.2684 40.9778C52.2225 40.6223 51.9015 40.3556 51.5804 40.3556Z" fill="white"/>
<path d="M60.1571 34.6667C60.1571 34.6667 59.6984 34.5778 59.3315 34.9778L54.8827 39.3778V34.6223H53.5067V40.9778C53.5067 41.3334 53.9195 41.6445 54.1947 41.6445C54.4699 41.6445 54.5157 41.6 54.6533 41.4667C54.6992 41.4667 54.6992 41.4223 54.7451 41.3778L59.515 36.7111V41.4667H60.8909V35.2889C60.8451 34.9334 60.524 34.6667 60.1571 34.6667Z" fill="white"/>
<path d="M90.244 39.2889C90.1522 39.4667 90.0146 39.6445 89.877 39.7778C89.6477 40 89.4184 40.1778 89.1432 40.2667C88.868 40.4 88.5928 40.4445 88.2259 40.4445C87.9049 40.4445 87.5838 40.4 87.3086 40.2667C87.0334 40.1333 86.8041 40 86.5748 39.7778C86.3455 39.5556 86.162 39.2889 86.0703 39.0222C85.9327 38.7556 85.8868 38.4445 85.9327 38.0445C85.9327 37.6889 85.9785 37.3778 86.1161 37.1111C86.2079 36.8445 86.3913 36.5778 86.6206 36.3556C86.85 36.1333 87.0793 35.9556 87.3545 35.8667C87.6297 35.7333 87.9049 35.6889 88.2718 35.6889C88.5928 35.6889 88.9139 35.7333 89.1891 35.8667C89.4643 36 89.6936 36.1333 89.9229 36.3556L90.9778 35.5556V35.5111C90.6109 35.1556 90.244 34.8889 89.7853 34.7111C89.3267 34.5333 88.868 34.4445 88.3176 34.4445C87.8131 34.4445 87.3086 34.5333 86.85 34.7111C86.3913 34.8889 86.0244 35.1556 85.6575 35.5111C85.2906 35.8667 85.0612 36.2222 84.8778 36.6667C84.6943 37.1111 84.6026 37.5556 84.6026 38.0889C84.6026 38.6222 84.6943 39.0667 84.8778 39.5111C85.0612 39.9556 85.3364 40.3556 85.6575 40.7111C86.0244 41.0667 86.3913 41.3333 86.85 41.5111C87.3086 41.6889 87.7673 41.7778 88.3176 41.7778C88.8222 41.7778 89.3267 41.6889 89.7853 41.5111C90.244 41.3333 90.6109 41.0667 90.9778 40.7111C91.1612 40.5333 91.2988 40.3556 91.4364 40.1778L90.244 39.2889Z" fill="white"/>
<path d="M83.0897 34.6223L81.301 38.3556L79.0536 34.6223H77.5401L80.613 39.6889C80.3378 40.1778 79.8333 40.4889 79.2371 40.4889C78.8702 40.4889 78.5491 40.4 78.2281 40.3111V41.5111C78.5033 41.6445 78.916 41.6889 79.4664 41.6889C80.4754 41.6889 81.3469 41.0667 81.9431 39.8223L84.5574 34.6667H83.0897V34.6223Z" fill="white"/>
<path d="M74.0541 34.6223H70.9812C70.6143 34.6223 70.2932 34.9334 70.2932 35.2889V41.5111H71.6692V39.3334H74.0082C74.9255 39.3334 75.6135 39.1111 76.118 38.6667C76.6225 38.2223 76.8977 37.6445 76.8977 36.9334C76.8977 36.2223 76.6225 35.6889 76.118 35.2445C75.6594 34.8445 74.9255 34.6223 74.0541 34.6223ZM73.9165 38.1778H71.6692V35.7778H73.9165C74.9714 35.7778 75.5676 36.2223 75.5676 36.9778C75.5676 37.7334 74.9714 38.1778 73.9165 38.1778Z" fill="white"/>
</g>
</g>
<defs>
<filter id="filter0_d_2012_924" x="0" y="0" width="136" height="80" filterUnits="userSpaceOnUse" color-interpolation-filters="sRGB">
<feFlood flood-opacity="0" result="BackgroundImageFix"/>
<feColorMatrix in="SourceAlpha" type="matrix" values="0 0 0 0 0 0 0 0 0 0 0 0 0 0 0 0 0 0 127 0" result="hardAlpha"/>
<feOffset dy="2"/>
<feGaussianBlur stdDeviation="4"/>
<feComposite in2="hardAlpha" operator="out"/>
<feColorMatrix type="matrix" values="0 0 0 0 0.121569 0 0 0 0 0.12549 0 0 0 0 0.141176 0 0 0 0.1 0"/>
<feBlend mode="normal" in2="BackgroundImageFix" result="effect1_dropShadow_2012_924"/>
<feBlend mode="normal" in="SourceGraphic" in2="effect1_dropShadow_2012_924" result="shape"/>
</filter>
<clipPath id="clip0_2012_924">
<rect width="61" height="16" fill="white" transform="translate(37.5 30)"/>
</clipPath>
</defs>
</svg>
