<svg width="136" height="80" viewBox="0 0 136 80" fill="none" xmlns="http://www.w3.org/2000/svg">
<g filter="url(#filter0_d_2012_942)">
<rect x="8" y="6" width="120" height="64" rx="8" fill="white" fill-opacity="0.5" shape-rendering="crispEdges"/>
<path d="M64.9655 33.2865L60.7662 37.3377V33.3093H58.6281V42.6112H60.7662V40.0371L62.2916 38.5926L65.0523 42.6112H67.8577L63.9807 37.0031L67.6667 33.2868H64.9655V33.2865ZM75.9066 33.2865L71.7073 37.3377V33.3093H69.5692V42.6112H71.7073V40.0371L73.2327 38.5926L75.9934 42.6112H78.7988L74.9218 37.0031L78.6103 33.2868H75.9066V33.2865ZM56.7405 35.746C56.5938 35.1479 56.2878 34.6016 55.8555 34.166C55.4231 33.7304 54.8809 33.4221 54.2873 33.2743C52.8447 32.9086 51.3347 32.9086 49.892 33.2743C49.2985 33.4221 48.7563 33.7304 48.3239 34.166C47.8916 34.6016 47.5856 35.1479 47.4389 35.746C47.0763 37.1996 47.0763 38.721 47.4389 40.1746C47.5858 40.7729 47.8922 41.3194 48.3249 41.7551C48.7578 42.1907 49.3005 42.4989 49.8945 42.6462C51.3371 43.0121 52.8472 43.0121 54.2898 42.6462C54.8834 42.4985 55.4256 42.1901 55.8579 41.7546C56.2903 41.3189 56.5963 40.7726 56.7429 40.1746C57.1055 38.721 57.1055 37.1996 56.7429 35.746H56.7405ZM54.6594 39.6547C54.6059 39.8717 54.4948 40.0699 54.3379 40.2281C54.181 40.3861 53.9843 40.4981 53.7689 40.5519C52.6659 40.8325 51.511 40.8325 50.408 40.5519C50.1926 40.4981 49.9959 40.3861 49.839 40.2281C49.6821 40.0699 49.5709 39.8717 49.5175 39.6547C49.2389 38.5434 49.2389 37.3797 49.5175 36.2683C49.5709 36.0513 49.6821 35.8531 49.839 35.6951C49.9959 35.537 50.1926 35.425 50.408 35.3711C51.511 35.0906 52.6659 35.0906 53.7689 35.3711C53.9843 35.425 54.181 35.537 54.3379 35.6951C54.4948 35.8531 54.6059 36.0513 54.6594 36.2683C54.9379 37.3797 54.9379 38.5434 54.6594 39.6547ZM88.5642 35.746C88.4174 35.1476 88.111 34.601 87.6782 34.1654C87.2453 33.7297 86.7025 33.4216 86.1085 33.2743C84.6659 32.9086 83.1559 32.9086 81.7132 33.2743C81.1196 33.4221 80.5774 33.7304 80.1452 34.166C79.7128 34.6016 79.4067 35.1479 79.2602 35.746C78.8977 37.1996 78.8977 38.721 79.2602 40.1746C79.407 40.7725 79.713 41.3187 80.1453 41.7543C80.5777 42.19 81.1198 42.4983 81.7132 42.6462C83.1559 43.0121 84.666 43.0121 86.1085 42.6462C86.7021 42.4985 87.2444 42.1901 87.6767 41.7546C88.1091 41.319 88.415 40.7726 88.5617 40.1746C88.9243 38.721 88.9243 37.1996 88.5617 35.746H88.5642ZM86.4831 39.6522C86.4299 39.8693 86.3188 40.0676 86.1618 40.2257C86.0049 40.3839 85.8081 40.4958 85.5927 40.5494C84.4896 40.83 83.3346 40.83 82.2317 40.5494C82.0163 40.4957 81.8195 40.3837 81.6625 40.2256C81.5056 40.0675 81.3945 39.8693 81.3412 39.6522C81.063 38.5408 81.063 37.3772 81.3412 36.2658C81.3948 36.0489 81.5059 35.8507 81.6628 35.6926C81.8196 35.5345 82.0163 35.4225 82.2317 35.3686C83.3346 35.0881 84.4896 35.0881 85.5927 35.3686C85.8081 35.4223 86.0048 35.5343 86.1617 35.6924C86.3187 35.8505 86.4298 36.0488 86.4831 36.2658C86.7617 37.3772 86.7617 38.5409 86.4831 39.6522Z" fill="#6BBA45"/>
</g>
<defs>
<filter id="filter0_d_2012_942" x="0" y="0" width="136" height="80" filterUnits="userSpaceOnUse" color-interpolation-filters="sRGB">
<feFlood flood-opacity="0" result="BackgroundImageFix"/>
<feColorMatrix in="SourceAlpha" type="matrix" values="0 0 0 0 0 0 0 0 0 0 0 0 0 0 0 0 0 0 127 0" result="hardAlpha"/>
<feOffset dy="2"/>
<feGaussianBlur stdDeviation="4"/>
<feComposite in2="hardAlpha" operator="out"/>
<feColorMatrix type="matrix" values="0 0 0 0 0.121569 0 0 0 0 0.12549 0 0 0 0 0.141176 0 0 0 0.1 0"/>
<feBlend mode="normal" in2="BackgroundImageFix" result="effect1_dropShadow_2012_942"/>
<feBlend mode="normal" in="SourceGraphic" in2="effect1_dropShadow_2012_942" result="shape"/>
</filter>
</defs>
</svg>
