<svg width="137" height="80" viewBox="0 0 137 80" fill="none" xmlns="http://www.w3.org/2000/svg">
<g filter="url(#filter0_d_2012_969)">
<rect x="8.5" y="6" width="120" height="64" rx="8" fill="white" fill-opacity="0.5" shape-rendering="crispEdges"/>
<path d="M57.4816 37.5889C57.4816 37.7274 57.5963 37.8393 57.7383 37.8393H58.5538C58.6957 37.8393 58.8104 37.7274 58.8104 37.5893V36.6226H61.8414V37.5893C61.8414 37.7274 61.9565 37.8393 62.0981 37.8393H62.914C63.0555 37.8393 63.1706 37.7274 63.1706 37.5893V35.4607H62.4683V32.557C62.4687 32.5277 62.4631 32.4986 62.4516 32.4714C62.4402 32.4442 62.4233 32.4194 62.4018 32.3984C62.3803 32.3774 62.3547 32.3606 62.3264 32.3491C62.2981 32.3376 62.2677 32.3314 62.2369 32.3311H58.866C58.7221 32.3311 58.6063 32.4459 58.6094 32.5867C58.6148 32.8089 58.616 33.1663 58.5934 33.6119C58.565 34.1696 58.3916 34.8374 58.0268 35.4607H57.4816V37.5889ZM59.533 35.047C59.7406 34.5907 59.7966 33.8574 59.8157 33.4978H61.1379L61.1395 35.4607H59.3067C59.3871 35.3367 59.463 35.2015 59.533 35.047ZM74.2703 36.363V32.5707C74.271 32.5052 74.2444 32.442 74.1963 32.3952C74.1481 32.3483 74.0825 32.3215 74.0136 32.3207H73.1977C73.1289 32.3215 73.0632 32.3483 73.0151 32.3952C72.967 32.442 72.9403 32.5052 72.9411 32.5707V33.8322H71.0783V32.5711C71.079 32.5056 71.0524 32.4424 71.0043 32.3955C70.9562 32.3487 70.8905 32.3219 70.8216 32.3211H70.0057C69.9369 32.3219 69.8712 32.3487 69.8231 32.3955C69.775 32.4424 69.7484 32.5056 69.7491 32.5711V36.363C69.7491 36.5015 69.8642 36.6133 70.0057 36.6133H70.8216C70.9632 36.6133 71.0783 36.5015 71.0783 36.363V35.0322H72.9411V36.363C72.9411 36.5015 73.0562 36.6133 73.1977 36.6133H74.0132C74.1552 36.6133 74.2703 36.5015 74.2703 36.363ZM67.4403 35.1411C67.4519 35.6715 67.4492 36.1041 67.4453 36.3596C67.4444 36.3924 67.4504 36.425 67.4629 36.4555C67.4753 36.486 67.4941 36.5139 67.5179 36.5375C67.5418 36.561 67.5704 36.5799 67.602 36.5928C67.6336 36.6058 67.6676 36.6126 67.702 36.613H68.5128C68.6544 36.613 68.7695 36.5011 68.7695 36.3626V32.5711C68.7702 32.5056 68.7436 32.4424 68.6954 32.3955C68.6473 32.3487 68.5816 32.3219 68.5128 32.3211H67.5585C67.5212 32.3212 67.4844 32.329 67.4506 32.3441C67.4169 32.3592 67.3871 32.3812 67.3632 32.4085L65.2485 34.8159C65.282 34.5201 65.2984 34.2227 65.2975 33.9252V32.5711C65.2982 32.5056 65.2716 32.4424 65.2235 32.3955C65.1753 32.3487 65.1096 32.3219 65.0408 32.3211H64.2253C64.1565 32.3219 64.0908 32.3487 64.0427 32.3955C63.9945 32.4424 63.9679 32.5056 63.9686 32.5711V36.363C63.9686 36.5015 64.0834 36.6133 64.2253 36.6133H65.1796C65.2168 36.6132 65.2534 36.6054 65.287 36.5903C65.3206 36.5753 65.3503 36.5534 65.3741 36.5263L67.4741 34.1448C67.45 34.323 67.4294 34.6285 67.4403 35.1415V35.1411ZM85.0269 36.1993L83.5558 34.4315L84.9814 32.7207C85.1137 32.5559 84.9931 32.3152 84.7784 32.3159L83.8583 32.3204C83.8193 32.3207 83.7809 32.3295 83.746 32.3462C83.7112 32.3629 83.6808 32.387 83.6573 32.4167L82.5159 33.8381H81.8805V32.5715C81.8809 32.539 81.8745 32.5067 81.8619 32.4766C81.8492 32.4464 81.8304 32.4189 81.8066 32.3957C81.7827 32.3724 81.7543 32.3539 81.723 32.3411C81.6916 32.3283 81.6579 32.3215 81.6238 32.3211H80.8079C80.7738 32.3215 80.7401 32.3283 80.7087 32.3411C80.6774 32.3539 80.6489 32.3724 80.6251 32.3957C80.6013 32.4189 80.5825 32.4464 80.5698 32.4766C80.5571 32.5067 80.5508 32.539 80.5512 32.5715V36.363C80.5512 36.5011 80.6663 36.613 80.8079 36.613H81.6238C81.7653 36.613 81.8805 36.5011 81.8805 36.363V35.0185H82.5171L83.7071 36.5074C83.7557 36.5685 83.8303 36.6037 83.9093 36.6037H84.8251C85.039 36.6037 85.1588 36.3633 85.0269 36.1993ZM54.3701 36.6374C54.0462 37.2407 53.6685 37.1348 53.3248 37.1689C53.1719 37.1837 53.0603 37.3163 53.0693 37.4656V38.1352C53.0751 38.3759 53.315 38.4996 53.5305 38.4796C54.8177 38.3581 55.352 37.5289 55.5465 37.2119C55.9486 36.5563 57.0367 34.2974 57.6543 32.7107C57.7293 32.5181 57.6025 32.3107 57.3914 32.3119L56.5891 32.3167C56.5157 32.3176 56.4444 32.3398 56.3846 32.3804C56.3248 32.421 56.2795 32.4779 56.2547 32.5437L55.1483 35.5822L53.9999 32.5233C53.9774 32.4636 53.9364 32.4118 53.8821 32.3749C53.8279 32.3381 53.7632 32.3179 53.6965 32.317L52.8387 32.3119C52.643 32.3107 52.512 32.5081 52.5937 32.6815L54.3701 36.6374ZM89.4451 43.7593L87.9771 41.9889L89.4058 40.2807C89.5388 40.1163 89.4179 39.8752 89.2032 39.8756L88.2835 39.8785C88.2445 39.8787 88.2061 39.8874 88.1713 39.904C88.1364 39.9205 88.106 39.9445 88.0824 39.9741L86.9173 41.42H86.3029L86.3052 40.1259C86.3057 40.0934 86.2994 40.0611 86.2868 40.0309C86.2741 40.0007 86.2553 39.9732 86.2315 39.9499C86.2076 39.9266 86.1792 39.908 86.1478 39.8952C86.1164 39.8824 86.0827 39.8756 86.0486 39.8752L85.2331 39.8737C85.1989 39.874 85.1652 39.8808 85.1339 39.8935C85.1025 39.9063 85.074 39.9248 85.0502 39.948C85.0263 39.9712 85.0075 39.9987 84.9947 40.0288C84.982 40.059 84.9756 40.0912 84.976 40.1237L84.969 43.9152C84.9683 43.9808 84.9949 44.044 85.043 44.091C85.0911 44.138 85.1568 44.165 85.2257 44.1659L86.0412 44.1674C86.11 44.1665 86.1757 44.1397 86.2238 44.0929C86.272 44.0461 86.2987 43.983 86.2982 43.9174L86.3006 42.6004H86.9582L88.1244 44.0656C88.173 44.1263 88.2477 44.1619 88.3267 44.1619L89.2421 44.1633C89.4564 44.1637 89.5769 43.9237 89.4451 43.7593ZM49.1275 39.8748H48.4431C48.4018 39.8752 48.361 39.8834 48.3231 39.8989C48.2851 39.9143 48.2507 39.9367 48.2219 39.9648C48.193 39.9929 48.1703 40.0262 48.1549 40.0626C48.1395 40.0991 48.1319 40.1381 48.1323 40.1774V43.8504C48.1323 44.0174 48.2716 44.153 48.4427 44.153H49.1271C49.1684 44.1525 49.2091 44.1444 49.2471 44.1289C49.285 44.1135 49.3194 44.0911 49.3483 44.063C49.3771 44.0349 49.3999 44.0016 49.4153 43.9651C49.4306 43.9287 49.4383 43.8897 49.4378 43.8504V40.1778C49.4388 40.0985 49.4066 40.0221 49.3484 39.9653C49.2902 39.9086 49.2108 39.8758 49.1275 39.8748ZM53.4714 39.8748H50.8639C50.8226 39.8752 50.7818 39.8834 50.7439 39.8989C50.706 39.9143 50.6716 39.9367 50.6427 39.9648C50.6139 39.9929 50.5911 40.0262 50.5757 40.0626C50.5604 40.0991 50.5527 40.1381 50.5532 40.1774V43.8504C50.5532 44.0174 50.692 44.153 50.8635 44.153H51.5479C51.5892 44.1525 51.63 44.1444 51.6679 44.1289C51.7059 44.1135 51.7403 44.0911 51.7691 44.063C51.798 44.0349 51.8207 44.0016 51.8361 43.9651C51.8515 43.9287 51.8591 43.8897 51.8587 43.8504V41.1474H53.4714C53.6425 41.1474 53.7817 41.0119 53.7817 40.8448V40.1774C53.7826 40.0981 53.7505 40.0217 53.6923 39.9649C53.6341 39.9082 53.5547 39.8758 53.4714 39.8748ZM57.2012 39.8011C56.6517 39.8011 56.2239 40.0319 55.8949 40.35V40.1774C55.8959 40.0981 55.8637 40.0217 55.8055 39.9649C55.7473 39.9082 55.6679 39.8758 55.5846 39.8748H54.9002C54.8169 39.8758 54.7374 39.9082 54.6792 39.9649C54.621 40.0217 54.5889 40.0981 54.5898 40.1774V45.6974C54.5898 45.8644 54.7287 46 54.9002 46H55.5846C55.6679 45.999 55.7473 45.9666 55.8055 45.9099C55.8637 45.8531 55.8959 45.7767 55.8949 45.6974V43.6826C56.2259 43.9878 56.6416 44.2181 57.1433 44.2181C58.5145 44.2181 59.3716 43.2293 59.3716 42.0093C59.3716 40.7893 58.5227 39.8011 57.2016 39.8011H57.2012ZM56.9873 43.073C56.3546 43.073 55.891 42.5722 55.891 42.0093C55.891 41.4463 56.3546 40.9452 56.9877 40.9452C57.6208 40.9452 58.0587 41.4459 58.0587 42.0093C58.0587 42.5722 57.6204 43.073 56.9873 43.073ZM49.1139 37.8096H48.4567C48.4136 37.8101 48.371 37.8186 48.3314 37.8347C48.2918 37.8508 48.2559 37.8742 48.2257 37.9036C48.1956 37.9329 48.1719 37.9676 48.1558 38.0057C48.1398 38.0438 48.1318 38.0845 48.1323 38.1256V38.7663C48.1323 38.9411 48.2774 39.0826 48.4563 39.0826H49.1135C49.2924 39.0826 49.4378 38.9411 49.4378 38.7667V38.1259C49.4384 38.0849 49.4305 38.0442 49.4145 38.006C49.3985 37.9679 49.3748 37.9332 49.3447 37.9038C49.3146 37.8744 49.2787 37.851 49.2391 37.8348C49.1995 37.8187 49.157 37.8101 49.1139 37.8096ZM64.5738 39.8726H63.8893C63.806 39.8736 63.7266 39.906 63.6684 39.9627C63.6102 40.0195 63.578 40.0959 63.579 40.1752V40.4307C63.2263 40.0719 62.7732 39.8011 62.2078 39.8011C60.8863 39.8011 60.1023 40.7893 60.1023 42.0093C60.1023 43.2293 60.8945 44.2193 62.2657 44.2181C62.7849 44.2185 63.2255 43.9663 63.579 43.6404V43.8481C63.579 44.0156 63.7178 44.1507 63.8893 44.1507H64.5738C64.615 44.1503 64.6558 44.1421 64.6937 44.1267C64.7316 44.1112 64.766 44.0888 64.7948 44.0607C64.8236 44.0326 64.8463 43.9994 64.8617 43.9629C64.877 43.9264 64.8846 43.8874 64.8841 43.8481V40.1752C64.885 40.0959 64.8529 40.0195 64.7947 39.9627C64.7365 39.906 64.657 39.8736 64.5738 39.8726ZM62.4862 43.073C61.8531 43.073 61.4152 42.5722 61.4152 42.0093C61.4152 41.4463 61.8531 40.9452 62.4862 40.9452C63.0894 40.9452 63.5378 41.4 63.579 41.9304V42.0881C63.5378 42.6181 63.0894 43.073 62.4862 43.073ZM72.3243 39.8726H71.6399C71.5566 39.8736 71.4771 39.906 71.4189 39.9627C71.3607 40.0195 71.3286 40.0959 71.3295 40.1752V42.9104H69.9497V40.1752C69.9507 40.0959 69.9185 40.0195 69.8603 39.9627C69.8021 39.906 69.7227 39.8736 69.6394 39.8726H68.955C68.9137 39.873 68.8729 39.8812 68.835 39.8966C68.797 39.9121 68.7627 39.9345 68.7338 39.9626C68.7049 39.9907 68.6822 40.0239 68.6668 40.0604C68.6515 40.0969 68.6438 40.1359 68.6442 40.1752V42.9104H67.2388V40.1752C67.2397 40.0959 67.2076 40.0195 67.1494 39.9627C67.0912 39.906 67.0117 39.8736 66.9285 39.8726H66.2444C66.1611 39.8736 66.0817 39.906 66.0235 39.9627C65.9653 40.0195 65.9332 40.0959 65.9341 40.1752V43.9007C65.9341 44.0389 66.0488 44.1507 66.1908 44.1507H72.3784C72.5203 44.1507 72.635 44.0389 72.635 43.9007V40.1752C72.636 40.0959 72.6038 40.0195 72.5456 39.9627C72.4874 39.906 72.4076 39.8736 72.3243 39.8726ZM82.1511 39.6896C81.8765 39.6902 81.605 39.7452 81.3539 39.8512C81.1028 39.9571 80.8777 40.1118 80.6928 40.3052C80.1865 40.7619 79.5428 41.0237 78.8308 41.0237C78.0608 41.0237 77.4323 40.7363 76.6604 40.17C76.6372 40.1522 76.6136 40.1349 76.5896 40.1181L76.5838 40.1137L76.5488 40.0907C76.5123 40.0664 76.4746 40.0435 76.436 40.0222C76.1315 39.8482 75.7832 39.756 75.428 39.7556C74.3244 39.7556 73.4268 40.6307 73.4268 41.7067C73.4271 42.231 73.6452 42.7339 74.0335 43.1056C74.0502 43.1219 75.918 45.0056 78.8635 45.0056C80.202 45.0056 82.2094 44.4733 83.611 42.9741C83.8132 42.7635 83.9645 42.5133 84.0543 42.2411L84.0559 42.2374L84.0571 42.2337C84.0836 42.1528 84.1044 42.0702 84.1193 41.9867L84.1208 41.9793L84.1224 41.9696C84.1263 41.9459 84.1302 41.9237 84.1333 41.9015C84.1456 41.8149 84.1518 41.7277 84.1519 41.6404C84.1519 40.5648 83.2544 39.6896 82.1511 39.6896ZM82.876 41.7393L82.8721 41.767L82.8667 41.7933C82.8628 41.81 82.8589 41.8263 82.8538 41.8422L82.8492 41.8581C82.8153 41.962 82.757 42.0571 82.6788 42.1363C81.6261 43.2656 80.0317 43.7689 78.8638 43.7689C76.5461 43.7689 75.0247 42.3233 74.9252 42.227L74.9197 42.2211C74.8482 42.1538 74.7915 42.0736 74.7529 41.9853C74.7143 41.8969 74.6946 41.802 74.695 41.7063C74.695 41.3119 75.0232 40.9919 75.428 40.9919C75.5724 40.9918 75.7135 41.0332 75.8328 41.1107L75.8348 41.1122C75.8523 41.1233 75.869 41.1359 75.8853 41.1489C76.9633 41.9426 77.8733 42.26 78.8308 42.26C79.973 42.26 80.9125 41.8081 81.5934 41.1763L81.5966 41.1737C81.7307 41.0219 81.9291 40.9256 82.1507 40.9256C82.5556 40.9256 82.8838 41.2456 82.8838 41.6404C82.8838 41.6737 82.8807 41.707 82.876 41.7393ZM52.288 34.6096C52.3677 33.8581 52.0904 33.0104 51.4394 32.3119C50.9786 31.8174 50.2393 31.2193 50.2393 31.2193C50.2393 31.2193 50.3797 31.2867 51.4538 31.2867C51.6174 31.288 51.781 31.2879 51.9446 31.2863C51.9998 31.2884 52.0549 31.2797 52.1064 31.2609C52.158 31.242 52.205 31.2134 52.2446 31.1767C52.2842 31.14 52.3155 31.096 52.3367 31.0474C52.3578 30.9989 52.3684 30.9467 52.3677 30.8941V30.3293C52.3688 30.243 52.3338 30.1598 52.2705 30.0981C52.2072 30.0364 52.1208 30.0011 52.0302 30H48.2809C47.9865 30 47.7267 30.5985 48.0631 30.923C48.3995 31.2474 49.8131 32.3915 49.8131 32.3915C49.5903 32.2848 49.1679 32.3196 48.9412 32.3804C48.1036 32.6048 47.5 33.4415 47.5 34.357C47.5 35.6356 48.4539 36.6263 49.7392 36.7063C51.0152 36.7859 52.1562 35.8496 52.288 34.6096ZM49.9586 35.4474C49.3503 35.4781 48.8463 34.9852 48.8292 34.3915C48.8121 33.7919 49.2414 33.2967 49.8415 33.2663C50.4501 33.2356 50.9541 33.7285 50.9712 34.3222C50.9883 34.9219 50.5586 35.417 49.9586 35.4474ZM77.3705 32.2615C76.0308 32.2615 74.9905 33.2504 74.9905 34.4704C74.9905 35.6904 76.0308 36.6796 77.3705 36.6796C78.7102 36.6796 79.7505 35.6907 79.7505 34.4704C79.7505 33.2504 78.7102 32.2615 77.3705 32.2615ZM77.3674 35.5315C76.7491 35.5315 76.2964 35.0307 76.2964 34.4674C76.2964 33.9044 76.7491 33.4037 77.3674 33.4037C77.9857 33.4037 78.4388 33.9044 78.4388 34.4674C78.4388 35.0304 77.9857 35.5315 77.3674 35.5315Z" fill="#EC008C"/>
</g>
<defs>
<filter id="filter0_d_2012_969" x="0.5" y="0" width="136" height="80" filterUnits="userSpaceOnUse" color-interpolation-filters="sRGB">
<feFlood flood-opacity="0" result="BackgroundImageFix"/>
<feColorMatrix in="SourceAlpha" type="matrix" values="0 0 0 0 0 0 0 0 0 0 0 0 0 0 0 0 0 0 127 0" result="hardAlpha"/>
<feOffset dy="2"/>
<feGaussianBlur stdDeviation="4"/>
<feComposite in2="hardAlpha" operator="out"/>
<feColorMatrix type="matrix" values="0 0 0 0 0.121569 0 0 0 0 0.12549 0 0 0 0 0.141176 0 0 0 0.1 0"/>
<feBlend mode="normal" in2="BackgroundImageFix" result="effect1_dropShadow_2012_969"/>
<feBlend mode="normal" in="SourceGraphic" in2="effect1_dropShadow_2012_969" result="shape"/>
</filter>
</defs>
</svg>
