<svg width="93" height="130" viewBox="0 0 93 130" fill="none" xmlns="http://www.w3.org/2000/svg">
<path d="M18.8981 39.3646C16.7332 47.5265 21.7417 55.9472 30.046 58.195C38.3503 60.4428 46.8556 55.6801 49.0206 47.5181C51.1855 39.3562 46.177 30.9355 37.8727 28.6876C29.5684 26.4398 21.0631 31.2026 18.8981 39.3646Z" fill="#A56402"/>
<path d="M19.8431 38.41C17.6782 46.5719 22.6867 54.9926 30.991 57.2405C39.2953 59.4882 47.8006 54.7255 49.9656 46.5635C52.1305 38.4016 47.122 29.9809 38.8177 27.7331C30.5134 25.4852 22.0081 30.248 19.8431 38.41Z" fill="#FFB423"/>
<path d="M22.5812 39.1513C20.8206 45.7886 24.9358 52.6366 31.7244 54.4742C38.513 56.3117 45.4662 52.4597 47.2268 45.8223C48.9873 39.185 44.8722 32.337 38.0836 30.4994C31.2949 28.6619 24.3417 32.514 22.5812 39.1513Z" fill="#FFCF23" stroke="#DF8D12" stroke-width="2"/>
<path fill-rule="evenodd" clip-rule="evenodd" d="M41.9886 49.5901C42.9159 48.502 43.6167 47.1859 43.9986 45.6951C45.352 40.4132 42.1908 34.9382 36.938 33.4663C33.5484 32.5165 30.1161 33.4657 27.744 35.6778C30.1022 32.9107 33.9252 31.6177 37.6954 32.6742C42.9483 34.1461 46.1094 39.6211 44.756 44.903C44.276 46.7765 43.2925 48.3741 41.9886 49.5901Z" fill="#FFDD65"/>
<path fill-rule="evenodd" clip-rule="evenodd" d="M27.6744 35.4496C26.7471 36.5377 26.0463 37.8538 25.6643 39.3446C24.3109 44.6265 27.4721 50.1016 32.7249 51.5735C36.1145 52.5232 39.5468 51.574 41.9189 49.3619C39.5608 52.129 35.7377 53.422 31.9675 52.3655C26.7146 50.8936 23.5535 45.4186 24.9069 40.1366C25.3869 38.2632 26.3704 36.6656 27.6744 35.4496Z" fill="#F2BD00"/>
<path d="M48.6744 36.8283C47.1373 32.7414 43.4725 29.5739 38.9115 28.3099" stroke="#FFD179" stroke-width="0.5" stroke-linecap="round" stroke-linejoin="round"/>
<path d="M22.8727 51.3203C24.0999 52.9193 25.6512 54.2437 27.4186 55.1991" stroke="#FFD179" stroke-width="0.5" stroke-linecap="round" stroke-linejoin="round"/>
<path d="M46.0107 32.8684C46.0107 32.8684 45.0925 31.6486 43.6497 30.7703" stroke="#FFF3D2" stroke-width="0.5" stroke-linecap="round" stroke-linejoin="round"/>
<path d="M42.9266 36.8214C42.9266 36.8214 41.7023 35.1574 39.9393 34.0962" stroke="white" stroke-width="0.5" stroke-linecap="round" stroke-linejoin="round"/>
<path d="M33.4485 36.6471C33.4485 39.688 31.5039 41.4243 28.4938 41.4243C27.2423 41.4664 26.9956 43.7658 28.2535 43.8106C31.2638 43.8106 33.4485 46.0175 33.4485 49.0583C33.4485 49.6973 34.1637 50.016 34.3965 50.016C34.9201 50.016 35.8175 50.016 35.8175 48.8227C35.8175 45.7819 37.5294 43.8106 40.5394 43.8106C41.0629 43.8106 41.96 43.1465 41.96 42.6176C41.96 42.0888 41.0629 41.895 40.5394 41.895C37.5294 41.895 35.3447 38.976 35.3447 35.9351C35.3029 34.6709 33.4927 35.3763 33.4485 36.6471ZM36.8904 42.8528C35.8511 43.4571 34.9948 44.3221 34.3965 45.372C33.7983 44.322 32.942 43.4571 31.9028 42.8528C32.942 42.2484 33.7983 41.3834 34.3965 40.3334C34.9948 41.3834 35.8511 42.2484 36.8904 42.8528Z" fill="#FFDD65"/>
<path d="M33.921 36.1697C33.921 39.2106 31.7362 41.4176 28.726 41.4176C27.4746 41.4598 27.4681 43.2884 28.726 43.3332C31.7362 43.3332 33.921 45.5401 33.921 48.5809C33.921 49.1097 34.3456 49.5386 34.869 49.5386C35.3926 49.5386 35.8172 49.1097 35.8172 48.5809C35.8172 45.5401 38.0018 43.3332 41.0119 43.3332C41.5354 43.3332 41.96 42.9043 41.96 42.3754C41.96 41.8466 41.5354 41.4176 41.0119 41.4176C38.0018 41.4176 35.8172 39.2106 35.8172 36.1697C35.7754 34.9055 33.9652 34.899 33.921 36.1697ZM37.3629 42.3754C36.3236 42.9797 35.4673 43.8447 34.869 44.8946C34.2708 43.8446 33.4145 42.9797 32.3753 42.3754C33.4145 41.771 34.2708 40.906 34.869 39.856C35.4673 40.906 36.3236 41.771 37.3629 42.3754Z" fill="#DF8D12"/>
<path d="M32.9825 46.6747C32.9825 46.6747 32.51 45.0041 30.62 44.2881" stroke="white" stroke-width="0.5" stroke-linecap="round" stroke-linejoin="round"/>
<path d="M40.4981 18.7149C38.3332 26.8768 43.3417 35.2976 51.646 37.5454C59.9503 39.7932 68.4556 35.0304 70.6206 26.8685C72.7855 18.7066 67.777 10.2858 59.4727 8.03799C51.1684 5.79018 42.6631 10.553 40.4981 18.7149Z" fill="#A56402"/>
<path d="M41.4431 17.7603C39.2782 25.9222 44.2867 34.343 52.591 36.5908C60.8953 38.8386 69.4006 34.0758 71.5656 25.9139C73.7305 17.752 68.722 9.33122 60.4177 7.0834C52.1134 4.83559 43.6081 9.59837 41.4431 17.7603Z" fill="#FFB423"/>
<path d="M44.1812 18.5016C42.4206 25.1389 46.5358 31.9869 53.3244 33.8245C60.113 35.6621 67.0662 31.81 68.8268 25.1727C70.5873 18.5353 66.4722 11.6873 59.6836 9.84975C52.8949 8.0122 45.9417 11.8643 44.1812 18.5016Z" fill="#FFCF23" stroke="#DF8D12" stroke-width="2"/>
<path fill-rule="evenodd" clip-rule="evenodd" d="M63.5886 28.9404C64.5159 27.8523 65.2167 26.5362 65.5986 25.0454C66.952 19.7635 63.7908 14.2885 58.538 12.8166C55.1484 11.8668 51.7161 12.816 49.344 15.0281C51.7022 12.261 55.5252 10.9681 59.2954 12.0245C64.5483 13.4964 67.7094 18.9714 66.356 24.2534C65.876 26.1269 64.8925 27.7244 63.5886 28.9404Z" fill="#FFDD65"/>
<path fill-rule="evenodd" clip-rule="evenodd" d="M49.2744 14.7999C48.3471 15.888 47.6463 17.2041 47.2643 18.6949C45.9109 23.9768 49.0721 29.4519 54.3249 30.9238C57.7145 31.8735 61.1468 30.9243 63.5189 28.7122C61.1608 31.4793 57.3377 32.7723 53.5675 31.7159C48.3146 30.244 45.1535 24.7689 46.5069 19.487C46.9869 17.6135 47.9704 16.0159 49.2744 14.7999Z" fill="#F2BD00"/>
<path d="M70.2744 16.1786C68.7373 12.0917 65.0725 8.92428 60.5115 7.66028" stroke="#FFD179" stroke-width="0.5" stroke-linecap="round" stroke-linejoin="round"/>
<path d="M44.4727 30.6707C45.6999 32.2696 47.2512 33.594 49.0186 34.5495" stroke="#FFD179" stroke-width="0.5" stroke-linecap="round" stroke-linejoin="round"/>
<path d="M67.6107 12.2187C67.6107 12.2187 66.6925 10.9989 65.2497 10.1206" stroke="#FFF3D2" stroke-width="0.5" stroke-linecap="round" stroke-linejoin="round"/>
<path d="M64.5266 16.1717C64.5266 16.1717 63.3023 14.5077 61.5393 13.4465" stroke="white" stroke-width="0.5" stroke-linecap="round" stroke-linejoin="round"/>
<path d="M55.0485 15.9974C55.0485 19.0383 53.1039 20.7746 50.0938 20.7746C48.8423 20.8168 48.5956 23.1161 49.8535 23.1609C52.8638 23.1609 55.0485 25.3678 55.0485 28.4086C55.0485 29.0476 55.7637 29.3664 55.9965 29.3664C56.5201 29.3664 57.4175 29.3664 57.4175 28.173C57.4175 25.1323 59.1294 23.1609 62.1394 23.1609C62.6629 23.1609 63.56 22.4968 63.56 21.9679C63.56 21.4391 62.6629 21.2454 62.1394 21.2454C59.1294 21.2454 56.9447 18.3264 56.9447 15.2855C56.9029 14.0213 55.0927 14.7267 55.0485 15.9974ZM58.4904 22.2031C57.4511 22.8074 56.5948 23.6725 55.9965 24.7223C55.3983 23.6723 54.542 22.8074 53.5028 22.2031C54.542 21.5988 55.3983 20.7337 55.9965 19.6837C56.5948 20.7337 57.4511 21.5988 58.4904 22.2031Z" fill="#FFDD65"/>
<path d="M55.521 15.5201C55.521 18.5609 53.3362 20.768 50.326 20.768C49.0745 20.8101 49.0681 22.6388 50.326 22.6835C53.3362 22.6835 55.521 24.8905 55.521 27.9312C55.521 28.46 55.9456 28.889 56.469 28.889C56.9926 28.889 57.4172 28.46 57.4172 27.9312C57.4172 24.8905 59.6018 22.6835 62.6119 22.6835C63.1354 22.6835 63.56 22.2546 63.56 21.7257C63.56 21.1969 63.1354 20.768 62.6119 20.768C59.6018 20.768 57.4172 18.5609 57.4172 15.5201C57.3754 14.2558 55.5652 14.2493 55.521 15.5201ZM58.9628 21.7257C57.9236 22.3301 57.0673 23.1951 56.469 24.245C55.8708 23.1949 55.0145 22.3301 53.9753 21.7257C55.0145 21.1214 55.8708 20.2563 56.469 19.2063C57.0673 20.2563 57.9236 21.1214 58.9628 21.7257Z" fill="#DF8D12"/>
<path d="M54.5825 26.025C54.5825 26.025 54.11 24.3544 52.22 23.6384" stroke="white" stroke-width="0.5" stroke-linecap="round" stroke-linejoin="round"/>
<g filter="url(#filter0_d_1_747)">
<path d="M71.1453 54.7665H22.7387C16.1915 54.7665 10.884 60.1208 10.884 66.7258C10.884 73.3307 16.1915 78.685 22.7387 78.685H71.1453C77.6925 78.685 83 73.3307 83 66.7258C83 60.1208 77.6925 54.7665 71.1453 54.7665Z" fill="#F1FF8B"/>
<g filter="url(#filter1_d_1_747)">
<path d="M71.1453 54.7665H22.7387C16.1915 54.7665 10.884 60.1208 10.884 66.7258C10.884 73.3307 16.1915 78.685 22.7387 78.685H71.1453C77.6925 78.685 83 73.3307 83 66.7258C83 60.1208 77.6925 54.7665 71.1453 54.7665Z" fill="url(#paint0_linear_1_747)"/>
</g>
<path d="M21.1339 69.4664V63.6656H24.9507V64.6782H22.3456V65.8069H23.2836C23.7385 65.8069 24.1312 65.8821 24.4602 66.0326C24.7921 66.1806 25.048 66.3899 25.2283 66.6595C25.4085 66.9295 25.4984 67.2475 25.4984 67.6132C25.4984 67.9795 25.4085 68.3009 25.2283 68.5789C25.048 68.8565 24.7921 69.0747 24.4602 69.2327C24.1312 69.3887 23.7385 69.4664 23.2836 69.4664H21.1339ZM22.3456 68.4778H23.2836C23.5019 68.4778 23.6862 68.4389 23.8353 68.3607C23.9845 68.2804 24.0976 68.1738 24.1747 68.0417C24.2517 67.9067 24.2907 67.7602 24.2907 67.6017C24.2907 67.3705 24.2043 67.1762 24.0319 67.0177C23.8595 66.8593 23.6101 66.78 23.2836 66.78H22.3456V68.4778ZM27.9489 69.5521C27.5142 69.5521 27.1374 69.4584 26.8183 69.2716C26.5016 69.0822 26.2571 68.8201 26.0848 68.4852C25.9153 68.1479 25.8304 67.7562 25.8304 67.3097C25.8304 66.8583 25.9153 66.4651 26.0848 66.1302C26.2571 65.7929 26.5016 65.5308 26.8183 65.3439C27.1374 65.1541 27.5142 65.0594 27.9489 65.0594C28.386 65.0594 28.7629 65.1541 29.0795 65.3439C29.3986 65.5308 29.6431 65.7929 29.8126 66.1302C29.9849 66.4651 30.0714 66.8583 30.0714 67.3097C30.0714 67.7562 29.9849 68.1479 29.8126 68.4852C29.6431 68.8201 29.3986 69.0822 29.0795 69.2716C28.7629 69.4584 28.386 69.5521 27.9489 69.5521ZM27.9563 68.6098C28.1549 68.6098 28.3204 68.554 28.4542 68.4424C28.5881 68.3283 28.6883 68.1728 28.7555 67.9755C28.8247 67.7781 28.8597 67.5534 28.8597 67.3018C28.8597 67.0476 28.8247 66.8229 28.7555 66.6286C28.6883 66.4337 28.5881 66.2807 28.4542 66.1691C28.3204 66.0575 28.1549 66.0017 27.9563 66.0017C27.7558 66.0017 27.5873 66.0575 27.451 66.1691C27.3171 66.2807 27.2154 66.4337 27.1462 66.6286C27.0791 66.8229 27.046 67.0476 27.046 67.3018C27.046 67.5534 27.0791 67.7781 27.1462 67.9755C27.2154 68.1728 27.3171 68.3283 27.451 68.4424C27.5873 68.554 27.7558 68.6098 27.9563 68.6098ZM33.5947 66.8114V67.7532H31.3448V66.8114H33.5947ZM31.7385 65.1142V69.4664H30.5999V65.1142H31.7385ZM34.343 65.1142V69.4664H33.2124V65.1142H34.343ZM35.6243 71.0938C35.4727 71.0963 35.3299 71.0859 35.1961 71.0625C35.0647 71.039 34.9565 71.0091 34.8715 70.9728L35.1417 70.0738L35.1808 70.0813C35.3813 70.1411 35.5522 70.1541 35.694 70.1202C35.8377 70.0893 35.9474 69.9752 36.0219 69.7778L36.0911 69.591L34.5475 65.1142H35.8017L36.6932 68.3103H36.7396L37.6426 65.1142H38.9046L37.2296 69.9373C37.1496 70.171 37.0405 70.3748 36.9017 70.5487C36.7653 70.7226 36.5929 70.8562 36.3845 70.9498C36.1761 71.0455 35.9227 71.0938 35.6243 71.0938ZM41.0691 69.5521C40.6295 69.5521 40.2511 69.4574 39.9345 69.2681C39.6184 69.0757 39.3753 68.8126 39.2054 68.4778C39.0355 68.1404 38.9506 67.7507 38.9506 67.3097C38.9506 66.8633 39.0355 66.4716 39.2054 66.1337C39.3778 65.7964 39.6223 65.5333 39.9384 65.3439C40.2551 65.1541 40.6319 65.0594 41.0691 65.0594C41.445 65.0594 41.773 65.1282 42.0535 65.2657C42.3361 65.4032 42.5603 65.5966 42.7248 65.8457C42.8893 66.0949 42.9797 66.3884 42.995 66.7257H41.8683C41.8475 66.5802 41.8036 66.4532 41.7369 66.344C41.6702 66.2354 41.5813 66.1507 41.4707 66.0914C41.36 66.0316 41.2316 66.0017 41.0849 66.0017C40.8997 66.0017 40.7376 66.052 40.5984 66.1537C40.462 66.2518 40.3553 66.3988 40.2783 66.5932C40.2037 66.7855 40.1662 67.0192 40.1662 67.2943C40.1662 67.5693 40.2037 67.8056 40.2783 68.0024C40.3553 68.1997 40.462 68.3502 40.5984 68.4543C40.7376 68.558 40.8997 68.6098 41.0849 68.6098C41.2904 68.6098 41.4642 68.545 41.6055 68.4155C41.7473 68.2829 41.8347 68.101 41.8683 67.8703H42.995C42.9767 68.2027 42.8883 68.4957 42.7287 68.7498C42.5692 69.002 42.3494 69.1993 42.0688 69.3418C41.7883 69.4818 41.4553 69.5521 41.0691 69.5521Z" fill="#1F2024"/>
<path d="M46.5261 65.5428C45.8474 68.1315 47.4182 70.8019 50.0222 71.515C52.6268 72.2275 55.2941 70.7172 55.9733 68.1285C56.652 65.5398 55.0812 62.8694 52.4772 62.1563C49.8726 61.4438 47.2053 62.9541 46.5261 65.5428Z" fill="#A56402"/>
<path d="M46.8223 65.2399C46.1436 67.8285 47.7143 70.4994 50.3184 71.212C52.923 71.9251 55.5903 70.4147 56.2694 67.8261C56.9481 65.2374 55.3774 62.5665 52.7733 61.8539C50.1687 61.1408 47.5014 62.6517 46.8223 65.2399Z" fill="#FFB423"/>
<path d="M47.6806 65.4751C47.1284 67.5799 48.419 69.752 50.5479 70.3345C52.6773 70.9175 54.8576 69.6957 55.4098 67.5909C55.9621 65.4855 54.6714 63.3139 52.5425 62.7309C50.4136 62.1484 48.2328 63.3697 47.6806 65.4751Z" fill="#FFCF23" stroke="#DF8D12" stroke-width="2"/>
<path fill-rule="evenodd" clip-rule="evenodd" d="M53.7674 68.7857C54.0584 68.4404 54.2782 68.0233 54.3977 67.5504C54.8225 65.8751 53.8312 64.139 52.1834 63.6721C51.1204 63.3706 50.0441 63.6716 49.3002 64.3732C50.0396 63.4957 51.2389 63.0856 52.4209 63.421C54.0683 63.8874 55.0596 65.624 54.6353 67.2993C54.4846 67.8932 54.1764 68.4 53.7674 68.7857Z" fill="#FFDD65"/>
<path fill-rule="evenodd" clip-rule="evenodd" d="M49.2784 64.3011C48.9875 64.6465 48.7677 65.0636 48.6481 65.5364C48.2233 67.2117 49.2147 68.9483 50.862 69.4147C51.9255 69.7162 53.0018 69.4152 53.7456 68.7136C53.0062 69.5911 51.8069 70.0012 50.6249 69.6664C48.9771 69.1995 47.9858 67.4629 48.4105 65.7876C48.5607 65.1936 48.8694 64.6868 49.2784 64.3011Z" fill="#F2BD00"/>
<path d="M55.8649 64.7379C55.3828 63.4418 54.2334 62.4373 52.8029 62.0366" stroke="#FFD179" stroke-width="0.5" stroke-linecap="round" stroke-linejoin="round"/>
<path d="M47.7723 69.3344C48.1571 69.8416 48.6436 70.2617 49.1979 70.5647" stroke="#FFD179" stroke-width="0.5" stroke-linecap="round" stroke-linejoin="round"/>
<path d="M55.0286 63.4822C55.0286 63.4822 54.7406 63.0956 54.2882 62.817" stroke="#FFF3D2" stroke-width="0.5" stroke-linecap="round" stroke-linejoin="round"/>
<path d="M54.0613 64.7361C54.0613 64.7361 53.677 64.2084 53.1243 63.8721" stroke="white" stroke-width="0.5" stroke-linecap="round" stroke-linejoin="round"/>
<path d="M51.0884 64.6807C51.0884 65.6454 50.4784 66.196 49.5345 66.196C49.1418 66.2095 49.0647 66.9385 49.4594 66.953C50.4033 66.953 51.0884 67.6526 51.0884 68.6173C51.0884 68.8196 51.3127 68.9208 51.3858 68.9208C51.5498 68.9208 51.8313 68.9208 51.8313 68.5425C51.8313 67.5778 52.3682 66.953 53.3122 66.953C53.4762 66.953 53.7577 66.7422 53.7577 66.5743C53.7577 66.4068 53.4762 66.345 53.3122 66.345C52.3682 66.345 51.6831 65.4197 51.6831 64.455C51.6698 64.0538 51.1023 64.2776 51.0884 64.6807ZM52.1677 66.649C51.8417 66.8408 51.5735 67.1149 51.3858 67.4478C51.1981 67.1149 50.9294 66.8408 50.6034 66.649C50.9294 66.4572 51.1981 66.1831 51.3858 65.8497C51.5735 66.1831 51.8417 66.4572 52.1677 66.649Z" fill="#FFDD65"/>
<path d="M51.2371 64.5294C51.2371 65.4941 50.552 66.1937 49.6081 66.1937C49.2154 66.2072 49.2134 66.7872 49.6081 66.8016C50.552 66.8016 51.2371 67.5013 51.2371 68.466C51.2371 68.6334 51.37 68.7694 51.5345 68.7694C51.6984 68.7694 51.8318 68.6334 51.8318 68.466C51.8318 67.5013 52.5169 66.8016 53.4608 66.8016C53.6248 66.8016 53.7582 66.6656 53.7582 66.4977C53.7582 66.3297 53.6248 66.1937 53.4608 66.1937C52.5169 66.1937 51.8318 65.4941 51.8318 64.5294C51.8185 64.1287 51.2509 64.1267 51.2371 64.5294ZM52.3164 66.4977C51.9904 66.6895 51.7222 66.9636 51.5345 67.2964C51.3468 66.9636 51.078 66.6895 50.752 66.4977C51.078 66.3058 51.3468 66.0318 51.5345 65.6989C51.7222 66.0318 51.9904 66.3058 52.3164 66.4977Z" fill="#DF8D12"/>
<path d="M50.9422 67.8615C50.9422 67.8615 50.794 67.3313 50.2012 67.1046" stroke="white" stroke-width="0.5" stroke-linecap="round" stroke-linejoin="round"/>
<path d="M62.0771 63.6658V69.4665H60.8654V64.8298H60.8304L59.5184 65.6669V64.5771L60.9385 63.6658H62.0771ZM65.0368 69.5442C64.5478 69.5442 64.1299 69.4276 63.7827 69.1939C63.4379 68.9577 63.1726 68.6189 62.9874 68.1779C62.8051 67.7339 62.7138 67.1982 62.7138 66.5704C62.7138 65.9445 62.8061 65.4098 62.9914 64.9663C63.1766 64.5198 63.4418 64.1785 63.7866 63.9423C64.1339 63.7061 64.5503 63.588 65.0368 63.588C65.5253 63.588 65.9422 63.7061 66.287 63.9423C66.6342 64.1785 66.8995 64.5183 67.0817 64.9623C67.267 65.4063 67.3598 65.942 67.3598 66.5704C67.3598 67.1982 67.2684 67.7339 67.0857 68.1779C66.9029 68.6189 66.6382 68.9577 66.2909 69.1939C65.9461 69.4276 65.5283 69.5442 65.0368 69.5442ZM65.0368 68.5322C65.2709 68.5322 65.4675 68.4569 65.6271 68.3064C65.7891 68.1535 65.9116 67.9302 65.9936 67.6367C66.0785 67.3437 66.121 66.9879 66.121 66.5704C66.121 66.1498 66.0785 65.793 65.9936 65.4995C65.9116 65.2065 65.7891 64.9833 65.6271 64.8298C65.4675 64.6743 65.2709 64.5966 65.0368 64.5966C64.6895 64.5966 64.4218 64.769 64.2341 65.1143C64.0464 65.4566 63.9526 65.942 63.9526 66.5704C63.9526 66.9879 63.9936 67.3437 64.0761 67.6367C64.1605 67.9302 64.284 68.1535 64.4465 68.3064C64.6085 68.4569 64.8051 68.5322 65.0368 68.5322ZM70.2153 69.5442C69.7268 69.5442 69.3084 69.4276 68.9612 69.1939C68.6164 68.9577 68.3517 68.6189 68.1664 68.1779C67.9837 67.7339 67.8923 67.1982 67.8923 66.5704C67.8923 65.9445 67.9852 65.4098 68.1704 64.9663C68.3556 64.5198 68.6204 64.1785 68.9651 63.9423C69.3124 63.7061 69.7293 63.588 70.2153 63.588C70.7043 63.588 71.1212 63.7061 71.4655 63.9423C71.8132 64.1785 72.078 64.5183 72.2607 64.9623C72.446 65.4063 72.5383 65.942 72.5383 66.5704C72.5383 67.1982 72.447 67.7339 72.2647 68.1779C72.0819 68.6189 71.8167 68.9577 71.4694 69.1939C71.1247 69.4276 70.7068 69.5442 70.2153 69.5442ZM70.2153 68.5322C70.4494 68.5322 70.6465 68.4569 70.8056 68.3064C70.9681 68.1535 71.0901 67.9302 71.1726 67.6367C71.2575 67.3437 71.2995 66.9879 71.2995 66.5704C71.2995 66.1498 71.2575 65.793 71.1726 65.4995C71.0901 65.2065 70.9681 64.9833 70.8056 64.8298C70.6465 64.6743 70.4494 64.5966 70.2153 64.5966C69.8681 64.5966 69.6004 64.769 69.4127 65.1143C69.225 65.4566 69.1311 65.942 69.1311 66.5704C69.1311 66.9879 69.1721 67.3437 69.2546 67.6367C69.3395 67.9302 69.463 68.1535 69.625 68.3064C69.7871 68.4569 69.9837 68.5322 70.2153 68.5322Z" fill="#1F2024"/>
</g>
<g filter="url(#filter2_d_1_747)">
<path fill-rule="evenodd" clip-rule="evenodd" d="M50.8792 77.0747C49.4845 75.6809 47.0396 75.8385 45.2569 76.4502C43.9504 76.8991 42.5763 77.4037 41.1748 77.9674C41.1354 77.9828 41.1157 78.0231 41.1217 78.0608L41.0943 78.0462C41.0609 78.0299 41.0224 78.0282 40.9881 78.0419C35.8575 80.1219 30.38 82.9986 26.5164 86.8622C24.6977 88.6809 23.0092 91.113 21.486 93.7892L13.0307 96.9015C12.0224 97.2724 11.738 98.5643 12.4979 99.3242L16.8832 103.709C16.872 103.72 16.8609 103.731 16.8497 103.742C16.1901 104.401 16.0351 105.374 16.3837 106.18C15.3215 106.289 14.5522 106.597 14.5522 106.597C10.8711 108.07 10.453 115.29 11.4947 116.331C11.9111 116.747 13.6638 116.158 14.3577 115.811C14.5376 115.721 14.6952 115.639 14.8357 115.567C15.4602 115.243 15.7318 115.102 15.9194 115.29C16.0282 115.399 15.97 115.573 15.9091 115.757C15.8406 115.962 15.7678 116.179 15.9194 116.331C16.4403 116.852 20.8727 115.61 21.9135 112.487C21.9135 112.487 21.9778 112.328 22.0386 112.054L22.0557 112.071C22.9175 112.933 24.3165 112.933 25.1791 112.071C25.1894 112.059 25.2006 112.048 25.2117 112.037L28.8971 115.723C29.6569 116.483 30.9488 116.199 31.3197 115.191L34.629 106.201C37.1211 104.749 39.3793 103.152 41.0926 101.438C44.9442 97.586 47.8149 92.1307 49.8932 87.013C49.9069 86.9795 49.9051 86.941 49.8897 86.9084L49.8726 86.8742C49.9111 86.8827 49.954 86.863 49.9702 86.8228C50.5408 85.4058 51.0505 84.0172 51.5037 82.697C52.1076 80.9391 52.5934 78.7889 50.8792 77.0747Z" fill="url(#paint1_linear_1_747)"/>
<path fill-rule="evenodd" clip-rule="evenodd" d="M50.8792 77.0747C49.4845 75.6809 47.0396 75.8385 45.2569 76.4502C43.9504 76.8991 42.5763 77.4037 41.1748 77.9674C41.1354 77.9828 41.1157 78.0231 41.1217 78.0608L41.0943 78.0462C41.0609 78.0299 41.0224 78.0282 40.9881 78.0419C35.8575 80.1219 30.38 82.9986 26.5164 86.8622C24.6977 88.6809 23.0092 91.113 21.486 93.7892L13.0307 96.9015C12.0224 97.2724 11.738 98.5643 12.4979 99.3242L16.8832 103.709C16.872 103.72 16.8609 103.731 16.8497 103.742C16.1901 104.401 16.0351 105.374 16.3837 106.18C15.3215 106.289 14.5522 106.597 14.5522 106.597C10.8711 108.07 10.453 115.29 11.4947 116.331C11.9111 116.747 13.6638 116.158 14.3577 115.811C14.5376 115.721 14.6952 115.639 14.8357 115.567C15.4602 115.243 15.7318 115.102 15.9194 115.29C16.0282 115.399 15.97 115.573 15.9091 115.757C15.8406 115.962 15.7678 116.179 15.9194 116.331C16.4403 116.852 20.8727 115.61 21.9135 112.487C21.9135 112.487 21.9778 112.328 22.0386 112.054L22.0557 112.071C22.9175 112.933 24.3165 112.933 25.1791 112.071C25.1894 112.059 25.2006 112.048 25.2117 112.037L28.8971 115.723C29.6569 116.483 30.9488 116.199 31.3197 115.191L34.629 106.201C37.1211 104.749 39.3793 103.152 41.0926 101.438C44.9442 97.586 47.8149 92.1307 49.8932 87.013C49.9069 86.9795 49.9051 86.941 49.8897 86.9084L49.8726 86.8742C49.9111 86.8827 49.954 86.863 49.9702 86.8228C50.5408 85.4058 51.0505 84.0172 51.5037 82.697C52.1076 80.9391 52.5934 78.7889 50.8792 77.0747Z" fill="url(#paint2_radial_1_747)"/>
<path fill-rule="evenodd" clip-rule="evenodd" d="M50.8792 77.0747C49.4845 75.6809 47.0396 75.8385 45.2569 76.4502C43.9504 76.8991 42.5763 77.4037 41.1748 77.9674C41.1354 77.9828 41.1157 78.0231 41.1217 78.0608L41.0943 78.0462C41.0609 78.0299 41.0224 78.0282 40.9881 78.0419C35.8575 80.1219 30.38 82.9986 26.5164 86.8622C24.6977 88.6809 23.0092 91.113 21.486 93.7892L13.0307 96.9015C12.0224 97.2724 11.738 98.5643 12.4979 99.3242L16.8832 103.709C16.872 103.72 16.8609 103.731 16.8497 103.742C16.1901 104.401 16.0351 105.374 16.3837 106.18C15.3215 106.289 14.5522 106.597 14.5522 106.597C10.8711 108.07 10.453 115.29 11.4947 116.331C11.9111 116.747 13.6638 116.158 14.3577 115.811C14.5376 115.721 14.6952 115.639 14.8357 115.567C15.4602 115.243 15.7318 115.102 15.9194 115.29C16.0282 115.399 15.97 115.573 15.9091 115.757C15.8406 115.962 15.7678 116.179 15.9194 116.331C16.4403 116.852 20.8727 115.61 21.9135 112.487C21.9135 112.487 21.9778 112.328 22.0386 112.054L22.0557 112.071C22.9175 112.933 24.3165 112.933 25.1791 112.071C25.1894 112.059 25.2006 112.048 25.2117 112.037L28.8971 115.723C29.6569 116.483 30.9488 116.199 31.3197 115.191L34.629 106.201C37.1211 104.749 39.3793 103.152 41.0926 101.438C44.9442 97.586 47.8149 92.1307 49.8932 87.013C49.9069 86.9795 49.9051 86.941 49.8897 86.9084L49.8726 86.8742C49.9111 86.8827 49.954 86.863 49.9702 86.8228C50.5408 85.4058 51.0505 84.0172 51.5037 82.697C52.1076 80.9391 52.5934 78.7889 50.8792 77.0747Z" fill="url(#paint3_radial_1_747)"/>
<path fill-rule="evenodd" clip-rule="evenodd" d="M50.8792 77.0747C49.4845 75.6809 47.0396 75.8385 45.2569 76.4502C43.9504 76.8991 42.5763 77.4037 41.1748 77.9674C41.1354 77.9828 41.1157 78.0231 41.1217 78.0608L41.0943 78.0462C41.0609 78.0299 41.0224 78.0282 40.9881 78.0419C35.8575 80.1219 30.38 82.9986 26.5164 86.8622C24.6977 88.6809 23.0092 91.113 21.486 93.7892L13.0307 96.9015C12.0224 97.2724 11.738 98.5643 12.4979 99.3242L16.8832 103.709C16.872 103.72 16.8609 103.731 16.8497 103.742C16.1901 104.401 16.0351 105.374 16.3837 106.18C15.3215 106.289 14.5522 106.597 14.5522 106.597C10.8711 108.07 10.453 115.29 11.4947 116.331C11.9111 116.747 13.6638 116.158 14.3577 115.811C14.5376 115.721 14.6952 115.639 14.8357 115.567C15.4602 115.243 15.7318 115.102 15.9194 115.29C16.0282 115.399 15.97 115.573 15.9091 115.757C15.8406 115.962 15.7678 116.179 15.9194 116.331C16.4403 116.852 20.8727 115.61 21.9135 112.487C21.9135 112.487 21.9778 112.328 22.0386 112.054L22.0557 112.071C22.9175 112.933 24.3165 112.933 25.1791 112.071C25.1894 112.059 25.2006 112.048 25.2117 112.037L28.8971 115.723C29.6569 116.483 30.9488 116.199 31.3197 115.191L34.629 106.201C37.1211 104.749 39.3793 103.152 41.0926 101.438C44.9442 97.586 47.8149 92.1307 49.8932 87.013C49.9069 86.9795 49.9051 86.941 49.8897 86.9084L49.8726 86.8742C49.9111 86.8827 49.954 86.863 49.9702 86.8228C50.5408 85.4058 51.0505 84.0172 51.5037 82.697C52.1076 80.9391 52.5934 78.7889 50.8792 77.0747Z" fill="url(#paint4_radial_1_747)"/>
<path fill-rule="evenodd" clip-rule="evenodd" d="M50.8792 77.0747C49.4845 75.6809 47.0396 75.8385 45.2569 76.4502C43.9504 76.8991 42.5763 77.4037 41.1748 77.9674C41.1354 77.9828 41.1157 78.0231 41.1217 78.0608L41.0943 78.0462C41.0609 78.0299 41.0224 78.0282 40.9881 78.0419C35.8575 80.1219 30.38 82.9986 26.5164 86.8622C24.6977 88.6809 23.0092 91.113 21.486 93.7892L13.0307 96.9015C12.0224 97.2724 11.738 98.5643 12.4979 99.3242L16.8832 103.709C16.872 103.72 16.8609 103.731 16.8497 103.742C16.1901 104.401 16.0351 105.374 16.3837 106.18C15.3215 106.289 14.5522 106.597 14.5522 106.597C10.8711 108.07 10.453 115.29 11.4947 116.331C11.9111 116.747 13.6638 116.158 14.3577 115.811C14.5376 115.721 14.6952 115.639 14.8357 115.567C15.4602 115.243 15.7318 115.102 15.9194 115.29C16.0282 115.399 15.97 115.573 15.9091 115.757C15.8406 115.962 15.7678 116.179 15.9194 116.331C16.4403 116.852 20.8727 115.61 21.9135 112.487C21.9135 112.487 21.9778 112.328 22.0386 112.054L22.0557 112.071C22.9175 112.933 24.3165 112.933 25.1791 112.071C25.1894 112.059 25.2006 112.048 25.2117 112.037L28.8971 115.723C29.6569 116.483 30.9488 116.199 31.3197 115.191L34.629 106.201C37.1211 104.749 39.3793 103.152 41.0926 101.438C44.9442 97.586 47.8149 92.1307 49.8932 87.013C49.9069 86.9795 49.9051 86.941 49.8897 86.9084L49.8726 86.8742C49.9111 86.8827 49.954 86.863 49.9702 86.8228C50.5408 85.4058 51.0505 84.0172 51.5037 82.697C52.1076 80.9391 52.5934 78.7889 50.8792 77.0747Z" fill="url(#paint5_radial_1_747)"/>
</g>
<path d="M23.1712 93.2605C24.8876 92.6282 26.5565 94.2971 25.925 96.0143L22.1804 106.187C21.8193 107.167 20.5656 107.442 19.8268 106.704L12.4806 99.358C11.7427 98.62 12.0189 97.3654 12.9981 97.0052L23.1712 93.2605Z" fill="url(#paint6_linear_1_747)"/>
<path d="M23.1712 93.2605C24.8876 92.6282 26.5565 94.2971 25.925 96.0143L22.1804 106.187C21.8193 107.167 20.5656 107.442 19.8268 106.704L12.4806 99.358C11.7427 98.62 12.0189 97.3654 12.9981 97.0052L23.1712 93.2605Z" fill="url(#paint7_radial_1_747)"/>
<path d="M23.1712 93.2605C24.8876 92.6282 26.5565 94.2971 25.925 96.0143L22.1804 106.187C21.8193 107.167 20.5656 107.442 19.8268 106.704L12.4806 99.358C11.7427 98.62 12.0189 97.3654 12.9981 97.0052L23.1712 93.2605Z" fill="url(#paint8_linear_1_747)"/>
<path d="M32.1709 102.26C33.8881 101.629 35.557 103.298 34.9247 105.014L31.18 115.187C30.8198 116.166 29.5652 116.442 28.8272 115.705L21.4809 108.358C20.743 107.62 21.0184 106.366 21.9976 106.005L32.1709 102.26Z" fill="url(#paint9_linear_1_747)"/>
<path d="M32.1709 102.26C33.8881 101.629 35.557 103.298 34.9247 105.014L31.18 115.187C30.8198 116.166 29.5652 116.442 28.8272 115.705L21.4809 108.358C20.743 107.62 21.0184 106.366 21.9976 106.005L32.1709 102.26Z" fill="url(#paint10_radial_1_747)"/>
<path d="M32.1709 102.26C33.8881 101.629 35.557 103.298 34.9247 105.014L31.18 115.187C30.8198 116.166 29.5652 116.442 28.8272 115.705L21.4809 108.358C20.743 107.62 21.0184 106.366 21.9976 106.005L32.1709 102.26Z" fill="url(#paint11_radial_1_747)"/>
<path d="M41.0474 78.133C41.082 78.1191 41.121 78.1209 41.1548 78.1373L47.1259 81.1337L50.0487 87.0936C50.0643 87.1265 50.066 87.1646 50.0521 87.1992C47.9506 92.3704 45.0478 97.8844 41.1531 101.777C37.3805 105.547 30.9996 108.761 25.2381 111.124L17.0615 102.952C19.4255 97.1935 22.6411 90.8164 26.4137 87.046C30.3205 83.1423 35.8593 80.2342 41.0474 78.133Z" fill="url(#paint12_linear_1_747)"/>
<path d="M41.0474 78.133C41.082 78.1191 41.121 78.1209 41.1548 78.1373L47.1259 81.1337L50.0487 87.0936C50.0643 87.1265 50.066 87.1646 50.0521 87.1992C47.9506 92.3704 45.0478 97.8844 41.1531 101.777C37.3805 105.547 30.9996 108.761 25.2381 111.124L17.0615 102.952C19.4255 97.1935 22.6411 90.8164 26.4137 87.046C30.3205 83.1423 35.8593 80.2342 41.0474 78.133Z" fill="url(#paint13_radial_1_747)"/>
<path d="M41.0474 78.133C41.082 78.1191 41.121 78.1209 41.1548 78.1373L47.1259 81.1337L50.0487 87.0936C50.0643 87.1265 50.066 87.1646 50.0521 87.1992C47.9506 92.3704 45.0478 97.8844 41.1531 101.777C37.3805 105.547 30.9996 108.761 25.2381 111.124L17.0615 102.952C19.4255 97.1935 22.6411 90.8164 26.4137 87.046C30.3205 83.1423 35.8593 80.2342 41.0474 78.133Z" fill="url(#paint14_radial_1_747)"/>
<path d="M41.0474 78.133C41.082 78.1191 41.121 78.1209 41.1548 78.1373L47.1259 81.1337L50.0487 87.0936C50.0643 87.1265 50.066 87.1646 50.0521 87.1992C47.9506 92.3704 45.0478 97.8844 41.1531 101.777C37.3805 105.547 30.9996 108.761 25.2381 111.124L17.0615 102.952C19.4255 97.1935 22.6411 90.8164 26.4137 87.046C30.3205 83.1423 35.8593 80.2342 41.0474 78.133Z" fill="url(#paint15_radial_1_747)"/>
<path d="M41.0474 78.133C41.082 78.1191 41.121 78.1209 41.1548 78.1373L47.1259 81.1337L50.0487 87.0936C50.0643 87.1265 50.066 87.1646 50.0521 87.1992C47.9506 92.3704 45.0478 97.8844 41.1531 101.777C37.3805 105.547 30.9996 108.761 25.2381 111.124L17.0615 102.952C19.4255 97.1935 22.6411 90.8164 26.4137 87.046C30.3205 83.1423 35.8593 80.2342 41.0474 78.133Z" fill="url(#paint16_radial_1_747)"/>
<path d="M44.0615 89.1232C44.0615 91.885 41.8229 94.1237 39.0611 94.1237C36.3002 94.1237 34.0615 91.885 34.0615 89.1232C34.0615 86.3623 36.3002 84.1237 39.0611 84.1237C41.8229 84.1237 44.0615 86.3623 44.0615 89.1232Z" fill="url(#paint17_linear_1_747)"/>
<path d="M44.0615 89.1232C44.0615 91.885 41.8229 94.1237 39.0611 94.1237C36.3002 94.1237 34.0615 91.885 34.0615 89.1232C34.0615 86.3623 36.3002 84.1237 39.0611 84.1237C41.8229 84.1237 44.0615 86.3623 44.0615 89.1232Z" fill="url(#paint18_linear_1_747)"/>
<path d="M44.0615 89.1232C44.0615 91.885 41.8229 94.1237 39.0611 94.1237C36.3002 94.1237 34.0615 91.885 34.0615 89.1232C34.0615 86.3623 36.3002 84.1237 39.0611 84.1237C41.8229 84.1237 44.0615 86.3623 44.0615 89.1232Z" fill="url(#paint19_radial_1_747)"/>
<path d="M44.0615 89.1232C44.0615 91.885 41.8229 94.1237 39.0611 94.1237C36.3002 94.1237 34.0615 91.885 34.0615 89.1232C34.0615 86.3623 36.3002 84.1237 39.0611 84.1237C41.8229 84.1237 44.0615 86.3623 44.0615 89.1232Z" fill="url(#paint20_radial_1_747)"/>
<path d="M42.0615 89.1233C42.0615 90.7803 40.7182 92.1237 39.0612 92.1237C37.4049 92.1237 36.0615 90.7803 36.0615 89.1233C36.0615 87.467 37.4049 86.1237 39.0612 86.1237C40.7182 86.1237 42.0615 87.467 42.0615 89.1233Z" fill="url(#paint21_radial_1_747)"/>
<path d="M11.549 115.985C10.5222 114.977 10.9346 107.989 14.5658 106.564C14.5658 106.564 18.1961 105.138 20.536 107.419C22.8759 109.7 21.8272 112.264 21.8272 112.264C20.8005 115.288 16.4282 116.489 15.9145 115.985C15.6314 115.707 16.1418 115.201 15.9145 114.978C15.688 114.754 15.3373 115.009 14.374 115.482C13.6895 115.817 11.9605 116.388 11.549 115.985Z" fill="url(#paint22_radial_1_747)"/>
<path d="M11.549 115.985C10.5222 114.977 10.9346 107.989 14.5658 106.564C14.5658 106.564 18.1961 105.138 20.536 107.419C22.8759 109.7 21.8272 112.264 21.8272 112.264C20.8005 115.288 16.4282 116.489 15.9145 115.985C15.6314 115.707 16.1418 115.201 15.9145 114.978C15.688 114.754 15.3373 115.009 14.374 115.482C13.6895 115.817 11.9605 116.388 11.549 115.985Z" fill="url(#paint23_radial_1_747)"/>
<path d="M16.7339 103.795C17.6304 102.9 19.0833 102.9 19.9798 103.795L25.3891 109.205C26.2857 110.102 26.2857 111.555 25.3891 112.451C24.4935 113.348 23.0397 113.348 22.1432 112.451L16.7339 107.042C15.8374 106.146 15.8374 104.692 16.7339 103.795Z" fill="url(#paint24_linear_1_747)"/>
<path d="M16.7339 103.795C17.6304 102.9 19.0833 102.9 19.9798 103.795L25.3891 109.205C26.2857 110.102 26.2857 111.555 25.3891 112.451C24.4935 113.348 23.0397 113.348 22.1432 112.451L16.7339 107.042C15.8374 106.146 15.8374 104.692 16.7339 103.795Z" fill="url(#paint25_radial_1_747)"/>
<path d="M16.7339 103.795C17.6304 102.9 19.0833 102.9 19.9798 103.795L25.3891 109.205C26.2857 110.102 26.2857 111.555 25.3891 112.451C24.4935 113.348 23.0397 113.348 22.1432 112.451L16.7339 107.042C15.8374 106.146 15.8374 104.692 16.7339 103.795Z" fill="url(#paint26_radial_1_747)"/>
<path d="M50.8728 77.2109C49.4705 75.8004 47.0123 75.9606 45.2199 76.5793C43.9064 77.0333 42.5248 77.5428 41.1157 78.1129C41.058 78.1363 41.0434 78.2108 41.0864 78.255L49.8176 87.0979C49.8616 87.1421 49.9356 87.1274 49.9589 87.0693C50.5325 85.6371 51.045 84.2317 51.5007 82.8974C52.1079 81.1194 52.5963 78.9447 50.8728 77.2109Z" fill="url(#paint27_linear_1_747)"/>
<path d="M50.8728 77.2109C49.4705 75.8004 47.0123 75.9606 45.2199 76.5793C43.9064 77.0333 42.5248 77.5428 41.1157 78.1129C41.058 78.1363 41.0434 78.2108 41.0864 78.255L49.8176 87.0979C49.8616 87.1421 49.9356 87.1274 49.9589 87.0693C50.5325 85.6371 51.045 84.2317 51.5007 82.8974C52.1079 81.1194 52.5963 78.9447 50.8728 77.2109Z" fill="url(#paint28_radial_1_747)"/>
<path d="M50.8728 77.2109C49.4705 75.8004 47.0123 75.9606 45.2199 76.5793C43.9064 77.0333 42.5248 77.5428 41.1157 78.1129C41.058 78.1363 41.0434 78.2108 41.0864 78.255L49.8176 87.0979C49.8616 87.1421 49.9356 87.1274 49.9589 87.0693C50.5325 85.6371 51.045 84.2317 51.5007 82.8974C52.1079 81.1194 52.5963 78.9447 50.8728 77.2109Z" fill="url(#paint29_linear_1_747)"/>
<path d="M27.9645 97.2702C29.8034 96.5927 31.5924 98.3818 30.915 100.221L26.9028 111.121C26.5168 112.17 25.1726 112.465 24.3819 111.674L16.5109 103.803C15.7202 103.013 16.0153 101.668 17.0644 101.282L27.9645 97.2702Z" fill="url(#paint30_linear_1_747)"/>
<path d="M27.9645 97.2702C29.8034 96.5927 31.5924 98.3818 30.915 100.221L26.9028 111.121C26.5168 112.17 25.1726 112.465 24.3819 111.674L16.5109 103.803C15.7202 103.013 16.0153 101.668 17.0644 101.282L27.9645 97.2702Z" fill="url(#paint31_radial_1_747)"/>
<path d="M27.9645 97.2702C29.8034 96.5927 31.5924 98.3818 30.915 100.221L26.9028 111.121C26.5168 112.17 25.1726 112.465 24.3819 111.674L16.5109 103.803C15.7202 103.013 16.0153 101.668 17.0644 101.282L27.9645 97.2702Z" fill="url(#paint32_radial_1_747)"/>
<path d="M27.9645 97.2702C29.8034 96.5927 31.5924 98.3818 30.915 100.221L26.9028 111.121C26.5168 112.17 25.1726 112.465 24.3819 111.674L16.5109 103.803C15.7202 103.013 16.0153 101.668 17.0644 101.282L27.9645 97.2702Z" fill="url(#paint33_radial_1_747)"/>
<path d="M27.9645 97.2702C29.8034 96.5927 31.5924 98.3818 30.915 100.221L26.9028 111.121C26.5168 112.17 25.1726 112.465 24.3819 111.674L16.5109 103.803C15.7202 103.013 16.0153 101.668 17.0644 101.282L27.9645 97.2702Z" fill="url(#paint34_radial_1_747)"/>
<defs>
<filter id="filter0_d_1_747" x="6.88398" y="51.7665" width="80.116" height="31.9186" filterUnits="userSpaceOnUse" color-interpolation-filters="sRGB">
<feFlood flood-opacity="0" result="BackgroundImageFix"/>
<feColorMatrix in="SourceAlpha" type="matrix" values="0 0 0 0 0 0 0 0 0 0 0 0 0 0 0 0 0 0 127 0" result="hardAlpha"/>
<feOffset dy="1"/>
<feGaussianBlur stdDeviation="2"/>
<feComposite in2="hardAlpha" operator="out"/>
<feColorMatrix type="matrix" values="0 0 0 0 0.121569 0 0 0 0 0.12549 0 0 0 0 0.141176 0 0 0 0.1 0"/>
<feBlend mode="normal" in2="BackgroundImageFix" result="effect1_dropShadow_1_747"/>
<feBlend mode="normal" in="SourceGraphic" in2="effect1_dropShadow_1_747" result="shape"/>
</filter>
<filter id="filter1_d_1_747" x="0.883984" y="48.7665" width="92.116" height="43.9186" filterUnits="userSpaceOnUse" color-interpolation-filters="sRGB">
<feFlood flood-opacity="0" result="BackgroundImageFix"/>
<feColorMatrix in="SourceAlpha" type="matrix" values="0 0 0 0 0 0 0 0 0 0 0 0 0 0 0 0 0 0 127 0" result="hardAlpha"/>
<feOffset dy="4"/>
<feGaussianBlur stdDeviation="5"/>
<feComposite in2="hardAlpha" operator="out"/>
<feColorMatrix type="matrix" values="0 0 0 0 0.271455 0 0 0 0 0.403844 0 0 0 0 0.48614 0 0 0 0.6 0"/>
<feBlend mode="normal" in2="BackgroundImageFix" result="effect1_dropShadow_1_747"/>
<feBlend mode="normal" in="SourceGraphic" in2="effect1_dropShadow_1_747" result="shape"/>
</filter>
<filter id="filter2_d_1_747" x="3" y="73" width="57.0615" height="56.474" filterUnits="userSpaceOnUse" color-interpolation-filters="sRGB">
<feFlood flood-opacity="0" result="BackgroundImageFix"/>
<feColorMatrix in="SourceAlpha" type="matrix" values="0 0 0 0 0 0 0 0 0 0 0 0 0 0 0 0 0 0 127 0" result="hardAlpha"/>
<feOffset dy="5"/>
<feGaussianBlur stdDeviation="4"/>
<feComposite in2="hardAlpha" operator="out"/>
<feColorMatrix type="matrix" values="0 0 0 0 0.301508 0 0 0 0 0.213325 0 0 0 0 0.372624 0 0 0 0.5 0"/>
<feBlend mode="normal" in2="BackgroundImageFix" result="effect1_dropShadow_1_747"/>
<feBlend mode="normal" in="SourceGraphic" in2="effect1_dropShadow_1_747" result="shape"/>
</filter>
<linearGradient id="paint0_linear_1_747" x1="46.6762" y1="78.2286" x2="46.6762" y2="54.8372" gradientUnits="userSpaceOnUse">
<stop stop-color="#BEEC26"/>
<stop offset="1" stop-color="#F8FF6F"/>
</linearGradient>
<linearGradient id="paint1_linear_1_747" x1="30.248" y1="97.9732" x2="20.6979" y2="107.523" gradientUnits="userSpaceOnUse">
<stop stop-color="#FF2644"/>
<stop offset="1" stop-color="#FF2982"/>
</linearGradient>
<radialGradient id="paint2_radial_1_747" cx="0" cy="0" r="1" gradientUnits="userSpaceOnUse" gradientTransform="translate(17.1076 101.444) rotate(-20.8651) scale(10.9809 2.87469)">
<stop stop-color="#FF95AF"/>
<stop offset="1" stop-color="#FF95AF" stop-opacity="0"/>
</radialGradient>
<radialGradient id="paint3_radial_1_747" cx="0" cy="0" r="1" gradientUnits="userSpaceOnUse" gradientTransform="translate(15.8731 102.748) rotate(44.7044) scale(6.78807 2.00514)">
<stop offset="0.381871" stop-color="#E14678"/>
<stop offset="1" stop-color="#E14678" stop-opacity="0"/>
</radialGradient>
<radialGradient id="paint4_radial_1_747" cx="0" cy="0" r="1" gradientUnits="userSpaceOnUse" gradientTransform="translate(24.9752 101.03) rotate(84.6743) scale(10.906 11.622)">
<stop offset="0.831791" stop-color="#E67BC7" stop-opacity="0"/>
<stop offset="1" stop-color="#E67BC7"/>
</radialGradient>
<radialGradient id="paint5_radial_1_747" cx="0" cy="0" r="1" gradientUnits="userSpaceOnUse" gradientTransform="translate(23.3861 105.24) rotate(45) scale(4.16458 14.1856)">
<stop stop-color="#FF739D"/>
<stop offset="0.796875" stop-color="#FF739D" stop-opacity="0"/>
</radialGradient>
<linearGradient id="paint6_linear_1_747" x1="19.6379" y1="98.3937" x2="12.489" y2="97.2157" gradientUnits="userSpaceOnUse">
<stop stop-color="#EE2452"/>
<stop offset="1" stop-color="#F63E7A"/>
</linearGradient>
<radialGradient id="paint7_radial_1_747" cx="0" cy="0" r="1" gradientUnits="userSpaceOnUse" gradientTransform="translate(11.469 98.0435) rotate(-19.958) scale(11.4418 1.94537)">
<stop offset="0.163866" stop-color="#FF8DB0"/>
<stop offset="1" stop-color="#FF8DB0" stop-opacity="0"/>
</radialGradient>
<linearGradient id="paint8_linear_1_747" x1="15.0539" y1="101.861" x2="16.2195" y2="100.725" gradientUnits="userSpaceOnUse">
<stop offset="0.491189" stop-color="#DD467C"/>
<stop offset="1" stop-color="#DD467C" stop-opacity="0"/>
</linearGradient>
<linearGradient id="paint9_linear_1_747" x1="34.0453" y1="105.054" x2="25.1542" y2="112.032" gradientUnits="userSpaceOnUse">
<stop stop-color="#F83267"/>
<stop offset="1" stop-color="#FF3190"/>
</linearGradient>
<radialGradient id="paint10_radial_1_747" cx="0" cy="0" r="1" gradientUnits="userSpaceOnUse" gradientTransform="translate(29.3089 105.813) rotate(86.4819) scale(10.9233 9.41771)">
<stop offset="0.756562" stop-color="#E76CBE" stop-opacity="0"/>
<stop offset="0.951296" stop-color="#E76CBE"/>
</radialGradient>
<radialGradient id="paint11_radial_1_747" cx="0" cy="0" r="1" gradientUnits="userSpaceOnUse" gradientTransform="translate(27.6999 111.578) rotate(-57.346) scale(7.53646 3.31041)">
<stop stop-color="#FF5898"/>
<stop offset="1" stop-color="#FF5898" stop-opacity="0"/>
</radialGradient>
<linearGradient id="paint12_linear_1_747" x1="27.694" y1="85.7863" x2="40.8076" y2="99.0002" gradientUnits="userSpaceOnUse">
<stop stop-color="#CCBBC0"/>
<stop offset="1" stop-color="#EAD2EC"/>
</linearGradient>
<radialGradient id="paint13_radial_1_747" cx="0" cy="0" r="1" gradientUnits="userSpaceOnUse" gradientTransform="translate(43.3031 104.991) rotate(-142.463) scale(24.8246 46.6571)">
<stop offset="0.811143" stop-color="#E7E5E5" stop-opacity="0"/>
<stop offset="1" stop-color="#E7E5E5"/>
</radialGradient>
<radialGradient id="paint14_radial_1_747" cx="0" cy="0" r="1" gradientUnits="userSpaceOnUse" gradientTransform="translate(21.2854 104.592) rotate(-56.9142) scale(14.5908 6.85915)">
<stop offset="0.281006" stop-color="#B5A3A5"/>
<stop offset="1" stop-color="#B5A3A5" stop-opacity="0"/>
</radialGradient>
<radialGradient id="paint15_radial_1_747" cx="0" cy="0" r="1" gradientUnits="userSpaceOnUse" gradientTransform="translate(17.0615 102.779) rotate(-73.6161) scale(12.9333 2.19257)">
<stop offset="0.207885" stop-color="#B28F96"/>
<stop offset="1" stop-color="#B28F96" stop-opacity="0"/>
</radialGradient>
<radialGradient id="paint16_radial_1_747" cx="0" cy="0" r="1" gradientUnits="userSpaceOnUse" gradientTransform="translate(47.98 83.4617) rotate(137.3) scale(19.6109 6.08866)">
<stop stop-color="#FAECF1"/>
<stop offset="1" stop-color="#FAECF1" stop-opacity="0"/>
</radialGradient>
<linearGradient id="paint17_linear_1_747" x1="34.0615" y1="88.2737" x2="44.0615" y2="89.1232" gradientUnits="userSpaceOnUse">
<stop stop-color="#A796A0"/>
<stop offset="1" stop-color="#A5959F"/>
</linearGradient>
<linearGradient id="paint18_linear_1_747" x1="42.5737" y1="85.3092" x2="35.875" y2="93.4958" gradientUnits="userSpaceOnUse">
<stop stop-color="#B7AFB2"/>
<stop offset="1" stop-color="#9D8FA6"/>
</linearGradient>
<radialGradient id="paint19_radial_1_747" cx="0" cy="0" r="1" gradientUnits="userSpaceOnUse" gradientTransform="translate(39.0611 89.1232) rotate(90) scale(5.00037)">
<stop offset="0.586538" stop-color="#93859B"/>
<stop offset="1" stop-color="#93859B" stop-opacity="0"/>
</radialGradient>
<radialGradient id="paint20_radial_1_747" cx="0" cy="0" r="1" gradientUnits="userSpaceOnUse" gradientTransform="translate(39.0611 89.1232) rotate(90) scale(5.00037)">
<stop offset="0.874455" stop-color="#93859B"/>
<stop offset="1" stop-color="#93859B" stop-opacity="0"/>
</radialGradient>
<radialGradient id="paint21_radial_1_747" cx="0" cy="0" r="1" gradientUnits="userSpaceOnUse" gradientTransform="translate(39.0611 92.1237) rotate(-90) scale(6.25018 5.74798)">
<stop stop-color="#72CDFF"/>
<stop offset="0.738019" stop-color="#66ACFF"/>
<stop offset="1" stop-color="#3B57F4"/>
</radialGradient>
<radialGradient id="paint22_radial_1_747" cx="0" cy="0" r="1" gradientUnits="userSpaceOnUse" gradientTransform="translate(19.9267 108.451) rotate(135.542) scale(8.35475 6.56587)">
<stop stop-color="#D46213"/>
<stop offset="1" stop-color="#FF9542"/>
</radialGradient>
<radialGradient id="paint23_radial_1_747" cx="0" cy="0" r="1" gradientUnits="userSpaceOnUse" gradientTransform="translate(20.0898 115.184) rotate(-131.724) scale(10.3103 10.8908)">
<stop offset="0.870944" stop-color="#FFC484" stop-opacity="0"/>
<stop offset="1" stop-color="#FFC484"/>
</radialGradient>
<linearGradient id="paint24_linear_1_747" x1="16.3324" y1="105.281" x2="24.748" y2="113.554" gradientUnits="userSpaceOnUse">
<stop stop-color="#452860"/>
<stop offset="1" stop-color="#51509F"/>
</linearGradient>
<radialGradient id="paint25_radial_1_747" cx="0" cy="0" r="1" gradientUnits="userSpaceOnUse" gradientTransform="translate(17.91 104.516) rotate(77.8282) scale(2.49472 2.20419)">
<stop stop-color="#8E839A"/>
<stop offset="1" stop-color="#8E839A" stop-opacity="0"/>
</radialGradient>
<radialGradient id="paint26_radial_1_747" cx="0" cy="0" r="1" gradientUnits="userSpaceOnUse" gradientTransform="translate(18.4877 105.993) rotate(47.9351) scale(9.50569 4.98271)">
<stop offset="0.860492" stop-color="#6175B9" stop-opacity="0"/>
<stop offset="1" stop-color="#6175B9"/>
</radialGradient>
<linearGradient id="paint27_linear_1_747" x1="50.8796" y1="77.2179" x2="45.4047" y2="82.6596" gradientUnits="userSpaceOnUse">
<stop stop-color="#FF3745"/>
<stop offset="1" stop-color="#ED224B"/>
</linearGradient>
<radialGradient id="paint28_radial_1_747" cx="0" cy="0" r="1" gradientUnits="userSpaceOnUse" gradientTransform="translate(50.2302 79.4091) rotate(134.83) scale(12.2448 2.93942)">
<stop offset="0.189394" stop-color="#FF5971"/>
<stop offset="1" stop-color="#FF5971" stop-opacity="0"/>
</radialGradient>
<linearGradient id="paint29_linear_1_747" x1="45.9124" y1="83.0568" x2="46.4601" y2="82.4899" gradientUnits="userSpaceOnUse">
<stop stop-color="#D2575E"/>
<stop offset="1" stop-color="#F93251" stop-opacity="0"/>
</linearGradient>
<linearGradient id="paint30_linear_1_747" x1="30.3837" y1="97.8015" x2="20.4464" y2="107.739" gradientUnits="userSpaceOnUse">
<stop stop-color="#FF2644"/>
<stop offset="1" stop-color="#FF2982"/>
</linearGradient>
<radialGradient id="paint31_radial_1_747" cx="0" cy="0" r="1" gradientUnits="userSpaceOnUse" gradientTransform="translate(16.7106 101.413) rotate(-20.8651) scale(11.426 2.99123)">
<stop stop-color="#FF95AF"/>
<stop offset="1" stop-color="#FF95AF" stop-opacity="0"/>
</radialGradient>
<radialGradient id="paint32_radial_1_747" cx="0" cy="0" r="1" gradientUnits="userSpaceOnUse" gradientTransform="translate(15.4261 102.77) rotate(44.7044) scale(7.06325 2.08643)">
<stop offset="0.381871" stop-color="#E14678"/>
<stop offset="1" stop-color="#E14678" stop-opacity="0"/>
</radialGradient>
<radialGradient id="paint33_radial_1_747" cx="0" cy="0" r="1" gradientUnits="userSpaceOnUse" gradientTransform="translate(24.8972 100.982) rotate(84.6743) scale(11.3481 12.0931)">
<stop offset="0.831791" stop-color="#E67BC7" stop-opacity="0"/>
<stop offset="1" stop-color="#E67BC7"/>
</radialGradient>
<radialGradient id="paint34_radial_1_747" cx="0" cy="0" r="1" gradientUnits="userSpaceOnUse" gradientTransform="translate(23.2436 105.363) rotate(45) scale(4.3334 14.7606)">
<stop stop-color="#FF739D"/>
<stop offset="0.796875" stop-color="#FF739D" stop-opacity="0"/>
</radialGradient>
</defs>
</svg>
