<svg width="74" height="134" viewBox="0 0 74 134" fill="none" xmlns="http://www.w3.org/2000/svg">
<path d="M16.2363 37.0377C14.1745 44.6135 18.9444 52.4295 26.8534 54.5158C34.7622 56.6022 42.8625 52.1815 44.9243 44.6057C46.9862 37.0299 42.2162 29.214 34.3073 27.1275C26.3984 25.0412 18.2982 29.4619 16.2363 37.0377Z" fill="#A56402"/>
<path d="M17.1363 36.1514C15.0745 43.7272 19.8444 51.5432 27.7534 53.6296C35.6622 55.716 43.7625 51.2952 45.8243 43.7195C47.8862 36.1437 43.1162 28.3277 35.2073 26.2413C27.2984 24.1549 19.1982 28.5757 17.1363 36.1514Z" fill="#FFB423"/>
<path d="M19.744 36.8396C18.0673 43.0002 21.9864 49.3564 28.4518 51.062C34.9172 52.7676 41.5393 49.1922 43.216 43.0315C44.8927 36.8709 40.9736 30.5147 34.5082 28.809C28.0428 27.1035 21.4207 30.6789 19.744 36.8396Z" fill="#FFCF23" stroke="#DF8D12" stroke-width="2"/>
<path fill-rule="evenodd" clip-rule="evenodd" d="M38.2272 46.5287C39.1104 45.5187 39.7778 44.2972 40.1415 42.9135C41.4305 38.0109 38.4199 32.929 33.4172 31.5628C30.189 30.6812 26.9201 31.5623 24.661 33.6156C26.9068 31.0472 30.5478 29.847 34.1385 30.8276C39.1413 32.1938 42.1518 37.2757 40.8629 42.1782C40.4057 43.9172 39.469 45.4001 38.2272 46.5287Z" fill="#FFDD65"/>
<path fill-rule="evenodd" clip-rule="evenodd" d="M24.5946 33.4038C23.7115 34.4138 23.0441 35.6353 22.6803 37.0191C21.3913 41.9217 24.402 47.0035 29.4047 48.3697C32.6328 49.2513 35.9017 48.3702 38.1608 46.317C35.915 48.8853 32.274 50.0855 28.6833 49.1049C23.6806 47.7387 20.67 42.6569 21.9589 37.7543C22.4161 36.0153 23.3528 34.5325 24.5946 33.4038Z" fill="#F2BD00"/>
<path d="M44.5947 34.6835C43.1308 30.89 39.6405 27.9501 35.2966 26.7769" stroke="#FFD179" stroke-width="0.5" stroke-linecap="round" stroke-linejoin="round"/>
<path d="M20.0216 48.1348C21.1903 49.6189 22.6678 50.8482 24.3511 51.735" stroke="#FFD179" stroke-width="0.5" stroke-linecap="round" stroke-linejoin="round"/>
<path d="M42.0578 31.008C42.0578 31.008 41.1833 29.8758 39.8092 29.0605" stroke="#FFF3D2" stroke-width="0.5" stroke-linecap="round" stroke-linejoin="round"/>
<path d="M39.1205 34.6769C39.1205 34.6769 37.9546 33.1324 36.2755 32.1475" stroke="white" stroke-width="0.5" stroke-linecap="round" stroke-linejoin="round"/>
<path d="M30.0938 34.5153C30.0938 37.3379 28.2419 38.9495 25.375 38.9495C24.1831 38.9886 23.9482 41.1228 25.1462 41.1643C28.0131 41.1643 30.0938 43.2128 30.0938 46.0352C30.0938 46.6283 30.775 46.9242 30.9967 46.9242C31.4953 46.9242 32.35 46.9242 32.35 45.8165C32.35 42.9941 33.9803 41.1643 36.8471 41.1643C37.3456 41.1643 38.2 40.5479 38.2 40.057C38.2 39.5662 37.3456 39.3864 36.8471 39.3864C33.9803 39.3864 31.8997 36.677 31.8997 33.8545C31.8599 32.6811 30.1359 33.3358 30.0938 34.5153ZM33.3718 40.2753C32.382 40.8363 31.5665 41.6392 30.9967 42.6136C30.427 41.639 29.6114 40.8363 28.6217 40.2753C29.6114 39.7144 30.427 38.9115 30.9967 37.9369C31.5665 38.9115 32.382 39.7144 33.3718 40.2753Z" fill="#FFDD65"/>
<path d="M30.5438 34.0723C30.5438 36.8948 28.4631 38.9433 25.5962 38.9433C24.4043 38.9824 24.3982 40.6798 25.5962 40.7213C28.4631 40.7213 30.5438 42.7698 30.5438 45.5921C30.5438 46.0829 30.9482 46.4811 31.4467 46.4811C31.9453 46.4811 32.3497 46.0829 32.3497 45.5921C32.3497 42.7698 34.4303 40.7213 37.2971 40.7213C37.7956 40.7213 38.2 40.3232 38.2 39.8323C38.2 39.3414 37.7956 38.9433 37.2971 38.9433C34.4303 38.9433 32.3497 36.8948 32.3497 34.0723C32.3099 32.8989 30.5859 32.8928 30.5438 34.0723ZM33.8218 39.8323C32.832 40.3932 32.0165 41.1961 31.4467 42.1706C30.877 41.196 30.0614 40.3932 29.0717 39.8323C30.0614 39.2713 30.877 38.4684 31.4467 37.4938C32.0165 38.4684 32.832 39.2713 33.8218 39.8323Z" fill="#DF8D12"/>
<path d="M29.65 43.8229C29.65 43.8229 29.2 42.2722 27.4 41.6077" stroke="white" stroke-width="0.5" stroke-linecap="round" stroke-linejoin="round"/>
<path d="M37.7969 20.0323C36.0788 26.5258 40.0537 33.2252 46.6445 35.0136C53.2351 36.8019 59.9854 33.0127 61.7036 26.5192C63.4218 20.0257 59.4468 13.3262 52.8561 11.5379C46.2654 9.74957 39.5152 13.5388 37.7969 20.0323Z" fill="#A56402"/>
<path d="M38.5469 19.2728C36.8288 25.7663 40.8037 32.4657 47.3945 34.2541C53.9851 36.0423 60.7354 32.2532 62.4536 25.7597C64.1718 19.2661 60.1968 12.5667 53.6061 10.7784C47.0154 8.99005 40.2652 12.7793 38.5469 19.2728Z" fill="#FFB423"/>
<path d="M40.72 19.8626C39.3227 25.1431 42.5887 30.5913 47.9765 32.0532C53.3643 33.5152 58.8827 30.4505 60.28 25.1699C61.6772 19.8894 58.4113 14.4412 53.0235 12.9792C47.6357 11.5173 42.1172 14.582 40.72 19.8626Z" fill="#FFCF23" stroke="#DF8D12" stroke-width="2"/>
<path fill-rule="evenodd" clip-rule="evenodd" d="M56.1227 28.1675C56.8586 27.3018 57.4148 26.2547 57.7179 25.0687C58.7921 20.8664 56.2832 16.5106 52.1143 15.3396C49.4241 14.5839 46.7001 15.3391 44.8175 17.099C46.689 14.8976 49.7232 13.8689 52.7154 14.7094C56.8844 15.8804 59.3932 20.2363 58.3191 24.4385C57.9381 25.929 57.1575 27.2 56.1227 28.1675Z" fill="#FFDD65"/>
<path fill-rule="evenodd" clip-rule="evenodd" d="M44.7622 16.9175C44.0262 17.7832 43.4701 18.8302 43.1669 20.0163C42.0928 24.2185 44.6016 28.5744 48.7705 29.7454C51.4607 30.501 54.1848 29.7458 56.0674 27.9859C54.1958 30.1874 51.1616 31.2161 48.1694 30.3756C44.0005 29.2046 41.4917 24.8487 42.5658 20.6464C42.9467 19.1559 43.7273 17.8849 44.7622 16.9175Z" fill="#F2BD00"/>
<path d="M61.4289 18.0144C60.209 14.7629 57.3004 12.2429 53.6805 11.2373" stroke="#FFD179" stroke-width="0.5" stroke-linecap="round" stroke-linejoin="round"/>
<path d="M40.9513 29.5442C41.9253 30.8163 43.1565 31.87 44.5592 32.6301" stroke="#FFD179" stroke-width="0.5" stroke-linecap="round" stroke-linejoin="round"/>
<path d="M59.3149 14.8641C59.3149 14.8641 58.5861 13.8936 57.441 13.1948" stroke="#FFF3D2" stroke-width="0.5" stroke-linecap="round" stroke-linejoin="round"/>
<path d="M56.8671 18.0089C56.8671 18.0089 55.8955 16.6851 54.4962 15.8408" stroke="white" stroke-width="0.5" stroke-linecap="round" stroke-linejoin="round"/>
<path d="M49.3448 17.8703C49.3448 20.2896 47.8015 21.671 45.4125 21.671C44.4193 21.7045 44.2235 23.5338 45.2219 23.5694C47.6109 23.5694 49.3448 25.3253 49.3448 27.7445C49.3448 28.2528 49.9125 28.5064 50.0972 28.5064C50.5128 28.5064 51.225 28.5064 51.225 27.557C51.225 25.1378 52.5836 23.5694 54.9726 23.5694C55.388 23.5694 56.1 23.0411 56.1 22.6203C56.1 22.1996 55.388 22.0455 54.9726 22.0455C52.5836 22.0455 50.8498 19.7232 50.8498 17.3039C50.8166 16.2981 49.3799 16.8593 49.3448 17.8703ZM52.0765 22.8074C51.2516 23.2882 50.5721 23.9765 50.0972 24.8117C49.6225 23.9763 48.9428 23.2882 48.1181 22.8074C48.9428 22.3266 49.6225 21.6384 50.0972 20.8031C50.5721 21.6384 51.2516 22.3266 52.0765 22.8074Z" fill="#FFDD65"/>
<path d="M49.7198 17.4904C49.7198 19.9097 47.9859 21.6656 45.5969 21.6656C44.6036 21.6991 44.5985 23.154 45.5969 23.1896C47.9859 23.1896 49.7198 24.9454 49.7198 27.3646C49.7198 27.7853 50.0568 28.1265 50.4722 28.1265C50.8878 28.1265 51.2248 27.7853 51.2248 27.3646C51.2248 24.9454 52.9586 23.1896 55.3476 23.1896C55.763 23.1896 56.1 22.8483 56.1 22.4276C56.1 22.0068 55.763 21.6656 55.3476 21.6656C52.9586 21.6656 51.2248 19.9097 51.2248 17.4904C51.1916 16.4846 49.7549 16.4794 49.7198 17.4904ZM52.4515 22.4276C51.6266 22.9084 50.9471 23.5966 50.4722 24.4318C49.9975 23.5964 49.3178 22.9084 48.4931 22.4276C49.3178 21.9467 49.9975 21.2585 50.4722 20.4232C50.9471 21.2585 51.6266 21.9467 52.4515 22.4276Z" fill="#DF8D12"/>
<path d="M48.975 25.848C48.975 25.848 48.6 24.5188 47.1 23.9492" stroke="white" stroke-width="0.5" stroke-linecap="round" stroke-linejoin="round"/>
<g filter="url(#filter0_d_1799_5949)">
<path d="M58.5764 60.8865H15.5396C9.71875 60.8865 5 65.6856 5 71.6055C5 77.5255 9.71875 82.3246 15.5396 82.3246H58.5764C64.3973 82.3246 69.116 77.5255 69.116 71.6055C69.116 65.6856 64.3973 60.8865 58.5764 60.8865Z" fill="#F1FF8B"/>
<path d="M58.5764 60.8865H15.5396C9.71875 60.8865 5 65.6856 5 71.6055C5 77.5255 9.71875 82.3246 15.5396 82.3246H58.5764C64.3973 82.3246 69.116 77.5255 69.116 71.6055C69.116 65.6856 64.3973 60.8865 58.5764 60.8865Z" fill="url(#paint0_linear_1799_5949)"/>
<path d="M14.1129 74.062V68.8628H17.5062V69.7703H15.1901V70.7819H16.0241C16.4286 70.7819 16.7777 70.8494 17.0702 70.9843C17.3653 71.1169 17.5927 71.3045 17.753 71.5461C17.9133 71.7882 17.9932 72.0731 17.9932 72.401C17.9932 72.7292 17.9133 73.0173 17.753 73.2665C17.5927 73.5153 17.3653 73.7109 17.0702 73.8525C16.7777 73.9923 16.4286 74.062 16.0241 74.062H14.1129ZM15.1901 73.1759H16.0241C16.2182 73.1759 16.382 73.141 16.5146 73.0709C16.6472 72.999 16.7478 72.9034 16.8163 72.7851C16.8848 72.664 16.9195 72.5327 16.9195 72.3907C16.9195 72.1835 16.8427 72.0093 16.6894 71.8672C16.5361 71.7252 16.3144 71.6542 16.0241 71.6542H15.1901V73.1759ZM20.1719 74.1388C19.7854 74.1388 19.4503 74.0548 19.1667 73.8873C18.8852 73.7176 18.6678 73.4827 18.5145 73.1826C18.3639 72.8802 18.2884 72.5292 18.2884 72.129C18.2884 71.7243 18.3639 71.3719 18.5145 71.0718C18.6678 70.7694 18.8852 70.5345 19.1667 70.367C19.4503 70.1969 19.7854 70.112 20.1719 70.112C20.5605 70.112 20.8956 70.1969 21.1771 70.367C21.4608 70.5345 21.6782 70.7694 21.8288 71.0718C21.9821 71.3719 22.0589 71.7243 22.0589 72.129C22.0589 72.5292 21.9821 72.8802 21.8288 73.1826C21.6782 73.4827 21.4608 73.7176 21.1771 73.8873C20.8956 74.0548 20.5605 74.1388 20.1719 74.1388ZM20.1785 73.2942C20.355 73.2942 20.5021 73.2442 20.6211 73.1442C20.7401 73.0419 20.8293 72.9025 20.889 72.7257C20.9505 72.5488 20.9817 72.3474 20.9817 72.1218C20.9817 71.8941 20.9505 71.6926 20.889 71.5184C20.8293 71.3438 20.7401 71.2067 20.6211 71.1066C20.5021 71.0066 20.355 70.9566 20.1785 70.9566C20.0002 70.9566 19.8504 71.0066 19.7292 71.1066C19.6102 71.2067 19.5197 71.3438 19.4583 71.5184C19.3985 71.6926 19.3691 71.8941 19.3691 72.1218C19.3691 72.3474 19.3985 72.5488 19.4583 72.7257C19.5197 72.9025 19.6102 73.0419 19.7292 73.1442C19.8504 73.2442 20.0002 73.2942 20.1785 73.2942ZM25.1914 71.6823V72.5265H23.191V71.6823H25.1914ZM23.541 70.1611V74.062H22.5288V70.1611H23.541ZM25.8567 70.1611V74.062H24.8515V70.1611H25.8567ZM26.9958 75.5207C26.861 75.5229 26.7341 75.5135 26.6151 75.4925C26.4983 75.4715 26.4021 75.4447 26.3266 75.4121L26.5668 74.6064L26.6015 74.6131C26.7798 74.6667 26.9317 74.6783 27.0578 74.648C27.1856 74.6203 27.283 74.518 27.3494 74.3411L27.4108 74.1736L26.0385 70.1611H27.1535L27.9462 73.0258H27.9874L28.7902 70.1611H29.9122L28.4231 74.484C28.3519 74.6935 28.2549 74.8762 28.1315 75.032C28.0103 75.1879 27.857 75.3076 27.6717 75.3916C27.4864 75.4773 27.2611 75.5207 26.9958 75.5207ZM31.8366 74.1388C31.4457 74.1388 31.1094 74.0539 30.8279 73.8842C30.5468 73.7118 30.3307 73.476 30.1797 73.1759C30.0286 72.8735 29.9531 72.5242 29.9531 72.129C29.9531 71.7288 30.0286 71.3778 30.1797 71.0749C30.3329 70.7726 30.5503 70.5367 30.8314 70.367C31.1129 70.1969 31.4479 70.112 31.8366 70.112C32.1708 70.112 32.4624 70.1736 32.7118 70.2969C32.963 70.4202 33.1624 70.5935 33.3086 70.8168C33.4549 71.0401 33.5352 71.3032 33.5488 71.6055H32.5471C32.5287 71.4751 32.4896 71.3612 32.4303 71.2634C32.371 71.166 32.292 71.0901 32.1936 71.037C32.0953 70.9834 31.9811 70.9566 31.8507 70.9566C31.686 70.9566 31.5419 71.0017 31.4181 71.0928C31.2969 71.1808 31.202 71.3125 31.1335 71.4867C31.0672 71.6591 31.0338 71.8686 31.0338 72.1151C31.0338 72.3617 31.0672 72.5734 31.1335 72.7498C31.202 72.9267 31.2969 73.0615 31.4181 73.1549C31.5419 73.2478 31.686 73.2942 31.8507 73.2942C32.0333 73.2942 32.1879 73.2362 32.3135 73.12C32.4396 73.0012 32.5173 72.8382 32.5471 72.6314H33.5488C33.5326 72.9293 33.454 73.192 33.3121 73.4197C33.1703 73.6457 32.9749 73.8226 32.7254 73.9503C32.476 74.0758 32.18 74.1388 31.8366 74.1388Z" fill="#1F2024"/>
<path d="M36.6883 70.5454C36.0849 72.8656 37.4814 75.2591 39.7966 75.8982C42.1122 76.5369 44.4836 75.1832 45.0875 72.8629C45.6908 70.5427 44.2943 68.1492 41.9791 67.5101C39.6635 66.8714 37.2921 68.2252 36.6883 70.5454Z" fill="#A56402"/>
<path d="M36.9516 70.2736C36.3482 72.5938 37.7447 74.9878 40.0599 75.6264C42.3755 76.2656 44.7469 74.9118 45.3507 72.5916C45.9541 70.2714 44.5576 67.8775 42.2424 67.2388C39.9268 66.5997 37.5554 67.9538 36.9516 70.2736Z" fill="#FFB423"/>
<path d="M37.7147 70.4845C37.2237 72.3711 38.3712 74.3179 40.2639 74.84C42.1571 75.3626 44.0955 74.2674 44.5865 72.3809C45.0775 70.4939 43.93 68.5475 42.0372 68.0249C40.1445 67.5028 38.2056 68.5975 37.7147 70.4845Z" fill="#FFCF23" stroke="#DF8D12" stroke-width="2"/>
<path fill-rule="evenodd" clip-rule="evenodd" d="M43.1263 73.4519C43.385 73.1424 43.5804 72.7686 43.6867 72.3447C44.0643 70.8431 43.1829 69.2871 41.7179 68.8686C40.7729 68.5984 39.816 68.8682 39.1546 69.497C39.812 68.7105 40.8783 68.3429 41.9292 68.6435C43.3937 69.0616 44.2751 70.618 43.8979 72.1196C43.7639 72.652 43.4899 73.1062 43.1263 73.4519Z" fill="#FFDD65"/>
<path fill-rule="evenodd" clip-rule="evenodd" d="M39.1352 69.4321C38.8766 69.7416 38.6812 70.1155 38.5749 70.5393C38.1972 72.0409 39.0786 73.5974 40.5432 74.0154C41.4887 74.2856 42.4456 74.0159 43.1069 73.387C42.4495 74.1735 41.3832 74.5411 40.3324 74.241C38.8674 73.8225 37.986 72.266 38.3637 70.7644C38.4972 70.232 38.7716 69.7778 39.1352 69.4321Z" fill="#F2BD00"/>
<path d="M44.9911 69.824C44.5624 68.6623 43.5405 67.7619 42.2688 67.4028" stroke="#FFD179" stroke-width="0.5" stroke-linecap="round" stroke-linejoin="round"/>
<path d="M37.7962 73.9436C38.1383 74.3983 38.5709 74.7748 39.0636 75.0463" stroke="#FFD179" stroke-width="0.5" stroke-linecap="round" stroke-linejoin="round"/>
<path d="M44.2476 68.6983C44.2476 68.6983 43.9915 68.3517 43.5893 68.1021" stroke="#FFF3D2" stroke-width="0.5" stroke-linecap="round" stroke-linejoin="round"/>
<path d="M43.3875 69.8223C43.3875 69.8223 43.0459 69.3493 42.5545 69.0479" stroke="white" stroke-width="0.5" stroke-linecap="round" stroke-linejoin="round"/>
<path d="M40.7445 69.7727C40.7445 70.6374 40.2021 71.1309 39.3629 71.1309C39.0138 71.143 38.9453 71.7964 39.2962 71.8093C40.1354 71.8093 40.7445 72.4364 40.7445 73.3011C40.7445 73.4824 40.9439 73.5731 41.0088 73.5731C41.1546 73.5731 41.405 73.5731 41.405 73.2341C41.405 72.3694 41.8823 71.8093 42.7215 71.8093C42.8673 71.8093 43.1176 71.6204 43.1176 71.4699C43.1176 71.3198 42.8673 71.2644 42.7215 71.2644C41.8823 71.2644 41.2732 70.4351 41.2732 69.5704C41.2614 69.2109 40.7568 69.4114 40.7445 69.7727ZM41.704 71.5369C41.4142 71.7088 41.1757 71.9545 41.0088 72.2528C40.842 71.9545 40.6031 71.7088 40.3132 71.5369C40.6031 71.3649 40.842 71.1193 41.0088 70.8205C41.1757 71.1193 41.4142 71.3649 41.704 71.5369Z" fill="#FFDD65"/>
<path d="M40.8766 69.6369C40.8766 70.5016 40.2675 71.1287 39.4283 71.1287C39.0792 71.1407 39.0774 71.6606 39.4283 71.6735C40.2675 71.6735 40.8766 72.3006 40.8766 73.1653C40.8766 73.3153 40.9948 73.4373 41.141 73.4373C41.2868 73.4373 41.4054 73.3153 41.4054 73.1653C41.4054 72.3006 42.0145 71.6735 42.8537 71.6735C42.9995 71.6735 43.1181 71.5516 43.1181 71.4011C43.1181 71.2506 42.9995 71.1287 42.8537 71.1287C42.0145 71.1287 41.4054 70.5016 41.4054 69.6369C41.3935 69.2778 40.8889 69.2761 40.8766 69.6369ZM41.8362 71.4011C41.5464 71.5731 41.3079 71.8187 41.141 72.117C40.9741 71.8187 40.7352 71.5731 40.4454 71.4011C40.7352 71.2291 40.9741 70.9835 41.141 70.6852C41.3079 70.9835 41.5464 71.2291 41.8362 71.4011Z" fill="#DF8D12"/>
<path d="M40.6144 72.6235C40.6144 72.6235 40.4827 72.1483 39.9557 71.9451" stroke="white" stroke-width="0.5" stroke-linecap="round" stroke-linejoin="round"/>
<path d="M50.5141 68.8629V74.0621H49.4369V69.9062H49.4057L48.2393 70.6565V69.6798L49.5019 68.8629H50.5141ZM53.1455 74.1317C52.7108 74.1317 52.3392 74.0272 52.0305 73.8178C51.724 73.6061 51.4882 73.3024 51.3235 72.9071C51.1614 72.5092 51.0802 72.029 51.0802 71.4663C51.0802 70.9053 51.1623 70.4261 51.327 70.0286C51.4917 69.6284 51.7275 69.3225 52.034 69.1108C52.3427 68.8991 52.7129 68.7932 53.1455 68.7932C53.5798 68.7932 53.9505 68.8991 54.257 69.1108C54.5657 69.3225 54.8015 69.6271 54.9636 70.025C55.1283 70.423 55.2108 70.9031 55.2108 71.4663C55.2108 72.029 55.1296 72.5092 54.9671 72.9071C54.8046 73.3024 54.5692 73.6061 54.2605 73.8178C53.954 74.0272 53.5825 74.1317 53.1455 74.1317ZM53.1455 73.2246C53.3537 73.2246 53.5285 73.1572 53.6703 73.0223C53.8143 72.8852 53.9233 72.6851 53.9962 72.4221C54.0717 72.1594 54.1095 71.8405 54.1095 71.4663C54.1095 71.0893 54.0717 70.7695 53.9962 70.5065C53.9233 70.2439 53.8143 70.0438 53.6703 69.9062C53.5285 69.7669 53.3537 69.6972 53.1455 69.6972C52.8368 69.6972 52.5988 69.8517 52.4319 70.1612C52.265 70.4681 52.1816 70.9031 52.1816 71.4663C52.1816 71.8405 52.218 72.1594 52.2914 72.4221C52.3665 72.6851 52.4762 72.8852 52.6207 73.0223C52.7648 73.1572 52.9395 73.2246 53.1455 73.2246ZM57.7496 74.1317C57.3153 74.1317 56.9433 74.0272 56.6346 73.8178C56.328 73.6061 56.0927 73.3024 55.928 72.9071C55.7655 72.5092 55.6842 72.029 55.6842 71.4663C55.6842 70.9053 55.7668 70.4261 55.9315 70.0286C56.0962 69.6284 56.3316 69.3225 56.6381 69.1108C56.9468 68.8991 57.3174 68.7932 57.7496 68.7932C58.1843 68.7932 58.555 68.8991 58.8611 69.1108C59.1702 69.3225 59.4056 69.6271 59.5681 70.025C59.7328 70.423 59.8149 70.9031 59.8149 71.4663C59.8149 72.029 59.7337 72.5092 59.5716 72.9071C59.4091 73.3024 59.1733 73.6061 58.8646 73.8178C58.558 74.0272 58.1865 74.1317 57.7496 74.1317ZM57.7496 73.2246C57.9577 73.2246 58.1329 73.1572 58.2744 73.0223C58.4188 72.8852 58.5273 72.6851 58.6006 72.4221C58.6762 72.1594 58.7135 71.8405 58.7135 71.4663C58.7135 71.0893 58.6762 70.7695 58.6006 70.5065C58.5273 70.2439 58.4188 70.0438 58.2744 69.9062C58.1329 69.7669 57.9577 69.6972 57.7496 69.6972C57.4408 69.6972 57.2028 69.8517 57.036 70.1612C56.8691 70.4681 56.7856 70.9031 56.7856 71.4663C56.7856 71.8405 56.8221 72.1594 56.8954 72.4221C56.971 72.6851 57.0807 72.8852 57.2248 73.0223C57.3688 73.1572 57.5436 73.2246 57.7496 73.2246Z" fill="#1F2024"/>
</g>
<g filter="url(#filter1_d_1799_5949)">
<path fill-rule="evenodd" clip-rule="evenodd" d="M47.8792 80.0747C46.4845 78.6809 44.0396 78.8385 42.2569 79.4502C40.9504 79.8991 39.5763 80.4037 38.1748 80.9674C38.1354 80.9828 38.1157 81.0231 38.1217 81.0608L38.0943 81.0462C38.0609 81.0299 38.0224 81.0282 37.9881 81.0419C32.8575 83.1219 27.38 85.9986 23.5164 89.8622C21.6977 91.6809 20.0092 94.113 18.486 96.7892L10.0307 99.9015C9.02242 100.272 8.73801 101.564 9.49787 102.324L13.8832 106.709C13.872 106.72 13.8609 106.731 13.8497 106.742C13.1901 107.401 13.0351 108.374 13.3837 109.18C12.3215 109.289 11.5522 109.597 11.5522 109.597C7.87106 111.07 7.45301 118.29 8.49472 119.331C8.91106 119.747 10.6638 119.158 11.3577 118.811C11.5376 118.721 11.6952 118.639 11.8357 118.567C12.4602 118.243 12.7318 118.102 12.9194 118.29C13.0282 118.399 12.97 118.573 12.9091 118.757C12.8406 118.962 12.7678 119.179 12.9194 119.331C13.4403 119.852 17.8727 118.61 18.9135 115.487C18.9135 115.487 18.9778 115.328 19.0386 115.054L19.0557 115.071C19.9175 115.933 21.3165 115.933 22.1791 115.071C22.1894 115.059 22.2006 115.048 22.2117 115.037L25.8971 118.723C26.6569 119.483 27.9488 119.199 28.3197 118.191L31.629 109.201C34.1211 107.749 36.3793 106.152 38.0926 104.438C41.9442 100.586 44.8149 95.1307 46.8932 90.013C46.9069 89.9795 46.9051 89.941 46.8897 89.9084L46.8726 89.8742C46.9111 89.8827 46.954 89.863 46.9702 89.8228C47.5408 88.4058 48.0505 87.0172 48.5037 85.697C49.1076 83.9391 49.5934 81.7889 47.8792 80.0747Z" fill="url(#paint1_linear_1799_5949)"/>
<path fill-rule="evenodd" clip-rule="evenodd" d="M47.8792 80.0747C46.4845 78.6809 44.0396 78.8385 42.2569 79.4502C40.9504 79.8991 39.5763 80.4037 38.1748 80.9674C38.1354 80.9828 38.1157 81.0231 38.1217 81.0608L38.0943 81.0462C38.0609 81.0299 38.0224 81.0282 37.9881 81.0419C32.8575 83.1219 27.38 85.9986 23.5164 89.8622C21.6977 91.6809 20.0092 94.113 18.486 96.7892L10.0307 99.9015C9.02242 100.272 8.73801 101.564 9.49787 102.324L13.8832 106.709C13.872 106.72 13.8609 106.731 13.8497 106.742C13.1901 107.401 13.0351 108.374 13.3837 109.18C12.3215 109.289 11.5522 109.597 11.5522 109.597C7.87106 111.07 7.45301 118.29 8.49472 119.331C8.91106 119.747 10.6638 119.158 11.3577 118.811C11.5376 118.721 11.6952 118.639 11.8357 118.567C12.4602 118.243 12.7318 118.102 12.9194 118.29C13.0282 118.399 12.97 118.573 12.9091 118.757C12.8406 118.962 12.7678 119.179 12.9194 119.331C13.4403 119.852 17.8727 118.61 18.9135 115.487C18.9135 115.487 18.9778 115.328 19.0386 115.054L19.0557 115.071C19.9175 115.933 21.3165 115.933 22.1791 115.071C22.1894 115.059 22.2006 115.048 22.2117 115.037L25.8971 118.723C26.6569 119.483 27.9488 119.199 28.3197 118.191L31.629 109.201C34.1211 107.749 36.3793 106.152 38.0926 104.438C41.9442 100.586 44.8149 95.1307 46.8932 90.013C46.9069 89.9795 46.9051 89.941 46.8897 89.9084L46.8726 89.8742C46.9111 89.8827 46.954 89.863 46.9702 89.8228C47.5408 88.4058 48.0505 87.0172 48.5037 85.697C49.1076 83.9391 49.5934 81.7889 47.8792 80.0747Z" fill="url(#paint2_radial_1799_5949)"/>
<path fill-rule="evenodd" clip-rule="evenodd" d="M47.8792 80.0747C46.4845 78.6809 44.0396 78.8385 42.2569 79.4502C40.9504 79.8991 39.5763 80.4037 38.1748 80.9674C38.1354 80.9828 38.1157 81.0231 38.1217 81.0608L38.0943 81.0462C38.0609 81.0299 38.0224 81.0282 37.9881 81.0419C32.8575 83.1219 27.38 85.9986 23.5164 89.8622C21.6977 91.6809 20.0092 94.113 18.486 96.7892L10.0307 99.9015C9.02242 100.272 8.73801 101.564 9.49787 102.324L13.8832 106.709C13.872 106.72 13.8609 106.731 13.8497 106.742C13.1901 107.401 13.0351 108.374 13.3837 109.18C12.3215 109.289 11.5522 109.597 11.5522 109.597C7.87106 111.07 7.45301 118.29 8.49472 119.331C8.91106 119.747 10.6638 119.158 11.3577 118.811C11.5376 118.721 11.6952 118.639 11.8357 118.567C12.4602 118.243 12.7318 118.102 12.9194 118.29C13.0282 118.399 12.97 118.573 12.9091 118.757C12.8406 118.962 12.7678 119.179 12.9194 119.331C13.4403 119.852 17.8727 118.61 18.9135 115.487C18.9135 115.487 18.9778 115.328 19.0386 115.054L19.0557 115.071C19.9175 115.933 21.3165 115.933 22.1791 115.071C22.1894 115.059 22.2006 115.048 22.2117 115.037L25.8971 118.723C26.6569 119.483 27.9488 119.199 28.3197 118.191L31.629 109.201C34.1211 107.749 36.3793 106.152 38.0926 104.438C41.9442 100.586 44.8149 95.1307 46.8932 90.013C46.9069 89.9795 46.9051 89.941 46.8897 89.9084L46.8726 89.8742C46.9111 89.8827 46.954 89.863 46.9702 89.8228C47.5408 88.4058 48.0505 87.0172 48.5037 85.697C49.1076 83.9391 49.5934 81.7889 47.8792 80.0747Z" fill="url(#paint3_radial_1799_5949)"/>
<path fill-rule="evenodd" clip-rule="evenodd" d="M47.8792 80.0747C46.4845 78.6809 44.0396 78.8385 42.2569 79.4502C40.9504 79.8991 39.5763 80.4037 38.1748 80.9674C38.1354 80.9828 38.1157 81.0231 38.1217 81.0608L38.0943 81.0462C38.0609 81.0299 38.0224 81.0282 37.9881 81.0419C32.8575 83.1219 27.38 85.9986 23.5164 89.8622C21.6977 91.6809 20.0092 94.113 18.486 96.7892L10.0307 99.9015C9.02242 100.272 8.73801 101.564 9.49787 102.324L13.8832 106.709C13.872 106.72 13.8609 106.731 13.8497 106.742C13.1901 107.401 13.0351 108.374 13.3837 109.18C12.3215 109.289 11.5522 109.597 11.5522 109.597C7.87106 111.07 7.45301 118.29 8.49472 119.331C8.91106 119.747 10.6638 119.158 11.3577 118.811C11.5376 118.721 11.6952 118.639 11.8357 118.567C12.4602 118.243 12.7318 118.102 12.9194 118.29C13.0282 118.399 12.97 118.573 12.9091 118.757C12.8406 118.962 12.7678 119.179 12.9194 119.331C13.4403 119.852 17.8727 118.61 18.9135 115.487C18.9135 115.487 18.9778 115.328 19.0386 115.054L19.0557 115.071C19.9175 115.933 21.3165 115.933 22.1791 115.071C22.1894 115.059 22.2006 115.048 22.2117 115.037L25.8971 118.723C26.6569 119.483 27.9488 119.199 28.3197 118.191L31.629 109.201C34.1211 107.749 36.3793 106.152 38.0926 104.438C41.9442 100.586 44.8149 95.1307 46.8932 90.013C46.9069 89.9795 46.9051 89.941 46.8897 89.9084L46.8726 89.8742C46.9111 89.8827 46.954 89.863 46.9702 89.8228C47.5408 88.4058 48.0505 87.0172 48.5037 85.697C49.1076 83.9391 49.5934 81.7889 47.8792 80.0747Z" fill="url(#paint4_radial_1799_5949)"/>
<path fill-rule="evenodd" clip-rule="evenodd" d="M47.8792 80.0747C46.4845 78.6809 44.0396 78.8385 42.2569 79.4502C40.9504 79.8991 39.5763 80.4037 38.1748 80.9674C38.1354 80.9828 38.1157 81.0231 38.1217 81.0608L38.0943 81.0462C38.0609 81.0299 38.0224 81.0282 37.9881 81.0419C32.8575 83.1219 27.38 85.9986 23.5164 89.8622C21.6977 91.6809 20.0092 94.113 18.486 96.7892L10.0307 99.9015C9.02242 100.272 8.73801 101.564 9.49787 102.324L13.8832 106.709C13.872 106.72 13.8609 106.731 13.8497 106.742C13.1901 107.401 13.0351 108.374 13.3837 109.18C12.3215 109.289 11.5522 109.597 11.5522 109.597C7.87106 111.07 7.45301 118.29 8.49472 119.331C8.91106 119.747 10.6638 119.158 11.3577 118.811C11.5376 118.721 11.6952 118.639 11.8357 118.567C12.4602 118.243 12.7318 118.102 12.9194 118.29C13.0282 118.399 12.97 118.573 12.9091 118.757C12.8406 118.962 12.7678 119.179 12.9194 119.331C13.4403 119.852 17.8727 118.61 18.9135 115.487C18.9135 115.487 18.9778 115.328 19.0386 115.054L19.0557 115.071C19.9175 115.933 21.3165 115.933 22.1791 115.071C22.1894 115.059 22.2006 115.048 22.2117 115.037L25.8971 118.723C26.6569 119.483 27.9488 119.199 28.3197 118.191L31.629 109.201C34.1211 107.749 36.3793 106.152 38.0926 104.438C41.9442 100.586 44.8149 95.1307 46.8932 90.013C46.9069 89.9795 46.9051 89.941 46.8897 89.9084L46.8726 89.8742C46.9111 89.8827 46.954 89.863 46.9702 89.8228C47.5408 88.4058 48.0505 87.0172 48.5037 85.697C49.1076 83.9391 49.5934 81.7889 47.8792 80.0747Z" fill="url(#paint5_radial_1799_5949)"/>
</g>
<path d="M20.1712 96.2604C21.8876 95.6281 23.5565 97.297 22.925 99.0142L19.1804 109.187C18.8193 110.167 17.5656 110.442 16.8268 109.704L9.48064 102.358C8.7427 101.62 9.01891 100.365 9.99812 100.005L20.1712 96.2604Z" fill="url(#paint6_linear_1799_5949)"/>
<path d="M20.1712 96.2604C21.8876 95.6281 23.5565 97.297 22.925 99.0142L19.1804 109.187C18.8193 110.167 17.5656 110.442 16.8268 109.704L9.48064 102.358C8.7427 101.62 9.01891 100.365 9.99812 100.005L20.1712 96.2604Z" fill="url(#paint7_radial_1799_5949)"/>
<path d="M20.1712 96.2604C21.8876 95.6281 23.5565 97.297 22.925 99.0142L19.1804 109.187C18.8193 110.167 17.5656 110.442 16.8268 109.704L9.48064 102.358C8.7427 101.62 9.01891 100.365 9.99812 100.005L20.1712 96.2604Z" fill="url(#paint8_linear_1799_5949)"/>
<path d="M29.1709 105.26C30.8881 104.629 32.557 106.297 31.9247 108.014L28.18 118.187C27.8198 119.166 26.5652 119.442 25.8272 118.704L18.4809 111.357C17.743 110.619 18.0184 109.366 18.9976 109.005L29.1709 105.26Z" fill="url(#paint9_linear_1799_5949)"/>
<path d="M29.1709 105.26C30.8881 104.629 32.557 106.297 31.9247 108.014L28.18 118.187C27.8198 119.166 26.5652 119.442 25.8272 118.704L18.4809 111.357C17.743 110.619 18.0184 109.366 18.9976 109.005L29.1709 105.26Z" fill="url(#paint10_radial_1799_5949)"/>
<path d="M29.1709 105.26C30.8881 104.629 32.557 106.297 31.9247 108.014L28.18 118.187C27.8198 119.166 26.5652 119.442 25.8272 118.704L18.4809 111.357C17.743 110.619 18.0184 109.366 18.9976 109.005L29.1709 105.26Z" fill="url(#paint11_radial_1799_5949)"/>
<path d="M38.0474 81.1328C38.082 81.119 38.121 81.1207 38.1548 81.1372L44.1259 84.1336L47.0487 90.0935C47.0643 90.1264 47.066 90.1645 47.0521 90.1991C44.9506 95.3703 42.0478 100.884 38.1531 104.777C34.3805 108.547 27.9996 111.761 22.2381 114.124L14.0615 105.952C16.4255 100.193 19.6411 93.8163 23.4137 90.0459C27.3205 86.1421 32.8593 83.234 38.0474 81.1328Z" fill="url(#paint12_linear_1799_5949)"/>
<path d="M38.0474 81.1328C38.082 81.119 38.121 81.1207 38.1548 81.1372L44.1259 84.1336L47.0487 90.0935C47.0643 90.1264 47.066 90.1645 47.0521 90.1991C44.9506 95.3703 42.0478 100.884 38.1531 104.777C34.3805 108.547 27.9996 111.761 22.2381 114.124L14.0615 105.952C16.4255 100.193 19.6411 93.8163 23.4137 90.0459C27.3205 86.1421 32.8593 83.234 38.0474 81.1328Z" fill="url(#paint13_radial_1799_5949)"/>
<path d="M38.0474 81.1328C38.082 81.119 38.121 81.1207 38.1548 81.1372L44.1259 84.1336L47.0487 90.0935C47.0643 90.1264 47.066 90.1645 47.0521 90.1991C44.9506 95.3703 42.0478 100.884 38.1531 104.777C34.3805 108.547 27.9996 111.761 22.2381 114.124L14.0615 105.952C16.4255 100.193 19.6411 93.8163 23.4137 90.0459C27.3205 86.1421 32.8593 83.234 38.0474 81.1328Z" fill="url(#paint14_radial_1799_5949)"/>
<path d="M38.0474 81.1328C38.082 81.119 38.121 81.1207 38.1548 81.1372L44.1259 84.1336L47.0487 90.0935C47.0643 90.1264 47.066 90.1645 47.0521 90.1991C44.9506 95.3703 42.0478 100.884 38.1531 104.777C34.3805 108.547 27.9996 111.761 22.2381 114.124L14.0615 105.952C16.4255 100.193 19.6411 93.8163 23.4137 90.0459C27.3205 86.1421 32.8593 83.234 38.0474 81.1328Z" fill="url(#paint15_radial_1799_5949)"/>
<path d="M38.0474 81.1328C38.082 81.119 38.121 81.1207 38.1548 81.1372L44.1259 84.1336L47.0487 90.0935C47.0643 90.1264 47.066 90.1645 47.0521 90.1991C44.9506 95.3703 42.0478 100.884 38.1531 104.777C34.3805 108.547 27.9996 111.761 22.2381 114.124L14.0615 105.952C16.4255 100.193 19.6411 93.8163 23.4137 90.0459C27.3205 86.1421 32.8593 83.234 38.0474 81.1328Z" fill="url(#paint16_radial_1799_5949)"/>
<path d="M41.0615 92.1231C41.0615 94.8849 38.8229 97.1235 36.0611 97.1235C33.3002 97.1235 31.0615 94.8849 31.0615 92.1231C31.0615 89.3622 33.3002 87.1235 36.0611 87.1235C38.8229 87.1235 41.0615 89.3622 41.0615 92.1231Z" fill="url(#paint17_linear_1799_5949)"/>
<path d="M41.0615 92.1231C41.0615 94.8849 38.8229 97.1235 36.0611 97.1235C33.3002 97.1235 31.0615 94.8849 31.0615 92.1231C31.0615 89.3622 33.3002 87.1235 36.0611 87.1235C38.8229 87.1235 41.0615 89.3622 41.0615 92.1231Z" fill="url(#paint18_linear_1799_5949)"/>
<path d="M41.0615 92.1231C41.0615 94.8849 38.8229 97.1235 36.0611 97.1235C33.3002 97.1235 31.0615 94.8849 31.0615 92.1231C31.0615 89.3622 33.3002 87.1235 36.0611 87.1235C38.8229 87.1235 41.0615 89.3622 41.0615 92.1231Z" fill="url(#paint19_radial_1799_5949)"/>
<path d="M41.0615 92.1231C41.0615 94.8849 38.8229 97.1235 36.0611 97.1235C33.3002 97.1235 31.0615 94.8849 31.0615 92.1231C31.0615 89.3622 33.3002 87.1235 36.0611 87.1235C38.8229 87.1235 41.0615 89.3622 41.0615 92.1231Z" fill="url(#paint20_radial_1799_5949)"/>
<path d="M39.0615 92.1232C39.0615 93.7802 37.7182 95.1235 36.0612 95.1235C34.4049 95.1235 33.0615 93.7802 33.0615 92.1232C33.0615 90.4669 34.4049 89.1235 36.0612 89.1235C37.7182 89.1235 39.0615 90.4669 39.0615 92.1232Z" fill="url(#paint21_radial_1799_5949)"/>
<path d="M8.54897 118.985C7.52224 117.977 7.93463 110.989 11.5658 109.563C11.5658 109.563 15.1961 108.138 17.536 110.419C19.8759 112.7 18.8272 115.264 18.8272 115.264C17.8005 118.288 13.4282 119.489 12.9145 118.985C12.6314 118.707 13.1418 118.2 12.9145 117.977C12.688 117.754 12.3373 118.009 11.374 118.482C10.6895 118.817 8.96051 119.388 8.54897 118.985Z" fill="url(#paint22_radial_1799_5949)"/>
<path d="M8.54897 118.985C7.52224 117.977 7.93463 110.989 11.5658 109.563C11.5658 109.563 15.1961 108.138 17.536 110.419C19.8759 112.7 18.8272 115.264 18.8272 115.264C17.8005 118.288 13.4282 119.489 12.9145 118.985C12.6314 118.707 13.1418 118.2 12.9145 117.977C12.688 117.754 12.3373 118.009 11.374 118.482C10.6895 118.817 8.96051 119.388 8.54897 118.985Z" fill="url(#paint23_radial_1799_5949)"/>
<path d="M13.7339 106.795C14.6304 105.9 16.0833 105.9 16.9798 106.795L22.3891 112.205C23.2856 113.102 23.2856 114.555 22.3891 115.451C21.4935 116.348 20.0397 116.348 19.1432 115.451L13.7339 110.042C12.8374 109.145 12.8374 107.692 13.7339 106.795Z" fill="url(#paint24_linear_1799_5949)"/>
<path d="M13.7339 106.795C14.6304 105.9 16.0833 105.9 16.9798 106.795L22.3891 112.205C23.2856 113.102 23.2856 114.555 22.3891 115.451C21.4935 116.348 20.0397 116.348 19.1432 115.451L13.7339 110.042C12.8374 109.145 12.8374 107.692 13.7339 106.795Z" fill="url(#paint25_radial_1799_5949)"/>
<path d="M13.7339 106.795C14.6304 105.9 16.0833 105.9 16.9798 106.795L22.3891 112.205C23.2856 113.102 23.2856 114.555 22.3891 115.451C21.4935 116.348 20.0397 116.348 19.1432 115.451L13.7339 110.042C12.8374 109.145 12.8374 107.692 13.7339 106.795Z" fill="url(#paint26_radial_1799_5949)"/>
<path d="M47.8728 80.2108C46.4705 78.8002 44.0123 78.9605 42.2199 79.5792C40.9064 80.0332 39.5248 80.5427 38.1157 81.1128C38.058 81.1362 38.0434 81.2107 38.0864 81.2549L46.8176 90.0978C46.8616 90.142 46.9356 90.1272 46.9589 90.0692C47.5325 88.637 48.045 87.2316 48.5007 85.8973C49.1079 84.1193 49.5963 81.9446 47.8728 80.2108Z" fill="url(#paint27_linear_1799_5949)"/>
<path d="M47.8728 80.2108C46.4705 78.8002 44.0123 78.9605 42.2199 79.5792C40.9064 80.0332 39.5248 80.5427 38.1157 81.1128C38.058 81.1362 38.0434 81.2107 38.0864 81.2549L46.8176 90.0978C46.8616 90.142 46.9356 90.1272 46.9589 90.0692C47.5325 88.637 48.045 87.2316 48.5007 85.8973C49.1079 84.1193 49.5963 81.9446 47.8728 80.2108Z" fill="url(#paint28_radial_1799_5949)"/>
<path d="M47.8728 80.2108C46.4705 78.8002 44.0123 78.9605 42.2199 79.5792C40.9064 80.0332 39.5248 80.5427 38.1157 81.1128C38.058 81.1362 38.0434 81.2107 38.0864 81.2549L46.8176 90.0978C46.8616 90.142 46.9356 90.1272 46.9589 90.0692C47.5325 88.637 48.045 87.2316 48.5007 85.8973C49.1079 84.1193 49.5963 81.9446 47.8728 80.2108Z" fill="url(#paint29_linear_1799_5949)"/>
<path d="M24.9645 100.27C26.8034 99.5926 28.5924 101.382 27.915 103.221L23.9028 114.121C23.5168 115.17 22.1726 115.465 21.3819 114.674L13.5109 106.803C12.7202 106.012 13.0153 104.668 14.0644 104.282L24.9645 100.27Z" fill="url(#paint30_linear_1799_5949)"/>
<path d="M24.9645 100.27C26.8034 99.5926 28.5924 101.382 27.915 103.221L23.9028 114.121C23.5168 115.17 22.1726 115.465 21.3819 114.674L13.5109 106.803C12.7202 106.012 13.0153 104.668 14.0644 104.282L24.9645 100.27Z" fill="url(#paint31_radial_1799_5949)"/>
<path d="M24.9645 100.27C26.8034 99.5926 28.5924 101.382 27.915 103.221L23.9028 114.121C23.5168 115.17 22.1726 115.465 21.3819 114.674L13.5109 106.803C12.7202 106.012 13.0153 104.668 14.0644 104.282L24.9645 100.27Z" fill="url(#paint32_radial_1799_5949)"/>
<path d="M24.9645 100.27C26.8034 99.5926 28.5924 101.382 27.915 103.221L23.9028 114.121C23.5168 115.17 22.1726 115.465 21.3819 114.674L13.5109 106.803C12.7202 106.012 13.0153 104.668 14.0644 104.282L24.9645 100.27Z" fill="url(#paint33_radial_1799_5949)"/>
<path d="M24.9645 100.27C26.8034 99.5926 28.5924 101.382 27.915 103.221L23.9028 114.121C23.5168 115.17 22.1726 115.465 21.3819 114.674L13.5109 106.803C12.7202 106.012 13.0153 104.668 14.0644 104.282L24.9645 100.27Z" fill="url(#paint34_radial_1799_5949)"/>
<defs>
<filter id="filter0_d_1799_5949" x="1" y="57.8865" width="72.116" height="29.438" filterUnits="userSpaceOnUse" color-interpolation-filters="sRGB">
<feFlood flood-opacity="0" result="BackgroundImageFix"/>
<feColorMatrix in="SourceAlpha" type="matrix" values="0 0 0 0 0 0 0 0 0 0 0 0 0 0 0 0 0 0 127 0" result="hardAlpha"/>
<feOffset dy="1"/>
<feGaussianBlur stdDeviation="2"/>
<feComposite in2="hardAlpha" operator="out"/>
<feColorMatrix type="matrix" values="0 0 0 0 0.121569 0 0 0 0 0.12549 0 0 0 0 0.141176 0 0 0 0.1 0"/>
<feBlend mode="normal" in2="BackgroundImageFix" result="effect1_dropShadow_1799_5949"/>
<feBlend mode="normal" in="SourceGraphic" in2="effect1_dropShadow_1799_5949" result="shape"/>
</filter>
<filter id="filter1_d_1799_5949" x="0" y="76" width="57.0615" height="56.4741" filterUnits="userSpaceOnUse" color-interpolation-filters="sRGB">
<feFlood flood-opacity="0" result="BackgroundImageFix"/>
<feColorMatrix in="SourceAlpha" type="matrix" values="0 0 0 0 0 0 0 0 0 0 0 0 0 0 0 0 0 0 127 0" result="hardAlpha"/>
<feOffset dy="5"/>
<feGaussianBlur stdDeviation="4"/>
<feComposite in2="hardAlpha" operator="out"/>
<feColorMatrix type="matrix" values="0 0 0 0 0.301508 0 0 0 0 0.213325 0 0 0 0 0.372624 0 0 0 0.5 0"/>
<feBlend mode="normal" in2="BackgroundImageFix" result="effect1_dropShadow_1799_5949"/>
<feBlend mode="normal" in="SourceGraphic" in2="effect1_dropShadow_1799_5949" result="shape"/>
</filter>
<linearGradient id="paint0_linear_1799_5949" x1="36.8217" y1="81.9155" x2="36.8217" y2="60.9499" gradientUnits="userSpaceOnUse">
<stop stop-color="#BEEC26"/>
<stop offset="1" stop-color="#F8FF6F"/>
</linearGradient>
<linearGradient id="paint1_linear_1799_5949" x1="27.248" y1="100.973" x2="17.6979" y2="110.523" gradientUnits="userSpaceOnUse">
<stop stop-color="#FF2644"/>
<stop offset="1" stop-color="#FF2982"/>
</linearGradient>
<radialGradient id="paint2_radial_1799_5949" cx="0" cy="0" r="1" gradientUnits="userSpaceOnUse" gradientTransform="translate(14.1076 104.444) rotate(-20.8651) scale(10.9809 2.87469)">
<stop stop-color="#FF95AF"/>
<stop offset="1" stop-color="#FF95AF" stop-opacity="0"/>
</radialGradient>
<radialGradient id="paint3_radial_1799_5949" cx="0" cy="0" r="1" gradientUnits="userSpaceOnUse" gradientTransform="translate(12.8731 105.748) rotate(44.7044) scale(6.78807 2.00514)">
<stop offset="0.381871" stop-color="#E14678"/>
<stop offset="1" stop-color="#E14678" stop-opacity="0"/>
</radialGradient>
<radialGradient id="paint4_radial_1799_5949" cx="0" cy="0" r="1" gradientUnits="userSpaceOnUse" gradientTransform="translate(21.9752 104.03) rotate(84.6743) scale(10.906 11.622)">
<stop offset="0.831791" stop-color="#E67BC7" stop-opacity="0"/>
<stop offset="1" stop-color="#E67BC7"/>
</radialGradient>
<radialGradient id="paint5_radial_1799_5949" cx="0" cy="0" r="1" gradientUnits="userSpaceOnUse" gradientTransform="translate(20.3861 108.24) rotate(45) scale(4.16458 14.1856)">
<stop stop-color="#FF739D"/>
<stop offset="0.796875" stop-color="#FF739D" stop-opacity="0"/>
</radialGradient>
<linearGradient id="paint6_linear_1799_5949" x1="16.6379" y1="101.394" x2="9.48896" y2="100.216" gradientUnits="userSpaceOnUse">
<stop stop-color="#EE2452"/>
<stop offset="1" stop-color="#F63E7A"/>
</linearGradient>
<radialGradient id="paint7_radial_1799_5949" cx="0" cy="0" r="1" gradientUnits="userSpaceOnUse" gradientTransform="translate(8.46899 101.043) rotate(-19.958) scale(11.4418 1.94537)">
<stop offset="0.163866" stop-color="#FF8DB0"/>
<stop offset="1" stop-color="#FF8DB0" stop-opacity="0"/>
</radialGradient>
<linearGradient id="paint8_linear_1799_5949" x1="12.0539" y1="104.861" x2="13.2195" y2="103.725" gradientUnits="userSpaceOnUse">
<stop offset="0.491189" stop-color="#DD467C"/>
<stop offset="1" stop-color="#DD467C" stop-opacity="0"/>
</linearGradient>
<linearGradient id="paint9_linear_1799_5949" x1="31.0453" y1="108.054" x2="22.1542" y2="115.031" gradientUnits="userSpaceOnUse">
<stop stop-color="#F83267"/>
<stop offset="1" stop-color="#FF3190"/>
</linearGradient>
<radialGradient id="paint10_radial_1799_5949" cx="0" cy="0" r="1" gradientUnits="userSpaceOnUse" gradientTransform="translate(26.3089 108.813) rotate(86.4819) scale(10.9233 9.41771)">
<stop offset="0.756562" stop-color="#E76CBE" stop-opacity="0"/>
<stop offset="0.951296" stop-color="#E76CBE"/>
</radialGradient>
<radialGradient id="paint11_radial_1799_5949" cx="0" cy="0" r="1" gradientUnits="userSpaceOnUse" gradientTransform="translate(24.6999 114.578) rotate(-57.346) scale(7.53646 3.31041)">
<stop stop-color="#FF5898"/>
<stop offset="1" stop-color="#FF5898" stop-opacity="0"/>
</radialGradient>
<linearGradient id="paint12_linear_1799_5949" x1="24.694" y1="88.7862" x2="37.8076" y2="102" gradientUnits="userSpaceOnUse">
<stop stop-color="#CCBBC0"/>
<stop offset="1" stop-color="#EAD2EC"/>
</linearGradient>
<radialGradient id="paint13_radial_1799_5949" cx="0" cy="0" r="1" gradientUnits="userSpaceOnUse" gradientTransform="translate(40.3031 107.99) rotate(-142.463) scale(24.8246 46.6571)">
<stop offset="0.811143" stop-color="#E7E5E5" stop-opacity="0"/>
<stop offset="1" stop-color="#E7E5E5"/>
</radialGradient>
<radialGradient id="paint14_radial_1799_5949" cx="0" cy="0" r="1" gradientUnits="userSpaceOnUse" gradientTransform="translate(18.2854 107.592) rotate(-56.9142) scale(14.5908 6.85915)">
<stop offset="0.281006" stop-color="#B5A3A5"/>
<stop offset="1" stop-color="#B5A3A5" stop-opacity="0"/>
</radialGradient>
<radialGradient id="paint15_radial_1799_5949" cx="0" cy="0" r="1" gradientUnits="userSpaceOnUse" gradientTransform="translate(14.0615 105.778) rotate(-73.6161) scale(12.9333 2.19257)">
<stop offset="0.207885" stop-color="#B28F96"/>
<stop offset="1" stop-color="#B28F96" stop-opacity="0"/>
</radialGradient>
<radialGradient id="paint16_radial_1799_5949" cx="0" cy="0" r="1" gradientUnits="userSpaceOnUse" gradientTransform="translate(44.98 86.4616) rotate(137.3) scale(19.6109 6.08866)">
<stop stop-color="#FAECF1"/>
<stop offset="1" stop-color="#FAECF1" stop-opacity="0"/>
</radialGradient>
<linearGradient id="paint17_linear_1799_5949" x1="31.0615" y1="91.2735" x2="41.0615" y2="92.1231" gradientUnits="userSpaceOnUse">
<stop stop-color="#A796A0"/>
<stop offset="1" stop-color="#A5959F"/>
</linearGradient>
<linearGradient id="paint18_linear_1799_5949" x1="39.5737" y1="88.3091" x2="32.875" y2="96.4957" gradientUnits="userSpaceOnUse">
<stop stop-color="#B7AFB2"/>
<stop offset="1" stop-color="#9D8FA6"/>
</linearGradient>
<radialGradient id="paint19_radial_1799_5949" cx="0" cy="0" r="1" gradientUnits="userSpaceOnUse" gradientTransform="translate(36.0611 92.1231) rotate(90) scale(5.00037)">
<stop offset="0.586538" stop-color="#93859B"/>
<stop offset="1" stop-color="#93859B" stop-opacity="0"/>
</radialGradient>
<radialGradient id="paint20_radial_1799_5949" cx="0" cy="0" r="1" gradientUnits="userSpaceOnUse" gradientTransform="translate(36.0611 92.1231) rotate(90) scale(5.00037)">
<stop offset="0.874455" stop-color="#93859B"/>
<stop offset="1" stop-color="#93859B" stop-opacity="0"/>
</radialGradient>
<radialGradient id="paint21_radial_1799_5949" cx="0" cy="0" r="1" gradientUnits="userSpaceOnUse" gradientTransform="translate(36.0611 95.1235) rotate(-90) scale(6.25018 5.74798)">
<stop stop-color="#72CDFF"/>
<stop offset="0.738019" stop-color="#66ACFF"/>
<stop offset="1" stop-color="#3B57F4"/>
</radialGradient>
<radialGradient id="paint22_radial_1799_5949" cx="0" cy="0" r="1" gradientUnits="userSpaceOnUse" gradientTransform="translate(16.9267 111.451) rotate(135.542) scale(8.35475 6.56587)">
<stop stop-color="#D46213"/>
<stop offset="1" stop-color="#FF9542"/>
</radialGradient>
<radialGradient id="paint23_radial_1799_5949" cx="0" cy="0" r="1" gradientUnits="userSpaceOnUse" gradientTransform="translate(17.0898 118.184) rotate(-131.724) scale(10.3103 10.8908)">
<stop offset="0.870944" stop-color="#FFC484" stop-opacity="0"/>
<stop offset="1" stop-color="#FFC484"/>
</radialGradient>
<linearGradient id="paint24_linear_1799_5949" x1="13.3324" y1="108.281" x2="21.748" y2="116.553" gradientUnits="userSpaceOnUse">
<stop stop-color="#452860"/>
<stop offset="1" stop-color="#51509F"/>
</linearGradient>
<radialGradient id="paint25_radial_1799_5949" cx="0" cy="0" r="1" gradientUnits="userSpaceOnUse" gradientTransform="translate(14.91 107.515) rotate(77.8282) scale(2.49472 2.20419)">
<stop stop-color="#8E839A"/>
<stop offset="1" stop-color="#8E839A" stop-opacity="0"/>
</radialGradient>
<radialGradient id="paint26_radial_1799_5949" cx="0" cy="0" r="1" gradientUnits="userSpaceOnUse" gradientTransform="translate(15.4877 108.992) rotate(47.9351) scale(9.50569 4.98271)">
<stop offset="0.860492" stop-color="#6175B9" stop-opacity="0"/>
<stop offset="1" stop-color="#6175B9"/>
</radialGradient>
<linearGradient id="paint27_linear_1799_5949" x1="47.8796" y1="80.2177" x2="42.4047" y2="85.6594" gradientUnits="userSpaceOnUse">
<stop stop-color="#FF3745"/>
<stop offset="1" stop-color="#ED224B"/>
</linearGradient>
<radialGradient id="paint28_radial_1799_5949" cx="0" cy="0" r="1" gradientUnits="userSpaceOnUse" gradientTransform="translate(47.2302 82.409) rotate(134.83) scale(12.2448 2.93942)">
<stop offset="0.189394" stop-color="#FF5971"/>
<stop offset="1" stop-color="#FF5971" stop-opacity="0"/>
</radialGradient>
<linearGradient id="paint29_linear_1799_5949" x1="42.9124" y1="86.0567" x2="43.4601" y2="85.4898" gradientUnits="userSpaceOnUse">
<stop stop-color="#D2575E"/>
<stop offset="1" stop-color="#F93251" stop-opacity="0"/>
</linearGradient>
<linearGradient id="paint30_linear_1799_5949" x1="27.3837" y1="100.801" x2="17.4464" y2="110.739" gradientUnits="userSpaceOnUse">
<stop stop-color="#FF2644"/>
<stop offset="1" stop-color="#FF2982"/>
</linearGradient>
<radialGradient id="paint31_radial_1799_5949" cx="0" cy="0" r="1" gradientUnits="userSpaceOnUse" gradientTransform="translate(13.7106 104.412) rotate(-20.8651) scale(11.426 2.99123)">
<stop stop-color="#FF95AF"/>
<stop offset="1" stop-color="#FF95AF" stop-opacity="0"/>
</radialGradient>
<radialGradient id="paint32_radial_1799_5949" cx="0" cy="0" r="1" gradientUnits="userSpaceOnUse" gradientTransform="translate(12.4261 105.77) rotate(44.7044) scale(7.06325 2.08643)">
<stop offset="0.381871" stop-color="#E14678"/>
<stop offset="1" stop-color="#E14678" stop-opacity="0"/>
</radialGradient>
<radialGradient id="paint33_radial_1799_5949" cx="0" cy="0" r="1" gradientUnits="userSpaceOnUse" gradientTransform="translate(21.8972 103.982) rotate(84.6743) scale(11.3481 12.0931)">
<stop offset="0.831791" stop-color="#E67BC7" stop-opacity="0"/>
<stop offset="1" stop-color="#E67BC7"/>
</radialGradient>
<radialGradient id="paint34_radial_1799_5949" cx="0" cy="0" r="1" gradientUnits="userSpaceOnUse" gradientTransform="translate(20.2436 108.363) rotate(45) scale(4.3334 14.7606)">
<stop stop-color="#FF739D"/>
<stop offset="0.796875" stop-color="#FF739D" stop-opacity="0"/>
</radialGradient>
</defs>
</svg>
