<svg width="24" height="24" viewBox="0 0 24 24" fill="none" xmlns="http://www.w3.org/2000/svg">
<path d="M2.15705 9.62574C0.782506 14.8206 3.96248 20.1801 9.23507 21.6108C14.5076 23.0414 19.9078 20.0101 21.2824 14.8152C22.6569 9.62042 19.4769 4.26089 14.2044 2.83022C8.9318 1.39956 3.53162 4.43092 2.15705 9.62574Z" fill="#A56402"/>
<path d="M2.75739 9.0182C1.38285 14.213 4.56282 19.5725 9.83541 21.0032C15.108 22.4339 20.5082 19.4025 21.8827 14.2077C23.2573 9.01288 20.0773 3.65334 14.8047 2.22268C9.53214 0.792013 4.13196 3.82338 2.75739 9.0182Z" fill="#FFB423"/>
<path d="M4.4961 9.49001C3.3783 13.7144 5.99106 18.073 10.3013 19.2426C14.6116 20.4121 19.0263 17.9604 20.1441 13.7359C21.2619 9.51149 18.6491 5.15293 14.3389 3.98337C10.0286 2.81383 5.6139 5.26555 4.4961 9.49001Z" fill="#FFCF23" stroke="#DF8D12" stroke-width="2"/>
<path fill-rule="evenodd" clip-rule="evenodd" d="M16.8186 16.134C17.4073 15.4415 17.8523 14.6038 18.0948 13.655C18.9541 10.2932 16.947 6.80852 13.6119 5.8717C11.4597 5.26719 9.28049 5.87135 7.77441 7.27931C9.27165 5.51812 11.699 4.69516 14.0928 5.36756C17.4279 6.30438 19.435 9.78907 18.5757 13.1509C18.2709 14.3433 17.6464 15.3601 16.8186 16.134Z" fill="#FFDD65"/>
<path fill-rule="evenodd" clip-rule="evenodd" d="M7.72929 7.13403C7.14052 7.8266 6.69559 8.66422 6.45306 9.61307C5.59378 12.9749 7.60084 16.4595 10.936 17.3964C13.0881 18.0009 15.2674 17.3967 16.7734 15.9888C15.2762 17.7499 12.8489 18.5729 10.4551 17.9005C7.11994 16.9637 5.11287 13.479 5.97216 10.1172C6.27693 8.92479 6.90141 7.90796 7.72929 7.13403Z" fill="#F2BD00"/>
<path d="M21.063 8.01161C20.0871 5.41041 17.7602 3.39444 14.8643 2.58993" stroke="#FFD179" stroke-width="0.5" stroke-linecap="round" stroke-linejoin="round"/>
<path d="M4.68099 17.2353C5.46014 18.2529 6.44511 19.0959 7.56728 19.704" stroke="#FFD179" stroke-width="0.5" stroke-linecap="round" stroke-linejoin="round"/>
<path d="M19.3719 5.49118C19.3719 5.49118 18.7889 4.71482 17.8728 4.15579" stroke="#FFF3D2" stroke-width="0.5" stroke-linecap="round" stroke-linejoin="round"/>
<path d="M17.4137 8.00711C17.4137 8.00711 16.6364 6.94802 15.5169 6.2726" stroke="white" stroke-width="0.5" stroke-linecap="round" stroke-linejoin="round"/>
<path d="M11.3959 7.89624C11.3959 9.83167 10.1613 10.9368 8.25005 10.9368C7.45547 10.9636 7.29884 12.4271 8.09753 12.4555C10.0088 12.4555 11.3959 13.8602 11.3959 15.7955C11.3959 16.2023 11.85 16.4051 11.9979 16.4051C12.3303 16.4051 12.9 16.4051 12.9 15.6456C12.9 13.7103 13.9869 12.4555 15.8981 12.4555C16.2305 12.4555 16.8 12.0329 16.8 11.6963C16.8 11.3597 16.2305 11.2364 15.8981 11.2364C13.9869 11.2364 12.5998 9.37852 12.5998 7.44309C12.5733 6.63845 11.424 7.08744 11.3959 7.89624ZM13.5812 11.8459C12.9214 12.2306 12.3777 12.7811 11.9979 13.4494C11.618 12.7811 11.0743 12.2306 10.4145 11.8459C11.0743 11.4613 11.618 10.9107 11.9979 10.2424C12.3777 10.9107 12.9214 11.4613 13.5812 11.8459Z" fill="#FFDD65"/>
<path d="M11.6959 7.59234C11.6959 9.52778 10.3088 10.9325 8.39753 10.9325C7.60295 10.9593 7.59884 12.1232 8.39753 12.1516C10.3088 12.1516 11.6959 13.5563 11.6959 15.4917C11.6959 15.8282 11.9655 16.1012 12.2979 16.1012C12.6303 16.1012 12.8998 15.8282 12.8998 15.4917C12.8998 13.5563 14.2869 12.1516 16.1981 12.1516C16.5305 12.1516 16.8 11.8787 16.8 11.542C16.8 11.2055 16.5305 10.9325 16.1981 10.9325C14.2869 10.9325 12.8998 9.52778 12.8998 7.59234C12.8733 6.78771 11.724 6.78354 11.6959 7.59234ZM13.8812 11.542C13.2214 11.9267 12.6777 12.4773 12.2979 13.1455C11.918 12.4771 11.3743 11.9267 10.7145 11.542C11.3743 11.1574 11.918 10.6068 12.2979 9.93854C12.6777 10.6068 13.2214 11.1574 13.8812 11.542Z" fill="#DF8D12"/>
<path d="M11.0996 14.2785C11.0996 14.2785 10.7996 13.2152 9.59961 12.7595" stroke="white" stroke-width="0.5" stroke-linecap="round" stroke-linejoin="round"/>
</svg>
