<svg width="77" height="134" viewBox="0 0 77 134" fill="none" xmlns="http://www.w3.org/2000/svg">
<rect width="72" height="134" transform="translate(1)" fill="white"/>
<g filter="url(#filter0_d_1799_6114)">
<mask id="mask0_1799_6114" style="mask-type:luminance" maskUnits="userSpaceOnUse" x="8" y="75" width="57" height="41">
<path d="M61.1575 86.257L19.7645 75.2262C17.6291 74.6571 15.4341 75.9175 14.8619 78.0413L9.03604 99.6653C8.46385 101.789 9.73111 103.972 11.8665 104.541L53.2596 115.572C55.395 116.141 57.59 114.881 58.1621 112.757L63.9881 91.1328C64.5602 89.009 63.293 86.826 61.1575 86.257Z" fill="white"/>
</mask>
<g mask="url(#mask0_1799_6114)">
<path d="M61.1575 86.257L19.7645 75.2262C17.6291 74.6571 15.4341 75.9175 14.8619 78.0413L9.03604 99.6653C8.46385 101.789 9.73111 103.972 11.8665 104.541L53.2596 115.572C55.395 116.141 57.59 114.881 58.1621 112.757L63.9881 91.1328C64.5602 89.009 63.293 86.826 61.1575 86.257Z" fill="#013E7F"/>
<mask id="mask1_1799_6114" style="mask-type:luminance" maskUnits="userSpaceOnUse" x="15" y="84" width="43" height="23">
<path d="M57.0285 94.4992L19.1967 84.4175L15.9955 96.2993L53.8274 106.381L57.0285 94.4992Z" fill="white"/>
</mask>
<g mask="url(#mask1_1799_6114)">
<path d="M57.0283 94.4993L19.1967 84.4175L15.9955 96.2991L53.8274 106.381L57.0283 94.4993Z" fill="#013E7F"/>
<path d="M22.3251 88.647L25.0482 89.3725L25.3052 92.037L26.9017 89.8663L29.6248 90.5922L28.2023 95.8721L26.6462 95.4575L27.6462 91.7456L25.3591 95.1144L23.6772 94.6661L23.4071 90.6161L22.4072 94.3277L20.9026 93.9267L22.3251 88.647Z" fill="#FFF100"/>
<path fill-rule="evenodd" clip-rule="evenodd" d="M46.4399 96.1787C46.5953 95.6018 47.1626 95.2658 47.7272 95.4162L51.1831 96.3374C51.7477 96.4878 52.0701 97.0609 51.9147 97.6377L51.0479 100.855C50.8925 101.431 50.2565 101.749 49.6923 101.599L46.3903 100.719C45.8257 100.569 45.413 99.9902 45.5684 99.4133L46.4399 96.1787ZM49.9811 97.5349L48.2017 97.0609C48.065 97.0242 47.934 97.1019 47.8963 97.2417L47.3736 99.1822C47.3358 99.3223 47.4101 99.4544 47.5471 99.491L49.3265 99.9651C49.4632 100.002 49.5942 99.924 49.6319 99.7842L50.1546 97.8434C50.1924 97.7036 50.1181 97.5712 49.9811 97.5349Z" fill="#FFF100"/>
<path d="M30.2886 90.769L34.9339 92.007L34.6324 93.1259L31.7226 92.3504L31.4729 93.2772L34.3827 94.0527L34.086 95.1542L31.1762 94.3787L30.9124 95.3578L33.8222 96.133L33.5113 97.287L28.8661 96.049L30.2886 90.769Z" fill="#FFF100"/>
<path d="M35.4319 92.1394L40.077 93.3774L39.7757 94.4963L38.2953 94.1017L37.1744 98.2628L35.4387 97.8003L36.5599 93.6392L35.1303 93.2583L35.4319 92.1394Z" fill="#FFF100"/>
<path fill-rule="evenodd" clip-rule="evenodd" d="M39.1632 98.7746L40.5762 93.5295L44.9937 94.7066C45.2837 94.7841 45.5529 95.0051 45.6825 95.3385C45.7921 95.6107 45.7276 95.9857 45.6994 96.09L45.363 97.2707C45.2926 97.5319 45.0641 97.7698 44.7565 97.8934C44.471 98.0039 44.0523 97.9297 43.9498 97.9025C44.03 98.1478 44.6332 100.251 44.6332 100.251L42.7742 99.7555L42.283 97.4397L41.4644 97.2213L40.92 99.2428L39.1632 98.7746ZM44.0053 95.6574L42.0269 95.1301L41.7687 96.0886L43.696 96.6022C43.7641 96.6202 43.8713 96.63 43.9147 96.6043C43.9798 96.5655 44.0502 96.3043 44.0784 96.1997C44.085 96.1754 44.0918 96.1515 44.0986 96.1276C44.145 95.9624 44.1884 95.8087 44.1153 95.7239C44.1028 95.702 44.0395 95.6662 44.0053 95.6574Z" fill="#FFF100"/>
</g>
</g>
</g>
<g filter="url(#filter1_d_1799_6114)">
<mask id="mask2_1799_6114" style="mask-type:luminance" maskUnits="userSpaceOnUse" x="10" y="45" width="57" height="51">
<path d="M64.7108 69.5949L28.9536 46.1887C27.1069 44.9799 24.6246 45.4889 23.4091 47.3255L10.9837 66.1012C9.76825 67.9378 10.28 70.4066 12.1266 71.6154L47.8839 95.0216C49.7305 96.2304 52.2129 95.7215 53.4283 93.8849L65.8538 75.1092C67.0692 73.2726 66.5575 70.8038 64.7108 69.5949Z" fill="white"/>
</mask>
<g mask="url(#mask2_1799_6114)">
<path d="M64.7108 69.5949L28.9536 46.1887C27.1069 44.9799 24.6246 45.4889 23.4091 47.3255L10.9837 66.1012C9.76824 67.9378 10.28 70.4066 12.1266 71.6154L47.8839 95.0216C49.7305 96.2304 52.2129 95.7215 53.4283 93.8849L65.8538 75.1092C67.0692 73.2726 66.5575 70.8038 64.7108 69.5949Z" fill="white"/>
<g clip-path="url(#clip0_1799_6114)">
<path d="M52.4198 77.1704C52.5135 77.0663 52.5988 76.9547 52.6735 76.8364L52.6828 76.8229C52.9884 76.3386 53.122 75.7916 53.0537 75.3206C52.9226 74.443 52.142 73.856 51.5702 73.4904C50.7729 72.9825 42.0902 67.7343 41.1035 67.1401L41.0397 67.0999C41.0555 67.0673 41.0711 67.0351 41.0711 67.0351C41.2649 66.6231 41.3312 66.1633 41.2614 65.7155C41.1781 65.1926 40.8716 64.4437 39.8791 63.8504C38.6967 63.1416 37.3738 63.4273 36.6919 63.66C36.6919 63.66 36.6623 63.6699 36.6382 63.678C36.6252 63.663 36.6132 63.6475 36.6021 63.6314C35.9857 62.8379 35.1159 62.2136 34.0888 61.8242C33.098 61.4525 31.554 61.1139 30.1744 61.2744C27.7534 61.559 25.9238 62.5875 25.0205 64.1728C24.4972 65.0901 24.4203 66.1188 24.7955 67.1456C25.339 68.6433 27.0652 69.6277 28.0671 70.0904L27.8828 72.4825C27.8718 72.6246 28.0345 72.7105 28.1462 72.622L30.2217 70.9813C33.9427 72.4947 42.2521 75.8623 45.7063 77.2472L44.4559 79.4597C44.3987 79.5611 44.5041 79.6747 44.6087 79.6252L47.8736 78.0773C49.4772 78.5897 51.0868 78.6799 52.4209 77.1705L52.4198 77.1704Z" fill="#F07C24"/>
<path d="M38.0574 66.7098C38.5571 66.9968 39.1724 67.0793 39.5302 66.5947C39.7719 66.2719 39.731 65.757 39.216 65.3895C38.9617 65.1952 38.6469 65.0965 38.3261 65.1101C38.106 65.1284 37.8989 65.2245 37.7414 65.3813C37.5491 65.5661 37.4614 65.7648 37.4766 65.9715C37.5009 66.2455 37.7098 66.5094 38.0574 66.7098Z" fill="#FFFCF5"/>
<path d="M51.4869 76.3414C51.3186 76.4514 51.0723 76.5218 50.9316 76.4612L50.8664 76.4387C50.8664 76.4387 51.1337 76.1274 51.201 76.0288C51.5087 75.5641 51.708 75.0031 50.9505 74.5816C50.4835 74.3244 49.5816 74.3014 48.9473 75.0819L48.945 75.0851L48.9399 75.0865C48.9364 75.0925 48.9316 75.0977 48.9262 75.1012C48.6302 75.3239 48.1638 75.6082 48.0057 75.5321C47.9742 75.517 47.9506 75.4887 47.942 75.4544C47.9336 75.404 47.9461 75.3528 47.9759 75.3111C48.078 75.1826 48.1925 75.0639 48.317 74.9569C48.5266 74.7653 48.7207 74.5577 48.8981 74.3355C49.3154 73.794 49.0351 73.4574 48.6517 73.2535C48.4202 73.1371 48.1571 73.0981 47.9 73.1417L47.6752 73.2069C47.6752 73.2069 47.9144 72.9625 47.98 72.8959C47.8734 72.8335 47.2105 72.4482 47.1435 72.4057L46.117 73.3905C45.9308 73.4612 45.7233 73.4857 45.5867 73.4418L45.5215 73.4193L45.5528 73.3546C45.5868 73.2922 45.6156 73.2268 45.6386 73.1593C45.7049 73.0177 45.8733 72.4983 45.4133 72.2597C44.2285 71.6441 43.38 73.0611 44.1769 73.2862L44.269 73.3115L44.2022 73.3869C43.7606 73.8845 43.3406 74.0293 42.9871 73.867C42.9352 73.8434 42.8968 73.7965 42.884 73.7405C42.8678 73.6249 42.8992 73.507 42.9723 73.4148C43.1514 73.1466 45.1248 71.2207 45.1248 71.2207C45.1248 71.2207 44.1272 70.6432 44.0546 70.6017C43.8722 70.7782 43.0882 71.5445 43.0882 71.5445L42.9799 71.641C42.8696 71.7372 42.7648 71.839 42.6652 71.9456L42.6604 71.9526L42.6553 71.9539C42.6475 71.9583 42.6434 71.9651 42.6376 71.9665C42.2031 72.2897 41.6243 72.5739 41.3875 72.4576C41.3422 72.4391 41.3094 72.399 41.3001 72.3509C41.2899 72.2962 41.3021 72.2394 41.3336 72.1935L41.3359 72.1902L41.4728 72.018C41.4728 72.018 43.309 70.3395 43.4348 70.2304C43.3082 70.1554 42.2308 69.5036 42.2308 69.5036L41.8929 69.8081C42.0573 69.4882 41.6777 68.6842 40.9284 68.8138C40.1378 68.9499 39.5681 69.546 39.066 70.1699L39.0423 70.1923C38.4226 70.9351 37.8835 71.3711 37.2778 71.0879C37.1531 71.0414 37.0475 70.9549 36.9775 70.8421C37.2107 70.8316 37.4399 70.7749 37.652 70.675C38.0792 70.4598 38.1764 70.0979 38.0495 69.8155C37.7935 69.2542 37.0959 69.3028 36.7309 69.6942C36.5516 69.8897 36.4537 70.1461 36.4567 70.4102C36.25 70.4021 36.0697 70.42 35.8443 70.3157C35.7299 70.263 35.6479 70.1589 35.6227 70.0347C35.6047 69.7879 36.1151 69.3527 36.1829 69.2967C36.1829 69.2967 38.4077 67.4869 38.5404 67.3729C38.4016 67.2949 36.9514 66.4454 36.8786 66.4044C36.7403 66.5194 36.2036 66.9667 35.6914 67.368C34.6885 68.1517 32.758 68.8722 31.4913 68.4678C30.8178 68.2545 30.3813 67.9416 30.2088 67.5832C29.9721 67.0955 30.1105 66.3779 30.7722 65.6663C31.0767 65.3183 31.4322 65.0188 31.8261 64.7782C33.9611 63.4151 35.1491 64.7763 34.9648 64.8669C34.8469 64.8402 34.7263 64.8243 34.6051 64.8188C34.2914 64.7951 33.6836 64.9242 33.3832 65.3697C33.1881 65.6559 33.1197 65.9422 33.1797 66.1966C33.2387 66.4455 33.4223 66.66 33.6957 66.7997C34.3075 67.1106 35.0518 66.9734 35.4803 66.3399C35.7117 65.9967 35.7947 65.6491 35.7273 65.3099C35.6164 64.7644 35.3429 64.3571 34.4811 63.8464C33.1442 63.0549 30.5627 62.7383 28.6798 64.4535C28.0462 65.0322 27.7623 66.0387 27.9397 66.6873C28.1829 67.5889 28.7817 68.2394 30.1988 68.7998C31.4613 69.2998 32.8719 69.1124 34.064 68.7355C34.0566 68.7479 34.0474 68.7596 34.0371 68.7701C33.5019 69.2607 33.3201 70.0306 34.3919 70.5281C34.8392 70.7349 35.7135 70.957 36.4716 70.8806C36.5758 71.2289 36.9022 71.6044 37.4014 71.8252C37.6067 71.9169 38.1678 72.092 38.9756 71.7503C39.61 71.4825 40.3693 70.6533 40.7819 70.2082C40.9746 70.0001 41.0992 69.8624 41.1762 69.8218C41.2491 69.7644 41.3405 69.7367 41.4325 69.7438C41.6573 69.7819 41.6398 70.0108 41.523 70.1207C41.4088 70.2276 40.8176 70.7533 40.8157 70.7569L40.7184 70.8367C40.4136 71.0817 40.0634 71.3596 39.8153 71.73C39.6343 72.0017 39.5664 72.2648 39.6258 72.4904C39.6815 72.6996 39.8411 72.871 40.0871 72.9792C40.7672 73.2804 41.6105 72.928 42.0505 72.6932L42.1146 72.6582L42.2019 72.6095L42.1383 72.762C41.8894 73.3716 42.1823 73.8672 42.8955 74.1808C43.817 74.5882 44.6008 74.4709 45.2358 73.8086L45.2639 73.779L45.3007 73.788C45.4018 73.8087 45.5055 73.8172 45.609 73.8135L45.7005 73.81L44.6295 74.8421C44.7611 74.9019 45.6352 75.2652 45.7036 75.2989C45.7669 75.2355 47.0487 73.9734 47.0487 73.9734C47.2707 73.7559 47.7433 73.3721 47.9401 73.4772C47.9785 73.4994 48.0063 73.5372 48.0156 73.5811C48.0259 73.6636 48.0032 73.7477 47.9526 73.8143C47.8186 73.9927 47.6629 74.1537 47.4901 74.2939C47.2288 74.5243 46.9886 74.7769 46.7724 75.0503C46.4001 75.5352 46.8356 75.8052 46.9759 75.8654C47.3092 76.0144 47.8176 76.1098 48.6441 75.5678L48.61 75.6591C48.4301 76.112 48.6393 76.6231 49.0826 76.8139C49.6164 77.047 50.1168 76.9914 50.5784 76.6706L50.6107 76.6487L50.643 76.6643C50.8471 76.7649 51.2495 76.7083 51.4806 76.4916C51.4651 76.4635 51.4937 76.4107 51.4865 76.3405L51.4869 76.3414ZM37.5583 69.8255C37.7288 69.9428 37.7312 70.0948 37.4978 70.2482C37.3849 70.3228 37.147 70.3941 36.8842 70.4162C36.885 69.9319 37.3464 69.6773 37.5583 69.8255ZM44.6125 72.9825C44.5492 73.0084 44.4626 72.996 44.3392 72.9467C44.2122 72.895 44.2226 72.8122 44.2362 72.7828C44.2765 72.6669 44.4918 72.5722 44.613 72.5879C44.6714 72.5925 44.7223 72.628 44.7465 72.6816C44.7665 72.821 44.6125 72.9825 44.6125 72.9825ZM50.0051 76.315C49.8009 76.4824 49.562 76.6514 49.3589 76.5565C49.2965 76.5317 49.2481 76.4802 49.2267 76.4166C49.1993 76.3192 49.2061 76.2485 49.3306 76.0587C49.6256 75.6143 50.5729 74.6359 50.9004 74.8238C50.9461 74.8504 50.9774 74.8961 50.9862 74.9486C51.0064 75.0652 50.9442 75.2235 50.821 75.3809L50.805 75.3989C50.805 75.3989 50.4642 75.2025 50.1121 75.6771C49.99 75.8492 49.9706 76.0732 50.0621 76.2617L50.0049 76.3154L50.0051 76.315ZM50.304 76.0422C50.2391 75.907 50.3677 75.7104 50.4729 75.6783C50.516 75.6609 50.5654 75.6743 50.5927 75.7118C50.5087 75.8322 50.4116 75.943 50.304 76.0422Z" fill="#FFFCF5"/>
</g>
</g>
</g>
<g filter="url(#filter2_d_1799_6114)">
<mask id="mask3_1799_6114" style="mask-type:luminance" maskUnits="userSpaceOnUse" x="8" y="29" width="57" height="42">
<path d="M61.049 41.0612L19.656 30.0304C17.5206 29.4613 15.3256 30.7217 14.7534 32.8455L8.9275 54.4695C8.35531 56.5933 9.62257 58.7763 11.758 59.3454L53.151 70.3761C55.2865 70.9452 57.4814 69.6849 58.0536 67.5611L63.8795 45.937C64.4517 43.8132 63.1844 41.6302 61.049 41.0612Z" fill="white"/>
</mask>
<g mask="url(#mask3_1799_6114)">
<path d="M61.049 41.0612L19.656 30.0304C17.5206 29.4613 15.3256 30.7217 14.7534 32.8455L8.9275 54.4695C8.35531 56.5933 9.62257 58.7763 11.758 59.3454L53.151 70.3761C55.2865 70.9452 57.4814 69.6849 58.0536 67.5611L63.8795 45.937C64.4517 43.8132 63.1844 41.6302 61.049 41.0612Z" fill="#FF008F"/>
<path d="M30.6511 46.7355C30.7245 46.667 30.7972 46.5904 30.8697 46.5012C31.0962 46.2222 31.2724 45.7266 31.3551 45.4733C31.3573 45.4671 31.3635 45.4639 31.3699 45.4656L32.2587 45.7024C32.2653 45.7041 32.2692 45.7109 32.2675 45.7174L31.9027 47.0757C31.901 47.0825 31.8942 47.0863 31.8876 47.0846L30.6565 46.7565C30.647 46.7539 30.6442 46.7423 30.6511 46.7355ZM29.3514 46.5065L28.9757 47.9008C28.9478 48.0049 29.0097 48.1112 29.114 48.139L29.6529 48.2826C29.7573 48.3107 29.8645 48.249 29.8925 48.1452L30.0693 47.4889C30.0711 47.4821 30.078 47.4782 30.0845 47.48L32.152 48.0309C32.1583 48.0326 32.1625 48.0394 32.1607 48.0462L31.9838 48.7026C31.9559 48.8063 32.0178 48.913 32.1221 48.9408L32.661 49.0844C32.7654 49.1122 32.8726 49.0507 32.9006 48.947L33.2755 47.5551C33.2895 47.5033 33.2585 47.4498 33.2063 47.436L32.8285 47.3352C32.8219 47.3334 32.818 47.3269 32.8198 47.3201L33.3639 45.3004C33.3893 45.2065 33.333 45.1095 33.2381 45.0841L30.9366 44.4709C30.8306 44.4425 30.7225 44.506 30.6964 44.6121C30.657 44.7705 30.5912 45.0173 30.4937 45.3182C30.3689 45.7041 30.1243 46.1397 29.7572 46.5103C29.7543 46.5133 29.7494 46.5148 29.7451 46.5136L29.468 46.4397C29.4171 46.4261 29.3651 46.456 29.3514 46.5065Z" fill="white"/>
<path d="M40.7877 50.1362L41.5065 47.4681C41.5326 47.3709 41.4747 47.2707 41.3769 47.2447L40.8141 47.0949C40.7164 47.0686 40.6159 47.1265 40.5898 47.224L40.3506 48.1115L39.0654 47.769L39.3046 46.8815C39.3307 46.784 39.2728 46.6841 39.1747 46.6578L38.6122 46.5079C38.5145 46.4819 38.4137 46.5396 38.3876 46.6371L37.6688 49.3052C37.6423 49.4024 37.7006 49.5023 37.7986 49.5283L38.3611 49.6781C38.4589 49.7044 38.5596 49.6468 38.5858 49.5496L38.8381 48.6127L40.1233 48.9553L39.871 49.8921C39.8445 49.9893 39.9025 50.0889 40.0005 50.1152L40.5633 50.2651C40.6608 50.2911 40.7615 50.2337 40.7877 50.1362Z" fill="white"/>
<path d="M36.3069 48.0211C36.2145 48.3961 36.1307 48.7002 36.0796 48.8796C36.052 48.9775 36.1099 49.0785 36.2086 49.1048L36.7678 49.2541C36.8656 49.2801 36.966 49.2222 36.9922 49.1252L37.711 46.4572C37.7371 46.3596 37.6795 46.2597 37.5814 46.2337L36.9232 46.0582C36.8715 46.0443 36.8163 46.0541 36.7723 46.0839L34.8565 47.3896C34.9225 47.2238 34.9929 47.0184 35.0595 46.7713L35.3159 45.8188C35.3424 45.7216 35.2841 45.6214 35.1867 45.5954L34.6239 45.4456C34.5258 45.4192 34.4257 45.4772 34.3992 45.5747L33.6805 48.2425C33.6544 48.3397 33.7121 48.4396 33.81 48.4656L34.4685 48.6411C34.5202 48.655 34.5754 48.6456 34.6194 48.6157L36.5194 47.3257C36.4689 47.4469 36.397 47.6579 36.3069 48.0211Z" fill="white"/>
<path d="M48.2397 51.9985L47.5598 50.4842L48.8679 49.5423C48.9903 49.4507 48.9525 49.2592 48.8043 49.2202L48.169 49.0541C48.1146 49.0399 48.0569 49.0514 48.0121 49.0848L46.9548 49.8754L46.5165 49.7586L46.7569 48.867C46.783 48.7698 46.7248 48.6699 46.6273 48.6439L46.0645 48.4938C45.9668 48.4678 45.8663 48.5257 45.8402 48.6226L45.1211 51.2913C45.0949 51.3882 45.1532 51.4884 45.2506 51.5144L45.8137 51.6642C45.9112 51.6902 46.0119 51.6326 46.0378 51.5354L46.2927 50.5894L46.7322 50.7067L47.2707 51.9731C47.2927 52.0248 47.3378 52.0635 47.3919 52.0777L48.0236 52.2461C48.1713 52.2854 48.2994 52.1386 48.2397 51.9985Z" fill="white"/>
<path d="M48.9823 56.5636L50.2921 55.6241C50.4145 55.5328 50.3768 55.341 50.2291 55.3017L49.5935 55.1344C49.5394 55.1205 49.4818 55.1318 49.4369 55.1649L48.3591 55.9684L47.9351 55.8555L48.1817 54.9453C48.2085 54.8481 48.1505 54.7479 48.0528 54.7216L47.4903 54.5708C47.3925 54.5445 47.2921 54.6019 47.2656 54.6994L46.5421 57.366C46.5153 57.4632 46.5736 57.5634 46.671 57.5897L47.2338 57.7407C47.3313 57.767 47.432 57.7094 47.4585 57.6122L47.7099 56.6857L48.1633 56.8065L48.6905 58.0522C48.7125 58.1036 48.757 58.1423 48.8117 58.1568L49.4429 58.3265C49.5905 58.3658 49.7192 58.2192 49.6595 58.0791L48.9823 56.5636Z" fill="white"/>
<path d="M22.7757 47.9851L22.3034 47.8592C22.1852 47.8275 22.0635 47.8976 22.0318 48.0149L21.3354 50.5999C21.3037 50.7175 21.374 50.8384 21.4922 50.8697L21.9646 50.9956C22.0827 51.0273 22.2044 50.9575 22.2361 50.8399L22.9325 48.2552C22.9642 48.1375 22.8939 48.0164 22.7757 47.9851Z" fill="white"/>
<path d="M25.6666 48.7557L23.8675 48.276C23.7493 48.2447 23.6279 48.3145 23.5962 48.4321L23.4696 48.902L22.8998 51.0168C22.8681 51.1347 22.9381 51.2553 23.0563 51.2869L23.5287 51.4128C23.6468 51.4442 23.7685 51.3747 23.8002 51.2568L24.3127 49.3544L25.4253 49.6512C25.5435 49.6825 25.6651 49.613 25.6968 49.4954L25.8234 49.0255C25.855 48.9082 25.7848 48.787 25.6666 48.7557Z" fill="white"/>
<path d="M23.1582 46.5297L22.7047 46.4089C22.5812 46.3758 22.4543 46.4488 22.4213 46.5714L22.2997 47.0227C22.2666 47.1453 22.34 47.2715 22.4634 47.3046L22.9169 47.4252C23.0404 47.4583 23.1673 47.3853 23.2003 47.2626L23.3219 46.8117C23.3549 46.6887 23.2817 46.5625 23.1582 46.5297Z" fill="white"/>
<path d="M38.6206 52.2059L38.1481 52.08C38.0301 52.0484 37.9083 52.1184 37.8765 52.2358L37.358 54.1606L36.4062 53.907L36.9247 51.9822C36.9565 51.8646 36.8861 51.7437 36.7681 51.7121L36.2956 51.5862C36.1774 51.5549 36.0558 51.6246 36.0241 51.7422L35.5055 53.667L34.5362 53.4087L35.0547 51.4839C35.0862 51.3663 35.0164 51.2454 34.8978 51.2138L34.4257 51.0879C34.3074 51.0563 34.1859 51.1263 34.1541 51.244L33.6356 53.1688L33.4578 53.8287L33.4478 53.8656C33.4217 53.9629 33.4795 54.0627 33.5774 54.0887L33.6145 54.0985L34.0866 54.2244L35.4844 54.5971L35.9569 54.7227L37.3369 55.0906L37.809 55.2165L37.8462 55.2263C37.9439 55.2523 38.0447 55.1946 38.0708 55.0974L38.0806 55.0605L38.2586 54.4005L38.7772 52.4757C38.809 52.3584 38.7388 52.2372 38.6206 52.2059Z" fill="white"/>
<path d="M32.1664 52.1574C32.0377 52.523 31.6422 52.7606 31.2261 52.6498C30.7895 52.5333 30.5823 52.1004 30.6891 51.7041C30.7958 51.3078 31.1929 51.0359 31.6296 51.152C32.0456 51.2628 32.2688 51.6657 32.1965 52.046L32.1664 52.1574ZM33.2732 50.7811L32.8007 50.6552C32.6825 50.6236 32.5608 50.6936 32.5292 50.8113L32.4807 50.9909C32.4819 50.993 32.3306 50.4359 31.5887 50.2696C30.7308 50.0772 30.0145 50.6041 29.7832 51.4626C29.5519 52.3211 29.9025 53.1516 30.7855 53.396C31.4088 53.5683 31.8723 53.2494 31.8723 53.2494L31.8329 53.396C31.8011 53.5139 31.8715 53.6345 31.9896 53.6661L32.462 53.792C32.5802 53.8233 32.7018 53.7539 32.7336 53.636L33.4299 51.0512C33.4615 50.9336 33.3913 50.8127 33.2732 50.7811Z" fill="white"/>
<path d="M27.4245 51.6364C27.0084 51.5253 26.7853 51.1231 26.8575 50.7424L26.8875 50.6313C27.0163 50.2654 27.4118 50.0278 27.828 50.139C28.2645 50.2551 28.4717 50.6884 28.365 51.0844C28.2582 51.481 27.8612 51.7526 27.4245 51.6364ZM28.307 49.3948C27.5809 49.1699 27.1697 49.5771 27.1719 49.576L27.2203 49.396C27.252 49.2787 27.1817 49.1575 27.0635 49.1262L26.5912 49.0003C26.473 48.9686 26.3513 49.0387 26.3196 49.156L25.2717 53.0455C25.2401 53.1631 25.3104 53.284 25.4285 53.3156L25.9009 53.4415C26.0191 53.4729 26.1408 53.4031 26.1724 53.2855L26.5634 51.8344C26.5634 51.8344 26.8045 52.341 27.4311 52.5017C28.3185 52.7293 29.0394 52.1843 29.2707 51.3258C29.502 50.4673 29.1468 49.6546 28.307 49.3948Z" fill="white"/>
<path d="M43.485 48.6233C43.9117 48.7368 44.1292 49.1724 44.0225 49.569C43.9158 49.965 43.5081 50.2342 43.0817 50.1204C42.6553 50.007 42.4375 49.5713 42.5442 49.175C42.6511 48.7787 43.0585 48.5095 43.485 48.6233ZM42.866 50.929C43.7904 51.1752 44.6955 50.6704 44.9267 49.8119C45.1582 48.9534 44.6281 48.0662 43.7037 47.8197C42.7795 47.5735 41.8744 48.0783 41.6429 48.9368C41.4117 49.7954 41.9418 50.6825 42.866 50.929Z" fill="white"/>
<path d="M45.2001 55.8231C44.506 56.1533 43.4609 56.4355 42.3373 56.137C41.2147 55.8367 40.4513 55.0728 40.0157 54.4415C39.83 54.1726 39.8537 53.8732 40.0769 53.6832C40.3001 53.4935 40.5773 53.4923 40.8269 53.7411C41.1951 54.1091 41.6453 54.8092 42.6205 55.0719C42.6217 55.0722 42.6229 55.0725 42.6238 55.0728C42.625 55.0731 42.6259 55.0737 42.6271 55.074L42.6274 55.0737C43.6041 55.3314 44.3458 54.9487 44.8501 54.8133C45.1912 54.7217 45.4307 54.8606 45.5285 55.136C45.6265 55.4118 45.4961 55.6828 45.2001 55.8231ZM44.5484 53.9639C43.7773 54.2181 43.482 54.3641 42.8594 54.1992C42.2375 54.0325 42.0553 53.7591 41.5151 53.1554C40.9627 52.538 40.0912 52.4854 39.4879 52.9987C38.8847 53.5121 38.8758 54.3753 39.3144 55.0152C39.9182 55.8961 40.9089 56.6826 42.1008 57.0023C42.102 57.0026 42.1029 57.0029 42.1041 57.0032C42.1053 57.0035 42.1062 57.0038 42.1073 57.0041C43.3004 57.3197 44.5538 57.1315 45.5195 56.669C46.2211 56.3326 46.6472 55.5808 46.3828 54.8361C46.1183 54.0913 45.3371 53.7039 44.5484 53.9639Z" fill="white"/>
<path d="M27.0066 46.671C26.6689 47.0357 26.4284 46.8921 26.1849 46.8528C26.0767 46.835 25.9742 46.9077 25.9522 47.0144L25.8252 47.4858C25.7834 47.656 25.9256 47.7875 26.0782 47.8127C26.9894 47.9643 27.5149 47.4787 27.7093 47.2913C28.111 46.9039 29.2902 45.5146 30.0168 44.5116C30.1049 44.3895 30.0572 44.2202 29.911 44.1823L29.3568 44.0381C29.2537 44.0112 29.1447 44.0505 29.0828 44.1365L27.7437 46.0714L27.5315 43.7074C27.5221 43.612 27.4542 43.5322 27.3612 43.5067L26.7702 43.3454C26.6356 43.3084 26.508 43.4231 26.5316 43.5602L27.0066 46.671Z" fill="white"/>
<path d="M24.1988 45.022C23.7733 44.9319 23.5189 44.4924 23.6198 44.0713C23.7215 43.6463 24.112 43.3768 24.5316 43.466C24.9572 43.5559 25.2115 43.9956 25.1106 44.4165C25.0086 44.8414 24.6183 45.111 24.1988 45.022ZM25.9646 44.8606C26.1622 44.3467 26.1799 43.7882 25.8146 43.0877C25.5897 42.656 25.1939 42.0983 25.1939 42.0983C25.1939 42.0983 25.278 42.1716 26.0191 42.369C26.1262 42.3997 26.3577 42.4589 26.3577 42.4589C26.5141 42.5091 26.6812 42.419 26.7238 42.2608L26.8309 41.8634C26.8654 41.7354 26.789 41.6039 26.6603 41.5693L24.1234 40.8934C23.8088 40.8095 23.5783 41.1996 23.749 41.4895C23.9197 41.7797 24.658 42.8147 24.658 42.8147C24.2756 42.5886 23.044 42.5354 22.6944 43.8582C22.4775 44.6798 22.9373 45.5749 23.8087 45.8675C24.674 46.1583 25.6383 45.7094 25.9646 44.8606Z" fill="white"/>
</g>
</g>
<g filter="url(#filter3_d_1799_6114)">
<path d="M63.932 17H53.2485C52.7258 17 52.2869 17.3532 52.1404 17.8519C51.7434 19.2025 50.468 20.1998 48.9834 20.1998C47.4992 20.1998 46.2238 19.2233 45.8265 17.8519C45.6803 17.3532 45.2411 17 44.7187 17H14.5501C11.1601 17 9.97153 18.1821 9.97153 21.5504V42.8895C9.97153 46.2577 11.1601 47.4398 14.5501 47.4398H44.7187C45.2411 47.4398 45.6803 47.0867 45.8265 46.5878C46.2238 45.2372 47.4992 44.2401 48.9834 44.2401C50.468 44.2401 51.7434 45.2165 52.1404 46.5878C52.2869 47.0867 52.7258 47.4398 53.2485 47.4398H63.932C67.3219 47.4398 68.5105 46.2577 68.5105 42.8895V21.5504C68.5105 18.1821 67.3219 17 63.932 17ZM48.9834 40.6246C47.1646 40.6246 45.6803 39.1494 45.6803 37.3417C45.6803 35.534 47.1646 34.0587 48.9834 34.0587C50.8023 34.0587 52.2869 35.534 52.2869 37.3417C52.2869 39.1494 50.8023 40.6246 48.9834 40.6246ZM48.9834 30.4018C47.1646 30.4018 45.6803 28.9266 45.6803 27.1189C45.6803 25.3112 47.1646 23.8359 48.9834 23.8359C50.8023 23.8359 52.2869 25.3112 52.2869 27.1189C52.2869 28.9266 50.8023 30.4018 48.9834 30.4018Z" fill="url(#paint0_linear_1799_6114)"/>
<path d="M63.932 17H53.2485C52.7258 17 52.2869 17.3532 52.1404 17.8519C51.7434 19.2025 50.468 20.1998 48.9834 20.1998C47.4992 20.1998 46.2238 19.2233 45.8265 17.8519C45.6803 17.3532 45.2411 17 44.7187 17H14.5501C11.1601 17 9.97153 18.1821 9.97153 21.5504V42.8895C9.97153 46.2577 11.1601 47.4398 14.5501 47.4398H44.7187C45.2411 47.4398 45.6803 47.0867 45.8265 46.5878C46.2238 45.2372 47.4992 44.2401 48.9834 44.2401C50.468 44.2401 51.7434 45.2165 52.1404 46.5878C52.2869 47.0867 52.7258 47.4398 53.2485 47.4398H63.932C67.3219 47.4398 68.5105 46.2577 68.5105 42.8895V21.5504C68.5105 18.1821 67.3219 17 63.932 17ZM48.9834 40.6246C47.1646 40.6246 45.6803 39.1494 45.6803 37.3417C45.6803 35.534 47.1646 34.0587 48.9834 34.0587C50.8023 34.0587 52.2869 35.534 52.2869 37.3417C52.2869 39.1494 50.8023 40.6246 48.9834 40.6246ZM48.9834 30.4018C47.1646 30.4018 45.6803 28.9266 45.6803 27.1189C45.6803 25.3112 47.1646 23.8359 48.9834 23.8359C50.8023 23.8359 52.2869 25.3112 52.2869 27.1189C52.2869 28.9266 50.8023 30.4018 48.9834 30.4018Z" fill="url(#paint1_linear_1799_6114)"/>
<path d="M63.932 17H53.2485C52.7258 17 52.2869 17.3532 52.1404 17.8519C51.7434 19.2025 50.468 20.1998 48.9834 20.1998C47.4992 20.1998 46.2238 19.2233 45.8265 17.8519C45.6803 17.3532 45.2411 17 44.7187 17H14.5501C11.1601 17 9.97153 18.1821 9.97153 21.5504V42.8895C9.97153 46.2577 11.1601 47.4398 14.5501 47.4398H44.7187C45.2411 47.4398 45.6803 47.0867 45.8265 46.5878C46.2238 45.2372 47.4992 44.2401 48.9834 44.2401C50.468 44.2401 51.7434 45.2165 52.1404 46.5878C52.2869 47.0867 52.7258 47.4398 53.2485 47.4398H63.932C67.3219 47.4398 68.5105 46.2577 68.5105 42.8895V21.5504C68.5105 18.1821 67.3219 17 63.932 17ZM48.9834 40.6246C47.1646 40.6246 45.6803 39.1494 45.6803 37.3417C45.6803 35.534 47.1646 34.0587 48.9834 34.0587C50.8023 34.0587 52.2869 35.534 52.2869 37.3417C52.2869 39.1494 50.8023 40.6246 48.9834 40.6246ZM48.9834 30.4018C47.1646 30.4018 45.6803 28.9266 45.6803 27.1189C45.6803 25.3112 47.1646 23.8359 48.9834 23.8359C50.8023 23.8359 52.2869 25.3112 52.2869 27.1189C52.2869 28.9266 50.8023 30.4018 48.9834 30.4018Z" fill="url(#paint2_linear_1799_6114)" fill-opacity="0.8"/>
<path d="M63.932 17H53.2485C52.7258 17 52.2869 17.3532 52.1404 17.8519C51.7434 19.2025 50.468 20.1998 48.9834 20.1998C47.4992 20.1998 46.2238 19.2233 45.8265 17.8519C45.6803 17.3532 45.2411 17 44.7187 17H14.5501C11.1601 17 9.97153 18.1821 9.97153 21.5504V42.8895C9.97153 46.2577 11.1601 47.4398 14.5501 47.4398H44.7187C45.2411 47.4398 45.6803 47.0867 45.8265 46.5878C46.2238 45.2372 47.4992 44.2401 48.9834 44.2401C50.468 44.2401 51.7434 45.2165 52.1404 46.5878C52.2869 47.0867 52.7258 47.4398 53.2485 47.4398H63.932C67.3219 47.4398 68.5105 46.2577 68.5105 42.8895V21.5504C68.5105 18.1821 67.3219 17 63.932 17ZM48.9834 40.6246C47.1646 40.6246 45.6803 39.1494 45.6803 37.3417C45.6803 35.534 47.1646 34.0587 48.9834 34.0587C50.8023 34.0587 52.2869 35.534 52.2869 37.3417C52.2869 39.1494 50.8023 40.6246 48.9834 40.6246ZM48.9834 30.4018C47.1646 30.4018 45.6803 28.9266 45.6803 27.1189C45.6803 25.3112 47.1646 23.8359 48.9834 23.8359C50.8023 23.8359 52.2869 25.3112 52.2869 27.1189C52.2869 28.9266 50.8023 30.4018 48.9834 30.4018Z" fill="url(#paint3_radial_1799_6114)" fill-opacity="0.8"/>
<path d="M63.932 17H53.2485C52.7258 17 52.2869 17.3532 52.1404 17.8519C51.7434 19.2025 50.468 20.1998 48.9834 20.1998C47.4992 20.1998 46.2238 19.2233 45.8265 17.8519C45.6803 17.3532 45.2411 17 44.7187 17H14.5501C11.1601 17 9.97153 18.1821 9.97153 21.5504V42.8895C9.97153 46.2577 11.1601 47.4398 14.5501 47.4398H44.7187C45.2411 47.4398 45.6803 47.0867 45.8265 46.5878C46.2238 45.2372 47.4992 44.2401 48.9834 44.2401C50.468 44.2401 51.7434 45.2165 52.1404 46.5878C52.2869 47.0867 52.7258 47.4398 53.2485 47.4398H63.932C67.3219 47.4398 68.5105 46.2577 68.5105 42.8895V21.5504C68.5105 18.1821 67.3219 17 63.932 17ZM48.9834 40.6246C47.1646 40.6246 45.6803 39.1494 45.6803 37.3417C45.6803 35.534 47.1646 34.0587 48.9834 34.0587C50.8023 34.0587 52.2869 35.534 52.2869 37.3417C52.2869 39.1494 50.8023 40.6246 48.9834 40.6246ZM48.9834 30.4018C47.1646 30.4018 45.6803 28.9266 45.6803 27.1189C45.6803 25.3112 47.1646 23.8359 48.9834 23.8359C50.8023 23.8359 52.2869 25.3112 52.2869 27.1189C52.2869 28.9266 50.8023 30.4018 48.9834 30.4018Z" fill="url(#paint4_linear_1799_6114)"/>
<path d="M63.932 17H53.2485C52.7258 17 52.2869 17.3532 52.1404 17.8519C51.7434 19.2025 50.468 20.1998 48.9834 20.1998C47.4992 20.1998 46.2238 19.2233 45.8265 17.8519C45.6803 17.3532 45.2411 17 44.7187 17H14.5501C11.1601 17 9.97153 18.1821 9.97153 21.5504V42.8895C9.97153 46.2577 11.1601 47.4398 14.5501 47.4398H44.7187C45.2411 47.4398 45.6803 47.0867 45.8265 46.5878C46.2238 45.2372 47.4992 44.2401 48.9834 44.2401C50.468 44.2401 51.7434 45.2165 52.1404 46.5878C52.2869 47.0867 52.7258 47.4398 53.2485 47.4398H63.932C67.3219 47.4398 68.5105 46.2577 68.5105 42.8895V21.5504C68.5105 18.1821 67.3219 17 63.932 17ZM48.9834 40.6246C47.1646 40.6246 45.6803 39.1494 45.6803 37.3417C45.6803 35.534 47.1646 34.0587 48.9834 34.0587C50.8023 34.0587 52.2869 35.534 52.2869 37.3417C52.2869 39.1494 50.8023 40.6246 48.9834 40.6246ZM48.9834 30.4018C47.1646 30.4018 45.6803 28.9266 45.6803 27.1189C45.6803 25.3112 47.1646 23.8359 48.9834 23.8359C50.8023 23.8359 52.2869 25.3112 52.2869 27.1189C52.2869 28.9266 50.8023 30.4018 48.9834 30.4018Z" fill="url(#paint5_linear_1799_6114)"/>
<path d="M63.932 17H53.2485C52.7258 17 52.2869 17.3532 52.1404 17.8519C51.7434 19.2025 50.468 20.1998 48.9834 20.1998C47.4992 20.1998 46.2238 19.2233 45.8265 17.8519C45.6803 17.3532 45.2411 17 44.7187 17H14.5501C11.1601 17 9.97153 18.1821 9.97153 21.5504V42.8895C9.97153 46.2577 11.1601 47.4398 14.5501 47.4398H44.7187C45.2411 47.4398 45.6803 47.0867 45.8265 46.5878C46.2238 45.2372 47.4992 44.2401 48.9834 44.2401C50.468 44.2401 51.7434 45.2165 52.1404 46.5878C52.2869 47.0867 52.7258 47.4398 53.2485 47.4398H63.932C67.3219 47.4398 68.5105 46.2577 68.5105 42.8895V21.5504C68.5105 18.1821 67.3219 17 63.932 17ZM48.9834 40.6246C47.1646 40.6246 45.6803 39.1494 45.6803 37.3417C45.6803 35.534 47.1646 34.0587 48.9834 34.0587C50.8023 34.0587 52.2869 35.534 52.2869 37.3417C52.2869 39.1494 50.8023 40.6246 48.9834 40.6246ZM48.9834 30.4018C47.1646 30.4018 45.6803 28.9266 45.6803 27.1189C45.6803 25.3112 47.1646 23.8359 48.9834 23.8359C50.8023 23.8359 52.2869 25.3112 52.2869 27.1189C52.2869 28.9266 50.8023 30.4018 48.9834 30.4018Z" fill="url(#paint6_radial_1799_6114)" fill-opacity="0.8"/>
<path d="M63.932 17H53.2485C52.7258 17 52.2869 17.3532 52.1404 17.8519C51.7434 19.2025 50.468 20.1998 48.9834 20.1998C47.4992 20.1998 46.2238 19.2233 45.8265 17.8519C45.6803 17.3532 45.2411 17 44.7187 17H14.5501C11.1601 17 9.97153 18.1821 9.97153 21.5504V42.8895C9.97153 46.2577 11.1601 47.4398 14.5501 47.4398H44.7187C45.2411 47.4398 45.6803 47.0867 45.8265 46.5878C46.2238 45.2372 47.4992 44.2401 48.9834 44.2401C50.468 44.2401 51.7434 45.2165 52.1404 46.5878C52.2869 47.0867 52.7258 47.4398 53.2485 47.4398H63.932C67.3219 47.4398 68.5105 46.2577 68.5105 42.8895V21.5504C68.5105 18.1821 67.3219 17 63.932 17ZM48.9834 40.6246C47.1646 40.6246 45.6803 39.1494 45.6803 37.3417C45.6803 35.534 47.1646 34.0587 48.9834 34.0587C50.8023 34.0587 52.2869 35.534 52.2869 37.3417C52.2869 39.1494 50.8023 40.6246 48.9834 40.6246ZM48.9834 30.4018C47.1646 30.4018 45.6803 28.9266 45.6803 27.1189C45.6803 25.3112 47.1646 23.8359 48.9834 23.8359C50.8023 23.8359 52.2869 25.3112 52.2869 27.1189C52.2869 28.9266 50.8023 30.4018 48.9834 30.4018Z" fill="url(#paint7_radial_1799_6114)" fill-opacity="0.8"/>
<path d="M63.932 17H53.2485C52.7258 17 52.2869 17.3532 52.1404 17.8519C51.7434 19.2025 50.468 20.1998 48.9834 20.1998C47.4992 20.1998 46.2238 19.2233 45.8265 17.8519C45.6803 17.3532 45.2411 17 44.7187 17H14.5501C11.1601 17 9.97153 18.1821 9.97153 21.5504V42.8895C9.97153 46.2577 11.1601 47.4398 14.5501 47.4398H44.7187C45.2411 47.4398 45.6803 47.0867 45.8265 46.5878C46.2238 45.2372 47.4992 44.2401 48.9834 44.2401C50.468 44.2401 51.7434 45.2165 52.1404 46.5878C52.2869 47.0867 52.7258 47.4398 53.2485 47.4398H63.932C67.3219 47.4398 68.5105 46.2577 68.5105 42.8895V21.5504C68.5105 18.1821 67.3219 17 63.932 17ZM48.9834 40.6246C47.1646 40.6246 45.6803 39.1494 45.6803 37.3417C45.6803 35.534 47.1646 34.0587 48.9834 34.0587C50.8023 34.0587 52.2869 35.534 52.2869 37.3417C52.2869 39.1494 50.8023 40.6246 48.9834 40.6246ZM48.9834 30.4018C47.1646 30.4018 45.6803 28.9266 45.6803 27.1189C45.6803 25.3112 47.1646 23.8359 48.9834 23.8359C50.8023 23.8359 52.2869 25.3112 52.2869 27.1189C52.2869 28.9266 50.8023 30.4018 48.9834 30.4018Z" fill="url(#paint8_radial_1799_6114)" fill-opacity="0.6"/>
<path d="M63.932 17H53.2485C52.7258 17 52.2869 17.3532 52.1404 17.8519C51.7434 19.2025 50.468 20.1998 48.9834 20.1998C47.4992 20.1998 46.2238 19.2233 45.8265 17.8519C45.6803 17.3532 45.2411 17 44.7187 17H14.5501C11.1601 17 9.97153 18.1821 9.97153 21.5504V42.8895C9.97153 46.2577 11.1601 47.4398 14.5501 47.4398H44.7187C45.2411 47.4398 45.6803 47.0867 45.8265 46.5878C46.2238 45.2372 47.4992 44.2401 48.9834 44.2401C50.468 44.2401 51.7434 45.2165 52.1404 46.5878C52.2869 47.0867 52.7258 47.4398 53.2485 47.4398H63.932C67.3219 47.4398 68.5105 46.2577 68.5105 42.8895V21.5504C68.5105 18.1821 67.3219 17 63.932 17ZM48.9834 40.6246C47.1646 40.6246 45.6803 39.1494 45.6803 37.3417C45.6803 35.534 47.1646 34.0587 48.9834 34.0587C50.8023 34.0587 52.2869 35.534 52.2869 37.3417C52.2869 39.1494 50.8023 40.6246 48.9834 40.6246ZM48.9834 30.4018C47.1646 30.4018 45.6803 28.9266 45.6803 27.1189C45.6803 25.3112 47.1646 23.8359 48.9834 23.8359C50.8023 23.8359 52.2869 25.3112 52.2869 27.1189C52.2869 28.9266 50.8023 30.4018 48.9834 30.4018Z" fill="url(#paint9_radial_1799_6114)" fill-opacity="0.6"/>
<path d="M63.932 17H53.2485C52.7258 17 52.2869 17.3532 52.1404 17.8519C51.7434 19.2025 50.468 20.1998 48.9834 20.1998C47.4992 20.1998 46.2238 19.2233 45.8265 17.8519C45.6803 17.3532 45.2411 17 44.7187 17H14.5501C11.1601 17 9.97153 18.1821 9.97153 21.5504V42.8895C9.97153 46.2577 11.1601 47.4398 14.5501 47.4398H44.7187C45.2411 47.4398 45.6803 47.0867 45.8265 46.5878C46.2238 45.2372 47.4992 44.2401 48.9834 44.2401C50.468 44.2401 51.7434 45.2165 52.1404 46.5878C52.2869 47.0867 52.7258 47.4398 53.2485 47.4398H63.932C67.3219 47.4398 68.5105 46.2577 68.5105 42.8895V21.5504C68.5105 18.1821 67.3219 17 63.932 17ZM48.9834 40.6246C47.1646 40.6246 45.6803 39.1494 45.6803 37.3417C45.6803 35.534 47.1646 34.0587 48.9834 34.0587C50.8023 34.0587 52.2869 35.534 52.2869 37.3417C52.2869 39.1494 50.8023 40.6246 48.9834 40.6246ZM48.9834 30.4018C47.1646 30.4018 45.6803 28.9266 45.6803 27.1189C45.6803 25.3112 47.1646 23.8359 48.9834 23.8359C50.8023 23.8359 52.2869 25.3112 52.2869 27.1189C52.2869 28.9266 50.8023 30.4018 48.9834 30.4018Z" fill="url(#paint10_radial_1799_6114)" fill-opacity="0.8"/>
<path d="M63.932 17H53.2485C52.7258 17 52.2869 17.3532 52.1404 17.8519C51.7434 19.2025 50.468 20.1998 48.9834 20.1998C47.4992 20.1998 46.2238 19.2233 45.8265 17.8519C45.6803 17.3532 45.2411 17 44.7187 17H14.5501C11.1601 17 9.97153 18.1821 9.97153 21.5504V42.8895C9.97153 46.2577 11.1601 47.4398 14.5501 47.4398H44.7187C45.2411 47.4398 45.6803 47.0867 45.8265 46.5878C46.2238 45.2372 47.4992 44.2401 48.9834 44.2401C50.468 44.2401 51.7434 45.2165 52.1404 46.5878C52.2869 47.0867 52.7258 47.4398 53.2485 47.4398H63.932C67.3219 47.4398 68.5105 46.2577 68.5105 42.8895V21.5504C68.5105 18.1821 67.3219 17 63.932 17ZM48.9834 40.6246C47.1646 40.6246 45.6803 39.1494 45.6803 37.3417C45.6803 35.534 47.1646 34.0587 48.9834 34.0587C50.8023 34.0587 52.2869 35.534 52.2869 37.3417C52.2869 39.1494 50.8023 40.6246 48.9834 40.6246ZM48.9834 30.4018C47.1646 30.4018 45.6803 28.9266 45.6803 27.1189C45.6803 25.3112 47.1646 23.8359 48.9834 23.8359C50.8023 23.8359 52.2869 25.3112 52.2869 27.1189C52.2869 28.9266 50.8023 30.4018 48.9834 30.4018Z" fill="url(#paint11_radial_1799_6114)" fill-opacity="0.8"/>
<path d="M63.932 17H53.2485C52.7258 17 52.2869 17.3532 52.1404 17.8519C51.7434 19.2025 50.468 20.1998 48.9834 20.1998C47.4992 20.1998 46.2238 19.2233 45.8265 17.8519C45.6803 17.3532 45.2411 17 44.7187 17H14.5501C11.1601 17 9.97153 18.1821 9.97153 21.5504V42.8895C9.97153 46.2577 11.1601 47.4398 14.5501 47.4398H44.7187C45.2411 47.4398 45.6803 47.0867 45.8265 46.5878C46.2238 45.2372 47.4992 44.2401 48.9834 44.2401C50.468 44.2401 51.7434 45.2165 52.1404 46.5878C52.2869 47.0867 52.7258 47.4398 53.2485 47.4398H63.932C67.3219 47.4398 68.5105 46.2577 68.5105 42.8895V21.5504C68.5105 18.1821 67.3219 17 63.932 17ZM48.9834 40.6246C47.1646 40.6246 45.6803 39.1494 45.6803 37.3417C45.6803 35.534 47.1646 34.0587 48.9834 34.0587C50.8023 34.0587 52.2869 35.534 52.2869 37.3417C52.2869 39.1494 50.8023 40.6246 48.9834 40.6246ZM48.9834 30.4018C47.1646 30.4018 45.6803 28.9266 45.6803 27.1189C45.6803 25.3112 47.1646 23.8359 48.9834 23.8359C50.8023 23.8359 52.2869 25.3112 52.2869 27.1189C52.2869 28.9266 50.8023 30.4018 48.9834 30.4018Z" fill="url(#paint12_radial_1799_6114)" fill-opacity="0.8"/>
<path d="M63.932 17H53.2485C52.7258 17 52.2869 17.3532 52.1404 17.8519C51.7434 19.2025 50.468 20.1998 48.9834 20.1998C47.4992 20.1998 46.2238 19.2233 45.8265 17.8519C45.6803 17.3532 45.2411 17 44.7187 17H14.5501C11.1601 17 9.97153 18.1821 9.97153 21.5504V42.8895C9.97153 46.2577 11.1601 47.4398 14.5501 47.4398H44.7187C45.2411 47.4398 45.6803 47.0867 45.8265 46.5878C46.2238 45.2372 47.4992 44.2401 48.9834 44.2401C50.468 44.2401 51.7434 45.2165 52.1404 46.5878C52.2869 47.0867 52.7258 47.4398 53.2485 47.4398H63.932C67.3219 47.4398 68.5105 46.2577 68.5105 42.8895V21.5504C68.5105 18.1821 67.3219 17 63.932 17ZM48.9834 40.6246C47.1646 40.6246 45.6803 39.1494 45.6803 37.3417C45.6803 35.534 47.1646 34.0587 48.9834 34.0587C50.8023 34.0587 52.2869 35.534 52.2869 37.3417C52.2869 39.1494 50.8023 40.6246 48.9834 40.6246ZM48.9834 30.4018C47.1646 30.4018 45.6803 28.9266 45.6803 27.1189C45.6803 25.3112 47.1646 23.8359 48.9834 23.8359C50.8023 23.8359 52.2869 25.3112 52.2869 27.1189C52.2869 28.9266 50.8023 30.4018 48.9834 30.4018Z" fill="url(#paint13_radial_1799_6114)" fill-opacity="0.8"/>
<path d="M63.932 17H53.2485C52.7258 17 52.2869 17.3532 52.1404 17.8519C51.7434 19.2025 50.468 20.1998 48.9834 20.1998C47.4992 20.1998 46.2238 19.2233 45.8265 17.8519C45.6803 17.3532 45.2411 17 44.7187 17H14.5501C11.1601 17 9.97153 18.1821 9.97153 21.5504V42.8895C9.97153 46.2577 11.1601 47.4398 14.5501 47.4398H44.7187C45.2411 47.4398 45.6803 47.0867 45.8265 46.5878C46.2238 45.2372 47.4992 44.2401 48.9834 44.2401C50.468 44.2401 51.7434 45.2165 52.1404 46.5878C52.2869 47.0867 52.7258 47.4398 53.2485 47.4398H63.932C67.3219 47.4398 68.5105 46.2577 68.5105 42.8895V21.5504C68.5105 18.1821 67.3219 17 63.932 17ZM48.9834 40.6246C47.1646 40.6246 45.6803 39.1494 45.6803 37.3417C45.6803 35.534 47.1646 34.0587 48.9834 34.0587C50.8023 34.0587 52.2869 35.534 52.2869 37.3417C52.2869 39.1494 50.8023 40.6246 48.9834 40.6246ZM48.9834 30.4018C47.1646 30.4018 45.6803 28.9266 45.6803 27.1189C45.6803 25.3112 47.1646 23.8359 48.9834 23.8359C50.8023 23.8359 52.2869 25.3112 52.2869 27.1189C52.2869 28.9266 50.8023 30.4018 48.9834 30.4018Z" fill="url(#paint14_radial_1799_6114)"/>
<path d="M63.932 17H53.2485C52.7258 17 52.2869 17.3532 52.1404 17.8519C51.7434 19.2025 50.468 20.1998 48.9834 20.1998C47.4992 20.1998 46.2238 19.2233 45.8265 17.8519C45.6803 17.3532 45.2411 17 44.7187 17H14.5501C11.1601 17 9.97153 18.1821 9.97153 21.5504V42.8895C9.97153 46.2577 11.1601 47.4398 14.5501 47.4398H44.7187C45.2411 47.4398 45.6803 47.0867 45.8265 46.5878C46.2238 45.2372 47.4992 44.2401 48.9834 44.2401C50.468 44.2401 51.7434 45.2165 52.1404 46.5878C52.2869 47.0867 52.7258 47.4398 53.2485 47.4398H63.932C67.3219 47.4398 68.5105 46.2577 68.5105 42.8895V21.5504C68.5105 18.1821 67.3219 17 63.932 17ZM48.9834 40.6246C47.1646 40.6246 45.6803 39.1494 45.6803 37.3417C45.6803 35.534 47.1646 34.0587 48.9834 34.0587C50.8023 34.0587 52.2869 35.534 52.2869 37.3417C52.2869 39.1494 50.8023 40.6246 48.9834 40.6246ZM48.9834 30.4018C47.1646 30.4018 45.6803 28.9266 45.6803 27.1189C45.6803 25.3112 47.1646 23.8359 48.9834 23.8359C50.8023 23.8359 52.2869 25.3112 52.2869 27.1189C52.2869 28.9266 50.8023 30.4018 48.9834 30.4018Z" fill="url(#paint15_radial_1799_6114)"/>
<path d="M63.932 17H53.2485C52.7258 17 52.2869 17.3532 52.1404 17.8519C51.7434 19.2025 50.468 20.1998 48.9834 20.1998C47.4992 20.1998 46.2238 19.2233 45.8265 17.8519C45.6803 17.3532 45.2411 17 44.7187 17H14.5501C11.1601 17 9.97153 18.1821 9.97153 21.5504V42.8895C9.97153 46.2577 11.1601 47.4398 14.5501 47.4398H44.7187C45.2411 47.4398 45.6803 47.0867 45.8265 46.5878C46.2238 45.2372 47.4992 44.2401 48.9834 44.2401C50.468 44.2401 51.7434 45.2165 52.1404 46.5878C52.2869 47.0867 52.7258 47.4398 53.2485 47.4398H63.932C67.3219 47.4398 68.5105 46.2577 68.5105 42.8895V21.5504C68.5105 18.1821 67.3219 17 63.932 17ZM48.9834 40.6246C47.1646 40.6246 45.6803 39.1494 45.6803 37.3417C45.6803 35.534 47.1646 34.0587 48.9834 34.0587C50.8023 34.0587 52.2869 35.534 52.2869 37.3417C52.2869 39.1494 50.8023 40.6246 48.9834 40.6246ZM48.9834 30.4018C47.1646 30.4018 45.6803 28.9266 45.6803 27.1189C45.6803 25.3112 47.1646 23.8359 48.9834 23.8359C50.8023 23.8359 52.2869 25.3112 52.2869 27.1189C52.2869 28.9266 50.8023 30.4018 48.9834 30.4018Z" fill="url(#paint16_linear_1799_6114)"/>
<path d="M63.932 17H53.2485C52.7258 17 52.2869 17.3532 52.1404 17.8519C51.7434 19.2025 50.468 20.1998 48.9834 20.1998C47.4992 20.1998 46.2238 19.2233 45.8265 17.8519C45.6803 17.3532 45.2411 17 44.7187 17H14.5501C11.1601 17 9.97153 18.1821 9.97153 21.5504V42.8895C9.97153 46.2577 11.1601 47.4398 14.5501 47.4398H44.7187C45.2411 47.4398 45.6803 47.0867 45.8265 46.5878C46.2238 45.2372 47.4992 44.2401 48.9834 44.2401C50.468 44.2401 51.7434 45.2165 52.1404 46.5878C52.2869 47.0867 52.7258 47.4398 53.2485 47.4398H63.932C67.3219 47.4398 68.5105 46.2577 68.5105 42.8895V21.5504C68.5105 18.1821 67.3219 17 63.932 17ZM48.9834 40.6246C47.1646 40.6246 45.6803 39.1494 45.6803 37.3417C45.6803 35.534 47.1646 34.0587 48.9834 34.0587C50.8023 34.0587 52.2869 35.534 52.2869 37.3417C52.2869 39.1494 50.8023 40.6246 48.9834 40.6246ZM48.9834 30.4018C47.1646 30.4018 45.6803 28.9266 45.6803 27.1189C45.6803 25.3112 47.1646 23.8359 48.9834 23.8359C50.8023 23.8359 52.2869 25.3112 52.2869 27.1189C52.2869 28.9266 50.8023 30.4018 48.9834 30.4018Z" fill="url(#paint17_linear_1799_6114)" fill-opacity="0.5"/>
<path d="M65.2418 43.8936V20.842H56.6244V43.8936H65.2418Z" fill="white"/>
<path d="M60.9331 21.0889H56.6244V21.2192V21.3495H60.9331H65.2418V21.2192V21.0889H60.9331Z" fill="#1F2024"/>
<path d="M60.9331 22.9131H56.6244V23.0433V23.1737H60.9331H65.2418V23.0433V22.9131H60.9331Z" fill="#1F2024"/>
<path d="M60.9331 24.998H56.6244V25.1284V25.2587H60.9331H65.2418V25.1284V24.998H60.9331Z" fill="#1F2024"/>
<path d="M60.9331 26.0403H56.6244V26.4311V26.8221H60.9331H65.2418V26.4311V26.0403H60.9331Z" fill="#1F2024"/>
<path d="M60.9331 27.3433H56.6244V27.4737V27.6039H60.9331H65.2418V27.4737V27.3433H60.9331Z" fill="#1F2024"/>
<path d="M60.9331 29.1677H56.6244V29.5586V29.9495H60.9331H65.2418V29.5586V29.1677H60.9331Z" fill="#1F2024"/>
<path d="M60.9331 30.4707H56.6244V30.601V30.7313L60.9331 30.7313H65.2418V30.601V30.4707H60.9331Z" fill="#1F2024"/>
<path d="M60.9331 31.5129H56.6244V31.6455V31.7735H60.9331H65.2418V31.6455V31.5129H60.9331Z" fill="#1F2024"/>
<path d="M60.9331 32.8159H56.6244V32.9462V33.0765H60.9331H65.2418V32.9462V32.8159H60.9331Z" fill="#1F2024"/>
<path d="M60.9331 33.5979H56.6244V33.8585V34.1191H60.9331H65.2418V33.8585V33.5979H60.9331Z" fill="#1F2024"/>
<path d="M60.9331 35.9434H56.6244V36.0736V36.204H60.9331H65.2418V36.0736V35.9434H60.9331Z" fill="#1F2024"/>
<path d="M60.9331 36.7251H56.6244V37.3765V38.0281H60.9331H65.2418V37.3765V36.7251H60.9331Z" fill="#1F2024"/>
<path d="M60.9331 38.5493H56.6244V39.0704V39.5917H60.9331H65.2418V39.0704V38.5493H60.9331Z" fill="#1F2024"/>
<path d="M60.9331 40.1131L56.6244 40.113V40.504V40.8949H60.9331H65.2418V40.504V40.1131H60.9331Z" fill="#1F2024"/>
<path d="M60.9331 41.9373H56.6244V42.5889V43.2403H60.9331H65.2418V42.5889V41.9373H60.9331Z" fill="#1F2024"/>
<path d="M60.9331 43.501H56.6244V43.6313V43.7616H60.9331H65.2418V43.6313V43.501H60.9331Z" fill="#1F2024"/>
<path fill-rule="evenodd" clip-rule="evenodd" d="M16.7648 29.4364H23.6817C24.4805 29.4364 25.1263 28.8575 25.1263 28.1065C25.1263 27.3712 24.4805 26.7766 23.6817 26.7766H16.7648C15.9661 26.7766 15.3203 27.3712 15.3203 28.1065C15.3203 28.8419 15.9661 29.4364 16.7648 29.4364ZM32.5011 37.4158H16.2824C15.7498 37.4158 15.3203 37.02 15.3203 36.5292C15.3203 36.0384 15.7498 35.6426 16.2824 35.6426H32.484C33.0165 35.6426 33.4461 36.0384 33.4461 36.5292C33.4633 37.02 33.0165 37.4158 32.5011 37.4158ZM37.2599 41.2577H16.2779C15.7478 41.2577 15.3203 40.8619 15.3203 40.3711C15.3203 39.8803 15.7478 39.4845 16.2779 39.4845H37.243C37.7731 39.4845 38.2004 39.8803 38.2004 40.3711C38.2176 40.8461 37.7731 41.2577 37.2599 41.2577Z" fill="#965C2D"/>
</g>
<defs>
<filter id="filter0_d_1799_6114" x="0.898643" y="71.0896" width="71.2268" height="56.6189" filterUnits="userSpaceOnUse" color-interpolation-filters="sRGB">
<feFlood flood-opacity="0" result="BackgroundImageFix"/>
<feColorMatrix in="SourceAlpha" type="matrix" values="0 0 0 0 0 0 0 0 0 0 0 0 0 0 0 0 0 0 127 0" result="hardAlpha"/>
<feOffset dy="4"/>
<feGaussianBlur stdDeviation="4"/>
<feComposite in2="hardAlpha" operator="out"/>
<feColorMatrix type="matrix" values="0 0 0 0 0.258212 0 0 0 0 0.110252 0 0 0 0 0.377535 0 0 0 0.4 0"/>
<feBlend mode="normal" in2="BackgroundImageFix" result="effect1_dropShadow_1799_6114"/>
<feBlend mode="normal" in="SourceGraphic" in2="effect1_dropShadow_1799_6114" result="shape"/>
</filter>
<filter id="filter1_d_1799_6114" x="2.32399" y="41.5327" width="72.1895" height="66.145" filterUnits="userSpaceOnUse" color-interpolation-filters="sRGB">
<feFlood flood-opacity="0" result="BackgroundImageFix"/>
<feColorMatrix in="SourceAlpha" type="matrix" values="0 0 0 0 0 0 0 0 0 0 0 0 0 0 0 0 0 0 127 0" result="hardAlpha"/>
<feOffset dy="4"/>
<feGaussianBlur stdDeviation="4"/>
<feComposite in2="hardAlpha" operator="out"/>
<feColorMatrix type="matrix" values="0 0 0 0 0.258212 0 0 0 0 0.110252 0 0 0 0 0.377535 0 0 0 0.4 0"/>
<feBlend mode="normal" in2="BackgroundImageFix" result="effect1_dropShadow_1799_6114"/>
<feBlend mode="normal" in="SourceGraphic" in2="effect1_dropShadow_1799_6114" result="shape"/>
</filter>
<filter id="filter2_d_1799_6114" x="0.790108" y="25.8938" width="71.2268" height="56.6189" filterUnits="userSpaceOnUse" color-interpolation-filters="sRGB">
<feFlood flood-opacity="0" result="BackgroundImageFix"/>
<feColorMatrix in="SourceAlpha" type="matrix" values="0 0 0 0 0 0 0 0 0 0 0 0 0 0 0 0 0 0 127 0" result="hardAlpha"/>
<feOffset dy="4"/>
<feGaussianBlur stdDeviation="4"/>
<feComposite in2="hardAlpha" operator="out"/>
<feColorMatrix type="matrix" values="0 0 0 0 0.258212 0 0 0 0 0.110252 0 0 0 0 0.377535 0 0 0 0.4 0"/>
<feBlend mode="normal" in2="BackgroundImageFix" result="effect1_dropShadow_1799_6114"/>
<feBlend mode="normal" in="SourceGraphic" in2="effect1_dropShadow_1799_6114" result="shape"/>
</filter>
<filter id="filter3_d_1799_6114" x="1.97153" y="11" width="74.539" height="46.4399" filterUnits="userSpaceOnUse" color-interpolation-filters="sRGB">
<feFlood flood-opacity="0" result="BackgroundImageFix"/>
<feColorMatrix in="SourceAlpha" type="matrix" values="0 0 0 0 0 0 0 0 0 0 0 0 0 0 0 0 0 0 127 0" result="hardAlpha"/>
<feOffset dy="2"/>
<feGaussianBlur stdDeviation="4"/>
<feComposite in2="hardAlpha" operator="out"/>
<feColorMatrix type="matrix" values="0 0 0 0 0.258212 0 0 0 0 0.110252 0 0 0 0 0.377535 0 0 0 0.2 0"/>
<feBlend mode="normal" in2="BackgroundImageFix" result="effect1_dropShadow_1799_6114"/>
<feBlend mode="normal" in="SourceGraphic" in2="effect1_dropShadow_1799_6114" result="shape"/>
</filter>
<linearGradient id="paint0_linear_1799_6114" x1="66.0522" y1="38.7452" x2="16.2679" y2="38.7452" gradientUnits="userSpaceOnUse">
<stop stop-color="#FFE74D"/>
<stop offset="1" stop-color="#F3C240"/>
</linearGradient>
<linearGradient id="paint1_linear_1799_6114" x1="68.2876" y1="33.3546" x2="60.4179" y2="33.3546" gradientUnits="userSpaceOnUse">
<stop stop-color="#FFF250"/>
<stop offset="0.800673" stop-color="#FFF250" stop-opacity="0.142642"/>
<stop offset="1" stop-color="#FFF250" stop-opacity="0"/>
</linearGradient>
<linearGradient id="paint2_linear_1799_6114" x1="48.0135" y1="13.5825" x2="48.0135" y2="21.1789" gradientUnits="userSpaceOnUse">
<stop offset="0.559302" stop-color="#FFF250" stop-opacity="0"/>
<stop offset="0.662219" stop-color="#FFF250" stop-opacity="0.22"/>
<stop offset="0.728059" stop-color="#FFF250" stop-opacity="0.28"/>
<stop offset="0.855608" stop-color="#FFF250" stop-opacity="0.200055"/>
<stop offset="0.887174" stop-color="#FFF250" stop-opacity="0.111385"/>
<stop offset="0.964422" stop-color="#FFF250" stop-opacity="0.0403228"/>
<stop offset="1" stop-color="#FFF250" stop-opacity="0"/>
</linearGradient>
<radialGradient id="paint3_radial_1799_6114" cx="0" cy="0" r="1" gradientUnits="userSpaceOnUse" gradientTransform="translate(48.0135 17.3006) rotate(90) scale(4.80751 4.83731)">
<stop offset="0.515119" stop-color="#FFF250" stop-opacity="0.38"/>
<stop offset="0.622077" stop-color="#FFF250" stop-opacity="0.40519"/>
<stop offset="0.75609" stop-color="#FFF250" stop-opacity="0.51"/>
<stop offset="0.874573" stop-color="#FFF250" stop-opacity="0.304057"/>
<stop offset="0.953602" stop-color="#FFF250" stop-opacity="0.111385"/>
<stop offset="1" stop-color="#FFF250" stop-opacity="0"/>
</radialGradient>
<linearGradient id="paint4_linear_1799_6114" x1="39.241" y1="16.569" x2="39.241" y2="19.2468" gradientUnits="userSpaceOnUse">
<stop stop-color="#DDBE45" stop-opacity="0.87"/>
<stop offset="0.571218" stop-color="#DDBE45" stop-opacity="0.256428"/>
<stop offset="1" stop-color="#DDBE45" stop-opacity="0"/>
</linearGradient>
<linearGradient id="paint5_linear_1799_6114" x1="69.3883" y1="32.0009" x2="67.0619" y2="32.0009" gradientUnits="userSpaceOnUse">
<stop stop-color="#DDBE45"/>
<stop offset="0.571218" stop-color="#DDBE45" stop-opacity="0.256428"/>
<stop offset="0.762905" stop-color="#DDBE45" stop-opacity="0.105859"/>
<stop offset="1" stop-color="#DDBE45" stop-opacity="0"/>
</linearGradient>
<radialGradient id="paint6_radial_1799_6114" cx="0" cy="0" r="1" gradientUnits="userSpaceOnUse" gradientTransform="translate(67.8627 18.2218) rotate(129.646) scale(2.61247 12.9648)">
<stop stop-color="#DDBE45"/>
<stop offset="0.571218" stop-color="#DDBE45" stop-opacity="0.256428"/>
<stop offset="0.762905" stop-color="#DDBE45" stop-opacity="0.105859"/>
<stop offset="1" stop-color="#DDBE45" stop-opacity="0"/>
</radialGradient>
<radialGradient id="paint7_radial_1799_6114" cx="0" cy="0" r="1" gradientUnits="userSpaceOnUse" gradientTransform="translate(69.2362 45.4311) rotate(-159.081) scale(4.12794 20.3679)">
<stop stop-color="#DDBE45"/>
<stop offset="0.571218" stop-color="#DDBE45" stop-opacity="0.256428"/>
<stop offset="0.762905" stop-color="#DDBE45" stop-opacity="0.105859"/>
<stop offset="1" stop-color="#DDBE45" stop-opacity="0"/>
</radialGradient>
<radialGradient id="paint8_radial_1799_6114" cx="0" cy="0" r="1" gradientUnits="userSpaceOnUse" gradientTransform="translate(48.2949 37.689) rotate(90) scale(4.87457 4.90476)">
<stop offset="0.511296" stop-color="#FFF250" stop-opacity="0.38"/>
<stop offset="0.776208" stop-color="#FFF250" stop-opacity="0.48"/>
<stop offset="0.944529" stop-color="#FFF250" stop-opacity="0.111385"/>
<stop offset="1" stop-color="#FFF250" stop-opacity="0"/>
</radialGradient>
<radialGradient id="paint9_radial_1799_6114" cx="0" cy="0" r="1" gradientUnits="userSpaceOnUse" gradientTransform="translate(48.2949 27.5614) rotate(90) scale(5.16928 5.20129)">
<stop offset="0.527432" stop-color="#FFF250" stop-opacity="0.38"/>
<stop offset="0.781925" stop-color="#FFF250" stop-opacity="0.43"/>
<stop offset="0.923155" stop-color="#FFF250" stop-opacity="0.13"/>
<stop offset="1" stop-color="#FFF250" stop-opacity="0"/>
</radialGradient>
<radialGradient id="paint10_radial_1799_6114" cx="0" cy="0" r="1" gradientUnits="userSpaceOnUse" gradientTransform="translate(49.2316 37.1829) rotate(88.1831) scale(5.07677 5.10817)">
<stop offset="0.651565" stop-color="#DDBE45"/>
<stop offset="0.738047" stop-color="#DDBE45" stop-opacity="0.89"/>
<stop offset="0.931405" stop-color="#DDBE45" stop-opacity="0.139937"/>
<stop offset="1" stop-color="#DDBE45" stop-opacity="0"/>
</radialGradient>
<radialGradient id="paint11_radial_1799_6114" cx="0" cy="0" r="1" gradientUnits="userSpaceOnUse" gradientTransform="translate(49.2146 26.6879) rotate(90) scale(4.94231 4.97293)">
<stop offset="0.651565" stop-color="#DDBE45"/>
<stop offset="0.738047" stop-color="#DDBE45" stop-opacity="0.89"/>
<stop offset="0.931405" stop-color="#DDBE45" stop-opacity="0.139937"/>
<stop offset="1" stop-color="#DDBE45" stop-opacity="0"/>
</radialGradient>
<radialGradient id="paint12_radial_1799_6114" cx="0" cy="0" r="1" gradientUnits="userSpaceOnUse" gradientTransform="translate(49.6443 17.3801) rotate(95.1488) scale(4.78905 4.81823)">
<stop offset="0.601951" stop-color="#DDBE45"/>
<stop offset="0.67864" stop-color="#DDBE45" stop-opacity="0.89"/>
<stop offset="0.854167" stop-color="#DDBE45" stop-opacity="0.35368"/>
<stop offset="0.931405" stop-color="#DDBE45" stop-opacity="0.139937"/>
<stop offset="1" stop-color="#DDBE45" stop-opacity="0"/>
</radialGradient>
<radialGradient id="paint13_radial_1799_6114" cx="0" cy="0" r="1" gradientUnits="userSpaceOnUse" gradientTransform="translate(49.3284 47.6591) rotate(-92.2303) scale(5.6464 5.98061)">
<stop offset="0.403704" stop-color="#D09649"/>
<stop offset="0.600453" stop-color="#D09649" stop-opacity="0.89"/>
<stop offset="0.796565" stop-color="#D09649" stop-opacity="0.35368"/>
<stop offset="0.894871" stop-color="#D09649" stop-opacity="0.139937"/>
<stop offset="0.948338" stop-color="#D09649" stop-opacity="0.0530188"/>
<stop offset="1" stop-color="#D09649" stop-opacity="0"/>
</radialGradient>
<radialGradient id="paint14_radial_1799_6114" cx="0" cy="0" r="1" gradientUnits="userSpaceOnUse" gradientTransform="translate(49.0568 37.1849) rotate(90) scale(4.04495 4.07)">
<stop stop-color="#D09649"/>
<stop offset="0.687412" stop-color="#D09649" stop-opacity="0.8"/>
<stop offset="0.936245" stop-color="#D09649" stop-opacity="0.12"/>
<stop offset="1" stop-color="#D09649" stop-opacity="0"/>
</radialGradient>
<radialGradient id="paint15_radial_1799_6114" cx="0" cy="0" r="1" gradientUnits="userSpaceOnUse" gradientTransform="translate(49.0568 26.8741) rotate(90) scale(3.87685 3.9009)">
<stop stop-color="#D09649"/>
<stop offset="0.687412" stop-color="#D09649" stop-opacity="0.8"/>
<stop offset="0.936245" stop-color="#D09649" stop-opacity="0.12"/>
<stop offset="1" stop-color="#D09649" stop-opacity="0"/>
</radialGradient>
<linearGradient id="paint16_linear_1799_6114" x1="39.241" y1="41.9827" x2="39.241" y2="49.1069" gradientUnits="userSpaceOnUse">
<stop stop-color="#D09649" stop-opacity="0"/>
<stop offset="0.247587" stop-color="#D09649" stop-opacity="0.11"/>
<stop offset="0.407841" stop-color="#D09649" stop-opacity="0.274975"/>
<stop offset="0.523895" stop-color="#D09649" stop-opacity="0.448563"/>
<stop offset="0.618072" stop-color="#D09649" stop-opacity="0.615715"/>
<stop offset="0.783312" stop-color="#D09649" stop-opacity="0.89"/>
</linearGradient>
<linearGradient id="paint17_linear_1799_6114" x1="12.5168" y1="41.4072" x2="9.15685" y2="41.4072" gradientUnits="userSpaceOnUse">
<stop stop-color="#D09649" stop-opacity="0"/>
<stop offset="0.28147" stop-color="#D09649" stop-opacity="0.148855"/>
<stop offset="0.553438" stop-color="#D09649" stop-opacity="0.448563"/>
<stop offset="1" stop-color="#D09649"/>
</linearGradient>
<clipPath id="clip0_1799_6114">
<rect width="30" height="14" fill="white" transform="translate(29.934 57) rotate(34.5216)"/>
</clipPath>
</defs>
</svg>
