<svg width="79" height="139" viewBox="0 0 79 139" fill="none" xmlns="http://www.w3.org/2000/svg">
<g filter="url(#filter0_d_1_709)">
<path d="M68.0368 6.04907H11.597C9.97771 6.04907 8.66504 7.3675 8.66504 8.99386V114.638C8.66504 116.264 9.97771 117.583 11.597 117.583H68.0368C69.656 117.583 70.9687 116.264 70.9687 114.638V8.99386C70.9687 7.3675 69.656 6.04907 68.0368 6.04907Z" fill="white"/>
<path d="M13.968 15.6196V12.9415H14.5299V14.0469H15.6752V12.9415H16.2371V15.6196H15.6752V14.5124H14.5299V15.6196H13.968ZM17.1408 15.6573C17.0143 15.6573 16.9004 15.6352 16.799 15.5908C16.6988 15.5453 16.6201 15.4782 16.5628 15.3895C16.5055 15.3009 16.4769 15.1906 16.4769 15.0588C16.4769 14.9462 16.4972 14.8527 16.5378 14.7784C16.5783 14.703 16.6338 14.6418 16.7042 14.5951C16.7745 14.5484 16.8545 14.513 16.944 14.489C17.0334 14.4651 17.1283 14.4483 17.2285 14.4387C17.3442 14.4279 17.4373 14.4172 17.5077 14.4064C17.578 14.3956 17.6293 14.3794 17.6616 14.3579C17.695 14.3351 17.7117 14.3027 17.7117 14.2608V14.2518C17.7117 14.1691 17.6854 14.105 17.6329 14.0595C17.5816 14.0139 17.5088 13.9912 17.4146 13.9912C17.3156 13.9912 17.2362 14.0134 17.1766 14.0577C17.1181 14.1008 17.0794 14.156 17.0603 14.2231L16.5467 14.1817C16.5729 14.0595 16.6242 13.9541 16.7006 13.8654C16.7769 13.7755 16.8754 13.7066 16.9959 13.6587C17.1175 13.6096 17.2583 13.585 17.4182 13.585C17.5291 13.585 17.6353 13.5982 17.7367 13.6245C17.8381 13.6509 17.9282 13.6916 18.0069 13.7467C18.0869 13.8007 18.1501 13.8708 18.1966 13.957C18.2431 14.0433 18.2664 14.1458 18.2664 14.2644V15.6196H17.7385V15.3392H17.7242C17.692 15.4027 17.649 15.4584 17.5953 15.5064C17.5416 15.5531 17.4772 15.5902 17.4021 15.6178C17.3269 15.6441 17.2398 15.6573 17.1408 15.6573ZM17.3001 15.2727C17.3812 15.2727 17.4528 15.2565 17.5148 15.2242C17.578 15.1906 17.627 15.1463 17.6616 15.0912C17.6973 15.0349 17.7153 14.972 17.7153 14.9025V14.6886C17.6985 14.6993 17.6747 14.7095 17.6436 14.7191C17.6138 14.7287 17.5804 14.7371 17.5434 14.7443C17.5065 14.7515 17.4695 14.7581 17.4325 14.7641C17.3955 14.7688 17.3621 14.7736 17.3323 14.7784C17.2667 14.788 17.2094 14.8036 17.1605 14.8252C17.1116 14.8455 17.0734 14.8737 17.046 14.9096C17.0197 14.9444 17.0066 14.9881 17.0066 15.0408C17.0066 15.1163 17.034 15.1739 17.0889 15.2134C17.1438 15.2529 17.2142 15.2727 17.3001 15.2727ZM18.5456 15.0498H19.0824C19.086 15.1169 19.1158 15.1697 19.1719 15.208C19.2292 15.2463 19.3025 15.2655 19.392 15.2655C19.4815 15.2655 19.5567 15.2445 19.6175 15.2026C19.6783 15.1595 19.7093 15.0978 19.7105 15.0175C19.7105 14.9695 19.698 14.9276 19.673 14.8917C19.6491 14.8557 19.6157 14.8276 19.5727 14.8072C19.531 14.7856 19.4809 14.7754 19.4224 14.7766H19.1361V14.4118H19.4224C19.5071 14.4106 19.5727 14.3902 19.6193 14.3506C19.6658 14.3111 19.6897 14.2608 19.6909 14.1997C19.6897 14.1326 19.6652 14.0781 19.6175 14.0361C19.5698 13.9942 19.5048 13.9738 19.4224 13.975C19.3413 13.9738 19.2733 13.9924 19.2184 14.0307C19.1647 14.0679 19.1367 14.1152 19.1343 14.1727H18.5993C18.6004 14.0517 18.6362 13.9475 18.7066 13.86C18.7782 13.7725 18.8742 13.7048 18.9948 13.6569C19.1152 13.609 19.2495 13.585 19.3974 13.585C19.5608 13.585 19.7016 13.6083 19.8197 13.6551C19.9378 13.7006 20.0291 13.7659 20.0935 13.851C20.1579 13.9349 20.1896 14.0355 20.1883 14.1529C20.1896 14.2584 20.155 14.3471 20.0846 14.419C20.0154 14.4909 19.9187 14.5418 19.7947 14.5717V14.5915C19.8758 14.5975 19.9498 14.6203 20.0166 14.6598C20.0846 14.6981 20.1382 14.7515 20.1776 14.8197C20.2182 14.8881 20.2384 14.9689 20.2384 15.0624C20.2384 15.187 20.202 15.2937 20.1293 15.3823C20.0565 15.471 19.9569 15.5393 19.8304 15.5872C19.704 15.634 19.5585 15.6579 19.3938 15.6591C19.2339 15.6579 19.0908 15.634 18.9643 15.5872C18.8379 15.5405 18.7377 15.4722 18.6637 15.3823C18.5909 15.2913 18.5516 15.1804 18.5456 15.0498ZM20.4013 15.6196V13.6101H21.2513C21.4983 13.6114 21.6933 13.6593 21.8365 13.7539C21.9796 13.8474 22.0512 13.981 22.0512 14.1547C22.0512 14.2626 22.0107 14.353 21.9295 14.4261C21.8496 14.498 21.7381 14.5472 21.5949 14.5735C21.7142 14.5819 21.8162 14.6089 21.9009 14.6544C21.9856 14.6999 22.0506 14.7593 22.096 14.8323C22.1413 14.9042 22.164 14.9839 22.164 15.0714C22.164 15.1852 22.1329 15.2835 22.0709 15.3662C22.0101 15.4477 21.9218 15.5106 21.8061 15.5549C21.6903 15.598 21.5496 15.6196 21.3837 15.6196H20.4013ZM20.9167 15.2026H21.3837C21.4601 15.2026 21.5203 15.184 21.5645 15.1469C21.6086 15.1097 21.6301 15.0588 21.6289 14.9941C21.6301 14.9234 21.6086 14.8677 21.5645 14.827C21.5203 14.785 21.4601 14.7641 21.3837 14.7641H20.9167V15.2026ZM20.9167 14.4369H21.2639C21.3473 14.4381 21.4124 14.4208 21.4589 14.3848C21.5054 14.3477 21.5287 14.2979 21.5287 14.2356C21.5287 14.1745 21.5036 14.1266 21.4535 14.0918C21.4046 14.0559 21.3372 14.0379 21.2513 14.0379H20.9167V14.4369ZM22.9639 15.6573C22.8374 15.6573 22.7235 15.6352 22.6221 15.5908C22.5219 15.5453 22.4431 15.4782 22.3859 15.3895C22.3286 15.3009 22.3 15.1906 22.3 15.0588C22.3 14.9462 22.3203 14.8527 22.3608 14.7784C22.4014 14.703 22.4569 14.6418 22.5272 14.5951C22.5976 14.5484 22.6776 14.513 22.767 14.489C22.8565 14.4651 22.9514 14.4483 23.0516 14.4387C23.1673 14.4279 23.2604 14.4172 23.3307 14.4064C23.4011 14.3956 23.4524 14.3794 23.4846 14.3579C23.518 14.3351 23.5347 14.3027 23.5347 14.2608V14.2518C23.5347 14.1691 23.5085 14.105 23.456 14.0595C23.4047 14.0139 23.3319 13.9912 23.2377 13.9912C23.1386 13.9912 23.0593 14.0134 22.9997 14.0577C22.9412 14.1008 22.9024 14.156 22.8833 14.2231L22.3698 14.1817C22.396 14.0595 22.4473 13.9541 22.5237 13.8654C22.6 13.7755 22.6984 13.7066 22.8189 13.6587C22.9406 13.6096 23.0814 13.585 23.2413 13.585C23.3522 13.585 23.4584 13.5982 23.5598 13.6245C23.6612 13.6509 23.7513 13.6916 23.83 13.7467C23.9099 13.8007 23.9732 13.8708 24.0197 13.957C24.0662 14.0433 24.0895 14.1458 24.0895 14.2644V15.6196H23.5616V15.3392H23.5472C23.5151 15.4027 23.4721 15.4584 23.4184 15.5064C23.3647 15.5531 23.3003 15.5902 23.2251 15.6178C23.15 15.6441 23.0629 15.6573 22.9639 15.6573ZM23.1231 15.2727C23.2043 15.2727 23.2759 15.2565 23.3379 15.2242C23.4011 15.1906 23.45 15.1463 23.4846 15.0912C23.5204 15.0349 23.5383 14.972 23.5383 14.9025V14.6886C23.5216 14.6993 23.4978 14.7095 23.4667 14.7191C23.4369 14.7287 23.4035 14.7371 23.3665 14.7443C23.3295 14.7515 23.2926 14.7581 23.2556 14.7641C23.2186 14.7688 23.1852 14.7736 23.1554 14.7784C23.0898 14.788 23.0325 14.8036 22.9836 14.8252C22.9347 14.8455 22.8965 14.8737 22.8691 14.9096C22.8428 14.9444 22.8297 14.9881 22.8297 15.0408C22.8297 15.1163 22.8571 15.1739 22.912 15.2134C22.9669 15.2529 23.0372 15.2727 23.1231 15.2727ZM26.3228 15.0049L26.8632 13.6101H27.2873L26.5089 15.6196H26.1402L25.3779 13.6101H25.7985L26.3228 15.0049ZM25.6714 13.6101V15.6196H25.1435V13.6101H25.6714ZM27.0028 15.6196V13.6101H27.5236V15.6196H27.0028ZM28.4183 15.6573C28.2919 15.6573 28.1779 15.6352 28.0765 15.5908C27.9763 15.5453 27.8976 15.4782 27.8403 15.3895C27.783 15.3009 27.7544 15.1906 27.7544 15.0588C27.7544 14.9462 27.7747 14.8527 27.8153 14.7784C27.8558 14.703 27.9113 14.6418 27.9817 14.5951C28.0521 14.5484 28.132 14.513 28.2215 14.489C28.3109 14.4651 28.4058 14.4483 28.506 14.4387C28.6217 14.4279 28.7148 14.4172 28.7851 14.4064C28.8556 14.3956 28.9069 14.3794 28.9391 14.3579C28.9725 14.3351 28.9892 14.3027 28.9892 14.2608V14.2518C28.9892 14.1691 28.9629 14.105 28.9104 14.0595C28.8591 14.0139 28.7864 13.9912 28.6921 13.9912C28.5931 13.9912 28.5138 14.0134 28.4541 14.0577C28.3956 14.1008 28.3569 14.156 28.3378 14.2231L27.8242 14.1817C27.8504 14.0595 27.9018 13.9541 27.9781 13.8654C28.0544 13.7755 28.1529 13.7066 28.2734 13.6587C28.3951 13.6096 28.5358 13.585 28.6957 13.585C28.8066 13.585 28.9128 13.5982 29.0142 13.6245C29.1156 13.6509 29.2057 13.6916 29.2844 13.7467C29.3644 13.8007 29.4276 13.8708 29.4741 13.957C29.5207 14.0433 29.5439 14.1458 29.5439 14.2644V15.6196H29.016V15.3392H29.0017C28.9695 15.4027 28.9265 15.4584 28.8729 15.5064C28.8192 15.5531 28.7547 15.5902 28.6796 15.6178C28.6044 15.6441 28.5173 15.6573 28.4183 15.6573ZM28.5776 15.2727C28.6587 15.2727 28.7303 15.2565 28.7923 15.2242C28.8556 15.1906 28.9045 15.1463 28.9391 15.0912C28.9748 15.0349 28.9927 14.972 28.9927 14.9025V14.6886C28.9761 14.6993 28.9522 14.7095 28.9212 14.7191C28.8914 14.7287 28.8579 14.7371 28.821 14.7443C28.784 14.7515 28.747 14.7581 28.71 14.7641C28.673 14.7688 28.6396 14.7736 28.6098 14.7784C28.5442 14.788 28.4869 14.8036 28.438 14.8252C28.3891 14.8455 28.3509 14.8737 28.3235 14.9096C28.2972 14.9444 28.2841 14.9881 28.2841 15.0408C28.2841 15.1163 28.3115 15.1739 28.3664 15.2134C28.4213 15.2529 28.4917 15.2727 28.5776 15.2727ZM31.2332 13.6101V14.0487H30.4029V15.6196H29.8678V13.6101H31.2332ZM31.9544 15.6573C31.8279 15.6573 31.714 15.6352 31.6126 15.5908C31.5124 15.5453 31.4336 15.4782 31.3764 15.3895C31.3191 15.3009 31.2905 15.1906 31.2905 15.0588C31.2905 14.9462 31.3108 14.8527 31.3513 14.7784C31.3919 14.703 31.4473 14.6418 31.5178 14.5951C31.5881 14.5484 31.668 14.513 31.7575 14.489C31.847 14.4651 31.9419 14.4483 32.0421 14.4387C32.1578 14.4279 32.2508 14.4172 32.3212 14.4064C32.3916 14.3956 32.4429 14.3794 32.4751 14.3579C32.5085 14.3351 32.5252 14.3027 32.5252 14.2608V14.2518C32.5252 14.1691 32.499 14.105 32.4465 14.0595C32.3952 14.0139 32.3224 13.9912 32.2282 13.9912C32.1292 13.9912 32.0498 14.0134 31.9902 14.0577C31.9317 14.1008 31.893 14.156 31.8739 14.2231L31.3603 14.1817C31.3865 14.0595 31.4378 13.9541 31.5142 13.8654C31.5905 13.7755 31.6889 13.7066 31.8094 13.6587C31.9311 13.6096 32.0719 13.585 32.2318 13.585C32.3427 13.585 32.4489 13.5982 32.5503 13.6245C32.6517 13.6509 32.7418 13.6916 32.8205 13.7467C32.9005 13.8007 32.9637 13.8708 33.0102 13.957C33.0567 14.0433 33.08 14.1458 33.08 14.2644V15.6196H32.5521V15.3392H32.5378C32.5056 15.4027 32.4626 15.4584 32.4089 15.5064C32.3552 15.5531 32.2908 15.5902 32.2157 15.6178C32.1405 15.6441 32.0534 15.6573 31.9544 15.6573ZM32.1137 15.2727C32.1948 15.2727 32.2663 15.2565 32.3284 15.2242C32.3916 15.1906 32.4405 15.1463 32.4751 15.0912C32.5109 15.0349 32.5288 14.972 32.5288 14.9025V14.6886C32.5121 14.6993 32.4883 14.7095 32.4573 14.7191C32.4274 14.7287 32.394 14.7371 32.357 14.7443C32.32 14.7515 32.2831 14.7581 32.2461 14.7641C32.2091 14.7688 32.1757 14.7736 32.1459 14.7784C32.0802 14.788 32.023 14.8036 31.9741 14.8252C31.9251 14.8455 31.887 14.8737 31.8595 14.9096C31.8333 14.9444 31.8202 14.9881 31.8202 15.0408C31.8202 15.1163 31.8476 15.1739 31.9025 15.2134C31.9574 15.2529 32.0278 15.2727 32.1137 15.2727ZM33.3592 15.0498H33.896C33.8996 15.1169 33.9294 15.1697 33.9855 15.208C34.0427 15.2463 34.1161 15.2655 34.2056 15.2655C34.2951 15.2655 34.3702 15.2445 34.4311 15.2026C34.4919 15.1595 34.523 15.0978 34.5241 15.0175C34.5241 14.9695 34.5116 14.9276 34.4866 14.8917C34.4627 14.8557 34.4293 14.8276 34.3863 14.8072C34.3446 14.7856 34.2945 14.7754 34.236 14.7766H33.9497V14.4118H34.236C34.3207 14.4106 34.3863 14.3902 34.4329 14.3506C34.4794 14.3111 34.5033 14.2608 34.5044 14.1997C34.5033 14.1326 34.4788 14.0781 34.4311 14.0361C34.3834 13.9942 34.3183 13.9738 34.236 13.975C34.1549 13.9738 34.0869 13.9924 34.032 14.0307C33.9783 14.0679 33.9503 14.1152 33.9479 14.1727H33.4128C33.414 14.0517 33.4498 13.9475 33.5202 13.86C33.5918 13.7725 33.6878 13.7048 33.8083 13.6569C33.9288 13.609 34.063 13.585 34.211 13.585C34.3744 13.585 34.5152 13.6083 34.6333 13.6551C34.7514 13.7006 34.8427 13.7659 34.9071 13.851C34.9715 13.9349 35.0031 14.0355 35.0019 14.1529C35.0031 14.2584 34.9685 14.3471 34.8981 14.419C34.8289 14.4909 34.7323 14.5418 34.6082 14.5717V14.5915C34.6894 14.5975 34.7633 14.6203 34.8301 14.6598C34.8981 14.6981 34.9518 14.7515 34.9912 14.8197C35.0318 14.8881 35.052 14.9689 35.052 15.0624C35.052 15.187 35.0157 15.2937 34.9429 15.3823C34.8701 15.471 34.7705 15.5393 34.644 15.5872C34.5176 15.634 34.372 15.6579 34.2074 15.6591C34.0475 15.6579 33.9043 15.634 33.7779 15.5872C33.6514 15.5405 33.5512 15.4722 33.4773 15.3823C33.4045 15.2913 33.3651 15.1804 33.3592 15.0498ZM35.7428 14.8845L36.4622 13.6101H37.0097V15.6196H36.4818V14.3435L35.7643 15.6196H35.2149V13.6101H35.7428V14.8845ZM38.7257 14.3938V14.8288H37.6826V14.3938H38.7257ZM37.8651 13.6101V15.6196H37.3372V13.6101H37.8651ZM39.0732 13.6101V15.6196H38.5487V13.6101H39.0732ZM39.6673 16.3709C39.5969 16.3721 39.5306 16.3673 39.4686 16.3565C39.4078 16.3457 39.3576 16.3319 39.3184 16.3151L39.4433 15.9L39.4613 15.9036C39.5544 15.9311 39.6339 15.9371 39.6995 15.9215C39.7662 15.9071 39.8168 15.8544 39.8516 15.7634L39.8838 15.6771L39.1681 13.6101H39.7493L40.1628 15.0858H40.1844L40.6033 13.6101H41.1882L40.4116 15.8371C40.3746 15.9449 40.324 16.039 40.2595 16.1192C40.1965 16.1995 40.1162 16.2613 40.0198 16.3044C39.9231 16.3487 39.8054 16.3709 39.6673 16.3709Z" fill="#1F2024"/>
<path d="M64.3722 22.3374H14.8957C14.2885 22.3374 13.7963 22.8318 13.7963 23.4417C13.7963 24.0516 14.2885 24.546 14.8957 24.546H64.3722C64.9794 24.546 65.4717 24.0516 65.4717 23.4417C65.4717 22.8318 64.9794 22.3374 64.3722 22.3374Z" fill="#C5D2F1"/>
<path d="M64.3722 26.0184H14.8957C14.2885 26.0184 13.7963 26.5128 13.7963 27.1227C13.7963 27.7326 14.2885 28.227 14.8957 28.227H64.3722C64.9794 28.227 65.4717 27.7326 65.4717 27.1227C65.4717 26.5128 64.9794 26.0184 64.3722 26.0184Z" fill="#C5D2F1"/>
<path d="M25.1575 30.8036H14.5292C14.1244 30.8036 13.7963 31.1332 13.7963 31.5398C13.7963 31.9464 14.1244 32.276 14.5292 32.276H25.1575C25.5623 32.276 25.8905 31.9464 25.8905 31.5398C25.8905 31.1332 25.5623 30.8036 25.1575 30.8036Z" fill="#C5D2F1"/>
<path d="M48.3473 33.0482C48.1208 33.0482 47.927 32.9942 47.7657 32.8864C47.6059 32.7774 47.4831 32.621 47.3974 32.4173C47.3124 32.2124 47.2702 31.9649 47.2702 31.675C47.2702 31.3862 47.3131 31.1394 47.3989 30.9345C47.485 30.7284 47.6078 30.5708 47.7675 30.4618C47.9288 30.3527 48.1219 30.2982 48.3473 30.2982C48.5742 30.2982 48.7673 30.3527 48.9271 30.4618C49.0884 30.5708 49.2112 30.7278 49.2958 30.9327C49.3819 31.1376 49.4248 31.385 49.4248 31.675C49.4248 31.9649 49.3823 32.2124 49.2977 32.4173C49.213 32.621 49.0902 32.7774 48.929 32.8864C48.7692 32.9942 48.5753 33.0482 48.3473 33.0482ZM48.3473 32.5808C48.4562 32.5808 48.5474 32.5461 48.6211 32.4766C48.6966 32.4059 48.753 32.3028 48.7912 32.1675C48.8307 32.032 48.8502 31.8679 48.8502 31.675C48.8502 31.4808 48.8307 31.3161 48.7912 31.1807C48.753 31.0453 48.6966 30.9422 48.6211 30.8716C48.5474 30.7997 48.4562 30.7637 48.3473 30.7637C48.1864 30.7637 48.0622 30.8434 47.9754 31.0028C47.8881 31.1609 47.8445 31.385 47.8445 31.675C47.8445 31.8679 47.8636 32.032 47.9021 32.1675C47.9413 32.3028 47.9984 32.4059 48.0736 32.4766C48.1487 32.5461 48.24 32.5808 48.3473 32.5808ZM50.749 33.0482C50.5225 33.0482 50.3286 32.9942 50.1673 32.8864C50.0076 32.7774 49.8848 32.621 49.7986 32.4173C49.714 32.2124 49.6718 31.9649 49.6718 31.675C49.6718 31.3862 49.7147 31.1394 49.8005 30.9345C49.8866 30.7284 50.0094 30.5708 50.1692 30.4618C50.3304 30.3527 50.5236 30.2982 50.749 30.2982C50.9758 30.2982 51.169 30.3527 51.3288 30.4618C51.49 30.5708 51.6128 30.7278 51.6974 30.9327C51.7832 31.1376 51.8264 31.385 51.8264 31.675C51.8264 31.9649 51.7839 32.2124 51.6993 32.4173C51.6146 32.621 51.4915 32.7774 51.3306 32.8864C51.1708 32.9942 50.9769 33.0482 50.749 33.0482ZM50.749 32.5808C50.8574 32.5808 50.9487 32.5461 51.0227 32.4766C51.0979 32.4059 51.1547 32.3028 51.1928 32.1675C51.232 32.032 51.2518 31.8679 51.2518 31.675C51.2518 31.4808 51.232 31.3161 51.1928 31.1807C51.1547 31.0453 51.0979 30.9422 51.0227 30.8716C50.9487 30.7997 50.8574 30.7637 50.749 30.7637C50.5881 30.7637 50.4638 30.8434 50.3766 31.0028C50.2897 31.1609 50.2461 31.385 50.2461 31.675C50.2461 31.8679 50.2652 32.032 50.3033 32.1675C50.3429 32.3028 50.4001 32.4059 50.4752 32.4766C50.5503 32.5461 50.6416 32.5808 50.749 32.5808ZM53.1506 33.0482C52.9237 33.0482 52.7299 32.9942 52.569 32.8864C52.4092 32.7774 52.286 32.621 52.2003 32.4173C52.1156 32.2124 52.0731 31.9649 52.0731 31.675C52.0731 31.3862 52.1163 31.1394 52.2021 30.9345C52.2879 30.7284 52.411 30.5708 52.5708 30.4618C52.7317 30.3527 52.9252 30.2982 53.1506 30.2982C53.3771 30.2982 53.5706 30.3527 53.7304 30.4618C53.8913 30.5708 54.0144 30.7278 54.0991 30.9327C54.1848 31.1376 54.2277 31.385 54.2277 31.675C54.2277 31.9649 54.1856 32.2124 54.1009 32.4173C54.0159 32.621 53.8931 32.7774 53.7322 32.8864C53.5724 32.9942 53.3785 33.0482 53.1506 33.0482ZM53.1506 32.5808C53.2591 32.5808 53.3503 32.5461 53.4244 32.4766C53.4995 32.4059 53.5563 32.3028 53.5944 32.1675C53.6336 32.032 53.6534 31.8679 53.6534 31.675C53.6534 31.4808 53.6336 31.3161 53.5944 31.1807C53.5563 31.0453 53.4995 30.9422 53.4244 30.8716C53.3503 30.7997 53.2591 30.7637 53.1506 30.7637C52.9893 30.7637 52.8655 30.8434 52.7782 31.0028C52.6914 31.1609 52.6478 31.385 52.6478 31.675C52.6478 31.8679 52.6668 32.032 52.7049 32.1675C52.7441 32.3028 52.8017 32.4059 52.8768 32.4766C52.9519 32.5461 53.0432 32.5808 53.1506 32.5808ZM54.8024 33.0464C54.714 33.0464 54.6393 33.0164 54.5784 32.9565C54.5176 32.8966 54.4872 32.8223 54.4872 32.7336C54.4872 32.645 54.5176 32.5707 54.5784 32.5107C54.6393 32.4508 54.714 32.4209 54.8024 32.4209C54.8907 32.4209 54.9651 32.4508 55.0259 32.5107C55.0868 32.5707 55.1172 32.645 55.1172 32.7336C55.1172 32.8223 55.0868 32.8966 55.0259 32.9565C54.9651 33.0164 54.8907 33.0464 54.8024 33.0464ZM56.4541 33.0482C56.2273 33.0482 56.0334 32.9942 55.8725 32.8864C55.7124 32.7774 55.5896 32.621 55.5038 32.4173C55.4192 32.2124 55.3767 31.9649 55.3767 31.675C55.3767 31.3862 55.4195 31.1394 55.5057 30.9345C55.5914 30.7284 55.7142 30.5708 55.874 30.4618C56.0352 30.3527 56.2284 30.2982 56.4541 30.2982C56.6806 30.2982 56.8738 30.3527 57.0339 30.4618C57.1948 30.5708 57.3176 30.7278 57.4023 30.9327C57.4884 31.1376 57.5313 31.385 57.5313 31.675C57.5313 31.9649 57.4888 32.2124 57.4041 32.4173C57.3194 32.621 57.1967 32.7774 57.0354 32.8864C56.8756 32.9942 56.6817 33.0482 56.4541 33.0482ZM56.4541 32.5808C56.5626 32.5808 56.6539 32.5461 56.7279 32.4766C56.803 32.4059 56.8595 32.3028 56.8976 32.1675C56.9372 32.032 56.957 31.8679 56.957 31.675C56.957 31.4808 56.9372 31.3161 56.8976 31.1807C56.8595 31.0453 56.803 30.9422 56.7279 30.8716C56.6539 30.7997 56.5626 30.7637 56.4541 30.7637C56.2929 30.7637 56.169 30.8434 56.0818 31.0028C55.9946 31.1609 55.9509 31.385 55.9509 31.675C55.9509 31.8679 55.9704 32.032 56.0085 32.1675C56.0477 32.3028 56.1049 32.4059 56.18 32.4766C56.2555 32.5461 56.3468 32.5808 56.4541 32.5808ZM58.8554 33.0482C58.6289 33.0482 58.435 32.9942 58.2738 32.8864C58.114 32.7774 57.9912 32.621 57.9051 32.4173C57.8204 32.2124 57.7783 31.9649 57.7783 31.675C57.7783 31.3862 57.8212 31.1394 57.9069 30.9345C57.993 30.7284 58.1158 30.5708 58.2756 30.4618C58.4369 30.3527 58.63 30.2982 58.8554 30.2982C59.0823 30.2982 59.2754 30.3527 59.4352 30.4618C59.5964 30.5708 59.7192 30.7278 59.8039 30.9327C59.89 31.1376 59.9329 31.385 59.9329 31.675C59.9329 31.9649 59.8904 32.2124 59.8057 32.4173C59.7211 32.621 59.5983 32.7774 59.437 32.8864C59.2772 32.9942 59.0834 33.0482 58.8554 33.0482ZM58.8554 32.5808C58.9639 32.5808 59.0551 32.5461 59.1292 32.4766C59.2043 32.4059 59.2611 32.3028 59.2992 32.1675C59.3388 32.032 59.3582 31.8679 59.3582 31.675C59.3582 31.4808 59.3388 31.3161 59.2992 31.1807C59.2611 31.0453 59.2043 30.9422 59.1292 30.8716C59.0551 30.7997 58.9639 30.7637 58.8554 30.7637C58.6945 30.7637 58.5703 30.8434 58.4834 31.0028C58.3962 31.1609 58.3526 31.385 58.3526 31.675C58.3526 31.8679 58.3716 32.032 58.4097 32.1675C58.4493 32.3028 58.5065 32.4059 58.5816 32.4766C58.6568 32.5461 58.748 32.5808 58.8554 32.5808ZM61.8628 31.4046V31.7555H61.1988V33.0122H60.7707V31.4046H61.8628ZM62.0421 33.6132V31.4046H62.4771V31.6764H62.4972C62.517 31.6323 62.546 31.5877 62.583 31.5427C62.6204 31.4976 62.6691 31.4603 62.7292 31.4305C62.7893 31.3999 62.8637 31.3845 62.9524 31.3845C63.0697 31.3845 63.1771 31.4152 63.2746 31.4765C63.3728 31.5369 63.4516 31.6285 63.5106 31.7512C63.57 31.8739 63.5996 32.0273 63.5996 32.2113C63.5996 32.3896 63.5707 32.5406 63.5135 32.6642C63.4563 32.7869 63.3786 32.8799 63.2801 32.9432C63.1829 33.0065 63.073 33.0381 62.951 33.0381C62.8652 33.0381 62.7919 33.0237 62.7318 32.9949C62.6717 32.9662 62.6226 32.9302 62.5845 32.8871C62.5471 32.843 62.5181 32.7989 62.4972 32.7548H62.4844V33.6132H62.0421ZM62.8106 32.6844C62.8832 32.6844 62.9444 32.6642 62.9938 32.624C63.0437 32.5837 63.0814 32.5281 63.1071 32.4572C63.1327 32.3853 63.1456 32.3028 63.1456 32.2099C63.1456 32.1169 63.1327 32.0354 63.1071 31.9654C63.0822 31.8945 63.0451 31.8389 62.9953 31.7986C62.9458 31.7584 62.8843 31.7383 62.8106 31.7383C62.7391 31.7383 62.6779 31.7579 62.6273 31.7972C62.5779 31.8355 62.5397 31.8902 62.513 31.9611C62.487 32.0311 62.4741 32.114 62.4741 32.2099C62.4741 32.3048 62.4877 32.3877 62.5145 32.4586C62.5412 32.5296 62.5793 32.5851 62.6288 32.6254C62.6794 32.6647 62.7402 32.6844 62.8106 32.6844ZM64.9051 32.0316V32.3795H64.0706V32.0316H64.9051ZM64.2165 31.4046V33.0122H63.7942V31.4046H64.2165ZM65.1829 31.4046V33.0122H64.7633V31.4046H65.1829Z" fill="#9FAFD5"/>
<path d="M65.3797 40.0061H13.8876V40.1902H65.3797V40.0061Z" stroke="#C5D2F1" stroke-width="0.5" stroke-dasharray="4 4"/>
<path d="M64.3722 46.2638H14.8957C14.2885 46.2638 13.7963 46.7582 13.7963 47.3681C13.7963 47.978 14.2885 48.4724 14.8957 48.4724H64.3722C64.9794 48.4724 65.4717 47.978 65.4717 47.3681C65.4717 46.7582 64.9794 46.2638 64.3722 46.2638Z" fill="#C5D2F1"/>
<path d="M64.3722 49.9448H14.8957C14.2885 49.9448 13.7963 50.4392 13.7963 51.0491C13.7963 51.659 14.2885 52.1534 14.8957 52.1534H64.3722C64.9794 52.1534 65.4717 51.659 65.4717 51.0491C65.4717 50.4392 64.9794 49.9448 64.3722 49.9448Z" fill="#C5D2F1"/>
<path d="M25.1575 54.7301H14.5292C14.1244 54.7301 13.7963 55.0597 13.7963 55.4663C13.7963 55.8729 14.1244 56.2025 14.5292 56.2025H25.1575C25.5623 56.2025 25.8905 55.8729 25.8905 55.4663C25.8905 55.0597 25.5623 54.7301 25.1575 54.7301Z" fill="#C5D2F1"/>
<path d="M48.3473 56.9747C48.1208 56.9747 47.927 56.9206 47.7657 56.8127C47.6059 56.7038 47.4831 56.5473 47.3974 56.3438C47.3124 56.1387 47.2702 55.8914 47.2702 55.6013C47.2702 55.3127 47.3131 55.0657 47.3989 54.8607C47.485 54.6549 47.6078 54.4974 47.7675 54.388C47.9288 54.2791 48.1219 54.2246 48.3473 54.2246C48.5742 54.2246 48.7673 54.2791 48.9271 54.388C49.0884 54.4974 49.2112 54.6542 49.2958 54.8592C49.3819 55.0639 49.4248 55.3112 49.4248 55.6013C49.4248 55.8914 49.3823 56.1387 49.2977 56.3438C49.213 56.5473 49.0902 56.7038 48.929 56.8127C48.7692 56.9206 48.5753 56.9747 48.3473 56.9747ZM48.3473 56.5072C48.4562 56.5072 48.5474 56.4726 48.6211 56.403C48.6966 56.3323 48.753 56.2293 48.7912 56.0938C48.8307 55.9584 48.8502 55.7942 48.8502 55.6013C48.8502 55.4073 48.8307 55.2424 48.7912 55.1069C48.753 54.9718 48.6966 54.8688 48.6211 54.7981C48.5474 54.726 48.4562 54.6903 48.3473 54.6903C48.1864 54.6903 48.0622 54.7698 47.9754 54.9291C47.8881 55.0874 47.8445 55.3112 47.8445 55.6013C47.8445 55.7942 47.8636 55.9584 47.9021 56.0938C47.9413 56.2293 47.9984 56.3323 48.0736 56.403C48.1487 56.4726 48.24 56.5072 48.3473 56.5072ZM50.749 56.9747C50.5225 56.9747 50.3286 56.9206 50.1673 56.8127C50.0076 56.7038 49.8848 56.5473 49.7986 56.3438C49.714 56.1387 49.6718 55.8914 49.6718 55.6013C49.6718 55.3127 49.7147 55.0657 49.8005 54.8607C49.8866 54.6549 50.0094 54.4974 50.1692 54.388C50.3304 54.2791 50.5236 54.2246 50.749 54.2246C50.9758 54.2246 51.169 54.2791 51.3288 54.388C51.49 54.4974 51.6128 54.6542 51.6974 54.8592C51.7832 55.0639 51.8264 55.3112 51.8264 55.6013C51.8264 55.8914 51.7839 56.1387 51.6993 56.3438C51.6146 56.5473 51.4915 56.7038 51.3306 56.8127C51.1708 56.9206 50.9769 56.9747 50.749 56.9747ZM50.749 56.5072C50.8574 56.5072 50.9487 56.4726 51.0227 56.403C51.0979 56.3323 51.1547 56.2293 51.1928 56.0938C51.232 55.9584 51.2518 55.7942 51.2518 55.6013C51.2518 55.4073 51.232 55.2424 51.1928 55.1069C51.1547 54.9718 51.0979 54.8688 51.0227 54.7981C50.9487 54.726 50.8574 54.6903 50.749 54.6903C50.5881 54.6903 50.4638 54.7698 50.3766 54.9291C50.2897 55.0874 50.2461 55.3112 50.2461 55.6013C50.2461 55.7942 50.2652 55.9584 50.3033 56.0938C50.3429 56.2293 50.4001 56.3323 50.4752 56.403C50.5503 56.4726 50.6416 56.5072 50.749 56.5072ZM53.1506 56.9747C52.9237 56.9747 52.7299 56.9206 52.569 56.8127C52.4092 56.7038 52.286 56.5473 52.2003 56.3438C52.1156 56.1387 52.0731 55.8914 52.0731 55.6013C52.0731 55.3127 52.1163 55.0657 52.2021 54.8607C52.2879 54.6549 52.411 54.4974 52.5708 54.388C52.7317 54.2791 52.9252 54.2246 53.1506 54.2246C53.3771 54.2246 53.5706 54.2791 53.7304 54.388C53.8913 54.4974 54.0144 54.6542 54.0991 54.8592C54.1848 55.0639 54.2277 55.3112 54.2277 55.6013C54.2277 55.8914 54.1856 56.1387 54.1009 56.3438C54.0159 56.5473 53.8931 56.7038 53.7322 56.8127C53.5724 56.9206 53.3785 56.9747 53.1506 56.9747ZM53.1506 56.5072C53.2591 56.5072 53.3503 56.4726 53.4244 56.403C53.4995 56.3323 53.5563 56.2293 53.5944 56.0938C53.6336 55.9584 53.6534 55.7942 53.6534 55.6013C53.6534 55.4073 53.6336 55.2424 53.5944 55.1069C53.5563 54.9718 53.4995 54.8688 53.4244 54.7981C53.3503 54.726 53.2591 54.6903 53.1506 54.6903C52.9893 54.6903 52.8655 54.7698 52.7782 54.9291C52.6914 55.0874 52.6478 55.3112 52.6478 55.6013C52.6478 55.7942 52.6668 55.9584 52.7049 56.0938C52.7441 56.2293 52.8017 56.3323 52.8768 56.403C52.9519 56.4726 53.0432 56.5072 53.1506 56.5072ZM54.8024 56.9728C54.714 56.9728 54.6393 56.9426 54.5784 56.883C54.5176 56.823 54.4872 56.7487 54.4872 56.6599C54.4872 56.5712 54.5176 56.4969 54.5784 56.4372C54.6393 56.3772 54.714 56.3474 54.8024 56.3474C54.8907 56.3474 54.9651 56.3772 55.0259 56.4372C55.0868 56.4969 55.1172 56.5712 55.1172 56.6599C55.1172 56.7487 55.0868 56.823 55.0259 56.883C54.9651 56.9426 54.8907 56.9728 54.8024 56.9728ZM56.4541 56.9747C56.2273 56.9747 56.0334 56.9206 55.8725 56.8127C55.7124 56.7038 55.5896 56.5473 55.5038 56.3438C55.4192 56.1387 55.3767 55.8914 55.3767 55.6013C55.3767 55.3127 55.4195 55.0657 55.5057 54.8607C55.5914 54.6549 55.7142 54.4974 55.874 54.388C56.0352 54.2791 56.2284 54.2246 56.4541 54.2246C56.6806 54.2246 56.8738 54.2791 57.0339 54.388C57.1948 54.4974 57.3176 54.6542 57.4023 54.8592C57.4884 55.0639 57.5313 55.3112 57.5313 55.6013C57.5313 55.8914 57.4888 56.1387 57.4041 56.3438C57.3194 56.5473 57.1967 56.7038 57.0354 56.8127C56.8756 56.9206 56.6817 56.9747 56.4541 56.9747ZM56.4541 56.5072C56.5626 56.5072 56.6539 56.4726 56.7279 56.403C56.803 56.3323 56.8595 56.2293 56.8976 56.0938C56.9372 55.9584 56.957 55.7942 56.957 55.6013C56.957 55.4073 56.9372 55.2424 56.8976 55.1069C56.8595 54.9718 56.803 54.8688 56.7279 54.7981C56.6539 54.726 56.5626 54.6903 56.4541 54.6903C56.2929 54.6903 56.169 54.7698 56.0818 54.9291C55.9946 55.0874 55.9509 55.3112 55.9509 55.6013C55.9509 55.7942 55.9704 55.9584 56.0085 56.0938C56.0477 56.2293 56.1049 56.3323 56.18 56.403C56.2555 56.4726 56.3468 56.5072 56.4541 56.5072ZM58.8554 56.9747C58.6289 56.9747 58.435 56.9206 58.2738 56.8127C58.114 56.7038 57.9912 56.5473 57.9051 56.3438C57.8204 56.1387 57.7783 55.8914 57.7783 55.6013C57.7783 55.3127 57.8212 55.0657 57.9069 54.8607C57.993 54.6549 58.1158 54.4974 58.2756 54.388C58.4369 54.2791 58.63 54.2246 58.8554 54.2246C59.0823 54.2246 59.2754 54.2791 59.4352 54.388C59.5964 54.4974 59.7192 54.6542 59.8039 54.8592C59.89 55.0639 59.9329 55.3112 59.9329 55.6013C59.9329 55.8914 59.8904 56.1387 59.8057 56.3438C59.7211 56.5473 59.5983 56.7038 59.437 56.8127C59.2772 56.9206 59.0834 56.9747 58.8554 56.9747ZM58.8554 56.5072C58.9639 56.5072 59.0551 56.4726 59.1292 56.403C59.2043 56.3323 59.2611 56.2293 59.2992 56.0938C59.3388 55.9584 59.3582 55.7942 59.3582 55.6013C59.3582 55.4073 59.3388 55.2424 59.2992 55.1069C59.2611 54.9718 59.2043 54.8688 59.1292 54.7981C59.0551 54.726 58.9639 54.6903 58.8554 54.6903C58.6945 54.6903 58.5703 54.7698 58.4834 54.9291C58.3962 55.0874 58.3526 55.3112 58.3526 55.6013C58.3526 55.7942 58.3716 55.9584 58.4097 56.0938C58.4493 56.2293 58.5065 56.3323 58.5816 56.403C58.6568 56.4726 58.748 56.5072 58.8554 56.5072ZM61.8628 55.3311V55.6819H61.1988V56.9386H60.7707V55.3311H61.8628ZM62.0421 57.5397V55.3311H62.4771V55.6028H62.4972C62.517 55.5586 62.546 55.5141 62.583 55.4691C62.6204 55.4239 62.6691 55.3867 62.7292 55.3569C62.7893 55.3263 62.8637 55.3109 62.9524 55.3109C63.0697 55.3109 63.1771 55.3414 63.2746 55.4029C63.3728 55.4633 63.4516 55.5549 63.5106 55.6775C63.57 55.8004 63.5996 55.9536 63.5996 56.1376C63.5996 56.3161 63.5707 56.4671 63.5135 56.5907C63.4563 56.7133 63.3786 56.8064 63.2801 56.8694C63.1829 56.9327 63.073 56.9644 62.951 56.9644C62.8652 56.9644 62.7919 56.95 62.7318 56.9213C62.6717 56.8926 62.6226 56.8565 62.5845 56.8134C62.5471 56.7693 62.5181 56.7255 62.4972 56.6813H62.4844V57.5397H62.0421ZM62.8106 56.6106C62.8832 56.6106 62.9444 56.5907 62.9938 56.5503C63.0437 56.5101 63.0814 56.4546 63.1071 56.3835C63.1327 56.3117 63.1456 56.2293 63.1456 56.1361C63.1456 56.0434 63.1327 55.9617 63.1071 55.8917C63.0822 55.8211 63.0451 55.7651 62.9953 55.725C62.9458 55.6849 62.8843 55.6646 62.8106 55.6646C62.7391 55.6646 62.6779 55.6841 62.6273 55.7235C62.5779 55.7618 62.5397 55.8166 62.513 55.8877C62.487 55.9576 62.4741 56.0404 62.4741 56.1361C62.4741 56.2311 62.4877 56.3139 62.5145 56.385C62.5412 56.456 62.5793 56.5116 62.6288 56.5517C62.6794 56.5911 62.7402 56.6106 62.8106 56.6106ZM64.9051 55.958V56.3058H64.0706V55.958H64.9051ZM64.2165 55.3311V56.9386H63.7942V55.3311H64.2165ZM65.1829 55.3311V56.9386H64.7633V55.3311H65.1829Z" fill="#9FAFD5"/>
<path d="M65.3797 63.9325H13.8876V64.1165H65.3797V63.9325Z" stroke="#C5D2F1" stroke-width="0.5" stroke-dasharray="4 4"/>
<path d="M64.3722 70.1902H14.8957C14.2885 70.1902 13.7963 70.6846 13.7963 71.2945C13.7963 71.9044 14.2885 72.3988 14.8957 72.3988H64.3722C64.9794 72.3988 65.4717 71.9044 65.4717 71.2945C65.4717 70.6846 64.9794 70.1902 64.3722 70.1902Z" fill="#C5D2F1"/>
<path d="M64.3722 73.8711H14.8957C14.2885 73.8711 13.7963 74.3655 13.7963 74.9754C13.7963 75.5853 14.2885 76.0797 14.8957 76.0797H64.3722C64.9794 76.0797 65.4717 75.5853 65.4717 74.9754C65.4717 74.3655 64.9794 73.8711 64.3722 73.8711Z" fill="#C5D2F1"/>
<path d="M25.1575 78.6565H14.5292C14.1244 78.6565 13.7963 78.9861 13.7963 79.3927C13.7963 79.7993 14.1244 80.1289 14.5292 80.1289H25.1575C25.5623 80.1289 25.8905 79.7993 25.8905 79.3927C25.8905 78.9861 25.5623 78.6565 25.1575 78.6565Z" fill="#C5D2F1"/>
<path d="M48.3473 80.9011C48.1208 80.9011 47.927 80.847 47.7657 80.7391C47.6059 80.6301 47.4831 80.4737 47.3974 80.2701C47.3124 80.0651 47.2702 79.8178 47.2702 79.5277C47.2702 79.2391 47.3131 78.9921 47.3989 78.7871C47.485 78.5813 47.6078 78.4238 47.7675 78.3144C47.9288 78.2055 48.1219 78.151 48.3473 78.151C48.5742 78.151 48.7673 78.2055 48.9271 78.3144C49.0884 78.4238 49.2112 78.5806 49.2958 78.7856C49.3819 78.9903 49.4248 79.2376 49.4248 79.5277C49.4248 79.8178 49.3823 80.0651 49.2977 80.2701C49.213 80.4737 49.0902 80.6301 48.929 80.7391C48.7692 80.847 48.5753 80.9011 48.3473 80.9011ZM48.3473 80.4336C48.4562 80.4336 48.5474 80.399 48.6211 80.3294C48.6966 80.2587 48.753 80.1557 48.7912 80.0202C48.8307 79.8847 48.8502 79.7206 48.8502 79.5277C48.8502 79.3337 48.8307 79.1688 48.7912 79.0333C48.753 78.8982 48.6966 78.7952 48.6211 78.7245C48.5474 78.6524 48.4562 78.6166 48.3473 78.6166C48.1864 78.6166 48.0622 78.6962 47.9754 78.8555C47.8881 79.0138 47.8445 79.2376 47.8445 79.5277C47.8445 79.7206 47.8636 79.8847 47.9021 80.0202C47.9413 80.1557 47.9984 80.2587 48.0736 80.3294C48.1487 80.399 48.24 80.4336 48.3473 80.4336ZM50.749 80.9011C50.5225 80.9011 50.3286 80.847 50.1673 80.7391C50.0076 80.6301 49.8848 80.4737 49.7986 80.2701C49.714 80.0651 49.6718 79.8178 49.6718 79.5277C49.6718 79.2391 49.7147 78.9921 49.8005 78.7871C49.8866 78.5813 50.0094 78.4238 50.1692 78.3144C50.3304 78.2055 50.5236 78.151 50.749 78.151C50.9758 78.151 51.169 78.2055 51.3288 78.3144C51.49 78.4238 51.6128 78.5806 51.6974 78.7856C51.7832 78.9903 51.8264 79.2376 51.8264 79.5277C51.8264 79.8178 51.7839 80.0651 51.6993 80.2701C51.6146 80.4737 51.4915 80.6301 51.3306 80.7391C51.1708 80.847 50.9769 80.9011 50.749 80.9011ZM50.749 80.4336C50.8574 80.4336 50.9487 80.399 51.0227 80.3294C51.0979 80.2587 51.1547 80.1557 51.1928 80.0202C51.232 79.8847 51.2518 79.7206 51.2518 79.5277C51.2518 79.3337 51.232 79.1688 51.1928 79.0333C51.1547 78.8982 51.0979 78.7952 51.0227 78.7245C50.9487 78.6524 50.8574 78.6166 50.749 78.6166C50.5881 78.6166 50.4638 78.6962 50.3766 78.8555C50.2897 79.0138 50.2461 79.2376 50.2461 79.5277C50.2461 79.7206 50.2652 79.8847 50.3033 80.0202C50.3429 80.1557 50.4001 80.2587 50.4752 80.3294C50.5503 80.399 50.6416 80.4336 50.749 80.4336ZM53.1506 80.9011C52.9237 80.9011 52.7299 80.847 52.569 80.7391C52.4092 80.6301 52.286 80.4737 52.2003 80.2701C52.1156 80.0651 52.0731 79.8178 52.0731 79.5277C52.0731 79.2391 52.1163 78.9921 52.2021 78.7871C52.2879 78.5813 52.411 78.4238 52.5708 78.3144C52.7317 78.2055 52.9252 78.151 53.1506 78.151C53.3771 78.151 53.5706 78.2055 53.7304 78.3144C53.8913 78.4238 54.0144 78.5806 54.0991 78.7856C54.1848 78.9903 54.2277 79.2376 54.2277 79.5277C54.2277 79.8178 54.1856 80.0651 54.1009 80.2701C54.0159 80.4737 53.8931 80.6301 53.7322 80.7391C53.5724 80.847 53.3785 80.9011 53.1506 80.9011ZM53.1506 80.4336C53.2591 80.4336 53.3503 80.399 53.4244 80.3294C53.4995 80.2587 53.5563 80.1557 53.5944 80.0202C53.6336 79.8847 53.6534 79.7206 53.6534 79.5277C53.6534 79.3337 53.6336 79.1688 53.5944 79.0333C53.5563 78.8982 53.4995 78.7952 53.4244 78.7245C53.3503 78.6524 53.2591 78.6166 53.1506 78.6166C52.9893 78.6166 52.8655 78.6962 52.7782 78.8555C52.6914 79.0138 52.6478 79.2376 52.6478 79.5277C52.6478 79.7206 52.6668 79.8847 52.7049 80.0202C52.7441 80.1557 52.8017 80.2587 52.8768 80.3294C52.9519 80.399 53.0432 80.4336 53.1506 80.4336ZM54.8024 80.8992C54.714 80.8992 54.6393 80.869 54.5784 80.8094C54.5176 80.7494 54.4872 80.675 54.4872 80.5863C54.4872 80.4976 54.5176 80.4233 54.5784 80.3636C54.6393 80.3036 54.714 80.2738 54.8024 80.2738C54.8907 80.2738 54.9651 80.3036 55.0259 80.3636C55.0868 80.4233 55.1172 80.4976 55.1172 80.5863C55.1172 80.675 55.0868 80.7494 55.0259 80.8094C54.9651 80.869 54.8907 80.8992 54.8024 80.8992ZM56.4541 80.9011C56.2273 80.9011 56.0334 80.847 55.8725 80.7391C55.7124 80.6301 55.5896 80.4737 55.5038 80.2701C55.4192 80.0651 55.3767 79.8178 55.3767 79.5277C55.3767 79.2391 55.4195 78.9921 55.5057 78.7871C55.5914 78.5813 55.7142 78.4238 55.874 78.3144C56.0352 78.2055 56.2284 78.151 56.4541 78.151C56.6806 78.151 56.8738 78.2055 57.0339 78.3144C57.1948 78.4238 57.3176 78.5806 57.4023 78.7856C57.4884 78.9903 57.5313 79.2376 57.5313 79.5277C57.5313 79.8178 57.4888 80.0651 57.4041 80.2701C57.3194 80.4737 57.1967 80.6301 57.0354 80.7391C56.8756 80.847 56.6817 80.9011 56.4541 80.9011ZM56.4541 80.4336C56.5626 80.4336 56.6539 80.399 56.7279 80.3294C56.803 80.2587 56.8595 80.1557 56.8976 80.0202C56.9372 79.8847 56.957 79.7206 56.957 79.5277C56.957 79.3337 56.9372 79.1688 56.8976 79.0333C56.8595 78.8982 56.803 78.7952 56.7279 78.7245C56.6539 78.6524 56.5626 78.6166 56.4541 78.6166C56.2929 78.6166 56.169 78.6962 56.0818 78.8555C55.9946 79.0138 55.9509 79.2376 55.9509 79.5277C55.9509 79.7206 55.9704 79.8847 56.0085 80.0202C56.0477 80.1557 56.1049 80.2587 56.18 80.3294C56.2555 80.399 56.3468 80.4336 56.4541 80.4336ZM58.8554 80.9011C58.6289 80.9011 58.435 80.847 58.2738 80.7391C58.114 80.6301 57.9912 80.4737 57.9051 80.2701C57.8204 80.0651 57.7783 79.8178 57.7783 79.5277C57.7783 79.2391 57.8212 78.9921 57.9069 78.7871C57.993 78.5813 58.1158 78.4238 58.2756 78.3144C58.4369 78.2055 58.63 78.151 58.8554 78.151C59.0823 78.151 59.2754 78.2055 59.4352 78.3144C59.5964 78.4238 59.7192 78.5806 59.8039 78.7856C59.89 78.9903 59.9329 79.2376 59.9329 79.5277C59.9329 79.8178 59.8904 80.0651 59.8057 80.2701C59.7211 80.4737 59.5983 80.6301 59.437 80.7391C59.2772 80.847 59.0834 80.9011 58.8554 80.9011ZM58.8554 80.4336C58.9639 80.4336 59.0551 80.399 59.1292 80.3294C59.2043 80.2587 59.2611 80.1557 59.2992 80.0202C59.3388 79.8847 59.3582 79.7206 59.3582 79.5277C59.3582 79.3337 59.3388 79.1688 59.2992 79.0333C59.2611 78.8982 59.2043 78.7952 59.1292 78.7245C59.0551 78.6524 58.9639 78.6166 58.8554 78.6166C58.6945 78.6166 58.5703 78.6962 58.4834 78.8555C58.3962 79.0138 58.3526 79.2376 58.3526 79.5277C58.3526 79.7206 58.3716 79.8847 58.4097 80.0202C58.4493 80.1557 58.5065 80.2587 58.5816 80.3294C58.6568 80.399 58.748 80.4336 58.8554 80.4336ZM61.8628 79.2575V79.6083H61.1988V80.865H60.7707V79.2575H61.8628ZM62.0421 81.4661V79.2575H62.4771V79.5292H62.4972C62.517 79.485 62.546 79.4404 62.583 79.3955C62.6204 79.3503 62.6691 79.3131 62.7292 79.2833C62.7893 79.2527 62.8637 79.2373 62.9524 79.2373C63.0697 79.2373 63.1771 79.2678 63.2746 79.3293C63.3728 79.3897 63.4516 79.4813 63.5106 79.6039C63.57 79.7268 63.5996 79.88 63.5996 80.064C63.5996 80.2425 63.5707 80.3935 63.5135 80.5171C63.4563 80.6397 63.3786 80.7328 63.2801 80.7958C63.1829 80.8591 63.073 80.8908 62.951 80.8908C62.8652 80.8908 62.7919 80.8764 62.7318 80.8477C62.6717 80.819 62.6226 80.7829 62.5845 80.7398C62.5471 80.6957 62.5181 80.6519 62.4972 80.6077H62.4844V81.4661H62.0421ZM62.8106 80.537C62.8832 80.537 62.9444 80.5171 62.9938 80.4766C63.0437 80.4365 63.0814 80.3809 63.1071 80.3099C63.1327 80.2381 63.1456 80.1557 63.1456 80.0625C63.1456 79.9698 63.1327 79.8881 63.1071 79.8181C63.0822 79.7474 63.0451 79.6915 62.9953 79.6514C62.9458 79.6112 62.8843 79.591 62.8106 79.591C62.7391 79.591 62.6779 79.6105 62.6273 79.6499C62.5779 79.6882 62.5397 79.743 62.513 79.8141C62.487 79.884 62.4741 79.9668 62.4741 80.0625C62.4741 80.1575 62.4877 80.2403 62.5145 80.3114C62.5412 80.3824 62.5793 80.438 62.6288 80.4781C62.6794 80.5175 62.7402 80.537 62.8106 80.537ZM64.9051 79.8844V80.2322H64.0706V79.8844H64.9051ZM64.2165 79.2575V80.865H63.7942V79.2575H64.2165ZM65.1829 79.2575V80.865H64.7633V79.2575H65.1829Z" fill="#9FAFD5"/>
<path d="M65.3797 87.8589H13.8876V88.0429H65.3797V87.8589Z" stroke="#C5D2F1" stroke-width="0.5" stroke-dasharray="4 4"/>
<path d="M15.1613 97.7416C14.9251 97.7416 14.7134 97.6875 14.5261 97.5797C14.3387 97.4718 14.1908 97.3154 14.0822 97.1107C13.9737 96.9057 13.9194 96.6583 13.9194 96.3683C13.9194 96.076 13.9737 95.8272 14.0822 95.6225C14.192 95.4164 14.3405 95.2599 14.5279 95.1532C14.7163 95.0453 14.9275 94.9916 15.1613 94.9916C15.3164 94.9916 15.4602 95.0137 15.5926 95.0582C15.725 95.1013 15.8419 95.1646 15.9434 95.2485C16.0459 95.3313 16.1295 95.4329 16.1939 95.554C16.2583 95.674 16.2995 95.8113 16.3174 95.9656H15.7483C15.7376 95.8927 15.7161 95.8268 15.6839 95.7679C15.6528 95.7094 15.6117 95.6597 15.5604 95.6188C15.5103 95.578 15.4524 95.547 15.3868 95.5253C15.3224 95.5025 15.2514 95.4911 15.1739 95.4911C15.0379 95.4911 14.9179 95.5261 14.8142 95.5956C14.7116 95.6637 14.6316 95.7631 14.5744 95.8938C14.5183 96.0234 14.4902 96.1813 14.4902 96.3683C14.4902 96.5589 14.5189 96.7194 14.5762 96.8501C14.6334 96.9793 14.7134 97.0772 14.8159 97.1431C14.9186 97.209 15.0372 97.2418 15.1721 97.2418C15.2472 97.2418 15.317 97.2318 15.3814 97.2112C15.4459 97.191 15.5031 97.1615 15.5532 97.1232C15.6033 97.0849 15.6451 97.0382 15.6785 96.983C15.7131 96.9267 15.7364 96.8626 15.7483 96.7908H16.3174C16.303 96.9142 16.2666 97.0327 16.2082 97.1464C16.1509 97.2605 16.0728 97.3621 15.9738 97.4523C15.8747 97.5407 15.7572 97.6113 15.6212 97.6643C15.4852 97.7159 15.3319 97.7416 15.1613 97.7416ZM16.9616 98.4568C16.8912 98.4579 16.825 98.4532 16.7629 98.4425C16.7021 98.4318 16.652 98.4178 16.6126 98.4013L16.7379 97.986L16.7558 97.9894C16.8488 98.017 16.9282 98.0232 16.9938 98.0074C17.0606 97.993 17.1113 97.9404 17.1459 97.8495L17.1781 97.763L16.4623 95.6961H17.0439L17.4573 97.1718H17.4787L17.8975 95.6961H18.4827L17.706 97.9231C17.669 98.031 17.6183 98.1248 17.5539 98.2051C17.4907 98.2857 17.4108 98.3471 17.3141 98.3902C17.2175 98.4348 17.1 98.4568 16.9616 98.4568ZM19.8301 97.0908L20.3706 95.6961H20.7947L20.0163 97.7056H19.6476L18.8853 95.6961H19.3058L19.8301 97.0908ZM19.1788 95.6961V97.7056H18.6509V95.6961H19.1788ZM20.5102 97.7056V95.6961H21.0309V97.7056H20.5102ZM21.9257 97.7435C21.7992 97.7435 21.6853 97.721 21.5839 97.6768C21.4837 97.6312 21.4049 97.5642 21.3477 97.4755C21.2904 97.3868 21.2618 97.2767 21.2618 97.1449C21.2618 97.0323 21.282 96.9388 21.3226 96.8645C21.3632 96.789 21.4187 96.7279 21.489 96.6811C21.5594 96.6344 21.6394 96.5991 21.7288 96.5751C21.8183 96.5512 21.9131 96.5343 22.0134 96.5247C22.1291 96.514 22.2221 96.503 22.2925 96.4923C22.3629 96.4816 22.4142 96.4654 22.4464 96.4437C22.4798 96.4209 22.4965 96.3889 22.4965 96.3469V96.3377C22.4965 96.2553 22.4703 96.1908 22.4178 96.1456C22.3665 96.0999 22.2937 96.0771 22.1995 96.0771C22.1005 96.0771 22.0211 96.0992 21.9615 96.1437C21.903 96.1868 21.8643 96.242 21.8452 96.309L21.3316 96.2678C21.3578 96.1456 21.4091 96.0399 21.4854 95.9512C21.5618 95.8614 21.6602 95.7926 21.7807 95.7447C21.9024 95.6954 22.0432 95.6711 22.2031 95.6711C22.314 95.6711 22.4202 95.684 22.5216 95.7105C22.623 95.737 22.7131 95.7775 22.7918 95.8327C22.8717 95.8868 22.935 95.9567 22.9815 96.0429C23.028 96.1294 23.0513 96.2317 23.0513 96.3502V97.7056H22.5234V97.4251H22.5091C22.4768 97.4888 22.4339 97.5443 22.3802 97.5922C22.3265 97.6389 22.2621 97.6761 22.1869 97.7037C22.1118 97.7302 22.0247 97.7435 21.9257 97.7435ZM22.085 97.3588C22.1661 97.3588 22.2377 97.3426 22.2997 97.3102C22.3629 97.2767 22.4118 97.2322 22.4464 97.177C22.4822 97.1207 22.5001 97.0581 22.5001 96.9885V96.7746C22.4834 96.7853 22.4595 96.7956 22.4285 96.8052C22.3987 96.8148 22.3653 96.8232 22.3283 96.8302C22.2913 96.8376 22.2543 96.8442 22.2174 96.8501C22.1804 96.8549 22.147 96.8597 22.1172 96.8645C22.0515 96.874 21.9943 96.8895 21.9454 96.9112C21.8965 96.9315 21.8583 96.9598 21.8308 96.9955C21.8046 97.0305 21.7915 97.0743 21.7915 97.1269C21.7915 97.2024 21.8189 97.2598 21.8738 97.2992C21.9287 97.3389 21.999 97.3588 22.085 97.3588ZM24.1053 97.7056V95.6961H25.8519V97.7056H25.324V96.1345H24.6261V97.7056H24.1053ZM27.0777 97.7449C26.8761 97.7449 26.7013 97.7019 26.5534 97.6157C26.4066 97.5281 26.2933 97.407 26.2133 97.2528C26.1346 97.0967 26.0953 96.916 26.0953 96.7099C26.0953 96.5015 26.1346 96.3197 26.2133 96.1651C26.2933 96.0094 26.4066 95.8883 26.5534 95.8021C26.7013 95.7145 26.8761 95.6711 27.0777 95.6711C27.2805 95.6711 27.4553 95.7145 27.602 95.8021C27.7499 95.8883 27.8633 96.0094 27.942 96.1651C28.0219 96.3197 28.0619 96.5015 28.0619 96.7099C28.0619 96.916 28.0219 97.0967 27.942 97.2528C27.8633 97.407 27.7499 97.5281 27.602 97.6157C27.4553 97.7019 27.2805 97.7449 27.0777 97.7449ZM27.0813 97.3102C27.1731 97.3102 27.2501 97.2845 27.3121 97.2329C27.3742 97.1803 27.4207 97.1081 27.4517 97.0172C27.4839 96.9259 27.5 96.8225 27.5 96.7062C27.5 96.5888 27.4839 96.4853 27.4517 96.3951C27.4207 96.3053 27.3742 96.2346 27.3121 96.1831C27.2501 96.1316 27.1731 96.1058 27.0813 96.1058C26.9882 96.1058 26.9101 96.1316 26.8469 96.1831C26.7848 96.2346 26.7377 96.3053 26.7055 96.3951C26.6745 96.4853 26.659 96.5888 26.659 96.7062C26.659 96.8225 26.6745 96.9259 26.7055 97.0172C26.7377 97.1081 26.7848 97.1803 26.8469 97.2329C26.9101 97.2845 26.9882 97.3102 27.0813 97.3102ZM28.3071 97.7056V95.6961H28.86V96.4761H29.0175L29.5597 95.6961H30.2111L29.5043 96.6955L30.2183 97.7056H29.5597L29.0658 96.9937H28.86V97.7056H28.3071ZM30.705 98.4568C30.6346 98.4579 30.5684 98.4532 30.5064 98.4425C30.4456 98.4318 30.3955 98.4178 30.3561 98.4013L30.4813 97.986L30.4992 97.9894C30.5923 98.017 30.6716 98.0232 30.7372 98.0074C30.8041 97.993 30.8547 97.9404 30.8893 97.8495L30.9216 97.763L30.2058 95.6961H30.7873L31.2007 97.1718H31.2222L31.6409 95.6961H32.2261L31.4495 97.9231C31.4125 98.031 31.3618 98.1248 31.2974 98.2051C31.2341 98.2857 31.1542 98.3471 31.0576 98.3902C30.9609 98.4348 30.8434 98.4568 30.705 98.4568ZM32.3943 97.7056V95.6961H34.1409V97.7056H33.613V96.1345H32.9151V97.7056H32.3943ZM35.3667 97.7449C35.1651 97.7449 34.9903 97.7019 34.8424 97.6157C34.6957 97.5281 34.5823 97.407 34.5024 97.2528C34.4236 97.0967 34.3843 96.916 34.3843 96.7099C34.3843 96.5015 34.4236 96.3197 34.5024 96.1651C34.5823 96.0094 34.6957 95.8883 34.8424 95.8021C34.9903 95.7145 35.1651 95.6711 35.3667 95.6711C35.5695 95.6711 35.7443 95.7145 35.891 95.8021C36.039 95.8883 36.1523 96.0094 36.231 96.1651C36.311 96.3197 36.351 96.5015 36.351 96.7099C36.351 96.916 36.311 97.0967 36.231 97.2528C36.1523 97.407 36.039 97.5281 35.891 97.6157C35.7443 97.7019 35.5695 97.7449 35.3667 97.7449ZM35.3703 97.3102C35.4621 97.3102 35.5391 97.2845 35.6011 97.2329C35.6632 97.1803 35.7097 97.1081 35.7407 97.0172C35.7729 96.9259 35.7891 96.8225 35.7891 96.7062C35.7891 96.5888 35.7729 96.4853 35.7407 96.3951C35.7097 96.3053 35.6632 96.2346 35.6011 96.1831C35.5391 96.1316 35.4621 96.1058 35.3703 96.1058C35.2772 96.1058 35.1991 96.1316 35.1359 96.1831C35.0738 96.2346 35.0267 96.3053 34.9945 96.3951C34.9635 96.4853 34.9479 96.5888 34.9479 96.7062C34.9479 96.8225 34.9635 96.9259 34.9945 97.0172C35.0267 97.1081 35.0738 97.1803 35.1359 97.2329C35.1991 97.2845 35.2772 97.3102 35.3703 97.3102ZM36.5961 97.7056V95.6961H37.1491V96.4761H37.3065L37.8488 95.6961H38.5001L37.7933 96.6955L38.5074 97.7056H37.8488L37.3549 96.9937H37.1491V97.7056H36.5961Z" fill="#1F2024"/>
<path d="M48.7138 97.7416C48.4873 97.7416 48.2935 97.6875 48.1322 97.5797C47.9724 97.4707 47.8496 97.3143 47.7639 97.1107C47.6789 96.9057 47.6367 96.6583 47.6367 96.3683C47.6367 96.0797 47.6796 95.8327 47.7654 95.6276C47.8515 95.4219 47.9743 95.2643 48.134 95.155C48.2953 95.0461 48.4884 94.9916 48.7138 94.9916C48.9407 94.9916 49.1338 95.0461 49.2936 95.155C49.4549 95.2643 49.5777 95.4211 49.6623 95.6262C49.7484 95.8308 49.7913 96.0782 49.7913 96.3683C49.7913 96.6583 49.7488 96.9057 49.6641 97.1107C49.5795 97.3143 49.4567 97.4707 49.2955 97.5797C49.1357 97.6875 48.9418 97.7416 48.7138 97.7416ZM48.7138 97.2741C48.8227 97.2741 48.9139 97.2396 48.9876 97.17C49.0631 97.0993 49.1195 96.9962 49.1577 96.8608C49.1972 96.7253 49.2167 96.5611 49.2167 96.3683C49.2167 96.1743 49.1972 96.0094 49.1577 95.8739C49.1195 95.7388 49.0631 95.6357 48.9876 95.5651C48.9139 95.4929 48.8227 95.4572 48.7138 95.4572C48.5529 95.4572 48.4287 95.5367 48.3418 95.6961C48.2546 95.8544 48.211 96.0782 48.211 96.3683C48.211 96.5611 48.2301 96.7253 48.2685 96.8608C48.3078 96.9962 48.3649 97.0993 48.4401 97.17C48.5152 97.2396 48.6065 97.2741 48.7138 97.2741ZM51.1155 97.7416C50.889 97.7416 50.6951 97.6875 50.5338 97.5797C50.374 97.4707 50.2513 97.3143 50.1651 97.1107C50.0805 96.9057 50.0383 96.6583 50.0383 96.3683C50.0383 96.0797 50.0812 95.8327 50.167 95.6276C50.2531 95.4219 50.3759 95.2643 50.5357 95.155C50.6969 95.0461 50.8901 94.9916 51.1155 94.9916C51.3423 94.9916 51.5355 95.0461 51.6952 95.155C51.8565 95.2643 51.9793 95.4211 52.0639 95.6262C52.1497 95.8308 52.1929 96.0782 52.1929 96.3683C52.1929 96.6583 52.1504 96.9057 52.0658 97.1107C51.9811 97.3143 51.858 97.4707 51.6971 97.5797C51.5373 97.6875 51.3434 97.7416 51.1155 97.7416ZM51.1155 97.2741C51.2239 97.2741 51.3152 97.2396 51.3892 97.17C51.4644 97.0993 51.5212 96.9962 51.5593 96.8608C51.5985 96.7253 51.6183 96.5611 51.6183 96.3683C51.6183 96.1743 51.5985 96.0094 51.5593 95.8739C51.5212 95.7388 51.4644 95.6357 51.3892 95.5651C51.3152 95.4929 51.2239 95.4572 51.1155 95.4572C50.9546 95.4572 50.8303 95.5367 50.7431 95.6961C50.6562 95.8544 50.6126 96.0782 50.6126 96.3683C50.6126 96.5611 50.6317 96.7253 50.6698 96.8608C50.7094 96.9962 50.7666 97.0993 50.8417 97.17C50.9168 97.2396 51.0081 97.2741 51.1155 97.2741ZM53.5171 97.7416C53.2902 97.7416 53.0963 97.6875 52.9355 97.5797C52.7757 97.4707 52.6525 97.3143 52.5668 97.1107C52.4821 96.9057 52.4396 96.6583 52.4396 96.3683C52.4396 96.0797 52.4828 95.8327 52.5686 95.6276C52.6544 95.4219 52.7775 95.2643 52.9373 95.155C53.0982 95.0461 53.2917 94.9916 53.5171 94.9916C53.7436 94.9916 53.9371 95.0461 54.0969 95.155C54.2578 95.2643 54.3809 95.4211 54.4656 95.6262C54.5513 95.8308 54.5942 96.0782 54.5942 96.3683C54.5942 96.6583 54.5521 96.9057 54.4674 97.1107C54.3824 97.3143 54.2596 97.4707 54.0987 97.5797C53.9389 97.6875 53.745 97.7416 53.5171 97.7416ZM53.5171 97.2741C53.6256 97.2741 53.7168 97.2396 53.7908 97.17C53.866 97.0993 53.9228 96.9962 53.9609 96.8608C54.0001 96.7253 54.0199 96.5611 54.0199 96.3683C54.0199 96.1743 54.0001 96.0094 53.9609 95.8739C53.9228 95.7388 53.866 95.6357 53.7908 95.5651C53.7168 95.4929 53.6256 95.4572 53.5171 95.4572C53.3558 95.4572 53.2319 95.5367 53.1447 95.6961C53.0579 95.8544 53.0142 96.0782 53.0142 96.3683C53.0142 96.5611 53.0333 96.7253 53.0714 96.8608C53.1106 96.9962 53.1682 97.0993 53.2433 97.17C53.3184 97.2396 53.4097 97.2741 53.5171 97.2741ZM55.1689 97.7398C55.0805 97.7398 55.0058 97.7096 54.9449 97.65C54.8841 97.59 54.8537 97.5156 54.8537 97.4269C54.8537 97.3382 54.8841 97.2638 54.9449 97.2042C55.0058 97.1442 55.0805 97.1144 55.1689 97.1144C55.2572 97.1144 55.3316 97.1442 55.3924 97.2042C55.4533 97.2638 55.4837 97.3382 55.4837 97.4269C55.4837 97.5156 55.4533 97.59 55.3924 97.65C55.3316 97.7096 55.2572 97.7398 55.1689 97.7398ZM56.8206 97.7416C56.5938 97.7416 56.3999 97.6875 56.239 97.5797C56.0789 97.4707 55.9561 97.3143 55.8703 97.1107C55.7857 96.9057 55.7431 96.6583 55.7431 96.3683C55.7431 96.0797 55.786 95.8327 55.8722 95.6276C55.9579 95.4219 56.0807 95.2643 56.2405 95.155C56.4017 95.0461 56.5949 94.9916 56.8206 94.9916C57.0471 94.9916 57.2403 95.0461 57.4004 95.155C57.5613 95.2643 57.6841 95.4211 57.7688 95.6262C57.8549 95.8308 57.8978 96.0782 57.8978 96.3683C57.8978 96.6583 57.8552 96.9057 57.7706 97.1107C57.6859 97.3143 57.5631 97.4707 57.4019 97.5797C57.2421 97.6875 57.0482 97.7416 56.8206 97.7416ZM56.8206 97.2741C56.9291 97.2741 57.0204 97.2396 57.0944 97.17C57.1695 97.0993 57.226 96.9962 57.2641 96.8608C57.3037 96.7253 57.3235 96.5611 57.3235 96.3683C57.3235 96.1743 57.3037 96.0094 57.2641 95.8739C57.226 95.7388 57.1695 95.6357 57.0944 95.5651C57.0204 95.4929 56.9291 95.4572 56.8206 95.4572C56.6594 95.4572 56.5355 95.5367 56.4483 95.6961C56.3611 95.8544 56.3174 96.0782 56.3174 96.3683C56.3174 96.5611 56.3369 96.7253 56.375 96.8608C56.4142 96.9962 56.4714 97.0993 56.5465 97.17C56.622 97.2396 56.7133 97.2741 56.8206 97.2741ZM59.2219 97.7416C58.9954 97.7416 58.8015 97.6875 58.6403 97.5797C58.4805 97.4707 58.3577 97.3143 58.2716 97.1107C58.1869 96.9057 58.1448 96.6583 58.1448 96.3683C58.1448 96.0797 58.1877 95.8327 58.2734 95.6276C58.3595 95.4219 58.4823 95.2643 58.6421 95.155C58.8034 95.0461 58.9965 94.9916 59.2219 94.9916C59.4488 94.9916 59.6419 95.0461 59.8017 95.155C59.9629 95.2643 60.0857 95.4211 60.1704 95.6262C60.2565 95.8308 60.2994 96.0782 60.2994 96.3683C60.2994 96.6583 60.2569 96.9057 60.1722 97.1107C60.0876 97.3143 59.9648 97.4707 59.8035 97.5797C59.6437 97.6875 59.4499 97.7416 59.2219 97.7416ZM59.2219 97.2741C59.3304 97.2741 59.4216 97.2396 59.4957 97.17C59.5708 97.0993 59.6276 96.9962 59.6657 96.8608C59.7053 96.7253 59.7247 96.5611 59.7247 96.3683C59.7247 96.1743 59.7053 96.0094 59.6657 95.8739C59.6276 95.7388 59.5708 95.6357 59.4957 95.5651C59.4216 95.4929 59.3304 95.4572 59.2219 95.4572C59.061 95.4572 58.9368 95.5367 58.8499 95.6961C58.7627 95.8544 58.7191 96.0782 58.7191 96.3683C58.7191 96.5611 58.7381 96.7253 58.7762 96.8608C58.8158 96.9962 58.873 97.0993 58.9481 97.17C59.0233 97.2396 59.1145 97.2741 59.2219 97.2741ZM62.2293 96.0981V96.4489H61.5652V97.7056H61.1372V96.0981H62.2293ZM62.4085 98.3067V96.0981H62.8436V96.3697H62.8637C62.8835 96.3256 62.9125 96.281 62.9495 96.2361C62.9869 96.1908 63.0356 96.1537 63.0957 96.1238C63.1558 96.0933 63.2302 96.0778 63.3189 96.0778C63.4362 96.0778 63.5436 96.1084 63.6411 96.1699C63.7393 96.2302 63.8181 96.3219 63.8771 96.4445C63.9364 96.5674 63.9661 96.7205 63.9661 96.9046C63.9661 97.0831 63.9372 97.234 63.88 97.3577C63.8228 97.4803 63.7451 97.5734 63.6466 97.6364C63.5494 97.6997 63.4395 97.7313 63.3174 97.7313C63.2317 97.7313 63.1584 97.717 63.0983 97.6883C63.0382 97.6595 62.9891 97.6235 62.951 97.5804C62.9136 97.5362 62.8846 97.4924 62.8637 97.4483H62.8509V98.3067H62.4085ZM63.1771 97.3776C63.2496 97.3776 63.3109 97.3577 63.3603 97.3172C63.4102 97.2771 63.4479 97.2215 63.4736 97.1505C63.4992 97.0787 63.5121 96.9962 63.5121 96.9031C63.5121 96.8103 63.4992 96.7286 63.4736 96.6587C63.4486 96.588 63.4116 96.5321 63.3618 96.4919C63.3123 96.4518 63.2507 96.4316 63.1771 96.4316C63.1056 96.4316 63.0444 96.4511 62.9938 96.4905C62.9444 96.5288 62.9062 96.5836 62.8795 96.6546C62.8535 96.7246 62.8406 96.8074 62.8406 96.9031C62.8406 96.9981 62.8542 97.0809 62.881 97.1519C62.9077 97.223 62.9458 97.2786 62.9953 97.3187C63.0459 97.3581 63.1067 97.3776 63.1771 97.3776ZM65.2716 96.7249V97.0728H64.4371V96.7249H65.2716ZM64.5829 96.0981V97.7056H64.1607V96.0981H64.5829ZM65.5494 96.0981V97.7056H65.1297V96.0981H65.5494Z" fill="#9FAFD5"/>
<path d="M13.8228 108.658V107.561H14.0053C14.0661 107.517 14.1222 107.454 14.1735 107.373C14.2248 107.291 14.269 107.178 14.3059 107.035C14.3429 106.89 14.3686 106.7 14.3829 106.467L14.4598 105.334H16.2225V107.561H16.5142V108.656H15.972V108.012H14.365V108.658H13.8228ZM14.6549 107.561H15.6803V105.801H14.9645L14.9251 106.467C14.9132 106.643 14.8941 106.8 14.8678 106.937C14.8428 107.074 14.8124 107.194 14.7766 107.297C14.7408 107.399 14.7002 107.487 14.6549 107.561ZM17.2908 108.05C17.1644 108.05 17.0505 108.028 16.949 107.984C16.8488 107.938 16.7701 107.871 16.7128 107.782C16.6556 107.693 16.6269 107.583 16.6269 107.452C16.6269 107.339 16.6472 107.246 16.6878 107.171C16.7283 107.096 16.7838 107.035 16.8542 106.988C16.9246 106.941 17.0045 106.906 17.094 106.882C17.1835 106.858 17.2783 106.841 17.3785 106.831C17.4942 106.821 17.5873 106.81 17.6577 106.799C17.7281 106.788 17.7794 106.772 17.8116 106.75C17.845 106.728 17.8617 106.696 17.8617 106.654V106.644C17.8617 106.562 17.8354 106.498 17.783 106.452C17.7317 106.407 17.6589 106.384 17.5646 106.384C17.4656 106.384 17.3863 106.406 17.3266 106.45C17.2682 106.493 17.2294 106.549 17.2103 106.616L16.6967 106.574C16.723 106.452 16.7743 106.347 16.8506 106.258C16.927 106.168 17.0254 106.099 17.1459 106.051C17.2676 106.002 17.4084 105.978 17.5682 105.978C17.6792 105.978 17.7853 105.991 17.8868 106.017C17.9882 106.044 18.0782 106.084 18.157 106.139C18.2369 106.193 18.3001 106.263 18.3467 106.35C18.3932 106.436 18.4164 106.538 18.4164 106.657V108.012H17.8885V107.732H17.8742C17.842 107.795 17.7991 107.851 17.7454 107.899C17.6917 107.946 17.6273 107.983 17.5521 108.01C17.4769 108.037 17.3899 108.05 17.2908 108.05ZM17.4501 107.666C17.5313 107.666 17.6028 107.649 17.6648 107.617C17.7281 107.583 17.777 107.539 17.8116 107.484C17.8474 107.427 17.8653 107.365 17.8653 107.295V107.081C17.8486 107.092 17.8247 107.102 17.7937 107.112C17.7639 107.121 17.7305 107.13 17.6935 107.137C17.6565 107.144 17.6195 107.151 17.5825 107.157C17.5455 107.162 17.5122 107.166 17.4823 107.171C17.4167 107.181 17.3594 107.196 17.3105 107.218C17.2616 107.238 17.2234 107.267 17.196 107.302C17.1697 107.337 17.1566 107.381 17.1566 107.434C17.1566 107.509 17.1841 107.566 17.2389 107.606C17.2938 107.646 17.3642 107.666 17.4501 107.666ZM18.5382 106.441V106.003H20.3473V106.441H19.7049V108.012H19.177V106.441H18.5382ZM21.0667 108.05C20.9403 108.05 20.8263 108.028 20.7249 107.984C20.6247 107.938 20.546 107.871 20.4887 107.782C20.4315 107.693 20.4028 107.583 20.4028 107.452C20.4028 107.339 20.4231 107.246 20.4637 107.171C20.5042 107.096 20.5597 107.035 20.6301 106.988C20.7005 106.941 20.7804 106.906 20.8699 106.882C20.9593 106.858 21.0542 106.841 21.1544 106.831C21.2701 106.821 21.3632 106.81 21.4336 106.799C21.504 106.788 21.5553 106.772 21.5875 106.75C21.6209 106.728 21.6376 106.696 21.6376 106.654V106.644C21.6376 106.562 21.6113 106.498 21.5588 106.452C21.5075 106.407 21.4348 106.384 21.3405 106.384C21.2415 106.384 21.1622 106.406 21.1025 106.45C21.044 106.493 21.0053 106.549 20.9862 106.616L20.4726 106.574C20.4989 106.452 20.5502 106.347 20.6265 106.258C20.7028 106.168 20.8013 106.099 20.9218 106.051C21.0435 106.002 21.1842 105.978 21.3441 105.978C21.455 105.978 21.5612 105.991 21.6626 106.017C21.764 106.044 21.8541 106.084 21.9328 106.139C22.0128 106.193 22.076 106.263 22.1225 106.35C22.1691 106.436 22.1923 106.538 22.1923 106.657V108.012H21.6644V107.732H21.6501C21.6179 107.795 21.5749 107.851 21.5213 107.899C21.4676 107.946 21.4031 107.983 21.328 108.01C21.2528 108.037 21.1657 108.05 21.0667 108.05ZM21.226 107.666C21.3071 107.666 21.3787 107.649 21.4407 107.617C21.504 107.583 21.5529 107.539 21.5875 107.484C21.6233 107.427 21.6411 107.365 21.6411 107.295V107.081C21.6245 107.092 21.6006 107.102 21.5696 107.112C21.5398 107.121 21.5063 107.13 21.4694 107.137C21.4324 107.144 21.3954 107.151 21.3584 107.157C21.3214 107.162 21.288 107.166 21.2582 107.171C21.1926 107.181 21.1353 107.196 21.0864 107.218C21.0375 107.238 20.9993 107.267 20.9719 107.302C20.9456 107.337 20.9325 107.381 20.9325 107.434C20.9325 107.509 20.9599 107.566 21.0148 107.606C21.0697 107.646 21.1401 107.666 21.226 107.666Z" fill="#1F2024"/>
<path d="M40.2685 106.787V107.222H39.2255V106.787H40.2685ZM39.408 106.003V108.012H38.8799V106.003H39.408ZM40.616 106.003V108.012H40.0915V106.003H40.616ZM41.8525 108.052C41.6473 108.052 41.4699 108.01 41.3207 107.926C41.1719 107.842 41.0572 107.723 40.9773 107.568C40.8985 107.413 40.8593 107.229 40.8593 107.017C40.8593 106.81 40.8985 106.629 40.9773 106.474C41.0572 106.318 41.1694 106.196 41.3138 106.109C41.4593 106.021 41.63 105.978 41.8254 105.978C41.9581 105.978 42.0816 105.999 42.1959 106.042C42.3106 106.084 42.4107 106.148 42.4964 106.233C42.5826 106.317 42.6493 106.423 42.6969 106.551C42.7449 106.678 42.7687 106.827 42.7687 106.999V107.149H41.0792V106.806H42.5001L42.2424 106.896C42.2424 106.794 42.2271 106.706 42.1959 106.63C42.1651 106.555 42.1186 106.496 42.0563 106.456C41.9954 106.414 41.9199 106.393 41.829 106.393C41.7385 106.393 41.6616 106.414 41.5982 106.456C41.5362 106.498 41.4886 106.555 41.4552 106.626C41.4219 106.699 41.405 106.781 41.405 106.875V107.117C41.405 107.226 41.4241 107.32 41.4622 107.398C41.5003 107.474 41.5534 107.534 41.6216 107.575C41.6909 107.616 41.77 107.636 41.8595 107.636C41.9214 107.636 41.9775 107.628 42.0277 107.61C42.0779 107.592 42.1208 107.565 42.1567 107.53C42.1937 107.496 42.2212 107.454 42.2388 107.405L42.7508 107.439C42.7259 107.562 42.6731 107.67 42.5932 107.762C42.5144 107.854 42.4125 107.925 42.2872 107.976C42.1618 108.027 42.0171 108.052 41.8525 108.052ZM44.6367 108.052C44.433 108.052 44.2574 108.008 44.1108 107.921C43.9639 107.832 43.8513 107.71 43.7726 107.556C43.6938 107.4 43.6545 107.22 43.6545 107.017C43.6545 106.81 43.6938 106.629 43.7726 106.474C43.8524 106.318 43.9657 106.196 44.1127 106.109C44.2593 106.021 44.4341 105.978 44.6367 105.978C44.8112 105.978 44.9633 106.009 45.093 106.073C45.2246 106.136 45.3283 106.226 45.4045 106.341C45.4808 106.456 45.5226 106.591 45.5299 106.747H45.0073C44.9977 106.68 44.9776 106.621 44.9464 106.571C44.9153 106.52 44.8742 106.481 44.8229 106.454C44.7716 106.427 44.7119 106.413 44.6441 106.413C44.5583 106.413 44.4828 106.436 44.4187 106.483C44.3553 106.528 44.3058 106.596 44.2699 106.686C44.2354 106.774 44.2182 106.882 44.2182 107.009C44.2182 107.136 44.2354 107.246 44.2699 107.336C44.3058 107.427 44.3553 107.497 44.4187 107.545C44.4828 107.593 44.5583 107.617 44.6441 107.617C44.7394 107.617 44.82 107.587 44.8856 107.527C44.9512 107.466 44.9919 107.382 45.0073 107.275H45.5299C45.5215 107.429 45.4804 107.564 45.4064 107.682C45.3323 107.798 45.2305 107.889 45.1004 107.955C44.9702 108.02 44.816 108.052 44.6367 108.052ZM45.5746 106.441V106.003H47.3836V106.441H46.7415V108.012H46.2134V106.441H45.5746ZM48.103 108.05C47.9766 108.05 47.8626 108.028 47.7615 107.984C47.661 107.938 47.5822 107.871 47.5251 107.782C47.4679 107.694 47.4393 107.583 47.4393 107.452C47.4393 107.339 47.4595 107.246 47.5001 107.171C47.5408 107.096 47.5962 107.035 47.6665 106.988C47.7369 106.941 47.8168 106.906 47.9062 106.882C47.9956 106.858 48.0906 106.841 48.191 106.831C48.3064 106.821 48.3995 106.81 48.4699 106.799C48.5402 106.788 48.5916 106.772 48.6238 106.75C48.6572 106.728 48.674 106.696 48.674 106.654V106.644C48.674 106.562 48.6476 106.498 48.5952 106.452C48.5439 106.407 48.4713 106.384 48.3768 106.384C48.2778 106.384 48.1987 106.406 48.1389 106.45C48.0807 106.494 48.0418 106.549 48.0228 106.616L47.5089 106.575C47.5353 106.452 47.5866 106.347 47.6629 106.258C47.7395 106.168 47.8377 106.099 47.9583 106.051C48.0799 106.002 48.2207 105.978 48.3805 105.978C48.4915 105.978 48.5978 105.991 48.6989 106.017C48.8005 106.044 48.8906 106.084 48.9694 106.139C49.0493 106.194 49.1123 106.263 49.1589 106.35C49.2054 106.436 49.2289 106.538 49.2289 106.657V108.012H48.7008V107.732H48.6865C48.6542 107.796 48.6113 107.851 48.5578 107.899C48.504 107.946 48.4395 107.983 48.3643 108.01C48.2892 108.037 48.2023 108.05 48.103 108.05ZM48.2624 107.666C48.3434 107.666 48.4153 107.649 48.4772 107.617C48.5402 107.583 48.5894 107.539 48.6238 107.484C48.6597 107.427 48.6777 107.365 48.6777 107.295V107.081C48.6608 107.092 48.637 107.102 48.6059 107.112C48.5762 107.122 48.5428 107.13 48.5058 107.137C48.4688 107.144 48.4318 107.151 48.3948 107.157C48.3577 107.162 48.3244 107.166 48.2947 107.171C48.2291 107.181 48.1719 107.196 48.1228 107.218C48.0741 107.238 48.0356 107.267 48.0085 107.302C47.9821 107.337 47.9689 107.381 47.9689 107.434C47.9689 107.509 47.9964 107.567 48.0513 107.606C48.106 107.646 48.1767 107.666 48.2624 107.666ZM49.5525 108.764V106.003H50.0967V106.343H50.1217C50.1469 106.287 50.1825 106.232 50.229 106.176C50.2756 106.119 50.3364 106.072 50.4116 106.035C50.4867 105.997 50.5798 105.978 50.6908 105.978C50.8374 105.978 50.9719 106.016 51.0936 106.093C51.2164 106.168 51.3146 106.283 51.3886 106.436C51.4627 106.589 51.4997 106.781 51.4997 107.011C51.4997 107.234 51.4638 107.423 51.3923 107.577C51.3208 107.731 51.2233 107.847 51.1006 107.926C50.9789 108.005 50.8418 108.045 50.689 108.045C50.5816 108.045 50.4904 108.027 50.4152 107.991C50.3401 107.955 50.2785 107.91 50.2309 107.856C50.1843 107.801 50.148 107.746 50.1217 107.691H50.1055V108.764H49.5525ZM50.5138 107.603C50.6043 107.603 50.6806 107.577 50.7425 107.527C50.8048 107.477 50.8517 107.407 50.884 107.318C50.9162 107.229 50.9323 107.126 50.9323 107.009C50.9323 106.893 50.9162 106.791 50.884 106.704C50.8532 106.615 50.8066 106.546 50.7443 106.495C50.6824 106.445 50.6054 106.42 50.5138 106.42C50.424 106.42 50.3478 106.445 50.2844 106.494C50.2224 106.541 50.1748 106.61 50.1415 106.699C50.1092 106.786 50.0931 106.89 50.0931 107.009C50.0931 107.128 50.1099 107.232 50.1433 107.32C50.1766 107.409 50.2243 107.479 50.2862 107.529C50.3496 107.578 50.4255 107.603 50.5138 107.603ZM51.743 106.003H52.2708V107.572H52.8348V106.003H53.3626V107.572H53.9281V106.003H54.4576V108.012H51.743V106.003ZM55.696 108.052C55.4908 108.052 55.3138 108.01 55.1646 107.926C55.0154 107.842 54.9011 107.723 54.8208 107.568C54.7424 107.413 54.7028 107.229 54.7028 107.017C54.7028 106.81 54.7424 106.629 54.8208 106.474C54.9011 106.318 55.0132 106.196 55.1573 106.109C55.3031 106.021 55.4735 105.978 55.6693 105.978C55.8016 105.978 55.9251 105.999 56.0398 106.042C56.1541 106.084 56.2545 106.148 56.3403 106.233C56.4261 106.317 56.4931 106.423 56.5408 106.551C56.5884 106.678 56.6122 106.827 56.6122 106.999V107.149H54.9231V106.806H56.344L56.0863 106.896C56.0863 106.794 56.0706 106.706 56.0398 106.63C56.0086 106.555 55.9621 106.496 55.9001 106.456C55.8393 106.414 55.7634 106.393 55.6729 106.393C55.582 106.393 55.5051 106.414 55.442 106.456C55.3797 106.498 55.3321 106.555 55.2987 106.626C55.2654 106.699 55.2485 106.781 55.2485 106.875V107.117C55.2485 107.226 55.2679 107.32 55.3061 107.398C55.3442 107.474 55.3973 107.534 55.4651 107.575C55.5344 107.616 55.6139 107.636 55.7033 107.636C55.7653 107.636 55.8214 107.628 55.8716 107.61C55.9214 107.592 55.9646 107.565 56.0002 107.53C56.0372 107.496 56.0647 107.454 56.0827 107.405L56.5943 107.439C56.5694 107.562 56.517 107.67 56.4371 107.762C56.3583 107.854 56.256 107.925 56.131 107.976C56.0057 108.027 55.8606 108.052 55.696 108.052ZM57.6787 108.012L58.783 105.816V105.798H57.4962V105.334H59.3683V105.805L58.2622 108.012H57.6787ZM60.1734 108.6V107.572H60.3274C60.3702 107.543 60.4062 107.499 60.4347 107.439C60.4633 107.378 60.4861 107.306 60.5026 107.223C60.5205 107.14 60.5344 107.049 60.544 106.954C60.5546 106.858 60.5634 106.761 60.5707 106.662L60.6242 106.003H62.1562V107.572H62.4677V108.6H61.9377V108.012H60.7155V108.6H60.1734ZM60.8804 107.572H61.6336V106.432H61.0952L61.0736 106.662C61.0593 106.877 61.0384 107.059 61.0109 107.209C60.9834 107.357 60.9398 107.479 60.8804 107.572ZM62.6733 108.012V106.003H63.2263V108.012H62.6733ZM62.9489 105.746C62.8668 105.746 62.7961 105.718 62.7378 105.663C62.6792 105.608 62.6502 105.542 62.6502 105.464C62.6502 105.386 62.6792 105.32 62.7378 105.266C62.7961 105.211 62.8668 105.183 62.9489 105.183C63.0324 105.183 63.1035 105.211 63.1618 105.266C63.2205 105.32 63.2494 105.386 63.2494 105.464C63.2494 105.542 63.2205 105.608 63.1618 105.663C63.1035 105.718 63.0324 105.746 62.9489 105.746ZM65.209 105.266L65.3791 105.631C65.323 105.677 65.2604 105.712 65.1911 105.735C65.1233 105.757 65.0416 105.771 64.9459 105.778C64.8517 105.785 64.7359 105.79 64.5988 105.793C64.4449 105.794 64.3192 105.819 64.2213 105.868C64.1246 105.916 64.0513 105.991 64.0011 106.093C63.9512 106.195 63.9175 106.328 63.901 106.492H63.9223C63.9809 106.369 64.0645 106.276 64.173 106.21C64.2826 106.142 64.4174 106.109 64.5776 106.109C64.748 106.109 64.8972 106.147 65.0247 106.222C65.1526 106.297 65.2519 106.404 65.3238 106.544C65.3952 106.684 65.4304 106.852 65.4293 107.047C65.4304 107.251 65.3916 107.428 65.3128 107.579C65.2343 107.73 65.1215 107.846 64.9749 107.928C64.829 108.009 64.6556 108.051 64.4541 108.052C64.151 108.051 63.9117 107.955 63.7365 107.764C63.5609 107.572 63.4726 107.295 63.4715 106.93V106.767C63.4726 106.283 63.5668 105.924 63.7541 105.69C63.9413 105.457 64.2177 105.338 64.5827 105.334C64.6806 105.333 64.7696 105.333 64.8495 105.334C64.9294 105.334 64.999 105.33 65.0588 105.322C65.1196 105.313 65.1698 105.295 65.209 105.266ZM64.4555 107.621C64.5417 107.621 64.615 107.598 64.6758 107.554C64.7366 107.508 64.7839 107.444 64.8173 107.362C64.8506 107.279 64.8667 107.181 64.8656 107.067C64.8667 106.952 64.8506 106.855 64.8173 106.776C64.7839 106.696 64.7359 106.635 64.674 106.593C64.6131 106.551 64.5398 106.53 64.4541 106.53C64.3896 106.53 64.3317 106.541 64.2804 106.565C64.229 106.589 64.1854 106.625 64.1499 106.671C64.114 106.717 64.0865 106.773 64.0674 106.839C64.0484 106.905 64.0381 106.981 64.037 107.067C64.037 107.237 64.074 107.372 64.1481 107.471C64.2232 107.571 64.3258 107.621 64.4555 107.621Z" fill="#9FAFD5"/>
</g>
<path d="M73.6191 12.4349V8.66851C73.6191 5.82238 71.3219 3.51514 68.4882 3.51514H64.7383" stroke="#FFFBFB" stroke-width="4" stroke-linecap="round" stroke-linejoin="round"/>
<path d="M73.6191 12.4349V8.66851C73.6191 5.82238 71.3219 3.51514 68.4882 3.51514H64.7383" stroke="url(#paint0_linear_1_709)" stroke-width="4" stroke-linecap="round" stroke-linejoin="round"/>
<path d="M73.6191 12.4349V8.66851C73.6191 5.82238 71.3219 3.51514 68.4882 3.51514H64.7383" stroke="url(#paint1_linear_1_709)" stroke-width="4" stroke-linecap="round" stroke-linejoin="round"/>
<path d="M15.0224 3.51514H11.2725C8.43877 3.51514 6.1416 5.82238 6.1416 8.66851V12.4349" stroke="#FFFBFB" stroke-width="4" stroke-linecap="round" stroke-linejoin="round"/>
<path d="M15.0224 3.51514H11.2725C8.43877 3.51514 6.1416 5.82238 6.1416 8.66851V12.4349" stroke="url(#paint2_linear_1_709)" stroke-width="4" stroke-linecap="round" stroke-linejoin="round"/>
<path d="M15.0224 3.51514H11.2725C8.43877 3.51514 6.1416 5.82238 6.1416 8.66851V12.4349" stroke="url(#paint3_linear_1_709)" stroke-width="4" stroke-linecap="round" stroke-linejoin="round"/>
<path d="M6.1416 111.325V115.092C6.1416 117.938 8.43877 120.245 11.2725 120.245H15.0224" stroke="#FFFBFB" stroke-width="4" stroke-linecap="round" stroke-linejoin="round"/>
<path d="M6.1416 111.325V115.092C6.1416 117.938 8.43877 120.245 11.2725 120.245H15.0224" stroke="url(#paint4_linear_1_709)" stroke-width="4" stroke-linecap="round" stroke-linejoin="round"/>
<path d="M6.1416 111.325V115.092C6.1416 117.938 8.43877 120.245 11.2725 120.245H15.0224" stroke="url(#paint5_linear_1_709)" stroke-width="4" stroke-linecap="round" stroke-linejoin="round"/>
<path d="M64.7383 120.245H68.4882C71.3219 120.245 73.6191 117.938 73.6191 115.092V111.325" stroke="#FFFBFB" stroke-width="4" stroke-linecap="round" stroke-linejoin="round"/>
<path d="M64.7383 120.245H68.4882C71.3219 120.245 73.6191 117.938 73.6191 115.092V111.325" stroke="url(#paint6_linear_1_709)" stroke-width="4" stroke-linecap="round" stroke-linejoin="round"/>
<path d="M64.7383 120.245H68.4882C71.3219 120.245 73.6191 117.938 73.6191 115.092V111.325" stroke="url(#paint7_linear_1_709)" stroke-width="4" stroke-linecap="round" stroke-linejoin="round"/>
<g filter="url(#filter1_d_1_709)">
<circle cx="39" cy="116" r="11" fill="url(#paint8_linear_1_709)"/>
</g>
<path d="M34.9444 118.412C34.9444 118.136 34.7206 117.912 34.4444 117.912H34.375C34.0989 117.912 33.875 118.136 33.875 118.412V120.054C33.875 120.642 34.3563 121.124 34.9444 121.124H36.5833C36.8595 121.124 37.0833 120.9 37.0833 120.624V120.554C37.0833 120.277 36.8595 120.054 36.5833 120.054H35.4444C35.1683 120.054 34.9444 119.83 34.9444 119.554V118.412ZM34.9444 112.184C34.9444 111.908 35.1683 111.684 35.4444 111.684H36.5833C36.8595 111.684 37.0833 111.46 37.0833 111.184V111.113C37.0833 110.837 36.8595 110.613 36.5833 110.613H34.9444C34.3563 110.613 33.875 111.095 33.875 111.684V113.325C33.875 113.601 34.0989 113.825 34.375 113.825H34.4444C34.7206 113.825 34.9444 113.601 34.9444 113.325V112.184ZM39.125 113.728C37.9433 113.728 36.9861 114.686 36.9861 115.869C36.9861 117.052 37.9433 118.01 39.125 118.01C40.3067 118.01 41.2639 117.052 41.2639 115.869C41.2639 114.686 40.3067 113.728 39.125 113.728ZM39.125 116.939C38.5368 116.939 38.0556 116.457 38.0556 115.869C38.0556 115.28 38.5368 114.798 39.125 114.798C39.7132 114.798 40.1944 115.28 40.1944 115.869C40.1944 116.457 39.7132 116.939 39.125 116.939ZM43.3056 110.613H41.6667C41.3905 110.613 41.1667 110.837 41.1667 111.113V111.184C41.1667 111.46 41.3905 111.684 41.6667 111.684H42.8056C43.0817 111.684 43.3056 111.908 43.3056 112.184V113.325C43.3056 113.601 43.5294 113.825 43.8056 113.825H43.875C44.1511 113.825 44.375 113.601 44.375 113.325V111.684C44.375 111.095 43.8938 110.613 43.3056 110.613ZM43.3056 119.554C43.3056 119.83 43.0817 120.054 42.8056 120.054H41.6667C41.3905 120.054 41.1667 120.277 41.1667 120.554V120.624C41.1667 120.9 41.3905 121.124 41.6667 121.124H43.3056C43.8938 121.124 44.375 120.642 44.375 120.054V118.412C44.375 118.136 44.1511 117.912 43.875 117.912H43.8056C43.5294 117.912 43.3056 118.136 43.3056 118.412V119.554Z" fill="black"/>
<defs>
<filter id="filter0_d_1_709" x="0.665039" y="3.04907" width="78.3037" height="127.534" filterUnits="userSpaceOnUse" color-interpolation-filters="sRGB">
<feFlood flood-opacity="0" result="BackgroundImageFix"/>
<feColorMatrix in="SourceAlpha" type="matrix" values="0 0 0 0 0 0 0 0 0 0 0 0 0 0 0 0 0 0 127 0" result="hardAlpha"/>
<feOffset dy="5"/>
<feGaussianBlur stdDeviation="4"/>
<feComposite in2="hardAlpha" operator="out"/>
<feColorMatrix type="matrix" values="0 0 0 0 0.301508 0 0 0 0 0.213325 0 0 0 0 0.372624 0 0 0 0.5 0"/>
<feBlend mode="normal" in2="BackgroundImageFix" result="effect1_dropShadow_1_709"/>
<feBlend mode="normal" in="SourceGraphic" in2="effect1_dropShadow_1_709" result="shape"/>
</filter>
<filter id="filter1_d_1_709" x="20" y="101" width="38" height="38" filterUnits="userSpaceOnUse" color-interpolation-filters="sRGB">
<feFlood flood-opacity="0" result="BackgroundImageFix"/>
<feColorMatrix in="SourceAlpha" type="matrix" values="0 0 0 0 0 0 0 0 0 0 0 0 0 0 0 0 0 0 127 0" result="hardAlpha"/>
<feOffset dy="4"/>
<feGaussianBlur stdDeviation="4"/>
<feComposite in2="hardAlpha" operator="out"/>
<feColorMatrix type="matrix" values="0 0 0 0 0 0 0 0 0 0.374793 0 0 0 0 0.312328 0 0 0 0.2 0"/>
<feBlend mode="normal" in2="BackgroundImageFix" result="effect1_dropShadow_1_709"/>
<feBlend mode="normal" in="SourceGraphic" in2="effect1_dropShadow_1_709" result="shape"/>
</filter>
<linearGradient id="paint0_linear_1_709" x1="67.1443" y1="1.43897" x2="75.8674" y2="10.124" gradientUnits="userSpaceOnUse">
<stop stop-color="#BEEC26"/>
<stop offset="1" stop-color="#F8FF6F"/>
</linearGradient>
<linearGradient id="paint1_linear_1_709" x1="75.6861" y1="5.93169" x2="66.9631" y2="14.6167" gradientUnits="userSpaceOnUse">
<stop stop-color="#FF3154"/>
<stop offset="1" stop-color="#FF2E85"/>
</linearGradient>
<linearGradient id="paint2_linear_1_709" x1="4.07449" y1="10.0183" x2="12.7976" y2="1.3332" gradientUnits="userSpaceOnUse">
<stop stop-color="#BEEC26"/>
<stop offset="1" stop-color="#F8FF6F"/>
</linearGradient>
<linearGradient id="paint3_linear_1_709" x1="17.0894" y1="5.93169" x2="8.36634" y2="14.6167" gradientUnits="userSpaceOnUse">
<stop stop-color="#FF3154"/>
<stop offset="1" stop-color="#FF2E85"/>
</linearGradient>
<linearGradient id="paint4_linear_1_709" x1="12.6163" y1="122.321" x2="3.89323" y2="113.636" gradientUnits="userSpaceOnUse">
<stop stop-color="#BEEC26"/>
<stop offset="1" stop-color="#F8FF6F"/>
</linearGradient>
<linearGradient id="paint5_linear_1_709" x1="17.0894" y1="113.742" x2="8.3663" y2="122.427" gradientUnits="userSpaceOnUse">
<stop stop-color="#FF3154"/>
<stop offset="1" stop-color="#FF2E85"/>
</linearGradient>
<linearGradient id="paint6_linear_1_709" x1="75.6861" y1="113.742" x2="66.963" y2="122.427" gradientUnits="userSpaceOnUse">
<stop stop-color="#BEEC26"/>
<stop offset="1" stop-color="#F8FF6F"/>
</linearGradient>
<linearGradient id="paint7_linear_1_709" x1="75.6861" y1="113.742" x2="66.963" y2="122.427" gradientUnits="userSpaceOnUse">
<stop stop-color="#FF3154"/>
<stop offset="1" stop-color="#FF2E85"/>
</linearGradient>
<linearGradient id="paint8_linear_1_709" x1="38.9189" y1="126.58" x2="38.9189" y2="105.065" gradientUnits="userSpaceOnUse">
<stop stop-color="#BEEC26"/>
<stop offset="1" stop-color="#F8FF6F"/>
</linearGradient>
</defs>
</svg>
