<svg width="76" height="138" viewBox="0 0 76 138" fill="none" xmlns="http://www.w3.org/2000/svg">
<g filter="url(#filter0_d_1798_5703)">
<path d="M64.3354 10.9136H10.9151C9.38248 10.9136 8.14003 12.1615 8.14003 13.7008V113.693C8.14003 115.232 9.38248 116.48 10.9151 116.48H64.3354C65.868 116.48 67.1105 115.232 67.1105 113.693V13.7008C67.1105 12.1615 65.868 10.9136 64.3354 10.9136Z" fill="white"/>
<path d="M13.1593 19.9723V17.4375H13.6911V18.4837H14.7752V17.4375H15.307V19.9723H14.7752V18.9244H13.6911V19.9723H13.1593ZM16.1624 20.008C16.0426 20.008 15.9348 19.987 15.8389 19.9451C15.744 19.902 15.6695 19.8385 15.6152 19.7545C15.5611 19.6706 15.534 19.5663 15.534 19.4415C15.534 19.3349 15.5532 19.2465 15.5916 19.1761C15.6299 19.1047 15.6824 19.0469 15.7491 19.0026C15.8157 18.9584 15.8913 18.9249 15.976 18.9022C16.0607 18.8795 16.1505 18.8637 16.2453 18.8546C16.3549 18.8444 16.443 18.8342 16.5096 18.824C16.5762 18.8138 16.6248 18.7985 16.6552 18.7781C16.6868 18.7565 16.7027 18.7259 16.7027 18.6862V18.6777C16.7027 18.5994 16.6778 18.5387 16.6282 18.4956C16.5796 18.4525 16.5107 18.431 16.4215 18.431C16.3278 18.431 16.2527 18.452 16.1962 18.4939C16.1409 18.5348 16.1042 18.587 16.0861 18.6505L15.6 18.6113C15.6249 18.4956 15.6734 18.3959 15.7457 18.3119C15.8179 18.2268 15.9111 18.1617 16.0252 18.1163C16.1403 18.0698 16.2736 18.0465 16.4249 18.0465C16.5299 18.0465 16.6304 18.059 16.7264 18.084C16.8223 18.1089 16.9076 18.1475 16.9821 18.1996C17.0578 18.2507 17.1176 18.317 17.1617 18.3987C17.2057 18.4803 17.2277 18.5773 17.2277 18.6896V19.9723H16.7281V19.7069H16.7145C16.684 19.767 16.6434 19.8198 16.5926 19.8651C16.5417 19.9093 16.4808 19.9445 16.4097 19.9706C16.3385 19.9955 16.2561 20.008 16.1624 20.008ZM16.3131 19.6439C16.3899 19.6439 16.4576 19.6287 16.5164 19.598C16.5762 19.5663 16.6225 19.5243 16.6552 19.4722C16.6891 19.4188 16.7061 19.3593 16.7061 19.2935V19.0911C16.6902 19.1013 16.6677 19.1109 16.6383 19.12C16.6101 19.1291 16.5784 19.137 16.5434 19.1438C16.5084 19.1506 16.4734 19.1568 16.4384 19.1625C16.4034 19.1671 16.3718 19.1716 16.3436 19.1761C16.2815 19.1852 16.2273 19.1999 16.181 19.2204C16.1347 19.2396 16.0986 19.2663 16.0726 19.3003C16.0477 19.3332 16.0353 19.3746 16.0353 19.4245C16.0353 19.4959 16.0613 19.5504 16.1132 19.5878C16.1652 19.6252 16.2318 19.6439 16.3131 19.6439ZM17.492 19.433H18.0001C18.0035 19.4965 18.0317 19.5464 18.0848 19.5827C18.139 19.619 18.2084 19.6372 18.2931 19.6372C18.3778 19.6372 18.449 19.6173 18.5065 19.5776C18.5641 19.5368 18.5935 19.4784 18.5946 19.4024C18.5946 19.357 18.5827 19.3173 18.5591 19.2833C18.5365 19.2493 18.5048 19.2226 18.4642 19.2034C18.4247 19.1829 18.3773 19.1733 18.3219 19.1744H18.0509V18.8291H18.3219C18.4021 18.8279 18.4642 18.8087 18.5082 18.7712C18.5523 18.7338 18.5748 18.6862 18.576 18.6283C18.5748 18.5648 18.5517 18.5132 18.5065 18.4735C18.4614 18.4338 18.3998 18.4146 18.3219 18.4157C18.2451 18.4146 18.1808 18.4321 18.1288 18.4684C18.078 18.5036 18.0515 18.5484 18.0492 18.6028H17.5428C17.5439 18.4883 17.5778 18.3896 17.6444 18.3068C17.7122 18.224 17.8031 18.16 17.9171 18.1146C18.0311 18.0692 18.1582 18.0465 18.2982 18.0465C18.4529 18.0465 18.5861 18.0686 18.6979 18.1129C18.8097 18.156 18.8961 18.2178 18.9571 18.2983C19.0181 18.3777 19.048 18.473 19.0468 18.5841C19.048 18.6839 19.0152 18.7678 18.9486 18.8359C18.8831 18.9039 18.7916 18.9521 18.6742 18.9805V18.9992C18.751 19.0049 18.821 19.0264 18.8843 19.0639C18.9486 19.1001 18.9994 19.1506 19.0367 19.2152C19.0751 19.2799 19.0943 19.3564 19.0943 19.4449C19.0943 19.5629 19.0598 19.6638 18.991 19.7477C18.9221 19.8317 18.8278 19.8963 18.7081 19.9417C18.5884 19.9859 18.4507 20.0086 18.2948 20.0097C18.1435 20.0086 18.008 19.9859 17.8883 19.9417C17.7686 19.8974 17.6738 19.8328 17.6037 19.7477C17.5349 19.6615 17.4976 19.5566 17.492 19.433ZM19.2484 19.9723V18.0703H20.053C20.2867 18.0715 20.4713 18.1169 20.6068 18.2064C20.7423 18.2949 20.8101 18.4214 20.8101 18.5858C20.8101 18.6879 20.7717 18.7735 20.6949 18.8427C20.6192 18.9107 20.5136 18.9572 20.3782 18.9822C20.4911 18.9901 20.5876 19.0156 20.6678 19.0587C20.748 19.1018 20.8095 19.158 20.8524 19.2272C20.8953 19.2952 20.9168 19.3706 20.9168 19.4534C20.9168 19.5612 20.8874 19.6542 20.8287 19.7324C20.7711 19.8095 20.6875 19.8691 20.578 19.911C20.4685 19.9519 20.3352 19.9723 20.1783 19.9723H19.2484ZM19.7362 19.5776H20.1783C20.2506 19.5776 20.3076 19.56 20.3494 19.5249C20.3911 19.4897 20.4115 19.4415 20.4103 19.3803C20.4115 19.3133 20.3911 19.2606 20.3494 19.2221C20.3076 19.1823 20.2506 19.1625 20.1783 19.1625H19.7362V19.5776ZM19.7362 18.8529H20.0648C20.1438 18.854 20.2054 18.8376 20.2494 18.8036C20.2935 18.7684 20.3155 18.7213 20.3155 18.6624C20.3155 18.6045 20.2918 18.5592 20.2444 18.5263C20.1981 18.4923 20.1343 18.4752 20.053 18.4752H19.7362V18.8529ZM21.6739 20.008C21.5542 20.008 21.4464 19.987 21.3504 19.9451C21.2555 19.902 21.181 19.8385 21.1268 19.7545C21.0726 19.6706 21.0455 19.5663 21.0455 19.4415C21.0455 19.3349 21.0647 19.2465 21.1031 19.1761C21.1415 19.1047 21.194 19.0469 21.2606 19.0026C21.3272 18.9584 21.4029 18.9249 21.4876 18.9022C21.5723 18.8795 21.662 18.8637 21.7569 18.8546C21.8664 18.8444 21.9545 18.8342 22.0211 18.824C22.0877 18.8138 22.1363 18.7985 22.1668 18.7781C22.1984 18.7565 22.2142 18.7259 22.2142 18.6862V18.6777C22.2142 18.5994 22.1894 18.5387 22.1397 18.4956C22.0911 18.4525 22.0223 18.431 21.933 18.431C21.8393 18.431 21.7642 18.452 21.7078 18.4939C21.6524 18.5348 21.6157 18.587 21.5977 18.6505L21.1116 18.6113C21.1364 18.4956 21.1849 18.3959 21.2572 18.3119C21.3295 18.2268 21.4227 18.1617 21.5367 18.1163C21.6519 18.0698 21.7851 18.0465 21.9364 18.0465C22.0414 18.0465 22.1419 18.059 22.2379 18.084C22.3339 18.1089 22.4192 18.1475 22.4937 18.1996C22.5693 18.2507 22.6292 18.317 22.6732 18.3987C22.7173 18.4803 22.7393 18.5773 22.7393 18.6896V19.9723H22.2396V19.7069H22.226C22.1956 19.767 22.1549 19.8198 22.1041 19.8651C22.0533 19.9093 21.9923 19.9445 21.9212 19.9706C21.8501 19.9955 21.7676 20.008 21.6739 20.008ZM21.8246 19.6439C21.9014 19.6439 21.9692 19.6287 22.0279 19.598C22.0877 19.5663 22.134 19.5243 22.1668 19.4722C22.2007 19.4188 22.2176 19.3593 22.2176 19.2935V19.0911C22.2018 19.1013 22.1792 19.1109 22.1498 19.12C22.1216 19.1291 22.09 19.137 22.055 19.1438C22.02 19.1506 21.985 19.1568 21.95 19.1625C21.915 19.1671 21.8834 19.1716 21.8551 19.1761C21.793 19.1852 21.7388 19.1999 21.6925 19.2204C21.6462 19.2396 21.6101 19.2663 21.5841 19.3003C21.5593 19.3332 21.5468 19.3746 21.5468 19.4245C21.5468 19.4959 21.5728 19.5504 21.6248 19.5878C21.6767 19.6252 21.7433 19.6439 21.8246 19.6439ZM24.8531 19.3905L25.3646 18.0703H25.766L25.0293 19.9723H24.6803L23.9588 18.0703H24.3568L24.8531 19.3905ZM24.2366 18.0703V19.9723H23.7369V18.0703H24.2366ZM25.4968 19.9723V18.0703H25.9896V19.9723H25.4968ZM26.8365 20.008C26.7168 20.008 26.609 19.987 26.513 19.9451C26.4182 19.902 26.3436 19.8385 26.2894 19.7545C26.2352 19.6706 26.2081 19.5663 26.2081 19.4415C26.2081 19.3349 26.2273 19.2465 26.2657 19.1761C26.3041 19.1047 26.3566 19.0469 26.4233 19.0026C26.4899 18.9584 26.5655 18.9249 26.6502 18.9022C26.7349 18.8795 26.8247 18.8637 26.9195 18.8546C27.0291 18.8444 27.1171 18.8342 27.1837 18.824C27.2504 18.8138 27.2989 18.7985 27.3294 18.7781C27.361 18.7565 27.3768 18.7259 27.3768 18.6862V18.6777C27.3768 18.5994 27.352 18.5387 27.3023 18.4956C27.2538 18.4525 27.1849 18.431 27.0957 18.431C27.0019 18.431 26.9269 18.452 26.8704 18.4939C26.8151 18.5348 26.7784 18.587 26.7603 18.6505L26.2742 18.6113C26.299 18.4956 26.3476 18.3959 26.4199 18.3119C26.4921 18.2268 26.5853 18.1617 26.6993 18.1163C26.8145 18.0698 26.9477 18.0465 27.0991 18.0465C27.2041 18.0465 27.3045 18.059 27.4005 18.084C27.4965 18.1089 27.5818 18.1475 27.6563 18.1996C27.7319 18.2507 27.7918 18.317 27.8358 18.3987C27.8799 18.4803 27.9019 18.5773 27.9019 18.6896V19.9723H27.4022V19.7069H27.3887C27.3582 19.767 27.3176 19.8198 27.2667 19.8651C27.2159 19.9093 27.1549 19.9445 27.0838 19.9706C27.0127 19.9955 26.9302 20.008 26.8365 20.008ZM26.9873 19.6439C27.0641 19.6439 27.1318 19.6287 27.1905 19.598C27.2504 19.5663 27.2967 19.5243 27.3294 19.4722C27.3633 19.4188 27.3802 19.3593 27.3802 19.2935V19.0911C27.3644 19.1013 27.3418 19.1109 27.3125 19.12C27.2843 19.1291 27.2526 19.137 27.2176 19.1438C27.1826 19.1506 27.1476 19.1568 27.1126 19.1625C27.0776 19.1671 27.046 19.1716 27.0177 19.1761C26.9557 19.1852 26.9014 19.1999 26.8552 19.2204C26.8089 19.2396 26.7727 19.2663 26.7468 19.3003C26.7219 19.3332 26.7095 19.3746 26.7095 19.4245C26.7095 19.4959 26.7354 19.5504 26.7874 19.5878C26.8393 19.6252 26.906 19.6439 26.9873 19.6439ZM29.5008 18.0703V18.4854H28.7149V19.9723H28.2085V18.0703H29.5008ZM30.1834 20.008C30.0637 20.008 29.9559 19.987 29.8599 19.9451C29.765 19.902 29.6905 19.8385 29.6363 19.7545C29.5821 19.6706 29.555 19.5663 29.555 19.4415C29.555 19.3349 29.5742 19.2465 29.6126 19.1761C29.651 19.1047 29.7035 19.0469 29.7701 19.0026C29.8367 18.9584 29.9124 18.9249 29.9971 18.9022C30.0818 18.8795 30.1716 18.8637 30.2664 18.8546C30.3759 18.8444 30.464 18.8342 30.5306 18.824C30.5973 18.8138 30.6458 18.7985 30.6763 18.7781C30.7079 18.7565 30.7237 18.7259 30.7237 18.6862V18.6777C30.7237 18.5994 30.6989 18.5387 30.6492 18.4956C30.6007 18.4525 30.5318 18.431 30.4426 18.431C30.3488 18.431 30.2737 18.452 30.2173 18.4939C30.1619 18.5348 30.1253 18.587 30.1072 18.6505L29.6211 18.6113C29.6459 18.4956 29.6945 18.3959 29.7667 18.3119C29.839 18.2268 29.9322 18.1617 30.0462 18.1163C30.1614 18.0698 30.2946 18.0465 30.4459 18.0465C30.551 18.0465 30.6515 18.059 30.7475 18.084C30.8434 18.1089 30.9287 18.1475 31.0032 18.1996C31.0789 18.2507 31.1387 18.317 31.1828 18.3987C31.2268 18.4803 31.2488 18.5773 31.2488 18.6896V19.9723H30.7492V19.7069H30.7356C30.7051 19.767 30.6644 19.8198 30.6136 19.8651C30.5628 19.9093 30.5019 19.9445 30.4307 19.9706C30.3596 19.9955 30.2771 20.008 30.1834 20.008ZM30.3342 19.6439C30.4109 19.6439 30.4787 19.6287 30.5374 19.598C30.5973 19.5663 30.6436 19.5243 30.6763 19.4722C30.7102 19.4188 30.7271 19.3593 30.7271 19.2935V19.0911C30.7113 19.1013 30.6887 19.1109 30.6594 19.12C30.6311 19.1291 30.5995 19.137 30.5645 19.1438C30.5295 19.1506 30.4945 19.1568 30.4595 19.1625C30.4245 19.1671 30.3929 19.1716 30.3647 19.1761C30.3025 19.1852 30.2484 19.1999 30.202 19.2204C30.1557 19.2396 30.1196 19.2663 30.0936 19.3003C30.0688 19.3332 30.0564 19.3746 30.0564 19.4245C30.0564 19.4959 30.0824 19.5504 30.1343 19.5878C30.1862 19.6252 30.2529 19.6439 30.3342 19.6439ZM31.513 19.433H32.0212C32.0245 19.4965 32.0528 19.5464 32.1059 19.5827C32.16 19.619 32.2295 19.6372 32.3142 19.6372C32.3989 19.6372 32.47 19.6173 32.5276 19.5776C32.5852 19.5368 32.6146 19.4784 32.6157 19.4024C32.6157 19.357 32.6038 19.3173 32.5801 19.2833C32.5575 19.2493 32.5259 19.2226 32.4852 19.2034C32.4457 19.1829 32.3983 19.1733 32.343 19.1744H32.072V18.8291H32.343C32.4232 18.8279 32.4852 18.8087 32.5293 18.7712C32.5733 18.7338 32.5959 18.6862 32.597 18.6283C32.5959 18.5648 32.5728 18.5132 32.5276 18.4735C32.4824 18.4338 32.4209 18.4146 32.343 18.4157C32.2662 18.4146 32.2018 18.4321 32.1499 18.4684C32.0991 18.5036 32.0726 18.5484 32.0703 18.6028H31.5638C31.565 18.4883 31.5988 18.3896 31.6655 18.3068C31.7332 18.224 31.8241 18.16 31.9382 18.1146C32.0522 18.0692 32.1793 18.0465 32.3193 18.0465C32.474 18.0465 32.6072 18.0686 32.719 18.1129C32.8308 18.156 32.9172 18.2178 32.9781 18.2983C33.0391 18.3777 33.069 18.473 33.0679 18.5841C33.069 18.6839 33.0363 18.7678 32.9697 18.8359C32.9042 18.9039 32.8127 18.9521 32.6953 18.9805V18.9992C32.7721 19.0049 32.8421 19.0264 32.9053 19.0639C32.9697 19.1001 33.0205 19.1506 33.0577 19.2152C33.0961 19.2799 33.1153 19.3564 33.1153 19.4449C33.1153 19.5629 33.0809 19.6638 33.012 19.7477C32.9431 19.8317 32.8488 19.8963 32.7292 19.9417C32.6095 19.9859 32.4717 20.0086 32.3159 20.0097C32.1646 20.0086 32.0291 19.9859 31.9094 19.9417C31.7897 19.8974 31.6948 19.8328 31.6248 19.7477C31.5559 19.6615 31.5187 19.5566 31.513 19.433ZM33.7691 19.2765L34.45 18.0703H34.9683V19.9723H34.4687V18.7644L33.7895 19.9723H33.2695V18.0703H33.7691V19.2765ZM36.5925 18.8121V19.2238H35.6052V18.8121H36.5925ZM35.7779 18.0703V19.9723H35.2783V18.0703H35.7779ZM36.9214 18.0703V19.9723H36.425V18.0703H36.9214ZM37.4837 20.6834C37.417 20.6845 37.3543 20.68 37.2956 20.6698C37.2381 20.6596 37.1905 20.6465 37.1534 20.6306L37.2717 20.2377L37.2887 20.2411C37.3768 20.2672 37.4521 20.2728 37.5142 20.2581C37.5773 20.2445 37.6252 20.1946 37.6581 20.1084L37.6887 20.0267L37.0112 18.0703H37.5614L37.9526 19.467H37.9731L38.3696 18.0703H38.9232L38.1882 20.1781C38.1531 20.2802 38.1053 20.3692 38.0442 20.4452C37.9846 20.5212 37.9086 20.5796 37.8174 20.6205C37.7258 20.6624 37.6144 20.6834 37.4837 20.6834Z" fill="#1F2024"/>
<path d="M60.8669 26.3306H14.0374C13.4627 26.3306 12.9967 26.7985 12.9967 27.3758C12.9967 27.953 13.4627 28.421 14.0374 28.421H60.8669C61.4416 28.421 61.9075 27.953 61.9075 27.3758C61.9075 26.7985 61.4416 26.3306 60.8669 26.3306Z" fill="#C5D2F1"/>
<path d="M60.8669 29.8145H14.0374C13.4627 29.8145 12.9967 30.2824 12.9967 30.8597C12.9967 31.4369 13.4627 31.9049 14.0374 31.9049H60.8669C61.4416 31.9049 61.9075 31.4369 61.9075 30.8597C61.9075 30.2824 61.4416 29.8145 60.8669 29.8145Z" fill="#C5D2F1"/>
<path d="M23.7502 34.3438H13.6905C13.3074 34.3438 12.9967 34.6557 12.9967 35.0406C12.9967 35.4254 13.3074 35.7374 13.6905 35.7374H23.7502C24.1333 35.7374 24.444 35.4254 24.444 35.0406C24.444 34.6557 24.1333 34.3438 23.7502 34.3438Z" fill="#C5D2F1"/>
<path d="M45.6994 36.4683C45.485 36.4683 45.3015 36.4173 45.1489 36.3152C44.9976 36.212 44.8814 36.064 44.8002 35.8712C44.7198 35.6772 44.6799 35.443 44.6799 35.1686C44.6799 34.8953 44.7205 34.6616 44.8016 34.4677C44.8831 34.2726 44.9994 34.1235 45.1506 34.0203C45.3032 33.9171 45.486 33.8655 45.6994 33.8655C45.9141 33.8655 46.0969 33.9171 46.2481 34.0203C46.4008 34.1235 46.517 34.272 46.5971 34.466C46.6786 34.6599 46.7192 34.8941 46.7192 35.1686C46.7192 35.443 46.679 35.6772 46.5988 35.8712C46.5187 36.064 46.4025 36.212 46.2499 36.3152C46.0986 36.4173 45.9151 36.4683 45.6994 36.4683ZM45.6994 36.026C45.8024 36.026 45.8888 35.9931 45.9585 35.9273C46.0299 35.8604 46.0834 35.7629 46.1194 35.6347C46.1569 35.5065 46.1753 35.3512 46.1753 35.1686C46.1753 34.9848 46.1569 34.8289 46.1194 34.7007C46.0834 34.5726 46.0299 34.475 45.9585 34.4082C45.8888 34.3401 45.8024 34.3061 45.6994 34.3061C45.5471 34.3061 45.4295 34.3815 45.3473 34.5323C45.2647 34.682 45.2234 34.8941 45.2234 35.1686C45.2234 35.3512 45.2415 35.5065 45.2779 35.6347C45.315 35.7629 45.3691 35.8604 45.4402 35.9273C45.5114 35.9931 45.5977 36.026 45.6994 36.026ZM47.9725 36.4683C47.7581 36.4683 47.5746 36.4173 47.422 36.3152C47.2708 36.212 47.1545 36.064 47.073 35.8712C46.9929 35.6772 46.953 35.443 46.953 35.1686C46.953 34.8953 46.9936 34.6616 47.0748 34.4677C47.1563 34.2726 47.2725 34.1235 47.4237 34.0203C47.5764 33.9171 47.7592 33.8655 47.9725 33.8655C48.1872 33.8655 48.37 33.9171 48.5213 34.0203C48.6739 34.1235 48.7901 34.272 48.8702 34.466C48.9514 34.6599 48.9923 34.8941 48.9923 35.1686C48.9923 35.443 48.9521 35.6772 48.872 35.8712C48.7918 36.064 48.6753 36.212 48.523 36.3152C48.3718 36.4173 48.1883 36.4683 47.9725 36.4683ZM47.9725 36.026C48.0752 36.026 48.1616 35.9931 48.2316 35.9273C48.3027 35.8604 48.3565 35.7629 48.3926 35.6347C48.4297 35.5065 48.4484 35.3512 48.4484 35.1686C48.4484 34.9848 48.4297 34.8289 48.3926 34.7007C48.3565 34.5726 48.3027 34.475 48.2316 34.4082C48.1616 34.3401 48.0752 34.3061 47.9725 34.3061C47.8202 34.3061 47.7026 34.3815 47.6201 34.5323C47.5379 34.682 47.4966 34.8941 47.4966 35.1686C47.4966 35.3512 47.5146 35.5065 47.5507 35.6347C47.5882 35.7629 47.6423 35.8604 47.7134 35.9273C47.7845 35.9931 47.8709 36.026 47.9725 36.026ZM50.2456 36.4683C50.0309 36.4683 49.8474 36.4173 49.6951 36.3152C49.5439 36.212 49.4273 36.064 49.3462 35.8712C49.266 35.6772 49.2258 35.443 49.2258 35.1686C49.2258 34.8953 49.2667 34.6616 49.3479 34.4677C49.4291 34.2726 49.5456 34.1235 49.6969 34.0203C49.8492 33.9171 50.0323 33.8655 50.2456 33.8655C50.46 33.8655 50.6432 33.9171 50.7944 34.0203C50.9467 34.1235 51.0633 34.272 51.1434 34.466C51.2246 34.6599 51.2651 34.8941 51.2651 35.1686C51.2651 35.443 51.2252 35.6772 51.1451 35.8712C51.0646 36.064 50.9484 36.212 50.7961 36.3152C50.6449 36.4173 50.4614 36.4683 50.2456 36.4683ZM50.2456 36.026C50.3483 36.026 50.4347 35.9931 50.5048 35.9273C50.5759 35.8604 50.6296 35.7629 50.6657 35.6347C50.7028 35.5065 50.7216 35.3512 50.7216 35.1686C50.7216 34.9848 50.7028 34.8289 50.6657 34.7007C50.6296 34.5726 50.5759 34.475 50.5048 34.4082C50.4347 34.3401 50.3483 34.3061 50.2456 34.3061C50.093 34.3061 49.9758 34.3815 49.8932 34.5323C49.811 34.682 49.7697 34.8941 49.7697 35.1686C49.7697 35.3512 49.7878 35.5065 49.8238 35.6347C49.8609 35.7629 49.9154 35.8604 49.9865 35.9273C50.0576 35.9931 50.144 36.026 50.2456 36.026ZM51.8091 36.4666C51.7255 36.4666 51.6547 36.4382 51.5971 36.3815C51.5395 36.3248 51.5107 36.2545 51.5107 36.1706C51.5107 36.0867 51.5395 36.0164 51.5971 35.9596C51.6547 35.9029 51.7255 35.8746 51.8091 35.8746C51.8927 35.8746 51.9631 35.9029 52.0207 35.9596C52.0782 36.0164 52.107 36.0867 52.107 36.1706C52.107 36.2545 52.0782 36.3248 52.0207 36.3815C51.9631 36.4382 51.8927 36.4666 51.8091 36.4666ZM53.3725 36.4683C53.1577 36.4683 52.9742 36.4173 52.822 36.3152C52.6704 36.212 52.5542 36.064 52.473 35.8712C52.3929 35.6772 52.3526 35.443 52.3526 35.1686C52.3526 34.8953 52.3932 34.6616 52.4747 34.4677C52.5559 34.2726 52.6721 34.1235 52.8233 34.0203C52.976 33.9171 53.1588 33.8655 53.3725 33.8655C53.5868 33.8655 53.7696 33.9171 53.9212 34.0203C54.0735 34.1235 54.1897 34.272 54.2699 34.466C54.3514 34.6599 54.392 34.8941 54.392 35.1686C54.392 35.443 54.3517 35.6772 54.2716 35.8712C54.1915 36.064 54.0753 36.212 53.9226 36.3152C53.7714 36.4173 53.5879 36.4683 53.3725 36.4683ZM53.3725 36.026C53.4751 36.026 53.5615 35.9931 53.6316 35.9273C53.7027 35.8604 53.7561 35.7629 53.7922 35.6347C53.8297 35.5065 53.8484 35.3512 53.8484 35.1686C53.8484 34.9848 53.8297 34.8289 53.7922 34.7007C53.7561 34.5726 53.7027 34.475 53.6316 34.4082C53.5615 34.3401 53.4751 34.3061 53.3725 34.3061C53.2198 34.3061 53.1026 34.3815 53.02 34.5323C52.9375 34.682 52.8962 34.8941 52.8962 35.1686C52.8962 35.3512 52.9146 35.5065 52.9507 35.6347C52.9878 35.7629 53.0419 35.8604 53.113 35.9273C53.1845 35.9931 53.2708 36.026 53.3725 36.026ZM55.6453 36.4683C55.4309 36.4683 55.2474 36.4173 55.0947 36.3152C54.9435 36.212 54.8273 36.064 54.7458 35.8712C54.6657 35.6772 54.6258 35.443 54.6258 35.1686C54.6258 34.8953 54.6663 34.6616 54.7475 34.4677C54.829 34.2726 54.9452 34.1235 55.0965 34.0203C55.2491 33.9171 55.4319 33.8655 55.6453 33.8655C55.86 33.8655 56.0428 33.9171 56.194 34.0203C56.3467 34.1235 56.4629 34.272 56.543 34.466C56.6245 34.6599 56.6651 34.8941 56.6651 35.1686C56.6651 35.443 56.6249 35.6772 56.5447 35.8712C56.4646 36.064 56.3484 36.212 56.1958 36.3152C56.0445 36.4173 55.861 36.4683 55.6453 36.4683ZM55.6453 36.026C55.7479 36.026 55.8343 35.9931 55.9044 35.9273C55.9755 35.8604 56.0293 35.7629 56.0653 35.6347C56.1028 35.5065 56.1212 35.3512 56.1212 35.1686C56.1212 34.9848 56.1028 34.8289 56.0653 34.7007C56.0293 34.5726 55.9755 34.475 55.9044 34.4082C55.8343 34.3401 55.7479 34.3061 55.6453 34.3061C55.493 34.3061 55.3754 34.3815 55.2932 34.5323C55.2106 34.682 55.1693 34.8941 55.1693 35.1686C55.1693 35.3512 55.1874 35.5065 55.2234 35.6347C55.2609 35.7629 55.315 35.8604 55.3861 35.9273C55.4572 35.9931 55.5436 36.026 55.6453 36.026ZM58.4918 34.9127V35.2448H57.8632V36.4343H57.4581V34.9127H58.4918ZM58.6614 37.0031V34.9127H59.0732V35.1699H59.0923C59.111 35.1282 59.1384 35.086 59.1734 35.0434C59.2088 35.0007 59.2549 34.9654 59.3118 34.9372C59.3687 34.9082 59.4391 34.8937 59.5231 34.8937C59.6341 34.8937 59.7357 34.9227 59.828 34.9808C59.921 35.0379 59.9955 35.1246 60.0514 35.2407C60.1076 35.3569 60.1357 35.502 60.1357 35.6762C60.1357 35.845 60.1083 35.9879 60.0542 36.1049C60.0001 36.221 59.9265 36.3091 59.8332 36.3689C59.7413 36.4288 59.6372 36.4588 59.5217 36.4588C59.4405 36.4588 59.3711 36.4451 59.3143 36.4179C59.2574 36.3907 59.2109 36.3567 59.1748 36.3159C59.1394 36.2741 59.112 36.2324 59.0923 36.1907H59.0801V37.0031H58.6614ZM59.3888 36.124C59.4575 36.124 59.5155 36.1049 59.5623 36.0668C59.6095 36.0287 59.6452 35.9761 59.6695 35.9089C59.6938 35.8409 59.7059 35.7629 59.7059 35.6749C59.7059 35.5868 59.6938 35.5097 59.6695 35.4435C59.6459 35.3763 59.6108 35.3237 59.5637 35.2856C59.5168 35.2475 59.4586 35.2285 59.3888 35.2285C59.3212 35.2285 59.2633 35.247 59.2154 35.2843C59.1686 35.3206 59.1325 35.3723 59.1072 35.4394C59.0825 35.5056 59.0704 35.5841 59.0704 35.6749C59.0704 35.7647 59.0832 35.8432 59.1086 35.9103C59.1339 35.9774 59.17 36.0301 59.2168 36.0682C59.2647 36.1054 59.3222 36.124 59.3888 36.124ZM61.3713 35.5061V35.8354H60.5814V35.5061H61.3713ZM60.7195 34.9127V36.4343H60.3199V34.9127H60.7195ZM61.6342 34.9127V36.4343H61.237V34.9127H61.6342Z" fill="#9FAFD5"/>
<path d="M61.8205 43.054H13.0831V43.2282H61.8205V43.054Z" stroke="#C5D2F1" stroke-width="0.5" stroke-dasharray="4 4"/>
<path d="M60.8669 48.9771H14.0374C13.4627 48.9771 12.9967 49.445 12.9967 50.0223C12.9967 50.5995 13.4627 51.0675 14.0374 51.0675H60.8669C61.4416 51.0675 61.9075 50.5995 61.9075 50.0223C61.9075 49.445 61.4416 48.9771 60.8669 48.9771Z" fill="#C5D2F1"/>
<path d="M60.8669 52.4609H14.0374C13.4627 52.4609 12.9967 52.9289 12.9967 53.5062C12.9967 54.0834 13.4627 54.5514 14.0374 54.5514H60.8669C61.4416 54.5514 61.9075 54.0834 61.9075 53.5062C61.9075 52.9289 61.4416 52.4609 60.8669 52.4609Z" fill="#C5D2F1"/>
<path d="M23.7502 56.9902H13.6905C13.3074 56.9902 12.9967 57.3022 12.9967 57.687C12.9967 58.0719 13.3074 58.3839 13.6905 58.3839H23.7502C24.1333 58.3839 24.444 58.0719 24.444 57.687C24.444 57.3022 24.1333 56.9902 23.7502 56.9902Z" fill="#C5D2F1"/>
<path d="M45.6994 59.1147C45.485 59.1147 45.3015 59.0634 45.1489 58.9614C44.9976 58.8582 44.8814 58.7102 44.8002 58.5175C44.7198 58.3234 44.6799 58.0893 44.6799 57.8148C44.6799 57.5416 44.7205 57.3078 44.8016 57.1138C44.8831 56.919 44.9994 56.7699 45.1506 56.6664C45.3032 56.5633 45.486 56.5117 45.6994 56.5117C45.9141 56.5117 46.0969 56.5633 46.2481 56.6664C46.4008 56.7699 46.517 56.9183 46.5971 57.1124C46.6786 57.3061 46.7192 57.5402 46.7192 57.8148C46.7192 58.0893 46.679 58.3234 46.5988 58.5175C46.5187 58.7102 46.4025 58.8582 46.2499 58.9614C46.0986 59.0634 45.9151 59.1147 45.6994 59.1147ZM45.6994 58.6722C45.8024 58.6722 45.8888 58.6394 45.9585 58.5736C46.0299 58.5067 46.0834 58.4091 46.1194 58.2809C46.1569 58.1527 46.1753 57.9973 46.1753 57.8148C46.1753 57.6311 46.1569 57.4751 46.1194 57.3468C46.0834 57.219 46.0299 57.1214 45.9585 57.0545C45.8888 56.9862 45.8024 56.9525 45.6994 56.9525C45.5471 56.9525 45.4295 57.0277 45.3473 57.1786C45.2647 57.3284 45.2234 57.5402 45.2234 57.8148C45.2234 57.9973 45.2415 58.1527 45.2779 58.2809C45.315 58.4091 45.3691 58.5067 45.4402 58.5736C45.5114 58.6394 45.5977 58.6722 45.6994 58.6722ZM47.9725 59.1147C47.7581 59.1147 47.5746 59.0634 47.422 58.9614C47.2708 58.8582 47.1545 58.7102 47.073 58.5175C46.9929 58.3234 46.953 58.0893 46.953 57.8148C46.953 57.5416 46.9936 57.3078 47.0748 57.1138C47.1563 56.919 47.2725 56.7699 47.4237 56.6664C47.5764 56.5633 47.7592 56.5117 47.9725 56.5117C48.1872 56.5117 48.37 56.5633 48.5213 56.6664C48.6739 56.7699 48.7901 56.9183 48.8702 57.1124C48.9514 57.3061 48.9923 57.5402 48.9923 57.8148C48.9923 58.0893 48.9521 58.3234 48.872 58.5175C48.7918 58.7102 48.6753 58.8582 48.523 58.9614C48.3718 59.0634 48.1883 59.1147 47.9725 59.1147ZM47.9725 58.6722C48.0752 58.6722 48.1616 58.6394 48.2316 58.5736C48.3027 58.5067 48.3565 58.4091 48.3926 58.2809C48.4297 58.1527 48.4484 57.9973 48.4484 57.8148C48.4484 57.6311 48.4297 57.4751 48.3926 57.3468C48.3565 57.219 48.3027 57.1214 48.2316 57.0545C48.1616 56.9862 48.0752 56.9525 47.9725 56.9525C47.8202 56.9525 47.7026 57.0277 47.6201 57.1786C47.5379 57.3284 47.4966 57.5402 47.4966 57.8148C47.4966 57.9973 47.5146 58.1527 47.5507 58.2809C47.5882 58.4091 47.6423 58.5067 47.7134 58.5736C47.7845 58.6394 47.8709 58.6722 47.9725 58.6722ZM50.2456 59.1147C50.0309 59.1147 49.8474 59.0634 49.6951 58.9614C49.5439 58.8582 49.4273 58.7102 49.3462 58.5175C49.266 58.3234 49.2258 58.0893 49.2258 57.8148C49.2258 57.5416 49.2667 57.3078 49.3479 57.1138C49.4291 56.919 49.5456 56.7699 49.6969 56.6664C49.8492 56.5633 50.0323 56.5117 50.2456 56.5117C50.46 56.5117 50.6432 56.5633 50.7944 56.6664C50.9467 56.7699 51.0633 56.9183 51.1434 57.1124C51.2246 57.3061 51.2651 57.5402 51.2651 57.8148C51.2651 58.0893 51.2252 58.3234 51.1451 58.5175C51.0646 58.7102 50.9484 58.8582 50.7961 58.9614C50.6449 59.0634 50.4614 59.1147 50.2456 59.1147ZM50.2456 58.6722C50.3483 58.6722 50.4347 58.6394 50.5048 58.5736C50.5759 58.5067 50.6296 58.4091 50.6657 58.2809C50.7028 58.1527 50.7216 57.9973 50.7216 57.8148C50.7216 57.6311 50.7028 57.4751 50.6657 57.3468C50.6296 57.219 50.5759 57.1214 50.5048 57.0545C50.4347 56.9862 50.3483 56.9525 50.2456 56.9525C50.093 56.9525 49.9758 57.0277 49.8932 57.1786C49.811 57.3284 49.7697 57.5402 49.7697 57.8148C49.7697 57.9973 49.7878 58.1527 49.8238 58.2809C49.8609 58.4091 49.9154 58.5067 49.9865 58.5736C50.0576 58.6394 50.144 58.6722 50.2456 58.6722ZM51.8091 59.1129C51.7255 59.1129 51.6547 59.0843 51.5971 59.0279C51.5395 58.9711 51.5107 58.9007 51.5107 58.8168C51.5107 58.7328 51.5395 58.6624 51.5971 58.606C51.6547 58.5492 51.7255 58.521 51.8091 58.521C51.8927 58.521 51.9631 58.5492 52.0207 58.606C52.0782 58.6624 52.107 58.7328 52.107 58.8168C52.107 58.9007 52.0782 58.9711 52.0207 59.0279C51.9631 59.0843 51.8927 59.1129 51.8091 59.1129ZM53.3725 59.1147C53.1577 59.1147 52.9742 59.0634 52.822 58.9614C52.6704 58.8582 52.5542 58.7102 52.473 58.5175C52.3929 58.3234 52.3526 58.0893 52.3526 57.8148C52.3526 57.5416 52.3932 57.3078 52.4747 57.1138C52.5559 56.919 52.6721 56.7699 52.8233 56.6664C52.976 56.5633 53.1588 56.5117 53.3725 56.5117C53.5868 56.5117 53.7696 56.5633 53.9212 56.6664C54.0735 56.7699 54.1897 56.9183 54.2699 57.1124C54.3514 57.3061 54.392 57.5402 54.392 57.8148C54.392 58.0893 54.3517 58.3234 54.2716 58.5175C54.1915 58.7102 54.0753 58.8582 53.9226 58.9614C53.7714 59.0634 53.5879 59.1147 53.3725 59.1147ZM53.3725 58.6722C53.4751 58.6722 53.5615 58.6394 53.6316 58.5736C53.7027 58.5067 53.7561 58.4091 53.7922 58.2809C53.8297 58.1527 53.8484 57.9973 53.8484 57.8148C53.8484 57.6311 53.8297 57.4751 53.7922 57.3468C53.7561 57.219 53.7027 57.1214 53.6316 57.0545C53.5615 56.9862 53.4751 56.9525 53.3725 56.9525C53.2198 56.9525 53.1026 57.0277 53.02 57.1786C52.9375 57.3284 52.8962 57.5402 52.8962 57.8148C52.8962 57.9973 52.9146 58.1527 52.9507 58.2809C52.9878 58.4091 53.0419 58.5067 53.113 58.5736C53.1845 58.6394 53.2708 58.6722 53.3725 58.6722ZM55.6453 59.1147C55.4309 59.1147 55.2474 59.0634 55.0947 58.9614C54.9435 58.8582 54.8273 58.7102 54.7458 58.5175C54.6657 58.3234 54.6258 58.0893 54.6258 57.8148C54.6258 57.5416 54.6663 57.3078 54.7475 57.1138C54.829 56.919 54.9452 56.7699 55.0965 56.6664C55.2491 56.5633 55.4319 56.5117 55.6453 56.5117C55.86 56.5117 56.0428 56.5633 56.194 56.6664C56.3467 56.7699 56.4629 56.9183 56.543 57.1124C56.6245 57.3061 56.6651 57.5402 56.6651 57.8148C56.6651 58.0893 56.6249 58.3234 56.5447 58.5175C56.4646 58.7102 56.3484 58.8582 56.1958 58.9614C56.0445 59.0634 55.861 59.1147 55.6453 59.1147ZM55.6453 58.6722C55.7479 58.6722 55.8343 58.6394 55.9044 58.5736C55.9755 58.5067 56.0293 58.4091 56.0653 58.2809C56.1028 58.1527 56.1212 57.9973 56.1212 57.8148C56.1212 57.6311 56.1028 57.4751 56.0653 57.3468C56.0293 57.219 55.9755 57.1214 55.9044 57.0545C55.8343 56.9862 55.7479 56.9525 55.6453 56.9525C55.493 56.9525 55.3754 57.0277 55.2932 57.1786C55.2106 57.3284 55.1693 57.5402 55.1693 57.8148C55.1693 57.9973 55.1874 58.1527 55.2234 58.2809C55.2609 58.4091 55.315 58.5067 55.3861 58.5736C55.4572 58.6394 55.5436 58.6722 55.6453 58.6722ZM58.4918 57.559V57.8911H57.8632V59.0805H57.4581V57.559H58.4918ZM58.6614 59.6495V57.559H59.0732V57.8161H59.0923C59.111 57.7743 59.1384 57.7322 59.1734 57.6897C59.2088 57.6468 59.2549 57.6116 59.3118 57.5834C59.3687 57.5545 59.4391 57.5399 59.5231 57.5399C59.6341 57.5399 59.7357 57.5688 59.828 57.627C59.921 57.6841 59.9955 57.7709 60.0514 57.8869C60.1076 58.0032 60.1357 58.1482 60.1357 58.3224C60.1357 58.4914 60.1083 58.6342 60.0542 58.7513C60.0001 58.8673 59.9265 58.9554 59.8332 59.015C59.7413 59.0749 59.6372 59.1049 59.5217 59.1049C59.4405 59.1049 59.3711 59.0913 59.3143 59.0641C59.2574 59.037 59.2109 59.0028 59.1748 58.9621C59.1394 58.9202 59.112 58.8788 59.0923 58.837H59.0801V59.6495H58.6614ZM59.3888 58.7701C59.4575 58.7701 59.5155 58.7513 59.5623 58.7129C59.6095 58.675 59.6452 58.6224 59.6695 58.5551C59.6938 58.4872 59.7059 58.4091 59.7059 58.321C59.7059 58.2332 59.6938 58.1558 59.6695 58.0896C59.6459 58.0228 59.6108 57.9698 59.5637 57.9318C59.5168 57.8938 59.4586 57.8747 59.3888 57.8747C59.3212 57.8747 59.2633 57.8931 59.2154 57.9304C59.1686 57.9667 59.1325 58.0186 59.1072 58.0858C59.0825 58.152 59.0704 58.2304 59.0704 58.321C59.0704 58.4109 59.0832 58.4893 59.1086 58.5565C59.1339 58.6238 59.17 58.6764 59.2168 58.7143C59.2647 58.7516 59.3222 58.7701 59.3888 58.7701ZM61.3713 58.1524V58.4816H60.5814V58.1524H61.3713ZM60.7195 57.559V59.0805H60.3199V57.559H60.7195ZM61.6342 57.559V59.0805H61.237V57.559H61.6342Z" fill="#9FAFD5"/>
<path d="M61.8205 65.7004H13.0831V65.8746H61.8205V65.7004Z" stroke="#C5D2F1" stroke-width="0.5" stroke-dasharray="4 4"/>
<path d="M60.8669 71.6233H14.0374C13.4627 71.6233 12.9967 72.0913 12.9967 72.6685C12.9967 73.2458 13.4627 73.7137 14.0374 73.7137H60.8669C61.4416 73.7137 61.9075 73.2458 61.9075 72.6685C61.9075 72.0913 61.4416 71.6233 60.8669 71.6233Z" fill="#C5D2F1"/>
<path d="M60.8669 75.1072H14.0374C13.4627 75.1072 12.9967 75.5751 12.9967 76.1524C12.9967 76.7297 13.4627 77.1976 14.0374 77.1976H60.8669C61.4416 77.1976 61.9075 76.7297 61.9075 76.1524C61.9075 75.5751 61.4416 75.1072 60.8669 75.1072Z" fill="#C5D2F1"/>
<path d="M23.7502 79.6365H13.6905C13.3074 79.6365 12.9967 79.9484 12.9967 80.3333C12.9967 80.7181 13.3074 81.0301 13.6905 81.0301H23.7502C24.1333 81.0301 24.444 80.7181 24.444 80.3333C24.444 79.9484 24.1333 79.6365 23.7502 79.6365Z" fill="#C5D2F1"/>
<path d="M45.6994 81.7611C45.485 81.7611 45.3015 81.7099 45.1489 81.6078C44.9976 81.5047 44.8814 81.3566 44.8002 81.164C44.7198 80.9699 44.6799 80.7358 44.6799 80.4612C44.6799 80.1881 44.7205 79.9543 44.8016 79.7602C44.8831 79.5655 44.9994 79.4164 45.1506 79.3129C45.3032 79.2098 45.486 79.1582 45.6994 79.1582C45.9141 79.1582 46.0969 79.2098 46.2481 79.3129C46.4008 79.4164 46.517 79.5648 46.5971 79.7589C46.6786 79.9526 46.7192 80.1867 46.7192 80.4612C46.7192 80.7358 46.679 80.9699 46.5988 81.164C46.5187 81.3566 46.4025 81.5047 46.2499 81.6078C46.0986 81.7099 45.9151 81.7611 45.6994 81.7611ZM45.6994 81.3187C45.8024 81.3187 45.8888 81.2859 45.9585 81.2201C46.0299 81.1532 46.0834 81.0556 46.1194 80.9274C46.1569 80.7992 46.1753 80.6438 46.1753 80.4612C46.1753 80.2776 46.1569 80.1215 46.1194 79.9933C46.0834 79.8655 46.0299 79.7679 45.9585 79.701C45.8888 79.6327 45.8024 79.5989 45.6994 79.5989C45.5471 79.5989 45.4295 79.6742 45.3473 79.8251C45.2647 79.9749 45.2234 80.1867 45.2234 80.4612C45.2234 80.6438 45.2415 80.7992 45.2779 80.9274C45.315 81.0556 45.3691 81.1532 45.4402 81.2201C45.5114 81.2859 45.5977 81.3187 45.6994 81.3187ZM47.9725 81.7611C47.7581 81.7611 47.5746 81.7099 47.422 81.6078C47.2708 81.5047 47.1545 81.3566 47.073 81.164C46.9929 80.9699 46.953 80.7358 46.953 80.4612C46.953 80.1881 46.9936 79.9543 47.0748 79.7602C47.1563 79.5655 47.2725 79.4164 47.4237 79.3129C47.5764 79.2098 47.7592 79.1582 47.9725 79.1582C48.1872 79.1582 48.37 79.2098 48.5213 79.3129C48.6739 79.4164 48.7901 79.5648 48.8702 79.7589C48.9514 79.9526 48.9923 80.1867 48.9923 80.4612C48.9923 80.7358 48.9521 80.9699 48.872 81.164C48.7918 81.3566 48.6753 81.5047 48.523 81.6078C48.3718 81.7099 48.1883 81.7611 47.9725 81.7611ZM47.9725 81.3187C48.0752 81.3187 48.1616 81.2859 48.2316 81.2201C48.3027 81.1532 48.3565 81.0556 48.3926 80.9274C48.4297 80.7992 48.4484 80.6438 48.4484 80.4612C48.4484 80.2776 48.4297 80.1215 48.3926 79.9933C48.3565 79.8655 48.3027 79.7679 48.2316 79.701C48.1616 79.6327 48.0752 79.5989 47.9725 79.5989C47.8202 79.5989 47.7026 79.6742 47.6201 79.8251C47.5379 79.9749 47.4966 80.1867 47.4966 80.4612C47.4966 80.6438 47.5146 80.7992 47.5507 80.9274C47.5882 81.0556 47.6423 81.1532 47.7134 81.2201C47.7845 81.2859 47.8709 81.3187 47.9725 81.3187ZM50.2456 81.7611C50.0309 81.7611 49.8474 81.7099 49.6951 81.6078C49.5439 81.5047 49.4273 81.3566 49.3462 81.164C49.266 80.9699 49.2258 80.7358 49.2258 80.4612C49.2258 80.1881 49.2667 79.9543 49.3479 79.7602C49.4291 79.5655 49.5456 79.4164 49.6969 79.3129C49.8492 79.2098 50.0323 79.1582 50.2456 79.1582C50.46 79.1582 50.6432 79.2098 50.7944 79.3129C50.9467 79.4164 51.0633 79.5648 51.1434 79.7589C51.2246 79.9526 51.2651 80.1867 51.2651 80.4612C51.2651 80.7358 51.2252 80.9699 51.1451 81.164C51.0646 81.3566 50.9484 81.5047 50.7961 81.6078C50.6449 81.7099 50.4614 81.7611 50.2456 81.7611ZM50.2456 81.3187C50.3483 81.3187 50.4347 81.2859 50.5048 81.2201C50.5759 81.1532 50.6296 81.0556 50.6657 80.9274C50.7028 80.7992 50.7216 80.6438 50.7216 80.4612C50.7216 80.2776 50.7028 80.1215 50.6657 79.9933C50.6296 79.8655 50.5759 79.7679 50.5048 79.701C50.4347 79.6327 50.3483 79.5989 50.2456 79.5989C50.093 79.5989 49.9758 79.6742 49.8932 79.8251C49.811 79.9749 49.7697 80.1867 49.7697 80.4612C49.7697 80.6438 49.7878 80.7992 49.8238 80.9274C49.8609 81.0556 49.9154 81.1532 49.9865 81.2201C50.0576 81.2859 50.144 81.3187 50.2456 81.3187ZM51.8091 81.7594C51.7255 81.7594 51.6547 81.7308 51.5971 81.6744C51.5395 81.6176 51.5107 81.5472 51.5107 81.4633C51.5107 81.3793 51.5395 81.3089 51.5971 81.2525C51.6547 81.1957 51.7255 81.1675 51.8091 81.1675C51.8927 81.1675 51.9631 81.1957 52.0207 81.2525C52.0782 81.3089 52.107 81.3793 52.107 81.4633C52.107 81.5472 52.0782 81.6176 52.0207 81.6744C51.9631 81.7308 51.8927 81.7594 51.8091 81.7594ZM53.3725 81.7611C53.1577 81.7611 52.9742 81.7099 52.822 81.6078C52.6704 81.5047 52.5542 81.3566 52.473 81.164C52.3929 80.9699 52.3526 80.7358 52.3526 80.4612C52.3526 80.1881 52.3932 79.9543 52.4747 79.7602C52.5559 79.5655 52.6721 79.4164 52.8233 79.3129C52.976 79.2098 53.1588 79.1582 53.3725 79.1582C53.5868 79.1582 53.7696 79.2098 53.9212 79.3129C54.0735 79.4164 54.1897 79.5648 54.2699 79.7589C54.3514 79.9526 54.392 80.1867 54.392 80.4612C54.392 80.7358 54.3517 80.9699 54.2716 81.164C54.1915 81.3566 54.0753 81.5047 53.9226 81.6078C53.7714 81.7099 53.5879 81.7611 53.3725 81.7611ZM53.3725 81.3187C53.4751 81.3187 53.5615 81.2859 53.6316 81.2201C53.7027 81.1532 53.7561 81.0556 53.7922 80.9274C53.8297 80.7992 53.8484 80.6438 53.8484 80.4612C53.8484 80.2776 53.8297 80.1215 53.7922 79.9933C53.7561 79.8655 53.7027 79.7679 53.6316 79.701C53.5615 79.6327 53.4751 79.5989 53.3725 79.5989C53.2198 79.5989 53.1026 79.6742 53.02 79.8251C52.9375 79.9749 52.8962 80.1867 52.8962 80.4612C52.8962 80.6438 52.9146 80.7992 52.9507 80.9274C52.9878 81.0556 53.0419 81.1532 53.113 81.2201C53.1845 81.2859 53.2708 81.3187 53.3725 81.3187ZM55.6453 81.7611C55.4309 81.7611 55.2474 81.7099 55.0947 81.6078C54.9435 81.5047 54.8273 81.3566 54.7458 81.164C54.6657 80.9699 54.6258 80.7358 54.6258 80.4612C54.6258 80.1881 54.6663 79.9543 54.7475 79.7602C54.829 79.5655 54.9452 79.4164 55.0965 79.3129C55.2491 79.2098 55.4319 79.1582 55.6453 79.1582C55.86 79.1582 56.0428 79.2098 56.194 79.3129C56.3467 79.4164 56.4629 79.5648 56.543 79.7589C56.6245 79.9526 56.6651 80.1867 56.6651 80.4612C56.6651 80.7358 56.6249 80.9699 56.5447 81.164C56.4646 81.3566 56.3484 81.5047 56.1958 81.6078C56.0445 81.7099 55.861 81.7611 55.6453 81.7611ZM55.6453 81.3187C55.7479 81.3187 55.8343 81.2859 55.9044 81.2201C55.9755 81.1532 56.0293 81.0556 56.0653 80.9274C56.1028 80.7992 56.1212 80.6438 56.1212 80.4612C56.1212 80.2776 56.1028 80.1215 56.0653 79.9933C56.0293 79.8655 55.9755 79.7679 55.9044 79.701C55.8343 79.6327 55.7479 79.5989 55.6453 79.5989C55.493 79.5989 55.3754 79.6742 55.2932 79.8251C55.2106 79.9749 55.1693 80.1867 55.1693 80.4612C55.1693 80.6438 55.1874 80.7992 55.2234 80.9274C55.2609 81.0556 55.315 81.1532 55.3861 81.2201C55.4572 81.2859 55.5436 81.3187 55.6453 81.3187ZM58.4918 80.2055V80.5375H57.8632V81.727H57.4581V80.2055H58.4918ZM58.6614 82.2959V80.2055H59.0732V80.4626H59.0923C59.111 80.4208 59.1384 80.3787 59.1734 80.3362C59.2088 80.2933 59.2549 80.2581 59.3118 80.2299C59.3687 80.201 59.4391 80.1863 59.5231 80.1863C59.6341 80.1863 59.7357 80.2153 59.828 80.2734C59.921 80.3306 59.9955 80.4173 60.0514 80.5334C60.1076 80.6497 60.1357 80.7947 60.1357 80.9689C60.1357 81.1378 60.1083 81.2807 60.0542 81.3977C60.0001 81.5138 59.9265 81.6019 59.8332 81.6615C59.7413 81.7214 59.6372 81.7514 59.5217 81.7514C59.4405 81.7514 59.3711 81.7378 59.3143 81.7106C59.2574 81.6834 59.2109 81.6493 59.1748 81.6085C59.1394 81.5667 59.112 81.5253 59.0923 81.4835H59.0801V82.2959H58.6614ZM59.3888 81.4166C59.4575 81.4166 59.5155 81.3978 59.5623 81.3594C59.6095 81.3215 59.6452 81.2688 59.6695 81.2016C59.6938 81.1337 59.7059 81.0556 59.7059 80.9675C59.7059 80.8797 59.6938 80.8023 59.6695 80.7361C59.6459 80.6692 59.6108 80.6163 59.5637 80.5783C59.5168 80.5403 59.4586 80.5212 59.3888 80.5212C59.3212 80.5212 59.2633 80.5396 59.2154 80.5769C59.1686 80.6131 59.1325 80.6651 59.1072 80.7323C59.0825 80.7985 59.0704 80.8769 59.0704 80.9675C59.0704 81.0574 59.0832 81.1358 59.1086 81.203C59.1339 81.2702 59.17 81.3228 59.2168 81.3608C59.2647 81.3981 59.3222 81.4166 59.3888 81.4166ZM61.3713 80.7988V81.1281H60.5814V80.7988H61.3713ZM60.7195 80.2055V81.727H60.3199V80.2055H60.7195ZM61.6342 80.2055V81.727H61.237V80.2055H61.6342Z" fill="#9FAFD5"/>
<path d="M61.8205 88.3467H13.0831V88.5209H61.8205V88.3467Z" stroke="#C5D2F1" stroke-width="0.5" stroke-dasharray="4 4"/>
<path d="M14.2888 97.7006C14.0652 97.7006 13.8648 97.6494 13.6875 97.5473C13.5102 97.4452 13.3702 97.2971 13.2674 97.1034C13.1647 96.9094 13.1133 96.6752 13.1133 96.4007C13.1133 96.1241 13.1647 95.8885 13.2674 95.6948C13.3713 95.4997 13.5119 95.3516 13.6892 95.2506C13.8676 95.1485 14.0675 95.0977 14.2888 95.0977C14.4356 95.0977 14.5716 95.1186 14.697 95.1607C14.8223 95.2015 14.933 95.2614 15.029 95.3408C15.1261 95.4192 15.2051 95.5154 15.2661 95.63C15.3271 95.7436 15.366 95.8736 15.383 96.0195H14.8443C14.8342 95.9506 14.8139 95.8882 14.7834 95.8324C14.754 95.777 14.715 95.73 14.6665 95.6913C14.619 95.6527 14.5643 95.6234 14.5022 95.6028C14.4412 95.5812 14.374 95.5704 14.3006 95.5704C14.1719 95.5704 14.0584 95.6035 13.9602 95.6694C13.8631 95.7338 13.7874 95.8279 13.7332 95.9516C13.6801 96.0742 13.6536 96.2237 13.6536 96.4007C13.6536 96.5812 13.6807 96.7331 13.7349 96.8567C13.7891 96.979 13.8648 97.0717 13.9619 97.1341C14.059 97.1964 14.1713 97.2274 14.2989 97.2274C14.3701 97.2274 14.4361 97.218 14.4971 97.1985C14.5581 97.1794 14.6123 97.1515 14.6597 97.1153C14.7071 97.079 14.7467 97.0348 14.7783 96.9825C14.811 96.9292 14.833 96.8686 14.8443 96.8007H15.383C15.3694 96.9174 15.3349 97.0296 15.2796 97.1372C15.2254 97.2452 15.1515 97.3414 15.0578 97.4267C14.964 97.5104 14.8528 97.5773 14.7241 97.6274C14.5954 97.6762 14.4503 97.7006 14.2888 97.7006ZM15.9927 98.3775C15.9261 98.3786 15.8634 98.3741 15.8047 98.364C15.7471 98.3539 15.6997 98.3406 15.6624 98.3249L15.781 97.9319L15.7979 97.9351C15.886 97.9612 15.9611 97.9671 16.0232 97.9521C16.0864 97.9385 16.1344 97.8887 16.1672 97.8027L16.1977 97.7208L15.5202 95.7645H16.0706L16.4619 97.1613H16.4822L16.8786 95.7645H17.4324L16.6973 97.8724C16.6623 97.9744 16.6143 98.0633 16.5533 98.1392C16.4935 98.2155 16.4179 98.2737 16.3264 98.3145C16.2349 98.3566 16.1237 98.3775 15.9927 98.3775ZM18.7078 97.0846L19.2194 95.7645H19.6208L18.884 97.6664H18.5351L17.8135 95.7645H18.2116L18.7078 97.0846ZM18.0913 95.7645V97.6664H17.5916V95.7645H18.0913ZM19.3515 97.6664V95.7645H19.8444V97.6664H19.3515ZM20.6912 97.7023C20.5716 97.7023 20.4637 97.6811 20.3677 97.6393C20.2729 97.5961 20.1983 97.5327 20.1442 97.4487C20.0899 97.3647 20.0629 97.2605 20.0629 97.1358C20.0629 97.0292 20.082 96.9407 20.1204 96.8703C20.1588 96.7989 20.2114 96.7411 20.278 96.6968C20.3446 96.6526 20.4203 96.6191 20.5049 96.5965C20.5896 96.5738 20.6794 96.5578 20.7742 96.5488C20.8838 96.5387 20.9718 96.5282 21.0385 96.5181C21.1051 96.508 21.1536 96.4927 21.1841 96.4721C21.2158 96.4505 21.2315 96.4202 21.2315 96.3805V96.3718C21.2315 96.2937 21.2067 96.2328 21.157 96.1899C21.1085 96.1467 21.0396 96.1251 20.9504 96.1251C20.8567 96.1251 20.7816 96.146 20.7251 96.1882C20.6698 96.2289 20.6331 96.2812 20.615 96.3446L20.1289 96.3056C20.1537 96.1899 20.2023 96.0899 20.2746 96.0059C20.3468 95.9209 20.44 95.8558 20.554 95.8105C20.6692 95.7638 20.8025 95.7408 20.9538 95.7408C21.0588 95.7408 21.1593 95.753 21.2553 95.7781C21.3513 95.8032 21.4365 95.8415 21.511 95.8938C21.5867 95.945 21.6465 96.0112 21.6906 96.0927C21.7346 96.1746 21.7566 96.2714 21.7566 96.3836V97.6664H21.257V97.401H21.2434C21.2129 97.4612 21.1723 97.5138 21.1215 97.5591C21.0707 97.6034 21.0097 97.6386 20.9385 97.6647C20.8674 97.6898 20.785 97.7023 20.6912 97.7023ZM20.842 97.3383C20.9188 97.3383 20.9865 97.3229 21.0452 97.2923C21.1051 97.2605 21.1514 97.2184 21.1841 97.1661C21.218 97.1128 21.2349 97.0536 21.2349 96.9878V96.7853C21.2191 96.7954 21.1965 96.8052 21.1672 96.8142C21.139 96.8233 21.1074 96.8313 21.0723 96.8379C21.0373 96.8449 21.0023 96.8512 20.9673 96.8567C20.9323 96.8613 20.9007 96.8658 20.8725 96.8703C20.8104 96.8794 20.7562 96.894 20.7099 96.9146C20.6636 96.9338 20.6274 96.9606 20.6015 96.9944C20.5766 97.0275 20.5642 97.0689 20.5642 97.1188C20.5642 97.1902 20.5902 97.2445 20.6421 97.2818C20.6941 97.3194 20.7607 97.3383 20.842 97.3383ZM22.7543 97.6664V95.7645H24.4074V97.6664H23.9077V96.1794H23.2472V97.6664H22.7543ZM25.5676 97.7037C25.3768 97.7037 25.2114 97.663 25.0714 97.5814C24.9325 97.4985 24.8252 97.3839 24.7495 97.2379C24.675 97.0902 24.6377 96.9191 24.6377 96.724C24.6377 96.5268 24.675 96.3547 24.7495 96.2084C24.8252 96.061 24.9325 95.9464 25.0714 95.8648C25.2114 95.7819 25.3768 95.7408 25.5676 95.7408C25.7596 95.7408 25.925 95.7819 26.0639 95.8648C26.2039 95.9464 26.3112 96.061 26.3857 96.2084C26.4614 96.3547 26.4992 96.5268 26.4992 96.724C26.4992 96.9191 26.4614 97.0902 26.3857 97.2379C26.3112 97.3839 26.2039 97.4985 26.0639 97.5814C25.925 97.663 25.7596 97.7037 25.5676 97.7037ZM25.571 97.2923C25.658 97.2923 25.7308 97.2679 25.7895 97.2191C25.8482 97.1693 25.8923 97.101 25.9216 97.0149C25.9521 96.9285 25.9674 96.8306 25.9674 96.7205C25.9674 96.6094 25.9521 96.5115 25.9216 96.4261C25.8923 96.3411 25.8482 96.2742 25.7895 96.2254C25.7308 96.1767 25.658 96.1523 25.571 96.1523C25.4829 96.1523 25.409 96.1767 25.3491 96.2254C25.2904 96.2742 25.2458 96.3411 25.2153 96.4261C25.186 96.5115 25.1713 96.6094 25.1713 96.7205C25.1713 96.8306 25.186 96.9285 25.2153 97.0149C25.2458 97.101 25.2904 97.1693 25.3491 97.2191C25.409 97.2679 25.4829 97.2923 25.571 97.2923ZM26.7312 97.6664V95.7645H27.2546V96.5028H27.4037L27.9169 95.7645H28.5334L27.8644 96.7104L28.5402 97.6664H27.9169L27.4494 96.9926H27.2546V97.6664H26.7312ZM29.0009 98.3775C28.9343 98.3786 28.8716 98.3741 28.8129 98.364C28.7553 98.3539 28.7079 98.3406 28.6706 98.3249L28.7892 97.9319L28.8061 97.9351C28.8942 97.9612 28.9693 97.9671 29.0314 97.9521C29.0946 97.9385 29.1426 97.8887 29.1754 97.8027L29.2058 97.7208L28.5283 95.7645H29.0788L29.4701 97.1613H29.4904L29.8867 95.7645H30.4406L29.7055 97.8724C29.6705 97.9744 29.6225 98.0633 29.5615 98.1392C29.5017 98.2155 29.426 98.2737 29.3346 98.3145C29.2431 98.3566 29.1319 98.3775 29.0009 98.3775ZM30.5998 97.6664V95.7645H32.253V97.6664H31.7533V96.1794H31.0927V97.6664H30.5998ZM33.4132 97.7037C33.2224 97.7037 33.0569 97.663 32.9169 97.5814C32.778 97.4985 32.6707 97.3839 32.5951 97.2379C32.5206 97.0902 32.4833 96.9191 32.4833 96.724C32.4833 96.5268 32.5206 96.3547 32.5951 96.2084C32.6707 96.061 32.778 95.9464 32.9169 95.8648C33.0569 95.7819 33.2224 95.7408 33.4132 95.7408C33.6051 95.7408 33.7706 95.7819 33.9095 95.8648C34.0495 95.9464 34.1568 96.061 34.2313 96.2084C34.3069 96.3547 34.3448 96.5268 34.3448 96.724C34.3448 96.9191 34.3069 97.0902 34.2313 97.2379C34.1568 97.3839 34.0495 97.4985 33.9095 97.5814C33.7706 97.663 33.6051 97.7037 33.4132 97.7037ZM33.4166 97.2923C33.5035 97.2923 33.5764 97.2679 33.6351 97.2191C33.6938 97.1693 33.7378 97.101 33.7672 97.0149C33.7977 96.9285 33.8129 96.8306 33.8129 96.7205C33.8129 96.6094 33.7977 96.5115 33.7672 96.4261C33.7378 96.3411 33.6938 96.2742 33.6351 96.2254C33.5764 96.1767 33.5035 96.1523 33.4166 96.1523C33.3285 96.1523 33.2545 96.1767 33.1947 96.2254C33.136 96.2742 33.0914 96.3411 33.0609 96.4261C33.0315 96.5115 33.0168 96.6094 33.0168 96.7205C33.0168 96.8306 33.0315 96.9285 33.0609 97.0149C33.0914 97.101 33.136 97.1693 33.1947 97.2191C33.2545 97.2679 33.3285 97.2923 33.4166 97.2923ZM34.5768 97.6664V95.7645H35.1002V96.5028H35.2492L35.7625 95.7645H36.3789L35.7099 96.7104L36.3858 97.6664H35.7625L35.295 96.9926H35.1002V97.6664H34.5768Z" fill="#1F2024"/>
<path d="M46.0462 97.7006C45.8319 97.7006 45.6484 97.6494 45.4957 97.5473C45.3445 97.4442 45.2283 97.2961 45.1471 97.1034C45.0666 96.9094 45.0267 96.6752 45.0267 96.4007C45.0267 96.1275 45.0673 95.8938 45.1485 95.6997C45.23 95.5049 45.3462 95.3558 45.4975 95.2523C45.6501 95.1492 45.8329 95.0977 46.0462 95.0977C46.261 95.0977 46.4438 95.1492 46.595 95.2523C46.7476 95.3558 46.8639 95.5042 46.944 95.6983C47.0255 95.892 47.0661 96.1261 47.0661 96.4007C47.0661 96.6752 47.0258 96.9094 46.9457 97.1034C46.8656 97.2961 46.7494 97.4442 46.5968 97.5473C46.4455 97.6494 46.262 97.7006 46.0462 97.7006ZM46.0462 97.2581C46.1493 97.2581 46.2356 97.2254 46.3054 97.1595C46.3768 97.0926 46.4302 96.9951 46.4663 96.8668C46.5038 96.7386 46.5222 96.5833 46.5222 96.4007C46.5222 96.2171 46.5038 96.061 46.4663 95.9328C46.4302 95.8049 46.3768 95.7074 46.3054 95.6405C46.2356 95.5722 46.1493 95.5384 46.0462 95.5384C45.894 95.5384 45.7764 95.6136 45.6942 95.7645C45.6116 95.9143 45.5703 96.1261 45.5703 96.4007C45.5703 96.5833 45.5884 96.7386 45.6248 96.8668C45.6619 96.9951 45.716 97.0926 45.7871 97.1595C45.8582 97.2254 45.9446 97.2581 46.0462 97.2581ZM48.3194 97.7006C48.105 97.7006 47.9215 97.6494 47.7689 97.5473C47.6176 97.4442 47.5014 97.2961 47.4199 97.1034C47.3398 96.9094 47.2999 96.6752 47.2999 96.4007C47.2999 96.1275 47.3405 95.8938 47.4216 95.6997C47.5032 95.5049 47.6194 95.3558 47.7706 95.2523C47.9232 95.1492 48.106 95.0977 48.3194 95.0977C48.5341 95.0977 48.7169 95.1492 48.8682 95.2523C49.0208 95.3558 49.137 95.5042 49.2171 95.6983C49.2983 95.892 49.3392 96.1261 49.3392 96.4007C49.3392 96.6752 49.299 96.9094 49.2189 97.1034C49.1387 97.2961 49.0222 97.4442 48.8699 97.5473C48.7186 97.6494 48.5351 97.7006 48.3194 97.7006ZM48.3194 97.2581C48.4221 97.2581 48.5084 97.2254 48.5785 97.1595C48.6496 97.0926 48.7034 96.9951 48.7395 96.8668C48.7766 96.7386 48.7953 96.5833 48.7953 96.4007C48.7953 96.2171 48.7766 96.061 48.7395 95.9328C48.7034 95.8049 48.6496 95.7074 48.5785 95.6405C48.5084 95.5722 48.4221 95.5384 48.3194 95.5384C48.1671 95.5384 48.0495 95.6136 47.9669 95.7645C47.8847 95.9143 47.8435 96.1261 47.8435 96.4007C47.8435 96.5833 47.8615 96.7386 47.8976 96.8668C47.935 96.9951 47.9891 97.0926 48.0603 97.1595C48.1314 97.2254 48.2177 97.2581 48.3194 97.2581ZM50.5925 97.7006C50.3778 97.7006 50.1943 97.6494 50.042 97.5473C49.8908 97.4442 49.7742 97.2961 49.693 97.1034C49.6129 96.9094 49.5727 96.6752 49.5727 96.4007C49.5727 96.1275 49.6136 95.8938 49.6948 95.6997C49.776 95.5049 49.8925 95.3558 50.0437 95.2523C50.196 95.1492 50.3792 95.0977 50.5925 95.0977C50.8069 95.0977 50.9901 95.1492 51.1413 95.2523C51.2936 95.3558 51.4101 95.5042 51.4903 95.6983C51.5714 95.892 51.612 96.1261 51.612 96.4007C51.612 96.6752 51.5721 96.9094 51.492 97.1034C51.4115 97.2961 51.2953 97.4442 51.143 97.5473C50.9918 97.6494 50.8083 97.7006 50.5925 97.7006ZM50.5925 97.2581C50.6952 97.2581 50.7816 97.2254 50.8516 97.1595C50.9228 97.0926 50.9765 96.9951 51.0126 96.8668C51.0497 96.7386 51.0684 96.5833 51.0684 96.4007C51.0684 96.2171 51.0497 96.061 51.0126 95.9328C50.9765 95.8049 50.9228 95.7074 50.8516 95.6405C50.7816 95.5722 50.6952 95.5384 50.5925 95.5384C50.4399 95.5384 50.3226 95.6136 50.2401 95.7645C50.1579 95.9143 50.1166 96.1261 50.1166 96.4007C50.1166 96.5833 50.1346 96.7386 50.1707 96.8668C50.2078 96.9951 50.2623 97.0926 50.3334 97.1595C50.4045 97.2254 50.4909 97.2581 50.5925 97.2581ZM52.1559 97.6988C52.0723 97.6988 52.0016 97.6703 51.944 97.6138C51.8864 97.557 51.8576 97.4867 51.8576 97.4027C51.8576 97.3187 51.8864 97.2484 51.944 97.1919C52.0016 97.1351 52.0723 97.1069 52.1559 97.1069C52.2395 97.1069 52.3099 97.1351 52.3675 97.1919C52.4251 97.2484 52.4539 97.3187 52.4539 97.4027C52.4539 97.4867 52.4251 97.557 52.3675 97.6138C52.3099 97.6703 52.2395 97.6988 52.1559 97.6988ZM53.7193 97.7006C53.5046 97.7006 53.3211 97.6494 53.1688 97.5473C53.0172 97.4442 52.901 97.2961 52.8199 97.1034C52.7397 96.9094 52.6995 96.6752 52.6995 96.4007C52.6995 96.1275 52.7401 95.8938 52.8216 95.6997C52.9028 95.5049 53.019 95.3558 53.1702 95.2523C53.3229 95.1492 53.5057 95.0977 53.7193 95.0977C53.9337 95.0977 54.1165 95.1492 54.2681 95.2523C54.4204 95.3558 54.5366 95.5042 54.6167 95.6983C54.6983 95.892 54.7388 96.1261 54.7388 96.4007C54.7388 96.6752 54.6986 96.9094 54.6185 97.1034C54.5383 97.2961 54.4221 97.4442 54.2695 97.5473C54.1183 97.6494 53.9348 97.7006 53.7193 97.7006ZM53.7193 97.2581C53.822 97.2581 53.9084 97.2254 53.9785 97.1595C54.0496 97.0926 54.103 96.9951 54.1391 96.8668C54.1765 96.7386 54.1953 96.5833 54.1953 96.4007C54.1953 96.2171 54.1765 96.061 54.1391 95.9328C54.103 95.8049 54.0496 95.7074 53.9785 95.6405C53.9084 95.5722 53.822 95.5384 53.7193 95.5384C53.5667 95.5384 53.4495 95.6136 53.3669 95.7645C53.2844 95.9143 53.2431 96.1261 53.2431 96.4007C53.2431 96.5833 53.2615 96.7386 53.2975 96.8668C53.3346 96.9951 53.3888 97.0926 53.4599 97.1595C53.5313 97.2254 53.6177 97.2581 53.7193 97.2581ZM55.9921 97.7006C55.7778 97.7006 55.5943 97.6494 55.4416 97.5473C55.2904 97.4442 55.1742 97.2961 55.0927 97.1034C55.0125 96.9094 54.9726 96.6752 54.9726 96.4007C54.9726 96.1275 55.0132 95.8938 55.0944 95.6997C55.1759 95.5049 55.2921 95.3558 55.4434 95.2523C55.596 95.1492 55.7788 95.0977 55.9921 95.0977C56.2069 95.0977 56.3897 95.1492 56.5409 95.2523C56.6935 95.3558 56.8097 95.5042 56.8899 95.6983C56.9714 95.892 57.012 96.1261 57.012 96.4007C57.012 96.6752 56.9717 96.9094 56.8916 97.1034C56.8115 97.2961 56.6953 97.4442 56.5426 97.5473C56.3914 97.6494 56.2079 97.7006 55.9921 97.7006ZM55.9921 97.2581C56.0948 97.2581 56.1812 97.2254 56.2513 97.1595C56.3224 97.0926 56.3761 96.9951 56.4122 96.8668C56.4497 96.7386 56.4681 96.5833 56.4681 96.4007C56.4681 96.2171 56.4497 96.061 56.4122 95.9328C56.3761 95.8049 56.3224 95.7074 56.2513 95.6405C56.1812 95.5722 56.0948 95.5384 55.9921 95.5384C55.8399 95.5384 55.7223 95.6136 55.64 95.7645C55.5575 95.9143 55.5162 96.1261 55.5162 96.4007C55.5162 96.5833 55.5342 96.7386 55.5703 96.8668C55.6078 96.9951 55.6619 97.0926 55.733 97.1595C55.8041 97.2254 55.8905 97.2581 55.9921 97.2581ZM58.8387 96.145V96.477H58.2101V97.6664H57.805V96.145H58.8387ZM59.0083 98.2354V96.145H59.4201V96.4021H59.4391C59.4579 96.3603 59.4853 96.3181 59.5203 96.2756C59.5557 96.2328 59.6018 96.1976 59.6587 96.1693C59.7156 96.1404 59.786 96.1258 59.87 96.1258C59.981 96.1258 60.0826 96.1547 60.1749 96.2129C60.2678 96.27 60.3424 96.3568 60.3983 96.4728C60.4545 96.5892 60.4826 96.7341 60.4826 96.9083C60.4826 97.0773 60.4552 97.2201 60.401 97.3372C60.3469 97.4532 60.2734 97.5414 60.1801 97.6009C60.0882 97.6609 59.9841 97.6908 59.8686 97.6908C59.7874 97.6908 59.718 97.6772 59.6611 97.6501C59.6042 97.6229 59.5578 97.5887 59.5217 97.548C59.4863 97.5062 59.4589 97.4647 59.4391 97.4229H59.427V98.2354H59.0083ZM59.7357 97.356C59.8044 97.356 59.8623 97.3372 59.9092 97.2989C59.9563 97.2609 59.9921 97.2083 60.0163 97.141C60.0406 97.0731 60.0528 96.9951 60.0528 96.9069C60.0528 96.8191 60.0406 96.7418 60.0163 96.6756C59.9928 96.6087 59.9577 96.5557 59.9106 96.5178C59.8637 96.4798 59.8054 96.4606 59.7357 96.4606C59.6681 96.4606 59.6101 96.4791 59.5623 96.5164C59.5154 96.5526 59.4794 96.6045 59.454 96.6717C59.4294 96.7379 59.4173 96.8163 59.4173 96.9069C59.4173 96.9968 59.4301 97.0752 59.4554 97.1424C59.4808 97.2097 59.5168 97.2623 59.5637 97.3003C59.6115 97.3376 59.6691 97.356 59.7357 97.356ZM61.7182 96.7383V97.0675H60.9283V96.7383H61.7182ZM61.0664 96.145V97.6664H60.6668V96.145H61.0664ZM61.9811 96.145V97.6664H61.5839V96.145H61.9811Z" fill="#9FAFD5"/>
<path d="M13.0218 108.033V106.995H13.1946C13.2522 106.953 13.3053 106.893 13.3538 106.816C13.4023 106.739 13.4441 106.632 13.4791 106.496C13.5141 106.359 13.5384 106.18 13.552 105.959L13.6248 104.887H15.2932V106.995H15.5693V108.031H15.0561V107.422H13.535V108.033H13.0218ZM13.8094 106.995H14.78V105.329H14.1025L14.0652 105.959C14.0539 106.125 14.0358 106.274 14.011 106.405C13.9873 106.534 13.9585 106.647 13.9246 106.745C13.8907 106.841 13.8523 106.925 13.8094 106.995ZM16.3044 107.458C16.1847 107.458 16.0768 107.436 15.9808 107.395C15.886 107.351 15.8115 107.288 15.7573 107.204C15.7031 107.12 15.676 107.016 15.676 106.891C15.676 106.785 15.6952 106.696 15.7336 106.626C15.772 106.554 15.8245 106.496 15.8911 106.452C15.9577 106.408 16.0334 106.375 16.118 106.352C16.2027 106.329 16.2925 106.313 16.3874 106.304C16.4969 106.294 16.585 106.284 16.6516 106.274C16.7182 106.263 16.7667 106.248 16.7972 106.228C16.8289 106.206 16.8447 106.176 16.8447 106.136V106.127C16.8447 106.049 16.8198 105.988 16.7701 105.945C16.7216 105.902 16.6527 105.881 16.5635 105.881C16.4698 105.881 16.3947 105.901 16.3382 105.944C16.2829 105.984 16.2462 106.037 16.2281 106.1L15.742 106.061C15.7669 105.945 15.8154 105.845 15.8877 105.761C15.96 105.676 16.0531 105.611 16.1672 105.566C16.2824 105.519 16.4156 105.496 16.5669 105.496C16.6719 105.496 16.7724 105.508 16.8684 105.533C16.9644 105.559 17.0496 105.597 17.1241 105.649C17.1998 105.7 17.2596 105.767 17.3037 105.848C17.3477 105.93 17.3697 106.027 17.3697 106.139V107.422H16.8701V107.156H16.8565C16.826 107.217 16.7854 107.269 16.7346 107.315C16.6838 107.359 16.6228 107.394 16.5516 107.42C16.4805 107.445 16.3981 107.458 16.3044 107.458ZM16.4551 107.094C16.5319 107.094 16.5997 107.078 16.6583 107.048C16.7182 107.016 16.7645 106.974 16.7972 106.922C16.8311 106.868 16.8481 106.809 16.8481 106.743V106.541C16.8322 106.551 16.8097 106.561 16.7803 106.57C16.7521 106.579 16.7205 106.587 16.6855 106.593C16.6505 106.6 16.6154 106.607 16.5804 106.612C16.5454 106.617 16.5138 106.621 16.4856 106.626C16.4235 106.635 16.3693 106.649 16.323 106.67C16.2767 106.689 16.2406 106.716 16.2146 106.75C16.1897 106.783 16.1773 106.824 16.1773 106.874C16.1773 106.946 16.2033 107 16.2552 107.037C16.3072 107.075 16.3738 107.094 16.4551 107.094ZM17.4849 105.935V105.52H19.1973V105.935H18.5892V107.422H18.0896V105.935H17.4849ZM19.8782 107.458C19.7585 107.458 19.6507 107.436 19.5547 107.395C19.4599 107.351 19.3854 107.288 19.3311 107.204C19.2769 107.12 19.2498 107.016 19.2498 106.891C19.2498 106.785 19.269 106.696 19.3074 106.626C19.3458 106.554 19.3983 106.496 19.465 106.452C19.5316 106.408 19.6072 106.375 19.6919 106.352C19.7766 106.329 19.8664 106.313 19.9612 106.304C20.0708 106.294 20.1588 106.284 20.2254 106.274C20.2921 106.263 20.3406 106.248 20.3711 106.228C20.4027 106.206 20.4185 106.176 20.4185 106.136V106.127C20.4185 106.049 20.3937 105.988 20.344 105.945C20.2955 105.902 20.2266 105.881 20.1374 105.881C20.0437 105.881 19.9686 105.901 19.9121 105.944C19.8568 105.984 19.8201 106.037 19.802 106.1L19.3159 106.061C19.3407 105.945 19.3893 105.845 19.4616 105.761C19.5338 105.676 19.627 105.611 19.741 105.566C19.8562 105.519 19.9895 105.496 20.1408 105.496C20.2458 105.496 20.3463 105.508 20.4422 105.533C20.5382 105.559 20.6235 105.597 20.698 105.649C20.7737 105.7 20.8335 105.767 20.8775 105.848C20.9216 105.93 20.9436 106.027 20.9436 106.139V107.422H20.4439V107.156H20.4304C20.3999 107.217 20.3593 107.269 20.3084 107.315C20.2576 107.359 20.1966 107.394 20.1255 107.42C20.0544 107.445 19.9719 107.458 19.8782 107.458ZM20.029 107.094C20.1058 107.094 20.1735 107.078 20.2322 107.048C20.2921 107.016 20.3384 106.974 20.3711 106.922C20.405 106.868 20.4219 106.809 20.4219 106.743V106.541C20.4061 106.551 20.3835 106.561 20.3542 106.57C20.326 106.579 20.2943 106.587 20.2593 106.593C20.2243 106.6 20.1893 106.607 20.1543 106.612C20.1193 106.617 20.0877 106.621 20.0595 106.626C19.9974 106.635 19.9431 106.649 19.8969 106.67C19.8506 106.689 19.8144 106.716 19.7885 106.75C19.7636 106.783 19.7512 106.824 19.7512 106.874C19.7512 106.946 19.7772 107 19.8291 107.037C19.881 107.075 19.9477 107.094 20.029 107.094Z" fill="#1F2024"/>
<path d="M38.0528 106.262V106.674H37.0655V106.262H38.0528ZM37.2383 105.52V107.422H36.7384V105.52H37.2383ZM38.3816 105.52V107.422H37.8852V105.52H38.3816ZM39.552 107.459C39.3577 107.459 39.1898 107.42 39.0487 107.34C38.9078 107.261 38.7992 107.148 38.7236 107.002C38.649 106.854 38.6119 106.68 38.6119 106.48C38.6119 106.284 38.649 106.113 38.7236 105.966C38.7992 105.818 38.9054 105.703 39.0421 105.62C39.1798 105.537 39.3414 105.496 39.5263 105.496C39.6519 105.496 39.7688 105.517 39.877 105.557C39.9856 105.597 40.0803 105.657 40.1615 105.738C40.243 105.817 40.3061 105.918 40.3512 106.039C40.3967 106.159 40.4192 106.3 40.4192 106.462V106.605H38.8201V106.281H40.1649L39.9211 106.366C39.9211 106.269 39.9065 106.185 39.877 106.114C39.8479 106.042 39.8038 105.987 39.7449 105.949C39.6873 105.909 39.6158 105.889 39.5298 105.889C39.4441 105.889 39.3713 105.909 39.3113 105.949C39.2526 105.988 39.2075 106.042 39.176 106.11C39.1444 106.179 39.1284 106.257 39.1284 106.345V106.575C39.1284 106.678 39.1465 106.766 39.1826 106.84C39.2186 106.913 39.2689 106.969 39.3335 107.008C39.399 107.047 39.4739 107.066 39.5586 107.066C39.6172 107.066 39.6703 107.058 39.7178 107.041C39.7653 107.024 39.8059 106.999 39.8399 106.966C39.8749 106.933 39.901 106.893 39.9176 106.847L40.4022 106.879C40.3786 106.996 40.3287 107.098 40.253 107.185C40.1785 107.272 40.082 107.339 39.9634 107.388C39.8448 107.436 39.7077 107.459 39.552 107.459ZM42.1873 107.459C41.9944 107.459 41.8282 107.418 41.6895 107.335C41.5504 107.251 41.4439 107.136 41.3693 106.99C41.2947 106.843 41.2576 106.672 41.2576 106.48C41.2576 106.284 41.2947 106.113 41.3693 105.966C41.4449 105.818 41.5521 105.703 41.6912 105.62C41.83 105.537 41.9954 105.496 42.1873 105.496C42.3524 105.496 42.4964 105.526 42.6191 105.586C42.7437 105.647 42.8418 105.731 42.914 105.84C42.9862 105.949 43.0257 106.077 43.0326 106.224H42.538C42.529 106.161 42.5099 106.105 42.4804 106.058C42.4509 106.01 42.4121 105.973 42.3635 105.947C42.3149 105.921 42.2584 105.908 42.1942 105.908C42.113 105.908 42.0416 105.93 41.9809 105.974C41.9209 106.017 41.874 106.081 41.84 106.166C41.8074 106.25 41.7911 106.352 41.7911 106.473C41.7911 106.593 41.8074 106.696 41.84 106.782C41.874 106.868 41.9209 106.934 41.9809 106.98C42.0416 107.025 42.113 107.048 42.1942 107.048C42.2844 107.048 42.3607 107.019 42.4228 106.963C42.4849 106.905 42.5234 106.826 42.538 106.724H43.0326C43.0247 106.87 42.9858 106.998 42.9157 107.109C42.8457 107.219 42.7492 107.305 42.6261 107.368C42.5029 107.429 42.3569 107.459 42.1873 107.459ZM43.075 105.935V105.52H44.7872V105.935H44.1794V107.422H43.6796V105.935H43.075ZM45.4681 107.458C45.3484 107.458 45.2406 107.437 45.1448 107.395C45.0498 107.352 44.9752 107.288 44.9211 107.204C44.867 107.12 44.8399 107.016 44.8399 106.891C44.8399 106.785 44.859 106.696 44.8975 106.626C44.936 106.554 44.9884 106.497 45.055 106.452C45.1216 106.408 45.1972 106.375 45.2818 106.352C45.3665 106.329 45.4563 106.313 45.5514 106.304C45.6606 106.294 45.7487 106.284 45.8153 106.274C45.8819 106.264 45.9305 106.248 45.961 106.228C45.9926 106.206 46.0086 106.176 46.0086 106.136V106.127C46.0086 106.049 45.9836 105.988 45.934 105.945C45.8854 105.902 45.8167 105.881 45.7272 105.881C45.6336 105.881 45.5587 105.902 45.5021 105.944C45.447 105.984 45.4102 106.037 45.3921 106.1L44.9058 106.061C44.9308 105.945 44.9794 105.845 45.0515 105.761C45.124 105.676 45.217 105.611 45.3311 105.566C45.4463 105.519 45.5795 105.496 45.7307 105.496C45.8358 105.496 45.9364 105.509 46.0321 105.534C46.1282 105.559 46.2136 105.597 46.2882 105.649C46.3638 105.701 46.4234 105.767 46.4675 105.848C46.5115 105.93 46.5337 106.027 46.5337 106.139V107.422H46.0339V107.157H46.0204C45.9898 107.217 45.9492 107.269 45.8986 107.315C45.8476 107.359 45.7866 107.394 45.7154 107.42C45.6443 107.445 45.5621 107.458 45.4681 107.458ZM45.619 107.094C45.6957 107.094 45.7637 107.078 45.8223 107.048C45.8819 107.016 45.9284 106.974 45.961 106.922C45.995 106.868 46.012 106.809 46.012 106.743V106.541C45.9961 106.551 45.9735 106.561 45.944 106.57C45.9159 106.579 45.8844 106.587 45.8493 106.593C45.8143 106.6 45.7793 106.607 45.7442 106.612C45.7092 106.617 45.6776 106.621 45.6495 106.626C45.5874 106.635 45.5333 106.65 45.4868 106.67C45.4407 106.689 45.4043 106.716 45.3786 106.75C45.3536 106.783 45.3412 106.824 45.3412 106.874C45.3412 106.946 45.3672 107 45.4192 107.037C45.4709 107.075 45.5378 107.094 45.619 107.094ZM46.84 108.133V105.52H47.3552V105.842H47.3788C47.4027 105.789 47.4363 105.737 47.4804 105.683C47.5244 105.63 47.582 105.586 47.6531 105.551C47.7243 105.514 47.8124 105.496 47.9175 105.496C48.0562 105.496 48.1835 105.533 48.2987 105.605C48.4149 105.676 48.5079 105.785 48.5779 105.93C48.648 106.075 48.683 106.257 48.683 106.474C48.683 106.685 48.6491 106.864 48.5814 107.01C48.5138 107.155 48.4215 107.266 48.3053 107.34C48.1901 107.415 48.0604 107.453 47.9157 107.453C47.8141 107.453 47.7277 107.436 47.6566 107.401C47.5855 107.368 47.5272 107.325 47.4821 107.274C47.4381 107.222 47.4037 107.17 47.3788 107.117H47.3635V108.133H46.84ZM47.7499 107.034C47.8356 107.034 47.9078 107.01 47.9664 106.963C48.0253 106.915 48.0698 106.849 48.1003 106.765C48.1308 106.68 48.1461 106.583 48.1461 106.473C48.1461 106.363 48.1308 106.266 48.1003 106.183C48.0711 106.099 48.0271 106.034 47.9681 105.986C47.9095 105.938 47.8366 105.915 47.7499 105.915C47.6649 105.915 47.5928 105.938 47.5328 105.984C47.4741 106.03 47.4291 106.095 47.3975 106.179C47.367 106.261 47.3517 106.359 47.3517 106.473C47.3517 106.585 47.3677 106.683 47.3992 106.767C47.4308 106.851 47.4759 106.917 47.5345 106.965C47.5945 107.011 47.6663 107.034 47.7499 107.034ZM48.9134 105.52H49.4129V107.005H49.9467V105.52H50.4463V107.005H50.9815V105.52H51.4828V107.422H48.9134V105.52ZM52.6549 107.459C52.4606 107.459 52.2931 107.42 52.1519 107.34C52.0107 107.261 51.9025 107.148 51.8265 107.002C51.7523 106.854 51.7148 106.68 51.7148 106.48C51.7148 106.284 51.7523 106.113 51.8265 105.966C51.9025 105.818 52.0086 105.703 52.145 105.62C52.283 105.537 52.4443 105.496 52.6296 105.496C52.7548 105.496 52.8717 105.517 52.9803 105.557C53.0885 105.597 53.1835 105.657 53.2647 105.738C53.3459 105.817 53.4094 105.918 53.4544 106.039C53.4995 106.159 53.5221 106.3 53.5221 106.462V106.605H51.9233V106.281H53.2682L53.0243 106.366C53.0243 106.269 53.0094 106.185 52.9803 106.114C52.9508 106.042 52.9067 105.987 52.8481 105.949C52.7905 105.909 52.7187 105.889 52.633 105.889C52.547 105.889 52.4742 105.909 52.4145 105.949C52.3555 105.988 52.3104 106.042 52.2789 106.11C52.2473 106.179 52.2313 106.257 52.2313 106.345V106.575C52.2313 106.678 52.2497 106.766 52.2858 106.84C52.3219 106.913 52.3722 106.969 52.4363 107.008C52.5019 107.047 52.5772 107.066 52.6618 107.066C52.7204 107.066 52.7735 107.058 52.821 107.041C52.8682 107.024 52.9091 106.999 52.9428 106.966C52.9778 106.933 53.0038 106.893 53.0208 106.847L53.5051 106.879C53.4815 106.996 53.4319 107.098 53.3563 107.185C53.2817 107.272 53.1849 107.339 53.0666 107.388C52.948 107.436 52.8106 107.459 52.6549 107.459ZM54.5315 107.422L55.5767 105.343V105.326H54.3588V104.887H56.1307V105.333L55.0838 107.422H54.5315ZM56.8928 107.978V107.005H57.0385C57.0791 106.978 57.113 106.936 57.1401 106.879C57.1672 106.821 57.1887 106.753 57.2043 106.675C57.2213 106.596 57.2345 106.511 57.2435 106.42C57.2535 106.329 57.2619 106.237 57.2688 106.144L57.3194 105.52H58.7694V107.005H59.0643V107.978H58.5627V107.422H57.4058V107.978H56.8928ZM57.5619 107.005H58.2748V105.927H57.7652L57.7447 106.144C57.7312 106.348 57.7114 106.52 57.6854 106.661C57.6594 106.802 57.6181 106.917 57.5619 107.005ZM59.2589 107.422V105.52H59.7823V107.422H59.2589ZM59.5197 105.277C59.442 105.277 59.3751 105.251 59.3199 105.198C59.2644 105.146 59.237 105.083 59.237 105.01C59.237 104.936 59.2644 104.874 59.3199 104.823C59.3751 104.77 59.442 104.744 59.5197 104.744C59.5988 104.744 59.6661 104.77 59.7213 104.823C59.7768 104.874 59.8042 104.936 59.8042 105.01C59.8042 105.083 59.7768 105.146 59.7213 105.198C59.6661 105.251 59.5988 105.277 59.5197 105.277ZM61.659 104.823L61.8199 105.168C61.7669 105.212 61.7075 105.245 61.642 105.266C61.5778 105.287 61.5005 105.301 61.4099 105.308C61.3208 105.314 61.2111 105.319 61.0814 105.321C60.9357 105.322 60.8167 105.346 60.7241 105.393C60.6325 105.438 60.5632 105.509 60.5156 105.605C60.4685 105.702 60.4366 105.827 60.4209 105.983H60.4411C60.4966 105.867 60.5757 105.778 60.6783 105.716C60.782 105.652 60.9097 105.62 61.0613 105.62C61.2226 105.62 61.3638 105.656 61.4845 105.728C61.6056 105.798 61.6996 105.899 61.7676 106.032C61.8352 106.165 61.8685 106.323 61.8675 106.508C61.8685 106.701 61.8317 106.869 61.7571 107.012C61.6829 107.155 61.5761 107.265 61.4373 107.342C61.2993 107.419 61.1352 107.458 60.9444 107.459C60.6575 107.458 60.431 107.368 60.2652 107.187C60.099 107.006 60.0154 106.743 60.0144 106.398V106.243C60.0154 105.785 60.1046 105.445 60.2818 105.224C60.4591 105.003 60.7207 104.89 61.0662 104.887C61.1588 104.886 61.2431 104.886 61.3187 104.887C61.3943 104.887 61.4602 104.883 61.5168 104.875C61.5743 104.867 61.6219 104.85 61.659 104.823ZM60.9458 107.051C61.0273 107.051 61.0967 107.03 61.1543 106.988C61.2118 106.945 61.2566 106.884 61.2882 106.806C61.3197 106.728 61.335 106.635 61.3339 106.527C61.335 106.418 61.3197 106.326 61.2882 106.252C61.2566 106.176 61.2111 106.118 61.1525 106.078C61.0949 106.038 61.0256 106.019 60.9444 106.019C60.8833 106.019 60.8285 106.03 60.78 106.052C60.7314 106.075 60.6901 106.108 60.6565 106.153C60.6225 106.196 60.5965 106.249 60.5784 106.311C60.5604 106.374 60.5507 106.445 60.5496 106.527C60.5496 106.688 60.5847 106.816 60.6547 106.91C60.7259 107.004 60.823 107.051 60.9458 107.051Z" fill="#9FAFD5"/>
</g>
<path d="M70 17V13.622C70 11.0693 67.672 9 64.8003 9H61" stroke="#FFFBFB" stroke-width="4" stroke-linecap="round" stroke-linejoin="round"/>
<path d="M70 17V13.622C70 11.0693 67.672 9 64.8003 9H61" stroke="url(#paint0_linear_1798_5703)" stroke-width="4" stroke-linecap="round" stroke-linejoin="round"/>
<path d="M70 17V13.622C70 11.0693 67.672 9 64.8003 9H61" stroke="url(#paint1_linear_1798_5703)" stroke-width="4" stroke-linecap="round" stroke-linejoin="round"/>
<path d="M14 9H10.622C8.06934 9 6 11.0693 6 13.622V17" stroke="#FFFBFB" stroke-width="4" stroke-linecap="round" stroke-linejoin="round"/>
<path d="M14 9H10.622C8.06934 9 6 11.0693 6 13.622V17" stroke="url(#paint2_linear_1798_5703)" stroke-width="4" stroke-linecap="round" stroke-linejoin="round"/>
<path d="M14 9H10.622C8.06934 9 6 11.0693 6 13.622V17" stroke="url(#paint3_linear_1798_5703)" stroke-width="4" stroke-linecap="round" stroke-linejoin="round"/>
<path d="M6 111V114.378C6 116.931 8.06934 119 10.622 119H14" stroke="#FFFBFB" stroke-width="4" stroke-linecap="round" stroke-linejoin="round"/>
<path d="M6 111V114.378C6 116.931 8.06934 119 10.622 119H14" stroke="url(#paint4_linear_1798_5703)" stroke-width="4" stroke-linecap="round" stroke-linejoin="round"/>
<path d="M6 111V114.378C6 116.931 8.06934 119 10.622 119H14" stroke="url(#paint5_linear_1798_5703)" stroke-width="4" stroke-linecap="round" stroke-linejoin="round"/>
<path d="M61 119H64.8003C67.672 119 70 116.931 70 114.378V111" stroke="#FFFBFB" stroke-width="4" stroke-linecap="round" stroke-linejoin="round"/>
<path d="M61 119H64.8003C67.672 119 70 116.931 70 114.378V111" stroke="url(#paint6_linear_1798_5703)" stroke-width="4" stroke-linecap="round" stroke-linejoin="round"/>
<path d="M61 119H64.8003C67.672 119 70 116.931 70 114.378V111" stroke="url(#paint7_linear_1798_5703)" stroke-width="4" stroke-linecap="round" stroke-linejoin="round"/>
<g filter="url(#filter1_d_1798_5703)">
<circle cx="37" cy="115" r="11" fill="url(#paint8_linear_1798_5703)"/>
</g>
<path d="M32.9444 117.413C32.9444 117.136 32.7206 116.913 32.4444 116.913H32.375C32.0989 116.913 31.875 117.136 31.875 117.413V119.054C31.875 119.642 32.3563 120.124 32.9444 120.124H34.5833C34.8595 120.124 35.0833 119.9 35.0833 119.624V119.554C35.0833 119.278 34.8595 119.054 34.5833 119.054H33.4444C33.1683 119.054 32.9444 118.83 32.9444 118.554V117.413ZM32.9444 111.184C32.9444 110.908 33.1683 110.684 33.4444 110.684H34.5833C34.8595 110.684 35.0833 110.46 35.0833 110.184V110.113C35.0833 109.837 34.8595 109.613 34.5833 109.613H32.9444C32.3563 109.613 31.875 110.095 31.875 110.684V112.325C31.875 112.601 32.0989 112.825 32.375 112.825H32.4444C32.7206 112.825 32.9444 112.601 32.9444 112.325V111.184ZM37.125 112.728C35.9433 112.728 34.9861 113.686 34.9861 114.869C34.9861 116.052 35.9433 117.01 37.125 117.01C38.3067 117.01 39.2639 116.052 39.2639 114.869C39.2639 113.686 38.3067 112.728 37.125 112.728ZM37.125 115.939C36.5368 115.939 36.0556 115.458 36.0556 114.869C36.0556 114.28 36.5368 113.798 37.125 113.798C37.7132 113.798 38.1944 114.28 38.1944 114.869C38.1944 115.458 37.7132 115.939 37.125 115.939ZM41.3056 109.613H39.6667C39.3905 109.613 39.1667 109.837 39.1667 110.113V110.184C39.1667 110.46 39.3905 110.684 39.6667 110.684H40.8056C41.0817 110.684 41.3056 110.908 41.3056 111.184V112.325C41.3056 112.601 41.5294 112.825 41.8056 112.825H41.875C42.1511 112.825 42.375 112.601 42.375 112.325V110.684C42.375 110.095 41.8938 109.613 41.3056 109.613ZM41.3056 118.554C41.3056 118.83 41.0817 119.054 40.8056 119.054H39.6667C39.3905 119.054 39.1667 119.278 39.1667 119.554V119.624C39.1667 119.9 39.3905 120.124 39.6667 120.124H41.3056C41.8938 120.124 42.375 119.642 42.375 119.054V117.413C42.375 117.136 42.1511 116.913 41.875 116.913H41.8056C41.5294 116.913 41.3056 117.136 41.3056 117.413V118.554Z" fill="black"/>
<defs>
<filter id="filter0_d_1798_5703" x="0.14003" y="7.91357" width="74.9705" height="121.567" filterUnits="userSpaceOnUse" color-interpolation-filters="sRGB">
<feFlood flood-opacity="0" result="BackgroundImageFix"/>
<feColorMatrix in="SourceAlpha" type="matrix" values="0 0 0 0 0 0 0 0 0 0 0 0 0 0 0 0 0 0 127 0" result="hardAlpha"/>
<feOffset dy="5"/>
<feGaussianBlur stdDeviation="4"/>
<feComposite in2="hardAlpha" operator="out"/>
<feColorMatrix type="matrix" values="0 0 0 0 0.301508 0 0 0 0 0.213325 0 0 0 0 0.372624 0 0 0 0.5 0"/>
<feBlend mode="normal" in2="BackgroundImageFix" result="effect1_dropShadow_1798_5703"/>
<feBlend mode="normal" in="SourceGraphic" in2="effect1_dropShadow_1798_5703" result="shape"/>
</filter>
<filter id="filter1_d_1798_5703" x="18" y="100" width="38" height="38" filterUnits="userSpaceOnUse" color-interpolation-filters="sRGB">
<feFlood flood-opacity="0" result="BackgroundImageFix"/>
<feColorMatrix in="SourceAlpha" type="matrix" values="0 0 0 0 0 0 0 0 0 0 0 0 0 0 0 0 0 0 127 0" result="hardAlpha"/>
<feOffset dy="4"/>
<feGaussianBlur stdDeviation="4"/>
<feComposite in2="hardAlpha" operator="out"/>
<feColorMatrix type="matrix" values="0 0 0 0 0 0 0 0 0 0.374793 0 0 0 0 0.312328 0 0 0 0.2 0"/>
<feBlend mode="normal" in2="BackgroundImageFix" result="effect1_dropShadow_1798_5703"/>
<feBlend mode="normal" in="SourceGraphic" in2="effect1_dropShadow_1798_5703" result="shape"/>
</filter>
<linearGradient id="paint0_linear_1798_5703" x1="63.4383" y1="7.13791" x2="71.2081" y2="15.8789" gradientUnits="userSpaceOnUse">
<stop stop-color="#BEEC26"/>
<stop offset="1" stop-color="#F8FF6F"/>
</linearGradient>
<linearGradient id="paint1_linear_1798_5703" x1="72.0948" y1="11.1674" x2="64.325" y2="19.9083" gradientUnits="userSpaceOnUse">
<stop stop-color="#FF3154"/>
<stop offset="1" stop-color="#FF2E85"/>
</linearGradient>
<linearGradient id="paint2_linear_1798_5703" x1="4.13791" y1="14.8326" x2="11.9617" y2="7.00883" gradientUnits="userSpaceOnUse">
<stop stop-color="#BEEC26"/>
<stop offset="1" stop-color="#F8FF6F"/>
</linearGradient>
<linearGradient id="paint3_linear_1798_5703" x1="15.862" y1="11.1674" x2="8.0383" y2="18.9911" gradientUnits="userSpaceOnUse">
<stop stop-color="#FF3154"/>
<stop offset="1" stop-color="#FF2E85"/>
</linearGradient>
<linearGradient id="paint4_linear_1798_5703" x1="11.8326" y1="120.862" x2="4.00887" y2="113.038" gradientUnits="userSpaceOnUse">
<stop stop-color="#BEEC26"/>
<stop offset="1" stop-color="#F8FF6F"/>
</linearGradient>
<linearGradient id="paint5_linear_1798_5703" x1="15.862" y1="113.167" x2="8.0383" y2="120.991" gradientUnits="userSpaceOnUse">
<stop stop-color="#FF3154"/>
<stop offset="1" stop-color="#FF2E85"/>
</linearGradient>
<linearGradient id="paint6_linear_1798_5703" x1="72.0948" y1="113.167" x2="64.325" y2="121.908" gradientUnits="userSpaceOnUse">
<stop stop-color="#BEEC26"/>
<stop offset="1" stop-color="#F8FF6F"/>
</linearGradient>
<linearGradient id="paint7_linear_1798_5703" x1="72.0948" y1="113.167" x2="64.325" y2="121.908" gradientUnits="userSpaceOnUse">
<stop stop-color="#FF3154"/>
<stop offset="1" stop-color="#FF2E85"/>
</linearGradient>
<linearGradient id="paint8_linear_1798_5703" x1="36.9189" y1="125.58" x2="36.9189" y2="104.065" gradientUnits="userSpaceOnUse">
<stop stop-color="#BEEC26"/>
<stop offset="1" stop-color="#F8FF6F"/>
</linearGradient>
</defs>
</svg>
