<svg xmlns="http://www.w3.org/2000/svg" width="79" height="139" fill="none"><g filter="url(#a)"><path fill="#fff" d="M68.037 6.05h-56.44a2.938 2.938 0 0 0-2.932 2.944v105.644a2.939 2.939 0 0 0 2.932 2.945h56.44a2.939 2.939 0 0 0 2.932-2.945V8.994a2.938 2.938 0 0 0-2.932-2.945Z"/><path fill="#1F2024" d="M13.968 15.62v-2.678h.562v1.105h1.145V12.94h.562v2.679h-.562v-1.108H14.53v1.108h-.562Zm3.173.037a.844.844 0 0 1-.342-.066.54.54 0 0 1-.236-.201.597.597 0 0 1-.086-.331.58.58 0 0 1 .06-.28.5.5 0 0 1 .167-.184.808.808 0 0 1 .24-.106c.09-.024.184-.04.285-.05.115-.011.208-.022.279-.033a.396.396 0 0 0 .154-.048.11.11 0 0 0 .05-.097v-.01a.24.24 0 0 0-.08-.191.318.318 0 0 0-.217-.069.39.39 0 0 0-.238.067.305.305 0 0 0-.117.165l-.513-.041a.7.7 0 0 1 .449-.523c.122-.05.262-.074.422-.074.111 0 .217.013.319.04a.832.832 0 0 1 .27.122.584.584 0 0 1 .26.517v1.356h-.529v-.28h-.014a.566.566 0 0 1-.322.278.79.79 0 0 1-.261.04Zm.16-.384a.458.458 0 0 0 .214-.049.379.379 0 0 0 .147-.133.345.345 0 0 0 .053-.188v-.214a.303.303 0 0 1-.071.03.87.87 0 0 1-.1.025 3.529 3.529 0 0 1-.212.034.663.663 0 0 0-.172.047.27.27 0 0 0-.114.085.211.211 0 0 0-.04.13.2.2 0 0 0 .083.173c.055.04.125.06.211.06Zm1.245-.223h.536c.004.067.034.12.09.158.057.038.13.057.22.057s.165-.02.226-.062a.217.217 0 0 0 .093-.185.215.215 0 0 0-.038-.126.241.241 0 0 0-.1-.085.309.309 0 0 0-.15-.03h-.287v-.365h.286a.302.302 0 0 0 .197-.061c.047-.04.07-.09.072-.151a.213.213 0 0 0-.073-.164.279.279 0 0 0-.196-.061.339.339 0 0 0-.204.056.177.177 0 0 0-.084.142H18.6a.49.49 0 0 1 .108-.313.694.694 0 0 1 .288-.203 1.08 1.08 0 0 1 .402-.072c.164 0 .305.023.423.07.118.046.21.11.273.196a.472.472 0 0 1 .095.302.359.359 0 0 1-.103.266.58.58 0 0 1-.29.153v.02a.503.503 0 0 1 .222.068.423.423 0 0 1 .16.16c.041.068.061.149.061.242a.488.488 0 0 1-.109.32.695.695 0 0 1-.299.205 1.28 1.28 0 0 1-.436.072 1.26 1.26 0 0 1-.43-.072.688.688 0 0 1-.3-.205.558.558 0 0 1-.118-.332Zm1.855.57v-2.01h.85c.247.001.442.05.585.144a.45.45 0 0 1 .215.4.35.35 0 0 1-.121.272.671.671 0 0 1-.335.147c.12.009.221.036.306.081.085.046.15.105.195.178a.44.44 0 0 1 .068.24.478.478 0 0 1-.093.294.577.577 0 0 1-.265.189 1.215 1.215 0 0 1-.422.065H20.4Zm.516-.417h.467a.272.272 0 0 0 .18-.056.184.184 0 0 0 .065-.153.211.211 0 0 0-.065-.167.252.252 0 0 0-.18-.063h-.467v.439Zm0-.766h.347a.305.305 0 0 0 .195-.052.181.181 0 0 0 .07-.15.166.166 0 0 0-.076-.143.336.336 0 0 0-.202-.054h-.334v.399Zm2.047 1.22a.844.844 0 0 1-.342-.066.54.54 0 0 1-.236-.201.597.597 0 0 1-.086-.331c0-.113.02-.206.06-.28a.503.503 0 0 1 .167-.184.81.81 0 0 1 .24-.106c.09-.024.184-.04.285-.05a4.97 4.97 0 0 0 .279-.033.395.395 0 0 0 .154-.048.11.11 0 0 0 .05-.097v-.01a.24.24 0 0 0-.079-.191.318.318 0 0 0-.218-.069.39.39 0 0 0-.238.067.305.305 0 0 0-.117.165l-.513-.041a.7.7 0 0 1 .449-.523c.122-.05.262-.074.422-.074.111 0 .217.013.319.04a.832.832 0 0 1 .27.122.585.585 0 0 1 .26.517v1.356h-.528v-.28h-.015a.564.564 0 0 1-.322.278.79.79 0 0 1-.261.04Zm.16-.384a.458.458 0 0 0 .214-.049.378.378 0 0 0 .147-.133.344.344 0 0 0 .053-.188v-.214a.3.3 0 0 1-.071.03.87.87 0 0 1-.1.025 3.581 3.581 0 0 1-.212.034.663.663 0 0 0-.171.047.27.27 0 0 0-.115.085.211.211 0 0 0-.04.13.2.2 0 0 0 .083.173c.055.04.125.06.211.06Zm3.199-.268.54-1.395h.424l-.778 2.01h-.369l-.762-2.01h.42l.525 1.395Zm-.652-1.395v2.01h-.527v-2.01h.527Zm1.332 2.01v-2.01h.52v2.01h-.52Zm1.415.037a.844.844 0 0 1-.341-.066.54.54 0 0 1-.237-.201.597.597 0 0 1-.086-.331.58.58 0 0 1 .061-.28.5.5 0 0 1 .167-.184.81.81 0 0 1 .24-.106c.089-.024.184-.04.284-.05a4.97 4.97 0 0 0 .28-.033.395.395 0 0 0 .153-.048.11.11 0 0 0 .05-.097v-.01a.24.24 0 0 0-.079-.191.318.318 0 0 0-.218-.069.39.39 0 0 0-.238.067.305.305 0 0 0-.116.165l-.514-.041a.702.702 0 0 1 .45-.523c.121-.05.262-.074.422-.074.11 0 .217.013.318.04a.832.832 0 0 1 .27.122.584.584 0 0 1 .26.517v1.356h-.528v-.28h-.014a.567.567 0 0 1-.322.278.79.79 0 0 1-.262.04Zm.16-.384a.458.458 0 0 0 .214-.049.378.378 0 0 0 .147-.133.345.345 0 0 0 .054-.188v-.214a.299.299 0 0 1-.072.03.876.876 0 0 1-.1.025 3.587 3.587 0 0 1-.211.034.663.663 0 0 0-.172.047.27.27 0 0 0-.114.085.211.211 0 0 0-.04.13.2.2 0 0 0 .082.173c.055.04.126.06.212.06Zm2.655-1.663v.439h-.83v1.57h-.535V13.61h1.365Zm.721 2.047a.844.844 0 0 1-.341-.066.54.54 0 0 1-.237-.201.597.597 0 0 1-.085-.331c0-.113.02-.206.06-.28a.501.501 0 0 1 .167-.184.808.808 0 0 1 .24-.106c.089-.024.184-.04.284-.05a4.98 4.98 0 0 0 .28-.033.395.395 0 0 0 .153-.048.11.11 0 0 0 .05-.097v-.01a.24.24 0 0 0-.078-.191.318.318 0 0 0-.219-.069.39.39 0 0 0-.238.067.305.305 0 0 0-.116.165l-.514-.041a.7.7 0 0 1 .45-.523c.121-.05.262-.074.422-.074.11 0 .217.013.318.04a.832.832 0 0 1 .27.122.584.584 0 0 1 .26.517v1.356h-.528v-.28h-.014a.566.566 0 0 1-.322.278.79.79 0 0 1-.262.04Zm.16-.384a.458.458 0 0 0 .214-.049.378.378 0 0 0 .147-.133.344.344 0 0 0 .054-.188v-.214a.3.3 0 0 1-.072.03.878.878 0 0 1-.1.025 3.581 3.581 0 0 1-.211.034.662.662 0 0 0-.172.047.271.271 0 0 0-.114.085.212.212 0 0 0-.04.13.2.2 0 0 0 .082.173c.055.04.126.06.212.06Zm1.245-.223h.537c.004.067.033.12.09.158.057.038.13.057.22.057s.164-.02.225-.062a.217.217 0 0 0 .093-.185.215.215 0 0 0-.037-.126.241.241 0 0 0-.1-.085.309.309 0 0 0-.151-.03h-.286v-.365h.286a.302.302 0 0 0 .197-.061c.046-.04.07-.09.071-.151a.213.213 0 0 0-.073-.164.279.279 0 0 0-.195-.061.339.339 0 0 0-.204.056.177.177 0 0 0-.084.142h-.535a.492.492 0 0 1 .107-.313.695.695 0 0 1 .288-.203c.12-.048.255-.072.403-.072.163 0 .304.023.422.07.118.046.21.11.274.196a.473.473 0 0 1 .095.302.36.36 0 0 1-.104.266.58.58 0 0 1-.29.153v.02a.502.502 0 0 1 .222.068.423.423 0 0 1 .161.16c.04.068.061.149.061.242a.488.488 0 0 1-.11.32.695.695 0 0 1-.298.205 1.28 1.28 0 0 1-.437.072 1.259 1.259 0 0 1-.43-.072.687.687 0 0 1-.3-.205.558.558 0 0 1-.118-.332Zm2.384-.166.72-1.274h.547v2.01h-.528v-1.276l-.718 1.276h-.55v-2.01h.529v1.274Zm2.983-.49v.435h-1.043v-.435h1.043Zm-.86-.784v2.01h-.529v-2.01h.528Zm1.207 0v2.01h-.524v-2.01h.524Zm.594 2.76a1.054 1.054 0 0 1-.198-.014.698.698 0 0 1-.15-.04l.124-.416.018.004a.468.468 0 0 0 .239.018c.066-.015.117-.068.152-.159l.032-.086-.716-2.067h.581l.414 1.476h.021l.42-1.476h.584l-.776 2.227a.924.924 0 0 1-.152.282.623.623 0 0 1-.24.185.843.843 0 0 1-.353.067Z"/><path fill="#C5D2F1" d="M64.372 22.337H14.896c-.607 0-1.1.495-1.1 1.105s.493 1.104 1.1 1.104h49.476c.607 0 1.1-.494 1.1-1.104 0-.61-.493-1.105-1.1-1.105ZM64.372 26.018H14.896c-.607 0-1.1.495-1.1 1.105s.493 1.104 1.1 1.104h49.476c.607 0 1.1-.494 1.1-1.104 0-.61-.493-1.105-1.1-1.105ZM25.157 30.804H14.53a.735.735 0 0 0-.733.736c0 .406.328.736.733.736h10.628c.405 0 .733-.33.733-.736a.735.735 0 0 0-.733-.736Z"/><path fill="#9FAFD5" d="M48.347 33.048c-.226 0-.42-.054-.581-.162a1.036 1.036 0 0 1-.369-.469 1.934 1.934 0 0 1-.127-.742c0-.289.043-.536.129-.74.086-.207.209-.364.368-.473a1.01 1.01 0 0 1 .58-.164c.227 0 .42.055.58.164.161.109.284.266.369.47.086.206.129.453.129.743s-.043.537-.127.742a1.02 1.02 0 0 1-.37.47c-.159.107-.353.161-.58.161Zm0-.467c.11 0 .2-.035.274-.104a.657.657 0 0 0 .17-.31c.04-.135.06-.3.06-.492 0-.194-.02-.359-.06-.494a.656.656 0 0 0-.17-.31.377.377 0 0 0-.274-.107c-.16 0-.285.08-.372.239-.087.158-.13.382-.13.672 0 .193.019.357.057.492a.67.67 0 0 0 .172.31c.075.07.166.104.273.104Zm2.402.467c-.227 0-.42-.054-.582-.162a1.04 1.04 0 0 1-.368-.469 1.944 1.944 0 0 1-.127-.742c0-.289.043-.536.129-.74.086-.207.208-.364.368-.473a1.01 1.01 0 0 1 .58-.164c.227 0 .42.055.58.164.161.109.284.266.368.47.086.206.13.453.13.743s-.043.537-.128.742c-.084.204-.207.36-.368.47-.16.107-.354.161-.582.161Zm0-.467c.108 0 .2-.035.274-.104a.66.66 0 0 0 .17-.31c.039-.135.059-.3.059-.492 0-.194-.02-.359-.06-.494a.66.66 0 0 0-.17-.31.378.378 0 0 0-.273-.107c-.16 0-.285.08-.372.239-.087.158-.13.382-.13.672 0 .193.018.357.056.492.04.136.097.239.172.31.075.07.167.104.274.104Zm2.402.467a1.02 1.02 0 0 1-.582-.162 1.037 1.037 0 0 1-.369-.469 1.942 1.942 0 0 1-.127-.742c0-.289.043-.536.13-.74.085-.207.208-.364.368-.473.16-.11.354-.164.58-.164.226 0 .42.055.58.164.16.109.283.266.368.47.086.206.129.453.129.743s-.043.537-.127.742c-.085.204-.208.36-.369.47-.16.107-.353.161-.581.161Zm0-.467c.108 0 .2-.035.273-.104a.66.66 0 0 0 .17-.31c.04-.135.06-.3.06-.492 0-.194-.02-.359-.06-.494a.659.659 0 0 0-.17-.31.378.378 0 0 0-.273-.107c-.162 0-.286.08-.373.239-.087.158-.13.382-.13.672 0 .193.019.357.057.492.04.136.097.239.172.31.075.07.166.104.274.104Zm1.651.465a.307.307 0 0 1-.315-.312.307.307 0 0 1 .315-.313c.089 0 .163.03.224.09a.3.3 0 0 1 .091.223.3.3 0 0 1-.091.222.306.306 0 0 1-.224.09Zm1.652.002a1.02 1.02 0 0 1-.581-.162 1.035 1.035 0 0 1-.37-.469 1.944 1.944 0 0 1-.126-.742c0-.289.042-.536.129-.74.085-.207.208-.364.368-.473a1.01 1.01 0 0 1 .58-.164c.227 0 .42.055.58.164.16.109.284.266.368.47.086.206.13.453.13.743s-.043.537-.128.742c-.085.204-.207.36-.369.47-.16.107-.353.161-.58.161Zm0-.467c.109 0 .2-.035.274-.104a.66.66 0 0 0 .17-.31c.04-.135.059-.3.059-.492 0-.194-.02-.359-.06-.494a.66.66 0 0 0-.17-.31.378.378 0 0 0-.273-.107c-.161 0-.285.08-.372.239-.087.158-.131.382-.131.672 0 .193.02.357.057.492.04.136.097.239.172.31a.39.39 0 0 0 .274.104Zm2.401.467c-.226 0-.42-.054-.581-.162a1.04 1.04 0 0 1-.369-.469 1.942 1.942 0 0 1-.127-.742c0-.289.043-.536.129-.74.086-.207.209-.364.369-.473a1.01 1.01 0 0 1 .58-.164c.226 0 .42.055.58.164.16.109.283.266.368.47.086.206.129.453.129.743s-.043.537-.127.742a1.02 1.02 0 0 1-.369.47c-.16.107-.354.161-.582.161Zm0-.467c.109 0 .2-.035.274-.104a.66.66 0 0 0 .17-.31c.04-.135.06-.3.06-.492 0-.194-.02-.359-.06-.494a.66.66 0 0 0-.17-.31.378.378 0 0 0-.274-.107c-.16 0-.285.08-.372.239-.087.158-.13.382-.13.672 0 .193.019.357.057.492.04.136.097.239.172.31.075.07.166.104.273.104Zm3.008-1.176v.35h-.664v1.257h-.428v-1.607h1.092Zm.179 2.208v-2.208h.435v.271h.02a.603.603 0 0 1 .086-.133.44.44 0 0 1 .146-.113.593.593 0 0 1 .545.046c.099.06.178.152.237.275.059.123.089.276.089.46 0 .179-.03.33-.087.453a.644.644 0 0 1-.233.28.59.59 0 0 1-.33.094.505.505 0 0 1-.218-.043.457.457 0 0 1-.148-.108.613.613 0 0 1-.087-.132h-.013v.858h-.442Zm.769-.929c.072 0 .133-.02.183-.06a.37.37 0 0 0 .113-.167.736.736 0 0 0 .038-.247.71.71 0 0 0-.038-.245.364.364 0 0 0-.112-.166.284.284 0 0 0-.184-.06.29.29 0 0 0-.184.058.362.362 0 0 0-.114.164.715.715 0 0 0-.039.249c0 .095.014.178.04.249a.384.384 0 0 0 .115.166c.05.04.111.06.182.06Zm2.094-.652v.348h-.834v-.348h.834Zm-.689-.627v1.607h-.422v-1.607h.422Zm.967 0v1.607h-.42v-1.607h.42Z"/><path stroke="#C5D2F1" stroke-dasharray="4 4" stroke-width=".5" d="M65.38 40.006H13.888v.184H65.38v-.184Z"/><path fill="#C5D2F1" d="M64.372 46.264H14.896c-.607 0-1.1.494-1.1 1.104 0 .61.493 1.104 1.1 1.104h49.476c.607 0 1.1-.494 1.1-1.104 0-.61-.493-1.104-1.1-1.104ZM64.372 49.945H14.896c-.607 0-1.1.494-1.1 1.104 0 .61.493 1.104 1.1 1.104h49.476c.607 0 1.1-.494 1.1-1.104 0-.61-.493-1.104-1.1-1.104ZM25.157 54.73H14.53a.735.735 0 0 0-.733.736c0 .407.328.736.733.736h10.628c.405 0 .733-.33.733-.736a.735.735 0 0 0-.733-.736Z"/><path fill="#9FAFD5" d="M48.347 56.975c-.226 0-.42-.054-.581-.162a1.036 1.036 0 0 1-.369-.47 1.935 1.935 0 0 1-.127-.742c0-.288.043-.535.129-.74.086-.206.209-.364.368-.473.162-.109.355-.163.58-.163.227 0 .42.054.58.163.161.11.284.266.369.471.086.205.129.452.129.742s-.043.538-.127.743a1.02 1.02 0 0 1-.37.469c-.159.108-.353.162-.58.162Zm0-.468c.11 0 .2-.034.274-.104a.656.656 0 0 0 .17-.31c.04-.135.06-.299.06-.492 0-.194-.02-.359-.06-.494a.657.657 0 0 0-.17-.309.376.376 0 0 0-.274-.108c-.16 0-.285.08-.372.24-.087.157-.13.381-.13.671 0 .193.019.357.057.493a.67.67 0 0 0 .172.309c.075.07.166.104.273.104Zm2.402.468c-.227 0-.42-.054-.582-.162a1.04 1.04 0 0 1-.368-.47 1.945 1.945 0 0 1-.127-.742c0-.288.043-.535.129-.74.086-.206.208-.364.368-.473a1.01 1.01 0 0 1 .58-.163c.227 0 .42.054.58.163.161.11.284.266.368.471.086.205.13.452.13.742s-.043.538-.128.743c-.084.203-.207.36-.368.469-.16.108-.354.162-.582.162Zm0-.468c.108 0 .2-.034.274-.104a.66.66 0 0 0 .17-.31c.039-.135.059-.299.059-.492a1.8 1.8 0 0 0-.06-.494.66.66 0 0 0-.17-.309.377.377 0 0 0-.273-.108c-.16 0-.285.08-.372.24-.087.157-.13.381-.13.671 0 .193.018.357.056.493.04.135.097.238.172.309.075.07.167.104.274.104Zm2.402.468a1.02 1.02 0 0 1-.582-.162 1.037 1.037 0 0 1-.369-.47 1.943 1.943 0 0 1-.127-.742c0-.288.043-.535.13-.74.085-.206.208-.364.368-.473a1.01 1.01 0 0 1 .58-.163c.226 0 .42.054.58.163.16.11.283.266.368.471.086.205.129.452.129.742s-.043.538-.127.743c-.085.203-.208.36-.369.469-.16.108-.353.162-.581.162Zm0-.468c.108 0 .2-.034.273-.104a.659.659 0 0 0 .17-.31c.04-.135.06-.299.06-.492a1.8 1.8 0 0 0-.06-.494.66.66 0 0 0-.17-.309.377.377 0 0 0-.273-.108c-.162 0-.286.08-.373.24-.087.157-.13.381-.13.671 0 .193.019.357.057.493.04.135.097.238.172.309.075.07.166.104.274.104Zm1.651.466a.308.308 0 0 1-.315-.313.307.307 0 0 1 .315-.313c.089 0 .163.03.224.09a.3.3 0 0 1 .091.223.307.307 0 0 1-.315.313Zm1.652.002a1.02 1.02 0 0 1-.581-.162 1.035 1.035 0 0 1-.37-.47 1.945 1.945 0 0 1-.126-.742c0-.288.042-.535.129-.74.085-.206.208-.364.368-.473.161-.109.354-.163.58-.163.227 0 .42.054.58.163.16.11.284.266.368.471.086.205.13.452.13.742s-.043.538-.128.743c-.085.203-.207.36-.369.469-.16.108-.353.162-.58.162Zm0-.468c.109 0 .2-.034.274-.104a.66.66 0 0 0 .17-.31c.04-.135.059-.299.059-.492 0-.194-.02-.359-.06-.494a.66.66 0 0 0-.17-.309.377.377 0 0 0-.273-.108c-.161 0-.285.08-.372.24-.087.157-.131.381-.131.671 0 .193.02.357.057.493a.67.67 0 0 0 .172.309.39.39 0 0 0 .274.104Zm2.401.468c-.226 0-.42-.054-.581-.162a1.04 1.04 0 0 1-.369-.47 1.943 1.943 0 0 1-.127-.742c0-.288.043-.535.129-.74.086-.206.209-.364.369-.473.16-.109.354-.163.58-.163.226 0 .42.054.58.163.16.11.283.266.368.471.086.205.129.452.129.742s-.043.538-.127.743a1.02 1.02 0 0 1-.369.469c-.16.108-.354.162-.582.162Zm0-.468c.109 0 .2-.034.274-.104a.66.66 0 0 0 .17-.31c.04-.135.06-.299.06-.492 0-.194-.02-.359-.06-.494a.66.66 0 0 0-.17-.309.377.377 0 0 0-.274-.108c-.16 0-.285.08-.372.24-.087.157-.13.381-.13.671 0 .193.019.357.057.493.04.135.097.238.172.309.075.07.166.104.273.104Zm3.008-1.176v.35h-.664v1.258h-.428V55.33h1.092Zm.179 2.209V55.33h.435v.272h.02a.6.6 0 0 1 .086-.134.44.44 0 0 1 .146-.112.591.591 0 0 1 .545.046c.099.06.178.152.237.275.059.122.089.276.089.46 0 .178-.03.33-.087.453a.642.642 0 0 1-.233.278.59.59 0 0 1-.33.095.457.457 0 0 1-.366-.151.61.61 0 0 1-.087-.132h-.013v.859h-.442Zm.769-.93a.28.28 0 0 0 .183-.06.369.369 0 0 0 .113-.166.735.735 0 0 0 .038-.248.711.711 0 0 0-.038-.244.364.364 0 0 0-.112-.167.284.284 0 0 0-.184-.06.29.29 0 0 0-.184.059.362.362 0 0 0-.114.164.713.713 0 0 0-.039.248c0 .095.014.178.04.249a.382.382 0 0 0 .115.167c.05.04.111.059.182.059Zm2.094-.652v.348h-.834v-.348h.834Zm-.689-.627v1.608h-.422V55.33h.422Zm.967 0v1.608h-.42V55.33h.42Z"/><path stroke="#C5D2F1" stroke-dasharray="4 4" stroke-width=".5" d="M65.38 63.932H13.888v.184H65.38v-.184Z"/><path fill="#C5D2F1" d="M64.372 70.19H14.896c-.607 0-1.1.495-1.1 1.105s.493 1.104 1.1 1.104h49.476c.607 0 1.1-.495 1.1-1.105s-.493-1.104-1.1-1.104ZM64.372 73.871H14.896c-.607 0-1.1.495-1.1 1.104 0 .61.493 1.105 1.1 1.105h49.476c.607 0 1.1-.495 1.1-1.105s-.493-1.104-1.1-1.104ZM25.157 78.656H14.53a.735.735 0 0 0-.733.737c0 .406.328.736.733.736h10.628c.405 0 .733-.33.733-.736a.735.735 0 0 0-.733-.737Z"/><path fill="#9FAFD5" d="M48.347 80.901c-.226 0-.42-.054-.581-.162a1.036 1.036 0 0 1-.369-.469 1.934 1.934 0 0 1-.127-.742c0-.289.043-.536.129-.74.086-.207.209-.364.368-.474.162-.108.355-.163.58-.163.227 0 .42.055.58.163.161.11.284.267.369.472.086.204.129.452.129.742s-.043.537-.127.742a1.02 1.02 0 0 1-.37.47c-.159.107-.353.161-.58.161Zm0-.467c.11 0 .2-.035.274-.105a.656.656 0 0 0 .17-.309c.04-.135.06-.3.06-.492 0-.194-.02-.36-.06-.495a.657.657 0 0 0-.17-.308.376.376 0 0 0-.274-.108c-.16 0-.285.08-.372.239-.087.158-.13.382-.13.672 0 .193.019.357.057.492a.67.67 0 0 0 .172.31c.075.069.166.104.273.104Zm2.402.467c-.227 0-.42-.054-.582-.162a1.04 1.04 0 0 1-.368-.469 1.944 1.944 0 0 1-.127-.742c0-.289.043-.536.129-.74.086-.207.208-.364.368-.474a1.01 1.01 0 0 1 .58-.163c.227 0 .42.055.58.163.161.11.284.267.368.472.086.204.13.452.13.742s-.043.537-.128.742c-.084.204-.207.36-.368.47-.16.107-.354.161-.582.161Zm0-.467c.108 0 .2-.035.274-.105a.66.66 0 0 0 .17-.309c.039-.135.059-.3.059-.492a1.8 1.8 0 0 0-.06-.495.66.66 0 0 0-.17-.308.377.377 0 0 0-.273-.108c-.16 0-.285.08-.372.239-.087.158-.13.382-.13.672 0 .193.018.357.056.492.04.136.097.239.172.31.075.069.167.104.274.104Zm2.402.467a1.02 1.02 0 0 1-.582-.162 1.038 1.038 0 0 1-.369-.469 1.942 1.942 0 0 1-.127-.742c0-.289.043-.536.13-.74.085-.207.208-.364.368-.474a1.01 1.01 0 0 1 .58-.163c.226 0 .42.055.58.163.16.11.283.267.368.472.086.204.129.452.129.742s-.043.537-.127.742c-.085.204-.208.36-.369.47-.16.107-.353.161-.581.161Zm0-.467c.108 0 .2-.035.273-.105a.659.659 0 0 0 .17-.309c.04-.135.06-.3.06-.492a1.8 1.8 0 0 0-.06-.495.66.66 0 0 0-.17-.308.377.377 0 0 0-.273-.108c-.162 0-.286.08-.373.239-.087.158-.13.382-.13.672 0 .193.019.357.057.492.04.136.097.239.172.31.075.069.166.104.274.104Zm1.651.465a.308.308 0 0 1-.315-.313.307.307 0 0 1 .315-.313c.089 0 .163.03.224.09a.3.3 0 0 1 .091.223.307.307 0 0 1-.315.313Zm1.652.002a1.02 1.02 0 0 1-.581-.162 1.036 1.036 0 0 1-.37-.469 1.944 1.944 0 0 1-.126-.742c0-.289.042-.536.129-.74.085-.207.208-.364.368-.474.161-.108.354-.163.58-.163.227 0 .42.055.58.163.16.11.284.267.368.472.086.204.13.452.13.742s-.043.537-.128.742c-.085.204-.207.36-.369.47-.16.107-.353.161-.58.161Zm0-.467c.109 0 .2-.035.274-.105a.66.66 0 0 0 .17-.309c.04-.135.059-.3.059-.492 0-.194-.02-.36-.06-.495a.66.66 0 0 0-.17-.308.377.377 0 0 0-.273-.108c-.161 0-.285.08-.372.239-.087.158-.131.382-.131.672 0 .193.02.357.057.492a.67.67 0 0 0 .172.31.39.39 0 0 0 .274.104Zm2.401.467c-.226 0-.42-.054-.581-.162a1.04 1.04 0 0 1-.369-.469 1.942 1.942 0 0 1-.127-.742c0-.289.043-.536.129-.74.086-.207.209-.364.369-.474.16-.108.354-.163.58-.163.226 0 .42.055.58.163.16.11.283.267.368.472.086.204.129.452.129.742s-.043.537-.127.742a1.02 1.02 0 0 1-.369.47c-.16.107-.354.161-.582.161Zm0-.467c.109 0 .2-.035.274-.105a.66.66 0 0 0 .17-.309c.04-.135.06-.3.06-.492 0-.194-.02-.36-.06-.495a.66.66 0 0 0-.17-.308.377.377 0 0 0-.274-.108c-.16 0-.285.08-.372.239-.087.158-.13.382-.13.672 0 .193.019.357.057.492.04.136.097.239.172.31.075.069.166.104.273.104Zm3.008-1.177v.351h-.664v1.257h-.428v-1.608h1.092Zm.179 2.21v-2.21h.435v.272h.02a.598.598 0 0 1 .086-.133.44.44 0 0 1 .146-.113.591.591 0 0 1 .545.046c.099.06.178.152.237.275.059.123.089.276.089.46 0 .179-.03.33-.087.453a.642.642 0 0 1-.233.279.59.59 0 0 1-.33.095.457.457 0 0 1-.366-.151.61.61 0 0 1-.087-.132h-.013v.858h-.442Zm.769-.93a.28.28 0 0 0 .183-.06.369.369 0 0 0 .113-.167.735.735 0 0 0 .038-.248.711.711 0 0 0-.038-.244.363.363 0 0 0-.112-.167.284.284 0 0 0-.184-.06.29.29 0 0 0-.184.059.362.362 0 0 0-.114.164.713.713 0 0 0-.039.249c0 .094.014.177.04.248a.382.382 0 0 0 .115.167c.05.04.111.059.182.059Zm2.094-.653v.348h-.834v-.348h.834Zm-.689-.627v1.608h-.422v-1.608h.422Zm.967 0v1.608h-.42v-1.608h.42Z"/><path stroke="#C5D2F1" stroke-dasharray="4 4" stroke-width=".5" d="M65.38 87.859H13.888v.184H65.38v-.184Z"/><path fill="#1F2024" d="M15.161 97.742a1.25 1.25 0 0 1-.635-.162 1.146 1.146 0 0 1-.444-.47 1.569 1.569 0 0 1-.163-.742c0-.292.055-.54.163-.745.11-.207.258-.363.446-.47.188-.108.4-.161.633-.161.155 0 .3.022.432.066.132.043.249.107.35.19a.978.978 0 0 1 .25.306c.065.12.106.257.124.412h-.569a.586.586 0 0 0-.064-.198.472.472 0 0 0-.124-.15.635.635 0 0 0-.387-.128.631.631 0 0 0-.359.106.668.668 0 0 0-.24.298c-.056.13-.084.287-.084.474 0 .19.029.351.086.482.057.13.137.227.24.293a.644.644 0 0 0 .356.099c.075 0 .145-.01.21-.03a.553.553 0 0 0 .171-.089.501.501 0 0 0 .195-.332h.57c-.015.123-.051.242-.11.355a1.047 1.047 0 0 1-.234.306 1.15 1.15 0 0 1-.353.212c-.136.052-.29.078-.46.078Zm1.8.715a1.07 1.07 0 0 1-.198-.014.716.716 0 0 1-.15-.042l.125-.415.018.003a.464.464 0 0 0 .238.018c.067-.014.117-.067.152-.157l.032-.087-.716-2.067h.582l.413 1.476h.022l.419-1.476h.585l-.777 2.227a.926.926 0 0 1-.152.282.62.62 0 0 1-.24.185.838.838 0 0 1-.352.067Zm2.87-1.366.54-1.395h.424l-.779 2.01h-.368l-.763-2.01h.42l.525 1.395Zm-.652-1.395v2.01h-.528v-2.01h.528Zm1.331 2.01v-2.01h.52v2.01h-.52Zm1.416.037a.847.847 0 0 1-.342-.066.54.54 0 0 1-.236-.202.597.597 0 0 1-.086-.33.58.58 0 0 1 .06-.28.502.502 0 0 1 .167-.184.81.81 0 0 1 .24-.106c.09-.024.184-.04.284-.05.116-.011.21-.022.28-.033a.39.39 0 0 0 .153-.048.11.11 0 0 0 .05-.097v-.01a.24.24 0 0 0-.078-.191.317.317 0 0 0-.218-.069c-.1 0-.179.022-.238.067a.305.305 0 0 0-.117.165l-.514-.041a.704.704 0 0 1 .45-.523c.121-.05.262-.074.422-.074.111 0 .217.013.319.04a.832.832 0 0 1 .27.122.587.587 0 0 1 .26.517v1.356h-.529v-.28h-.014a.561.561 0 0 1-.322.278.784.784 0 0 1-.261.04Zm.159-.384a.458.458 0 0 0 .215-.049.377.377 0 0 0 .146-.133.343.343 0 0 0 .054-.189v-.213a.301.301 0 0 1-.072.03.832.832 0 0 1-.1.025 2.871 2.871 0 0 1-.21.035.656.656 0 0 0-.173.046.273.273 0 0 0-.114.085.213.213 0 0 0-.04.13c0 .076.028.134.083.173.055.04.125.06.21.06Zm2.02.347v-2.01h1.747v2.01h-.528v-1.572h-.698v1.572h-.52Zm2.973.039c-.202 0-.377-.043-.525-.13a.892.892 0 0 1-.34-.362 1.19 1.19 0 0 1-.118-.543c0-.209.04-.39.118-.545a.875.875 0 0 1 .34-.363 1.01 1.01 0 0 1 .525-.13c.203 0 .377.043.524.13a.86.86 0 0 1 .34.363c.08.155.12.336.12.545 0 .206-.04.387-.12.543a.876.876 0 0 1-.34.363c-.147.086-.322.129-.524.129Zm.003-.435a.349.349 0 0 0 .231-.077.479.479 0 0 0 .14-.216.93.93 0 0 0 .048-.31.922.922 0 0 0-.048-.312.466.466 0 0 0-.14-.212.35.35 0 0 0-.23-.077.36.36 0 0 0-.235.077.479.479 0 0 0-.142.212.955.955 0 0 0-.046.311c0 .117.015.22.046.311.033.091.08.163.142.216a.359.359 0 0 0 .234.077Zm1.226.396v-2.01h.553v.78h.157l.543-.78h.651l-.707 1 .714 1.01h-.658l-.494-.712h-.206v.712h-.553Zm2.398.75a1.07 1.07 0 0 1-.199-.014.715.715 0 0 1-.15-.04l.125-.416.018.003a.464.464 0 0 0 .238.018c.067-.014.118-.067.152-.157l.033-.087-.716-2.067h.581l.414 1.476h.021l.419-1.476h.585l-.777 2.227a.924.924 0 0 1-.152.282.62.62 0 0 1-.24.185.837.837 0 0 1-.352.067Zm1.69-.75v-2.01h1.746v2.01h-.528v-1.572h-.698v1.572h-.52Zm2.972.039c-.202 0-.377-.043-.525-.13a.892.892 0 0 1-.34-.362 1.19 1.19 0 0 1-.118-.543c0-.209.04-.39.118-.545a.875.875 0 0 1 .34-.363 1.01 1.01 0 0 1 .525-.13c.203 0 .377.043.524.13a.86.86 0 0 1 .34.363c.08.155.12.336.12.545 0 .206-.04.387-.12.543a.876.876 0 0 1-.34.363c-.147.086-.322.129-.524.129Zm.003-.435a.349.349 0 0 0 .231-.077.478.478 0 0 0 .14-.216.93.93 0 0 0 .048-.31.922.922 0 0 0-.048-.312.465.465 0 0 0-.14-.212.35.35 0 0 0-.23-.077.36.36 0 0 0-.235.077.478.478 0 0 0-.142.212.955.955 0 0 0-.046.311c0 .117.016.22.047.311a.49.49 0 0 0 .14.216.359.359 0 0 0 .235.077Zm1.226.396v-2.01h.553v.78h.157l.543-.78h.651l-.707 1 .714 1.01h-.658l-.494-.712h-.206v.712h-.553Z"/><path fill="#9FAFD5" d="M48.714 97.742c-.227 0-.42-.055-.582-.162a1.037 1.037 0 0 1-.368-.47 1.936 1.936 0 0 1-.127-.742c0-.288.043-.535.128-.74.087-.206.21-.364.369-.473.161-.109.354-.163.58-.163.227 0 .42.054.58.163.16.11.284.266.368.471.086.205.13.452.13.742s-.043.538-.128.743c-.084.203-.207.36-.369.469-.16.108-.353.162-.581.162Zm0-.468c.109 0 .2-.034.274-.104a.658.658 0 0 0 .17-.31c.04-.135.059-.299.059-.492 0-.194-.02-.359-.06-.494a.657.657 0 0 0-.17-.309.375.375 0 0 0-.273-.108c-.161 0-.285.08-.372.24-.087.157-.131.381-.131.671 0 .193.02.357.058.493a.67.67 0 0 0 .171.309c.075.07.166.104.274.104Zm2.401.468c-.226 0-.42-.055-.581-.162a1.041 1.041 0 0 1-.369-.47 1.944 1.944 0 0 1-.127-.742c0-.288.043-.535.129-.74a1.04 1.04 0 0 1 .369-.473c.16-.109.354-.163.58-.163.226 0 .42.054.58.163.16.11.283.266.368.471.086.205.129.452.129.742s-.043.538-.127.743c-.085.203-.208.36-.369.469-.16.108-.354.162-.582.162Zm0-.468c.109 0 .2-.034.274-.104a.66.66 0 0 0 .17-.31c.04-.135.06-.299.06-.492a1.8 1.8 0 0 0-.06-.494.659.659 0 0 0-.17-.309.377.377 0 0 0-.274-.108c-.16 0-.285.08-.372.24-.087.157-.13.381-.13.671 0 .193.019.357.057.493.04.135.097.238.172.309.075.07.166.104.273.104Zm2.402.468a1.02 1.02 0 0 1-.582-.162 1.037 1.037 0 0 1-.368-.47 1.942 1.942 0 0 1-.127-.742c0-.288.043-.535.129-.74.085-.206.209-.364.368-.473a1.01 1.01 0 0 1 .58-.163c.227 0 .42.054.58.163.16.11.284.266.369.471.085.205.128.452.128.742s-.042.538-.127.743c-.085.203-.207.36-.368.469-.16.108-.354.162-.582.162Zm0-.468c.109 0 .2-.034.274-.104a.66.66 0 0 0 .17-.31c.04-.135.059-.299.059-.492a1.8 1.8 0 0 0-.06-.494.66.66 0 0 0-.17-.309.377.377 0 0 0-.273-.108c-.161 0-.285.08-.372.24-.087.157-.13.381-.13.671 0 .193.018.357.056.493.04.135.097.238.172.309.075.07.167.104.274.104Zm1.652.466a.308.308 0 0 1-.315-.313.307.307 0 0 1 .315-.313c.088 0 .163.03.223.09a.3.3 0 0 1 .092.223.307.307 0 0 1-.315.313Zm1.652.002a1.02 1.02 0 0 1-.582-.162 1.036 1.036 0 0 1-.369-.47 1.944 1.944 0 0 1-.127-.742c0-.288.043-.535.13-.74.085-.206.208-.364.367-.473.162-.109.355-.163.58-.163.227 0 .42.054.58.163.161.11.284.266.369.471.086.205.129.452.129.742s-.043.538-.127.743a1.02 1.02 0 0 1-.37.469c-.159.108-.353.162-.58.162Zm0-.468c.108 0 .2-.034.273-.104a.66.66 0 0 0 .17-.31c.04-.135.06-.299.06-.492 0-.194-.02-.359-.06-.494a.66.66 0 0 0-.17-.309.377.377 0 0 0-.273-.108c-.162 0-.285.08-.373.24-.087.157-.13.381-.13.671 0 .193.019.357.057.493.04.135.096.238.172.309a.39.39 0 0 0 .274.104Zm2.4.468c-.226 0-.42-.055-.58-.162a1.04 1.04 0 0 1-.37-.47 1.943 1.943 0 0 1-.126-.742c0-.288.043-.535.128-.74a1.04 1.04 0 0 1 .37-.473c.16-.109.353-.163.579-.163.227 0 .42.054.58.163.16.11.284.266.368.471.087.205.13.452.13.742s-.043.538-.128.743a1.02 1.02 0 0 1-.368.469c-.16.108-.354.162-.582.162Zm0-.468c.11 0 .2-.034.275-.104a.66.66 0 0 0 .17-.31c.04-.135.059-.299.059-.492 0-.194-.02-.359-.06-.494a.66.66 0 0 0-.17-.309.377.377 0 0 0-.273-.108c-.161 0-.285.08-.372.24-.087.157-.13.381-.13.671 0 .193.018.357.056.493.04.135.097.238.172.309.075.07.166.104.274.104Zm3.008-1.176v.35h-.664v1.258h-.428v-1.608h1.092Zm.18 2.209v-2.209h.435v.272h.02a.6.6 0 0 1 .086-.134.44.44 0 0 1 .146-.112.592.592 0 0 1 .545.046c.098.06.177.152.236.275.06.122.09.276.09.46 0 .178-.03.329-.087.453a.642.642 0 0 1-.233.278.59.59 0 0 1-.33.095.457.457 0 0 1-.367-.15.611.611 0 0 1-.086-.133h-.013v.859h-.442Zm.768-.93a.28.28 0 0 0 .183-.06.369.369 0 0 0 .114-.166.735.735 0 0 0 .038-.248.71.71 0 0 0-.038-.244.363.363 0 0 0-.112-.167.284.284 0 0 0-.185-.06.29.29 0 0 0-.183.058.363.363 0 0 0-.114.165.714.714 0 0 0-.04.248c0 .095.014.178.041.249a.381.381 0 0 0 .114.167c.05.04.112.059.182.059Zm2.095-.652v.348h-.835v-.348h.835Zm-.689-.627v1.608h-.422v-1.608h.422Zm.966 0v1.608h-.42v-1.608h.42Z"/><path fill="#1F2024" d="M13.823 108.658v-1.097h.182a.671.671 0 0 0 .168-.188c.052-.082.096-.195.133-.338a3.16 3.16 0 0 0 .077-.568l.077-1.133h1.762v2.227h.292v1.095h-.542v-.644h-1.607v.646h-.542Zm.832-1.097h1.025v-1.76h-.716l-.039.666a3.92 3.92 0 0 1-.057.47 2.437 2.437 0 0 1-.091.36c-.036.102-.077.19-.122.264Zm2.636.489a.85.85 0 0 1-.342-.066.543.543 0 0 1-.236-.202.598.598 0 0 1-.086-.33.506.506 0 0 1 .227-.464.802.802 0 0 1 .24-.106 1.78 1.78 0 0 1 .284-.051 4.22 4.22 0 0 0 .28-.032.389.389 0 0 0 .154-.049.108.108 0 0 0 .05-.096v-.01a.242.242 0 0 0-.079-.192.321.321 0 0 0-.218-.068.392.392 0 0 0-.238.066.307.307 0 0 0-.117.166l-.513-.042a.704.704 0 0 1 .449-.523c.122-.049.262-.073.422-.073.111 0 .217.013.319.039a.847.847 0 0 1 .27.122c.08.054.143.124.19.211.046.086.07.188.07.307v1.355h-.529v-.28h-.014a.571.571 0 0 1-.322.278.772.772 0 0 1-.261.04Zm.16-.384a.462.462 0 0 0 .214-.049.382.382 0 0 0 .147-.133.346.346 0 0 0 .053-.189v-.214a.304.304 0 0 1-.071.031.964.964 0 0 1-.1.025 4.309 4.309 0 0 1-.111.02l-.1.014a.663.663 0 0 0-.172.047.275.275 0 0 0-.115.084.214.214 0 0 0-.04.132.2.2 0 0 0 .083.172.35.35 0 0 0 .211.06Zm1.087-1.225v-.438h1.81v.438h-.643v1.571h-.528v-1.571h-.639Zm2.529 1.609a.85.85 0 0 1-.342-.066.543.543 0 0 1-.236-.202.598.598 0 0 1-.086-.33.506.506 0 0 1 .227-.464.802.802 0 0 1 .24-.106c.09-.024.184-.041.284-.051a4.22 4.22 0 0 0 .28-.032.389.389 0 0 0 .153-.049.108.108 0 0 0 .05-.096v-.01a.242.242 0 0 0-.078-.192.32.32 0 0 0-.219-.068.392.392 0 0 0-.238.066.306.306 0 0 0-.116.166l-.513-.042a.703.703 0 0 1 .449-.523c.122-.049.262-.073.422-.073.111 0 .217.013.319.039a.847.847 0 0 1 .27.122.58.58 0 0 1 .19.211c.046.086.07.188.07.307v1.355h-.529v-.28h-.014a.573.573 0 0 1-.129.167.596.596 0 0 1-.193.111.772.772 0 0 1-.261.04Zm.159-.384a.462.462 0 0 0 .215-.049.382.382 0 0 0 .146-.133.347.347 0 0 0 .054-.189v-.214a.301.301 0 0 1-.071.031.97.97 0 0 1-.1.025 4.309 4.309 0 0 1-.112.02l-.1.014a.663.663 0 0 0-.172.047.275.275 0 0 0-.114.084.214.214 0 0 0-.04.132.2.2 0 0 0 .083.172.35.35 0 0 0 .211.06Z"/><path fill="#9FAFD5" d="M40.269 106.787v.435h-1.044v-.435h1.044Zm-.861-.784v2.009h-.528v-2.009h.528Zm1.208 0v2.009h-.524v-2.009h.524Zm1.236 2.049c-.205 0-.382-.042-.531-.126a.848.848 0 0 1-.344-.358 1.203 1.203 0 0 1-.118-.551c0-.207.04-.388.118-.543a.89.89 0 0 1 .337-.365.97.97 0 0 1 .511-.131c.133 0 .257.021.37.064a.825.825 0 0 1 .502.509c.048.127.072.276.072.448v.15h-1.69v-.343H42.5l-.258.09a.695.695 0 0 0-.046-.266.365.365 0 0 0-.14-.174.39.39 0 0 0-.227-.063.408.408 0 0 0-.23.063.413.413 0 0 0-.144.17.59.59 0 0 0-.05.249v.242c0 .109.02.203.057.281a.421.421 0 0 0 .16.177c.069.041.148.061.237.061a.496.496 0 0 0 .169-.026.353.353 0 0 0 .21-.205l.513.034a.695.695 0 0 1-.158.323.782.782 0 0 1-.306.214c-.125.051-.27.076-.434.076Zm2.785 0c-.204 0-.38-.044-.526-.131a.894.894 0 0 1-.338-.365 1.18 1.18 0 0 1-.119-.539c0-.207.04-.388.119-.543a.88.88 0 0 1 .34-.365 1 1 0 0 1 .524-.131c.174 0 .326.031.456.095a.759.759 0 0 1 .311.268c.077.115.119.25.126.406h-.523a.45.45 0 0 0-.06-.176.314.314 0 0 0-.124-.117.379.379 0 0 0-.179-.041.371.371 0 0 0-.225.07.44.44 0 0 0-.15.203.89.89 0 0 0-.05.323.92.92 0 0 0 .05.327.47.47 0 0 0 .15.209c.064.048.14.072.225.072.095 0 .176-.03.242-.09a.412.412 0 0 0 .121-.252h.523a.765.765 0 0 1-.43.68c-.13.065-.284.097-.463.097Zm.938-1.611v-.438h1.809v.438h-.642v1.571h-.529v-1.571h-.638Zm2.528 1.609a.848.848 0 0 1-.342-.066.54.54 0 0 1-.236-.202.596.596 0 0 1-.086-.33.508.508 0 0 1 .227-.464.802.802 0 0 1 .24-.106c.09-.024.185-.041.285-.051a4.23 4.23 0 0 0 .279-.032.39.39 0 0 0 .154-.049.108.108 0 0 0 .05-.096v-.01a.242.242 0 0 0-.079-.192.32.32 0 0 0-.218-.068.392.392 0 0 0-.238.066.31.31 0 0 0-.116.166l-.514-.041a.704.704 0 0 1 .45-.524c.12-.049.262-.073.421-.073.111 0 .218.013.319.039a.847.847 0 0 1 .27.122.59.59 0 0 1 .26.518v1.355H48.7v-.28h-.014a.563.563 0 0 1-.323.278.77.77 0 0 1-.261.04Zm.16-.384a.462.462 0 0 0 .214-.049.382.382 0 0 0 .147-.133.345.345 0 0 0 .054-.189v-.214a.308.308 0 0 1-.072.031.758.758 0 0 1-.1.025 4.309 4.309 0 0 1-.111.02l-.1.014a.666.666 0 0 0-.172.047.274.274 0 0 0-.114.084.213.213 0 0 0-.04.132c0 .075.027.133.082.172a.35.35 0 0 0 .211.06Zm1.29 1.098v-2.761h.544v.34h.025a.735.735 0 0 1 .107-.167.538.538 0 0 1 .183-.141.615.615 0 0 1 .279-.057c.146 0 .28.038.403.115.122.075.22.19.295.343.074.153.11.345.11.575 0 .223-.035.412-.107.566a.804.804 0 0 1-.291.349.74.74 0 0 1-.412.119.63.63 0 0 1-.274-.054.57.57 0 0 1-.184-.135.773.773 0 0 1-.11-.165h-.016v1.073h-.552Zm.96-1.161c.091 0 .168-.026.23-.076s.109-.12.141-.209a.906.906 0 0 0 .048-.309.879.879 0 0 0-.048-.305.453.453 0 0 0-.14-.209.355.355 0 0 0-.23-.075.364.364 0 0 0-.23.074.445.445 0 0 0-.142.205.894.894 0 0 0-.049.31c0 .119.017.223.05.311a.476.476 0 0 0 .143.209c.064.049.14.074.228.074Zm1.23-1.6h.528v1.569h.564v-1.569h.528v1.569h.565v-1.569h.53v2.009h-2.715v-2.009Zm3.953 2.049c-.205 0-.382-.042-.531-.126a.85.85 0 0 1-.344-.358 1.208 1.208 0 0 1-.118-.551c0-.207.04-.388.118-.543a.894.894 0 0 1 .336-.365.97.97 0 0 1 .512-.131c.133 0 .256.021.37.064a.829.829 0 0 1 .502.509c.047.127.071.276.071.448v.15h-1.689v-.343h1.421l-.258.09a.702.702 0 0 0-.046-.266.37.37 0 0 0-.367-.237.407.407 0 0 0-.231.063.412.412 0 0 0-.143.17.59.59 0 0 0-.05.249v.242c0 .109.019.203.057.281a.423.423 0 0 0 .16.177c.068.041.148.061.237.061a.496.496 0 0 0 .169-.026.353.353 0 0 0 .21-.205l.512.034a.694.694 0 0 1-.157.323.785.785 0 0 1-.306.214c-.125.051-.27.076-.435.076Zm1.983-.04 1.104-2.196v-.018h-1.287v-.464h1.872v.471l-1.106 2.207h-.583Zm2.494.588v-1.028h.154a.323.323 0 0 0 .108-.133.942.942 0 0 0 .068-.216c.017-.083.031-.174.041-.269.01-.096.02-.193.027-.292l.053-.659h1.532v1.569h.312v1.028h-.53v-.588h-1.223v.588h-.542Zm.707-1.028h.754v-1.14h-.539l-.021.23a4.893 4.893 0 0 1-.063.547c-.028.148-.071.27-.13.363Zm1.793.44v-2.009h.553v2.009h-.553Zm.276-2.266a.298.298 0 0 1-.211-.083.262.262 0 0 1-.088-.199c0-.078.03-.144.088-.198a.298.298 0 0 1 .21-.083.3.3 0 0 1 .214.083c.059.054.087.12.087.198a.262.262 0 0 1-.087.199.3.3 0 0 1-.213.083Zm2.26-.48.17.365a.585.585 0 0 1-.188.104c-.068.022-.15.036-.245.043-.094.007-.21.012-.347.015a.856.856 0 0 0-.378.075.479.479 0 0 0-.22.225c-.05.102-.084.235-.1.399h.021a.645.645 0 0 1 .251-.282.753.753 0 0 1 .405-.101c.17 0 .32.038.447.113a.77.77 0 0 1 .299.322c.071.14.106.308.105.503a1.12 1.12 0 0 1-.116.532.83.83 0 0 1-.338.349c-.146.081-.32.123-.52.124-.304-.001-.543-.097-.718-.288-.176-.192-.264-.469-.266-.834v-.163c.002-.484.096-.843.283-1.077.187-.233.464-.352.829-.356.098-.001.187-.001.267 0 .08 0 .149-.004.209-.012a.33.33 0 0 0 .15-.056Zm-.754 2.355c.087 0 .16-.023.22-.067a.444.444 0 0 0 .142-.192.769.769 0 0 0 .049-.295.732.732 0 0 0-.049-.291.4.4 0 0 0-.143-.183.378.378 0 0 0-.22-.063.405.405 0 0 0-.174.035.353.353 0 0 0-.13.106.492.492 0 0 0-.083.168.866.866 0 0 0-.03.228c0 .17.037.305.111.404.075.1.178.15.308.15Z"/></g><path stroke="#FFFBFB" stroke-linecap="round" stroke-linejoin="round" stroke-width="4" d="M73.62 12.435V8.669c0-2.847-2.298-5.154-5.132-5.154h-3.75"/><path stroke="url(#b)" stroke-linecap="round" stroke-linejoin="round" stroke-width="4" d="M73.62 12.435V8.669c0-2.847-2.298-5.154-5.132-5.154h-3.75"/><path stroke="url(#c)" stroke-linecap="round" stroke-linejoin="round" stroke-width="4" d="M73.62 12.435V8.669c0-2.847-2.298-5.154-5.132-5.154h-3.75"/><path stroke="#FFFBFB" stroke-linecap="round" stroke-linejoin="round" stroke-width="4" d="M15.022 3.515h-3.75c-2.833 0-5.13 2.307-5.13 5.154v3.766"/><path stroke="url(#d)" stroke-linecap="round" stroke-linejoin="round" stroke-width="4" d="M15.022 3.515h-3.75c-2.833 0-5.13 2.307-5.13 5.154v3.766"/><path stroke="url(#e)" stroke-linecap="round" stroke-linejoin="round" stroke-width="4" d="M15.022 3.515h-3.75c-2.833 0-5.13 2.307-5.13 5.154v3.766"/><path stroke="#FFFBFB" stroke-linecap="round" stroke-linejoin="round" stroke-width="4" d="M6.142 111.325v3.767c0 2.846 2.297 5.153 5.13 5.153h3.75"/><path stroke="url(#f)" stroke-linecap="round" stroke-linejoin="round" stroke-width="4" d="M6.142 111.325v3.767c0 2.846 2.297 5.153 5.13 5.153h3.75"/><path stroke="url(#g)" stroke-linecap="round" stroke-linejoin="round" stroke-width="4" d="M6.142 111.325v3.767c0 2.846 2.297 5.153 5.13 5.153h3.75"/><path stroke="#FFFBFB" stroke-linecap="round" stroke-linejoin="round" stroke-width="4" d="M64.738 120.245h3.75c2.834 0 5.131-2.307 5.131-5.153v-3.767"/><path stroke="url(#h)" stroke-linecap="round" stroke-linejoin="round" stroke-width="4" d="M64.738 120.245h3.75c2.834 0 5.131-2.307 5.131-5.153v-3.767"/><path stroke="url(#i)" stroke-linecap="round" stroke-linejoin="round" stroke-width="4" d="M64.738 120.245h3.75c2.834 0 5.131-2.307 5.131-5.153v-3.767"/><g filter="url(#j)"><circle cx="39" cy="116" r="11" fill="url(#k)"/></g><path fill="#000" d="M34.944 118.412a.5.5 0 0 0-.5-.5h-.069a.5.5 0 0 0-.5.5v1.642c0 .588.481 1.07 1.07 1.07h1.638a.5.5 0 0 0 .5-.5v-.07a.5.5 0 0 0-.5-.5h-1.139a.5.5 0 0 1-.5-.5v-1.142Zm0-6.228a.5.5 0 0 1 .5-.5h1.14a.5.5 0 0 0 .5-.5v-.071a.5.5 0 0 0-.5-.5h-1.64c-.588 0-1.069.482-1.069 1.071v1.641a.5.5 0 0 0 .5.5h.07a.5.5 0 0 0 .5-.5v-1.141Zm4.181 1.544a2.14 2.14 0 0 0-2.139 2.141 2.14 2.14 0 1 0 4.278 0 2.14 2.14 0 0 0-2.139-2.141Zm0 3.211c-.588 0-1.07-.482-1.07-1.07 0-.589.482-1.071 1.07-1.071.588 0 1.07.482 1.07 1.071 0 .588-.482 1.07-1.07 1.07Zm4.18-6.326h-1.638a.5.5 0 0 0-.5.5v.071a.5.5 0 0 0 .5.5h1.139a.5.5 0 0 1 .5.5v1.141a.5.5 0 0 0 .5.5h.069a.5.5 0 0 0 .5-.5v-1.641c0-.589-.481-1.071-1.07-1.071Zm0 8.941a.5.5 0 0 1-.5.5h-1.138a.5.5 0 0 0-.5.5v.07a.5.5 0 0 0 .5.5h1.639c.588 0 1.069-.482 1.069-1.07v-1.642a.5.5 0 0 0-.5-.5h-.07a.5.5 0 0 0-.5.5v1.142Z"/><defs><linearGradient id="b" x1="67.144" x2="75.867" y1="1.439" y2="10.124" gradientUnits="userSpaceOnUse"><stop stop-color="#BEEC26"/><stop offset="1" stop-color="#F8FF6F"/></linearGradient><linearGradient id="c" x1="75.686" x2="66.963" y1="5.932" y2="14.617" gradientUnits="userSpaceOnUse"><stop stop-color="#FF3154"/><stop offset="1" stop-color="#FF2E85"/></linearGradient><linearGradient id="d" x1="4.074" x2="12.798" y1="10.018" y2="1.333" gradientUnits="userSpaceOnUse"><stop stop-color="#BEEC26"/><stop offset="1" stop-color="#F8FF6F"/></linearGradient><linearGradient id="e" x1="17.089" x2="8.366" y1="5.932" y2="14.617" gradientUnits="userSpaceOnUse"><stop stop-color="#FF3154"/><stop offset="1" stop-color="#FF2E85"/></linearGradient><linearGradient id="f" x1="12.616" x2="3.893" y1="122.321" y2="113.636" gradientUnits="userSpaceOnUse"><stop stop-color="#BEEC26"/><stop offset="1" stop-color="#F8FF6F"/></linearGradient><linearGradient id="g" x1="17.089" x2="8.366" y1="113.742" y2="122.427" gradientUnits="userSpaceOnUse"><stop stop-color="#FF3154"/><stop offset="1" stop-color="#FF2E85"/></linearGradient><linearGradient id="h" x1="75.686" x2="66.963" y1="113.742" y2="122.427" gradientUnits="userSpaceOnUse"><stop stop-color="#BEEC26"/><stop offset="1" stop-color="#F8FF6F"/></linearGradient><linearGradient id="i" x1="75.686" x2="66.963" y1="113.742" y2="122.427" gradientUnits="userSpaceOnUse"><stop stop-color="#FF3154"/><stop offset="1" stop-color="#FF2E85"/></linearGradient><linearGradient id="k" x1="38.919" x2="38.919" y1="126.58" y2="105.065" gradientUnits="userSpaceOnUse"><stop stop-color="#BEEC26"/><stop offset="1" stop-color="#F8FF6F"/></linearGradient><filter id="a" width="78.304" height="127.534" x=".665" y="3.049" color-interpolation-filters="sRGB" filterUnits="userSpaceOnUse"><feFlood flood-opacity="0" result="BackgroundImageFix"/><feColorMatrix in="SourceAlpha" result="hardAlpha" values="0 0 0 0 0 0 0 0 0 0 0 0 0 0 0 0 0 0 127 0"/><feOffset dy="5"/><feGaussianBlur stdDeviation="4"/><feComposite in2="hardAlpha" operator="out"/><feColorMatrix values="0 0 0 0 0.301508 0 0 0 0 0.213325 0 0 0 0 0.372624 0 0 0 0.5 0"/><feBlend in2="BackgroundImageFix" result="effect1_dropShadow_1_2013"/><feBlend in="SourceGraphic" in2="effect1_dropShadow_1_2013" result="shape"/></filter><filter id="j" width="38" height="38" x="20" y="101" color-interpolation-filters="sRGB" filterUnits="userSpaceOnUse"><feFlood flood-opacity="0" result="BackgroundImageFix"/><feColorMatrix in="SourceAlpha" result="hardAlpha" values="0 0 0 0 0 0 0 0 0 0 0 0 0 0 0 0 0 0 127 0"/><feOffset dy="4"/><feGaussianBlur stdDeviation="4"/><feComposite in2="hardAlpha" operator="out"/><feColorMatrix values="0 0 0 0 0 0 0 0 0 0.374793 0 0 0 0 0.312328 0 0 0 0.2 0"/><feBlend in2="BackgroundImageFix" result="effect1_dropShadow_1_2013"/><feBlend in="SourceGraphic" in2="effect1_dropShadow_1_2013" result="shape"/></filter></defs></svg>