<svg width="125" height="45" viewBox="0 0 125 45" fill="none" xmlns="http://www.w3.org/2000/svg">
<g clip-path="url(#clip0_6415_8737)">
<path d="M109.74 8.28832C101.896 8.28832 95.4376 14.7274 95.4376 22.5462C95.4376 30.365 101.896 36.804 109.74 36.804C117.582 36.804 124.042 30.365 124.042 22.5462C124.042 14.7274 117.582 8.28832 109.74 8.28832ZM109.74 31.4381C104.818 31.4381 100.82 27.4521 100.82 22.5462C100.82 17.6403 104.818 13.6542 109.74 13.6542C114.661 13.6542 118.659 17.6403 118.659 22.5462C118.659 27.4521 114.661 31.4381 109.74 31.4381ZM109.74 18.2534C107.433 18.2534 105.433 20.0932 105.433 22.5462C105.433 24.8458 107.433 26.8389 109.74 26.8389C112.046 26.8389 114.045 24.9992 114.045 22.5462C114.045 20.2465 112.046 18.2534 109.74 18.2534ZM57.1458 36.804C57.4534 36.804 57.7608 36.804 58.0684 36.6507C59.6062 36.1908 60.3751 34.6577 59.9138 33.1246C59.9138 32.9712 54.07 15.034 53.9163 14.2675V14.1141C52.5322 10.588 49.149 8.13501 45.3045 8.13501C41.4599 8.13501 37.9229 10.588 36.6927 14.1141C36.3851 14.8806 30.8489 32.2047 30.5414 32.818C30.08 34.351 30.8489 35.8841 32.3868 36.344C33.9246 36.804 35.4624 36.0374 35.9238 34.5043C37.9229 28.372 41.7675 16.7204 42.075 15.8005C42.5364 14.4207 43.9204 13.5009 45.4582 13.5009C46.9961 13.5009 48.2264 14.4207 48.8414 15.8005C49.149 16.8737 52.9937 28.8319 54.839 34.5043C54.839 36.0374 55.9154 36.804 57.1458 36.804ZM90.209 36.804C90.5166 36.804 90.8241 36.804 91.1317 36.6507C92.6695 36.1908 93.4384 34.6577 92.9771 33.1246C92.9771 32.9712 87.1334 15.034 86.9795 14.2675V14.1141C85.5955 10.588 82.2123 8.13501 78.3677 8.13501C74.5232 8.13501 70.9862 10.588 69.7559 14.1141C69.4484 14.8806 63.9122 32.2047 63.6046 32.9712C63.1433 34.5043 63.9122 36.0374 65.45 36.4974C66.9878 36.9573 68.5256 36.1908 68.987 34.6577C70.9862 28.5252 74.8307 16.8737 75.1383 15.9538C75.5996 14.574 76.9837 13.6542 78.5215 13.6542C80.0594 13.6542 81.2896 14.574 81.9047 15.9538C82.2123 17.027 86.0569 28.9851 87.9023 34.6577C87.9023 36.0374 89.1325 36.804 90.209 36.804ZM25.159 12.7343C23.3136 9.36149 19.469 7.82839 15.6245 8.44163C14.7017 8.59494 5.93615 9.82142 4.09076 10.128C2.55294 10.2814 1.47646 11.8145 1.78402 13.3475C2.09159 14.8806 3.47563 15.9538 5.01346 15.6472C9.78071 14.7274 15.6245 14.1141 16.3934 13.9608C17.9312 13.8074 19.3153 14.1141 20.0842 15.3405C20.3918 15.8005 20.5455 16.4137 20.5455 17.027V18.2534C18.7001 18.5601 16.2395 19.02 14.0867 19.3266L10.2421 19.9399C5.4748 20.7064 1.01511 22.3929 0.861328 29.1385C0.861328 34.0444 4.85968 36.6507 8.85803 36.6507C9.78071 36.6507 10.2421 36.6507 10.3958 36.6507H10.5496H20.8531H21.0068C23.6211 36.6507 25.9279 34.351 25.9279 31.7448V20.5532C25.9279 20.5532 25.9279 20.5532 25.9279 20.3998V16.8737C26.2354 15.6472 25.9279 14.1141 25.159 12.7343ZM20.5455 30.8249C20.5455 30.9782 20.3918 31.2849 20.0842 31.2849H9.16559C7.78155 31.2849 6.55128 30.2117 6.55128 28.6786C6.55128 27.4521 7.47398 26.0723 8.70423 25.919L20.3918 24.0792C20.5455 24.0792 20.5455 30.8249 20.5455 30.8249Z" fill="#E10128"/>
</g>
<defs>
<clipPath id="clip0_6415_8737">
<rect width="124" height="44" fill="white" transform="translate(0.861328 0.801758)"/>
</clipPath>
</defs>
</svg>
