<svg width="139" height="45" viewBox="0 0 139 45" fill="none" xmlns="http://www.w3.org/2000/svg">
<path d="M63.1469 13.2818L63.2466 14.0536C63.3295 14.8011 63.0058 15.2409 62.2754 15.3739C61.6279 15.523 60.7894 15.6268 59.7601 15.6852C58.7309 15.7431 57.9174 15.8469 57.3197 15.9965C56.3899 16.2288 55.7134 16.5482 55.29 16.9552C54.8666 17.3618 54.4974 17.9139 54.1818 18.6115C54.0158 18.877 53.8581 19.2009 53.7088 19.5828C53.6755 19.6987 53.6879 19.7777 53.7461 19.8191C53.8042 19.8608 53.8831 19.8398 53.9826 19.7571C54.9953 18.7939 56.3236 18.3123 57.9671 18.3123C58.9964 18.3123 59.8472 18.4494 60.5197 18.7234C61.1921 18.9974 61.686 19.3918 62.0014 19.9062C62.3169 20.421 62.5202 21.0477 62.6116 21.7867C62.7028 22.5253 62.6822 23.3514 62.5492 24.2647C62.2837 26.4727 61.6279 28.0626 60.5819 29.0338C59.5359 30.0051 57.9671 30.4907 55.8753 30.4907C55.1779 30.4907 54.5555 30.4453 54.0075 30.3537C53.4597 30.2625 52.9824 30.138 52.5756 29.9804C52.1689 29.8227 51.8203 29.6107 51.5297 29.3451C51.2392 29.0796 51.0025 28.8137 50.8199 28.5482C50.6373 28.2827 50.4963 27.9462 50.3965 27.5397C50.297 27.1327 50.2265 26.7593 50.185 26.4188C50.1434 26.0787 50.1394 25.6551 50.1726 25.1488C50.2056 24.6425 50.2431 24.1942 50.2845 23.8038C50.326 23.4139 50.3882 22.9363 50.4713 22.3721C50.6207 21.2593 50.7784 20.3339 50.9446 19.5949C51.1105 18.8563 51.3304 18.1133 51.6045 17.3662C51.8783 16.6191 52.2062 16.0005 52.588 15.5109C52.9698 15.0208 53.4473 14.5765 54.0201 14.1784C54.5928 13.7796 55.2693 13.4642 56.0496 13.2319C56.8133 12.9996 57.8509 12.8083 59.1624 12.6591C60.4741 12.51 61.3622 12.3932 61.8271 12.3105C62.624 12.1776 63.064 12.5014 63.1469 13.2818ZM54.8792 21.5998C54.4641 22.098 54.1652 22.9947 53.9826 24.2894C53.8 25.6344 53.8249 26.5477 54.0574 27.0289C54.2898 27.5105 54.8543 27.7513 55.7509 27.7513C56.3483 27.7513 56.8341 27.6475 57.2077 27.4399C57.5812 27.2324 57.8925 26.8546 58.1416 26.3069C58.3904 25.7589 58.5897 24.9952 58.739 24.0158C58.8886 23.169 58.9259 22.5091 58.8511 22.0356C58.7765 21.5626 58.6146 21.2472 58.3655 21.0895C58.1166 20.9314 57.7016 20.8528 57.1205 20.8528C56.0413 20.8528 55.2943 21.1017 54.8792 21.5998Z" fill="#743E2A"/>
<path d="M69.3361 18.2377C69.527 18.4534 69.5976 18.7525 69.5481 19.1344L68.1533 29.1209C68.0702 29.8348 67.6552 30.1919 66.9081 30.1919H65.6131C65.2146 30.1919 64.9199 30.0841 64.729 29.868C64.5381 29.6524 64.4676 29.3451 64.5174 28.9466L65.9122 18.9848C65.9949 18.2709 66.41 17.9138 67.1574 17.9138H68.4521C68.8505 17.9138 69.1452 18.0221 69.3361 18.2377Z" fill="#743E2A"/>
<path d="M66.8707 15.6102C66.497 15.2535 66.3105 14.7926 66.3105 14.2279C66.3105 13.6803 66.5015 13.2279 66.8833 12.8708C67.2651 12.5141 67.7548 12.3357 68.3522 12.3357C68.7345 12.3357 69.0746 12.4184 69.3733 12.5846C69.6724 12.7508 69.9047 12.9745 70.0709 13.2567C70.2367 13.5392 70.3198 13.8631 70.3198 14.2279C70.3198 14.7926 70.1288 15.2535 69.747 15.6102C69.3652 15.9674 68.8836 16.1457 68.3028 16.1457C67.7215 16.1457 67.2444 15.9674 66.8707 15.6102Z" fill="#3DAE2B"/>
<path d="M84.6899 13.2818L84.7896 14.0536C84.8727 14.8011 84.5488 15.2409 83.8184 15.3739C83.1707 15.523 82.3324 15.6268 81.3033 15.6852C80.2737 15.7431 79.4602 15.8469 78.8627 15.9965C77.9329 16.2288 77.2564 16.5482 76.8332 16.9552C76.4096 17.3618 76.0404 17.9139 75.725 18.6115C75.5588 18.877 75.4012 19.2009 75.2516 19.5828C75.2183 19.6987 75.2309 19.7777 75.2893 19.8191C75.3472 19.8608 75.4259 19.8398 75.5256 19.7571C76.5385 18.7939 77.8664 18.3123 79.5101 18.3123C80.5396 18.3123 81.3904 18.4494 82.0629 18.7234C82.7349 18.9974 83.2291 19.3918 83.5444 19.9062C83.8598 20.421 84.0632 21.0477 84.1544 21.7867C84.2461 22.5253 84.225 23.3514 84.0924 24.2647C83.8265 26.4727 83.1707 28.0626 82.1249 29.0338C81.0791 30.0051 79.5101 30.4907 77.4181 30.4907C76.7209 30.4907 76.0983 30.4453 75.5507 30.3537C75.0027 30.2625 74.5252 30.138 74.1187 29.9804C73.7117 29.8227 73.3631 29.6107 73.0729 29.3451C72.7823 29.0796 72.5455 28.8137 72.3631 28.5482C72.1803 28.2827 72.0393 27.9462 71.9396 27.5397C71.8399 27.1327 71.7693 26.7593 71.728 26.4188C71.6866 26.0787 71.6822 25.6551 71.7154 25.1488C71.7486 24.6425 71.7859 24.1942 71.8277 23.8038C71.869 23.4139 71.9315 22.9363 72.0141 22.3721C72.1637 21.2593 72.3214 20.3339 72.4876 19.5949C72.6534 18.8563 72.8735 18.1133 73.1475 17.3662C73.4215 16.6191 73.7494 16.0005 74.1312 15.5109C74.5131 15.0208 74.9901 14.5765 75.5629 14.1784C76.1356 13.7796 76.8121 13.4642 77.5924 13.2319C78.3565 12.9996 79.3937 12.8083 80.7054 12.6591C82.0171 12.51 82.9052 12.3932 83.3701 12.3105C84.167 12.1776 84.6068 12.5014 84.6899 13.2818ZM76.4222 21.5998C76.0071 22.098 75.7084 22.9947 75.5256 24.2894C75.3432 25.6344 75.3679 26.5477 75.6006 27.0289C75.8328 27.5105 76.3975 27.7513 77.2937 27.7513C77.8916 27.7513 78.3772 27.6475 78.7505 27.4399C79.1242 27.2324 79.4355 26.8546 79.6844 26.3069C79.9337 25.7589 80.1327 24.9952 80.2822 24.0158C80.4314 23.169 80.4691 22.5091 80.3941 22.0356C80.3195 21.5626 80.1578 21.2472 79.9085 21.0895C79.6596 20.9314 79.2446 20.8528 78.6633 20.8528C77.5843 20.8528 76.8373 21.1017 76.4222 21.5998Z" fill="#743E2A"/>
<path d="M90.8771 18.2377C91.068 18.4534 91.1386 18.7525 91.0887 19.1344L89.6943 29.1209C89.6113 29.8348 89.1962 30.1919 88.4491 30.1919H87.1541C86.7556 30.1919 86.461 30.0841 86.27 29.868C86.0791 29.6524 86.0086 29.3451 86.0585 28.9466L87.4532 18.9848C87.5359 18.2709 87.951 17.9138 88.698 17.9138H89.9931C90.3915 17.9138 90.6862 18.0221 90.8771 18.2377Z" fill="#743E2A"/>
<path d="M88.4137 15.6102C88.04 15.2535 87.8535 14.7926 87.8535 14.2279C87.8535 13.6803 88.0444 13.2279 88.4263 12.8708C88.8081 12.5141 89.2977 12.3357 89.8956 12.3357C90.2774 12.3357 90.6175 12.4184 90.9163 12.5846C91.2154 12.7508 91.4477 12.9745 91.6138 13.2567C91.7796 13.5392 91.8627 13.8631 91.8627 14.2279C91.8627 14.7926 91.6718 15.2535 91.29 15.6102C90.9082 15.9674 90.4266 16.1457 89.8458 16.1457C89.2645 16.1457 88.7874 15.9674 88.4137 15.6102Z" fill="#3DAE2B"/>
<path d="M104.152 13.0823C104.342 13.2983 104.413 13.6052 104.363 14.0041L103.89 17.3662C103.873 17.5486 103.957 17.6483 104.139 17.6649C106.347 17.8806 107.875 18.5032 108.721 19.5328C109.568 20.5621 109.842 22.1227 109.543 24.2148C109.261 26.3069 108.568 27.8302 107.464 28.7849C106.36 29.7395 104.629 30.2916 102.272 30.4408C102.105 30.4574 102.014 30.5405 101.998 30.6901L101.549 33.8527C101.466 34.567 101.06 34.9237 100.329 34.9237H99.3576C99.0921 34.9237 98.872 34.8779 98.6977 34.7867C98.5234 34.6955 98.399 34.5544 98.3244 34.3635C98.2494 34.1726 98.2372 33.9525 98.2871 33.7036L98.6855 30.6901C98.7022 30.5073 98.6191 30.4075 98.4363 30.3913C96.2118 30.1919 94.6759 29.5859 93.8292 28.5733C92.9824 27.5603 92.7088 26.0077 93.0076 23.916C93.3063 21.8073 94.0079 20.2714 95.1117 19.3087C96.2158 18.3455 97.9466 17.7813 100.304 17.6151C100.47 17.6151 100.561 17.532 100.578 17.3662L101.076 13.8298C101.176 13.1155 101.582 12.7588 102.296 12.7588H103.267C103.666 12.7588 103.961 12.8666 104.152 13.0823ZM97.5275 21.4008C97.0046 21.965 96.6601 22.8698 96.4939 24.1151C96.3281 25.3437 96.4233 26.2238 96.7804 26.7552C97.1371 27.2862 97.872 27.6182 98.9843 27.7512C99.1667 27.7678 99.2749 27.6847 99.3081 27.5023L100.279 20.6038C100.296 20.5041 100.283 20.4291 100.242 20.3796C100.2 20.3298 100.13 20.3132 100.03 20.3298C98.8846 20.479 98.0504 20.8361 97.5275 21.4008ZM103.267 20.5539L102.272 27.4524C102.255 27.5522 102.272 27.6267 102.321 27.6766C102.371 27.7265 102.446 27.7431 102.545 27.7265C103.691 27.5935 104.521 27.2489 105.036 26.6928C105.55 26.1366 105.891 25.244 106.057 24.0158C106.19 23.2022 106.194 22.5378 106.069 22.023C105.945 21.5086 105.687 21.1182 105.297 20.8527C104.907 20.5872 104.338 20.4129 103.591 20.3298C103.409 20.2965 103.301 20.3711 103.267 20.5539Z" fill="#3DAE2B"/>
<path d="M124.362 18.2503C124.544 18.4744 124.594 18.7858 124.511 19.1842C123.731 22.7372 122.577 25.925 121.049 28.7476C119.838 31.1883 118.464 32.9646 116.928 34.0769C115.392 35.1892 113.62 35.6542 111.611 35.4718C110.848 35.3887 110.507 34.9489 110.59 34.1519L110.64 33.828C110.706 33.1308 111.121 32.7822 111.885 32.7822C113.495 32.7822 114.915 32.0181 116.143 30.4907C116.21 30.4076 116.231 30.337 116.206 30.2791C116.181 30.2211 116.11 30.1919 115.994 30.1919H114.948C114.55 30.1919 114.21 30.0756 113.927 29.8433C113.645 29.6106 113.471 29.3119 113.404 28.9466L111.611 19.1591C111.545 18.7606 111.607 18.4534 111.798 18.2377C111.989 18.0221 112.283 17.9138 112.682 17.9138H114.251C114.981 17.9138 115.38 18.2791 115.446 19.0099L116.492 27.3029C116.525 27.5688 116.675 27.7013 116.94 27.7013H117.737C117.87 27.7013 117.97 27.6349 118.036 27.5023C118.152 27.253 118.277 26.9875 118.41 26.7054C119.423 24.4637 120.194 21.8904 120.726 18.9848C120.842 18.2709 121.257 17.9138 121.971 17.9138H123.465C123.88 17.9138 124.179 18.0261 124.362 18.2503Z" fill="#3DAE2B"/>
<path d="M138.657 28.6978C138.476 28.4935 138.206 28.3901 137.853 28.3901L136.968 28.3873L137.886 18.9419C137.93 18.5888 137.861 18.2396 137.68 18.0357C137.5 17.8318 137.229 17.6614 136.876 17.6614H131.608C130.711 17.6614 129.964 17.9652 129.386 18.4322C128.808 18.8995 128.425 19.6064 128.246 20.4605C127.871 22.0325 127.473 23.4753 127.063 24.7166C126.655 25.9525 126.126 27.2039 125.49 28.356C125.458 28.4135 125.435 28.4538 125.416 28.4538H125.069C124.466 28.4538 124.095 28.7661 124.023 29.3904L123.604 32.8484C123.544 33.2043 123.607 33.4125 123.79 33.6196C123.97 33.8235 124.241 33.85 124.594 33.85H125.429C126.04 33.85 126.433 33.6035 126.563 33.0076L126.965 31.0928L126.999 30.9444H127.11H135.411L135.062 32.7997C135.04 33.1504 135.119 33.4004 135.296 33.5893C135.473 33.7778 135.741 33.85 136.091 33.85H137.198C137.842 33.85 138.228 33.5857 138.317 32.9509L138.862 29.485C138.907 29.1441 138.838 28.9021 138.657 28.6978ZM134.514 20.1007L133.363 27.8504C133.338 27.9781 133.259 28.0387 133.125 28.0387H129.32C129.234 28.0387 129.18 28.0875 129.155 28.0412C129.131 27.9949 129.137 27.9726 129.174 27.9032C130.075 26.2575 130.848 24.0099 131.493 21.1244C131.578 20.7301 131.73 20.3147 131.95 20.1349C132.169 19.9555 132.889 19.7368 133.278 19.7368H134.312C134.471 19.7368 134.538 19.9498 134.514 20.1007Z" fill="#3DAE2B"/>
<path fill-rule="evenodd" clip-rule="evenodd" d="M20.798 41.6125V28.6517C20.798 26.6482 19.1589 25.0088 17.1554 25.0088H4.19531C4.19531 30.2221 4.19531 35.4362 4.19531 40.6495C4.19531 41.1952 4.61265 41.6125 5.15833 41.6125C10.3713 41.6125 15.585 41.6125 20.798 41.6125Z" fill="#FFC629"/>
<path fill-rule="evenodd" clip-rule="evenodd" d="M4.22015 44.9334H17.453C19.275 44.9334 20.7685 43.273 20.7975 41.6126H18.3914H5.84565H5.15855C4.61287 41.6126 4.19554 41.1954 4.19554 40.6496V39.9626V27.416V25.1298V25.0098C2.53527 25.0388 0.875 26.5325 0.875 28.3545V41.5882C0.875 43.4282 2.38036 44.9334 4.22015 44.9334Z" fill="#FF671D"/>
<path fill-rule="evenodd" clip-rule="evenodd" d="M14.2903 26.3421C17.2422 25.8803 19.9265 28.5648 19.4648 31.5168C16.5129 31.9786 13.8286 29.2941 14.2903 26.3421Z" fill="#3DAE2B"/>
<path fill-rule="evenodd" clip-rule="evenodd" d="M10.8423 29.5818C13.8154 29.5818 16.2257 31.992 16.2257 34.9653C16.2257 37.9387 13.8154 40.3491 10.8423 40.3491C7.86916 40.3491 5.45898 37.9387 5.45898 34.9653C5.45898 31.992 7.86916 29.5818 10.8423 29.5818Z" fill="#FF671D"/>
<path fill-rule="evenodd" clip-rule="evenodd" d="M12.101 35.0457C12.9176 35.0457 13.5792 35.7072 13.5792 36.5237C13.5792 37.3402 12.9176 38.002 12.101 38.002C11.2846 38.002 10.623 37.3402 10.623 36.5237C10.623 35.7072 11.2846 35.0457 12.101 35.0457Z" fill="white"/>
<path d="M11.3737 32.61C11.8281 32.61 12.1966 32.2416 12.1966 31.7871C12.1966 31.3326 11.8281 30.9641 11.3737 30.9641C10.9192 30.9641 10.5508 31.3326 10.5508 31.7871C10.5508 32.2416 10.9192 32.61 11.3737 32.61Z" fill="white"/>
<path fill-rule="evenodd" clip-rule="evenodd" d="M8.58657 36.2747C9.04118 36.2747 9.40946 36.643 9.40946 37.0975C9.40946 37.5521 9.04118 37.9205 8.58657 37.9205C8.13208 37.9205 7.76367 37.5521 7.76367 37.0975C7.76367 36.643 8.13208 36.2747 8.58657 36.2747Z" fill="white"/>
<path fill-rule="evenodd" clip-rule="evenodd" d="M8.53924 32.3296C9.20819 32.3296 9.75048 32.8719 9.75048 33.5409C9.75048 34.2099 9.20819 34.7521 8.53924 34.7521C7.87029 34.7521 7.32812 34.2099 7.32812 33.5409C7.32812 32.8719 7.87029 32.3296 8.53924 32.3296Z" fill="white"/>
<path fill-rule="evenodd" clip-rule="evenodd" d="M17.9827 37.3059C18.6517 37.3059 19.1937 37.8482 19.1937 38.5172C19.1937 39.1862 18.6517 39.7285 17.9827 39.7285C17.3135 39.7285 16.7715 39.1862 16.7715 38.5172C16.7715 37.8482 17.3135 37.3059 17.9827 37.3059Z" fill="#3DAE2B"/>
<path fill-rule="evenodd" clip-rule="evenodd" d="M7.48455 26.4189C8.1535 26.4189 8.69567 26.9611 8.69567 27.6301C8.69567 28.2991 8.1535 28.8415 7.48455 28.8415C6.8156 28.8415 6.27344 28.2991 6.27344 27.6301C6.27344 26.9611 6.8156 26.4189 7.48455 26.4189Z" fill="#743E2A"/>
<path fill-rule="evenodd" clip-rule="evenodd" d="M14.0493 32.988C14.5039 32.988 14.8724 33.3565 14.8724 33.811C14.8724 34.2655 14.5039 34.6339 14.0493 34.6339C13.5948 34.6339 13.2266 34.2655 13.2266 33.811C13.2266 33.3565 13.5948 32.988 14.0493 32.988Z" fill="white"/>
<path fill-rule="evenodd" clip-rule="evenodd" d="M4.19554 0.93335H17.4777C19.3116 0.93335 20.7982 2.4201 20.7982 4.25409V17.5371C20.7982 19.3711 19.3116 20.8578 17.4777 20.8578H4.19554C2.36166 20.8578 0.875 19.3711 0.875 17.5371V4.25409C0.875 2.4201 2.36166 0.93335 4.19554 0.93335Z" fill="#FFC629"/>
<path fill-rule="evenodd" clip-rule="evenodd" d="M4.79916 2.59375H16.8738C18.1242 2.59375 19.1378 3.60744 19.1378 4.85789V16.9333C19.1378 18.1838 18.1242 19.1975 16.8738 19.1975H4.79916C3.54878 19.1975 2.53516 18.1838 2.53516 16.9333V4.85789C2.53516 3.60744 3.54878 2.59375 4.79916 2.59375Z" fill="#3DAE2B"/>
<path fill-rule="evenodd" clip-rule="evenodd" d="M5.73934 3.83936H15.9315C17.014 3.83936 17.8916 4.71695 17.8916 5.79952V15.9924C17.8916 17.0749 17.014 17.9525 15.9315 17.9525H5.73934C4.65684 17.9525 3.7793 17.0749 3.7793 15.9924V5.79952C3.7793 4.71695 4.65684 3.83936 5.73934 3.83936Z" fill="white"/>
<path fill-rule="evenodd" clip-rule="evenodd" d="M6.41305 5.91455H6.51078C7.34715 7.16606 8.41699 8.24324 9.67131 9.09093C11.4111 10.2669 13.5038 10.9997 15.8171 11.1418V11.6284C15.2766 11.6933 14.7174 11.7266 14.1411 11.7266C12.3292 11.7266 10.6002 11.3808 9.01356 10.7503C7.8838 10.3014 6.82388 9.70876 5.85547 8.99425V6.47221C5.85547 6.16498 6.10584 5.91455 6.41305 5.91455ZM7.88473 5.91455C8.56228 6.78521 9.37333 7.54508 10.2941 8.1675C11.8553 9.22265 13.7347 9.88459 15.8171 10.0243V9.54029C14.7033 9.11077 13.6907 8.4768 12.8249 7.68441C12.2516 7.1596 11.743 6.56519 11.3122 5.91455H7.88473ZM12.6846 5.91455C12.9562 6.25418 13.2537 6.5721 13.5742 6.86542C14.2332 7.46869 14.9896 7.96781 15.8171 8.33691V6.47221C15.8171 6.16506 15.5667 5.91455 15.2595 5.91455H12.6846ZM15.8171 12.747C15.2589 12.8096 14.6994 12.8418 14.1411 12.8418C12.1927 12.8418 10.3253 12.4667 8.60399 11.7828C7.63664 11.3984 6.7166 10.9159 5.85547 10.3474V12.8121C6.2861 12.9569 6.72489 13.0863 7.17129 13.1994C8.20865 13.4621 9.28296 13.6355 10.3863 13.7097C11.6495 13.7947 12.8901 13.7469 14.0941 13.5783C14.6773 13.4966 15.2522 13.3867 15.8171 13.2498V12.747ZM15.8171 14.3923V15.3193C15.8171 15.6264 15.5666 15.8768 15.2595 15.8768C10.7903 15.8768 9.99051 15.8768 6.41305 15.8768C6.10597 15.8768 5.85547 15.6264 5.85547 15.3193V13.9825C6.19999 14.0913 6.54871 14.1906 6.9012 14.2798C7.99937 14.558 9.13926 14.7415 10.3122 14.8206C11.6505 14.9106 12.9669 14.8596 14.2466 14.6804C14.7766 14.6062 15.3006 14.5098 15.8171 14.3923Z" fill="#FF671D"/>
<path fill-rule="evenodd" clip-rule="evenodd" d="M41.0182 20.8579H41.5273C41.7786 20.8579 42.0234 20.8298 42.2592 20.7766C42.2487 20.7577 42.2382 20.7384 42.2284 20.7188C41.9974 20.2546 42.0605 19.7659 42.1236 19.2772C42.2098 18.6099 42.296 17.9424 41.9082 17.1628C41.5198 16.3826 40.9343 16.0481 40.3491 15.714C39.9222 15.4701 39.4953 15.2264 39.2647 14.763C39.0339 14.2991 39.0969 13.8106 39.16 13.3221C39.2462 12.6546 39.3324 11.9867 38.9443 11.2068C38.5559 10.4262 37.9701 10.0918 37.3849 9.75757C36.9581 9.51388 36.5313 9.27006 36.3009 8.80704C36.0699 8.34278 36.133 7.85399 36.1961 7.36545C36.2823 6.69813 36.3684 6.03046 35.9806 5.25092C35.5923 4.47065 35.0067 4.13628 34.4215 3.80212C33.9948 3.55834 33.5677 3.31452 33.3371 2.85104C33.1063 2.38717 33.1694 1.89859 33.2324 1.41013C33.253 1.25172 33.2734 1.09326 33.2875 0.93335H32.1089C32.098 1.04316 32.0838 1.1531 32.0697 1.263C31.9835 1.92994 31.8974 2.59675 32.2846 3.37496C32.6725 4.15438 33.2574 4.4884 33.8424 4.82256C34.2697 5.06646 34.697 5.3105 34.9282 5.77489C35.1596 6.24009 35.0964 6.7294 35.0332 7.21832C34.9472 7.88526 34.8611 8.55241 35.2484 9.33101C35.6361 10.11 36.2209 10.4439 36.8058 10.778C37.2331 11.0219 37.6607 11.2662 37.8918 11.7308C38.1236 12.1964 38.0604 12.6859 37.9972 13.1749C37.9111 13.8419 37.825 14.5087 38.2122 15.2869C38.6001 16.0663 39.185 16.4003 39.77 16.7344C40.1971 16.9783 40.6246 17.2223 40.8557 17.6868C41.0871 18.152 41.024 18.6412 40.9609 19.1302C40.8893 19.6847 40.8177 20.2393 41.0182 20.8579ZM31.5979 20.8579L31.545 20.8277C30.96 20.4938 30.375 20.1597 29.9873 19.3802C29.5999 18.6019 29.686 17.9351 29.7722 17.2681C29.8353 16.7791 29.8985 16.2897 29.667 15.8242C29.4358 15.3596 29.0081 15.1153 28.5808 14.8714C27.9958 14.5374 27.4111 14.2034 27.0235 13.4243C26.636 12.6458 26.7222 11.9787 26.8083 11.3118C26.8714 10.8227 26.9346 10.3335 26.7031 9.86832C26.472 9.40385 26.0446 9.15977 25.6175 8.91587C25.3908 8.7865 25.1643 8.65712 24.9492 8.50184V6.21019C24.9521 6.45933 24.993 6.70507 25.112 6.94448C25.3427 7.40788 25.7696 7.65178 26.1966 7.89547C26.7818 8.22958 27.3673 8.56413 27.7556 9.34435C28.1434 10.1239 28.0572 10.7915 27.9711 11.4588C27.908 11.9473 27.8449 12.4361 28.0759 12.9004C28.3064 13.3635 28.7331 13.6073 29.1599 13.851C29.7452 14.1852 30.3309 14.5197 30.7195 15.3003C31.1073 16.0801 31.0211 16.7479 30.9349 17.4153C30.8719 17.9037 30.8088 18.3923 31.0397 18.8563C31.2703 19.3198 31.6972 19.5636 32.1242 19.8074C32.5986 20.0782 33.0733 20.3493 33.4427 20.8579H31.5979ZM35.5119 20.8579C35.4882 20.7086 35.4445 20.561 35.3723 20.4157C35.1413 19.9514 34.7138 19.7072 34.2867 19.4633C33.7017 19.1293 33.1167 18.7951 32.7289 18.0158C32.3417 17.2375 32.4278 16.5707 32.5138 15.9039C32.5769 15.4147 32.6403 14.9253 32.4085 14.4598C32.1774 13.995 31.7498 13.7508 31.3224 13.5069C30.7375 13.1729 30.1526 12.8388 29.7651 12.0599C29.3776 11.2813 29.4639 10.6142 29.5499 9.94725C29.6132 9.45828 29.6764 8.96902 29.4449 8.50381C29.2139 8.03943 28.7864 7.79539 28.3592 7.55149C27.7742 7.21746 27.1892 6.88343 26.8014 6.10402C26.4141 5.32568 26.5002 4.65887 26.5864 3.99193C26.6495 3.50288 26.7127 3.01335 26.4811 2.54802C26.3482 2.28074 26.1503 2.08643 25.9249 1.92316C26.214 1.63242 26.5553 1.39443 26.9337 1.22448C27.16 1.43141 27.3653 1.68578 27.5336 2.02393C27.9215 2.80385 27.8353 3.47165 27.7491 4.13893C27.686 4.62751 27.6229 5.11605 27.8538 5.57997C28.0845 6.04345 28.5113 6.28727 28.9383 6.53105C29.5234 6.8652 30.1091 7.19958 30.4973 7.97985C30.8852 8.75951 30.799 9.42706 30.7128 10.0943C30.6497 10.5829 30.5866 11.0717 30.8176 11.5358C31.048 11.999 31.4748 12.2428 31.9015 12.4865C32.4868 12.8206 33.0727 13.1551 33.461 13.9358C33.8491 14.7156 33.7628 15.3834 33.6767 16.0509C33.6136 16.5394 33.5505 17.0279 33.7814 17.4919C34.0119 17.9553 34.4389 18.1991 34.8658 18.4428C35.451 18.7771 36.0365 19.1115 36.4248 19.8918C36.5942 20.232 36.673 20.5511 36.7011 20.8579H35.5119ZM38.1751 20.8579C38.1879 20.7365 38.2036 20.6156 38.2191 20.4948C38.2824 20.0057 38.3455 19.5164 38.114 19.0512C37.883 18.5868 37.4554 18.3427 37.0283 18.0987C36.4433 17.7648 35.8583 17.4307 35.4704 16.6514C35.0833 15.8732 35.1695 15.2064 35.2555 14.5395C35.3187 14.0504 35.3818 13.5608 35.1502 13.0953C34.9191 12.6306 34.4914 12.3863 34.0642 12.1423C33.4792 11.8084 32.8944 11.4743 32.5068 10.6954C32.1194 9.91684 32.2055 9.24977 32.2917 8.58283C32.3548 8.0939 32.418 7.6046 32.1865 7.13939C31.9555 6.67501 31.528 6.43097 31.1009 6.18707C30.5158 5.85304 29.9308 5.51901 29.543 4.73952C29.1558 3.96118 29.2418 3.29449 29.328 2.62755C29.3912 2.13837 29.4544 1.64893 29.2228 1.18339C29.1773 1.09206 29.1242 1.00936 29.0652 0.93335H30.3943C30.6426 1.59836 30.5668 2.18663 30.4908 2.77456C30.4277 3.26309 30.3646 3.75167 30.5955 4.21555C30.8261 4.67908 31.2531 4.92285 31.68 5.16667C32.2652 5.50078 32.8508 5.8352 33.239 6.61542C33.6268 7.39496 33.5406 8.06263 33.4544 8.72983C33.3913 9.21854 33.3282 9.70733 33.5592 10.1715C33.7896 10.6345 34.2164 10.8783 34.6433 11.1221C35.2285 11.4562 35.8141 11.7907 36.2026 12.5713C36.5907 13.3513 36.5045 14.0192 36.4183 14.6866C36.3552 15.1751 36.2922 15.6637 36.5229 16.1275C36.7535 16.5909 37.1805 16.8346 37.6075 17.0785C38.1926 17.4126 38.7782 17.7469 39.1664 18.5273C39.5543 19.3068 39.4682 19.9745 39.382 20.6419C39.3726 20.7139 39.3633 20.786 39.355 20.8579H38.1751Z" fill="white"/>
<path fill-rule="evenodd" clip-rule="evenodd" d="M28.2944 0.93335H29.0652C29.1242 1.00936 29.1773 1.09206 29.2228 1.18339C29.4544 1.64893 29.3912 2.13837 29.328 2.62755C29.2418 3.29449 29.1558 3.96118 29.543 4.73952C29.9308 5.51901 30.5158 5.85304 31.1009 6.18707C31.528 6.43097 31.9555 6.67501 32.1865 7.13939C32.418 7.6046 32.3548 8.0939 32.2917 8.58283C32.2055 9.24977 32.1194 9.91684 32.5068 10.6954C32.8944 11.4743 33.4792 11.8084 34.0642 12.1423C34.4914 12.3863 34.9191 12.6306 35.1502 13.0953C35.3818 13.5608 35.3187 14.0504 35.2555 14.5395C35.1695 15.2064 35.0833 15.8732 35.4704 16.6514C35.8583 17.4307 36.4433 17.7648 37.0283 18.0987C37.4554 18.3427 37.883 18.5868 38.114 19.0512C38.3455 19.5164 38.2824 20.0057 38.2191 20.4948C38.2036 20.6156 38.1879 20.7365 38.1751 20.8579H36.7011C36.673 20.5511 36.5942 20.232 36.4248 19.8918C36.0365 19.1115 35.451 18.7771 34.8658 18.4428C34.4389 18.1991 34.0119 17.9553 33.7814 17.4919C33.5505 17.0279 33.6136 16.5394 33.6767 16.0509C33.7628 15.3834 33.8491 14.7156 33.461 13.9358C33.0727 13.1551 32.4868 12.8206 31.9015 12.4865C31.4748 12.2428 31.048 11.999 30.8176 11.5358C30.5866 11.0717 30.6497 10.5829 30.7128 10.0943C30.799 9.42706 30.8852 8.75951 30.4973 7.97985C30.1091 7.19958 29.5234 6.8652 28.9383 6.53105C28.5113 6.28727 28.0845 6.04345 27.8538 5.57997C27.6229 5.11605 27.686 4.62752 27.7491 4.13893C27.8353 3.47165 27.9215 2.80385 27.5336 2.02393C27.3653 1.68578 27.16 1.43141 26.9337 1.22448C27.3499 1.03759 27.8106 0.93335 28.2944 0.93335ZM30.3943 0.93335C30.6426 1.59836 30.5668 2.18663 30.4908 2.77456C30.4277 3.26309 30.3646 3.75167 30.5955 4.21555C30.8261 4.67908 31.2531 4.92285 31.68 5.16667C32.2652 5.50078 32.8508 5.8352 33.239 6.61542C33.6268 7.39496 33.5406 8.06263 33.4544 8.72983C33.3913 9.21854 33.3282 9.70733 33.5592 10.1715C33.7896 10.6345 34.2164 10.8783 34.6433 11.1221C35.2285 11.4562 35.8141 11.7907 36.2026 12.5713C36.5907 13.3513 36.5045 14.0192 36.4183 14.6866C36.3552 15.1751 36.2922 15.6637 36.5229 16.1275C36.7535 16.5909 37.1805 16.8346 37.6075 17.0785C38.1926 17.4126 38.7782 17.7469 39.1664 18.5273C39.5543 19.3068 39.4682 19.9745 39.382 20.6419C39.3726 20.7139 39.3633 20.786 39.355 20.8579H41.0182C40.8177 20.2393 40.8893 19.6847 40.9609 19.1302C41.024 18.6412 41.0871 18.152 40.8557 17.6868C40.6246 17.2223 40.1971 16.9783 39.77 16.7344C39.185 16.4003 38.6001 16.0663 38.2122 15.2869C37.825 14.5087 37.9111 13.8419 37.9972 13.1749C38.0604 12.6859 38.1236 12.1964 37.8918 11.7308C37.6607 11.2662 37.2331 11.0219 36.8058 10.778C36.2209 10.4439 35.6361 10.11 35.2484 9.33101C34.8611 8.55241 34.9472 7.88526 35.0332 7.21832C35.0964 6.7294 35.1596 6.24009 34.9282 5.77489C34.697 5.3105 34.2697 5.06646 33.8424 4.82256C33.2574 4.4884 32.6725 4.15438 32.2846 3.37496C31.8974 2.59675 31.9835 1.92994 32.0697 1.263C32.0838 1.1531 32.098 1.04316 32.1089 0.93335H30.3943ZM33.2875 0.93335C33.2734 1.09326 33.253 1.25172 33.2324 1.41013C33.1694 1.89859 33.1063 2.38717 33.3371 2.85104C33.5677 3.31452 33.9948 3.55834 34.4215 3.80212C35.0067 4.13627 35.5923 4.47065 35.9806 5.25092C36.3684 6.03046 36.2823 6.69813 36.1961 7.36545C36.133 7.85399 36.0699 8.34278 36.3009 8.80704C36.5313 9.27006 36.9581 9.51388 37.3849 9.75757C37.9701 10.0918 38.5559 10.4262 38.9443 11.2068C39.3324 11.9867 39.2462 12.6546 39.16 13.3221C39.0969 13.8106 39.0339 14.2991 39.2647 14.763C39.4953 15.2264 39.9222 15.4701 40.3491 15.714C40.9343 16.0481 41.5198 16.3826 41.9082 17.1628C42.296 17.9424 42.2098 18.6099 42.1236 19.2772C42.0605 19.7659 41.9974 20.2546 42.2284 20.7188C42.2382 20.7384 42.2484 20.7577 42.2588 20.7766C43.75 20.4407 44.8724 19.1015 44.8724 17.5126V4.27877C44.8724 2.43881 43.3672 0.93335 41.5273 0.93335H33.2875ZM35.5119 20.8579C35.4882 20.7086 35.4445 20.561 35.3723 20.4157C35.1413 19.9514 34.7138 19.7072 34.2867 19.4633C33.7017 19.1293 33.1167 18.7951 32.7289 18.0158C32.3417 17.2375 32.4278 16.5707 32.5138 15.9039C32.5769 15.4147 32.6403 14.9253 32.4085 14.4598C32.1774 13.995 31.7498 13.7508 31.3224 13.5069C30.7375 13.1729 30.1526 12.8388 29.7651 12.0599C29.3776 11.2813 29.4639 10.6142 29.5499 9.94725C29.6132 9.45828 29.6764 8.96902 29.4449 8.50381C29.2139 8.03943 28.7864 7.79539 28.3592 7.55149C27.7742 7.21746 27.1892 6.88343 26.8014 6.10402C26.4141 5.32568 26.5002 4.65887 26.5864 3.99193C26.6495 3.50288 26.7127 3.01335 26.4811 2.54802C26.3482 2.28074 26.1503 2.08643 25.9249 1.92316C25.3227 2.52894 24.9492 3.36231 24.9492 4.27877V6.21019C24.9521 6.45933 24.993 6.70507 25.112 6.94448C25.3427 7.40788 25.7696 7.65178 26.1966 7.89547C26.7818 8.22958 27.3673 8.56413 27.7556 9.34435C28.1434 10.1239 28.0572 10.7915 27.9711 11.4588C27.908 11.9473 27.8449 12.4361 28.0759 12.9004C28.3064 13.3635 28.7331 13.6073 29.1599 13.851C29.7452 14.1852 30.3309 14.5197 30.7195 15.3003C31.1073 16.0801 31.0211 16.7479 30.9349 17.4153C30.8719 17.9037 30.8088 18.3923 31.0397 18.8563C31.2703 19.3198 31.6972 19.5636 32.1242 19.8074C32.5986 20.0782 33.0733 20.3493 33.4427 20.8579H35.5119ZM31.5979 20.8579L31.545 20.8277C30.96 20.4938 30.375 20.1597 29.9873 19.3802C29.5999 18.6019 29.686 17.9351 29.7722 17.2681C29.8353 16.7791 29.8985 16.2897 29.667 15.8242C29.4358 15.3596 29.0081 15.1153 28.5808 14.8714C27.9958 14.5374 27.4111 14.2034 27.0235 13.4243C26.636 12.6458 26.7222 11.9787 26.8083 11.3118C26.8714 10.8227 26.9346 10.3335 26.7031 9.86832C26.472 9.40385 26.0446 9.15977 25.6175 8.91587C25.3908 8.7865 25.1643 8.65712 24.9492 8.50184V17.5126C24.9492 19.3526 26.4545 20.8579 28.2944 20.8579H31.5979Z" fill="#FFC629"/>
<path fill-rule="evenodd" clip-rule="evenodd" d="M41.883 10.9126C41.214 10.9126 40.6719 11.4548 40.6719 12.1238C40.6719 12.7928 41.214 13.3351 41.883 13.3351C42.552 13.3351 43.0942 12.7928 43.0942 12.1238C43.0942 11.4548 42.552 10.9126 41.883 10.9126Z" fill="#743E2A"/>
<path fill-rule="evenodd" clip-rule="evenodd" d="M27.3753 16.136C26.7063 16.136 26.1641 16.6781 26.1641 17.3471C26.1641 18.0162 26.7063 18.5583 27.3753 18.5583C28.0443 18.5583 28.5864 18.0162 28.5864 17.3471C28.5864 16.6781 28.0443 16.136 27.3753 16.136Z" fill="#3DAE2B"/>
<path fill-rule="evenodd" clip-rule="evenodd" d="M37.8684 2.76371C40.8203 2.30189 43.5047 4.98643 43.0429 7.9385C40.091 8.40031 37.4067 5.71574 37.8684 2.76371Z" fill="#3DAE2B"/>
<path fill-rule="evenodd" clip-rule="evenodd" d="M41.5274 44.9337H28.2943C26.4544 44.9337 24.9492 43.4284 24.9492 41.5883V28.3546C24.9492 26.5145 26.4544 25.0093 28.2943 25.0093H41.5274C43.3672 25.0093 44.8724 26.5145 44.8724 28.3546V41.5883C44.8724 43.4284 43.3672 44.9337 41.5274 44.9337Z" fill="#FF671D"/>
<path fill-rule="evenodd" clip-rule="evenodd" d="M33.4173 27.5512L33.9234 27.7115C34.5944 27.924 35.2283 27.9239 35.8994 27.7115L36.4053 27.5512C37.3138 27.2636 38.2047 27.3607 39.0301 27.8372C39.8553 28.3136 40.3848 29.0368 40.59 29.9674L40.7042 30.4857C40.8558 31.1731 41.1728 31.7222 41.6923 32.1971L42.0841 32.5552C42.7874 33.1982 43.1488 34.0185 43.1488 34.9714C43.1488 35.9244 42.7873 36.7446 42.0841 37.3876L41.6923 37.7458C41.1728 38.2207 40.8558 38.7698 40.7042 39.4572L40.59 39.9756C40.3849 40.9061 39.8553 41.6293 39.0301 42.1057C38.2047 42.5823 37.3138 42.6793 36.4053 42.3917L35.8992 42.2315C35.2282 42.0189 34.5943 42.019 33.9232 42.2315L33.4172 42.3917C32.5087 42.6793 31.6178 42.5823 30.7925 42.1057C29.9673 41.6293 29.4377 40.9062 29.2326 39.9756L29.1183 39.4571C28.9668 38.7698 28.6497 38.2207 28.1303 37.7458L27.7386 37.3876C27.0352 36.7446 26.6737 35.9244 26.6738 34.9715C26.6738 34.0185 27.0353 33.1982 27.7386 32.5553L28.1303 32.1971C28.6498 31.7222 28.9668 31.1731 29.1183 30.4857L29.2326 29.9674C29.4377 29.0368 29.9672 28.3136 30.7925 27.8371C31.6178 27.3607 32.5088 27.2636 33.4173 27.5512Z" fill="#743E2A"/>
<path fill-rule="evenodd" clip-rule="evenodd" d="M29.6681 33.8342C30.3371 33.8342 30.8793 34.3766 30.8793 35.0455C30.8793 35.7145 30.3371 36.2567 29.6681 36.2567C28.9991 36.2567 28.457 35.7145 28.457 35.0455C28.457 34.3766 28.9991 33.8342 29.6681 33.8342Z" fill="#3DAE2B"/>
<path fill-rule="evenodd" clip-rule="evenodd" d="M32.0184 30.3059C31.9836 29.903 32.282 29.5479 32.6848 29.513C33.0877 29.4782 33.4428 29.7765 33.4776 30.1795L33.6723 32.3746C33.7072 32.7776 33.4088 33.1325 33.0059 33.1674C32.603 33.2023 32.2479 32.9039 32.213 32.5009L32.0184 30.3059Z" fill="#FFC629"/>
<path fill-rule="evenodd" clip-rule="evenodd" d="M37.8261 34.9707C37.4914 34.7422 37.4052 34.2856 37.6336 33.9509C37.8621 33.6161 38.3186 33.5299 38.6534 33.7584L40.4731 35.0013C40.8079 35.2298 40.894 35.6863 40.6656 36.0211C40.4371 36.3559 39.9806 36.4421 39.6459 36.2136L37.8261 34.9707Z" fill="#3DAE2B"/>
<path fill-rule="evenodd" clip-rule="evenodd" d="M37.2191 29.4043C37.888 29.4043 38.43 29.9465 38.43 30.6156C38.43 31.2846 37.888 31.8268 37.2191 31.8268C36.5501 31.8268 36.0078 31.2846 36.0078 30.6156C36.0078 29.9465 36.5501 29.4043 37.2191 29.4043Z" fill="white"/>
<path fill-rule="evenodd" clip-rule="evenodd" d="M36.7502 38.5042C37.4192 38.5042 37.9614 39.0465 37.9614 39.7155C37.9614 40.3845 37.4192 40.9268 36.7502 40.9268C36.0812 40.9268 35.5391 40.3845 35.5391 39.7155C35.5391 39.0465 36.0812 38.5042 36.7502 38.5042Z" fill="#FFC629"/>
<path fill-rule="evenodd" clip-rule="evenodd" d="M32.3362 39.1326C32.0381 39.4071 31.5738 39.3877 31.2993 39.0895C31.0248 38.7913 31.0443 38.3269 31.3424 38.0525L33.7602 35.8266C34.0585 35.5522 34.5228 35.5715 34.7972 35.8698C35.0717 36.1679 35.0523 36.6323 34.7541 36.9069L32.3362 39.1326Z" fill="white"/>
</svg>
