<svg width="112" height="45" viewBox="0 0 112 45" fill="none" xmlns="http://www.w3.org/2000/svg">
<path fill-rule="evenodd" clip-rule="evenodd" d="M72.6955 33.5297C72.4608 32.4105 73.4732 31.271 74.4389 31.2143C75.4266 31.1563 75.9352 31.7639 76.591 32.136C77.6894 32.7592 78.4401 33.4425 79.8702 33.9666C82.2164 34.8263 84.3912 34.9676 86.7764 34.1345C87.3231 33.9435 87.6819 33.7563 88.1579 33.4967L89.4586 32.755C90.2799 32.3326 91.2335 31.4192 92.0331 31.251C93.8188 30.8753 95.5119 33.3147 93.3113 35.0177C90.4912 37.2004 87.811 38.6805 83.8046 38.7846C81.9344 38.8332 81.0173 38.6185 79.345 38.1431C79.1183 38.0786 78.8278 37.9775 78.5816 37.881C78.3613 37.7948 78.1075 37.6812 77.8618 37.5855L77.1655 37.2579C75.9289 36.6771 73.0154 35.0557 72.6955 33.5297ZM2.57768 25.2884C2.67344 25.7871 3.11928 25.98 3.67761 25.9791C4.98782 25.977 6.04644 26.2628 6.04334 24.9074C6.04105 23.8811 6.24985 23.0514 5.69208 22.6231C5.43421 22.4251 5.35205 22.4627 4.95473 22.4653C4.47828 22.4685 3.66619 22.4165 3.23296 22.4723C2.71063 22.5394 2.56141 23.0176 2.56278 23.562C2.56379 23.9546 2.51599 24.9668 2.57768 25.2884ZM4.95354 39.9156C5.64958 39.9156 6.04096 39.6469 6.04096 38.96V28.9937C6.04096 28.2893 5.62518 28.0567 4.95354 28.0567C3.62598 28.0567 2.54295 27.8245 2.54295 29.1215V38.8323C2.54295 39.4226 2.53272 39.4733 2.82239 39.6869C3.27946 40.0238 4.23575 39.9156 4.95354 39.9156ZM17.1938 30.7229C17.2447 28.2048 17.3787 28.0566 15.399 28.0567C13.7006 28.0568 12.0022 28.057 10.3036 28.0567C8.15082 28.0564 8.5422 28.5056 8.5422 31.4215C8.5422 32.1605 8.44296 38.9883 8.61612 39.3926C8.86733 39.9794 9.81274 39.9156 10.3036 39.9156C11.1666 39.9155 11.9843 39.9901 12.054 39.0912C12.1164 38.287 12.0561 33.9331 12.0557 32.6353C12.0556 32.4217 12.0478 32.2002 12.0496 31.989C12.0517 31.7441 12.0408 31.6658 12.2766 31.6406C13.3162 31.5295 15.7761 31.8215 16.6386 31.5393C17.0479 31.4054 17.1851 31.1516 17.1938 30.7229ZM93.9953 14.7859C94.585 15.3467 97.1284 19.0098 97.5221 19.1205C97.7768 19.1922 99.695 19.1461 100.114 19.1454C100.564 19.1448 100.836 18.988 100.879 18.5818C100.938 18.025 100.705 17.953 100.486 17.6924L97.8413 14.4026C96.8041 13.0326 96.661 13.418 97.3808 12.5194L99.7156 9.62424C99.9634 9.32204 100.765 8.44469 100.792 8.09282C100.824 7.68796 100.559 7.43435 100.24 7.37752C99.9325 7.3228 97.9905 7.33389 97.6206 7.36478C97.1896 7.40089 97.0361 7.65414 96.8286 7.94387L93.9953 11.5752L92.3863 11.5648C92.2409 10.8594 92.3756 8.94964 92.356 8.09877C92.3405 7.42967 92.0242 7.35204 91.3849 7.35625C89.6695 7.36752 88.8759 7.08732 88.7864 8.17136L88.8036 18.4956C88.9004 19.1391 89.194 19.1652 89.8552 19.1625C91.9024 19.154 92.363 19.4246 92.3544 18.1975C92.3488 17.4035 92.2587 15.4658 92.3835 14.7866L93.9953 14.7859ZM111.129 39.9156C111.541 39.9156 111.849 39.7472 111.873 39.2817C111.899 38.7863 111.641 38.6552 111.446 38.3868L108.573 34.8175C107.74 33.7634 107.781 34.0173 108.404 33.288L111.272 29.7105C111.822 29.0756 112.273 28.1746 111.039 28.1157C110.153 28.0734 108.455 28.0408 108.224 28.1985L105.461 31.736C105.021 32.3175 105.095 32.3347 104.695 32.3347C103.134 32.3347 103.409 32.5791 103.41 31.1021C103.41 29.1294 103.732 28.0567 102.467 28.0567C101.511 28.0567 100.491 27.8983 100.069 28.3166L99.8824 28.5766C99.7679 28.8886 99.8366 37.9582 99.8366 39.0879C99.8366 39.7422 100.176 39.9355 100.81 39.9355C103.402 39.9355 103.41 40.1476 103.41 38.1934C103.41 37.5618 103.282 36.0595 103.491 35.591C105.226 35.591 104.944 35.4351 105.454 36.0956L107.57 38.8232C108.192 39.5489 108.208 39.9156 108.899 39.9156L111.129 39.9156ZM83.1376 13.5332C83.0194 14.1166 83.1125 14.1679 82.8309 14.6653C82.2251 15.7356 81.366 16.1826 79.9812 16.1136C78.0823 16.0191 76.917 13.6419 77.8696 11.8523C78.6343 10.4158 80.8865 9.61581 82.5104 11.3845C82.9387 11.851 83.2887 12.7875 83.1376 13.5332ZM74.0242 14.0443C74.1779 14.8711 74.4444 15.6808 74.842 16.3267C75.24 16.9731 75.7995 17.6066 76.2644 17.9637C76.961 18.4988 77.5169 18.7679 78.3363 19.0352C79.2561 19.3353 79.9946 19.3551 81.1298 19.301C82.7709 19.2229 84.3838 18.2186 85.2378 17.208C86.1466 16.1324 86.9544 14.4842 86.667 12.4548C86.182 9.02921 83.1656 6.95343 79.5365 7.22326C78.7877 7.2789 77.7833 7.69686 77.1831 7.98366C76.5288 8.2963 75.8659 8.91894 75.4922 9.34808C74.458 10.5357 73.7345 12.4865 74.0242 14.0443ZM68.9162 19.0508C69.3952 19.2818 70.5075 19.1634 71.2593 19.1639C72.4038 19.1648 72.1102 18.3803 72.1102 17.047L72.1127 8.29282C72.1142 7.91244 71.9931 7.37496 71.5688 7.33957C71.2079 7.30942 70.8129 7.3152 70.4376 7.32097C70.062 7.32684 69.6205 7.2909 69.2643 7.32042C68.9753 7.34434 68.7373 7.44223 68.5748 7.76936C68.3214 8.27962 68.5586 10.6185 68.4648 11.4327L63.7345 11.4384C63.6639 10.8221 63.7131 9.95312 63.7131 9.31674C63.7131 8.50043 63.8749 7.79301 63.3524 7.4767C62.7282 7.29292 61.861 7.36835 61.1297 7.36341C60.0082 7.35589 60.0882 7.71574 60.0889 8.74177L60.0872 18.1977C60.08 19.303 60.5585 19.1619 61.5123 19.1617C62.2508 19.1615 62.7557 19.2366 63.0972 19.1413C63.7025 18.9723 63.7014 18.4545 63.6989 17.9415L63.7091 14.9654C64.0028 14.875 68.189 14.8743 68.489 14.9639L68.5004 17.9416C68.498 18.3444 68.4888 18.8448 68.9162 19.0508ZM21.2588 15.9488C21.0032 15.8296 21.1712 15.9623 21.0447 15.7202L19.0003 10.1061C17.9439 7.10162 18.2403 7.38695 16.4181 7.36185C15.5379 7.34975 14.4558 7.13683 14.344 7.99557C14.306 8.28805 16.4307 13.0409 16.6871 13.5803L18.1228 16.8624C18.201 17.0364 18.2264 17.1622 18.3063 17.3263C18.4631 17.6483 18.5645 17.9261 18.7131 18.2595C19.0856 19.0953 19.3691 19.1397 18.6618 19.9365C17.9876 20.6963 17.4547 20.5572 16.7043 20.6507C15.5363 20.7963 15.7071 21.1377 15.7072 22.2857C15.7073 22.9537 15.4975 24.0233 16.404 24.2663C16.7728 24.3651 17.1651 24.2626 17.5667 24.2352C18.7009 24.1579 20.2429 23.2854 21.077 22.4217C22.0593 21.4043 22.5111 20.5461 23.1713 19.2229L24.0711 17.4529C24.6654 16.1344 26.0454 13.1943 26.5328 11.9288L27.3258 10.0367C27.4212 9.86888 27.4718 9.67338 27.5247 9.5412C27.59 9.37759 27.635 9.2511 27.6965 9.07594C28.3349 7.25534 27.7303 7.27128 25.9083 7.34681C24.7558 7.39448 24.4967 7.15103 24.112 8.16587C23.3481 10.1811 22.7526 12.0864 22.0105 14.0216C21.9959 14.0595 21.3554 16.017 21.2967 15.9063C21.2907 15.8952 21.273 15.9364 21.2588 15.9488ZM40.1116 36.8802C37.4449 36.8802 36.4937 33.5471 38.1599 31.8917C38.8997 31.1569 40.2084 30.7704 41.4302 31.3769C44.1914 32.7478 43.1674 36.8802 40.1116 36.8802ZM43.0319 29.4414C42.7415 29.3536 42.5796 28.8945 41.882 28.5025C40.264 27.5933 38.2831 27.7155 36.7329 28.4853C35.8805 28.9086 35.0413 29.7918 34.6221 30.5824C34.306 31.1784 33.9462 32.2562 33.8442 32.9493C33.4808 35.4181 34.4771 38.4069 36.709 39.4375C37.6659 39.8793 38.9241 40.2463 40.2294 39.9787C42.3749 39.539 42.603 38.7144 43.0365 38.6341C43.0874 39.7882 43.2178 39.8977 44.4426 39.8958C47.1033 39.8915 46.5407 40.2243 46.5407 34.0408C46.5407 33.254 46.5932 29.0859 46.5193 28.6794C46.4468 28.2797 46.1099 28.1468 45.7258 28.1298C45.2921 28.1105 44.8176 28.1296 44.3791 28.1285C43.0092 28.125 43.0974 28.3494 43.0319 29.4414ZM47.8184 19.1922C48.4169 19.1922 48.5116 18.8833 48.8136 18.5561L53.6118 12.8845C53.7401 12.7222 53.8535 12.6661 53.9989 12.5353C53.9275 13.4301 53.8598 15.241 53.9071 16.0265L53.9793 17.8775C53.9793 17.9688 53.6652 19.1617 54.6953 19.1617C56.5628 19.1617 57.4995 19.4438 57.4995 18.3247V8.16679C57.4995 7.84424 57.4327 7.65771 57.2774 7.49521C57.2696 7.48705 57.2574 7.47211 57.2492 7.46478C57.0094 7.24883 54.8978 7.35717 54.3787 7.35717C53.8739 7.35717 53.8747 7.44021 53.4815 7.8447L51.2415 10.517C50.8125 11 50.2251 11.678 49.7747 12.2353C49.5087 12.5645 48.6475 13.7595 48.2258 13.8877L48.2509 8.16679C48.2509 7.57431 48.0384 7.35717 47.4363 7.35717L45.0464 7.38448C44.8524 7.43691 45.0308 7.33819 44.8927 7.46487C44.6801 7.66001 44.9034 7.42069 44.8161 7.56963C44.683 7.79704 44.6507 7.98796 44.6507 8.29456V18.3247C44.6507 18.8333 44.9342 19.1922 45.4598 19.1922L47.8184 19.1922C47.8184 19.1922 47.8184 19.1922 47.8184 19.1922ZM22.662 34.6158C22.3391 32.729 23.4787 31.4797 24.8668 31.1462C25.7526 30.9333 26.5571 31.1912 27.1187 31.6099C28.3573 32.533 28.6864 34.441 27.7852 35.6668C26.1761 37.8551 23.029 36.7602 22.662 34.6158ZM22.5678 38.6062C22.9577 38.632 23.4458 39.6582 25.3611 39.9668C26.618 40.1694 27.9891 39.965 28.911 39.4704C29.2503 39.2882 29.8785 38.8154 30.1131 38.5787C32.1309 36.5434 32.2939 32.5981 30.9566 30.5133C30.6734 30.0719 30.1665 29.3804 29.7456 29.0482C28.5217 28.0826 26.8905 27.6089 25.2022 27.9644C23.1958 28.3869 22.9586 29.4008 22.5617 29.418C22.5504 28.724 22.5499 28.2561 21.9134 28.0942C21.6326 28.0227 20.3284 28.0317 19.9882 28.0587C19.3962 28.1059 19.0835 28.4644 19.0783 29.1183L19.0814 42.921C19.0814 44.9902 18.9345 44.9253 21.004 44.9257C21.6158 44.9257 22.3618 45.0329 22.5261 44.4451C22.6096 44.1462 22.5235 39.4386 22.5678 38.6062ZM33.6579 10.6914C34.3637 10.6099 36.3719 10.6244 37.1084 10.6604L37.114 15.9491C36.2767 16.0088 33.732 15.9643 32.7234 15.9639C32.3496 15.9639 32.3816 15.8649 32.5468 15.593C32.6655 15.3977 32.732 15.3056 32.8463 15.0655C33.4422 13.8139 33.5526 12.0483 33.6579 10.6914ZM28.8493 15.9639C27.9935 15.9639 27.9006 15.86 27.4483 16.1523C27.3791 17.4978 27.4343 20.1642 27.4347 21.6468C27.435 22.8502 28.459 22.5849 30.0463 22.5849C31.7626 22.5849 30.6456 20.1772 31.0829 19.2191C31.2652 19.1441 38.7715 19.1448 38.9526 19.2191C39.1223 19.5617 39.0262 20.8322 39.024 21.3275C39.0174 22.8393 39.5291 22.5849 41.6403 22.5849C42.2873 22.5849 42.6207 22.3154 42.6207 21.6468L42.6107 16.1525C41.8791 15.7332 41.4534 16.1261 40.7317 15.9214C40.6331 14.2826 40.7234 10.9433 40.7235 8.9973C40.7236 8.1689 40.8542 7.38944 39.9205 7.38944H31.3221C30.2443 7.38944 30.439 8.30749 30.4402 9.25285C30.4412 10.0195 30.3942 11.1264 30.3016 11.8796C30.1425 13.1732 29.4374 15.1687 28.8493 15.9639ZM67.1583 39.4076C67.2493 38.5672 67.184 33.1856 67.184 31.8687C67.184 28.1719 67.5491 28.058 65.2701 28.0567C64.9649 28.0565 64.6404 28.0296 64.3447 28.0864C63.3559 28.2764 63.5887 29.5296 63.5887 30.2715V36.3701C63.2605 36.474 60.5631 36.4477 60.0957 36.4022V29.6965C60.0961 28.9928 60.1566 28.3135 59.4608 28.1117C59.0818 28.1107 58.3924 28.0587 57.8815 28.0564C57.1746 28.0532 57.0344 28.0767 56.67 28.4361C56.4057 28.6832 56.4667 28.8078 56.4695 29.313L56.47 36.3914C56.0777 36.4613 53.2129 36.465 52.8609 36.3817V29.952C52.8609 29.576 52.9012 29.168 52.8475 28.8374C52.7831 28.4408 52.5147 28.1852 52.1327 28.0925C51.7907 28.0097 51.3093 28.0569 50.9394 28.0567C50.4836 28.0564 50.1202 28.0219 49.8218 28.1591C49.5223 28.2969 49.3213 28.44 49.2626 28.789C49.2035 29.1406 49.2469 29.614 49.2469 29.8881C49.247 31.2297 49.1853 39.0414 49.2625 39.3882C49.3083 39.5941 49.5126 39.7913 49.7149 39.8715C50.091 40.0206 63.4779 39.9235 65.7797 39.9258C66.5251 39.9266 66.9233 40.0137 67.1583 39.4076ZM4.49042 12.8305C4.49042 11.3032 5.72359 9.97521 7.24643 9.97521C8.87444 9.97521 10.113 11.3085 10.113 12.8305C10.113 14.6657 8.91429 15.9398 7.31012 15.9433C5.7627 15.9466 4.49042 14.6292 4.49042 12.8305ZM2.48382 3.61614C3.14184 4.32741 5.344 6.12685 6.27643 6.90613C6.46852 7.06662 6.68801 7.16882 6.71405 7.37669C5.6333 7.31959 4.79791 7.50135 3.99222 7.83976C3.63236 7.9909 3.33036 8.1876 2.9992 8.43947C2.78857 8.59969 2.77952 8.65019 2.5423 8.81069C2.37609 8.92306 2.28424 9.05056 2.16819 9.20528C1.6031 9.95871 1.39713 10.3199 1.08763 11.2995C0.715351 12.4778 0.853886 14.2816 1.33216 15.4477C1.7175 16.3873 2.54002 17.537 3.40063 18.1551C6.2906 20.2305 10.3546 19.6693 12.3592 16.9391C13.7645 15.025 14.0663 12.9965 13.4278 10.6398C13.3235 10.2549 13.1065 9.84011 12.952 9.53983C12.1149 7.91317 10.7119 6.43408 9.27314 5.23996C9.04944 5.05426 8.58943 4.7275 8.50738 4.45509C9.20789 4.44299 9.78093 4.52044 10.4948 4.5242C13.7591 4.54116 13.9858 4.91952 13.8706 1.83696C13.8455 1.16446 13.3685 0.956038 12.7256 0.957778C11.1716 0.961807 3.34206 0.859976 2.74938 1.04458C2.07005 1.25612 1.41395 2.4596 2.48382 3.61614ZM69.3541 33.8492C69.3769 34.0198 69.4513 34.1172 69.5034 34.425C69.5407 34.6447 69.6183 34.8098 69.6792 34.9704C69.7419 35.1356 69.7975 35.3905 69.878 35.554C70.8092 37.4488 72.9447 38.9775 74.84 39.9673C76.4754 40.8214 77.172 41.0471 79.0081 41.6097C80.2178 41.9803 82.6732 42.3334 84.0735 42.1819C84.5239 42.1331 85.0142 42.1789 85.4541 42.0967C85.7079 42.0494 85.7341 42.0074 86.0943 41.9884C86.9407 41.9439 88.2384 41.5581 89.0167 41.318C91.9016 40.4285 96.1105 38.1141 97.3065 35.1978C99.069 30.9002 95.0431 26.842 91.1435 27.9311C90.2364 28.1846 89.4267 28.6554 88.69 29.167L86.501 30.5483C85.2269 31.1813 84.3014 31.2529 82.8479 31.2029C79.6619 31.0932 77.8102 27.7851 74.7629 27.7473C71.5697 27.7076 68.896 30.4249 69.3541 33.8492C69.3541 33.8492 69.3541 33.8492 69.3541 33.8492Z" fill="#EC008C"/>
</svg>
