<svg width="165" height="45" viewBox="0 0 165 45" fill="none" xmlns="http://www.w3.org/2000/svg">
<g clip-path="url(#clip0_6415_8435)">
<path d="M164.125 0.93335H0.125V44.9334H164.125V0.93335Z" fill="#014171"/>
<path d="M144.308 29.5898C144.308 29.8154 144.08 30.718 143.169 30.718H134.286C133.375 30.718 133.147 29.8154 133.147 29.5898V16.0513C133.147 15.8257 133.375 15.1487 134.286 15.1487H143.169C144.08 15.1487 144.308 15.8257 144.308 16.0513V29.5898ZM147.269 9.95898H129.958C127.452 10.1846 125.175 11.5385 124.947 14.4718V31.1692C125.175 34.1026 127.452 35.6821 129.958 35.9077H147.269C149.775 35.6821 152.052 34.1026 152.28 31.1692V14.4718C152.052 11.5385 150.002 10.1846 147.269 9.95898ZM77.569 15.1487H69.8245V9.95898H93.5134V14.9231H85.769V35.4564H77.569V15.1487ZM67.5468 15.1487V9.95898H46.3634V35.6821H67.7745V30.718H54.5634V25.3026H67.5467V20.1128H54.5634V15.1487H67.5468ZM114.469 18.9846C114.469 19.4359 114.241 20.1128 113.33 20.1128H103.991V15.1487H113.33C114.469 15.1487 114.469 15.8257 114.469 16.2769V18.9846ZM116.747 25.7539C119.252 25.5282 121.758 23.9487 121.758 21.0154V14.6974C121.53 11.7641 119.252 10.1846 116.747 9.95898H95.7912V35.6821H103.991V25.7539H107.18L112.419 35.6821H121.758L115.608 25.7539H116.747ZM29.7356 35.6821L35.2023 19.4359V35.6821H43.4023V9.95898H32.469L27.2301 22.8205L21.7634 9.95898H10.8301V35.6821H19.0301V19.6615L24.4967 35.9077H29.7356" fill="#FBC51D"/>
</g>
<defs>
<clipPath id="clip0_6415_8435">
<rect width="164" height="44" fill="white" transform="translate(0.125 0.93335)"/>
</clipPath>
</defs>
</svg>
