<svg width="215" height="38" viewBox="0 0 215 38" fill="none" xmlns="http://www.w3.org/2000/svg">
<g clip-path="url(#clip0_6415_8558)">
<path d="M58.4025 12.838H59.8649C61.5712 12.838 62.5806 12.0292 62.5806 10.7824C62.5806 9.93997 62.0585 9.3671 61.3621 9.13124C61.8845 8.86165 62.2326 8.38988 62.2326 7.71593C62.2326 6.63761 61.3273 5.76147 59.7604 5.76147H56.6615V10.8835C56.6268 12.2988 57.2534 12.838 58.4025 12.838ZM58.0892 6.94088H59.5516C60.4221 6.94088 60.7702 7.24415 60.7702 7.74961C60.7702 8.2551 60.4221 8.59206 59.5516 8.59206H58.0892V6.94088ZM58.0892 9.80519H59.5169C60.4916 9.80519 61.0835 10.0411 61.0835 10.715C61.0835 11.389 60.6309 11.6586 59.6909 11.6586H58.7158C58.2632 11.6586 58.0892 11.4901 58.0892 10.715V9.80519Z" fill="#F37429"/>
<path d="M72.5742 12.7018L75.9863 7.98411V12.4996C75.9863 12.7355 76.1256 12.8366 76.4389 12.8366H77.4834V6.09702C77.1701 5.82743 76.7175 5.65894 76.4736 5.65894C76.2649 5.65894 76.1256 5.72634 76.021 5.86116L72.6089 10.5788V5.99593C72.6089 5.76003 72.4696 5.65894 72.1563 5.65894C71.843 5.65894 71.4598 5.69266 71.1465 5.79375V12.4659C71.4598 12.7355 71.9124 12.904 72.1563 12.904C72.3303 12.904 72.4696 12.8366 72.5742 12.7018Z" fill="#F37429"/>
<path d="M86.1542 14.388H87.1987V12.838H91.5161V14.0511C91.5161 14.287 91.6554 14.388 91.9687 14.388H93.0132V11.9618C93.0132 11.726 92.8743 11.6249 92.5606 11.6249H92.108V6.09843C92.108 5.86257 92.0038 5.76147 91.6554 5.76147H87.5472C87.4079 7.88442 87.0942 9.87256 86.4675 11.6249H85.7363V14.0511C85.7363 14.287 85.8409 14.388 86.1542 14.388ZM88.8352 6.94088H90.6109V11.6249H87.9299C88.4173 10.1421 88.6959 8.42356 88.8352 6.94088Z" fill="#F37429"/>
<path d="M107.638 11.7594C107.325 11.7594 107.116 11.591 107.116 11.0518V8.4234C107.116 6.53632 105.932 5.59277 103.983 5.59277C102.555 5.59277 101.545 6.16564 101.545 6.57004C101.545 6.77222 101.65 7.07549 101.754 7.17659C102.311 6.907 102.938 6.77222 103.599 6.77222C104.992 6.77222 105.654 7.31136 105.654 8.32231V8.76036C105.236 8.55817 104.505 8.38968 103.878 8.38968C102.102 8.38968 100.953 9.23213 100.953 10.7148C100.953 12.029 101.963 12.9052 103.425 12.9052C104.435 12.9052 105.27 12.4334 105.724 11.6921C105.898 12.5008 106.489 12.8378 107.011 12.8378C107.638 12.8378 108.021 12.4671 108.021 12.1975C108.021 12.029 107.987 11.8605 107.952 11.6921H107.638V11.7594ZM105.654 10.6811C105.306 11.3551 104.505 11.7932 103.773 11.7932C103.007 11.7932 102.416 11.4562 102.416 10.7485C102.416 10.0746 103.007 9.7039 104.087 9.7039C104.54 9.7039 105.306 9.77131 105.654 9.8724V10.6811Z" fill="#F37429"/>
<path d="M120.972 9.13051C121.494 8.86092 121.842 8.38915 121.842 7.71519C121.842 6.63688 120.937 5.76074 119.37 5.76074H116.271V10.8828C116.271 12.2981 116.933 12.8372 118.047 12.8372H119.51C121.215 12.8372 122.225 12.0285 122.225 10.7817C122.191 9.90555 121.668 9.36637 120.972 9.13051ZM117.734 6.94015H119.196C120.066 6.94015 120.415 7.24342 120.415 7.74888C120.415 8.25437 120.066 8.59133 119.196 8.59133H117.734V6.94015ZM119.335 11.6241H118.361C117.908 11.6241 117.734 11.4556 117.734 10.6806V9.80446H119.161C120.136 9.80446 120.728 10.0403 120.728 10.7143C120.693 11.3545 120.276 11.6241 119.335 11.6241Z" fill="#F37429"/>
<path d="M136.466 5.76146H135.421V8.59208H132.183V6.03105C132.183 5.79518 132.044 5.69409 131.731 5.69409C131.417 5.69409 131.034 5.72777 130.721 5.82887V12.501C130.721 12.7369 130.86 12.838 131.173 12.838H132.218V9.77149H135.456V12.501C135.456 12.7369 135.561 12.838 135.909 12.838H136.953V6.09845C136.918 5.86259 136.779 5.76146 136.466 5.76146Z" fill="#F37429"/>
<path d="M150.812 5.89557L147.4 10.6132V5.99667C147.4 5.76076 147.261 5.65967 146.947 5.65967C146.634 5.65967 146.251 5.69339 145.938 5.79448V12.4666C146.251 12.7362 146.703 12.9047 146.947 12.9047C147.156 12.9047 147.295 12.8373 147.4 12.7025L150.812 7.98484V12.5003C150.812 12.7362 150.951 12.8373 151.265 12.8373H152.309V6.09776C151.996 5.82817 151.543 5.65967 151.299 5.65967C151.091 5.65967 150.951 5.72708 150.812 5.89557Z" fill="#F37429"/>
<path d="M163.066 12.8373H166.966V14.0504C166.966 14.2863 167.105 14.3874 167.419 14.3874H168.463V11.9612C168.463 11.7252 168.324 11.6242 168.011 11.6242H167.523V6.09776C167.523 5.86189 167.384 5.7608 167.07 5.7608H166.026V11.6242H163.345C162.892 11.6242 162.718 11.4557 162.718 10.6807V5.99667C162.718 5.76076 162.579 5.65967 162.266 5.65967C161.952 5.65967 161.569 5.69339 161.256 5.79448V10.8828C161.291 12.2981 161.952 12.8373 163.066 12.8373Z" fill="#F37429"/>
<path d="M178.455 12.501C178.455 12.7369 178.56 12.838 178.908 12.838H179.952V6.94087H182.389V6.16583C182.389 5.86256 182.285 5.72778 182.041 5.72778H176.122C176.053 5.96365 176.018 6.26692 176.018 6.50283C176.018 6.8061 176.122 6.94087 176.366 6.94087H178.455V12.501Z" fill="#F37429"/>
<path d="M192.486 12.838H193.948C195.655 12.838 196.665 12.0292 196.665 10.7824C196.665 9.93997 196.142 9.3671 195.446 9.13124C195.968 8.86165 196.316 8.38988 196.316 7.71593C196.316 6.63761 195.411 5.76147 193.844 5.76147H190.746V10.8835C190.711 12.2988 191.337 12.838 192.486 12.838ZM192.173 6.94088H193.635C194.506 6.94088 194.854 7.24415 194.854 7.74961C194.854 8.2551 194.506 8.59206 193.635 8.59206H192.173V6.94088ZM192.173 9.80519H193.6C194.576 9.80519 195.167 10.0411 195.167 10.715C195.167 11.389 194.715 11.6586 193.774 11.6586H192.8C192.347 11.6586 192.173 11.4901 192.173 10.715V9.80519Z" fill="#F37429"/>
<path d="M208.365 12.9721C210.315 12.9721 211.986 11.6579 211.986 9.29906C211.986 6.9402 210.315 5.62598 208.365 5.62598C206.415 5.62598 204.744 6.9402 204.744 9.29906C204.779 11.6579 206.415 12.9721 208.365 12.9721ZM208.33 6.83911C209.444 6.83911 210.489 7.71524 210.489 9.40015C210.489 11.0513 209.549 11.7926 208.434 11.7926C207.32 11.7926 206.276 10.9165 206.276 9.23165C206.276 7.54674 207.216 6.83911 208.33 6.83911Z" fill="#F37429"/>
<path d="M61.7809 20.5203C58.6821 20.5203 56.3145 22.6095 56.3145 25.9456C56.3145 29.5512 58.926 31.9438 62.4075 31.9438C64.3577 31.9438 66.0288 31.0339 66.0288 30.3937C66.0288 30.023 65.8197 29.5176 65.6109 29.2142C64.9144 29.5849 63.9051 29.7871 62.9647 29.7871C60.5971 29.7871 59.0305 28.237 59.0305 25.8782C59.0305 23.7889 60.1792 22.6432 61.6763 22.6432C62.7907 22.6432 63.6265 23.2498 64.0791 24.4292C64.7057 24.3955 65.4369 24.1933 65.9242 23.9238C66.2375 23.7215 66.4116 23.5193 66.4116 23.2498C66.4116 23.0476 66.3768 22.9128 66.2727 22.7106C65.5415 21.4301 63.9398 20.5203 61.7809 20.5203Z" fill="#F37429"/>
<path d="M79.0854 20.7229H70.5549C70.4503 21.1946 70.3809 21.8012 70.3809 22.2393C70.3809 22.6774 70.5896 22.8459 70.9029 22.8459H73.5843V31.3039C73.5843 31.6072 73.7583 31.742 74.1762 31.742H76.2999V22.8459H79.538V21.262C79.5728 20.8914 79.3987 20.7229 79.0854 20.7229Z" fill="#F37429"/>
<path d="M88.2435 20.5879C87.5822 20.5879 86.851 20.7564 86.2938 20.9923L82.4637 31.2026C82.3596 31.5396 82.603 31.7418 82.9515 31.7418H85.1451L85.8412 29.6525H89.7411L90.2978 31.3375C90.4024 31.607 90.5764 31.7418 91.029 31.7418H93.3272L89.4273 21.3293C89.1839 20.7564 88.94 20.5879 88.2435 20.5879ZM86.4682 27.6307L87.7562 23.7218L89.0446 27.6307H86.4682Z" fill="#F37429"/>
<path d="M101.615 20.7229H97.5762V31.3039C97.5762 31.6072 97.7502 31.7757 98.1681 31.7757H100.292V28.6755C100.779 28.8103 101.406 28.8777 101.859 28.8777C104.4 28.8777 106.281 27.3613 106.281 24.8677C106.315 22.273 104.54 20.7229 101.615 20.7229ZM101.476 26.7211C101.058 26.7211 100.675 26.6873 100.327 26.62V22.8459H101.51C102.799 22.8459 103.565 23.4861 103.565 24.8003C103.565 26.0808 102.729 26.7211 101.476 26.7211Z" fill="#F37429"/>
<path d="M116.236 20.5205C113.103 20.5205 110.596 22.576 110.596 26.2491C110.596 29.9222 113.103 31.9777 116.236 31.9777C119.37 31.9777 121.877 29.9222 121.877 26.2491C121.877 22.576 119.335 20.5205 116.236 20.5205ZM116.306 29.8211C114.669 29.8211 113.311 28.4058 113.311 26.1143C113.311 23.7218 114.634 22.6772 116.132 22.6772C117.768 22.6772 119.126 24.0925 119.126 26.3839C119.126 28.7428 117.803 29.8211 116.306 29.8211Z" fill="#F37429"/>
<path d="M133.68 20.7229H126.752V31.3376C126.752 31.6409 126.926 31.7757 127.344 31.7757H129.468V22.8459H134.133V21.262C134.168 20.8914 133.994 20.7229 133.68 20.7229Z" fill="#F37429"/>
<path d="M143.603 20.5203C140.47 20.5203 137.963 22.5758 137.963 26.2489C137.963 29.9219 140.47 31.9775 143.603 31.9775C146.737 31.9775 149.244 29.9219 149.244 26.2489C149.244 22.5758 146.737 20.5203 143.603 20.5203ZM143.708 29.8208C142.072 29.8208 140.713 28.4055 140.713 26.1141C140.713 23.7215 142.036 22.6769 143.534 22.6769C145.17 22.6769 146.528 24.0922 146.528 26.3837C146.528 28.7425 145.205 29.8208 143.708 29.8208Z" fill="#F37429"/>
<path d="M171.702 20.7229H164.182C164.182 23.3513 164.042 25.7101 163.729 27.6983C163.45 29.4169 163.033 29.8212 162.301 29.8212C161.883 29.8212 161.466 29.7538 161.118 29.5854C160.909 29.8887 160.77 30.3267 160.77 30.7648C160.77 31.3376 161.953 31.9442 163.102 31.9442C164.913 31.9442 166.027 30.7985 166.445 28.0016C166.689 26.3167 166.828 24.3622 166.897 22.8459H169.578V31.3039C169.578 31.6072 169.752 31.742 170.17 31.742H172.294V21.1609C172.259 20.8577 172.085 20.7229 171.702 20.7229Z" fill="#F37429"/>
<path d="M184.687 29.6186H181.414C180.649 29.6186 180.335 29.2142 180.335 28.0348V27.3271H184.165V25.777C184.165 25.3727 183.991 25.2042 183.677 25.2042H180.335V22.879H184.861C184.966 22.4073 185.035 21.8344 185.035 21.329C185.035 20.9246 184.861 20.7224 184.513 20.7224H177.654V28.0685C177.654 30.8654 178.629 31.7752 181.171 31.7752H185.21V30.2251C185.175 29.8208 185.001 29.6186 184.687 29.6186Z" fill="#F37429"/>
<path d="M197.016 26.0469C197.921 25.6762 198.548 24.7664 198.548 23.688C198.548 21.9358 197.12 20.689 194.404 20.689H190.018V28.2035C190.018 30.7308 191.027 31.7418 193.395 31.7418H194.683C197.503 31.7418 198.931 30.4613 198.931 28.6079C198.931 27.3274 198.13 26.4175 197.016 26.0469ZM192.768 22.7445H194.335C195.345 22.7445 195.797 23.25 195.797 23.9913C195.797 24.699 195.345 25.2381 194.335 25.2381H192.768V22.7445ZM194.648 29.7199H193.952C193.116 29.7199 192.768 29.3155 192.768 28.1361V27.1589H194.544C195.623 27.1589 196.181 27.6307 196.181 28.4057C196.181 29.2481 195.693 29.7199 194.648 29.7199Z" fill="#F37429"/>
<path d="M209.828 21.3293C209.619 20.7564 209.376 20.5879 208.679 20.5879C208.018 20.5879 207.287 20.7564 206.729 20.9923L202.899 31.2026C202.795 31.5396 203.039 31.7418 203.387 31.7418H205.58L206.277 29.6525H210.141L210.699 31.3375C210.803 31.607 210.977 31.7418 211.43 31.7418H213.728L209.828 21.3293ZM206.903 27.6307L208.192 23.7218L209.48 27.6307H206.903Z" fill="#F37429"/>
<path d="M31.8379 14.4885C30.8282 14.4885 30.0273 15.2636 30.0273 16.2408C30.0273 17.218 30.8282 17.9931 31.8379 17.9931C32.8476 17.9931 33.6484 17.218 33.6484 16.2408C33.6484 15.2636 32.8128 14.4885 31.8379 14.4885Z" fill="#F37429"/>
<path d="M38.9395 23.0815L41.6204 25.6425L44.3012 23.0815H38.9395Z" fill="#F37429"/>
<path d="M37.2191 24.74L33.1328 28.6959L33.4775 29.0295L37.5638 25.0735L37.2191 24.74Z" fill="#F37429"/>
<path d="M34.9023 28.6414L35.2505 28.9784L38.4189 25.9119L38.0708 25.575L34.9023 28.6414Z" fill="#F37429"/>
<path d="M20.9402 18.5322C23.4819 16.1396 30.9677 8.82724 30.9677 8.82724L38.0706 15.7016C36.5386 6.97388 28.7046 0.301758 19.2341 0.301758C8.68433 0.301758 0.119141 8.59137 0.119141 18.8018C0.119141 29.0121 8.68433 37.3018 19.2341 37.3018C23.8649 37.3018 28.3216 35.4821 31.6293 32.82L17.8762 19.442C17.8762 19.442 18.8511 20.4529 20.9402 18.5322ZM17.8066 18.1278V8.86096L23.5515 14.3874C23.5515 14.3874 23.0989 14.8591 20.1742 17.6897C18.6422 19.1724 17.8066 18.1278 17.8066 18.1278Z" fill="#F37429"/>
</g>
<defs>
<clipPath id="clip0_6415_8558">
<rect width="214" height="37" fill="white" transform="translate(0.119141 0.301758)"/>
</clipPath>
</defs>
</svg>
