<svg width="125" height="40" viewBox="0 0 125 40" fill="none" xmlns="http://www.w3.org/2000/svg">
<path d="M9.14365 0.905029C11.6921 0.905029 13.5731 1.52562 14.908 2.70475C16.2429 3.88387 16.9104 5.55947 16.9104 7.73155C16.9104 9.22097 16.5463 10.5242 15.8788 11.5792C15.2114 12.6342 14.1799 13.441 12.9056 13.9375L17.0924 21.6328C17.1531 21.7569 17.2137 21.8811 17.2137 21.9431C17.2137 22.1293 17.1531 22.3155 17.0317 22.4396C16.8497 22.5637 16.6676 22.6258 16.4856 22.6258H13.8765C13.4517 22.6258 13.1484 22.5016 12.9663 22.3155C12.7843 22.1293 12.6629 21.9431 12.5416 21.7569L8.59756 14.5581H4.59285V21.7569C4.59285 22.0052 4.53218 22.1913 4.35015 22.3775C4.16811 22.5637 3.98608 22.6258 3.74337 22.6258H1.31628C1.07357 22.6258 0.891538 22.5637 0.709506 22.3775C0.527474 22.1913 0.466797 22.0052 0.466797 21.7569V1.77386C0.466797 1.52562 0.527474 1.33944 0.709506 1.15327C0.891538 1.02915 1.07357 0.905029 1.31628 0.905029H9.14365ZM4.59285 10.7104H9.0223C10.1752 10.7104 11.0853 10.5242 11.7528 10.0898C12.4202 9.65538 12.7843 8.91067 12.7843 7.73155C12.7843 6.55242 12.4202 5.80771 11.7528 5.37329C11.0853 5.00094 10.1145 4.7527 9.0223 4.7527H4.59285V10.7104Z" fill="black"/>
<path d="M34.9309 18.7781C35.1736 18.7781 35.3557 18.8401 35.5377 19.0263C35.7197 19.2125 35.7804 19.3987 35.7804 19.6469V21.819C35.7804 22.0672 35.7197 22.2534 35.5377 22.4396C35.3557 22.6258 35.1736 22.6878 34.9309 22.6878H21.5819C21.3392 22.6878 21.1572 22.6258 20.9751 22.4396C20.7931 22.2534 20.7324 22.0672 20.7324 21.819V1.77386C20.7324 1.52562 20.7931 1.33944 20.9751 1.15327C21.1572 0.967089 21.3392 0.905029 21.5819 0.905029H34.6275C34.8702 0.905029 35.0523 0.967089 35.2343 1.15327C35.4163 1.33944 35.477 1.52562 35.477 1.77386V3.94593C35.477 4.19417 35.4163 4.38035 35.2343 4.56652C35.0523 4.7527 34.8702 4.81476 34.6275 4.81476H24.9192V9.7795H34.0208C34.2635 9.7795 34.4455 9.84156 34.6275 10.0277C34.8096 10.2139 34.8702 10.4001 34.8702 10.5863V12.8204C34.8702 13.0686 34.8096 13.2548 34.6275 13.3789C34.4455 13.5651 34.2635 13.6272 34.0208 13.6272H24.9192V18.7781H34.9309Z" fill="black"/>
<path d="M42.5156 17.9095C42.7583 17.9095 42.9404 17.9715 43.0617 18.1577C43.2438 18.3439 43.3044 18.5301 43.3044 18.7783V21.8192C43.3044 22.0674 43.2438 22.2536 43.0617 22.4398C42.9404 22.5639 42.7583 22.626 42.5156 22.626H39.7245C39.4818 22.626 39.2997 22.5639 39.1177 22.3777C38.9357 22.1916 38.875 22.0054 38.875 21.7571V18.7162C38.875 18.468 38.9357 18.2818 39.1177 18.0957C39.2997 17.9095 39.4818 17.8474 39.7245 17.8474H42.5156V17.9095Z" fill="black"/>
<path d="M60.0512 15.7372C60.1119 15.4889 60.1726 15.2407 60.3546 15.1166C60.5366 14.9925 60.7187 14.9304 60.9007 14.9304H63.3278C63.5705 14.9304 63.7525 14.9925 63.9346 15.1786C64.1166 15.3648 64.1773 15.551 64.1773 15.7992C64.1166 16.6681 63.9346 17.4748 63.5705 18.3437C63.2064 19.2125 62.6604 19.9572 61.9322 20.6399C61.2041 21.3225 60.2939 21.881 59.2017 22.3155C58.1096 22.7499 56.7747 22.9361 55.197 22.9361C53.8015 22.9361 52.5879 22.7499 51.4957 22.3155C50.4035 21.881 49.4934 21.3225 48.7652 20.5157C48.0371 19.771 47.4303 18.8401 47.0056 17.7851C46.5809 16.7301 46.3382 15.6131 46.2775 14.3719C46.2168 13.5651 46.2168 12.6963 46.2168 11.7654C46.2168 10.8345 46.2168 9.96567 46.2775 9.1589C46.3382 7.91772 46.5809 6.80065 47.0056 5.74564C47.4303 4.69064 47.9764 3.75975 48.7652 3.01504C49.4934 2.27033 50.4035 1.64973 51.4957 1.21532C52.5879 0.780904 53.8015 0.594727 55.197 0.594727C56.7747 0.594727 58.1096 0.842963 59.2017 1.21532C60.2939 1.64973 61.2648 2.20827 61.9322 2.89092C62.6604 3.57357 63.2064 4.31828 63.5705 5.18711C63.9346 6.05594 64.1166 6.86271 64.1773 7.73154C64.1773 7.97978 64.1166 8.16595 63.9346 8.35213C63.7525 8.53831 63.5705 8.60037 63.3278 8.60037H60.9007C60.7187 8.60037 60.476 8.53831 60.2939 8.41419C60.1119 8.29007 59.9906 8.10389 59.9906 7.7936C59.9299 7.35918 59.8085 6.98683 59.5658 6.55241C59.3231 6.18006 59.0197 5.8077 58.6556 5.49741C58.2916 5.18711 57.8062 4.93887 57.1994 4.7527C56.5926 4.56652 55.9252 4.4424 55.1364 4.4424C54.3476 4.4424 53.6801 4.56652 53.0733 4.81475C52.4666 5.06299 51.9811 5.37329 51.6171 5.8077C51.1923 6.24212 50.889 6.73859 50.7069 7.29712C50.4642 7.85566 50.3429 8.47625 50.3429 9.09684C50.2822 9.90361 50.2822 10.7724 50.2822 11.7033C50.2822 12.6342 50.2822 13.503 50.3429 14.3098C50.4035 14.9925 50.5249 15.6131 50.7069 16.1716C50.889 16.7301 51.1923 17.2266 51.6171 17.661C51.9811 18.0954 52.5272 18.4057 53.0733 18.654C53.6194 18.9022 54.3476 19.0263 55.1364 19.0263C55.9252 19.0263 56.5926 18.9022 57.1994 18.716C57.8062 18.5298 58.2916 18.2816 58.6556 17.9713C59.0804 17.661 59.3838 17.2887 59.5658 16.9163C59.8692 16.544 59.9906 16.1716 60.0512 15.7372Z" fill="black"/>
<path d="M77.5257 0.905029C77.8291 0.905029 78.0718 0.967089 78.2538 1.15327C78.4359 1.33944 78.5572 1.58768 78.6786 1.96004L86.1419 21.5708C86.1419 21.6328 86.1419 21.6949 86.1419 21.819C86.1419 22.0672 86.0812 22.2534 85.8992 22.4396C85.7171 22.6258 85.5351 22.6878 85.2924 22.6878H83.108C82.6833 22.6878 82.4406 22.6258 82.2585 22.4396C82.0765 22.2534 81.9551 22.0672 81.9551 21.9431L80.6202 18.5299H71.0332L69.6983 21.9431C69.6376 22.1293 69.5163 22.2534 69.3949 22.4396C69.2736 22.6258 68.9702 22.6878 68.5455 22.6878H66.4217C66.179 22.6878 65.997 22.6258 65.815 22.4396C65.6329 22.2534 65.5723 22.0672 65.5723 21.819C65.5723 21.7569 65.5723 21.6328 65.5723 21.5708L73.0356 1.96004C73.1569 1.58768 73.2783 1.33944 73.4603 1.15327C73.6424 0.967089 73.8851 0.905029 74.1884 0.905029H77.5257ZM79.2247 14.5581L75.8874 5.68359L72.5502 14.5581H79.2247Z" fill="black"/>
<path d="M97.5519 0.905029C100.1 0.905029 101.981 1.52562 103.316 2.70475C104.651 3.88387 105.319 5.55947 105.319 7.73155C105.319 9.22097 104.954 10.5242 104.287 11.5792C103.62 12.6342 102.588 13.441 101.314 13.9375L105.501 21.6328C105.561 21.7569 105.561 21.8811 105.561 21.9431C105.561 22.1293 105.501 22.3155 105.379 22.4396C105.258 22.5637 105.076 22.6258 104.894 22.6258H102.285C101.86 22.6258 101.557 22.5016 101.375 22.3155C101.193 22.1293 101.071 21.9431 100.95 21.7569L97.0664 14.5581H93.0011V21.7569C93.0011 22.0052 92.9404 22.1913 92.7583 22.3775C92.5763 22.5637 92.3943 22.6258 92.1516 22.6258H89.7245C89.4818 22.6258 89.2997 22.5637 89.1177 22.3775C88.9357 22.1913 88.875 22.0052 88.875 21.7569V1.77386C88.875 1.52562 88.9357 1.33944 89.1177 1.15327C89.2997 0.967089 89.4818 0.905029 89.7245 0.905029H97.5519ZM93.0011 10.7104H97.4305C98.5834 10.7104 99.4935 10.5242 100.161 10.0898C100.828 9.65538 101.192 8.91067 101.192 7.73155C101.192 6.55242 100.828 5.80771 100.161 5.37329C99.4935 5.00094 98.5227 4.7527 97.4305 4.7527H93.0011V10.7104Z" fill="black"/>
<path d="M123.4 18.7781C123.642 18.7781 123.824 18.8401 124.006 19.0263C124.188 19.2125 124.249 19.3987 124.249 19.6469V21.819C124.249 22.0672 124.188 22.2534 124.006 22.4396C123.824 22.6258 123.642 22.6878 123.4 22.6878H110.051C109.808 22.6878 109.626 22.6258 109.444 22.4396C109.262 22.2534 109.201 22.0672 109.201 21.819V1.77386C109.201 1.52562 109.262 1.33944 109.444 1.15327C109.626 0.967089 109.808 0.905029 110.051 0.905029H123.096C123.339 0.905029 123.521 0.967089 123.703 1.15327C123.885 1.33944 123.946 1.52562 123.946 1.77386V3.94593C123.946 4.19417 123.885 4.38035 123.703 4.56652C123.521 4.7527 123.339 4.81476 123.096 4.81476H113.327V9.7795H122.429C122.672 9.7795 122.854 9.84156 123.036 10.0277C123.218 10.2139 123.278 10.4001 123.278 10.5863V12.8204C123.278 13.0686 123.218 13.2548 123.036 13.3789C122.854 13.5651 122.672 13.6272 122.429 13.6272H113.327V18.7781H123.4Z" fill="black"/>
<path d="M17.941 31.9346C18.0017 31.9346 18.0624 31.9346 18.1231 31.9966C18.1837 32.0587 18.1837 32.1207 18.1837 32.1828V32.8655C18.1837 32.9275 18.1837 32.9896 18.1231 33.0516C18.0624 33.1137 18.0017 33.1137 17.941 33.1137H14.8465V35.0375H17.759C17.8197 35.0375 17.8804 35.0375 17.941 35.0996C18.0017 35.1616 18.0017 35.2237 18.0017 35.2858V35.9684C18.0017 36.0305 18.0017 36.0925 17.941 36.1546C17.8804 36.2167 17.8197 36.2167 17.759 36.2167H14.8465V38.5128C14.8465 38.5749 14.8465 38.637 14.7858 38.699C14.7251 38.7611 14.6645 38.7611 14.6038 38.7611H13.815C13.7543 38.7611 13.6936 38.7611 13.6329 38.699C13.5723 38.637 13.5723 38.5749 13.5723 38.5128V32.1828C13.5723 32.1207 13.5723 32.0587 13.6329 31.9966C13.6329 31.9346 13.7543 31.9346 13.815 31.9346H17.941Z" fill="black"/>
<path d="M21.2781 34.5413C21.2781 34.169 21.3388 33.7966 21.4602 33.4863C21.5815 33.176 21.7636 32.8657 22.0063 32.6175C22.249 32.3693 22.5524 32.1831 22.8557 32.059C23.1591 31.9349 23.6446 31.8728 24.0693 31.8728C24.5547 31.8728 24.9795 31.9349 25.2828 32.059C25.6469 32.1831 25.9503 32.3693 26.1323 32.6175C26.375 32.8657 26.5571 33.176 26.6784 33.4863C26.7998 33.7966 26.8605 34.169 26.9211 34.5413C26.9211 34.6655 26.9211 34.7896 26.9211 34.9758C26.9211 35.0999 26.9211 35.2861 26.9211 35.4722C26.9211 35.6584 26.9211 35.7825 26.9211 35.9687C26.9211 36.0928 26.9211 36.279 26.9211 36.4031C26.9211 36.7755 26.8605 37.1478 26.7391 37.4581C26.6177 37.7684 26.4357 38.0787 26.193 38.327C25.9503 38.5752 25.6469 38.7614 25.3435 38.8855C24.9795 39.0096 24.5547 39.0717 24.13 39.0717C23.6446 39.0717 23.2198 39.0096 22.9164 38.8855C22.613 38.7614 22.249 38.5752 22.0669 38.327C21.8242 38.0787 21.6422 37.8305 21.5208 37.4581C21.3995 37.1478 21.3388 36.7755 21.3388 36.4031C21.3388 36.279 21.3388 36.1549 21.3388 35.9687C21.3388 35.8446 21.3388 35.6584 21.3388 35.4722C21.3388 35.2861 21.3388 35.1619 21.3388 34.9758C21.2175 34.7896 21.2175 34.6655 21.2781 34.5413ZM25.6469 34.5413C25.6469 34.0449 25.4649 33.6725 25.2222 33.4243C24.9188 33.176 24.5547 33.0519 24.13 33.0519C23.7052 33.0519 23.3412 33.176 23.0378 33.4243C22.7344 33.6725 22.613 34.0449 22.613 34.5413C22.613 34.7896 22.613 35.0999 22.613 35.4102C22.613 35.7205 22.613 35.9687 22.613 36.279C22.613 36.7755 22.7951 37.1478 23.0378 37.3961C23.3412 37.6443 23.7052 37.7684 24.13 37.7684C24.5547 37.7684 24.9188 37.6443 25.2222 37.3961C25.5256 37.1478 25.6469 36.7755 25.6469 36.279C25.6469 36.0308 25.6469 35.7205 25.6469 35.4102C25.6469 35.0999 25.6469 34.7896 25.6469 34.5413Z" fill="black"/>
<path d="M33.2305 31.9351C34.0193 31.9351 34.6261 32.1212 35.0508 32.4936C35.4755 32.8659 35.6576 33.4245 35.6576 34.1071C35.6576 34.6036 35.5362 34.976 35.3542 35.3483C35.1115 35.6586 34.8081 35.9689 34.3834 36.093L35.7183 38.5754C35.7183 38.6375 35.7183 38.6375 35.7183 38.6995C35.7183 38.7616 35.7183 38.8236 35.6576 38.8236C35.5969 38.8857 35.5362 38.8857 35.5362 38.8857H34.6867C34.5654 38.8857 34.444 38.8857 34.3834 38.7616C34.3227 38.6995 34.262 38.6375 34.262 38.5754L33.0484 36.2792H31.7742V38.5754C31.7742 38.6375 31.7742 38.6995 31.7135 38.7616C31.6529 38.8236 31.5922 38.8236 31.5315 38.8236H30.7427C30.682 38.8236 30.6214 38.8236 30.5607 38.7616C30.5 38.6995 30.5 38.6375 30.5 38.5754V32.1833C30.5 32.1212 30.5 32.0592 30.5607 31.9971C30.6214 31.9351 30.682 31.9351 30.7427 31.9351H33.2305ZM31.7742 35.038H33.1698C33.5339 35.038 33.8373 34.976 34.08 34.8518C34.3227 34.7277 34.3834 34.4795 34.3834 34.1071C34.3834 33.7348 34.262 33.4865 34.08 33.3624C33.8373 33.2383 33.5945 33.1762 33.1698 33.1762H31.7742V35.038Z" fill="black"/>
<path d="M42.3935 35.472L44.2138 32.1829C44.2138 32.1208 44.2745 32.1208 44.3352 31.9967C44.3959 31.9346 44.5172 31.8726 44.6386 31.8726H45.306C45.3667 31.8726 45.4274 31.8726 45.488 31.9346C45.5487 31.9967 45.5487 32.0587 45.5487 32.1208V38.5129C45.5487 38.575 45.5487 38.637 45.488 38.6991C45.4274 38.7611 45.3667 38.7611 45.306 38.7611H44.5172C44.4565 38.7611 44.3959 38.7611 44.3352 38.6991C44.2745 38.637 44.2745 38.575 44.2745 38.5129V34.6032L43.0003 36.8373C42.9396 36.8994 42.9396 36.9614 42.8789 37.0235C42.8182 37.0855 42.7576 37.0855 42.6362 37.0855H42.1508C42.0901 37.0855 41.9688 37.0855 41.9081 37.0235C41.8474 36.9614 41.7867 36.8994 41.7867 36.8373L40.5125 34.6032V38.5129C40.5125 38.575 40.5125 38.637 40.4518 38.6991C40.3912 38.7611 40.3305 38.7611 40.2698 38.7611H39.481C39.4203 38.7611 39.3596 38.7611 39.299 38.6991C39.2383 38.637 39.2383 38.575 39.2383 38.5129V32.1829C39.2383 32.1208 39.2383 32.0587 39.299 31.9967C39.3596 31.9346 39.4203 31.9346 39.481 31.9346H40.1484C40.2698 31.9346 40.3912 31.9967 40.4518 32.0587C40.5125 32.1208 40.5732 32.1829 40.5732 32.2449L42.3935 35.472Z" fill="black"/>
<path d="M54.5896 31.9346C54.6503 31.9346 54.711 31.9346 54.7716 31.9966C54.8323 32.0587 54.8323 32.1207 54.8323 32.1828V36.2787C54.8323 36.7131 54.7716 37.0855 54.6503 37.3958C54.5289 37.7061 54.3469 38.0164 54.1042 38.2646C53.8615 38.5128 53.5581 38.699 53.2547 38.8231C52.9513 38.9473 52.5266 39.0093 52.0412 39.0093C51.5557 39.0093 51.1917 38.9473 50.8276 38.8231C50.4636 38.699 50.2208 38.5128 49.9781 38.2646C49.7354 38.0164 49.5534 37.7681 49.432 37.3958C49.3107 37.0855 49.25 36.7131 49.25 36.2787V32.1828C49.25 32.1207 49.25 32.0587 49.3107 31.9966C49.432 31.9346 49.4927 31.9346 49.5534 31.9346H50.3422C50.4029 31.9346 50.4636 31.9346 50.5242 31.9966C50.5849 32.0587 50.5849 32.1207 50.5849 32.1828V36.2167C50.5849 36.4649 50.6456 36.7131 50.7063 36.8993C50.7669 37.0855 50.8883 37.2717 51.0096 37.3958C51.131 37.5199 51.313 37.582 51.4951 37.644C51.6771 37.7061 51.8591 37.7061 52.1018 37.7061C52.3445 37.7061 52.5266 37.7061 52.7086 37.644C52.8906 37.582 53.0727 37.5199 53.194 37.3958C53.3154 37.2717 53.4367 37.0855 53.4974 36.8993C53.5581 36.7131 53.6188 36.4649 53.6188 36.2167V32.1828C53.6188 32.1207 53.6188 32.0587 53.6794 31.9966C53.6794 31.9346 53.7401 31.9346 53.8008 31.9346H54.5896Z" fill="black"/>
<path d="M63.0858 37.644C63.1465 37.644 63.2072 37.644 63.2679 37.7061C63.3285 37.7681 63.3285 37.8302 63.3285 37.8923V38.5749C63.3285 38.637 63.3285 38.699 63.2679 38.7611C63.2072 38.8231 63.1465 38.8231 63.0858 38.8231H58.8384C58.7777 38.8231 58.7171 38.8231 58.6564 38.7611C58.5957 38.699 58.5957 38.637 58.5957 38.5749V32.1828C58.5957 32.1207 58.5957 32.0587 58.6564 31.9966C58.7171 31.9346 58.7777 31.9346 58.8384 31.9346H59.6272C59.6879 31.9346 59.7486 31.9346 59.8092 31.9966C59.8699 32.0587 59.8699 32.1207 59.8699 32.1828V37.644H63.0858Z" fill="black"/>
<path d="M69.6996 31.9346C69.821 31.9346 69.8817 31.9346 69.9423 31.9966C70.003 32.0587 70.0637 32.1207 70.0637 32.2449L72.4301 38.5128V38.5749C72.4301 38.637 72.4301 38.699 72.3694 38.7611C72.3088 38.8231 72.2481 38.8231 72.1874 38.8231H71.4593C71.3379 38.8231 71.2166 38.8231 71.2166 38.7611C71.1559 38.699 71.1559 38.637 71.0952 38.5749L70.6705 37.5199H67.6366L67.2119 38.637C67.2119 38.699 67.1512 38.7611 67.0905 38.8231C67.0298 38.8852 66.9691 38.8852 66.8478 38.8852H66.1197C66.059 38.8852 65.9983 38.8852 65.9376 38.8231C65.877 38.7611 65.877 38.699 65.877 38.637V38.5749L68.2434 32.3069C68.304 32.1828 68.304 32.1207 68.3647 32.0587C68.4254 31.9966 68.4861 31.9966 68.6074 31.9966H69.6996V31.9346ZM70.185 36.2787L69.0929 33.424L68.0007 36.2787H70.185Z" fill="black"/>
<path d="M79.4073 31.9351C79.468 31.9351 79.5287 31.9351 79.5893 31.9971C79.65 32.0592 79.65 32.1212 79.65 32.1833V32.8659C79.65 32.928 79.65 32.9901 79.5893 33.0521C79.5287 33.1142 79.468 33.1142 79.4073 33.1142H77.6477V38.5754C77.6477 38.6375 77.6477 38.6995 77.587 38.7616C77.5263 38.8236 77.4656 38.8236 77.405 38.8236H76.6162C76.5555 38.8236 76.4948 38.8236 76.4341 38.7616C76.3734 38.6995 76.3734 38.6375 76.3734 38.5754V33.1762H74.6138C74.5531 33.1762 74.4924 33.1762 74.4318 33.1142C74.3711 33.0521 74.3711 32.9901 74.3711 32.928V32.2454C74.3711 32.1833 74.3711 32.1212 74.4318 32.0592C74.4924 31.9971 74.5531 31.9971 74.6138 31.9971H79.4073V31.9351Z" fill="black"/>
<path d="M83.1079 38.8857C83.0473 38.8857 82.9866 38.8857 82.9259 38.8236C82.8652 38.7616 82.8652 38.6995 82.8652 38.6375V32.1833C82.8652 32.1212 82.8652 32.0592 82.9259 31.9971C82.9866 31.9351 83.0473 31.9351 83.1079 31.9351H83.8967C83.9574 31.9351 84.0181 31.9351 84.0788 31.9971C84.1395 32.0592 84.1395 32.1212 84.1395 32.1833V38.5754C84.1395 38.6375 84.1395 38.6995 84.0788 38.7616C84.0181 38.8236 83.9574 38.8236 83.8967 38.8236H83.1079V38.8857Z" fill="black"/>
<path d="M87.6602 34.5413C87.6602 34.169 87.7208 33.7966 87.8422 33.4863C87.9635 33.176 88.1456 32.8657 88.3883 32.6175C88.631 32.3693 88.9344 32.1831 89.2378 32.059C89.6018 31.9349 90.0266 31.8728 90.4513 31.8728C90.9367 31.8728 91.3615 31.9349 91.6649 32.059C92.0289 32.1831 92.3323 32.3693 92.5143 32.6175C92.6964 32.8657 92.9391 33.176 93.0604 33.4863C93.1818 33.7966 93.2425 34.169 93.3032 34.5413C93.3032 34.6655 93.3032 34.7896 93.3032 34.9758C93.3032 35.0999 93.3032 35.2861 93.3032 35.4722C93.3032 35.6584 93.3032 35.7825 93.3032 35.9687C93.3032 36.0928 93.3032 36.279 93.3032 36.4031C93.3032 36.7755 93.2425 37.1478 93.1211 37.4581C92.9998 37.7684 92.8177 38.0787 92.575 38.327C92.3323 38.5752 92.0289 38.7614 91.7255 38.8855C91.3615 39.0096 90.9367 39.0717 90.512 39.0717C90.0266 39.0717 89.6018 39.0096 89.2984 38.8855C88.9344 38.7614 88.631 38.5752 88.449 38.327C88.2669 38.0787 88.0242 37.8305 87.9029 37.4581C87.7815 37.1478 87.7208 36.7755 87.7208 36.4031C87.7208 36.279 87.7208 36.1549 87.7208 35.9687C87.7208 35.8446 87.7208 35.6584 87.7208 35.4722C87.7208 35.2861 87.7208 35.1619 87.7208 34.9758C87.6602 34.7896 87.6602 34.6655 87.6602 34.5413ZM92.0896 34.5413C92.0896 34.0449 91.9076 33.6725 91.6649 33.4243C91.3615 33.176 90.9974 33.0519 90.5727 33.0519C90.1479 33.0519 89.7839 33.176 89.4805 33.4243C89.1771 33.6725 89.0557 34.0449 89.0557 34.5413C89.0557 34.7896 89.0557 35.0999 89.0557 35.4102C89.0557 35.7205 89.0557 35.9687 89.0557 36.279C89.0557 36.7755 89.2378 37.1478 89.4805 37.3961C89.7839 37.6443 90.1479 37.7684 90.5727 37.7684C90.9974 37.7684 91.3615 37.6443 91.6649 37.3961C91.9683 37.1478 92.0896 36.7755 92.0896 36.279C92.0896 36.0308 92.0896 35.7205 92.0896 35.4102C92.0896 35.0999 92.0896 34.7896 92.0896 34.5413Z" fill="black"/>
<path d="M101.312 38.8857C101.191 38.8857 101.13 38.8857 101.069 38.8236C101.009 38.7616 100.948 38.6995 100.948 38.6995L98.2176 34.5415V38.6375C98.2176 38.6995 98.2176 38.7616 98.1569 38.8236C98.0962 38.8857 98.0355 38.8857 97.9749 38.8857H97.1861C97.1254 38.8857 97.0647 38.8857 97.004 38.8236C96.9434 38.7616 96.9434 38.6995 96.9434 38.6375V32.1833C96.9434 32.1212 96.9434 32.0592 97.004 31.9971C97.0647 31.9351 97.1254 31.9351 97.1861 31.9351H97.8535C97.9749 31.9351 98.0355 31.9351 98.0962 31.9971C98.1569 32.0592 98.2176 32.1212 98.2176 32.1212L100.948 36.2792V32.1833C100.948 32.1212 100.948 32.0592 101.009 31.9971C101.069 31.9351 101.13 31.9351 101.191 31.9351H101.98C102.04 31.9351 102.101 31.9351 102.162 31.9971C102.222 32.0592 102.222 32.1212 102.222 32.1833V38.5754C102.222 38.6375 102.222 38.6995 102.162 38.7616C102.101 38.8236 102.04 38.8236 101.98 38.8236H101.312V38.8857Z" fill="black"/>
<path d="M108.351 31.8105C108.776 31.8105 109.14 31.8726 109.504 31.9967C109.807 32.1208 110.111 32.245 110.353 32.4311C110.596 32.6173 110.717 32.8035 110.839 33.0517C110.96 33.3 111.021 33.4861 111.021 33.6723C111.021 33.7344 111.021 33.7964 110.96 33.8585C110.899 33.9206 110.839 33.9206 110.778 33.9206H110.111C109.989 33.9206 109.929 33.9206 109.868 33.8585C109.807 33.7964 109.747 33.7344 109.747 33.6723C109.625 33.4861 109.504 33.362 109.322 33.2379C109.14 33.1138 108.836 33.0517 108.472 33.0517C108.29 33.0517 108.169 33.0517 107.987 33.1138C107.805 33.1759 107.684 33.1759 107.562 33.3C107.441 33.4241 107.38 33.4241 107.32 33.5482C107.259 33.6723 107.198 33.7344 107.198 33.8585C107.198 33.9826 107.259 34.1067 107.32 34.2309C107.38 34.355 107.502 34.417 107.623 34.4791C107.744 34.5412 107.987 34.6032 108.23 34.6653C108.472 34.7273 108.776 34.7894 109.14 34.8515C109.504 34.9135 109.868 35.0376 110.171 35.1617C110.475 35.2859 110.657 35.41 110.839 35.5962C111.021 35.7823 111.142 35.9685 111.264 36.1547C111.324 36.3409 111.385 36.5891 111.385 36.8994C111.385 37.2097 111.324 37.4579 111.203 37.7062C111.082 37.9544 110.899 38.2026 110.657 38.3888C110.414 38.575 110.111 38.6991 109.747 38.8232C109.383 38.9474 109.019 39.0094 108.594 39.0094C108.23 39.0094 107.866 38.9474 107.562 38.8853C107.259 38.8232 106.955 38.6371 106.713 38.5129C106.47 38.3268 106.227 38.1406 106.106 37.8924C105.924 37.6441 105.863 37.3959 105.863 37.0856C105.863 37.0235 105.863 36.9615 105.924 36.8994C105.985 36.8373 106.045 36.8373 106.106 36.8373H106.773C106.895 36.8373 106.955 36.8373 107.016 36.8994C107.077 36.9615 107.138 37.0235 107.138 37.0856C107.198 37.1476 107.259 37.2718 107.32 37.3338C107.38 37.3959 107.502 37.52 107.562 37.5821C107.684 37.6441 107.805 37.7062 107.987 37.7682C108.169 37.8303 108.351 37.8303 108.594 37.8303C108.776 37.8303 108.958 37.8303 109.14 37.7682C109.322 37.7682 109.504 37.7062 109.625 37.6441C109.747 37.5821 109.868 37.4579 109.929 37.3959C109.989 37.2718 110.05 37.1476 110.05 37.0235C110.05 36.8994 109.989 36.7753 109.929 36.6512C109.868 36.527 109.686 36.465 109.504 36.4029C109.322 36.3409 109.079 36.2788 108.836 36.2168C108.594 36.1547 108.23 36.0926 107.866 35.9685C107.562 35.9065 107.259 35.7823 107.016 35.6582C106.773 35.5341 106.591 35.41 106.409 35.2859C106.227 35.0997 106.106 34.9135 106.045 34.7273C105.985 34.5412 105.924 34.2309 105.924 33.9826C105.924 33.6723 105.985 33.4241 106.106 33.1759C106.227 32.9276 106.409 32.6794 106.652 32.5553C106.895 32.3691 107.138 32.245 107.441 32.1208C107.623 31.8726 107.987 31.8105 108.351 31.8105Z" fill="black"/>
</svg>
