<svg width="44" height="45" viewBox="0 0 44 45" fill="none" xmlns="http://www.w3.org/2000/svg">
<g clip-path="url(#clip0_2012_1418)">
<rect y="0.487549" width="64" height="64" rx="32" fill="black" fill-opacity="0.2"/>
<rect x="-4" y="-3.51245" width="72" height="72" rx="36" fill="#5C1E8E" stroke="#5C1E8E" stroke-width="8"/>
<path d="M36.3407 43.6944C36.0709 44.2752 35.6861 44.8478 35.2733 45.2511L35.2728 45.2516C35.2315 45.292 35.19 45.3304 35.1487 45.3665C35.0223 45.4627 34.8663 45.5214 34.6939 45.5261L34.6935 45.5261C34.4941 45.5316 34.3106 45.4631 34.1678 45.3445C34.143 45.3211 34.1142 45.2942 34.0842 45.2671C34.0837 45.2666 34.0832 45.2662 34.0828 45.2658L33.58 45.8224C32.8643 45.1695 32.0803 45.3886 31.1798 45.6403C30.6793 45.7802 30.1429 45.9302 29.5621 45.9461L36.3407 43.6944ZM36.3407 43.6944C35.8267 42.4937 35.0962 41.4153 34.1674 40.4868L34.1673 40.4866C33.2278 39.5469 32.1351 38.8104 30.9178 38.2955L30.9173 38.2953C30.7126 38.2086 30.5054 38.1289 30.2962 38.056L30.0139 37.9577C29.9048 37.9246 29.7616 37.8812 29.5827 37.8274C29.1254 37.6896 28.4785 37.4959 27.6999 37.2639C24.1832 36.2162 20.6082 36.2839 17.6668 36.9559C17.6668 36.9559 17.6668 36.9559 17.6668 36.9559L17.4997 36.2248M36.3407 43.6944L9.02486 39.9564C10.0322 38.9488 11.2057 38.1575 12.5126 37.6048C12.7474 37.5052 12.9845 37.4146 13.2241 37.3326L13.2269 37.3314M17.4997 36.2248C17.2027 36.2926 16.9042 36.3577 16.6054 36.4229C15.5854 36.6454 14.5612 36.8687 13.5777 37.2062C13.389 37.271 13.2689 37.3156 13.2269 37.3314M17.4997 36.2248C20.5518 35.5275 24.2592 35.4562 27.9141 36.5451C28.7095 36.7821 29.368 36.9794 29.8277 37.1178L17.4997 36.2248ZM13.2269 37.3314L13.5159 38.0235L13.513 38.0247L13.5034 38.0287C13.4988 38.0304 13.4949 38.0319 13.4916 38.0331L13.2585 37.415L13.2269 37.3314ZM19.8142 48.1872C19.7986 48.1452 19.7825 48.103 19.766 48.0615L19.8142 48.1872ZM19.8142 48.1872C19.9163 48.4663 20.0748 48.7185 20.276 48.9298L19.8142 48.1872ZM8.39204 45.2514C8.43415 45.2926 8.4754 45.3309 8.51597 45.3665L7.36398 43.7363C7.36078 43.7439 7.35759 43.7515 7.35441 43.7591C7.62301 44.3187 7.99454 44.8635 8.39119 45.2506L8.39204 45.2514Z" fill="#E65A29" stroke="#151515" stroke-width="1.5"/>
<path d="M33.4869 16.3022L33.1936 16.7711L29.417 14.8372L27.7441 13.9787C28.2312 12.9141 29.6058 10.8848 31.5037 10.4312C31.9318 10.3306 32.3805 10.4657 32.6973 10.7691C32.8895 10.9528 33.0569 11.1484 33.2014 11.3508C34.5526 13.2554 33.8755 15.8217 33.4864 16.2975L33.4869 16.3022Z" fill="#E65A29"/>
<path d="M33.4863 16.3023L33.193 16.7711L29.4164 14.8372C29.9324 13.7557 31.2868 11.8084 33.1411 11.3661C33.1619 11.3618 33.1803 11.3576 33.2011 11.3532C34.5523 13.2578 33.8751 15.8241 33.4861 16.2999L33.4863 16.3023Z" fill="#FFD7A3"/>
<path d="M33.1934 16.7735L29.4168 14.8396L27.744 13.9811C28.231 12.9166 29.6056 10.8873 31.5036 10.4337C31.9316 10.333 32.3803 10.4682 32.6972 10.7715C32.8893 10.9553 33.0567 11.1508 33.2012 11.3533C33.2012 11.3533 35.1119 13.587 33.193 16.7688L33.1934 16.7735Z" stroke="#151515" stroke-linejoin="round"/>
<path d="M18.2558 13.9828L16.4329 14.5815L12.95 15.7245L12.4389 15.8922L12.3968 15.7929L12.2224 15.3833C11.908 14.8449 11.6341 12.1336 13.3475 10.4683C13.5028 10.3174 13.6738 10.1765 13.8619 10.0438C14.2227 9.79364 14.6882 9.72748 15.0929 9.8951C16.8968 10.637 17.9399 12.8562 18.2558 13.9828Z" fill="#E65A29"/>
<path d="M16.4331 14.5815L12.9502 15.7246L12.397 15.793L12.2226 15.3834C11.9082 14.845 11.6343 12.1336 13.3477 10.4684C13.6525 10.4272 13.963 10.4899 14.2228 10.6621C15.5659 11.5539 16.2021 13.3312 16.4344 14.5796L16.4331 14.5815Z" fill="#FFD7A3"/>
<path d="M15.0949 9.89618C16.8988 10.6381 17.942 12.8573 18.2578 13.9839L12.4409 15.8933L12.2245 15.3844C11.8826 14.7977 11.5861 11.6266 13.864 10.0449C14.2248 9.79472 14.6903 9.72856 15.0949 9.89618Z" stroke="#151515" stroke-linejoin="round"/>
<path d="M19.8643 9.70646C20.3101 8.86443 21.1782 8.27225 22.1965 8.22658C22.8097 8.19766 23.3295 8.67513 23.3585 9.29068L23.4086 10.3533C23.4135 10.4563 23.5199 10.524 23.6141 10.482L24.4511 10.1258C24.9985 9.8936 25.6293 9.93891 26.1389 10.2503C26.6461 10.5595 26.9611 11.0724 27.0075 11.659C27.0143 11.8018 26.9123 12.3742 26.9123 12.3742C27.2773 12.852 28.5692 13.7364 29.6673 14.3883C29.6842 14.3992 29.701 14.4078 29.718 14.4187C29.9785 14.5707 30.242 14.7365 30.5037 14.9142C30.5037 14.9142 30.506 14.9141 30.5085 14.9163C32.6384 16.3593 34.7898 18.5567 35.7621 20.0238C35.7647 20.0284 35.7697 20.0352 35.7723 20.0397C36.0574 20.4649 36.3106 20.9104 36.5342 21.3737C37.1558 22.6674 37.5053 24.0583 37.5734 25.5024L37.5802 25.6475C37.5859 25.7692 37.6889 25.8629 37.8108 25.8618C37.8412 25.8604 37.8717 25.859 37.9022 25.8599C38.6198 25.8565 39.0872 25.9682 39.2877 26.1909C39.3768 26.29 39.4767 26.4682 39.4357 26.7422C39.3658 27.2006 38.9249 27.7492 38.5981 28.0813C38.8038 28.1654 38.9973 28.29 39.1138 28.4721C39.2151 28.6316 39.2451 28.8201 39.2004 29.0146C39.107 29.4225 38.4678 30.093 38.1966 30.3615C37.9613 30.5954 37.6756 30.8528 37.404 31.0627C37.3655 31.0926 37.3369 31.1339 37.3251 31.1813C37.2672 31.3952 37.202 31.6047 37.1321 31.8144C37.1033 31.9002 37.0722 31.9861 37.0411 32.072C36.5606 33.3731 35.8445 34.5539 34.9056 35.5857C33.9667 36.6176 32.8585 37.4416 31.6085 38.0424C31.3974 38.1438 31.1838 38.2383 30.9696 38.3235L30.9747 38.3326C30.9334 38.351 29.966 38.779 28.4413 39.2262C25.0727 40.2178 20.638 40.0915 18.287 39.9279C16.9761 39.8373 15.6798 39.6075 14.4169 39.2402C14.2291 39.1857 14.1099 39.1467 14.0695 39.1346L14.0671 39.1347C13.8293 39.0661 13.5934 38.9881 13.3595 38.903C12.0585 38.4225 10.8777 37.7064 9.84583 36.7675C8.81646 35.8309 7.99001 34.7205 7.3892 33.4704C7.33965 33.3648 7.29011 33.2592 7.2429 33.1536C7.17465 32.9996 7.11097 32.8431 7.04964 32.6865C7.03105 32.6405 6.99863 32.5998 6.95518 32.5737C6.63184 32.3825 6.2722 32.118 5.98176 31.8783C5.68653 31.6366 4.98701 31.0292 4.85568 30.6319C4.7928 30.4425 4.80492 30.252 4.89082 30.0837C4.98965 29.8914 5.17294 29.749 5.36747 29.646C5.01085 29.3462 4.51792 28.8417 4.40756 28.3918C4.34093 28.1228 4.42126 27.9361 4.503 27.829C4.684 27.5882 5.13644 27.4332 5.8512 27.369C5.91195 27.3638 5.97269 27.3586 6.03354 27.3557C6.15525 27.35 6.25114 27.2446 6.24529 27.1205L6.23856 26.9778C6.17035 25.5313 6.38744 24.116 6.88456 22.7696C6.95107 22.5882 7.02248 22.4112 7.09857 22.2341C7.09857 22.2341 7.10069 22.2293 7.1027 22.2221C7.1027 22.2221 7.10248 22.2175 7.10482 22.2173C7.10694 22.2126 7.11118 22.203 7.11553 22.1957C7.11542 22.1934 7.11765 22.1909 7.11977 22.1861C7.12178 22.179 7.12624 22.1741 7.12814 22.1646C7.23011 21.9393 7.59311 21.181 8.29249 20.144C8.32316 20.098 8.35618 20.0519 8.38673 20.0035C9.1528 18.8884 10.444 17.2699 12.3365 15.717C12.4675 15.6099 12.6008 15.5028 12.7389 15.3954C12.7412 15.3953 12.7569 15.3805 12.7841 15.3604C13.2299 15.0133 15.9628 12.778 17.7023 11.563C17.7068 11.5604 18.5423 11.0214 18.5377 11.024" fill="#E65A29"/>
<path d="M37.1117 31.825C37.0829 31.9108 37.0518 31.9967 37.0206 32.0826C36.5401 33.3837 35.8241 34.5645 34.8852 35.5963C33.9463 36.6281 32.8381 37.4521 31.588 38.053C31.377 38.1544 31.1633 38.2489 30.9492 38.3341L30.9543 38.3432C30.913 38.3616 29.9209 38.7133 28.4209 39.2368C24.904 40.4676 21.2823 40.568 18.2708 40.0298C16.9768 39.7976 15.6595 39.6204 14.3966 39.2531C14.2088 39.1986 14.0896 39.1596 14.0492 39.1475L14.0468 39.1476C13.809 39.0791 13.5731 39.001 13.3392 38.9159C12.0382 38.4354 10.8573 37.7193 9.82552 36.7805C8.79616 35.8438 7.9697 34.7334 7.36889 33.4833C7.31935 33.3777 7.2698 33.2722 7.22259 33.1665C7.48394 32.4411 7.9175 31.6864 8.42663 31.1417C8.48026 31.0852 8.53401 31.031 8.58786 30.9792C8.82445 30.7734 9.12543 30.6396 9.46202 30.6143C9.84999 30.5843 10.2146 30.7055 10.4996 30.929C10.529 30.9557 10.5583 30.9801 10.5899 31.0045C11.7227 31.9456 13.2086 32.4643 14.7933 32.345C17.2197 32.1649 19.1954 30.5376 19.9355 28.3728C19.95 28.3323 19.9644 28.2894 19.9765 28.2489C20.0644 27.9727 20.2073 27.7196 20.394 27.5021C20.4771 27.4054 20.4771 27.4054 20.394 27.5021C20.724 27.137 21.1316 26.8762 21.7329 26.7939C21.7819 26.7892 21.8286 26.7846 21.8778 26.7823L21.8848 26.782C21.9339 26.7797 21.9831 26.7774 22.0301 26.7798C22.6365 26.8052 23.0668 27.0265 23.4297 27.3589C23.591 27.5066 23.591 27.5066 23.4297 27.3589C23.636 27.5556 23.8021 27.7941 23.9156 28.0632C23.934 28.1045 23.9499 28.1436 23.9682 28.1827C24.911 30.2681 27.0287 31.7023 29.4613 31.6533C31.0502 31.6229 32.4806 30.9644 33.5199 29.9231C33.5467 29.896 33.5758 29.8665 33.6027 29.8394C33.8654 29.5901 34.217 29.4352 34.6061 29.4285C34.9435 29.422 35.2558 29.5269 35.5107 29.7096C35.5692 29.7561 35.6278 29.8049 35.6865 29.8561C36.2618 30.3662 36.7778 31.1112 37.1071 31.8275L37.1117 31.825Z" fill="#FFD7A3"/>
<path d="M39.8849 26.815C39.8226 27.2331 39.554 27.6563 39.2883 27.9902C39.3692 28.0661 39.4387 28.1473 39.497 28.2384C39.6617 28.498 39.7141 28.8122 39.6444 29.1251C39.5569 29.5093 39.1783 30.0362 38.5172 30.6913C38.2618 30.9449 37.9894 31.1877 37.7429 31.3823C37.6889 31.5795 37.6278 31.7771 37.5595 31.9703C37.5306 32.0538 37.4996 32.142 37.4642 32.2375C36.9652 33.5934 36.2163 34.825 35.2395 35.8985C34.2627 36.972 33.107 37.8334 31.8041 38.4578C31.6161 38.5488 31.4253 38.6329 31.2321 38.7124C31.2071 38.73 31.1819 38.7429 31.1543 38.7559L31.152 38.756C30.9751 38.8347 30.0186 39.2434 28.568 39.6707C27.7652 39.908 26.8954 40.017 26.0537 40.1247C25.9324 40.1398 25.8111 40.1549 25.6899 40.17L25.6524 40.1718C25.4207 40.1827 25.2134 40.0142 25.1835 39.7787C25.1507 39.5316 25.3254 39.3052 25.5725 39.2725C25.6937 39.2574 25.8173 39.2422 25.9385 39.2247C26.7802 39.117 27.5777 39.0161 28.3111 38.8008C29.5488 38.4352 30.4075 38.0898 30.7018 37.9633C30.7312 37.9408 30.7632 37.9229 30.8001 37.9094C31.005 37.827 31.2118 37.7352 31.4113 37.639C32.6087 37.0641 33.6715 36.2727 34.568 35.2875C35.4645 34.3022 36.1547 33.1695 36.6143 31.9234C36.6477 31.835 36.6744 31.754 36.7012 31.6777C36.7691 31.4751 36.8323 31.2727 36.8861 31.0708C36.9263 30.9282 37.0117 30.7998 37.1271 30.7099C37.358 30.5325 37.626 30.297 37.877 30.0483C38.4327 29.4966 38.7226 29.0771 38.7599 28.9229C38.7773 28.8447 38.7695 28.7794 38.7317 28.7225C38.681 28.6428 38.5743 28.5681 38.4235 28.5048C38.3111 28.4585 38.2224 28.3689 38.1771 28.2537C38.1264 28.1247 38.1359 27.9765 38.2076 27.8559C38.2272 27.8244 38.2493 27.7952 38.2738 27.7683C38.6678 27.3674 38.9478 26.939 38.9872 26.6791C39.0031 26.5704 38.9752 26.5248 38.9505 26.4978C38.9431 26.4911 38.7728 26.3115 37.9027 26.315C37.8746 26.3163 37.8442 26.3178 37.816 26.3168C37.4481 26.3247 37.1438 26.0412 37.1264 25.6714L37.1196 25.5263C37.0542 24.1407 36.7194 22.81 36.1261 21.5713C35.9154 21.1309 35.6699 20.7015 35.3974 20.2944C35.3925 20.29 35.3898 20.2831 35.3848 20.2763C34.905 19.553 34.1479 18.6692 33.2499 17.7826C32.2708 16.8178 31.2355 15.9541 30.2541 15.2896C30.2518 15.2898 30.2492 15.2852 30.2469 15.2853C29.9901 15.1121 29.7338 14.9506 29.4901 14.8073C29.4733 14.7987 29.4564 14.7878 29.4419 14.7791C29.437 14.7746 29.4299 14.7726 29.425 14.7681L29.4226 14.7682L29.3598 14.729C28.2035 13.986 27.4365 13.4897 26.9521 13.0668C26.7297 13.2743 26.4345 13.4314 26.0618 13.5381C25.6268 13.6641 25.0788 13.7322 24.3602 13.7661C23.6417 13.8 23.1303 13.7983 22.3303 13.7961C22.0816 13.7961 21.8797 13.5922 21.8797 13.3436C21.8797 13.0949 22.0836 12.8929 22.3322 12.8929C24.0285 12.8997 25.1434 12.8636 25.8099 12.6726C26.3491 12.5159 26.5336 12.3007 26.5609 11.7857L26.5575 11.7132C26.5054 11.2043 26.3148 10.8942 25.9042 10.6439C25.5202 10.4086 25.0424 10.3749 24.6284 10.5492L23.7914 10.9053C23.6097 10.9819 23.4025 10.9659 23.2357 10.8612C23.0689 10.7565 22.9642 10.5761 22.9551 10.3818L22.905 9.31923C22.8877 8.95411 22.5787 8.66843 22.2136 8.68565L22.2089 8.68587C21.474 8.72053 21.1717 9.02565 20.4465 9.76356C20.3614 9.84968 20.2741 9.93824 20.1801 10.0342C19.6962 10.5167 18.3998 11.678 18.3435 11.7276C18.3435 11.7276 18.3391 11.7325 18.3367 11.7326C18.3323 11.7375 18.3255 11.7425 18.3209 11.7451C18.3185 11.7452 18.3164 11.75 18.3118 11.7502C17.189 12.6147 15.6193 13.7983 14.4732 14.664C13.7777 15.187 13.2296 15.6022 13.0622 15.7321C13.0395 15.7496 13.0259 15.7596 13.0191 15.7646C13.0191 15.7646 13.0168 15.7648 13.0146 15.7672C12.8857 15.8695 12.7522 15.9743 12.6212 16.0813C10.7535 17.612 9.48927 19.2057 8.75622 20.2747C8.72555 20.3208 8.69254 20.3669 8.66187 20.4129C7.9868 21.4182 7.63216 22.1551 7.53644 22.3637C7.5322 22.3732 7.53019 22.3804 7.52584 22.3876C7.52595 22.39 7.52372 22.3924 7.52149 22.3949L7.51524 22.4116C7.51535 22.4139 7.51312 22.4164 7.51089 22.4188C7.511 22.4212 7.50877 22.4236 7.50665 22.4284C7.43469 22.5936 7.3654 22.7658 7.3009 22.9401C6.82453 24.2292 6.61873 25.5854 6.68407 26.971L6.6908 27.1137C6.70813 27.4812 6.42278 27.7972 6.05565 27.8216C6.00182 27.8241 5.94565 27.8268 5.88502 27.8343C5.01846 27.9127 4.86568 28.1052 4.8591 28.1149C4.83925 28.1417 4.81348 28.1921 4.84197 28.2987C4.9056 28.5537 5.22472 28.9539 5.65464 29.3159C5.68149 29.3381 5.70611 29.3628 5.72627 29.3923C5.81136 29.5056 5.83704 29.6522 5.79886 29.7877C5.76459 29.9066 5.68252 30.0066 5.57494 30.0633C5.5017 30.1019 5.44262 30.1423 5.39289 30.1821C5.34562 30.2242 5.31004 30.2658 5.28852 30.3067C5.25851 30.3667 5.25458 30.4326 5.27928 30.5089C5.3287 30.6613 5.65897 31.0492 6.26414 31.5461C6.57653 31.8035 6.91144 32.041 7.1794 32.202C7.30731 32.2781 7.40912 32.3976 7.46512 32.5404C7.52144 32.6902 7.58479 32.8397 7.65047 32.989C7.69512 33.0901 7.74222 33.1935 7.78909 33.2921C8.36396 34.4895 9.15532 35.5523 10.1406 36.4488C11.1259 37.3477 12.2585 38.0355 13.5047 38.4951C13.7266 38.5762 13.9554 38.6522 14.1814 38.7189C14.1861 38.7187 14.1933 38.723 14.198 38.7228C14.229 38.7331 14.3456 38.7698 14.5335 38.8243C15.7536 39.1796 17.0239 39.4059 18.3066 39.4955C18.742 39.5266 19.1841 39.5503 19.6236 39.5671C19.8726 39.5765 20.0656 39.7879 20.0562 40.0369C20.0462 40.272 19.858 40.4591 19.6263 40.4701C19.3946 40.481 19.6005 40.4713 19.5865 40.4719C19.1399 40.4531 18.6883 40.4275 18.2435 40.3969C16.895 40.3033 15.5609 40.066 14.2789 39.6925C14.0934 39.6379 13.9744 39.6013 13.9243 39.5849C13.9243 39.5849 13.9196 39.5851 13.9172 39.5829C13.6746 39.5122 13.4291 39.4299 13.1904 39.3427C11.8345 38.8437 10.6029 38.0948 9.52941 37.118C8.45593 36.1412 7.5945 34.9855 6.97009 33.6826C6.91809 33.5748 6.86587 33.4623 6.81844 33.352C6.7581 33.2164 6.69988 33.0761 6.64644 32.9379C6.25035 32.6962 5.87768 32.4041 5.68718 32.2442C4.96737 31.6542 4.54085 31.1653 4.41753 30.7887C4.31882 30.4861 4.34136 30.1684 4.4808 29.8921C4.53033 29.7982 4.58944 29.7087 4.66526 29.6253C4.36939 29.3203 4.06443 28.9218 3.96063 28.5115C3.87408 28.1684 3.93564 27.8324 4.12969 27.5699C4.39443 27.215 4.91734 27.012 5.77209 26.9319C5.71169 25.4522 5.93894 24.0036 6.44845 22.6214C6.51931 22.4327 6.59251 22.244 6.67094 22.0667L6.67072 22.062C6.67072 22.062 6.6705 22.0573 6.67273 22.0549L6.67251 22.0502L6.67485 22.0501L6.67452 22.0431L6.6792 22.0428C6.68132 22.0381 6.68567 22.0308 6.68757 22.0213L6.68723 22.0143C6.69192 22.0141 6.69181 22.0118 6.6917 22.0094C6.69158 22.0071 6.69381 22.0046 6.69593 21.9998C6.69582 21.9975 6.69794 21.9927 6.70017 21.9902C6.82769 21.7098 7.19984 20.9463 7.90134 19.9046C7.93424 19.8561 7.96491 19.8101 7.99781 19.7616C8.76387 18.6465 10.0858 16.982 12.0347 15.3818C12.1725 15.2698 12.3104 15.16 12.4437 15.0529C12.4505 15.0479 12.4663 15.0354 12.489 15.0179C12.6609 14.8831 13.1865 14.4877 13.9114 13.9422C15.053 13.0814 16.616 11.9029 17.7364 11.0408C17.8783 10.9144 19.0822 9.83259 19.5235 9.3919C19.6154 9.30077 19.7027 9.21221 19.7855 9.12855C20.5533 8.34875 21.0592 7.83464 22.1499 7.78321L22.1569 7.78288C23.0182 7.74226 23.7513 8.41375 23.792 9.27739L23.8217 9.90699L24.2587 9.72218C24.9394 9.4344 25.7232 9.49126 26.356 9.87661C27.0129 10.2772 27.3557 10.8311 27.4377 11.6248C27.4428 11.6832 27.4454 11.7393 27.4457 11.7956L27.4463 11.8073C27.445 11.9786 27.4198 12.1417 27.393 12.2696C27.7845 12.6616 28.5925 13.1818 29.8311 13.9796L29.8844 14.0146C29.8989 14.0233 29.9133 14.032 29.9302 14.0406C30.1931 14.1947 30.4639 14.3649 30.7377 14.5514C30.7426 14.5559 30.7474 14.558 30.7523 14.5624C33.0204 16.0998 35.1698 18.3536 36.1242 19.7887L36.1293 19.7978C36.1293 19.7978 36.1318 19.8024 36.1343 19.8046C36.4319 20.2457 36.6979 20.714 36.9294 21.1957C37.5667 22.5238 37.9294 23.9469 38.0086 25.428C38.8136 25.437 39.3252 25.5911 39.6123 25.9083C39.8325 26.1513 39.923 26.4778 39.8716 26.8297L39.8849 26.815Z" fill="#151515"/>
<path d="M29.6158 30.309C32.0188 30.13 33.8201 28.0371 33.6411 25.6342C33.4621 23.2312 31.3692 21.4299 28.9663 21.6089C26.5633 21.7879 24.762 23.8808 24.941 26.2837C25.12 28.6867 27.2129 30.488 29.6158 30.309Z" fill="#FFF8F1"/>
<path d="M29.516 30.7779C28.2802 30.8361 27.088 30.4256 26.1443 29.6139C25.1687 28.7732 24.5787 27.6024 24.4806 26.3192C24.3848 25.0336 24.7953 23.7898 25.636 22.8142C26.4766 21.8386 27.6475 21.2486 28.9306 21.1505C30.2163 21.0547 31.4601 21.4652 32.4357 22.3059C33.4112 23.1465 34.0013 24.3174 34.0993 25.6005C34.1951 26.8862 33.7847 28.13 32.944 29.1056C32.1033 30.0811 30.9325 30.6712 29.6493 30.7692L29.5136 30.7756L29.516 30.7779ZM29.112 22.0615L29.002 22.0667C26.8562 22.2265 25.2416 24.1018 25.4015 26.2476C25.4787 27.2878 25.9572 28.234 26.747 28.9146C27.5368 29.5951 28.5446 29.9253 29.5824 29.8482C30.6226 29.771 31.5688 29.2924 32.2494 28.5026C32.9299 27.7129 33.26 26.7051 33.183 25.6672C33.1057 24.627 32.6272 23.6808 31.8374 23.0003C31.0746 22.3442 30.1113 22.012 29.1119 22.0591L29.112 22.0615Z" fill="#151515"/>
<path d="M29.5144 28.9014C31.1506 28.7797 32.3782 27.3542 32.2564 25.7156C32.1346 24.0794 30.7092 22.8518 29.0706 22.9736C27.4343 23.0953 26.2067 24.5208 26.3286 26.1594C26.4503 27.7956 27.8781 29.0231 29.5144 28.9014Z" fill="#151515"/>
<path d="M31.7779 25.919C31.8058 25.913 31.8661 25.8984 31.8914 25.8879L32.0229 25.8418L32.3183 25.7387C32.5006 25.6738 32.6266 25.56 32.6964 25.3995C32.7662 25.2391 32.7649 25.0609 32.6922 24.8625C32.6195 24.6642 32.5073 24.5241 32.3534 24.4422C32.2018 24.3626 32.0325 24.3541 31.8504 24.4214L31.4976 24.5506C31.3153 24.6155 31.1918 24.7316 31.1243 24.8919C31.0592 25.0545 31.0607 25.235 31.136 25.4379C31.2006 25.6155 31.2887 25.7427 31.4032 25.8311C31.5199 25.9194 31.6456 25.9487 31.778 25.9214L31.7779 25.919Z" fill="#FFF8F1"/>
<path d="M14.5969 31.017C16.9999 30.838 18.8012 28.7452 18.6222 26.3422C18.4432 23.9393 16.3503 22.1379 13.9474 22.3169C11.5444 22.4959 9.74312 24.5888 9.92212 26.9918C10.1011 29.3947 12.194 31.196 14.5969 31.017Z" fill="#FFF8F1"/>
<path d="M14.497 31.4863C13.2612 31.5446 12.069 31.134 11.1252 30.3224C10.1497 29.4817 9.55962 28.3109 9.46158 27.0277C9.36576 25.7421 9.77625 24.4982 10.6169 23.5227C11.4576 22.5471 12.6284 21.957 13.9116 21.859C16.5646 21.6612 18.8826 23.6583 19.0803 26.309C19.1761 27.5946 18.7656 28.8385 17.9249 29.814C17.0843 30.7896 15.9134 31.3797 14.6303 31.4777L14.4945 31.4841L14.497 31.4863ZM14.0906 22.7701L13.9829 22.7752C12.9427 22.8524 11.9965 23.3309 11.316 24.1207C10.6355 24.9105 10.3053 25.9183 10.3824 26.9561C10.4596 27.9963 10.9382 28.9425 11.728 29.6231C12.5177 30.3036 13.5255 30.6337 14.5634 30.5567C15.6036 30.4794 16.5498 30.0009 17.2303 29.2111C17.9109 28.4214 18.241 27.4135 18.1639 26.3757C18.0058 24.2673 16.19 22.6711 14.0906 22.7701Z" fill="#151515"/>
<path d="M14.493 29.6099C16.1292 29.4882 17.3569 28.0627 17.235 26.4241C17.1133 24.7879 15.6878 23.5603 14.0492 23.6821C12.413 23.8038 11.1854 25.2293 11.3072 26.8679C11.4289 28.5041 12.8544 29.7317 14.493 29.6099Z" fill="#151515"/>
<path d="M16.7589 26.6273C16.7868 26.6213 16.8471 26.6067 16.8724 26.5961L17.0039 26.55L17.2993 26.447C17.4816 26.3821 17.6076 26.2682 17.6774 26.1078C17.7473 25.9473 17.7459 25.7691 17.6732 25.5708C17.6005 25.3725 17.4884 25.2324 17.3344 25.1505C17.1828 25.0708 17.0135 25.0624 16.8314 25.1296L16.4786 25.2589C16.2964 25.3238 16.1728 25.4398 16.1053 25.6002C16.0403 25.7627 16.0417 25.9433 16.117 26.1462C16.1817 26.3237 16.2698 26.4509 16.3842 26.5394C16.5009 26.6277 16.6266 26.657 16.7591 26.6296L16.7589 26.6273Z" fill="#FFF8F1"/>
<path d="M21.1925 29.7672C21.2464 29.7742 21.3565 29.786 21.4104 29.786H21.6658C21.6658 29.7883 22.2446 29.7953 22.2446 29.7953C22.6007 29.7953 22.8913 29.6782 23.1139 29.4439C23.3341 29.2119 23.4443 28.9003 23.4443 28.509C23.4443 28.1177 23.3365 27.806 23.1209 27.5694C22.9077 27.3351 22.6218 27.2156 22.261 27.2156H21.5674C21.2113 27.2156 20.9231 27.3351 20.7075 27.5741C20.4919 27.8131 20.3842 28.1294 20.3842 28.5254C20.3842 28.8745 20.4568 29.151 20.6021 29.3736C20.7497 29.5985 20.9465 29.7297 21.1949 29.7672H21.1925Z" fill="#151515"/>
<path d="M20.4361 24.7929L8.32009 26.6045L8.44011 22.0376L17.4997 20.2109L20.4361 24.7929Z" fill="#E65A29"/>
<path d="M12.1977 22.48C12.2608 22.4837 12.3255 22.5016 12.3846 22.5333C12.6052 22.6521 12.6876 22.9245 12.5689 23.1452C12.2442 23.7502 11.8294 24.1739 11.2996 24.4382C10.8472 24.6648 10.3005 24.7801 9.58087 24.8031C9.33155 24.8117 9.12267 24.6139 9.11636 24.3647C9.10771 24.1154 9.30556 23.9065 9.55474 23.9002C10.7447 23.8629 11.3263 23.5548 11.7751 22.7177C11.8622 22.5562 12.0293 22.4699 12.2 22.4801L12.1977 22.48Z" fill="#151515"/>
<path d="M32.8145 21.6518C32.6487 21.669 32.4786 21.5925 32.3846 21.4398C31.8868 20.6329 31.2874 20.3586 30.0976 20.3959C29.8492 20.4029 29.6406 20.2063 29.6312 19.9581C29.6242 19.7098 29.8208 19.5012 30.069 19.4918C30.7904 19.4695 31.3432 19.5514 31.8076 19.75C32.351 19.9824 32.792 20.3791 33.1527 20.9649C33.2847 21.1769 33.2181 21.4568 33.0061 21.5864C32.9469 21.6244 32.8798 21.644 32.8145 21.6518Z" fill="#151515"/>
<path d="M22.2595 31.5316C23.0889 31.5316 23.8223 31.8737 24.2558 32.4758C24.4011 32.6797 24.3542 32.9609 24.1527 33.1061C23.9489 33.2514 23.6677 33.2045 23.5224 33.003C23.2319 32.6 22.6906 32.3891 22.0744 32.443C21.5237 32.4899 21.0317 32.7476 20.8747 33.071C20.7646 33.2959 20.4951 33.3896 20.2702 33.2795C20.0452 33.1694 19.9515 32.8999 20.0616 32.675C20.2186 32.354 20.4975 32.0752 20.8677 31.8737C21.2004 31.6909 21.5917 31.5761 21.9994 31.5433C22.0884 31.5362 22.1751 31.5316 22.2618 31.5316L22.2595 31.5316Z" fill="#151515"/>
<path d="M23.5215 32.4871C23.5215 31.6576 23.8636 30.9243 24.4658 30.4908C24.6696 30.3455 24.9508 30.3924 25.0961 30.5939C25.2413 30.7977 25.1945 31.0789 24.993 31.2242C24.5899 31.5147 24.3791 32.056 24.433 32.6722C24.4798 33.2228 24.7376 33.7149 25.0609 33.8719C25.2858 33.982 25.3796 34.2515 25.2694 34.4764C25.1593 34.7013 24.8899 34.7951 24.6649 34.6849C24.3439 34.5279 24.0651 34.2491 23.8636 33.8789C23.6808 33.5462 23.566 33.1549 23.5332 32.7472C23.5262 32.6581 23.5215 32.5715 23.5215 32.4848L23.5215 32.4871Z" fill="#151515"/>
<path d="M20.9125 32.9499C20.9125 33.7794 20.5704 34.5128 19.9682 34.9462C19.7643 35.0915 19.4832 35.0446 19.3379 34.8431C19.1926 34.6393 19.2395 34.3581 19.441 34.2128C19.844 33.9223 20.0549 33.381 20.001 32.7648C19.9541 32.2142 19.6964 31.7221 19.373 31.5651C19.1481 31.455 19.0544 31.1855 19.1645 30.9606C19.2746 30.7357 19.5441 30.6419 19.769 30.7521C20.09 30.9091 20.3689 31.1879 20.5704 31.5581C20.7531 31.8908 20.868 32.2821 20.9008 32.6898C20.9078 32.7789 20.9125 32.8656 20.9125 32.9523L20.9125 32.9499Z" fill="#151515"/>
</g>
<defs>
<clipPath id="clip0_2012_1418">
<rect y="0.487549" width="44" height="44" rx="22" fill="white"/>
</clipPath>
</defs>
</svg>
