<svg width="45" height="45" viewBox="0 0 45 45" fill="none" xmlns="http://www.w3.org/2000/svg">
<g clip-path="url(#clip0_2012_1505)">
<rect x="0.333374" y="-9.51245" width="64" height="64" rx="32" fill="#C3FBF3"/>
<path d="M10.953 15.3129L11.2981 15.7618L14.9518 13.4169L16.5715 12.3772C15.9704 11.342 14.3681 9.40978 12.3894 9.13858C11.9441 9.07744 11.5002 9.26112 11.207 9.60234C11.029 9.80951 10.8782 10.0248 10.7518 10.2459C9.56392 12.3204 10.5101 14.8676 10.9535 15.3132L10.953 15.3129Z" fill="#E65A29"/>
<path d="M10.9527 15.3124L11.2977 15.7612L14.9514 13.4163C14.3189 12.3661 12.7458 10.5168 10.8134 10.2518C10.7927 10.2492 10.7721 10.2468 10.7513 10.2451C9.56334 12.3195 10.5096 14.8668 10.9529 15.3124H10.9527Z" fill="#FFD7A3"/>
<path fill-rule="evenodd" clip-rule="evenodd" d="M11.5727 9.91677C11.7672 9.69044 12.0523 9.57943 12.3232 9.61664L12.3233 9.61666C13.1811 9.73422 13.9901 10.219 14.6748 10.8311C15.1886 11.2903 15.6103 11.8017 15.9056 12.2303L14.6905 13.0103L14.6905 13.0103L11.4285 15.1038C10.6136 13.8404 10.5322 12.7316 10.6506 11.9297C10.7165 11.4837 10.8458 11.1237 10.9572 10.8775C11.0128 10.7547 11.0636 10.6612 11.0989 10.6005C11.1165 10.5702 11.1303 10.5483 11.1387 10.5351C11.143 10.5285 11.1459 10.5241 11.1473 10.522C11.1477 10.5214 11.148 10.521 11.1482 10.5208C11.1561 10.5093 11.1636 10.4974 11.1706 10.4853C11.2817 10.2908 11.4148 10.1006 11.5727 9.91677ZM10.3414 9.99008C10.4811 9.74804 10.6466 9.51299 10.8402 9.28751L10.8403 9.28737C11.2323 8.83128 11.8349 8.57494 12.4545 8.65997M10.3414 9.99008C10.3372 9.99644 10.3321 10.0041 10.3264 10.0131C10.3107 10.0375 10.2896 10.0714 10.2645 10.1145C10.2144 10.2005 10.1481 10.3233 10.0776 10.4792C9.93666 10.7904 9.77675 11.2372 9.69534 11.7887C9.53082 12.9031 9.69308 14.4106 10.9059 16.0438C10.9211 16.0649 10.938 16.0848 10.9567 16.1035L10.957 16.1037C11.1241 16.2703 11.3847 16.2903 11.5742 16.1577L15.2121 13.823L15.2121 13.823L16.8319 12.7832C17.0493 12.6437 17.1183 12.3578 16.9886 12.1344C16.6649 11.5771 16.0828 10.7945 15.3184 10.1112C14.557 9.43058 13.5756 8.81366 12.4546 8.65999M11.1483 10.5205L11.1483 10.5205L11.1483 10.5205Z" fill="#151515"/>
<path d="M27.981 11.7929L29.2211 13.3153L31.5907 16.2245L31.9384 16.6513L32.0305 16.5887L32.406 16.3321C32.9741 16.0422 34.7083 13.858 34.1527 11.4766C34.1025 11.2613 34.0337 11.044 33.9433 10.8265C33.7709 10.411 33.4062 10.0983 32.9638 10.0177C30.9989 9.65949 28.8746 10.9968 27.9812 11.7931L27.981 11.7929Z" fill="#E65A29"/>
<path d="M29.2211 13.3153L31.5907 16.2244L32.0305 16.5887L32.406 16.3321C32.9741 16.0422 34.7083 13.8579 34.1527 11.4766C33.9141 11.2737 33.6103 11.1562 33.2911 11.161C31.6418 11.1862 30.1108 12.3669 29.2214 13.3155L29.2211 13.3153Z" fill="#FFD7A3"/>
<path fill-rule="evenodd" clip-rule="evenodd" d="M30.2646 10.9142C31.1059 10.5457 32.0256 10.3368 32.8773 10.4922C32.8811 10.4929 32.885 10.4936 32.8888 10.4942C33.1537 10.5468 33.3849 10.7397 33.4976 11.0109L33.4976 11.011C33.9758 12.1624 33.7823 13.3173 33.3734 14.2491C33.1696 14.7138 32.9167 15.1112 32.6825 15.4071C32.4345 15.7204 32.2459 15.8715 32.1872 15.9015C32.1688 15.9108 32.1511 15.9213 32.1341 15.933L32.0329 16.0021L28.6594 11.8606C29.0735 11.5453 29.6334 11.1906 30.2646 10.9142ZM33.0347 9.53942C31.9267 9.34186 30.8082 9.62186 29.8772 10.0296C28.938 10.441 28.1411 11.0035 27.6601 11.4322C27.4673 11.6041 27.4439 11.8973 27.607 12.0976L31.5645 16.956C31.723 17.1505 32.004 17.1912 32.2112 17.0497L32.6574 16.7449C32.9013 16.6096 33.1825 16.3312 33.4397 16.0063C33.7219 15.6498 34.0187 15.1819 34.2577 14.6371C34.7346 13.5503 34.9998 12.1103 34.3894 10.6407C34.3894 10.6407 34.3894 10.6407 34.3894 10.6406C34.1588 10.0853 33.6658 9.65441 33.0507 9.54206C33.0454 9.54109 33.04 9.54021 33.0347 9.53942Z" fill="#151515"/>
<path d="M23.4384 8.5371C22.9415 7.69832 22.0265 7.13505 20.9825 7.13697C20.3535 7.13817 19.8454 7.65108 19.8454 8.28029V9.36989C19.8454 9.47588 19.7399 9.54901 19.6408 9.51256L18.7673 9.18957C18.1966 8.97855 17.5542 9.05648 17.0489 9.39747C16.5459 9.73725 16.2473 10.2775 16.2298 10.8794C16.2298 11.0249 16.3624 11.6054 16.3624 11.6054C16.0119 12.1119 14.734 13.0773 13.6427 13.7964C13.642 13.7969 13.6415 13.7971 13.6411 13.7974C13.6243 13.8086 13.6072 13.8197 13.5902 13.8307C13.3317 13.9986 13.0711 14.1813 12.8104 14.3762C12.809 14.3772 12.8078 14.3784 12.8063 14.3793C10.6979 15.9562 8.60595 18.3078 7.68156 19.854C7.67821 19.8597 7.67461 19.8655 7.67125 19.871C7.40077 20.3187 7.16194 20.7863 6.95644 21.2723C6.38406 22.6255 6.09415 24.0625 6.09415 25.5437V25.6929C6.09415 25.8178 5.9944 25.919 5.86971 25.9226C5.83806 25.9235 5.80665 25.9245 5.77499 25.9257C5.04052 25.9564 4.56909 26.0928 4.3739 26.3307C4.28662 26.4369 4.1943 26.6223 4.24993 26.9012C4.34249 27.3659 4.82183 27.9049 5.1712 28.2291C5.17168 28.2298 5.17168 28.2308 5.1712 28.231C4.96618 28.3277 4.77243 28.4643 4.66261 28.6567C4.56645 28.8247 4.54463 29.018 4.59978 29.2158C4.71441 29.6283 5.40116 30.2822 5.69107 30.5443C5.94237 30.7711 6.24642 31.0215 6.53609 31.2224C6.57709 31.2509 6.6073 31.2927 6.62265 31.3401C6.69171 31.555 6.76796 31.7679 6.85141 31.9789C6.88522 32.0655 6.92047 32.1518 6.95692 32.2377C7.50963 33.5445 8.30094 34.7181 9.30853 35.7254C10.3161 36.7333 11.4897 37.5243 12.7963 38.077C13.0164 38.1703 13.2389 38.2559 13.4634 38.3341L13.4593 38.3446C13.5015 38.3607 14.5127 38.7516 16.0922 39.1367C19.5845 39.9884 24.1115 39.646 26.5065 39.3652C27.8416 39.2086 29.1569 38.912 30.4285 38.4756C30.6172 38.4108 30.7373 38.3662 30.7793 38.3504C30.7805 38.3504 30.7815 38.3497 30.7822 38.3492C31.0217 38.2672 31.2589 38.1765 31.4936 38.077C32.8005 37.5243 33.974 36.733 34.9814 35.7254C35.9892 34.7178 36.7803 33.5443 37.333 32.2377C37.3793 32.1281 37.4239 32.0175 37.4663 31.907C37.5287 31.7459 37.5869 31.5835 37.6411 31.4202C37.6574 31.3713 37.6891 31.3291 37.7322 31.3008C38.0548 31.0888 38.4077 30.8016 38.6926 30.544C38.9828 30.282 39.6695 29.6283 39.7841 29.2156C39.839 29.0178 39.8172 28.8245 39.7211 28.6564C39.611 28.4641 39.4177 28.3277 39.2125 28.2308C39.2118 28.2308 39.2118 28.2296 39.2125 28.2289C39.5621 27.9049 40.0412 27.3656 40.1337 26.9009C40.1894 26.622 40.0971 26.4367 40.01 26.3305C39.8146 26.0926 39.3434 25.9561 38.6089 25.9255C38.5475 25.9228 38.4854 25.9211 38.4226 25.9204C38.2967 25.9185 38.1955 25.8166 38.1955 25.6907V25.5435C38.1955 24.0623 37.9054 22.6252 37.3332 21.2721C37.2563 21.0903 37.175 20.9114 37.0887 20.7352C37.0877 20.7333 37.086 20.7297 37.0834 20.7242C37.0824 20.7225 37.0815 20.7206 37.0805 20.7182C37.0776 20.7122 37.0738 20.7045 37.0692 20.6956C37.0678 20.693 37.0664 20.6899 37.0647 20.6868C37.0616 20.6805 37.058 20.6736 37.0544 20.6661C36.9381 20.4398 36.5304 19.6832 35.7672 18.6574C35.7331 18.6119 35.6988 18.5661 35.6633 18.5193C34.8274 17.4165 33.4295 15.8253 31.4188 14.3283C31.2797 14.2247 31.1378 14.1216 30.9927 14.0192C30.9901 14.0173 30.9738 14.0055 30.944 13.9846C30.4719 13.6513 27.5707 11.499 25.7327 10.3389C25.7274 10.3355 24.8481 9.82453 24.8534 9.82789" fill="#E65A29"/>
<path d="M36.6741 43.6944C36.4043 44.2752 36.0195 44.8478 35.6066 45.2511L35.6061 45.2516C35.5648 45.292 35.5234 45.3304 35.4821 45.3665C35.3556 45.4627 35.1997 45.5214 35.0273 45.5261L35.0269 45.5261C34.8275 45.5316 34.644 45.4631 34.5011 45.3445C34.4763 45.3211 34.4476 45.2942 34.4176 45.2671C34.4171 45.2666 34.4166 45.2662 34.4161 45.2658L33.9134 45.8224C33.1976 45.1695 32.4137 45.3886 31.5131 45.6403C31.0127 45.7802 30.4762 45.9302 29.8955 45.9461L36.6741 43.6944ZM36.6741 43.6944C36.1601 42.4937 35.4296 41.4153 34.5008 40.4868L34.5007 40.4866C33.5612 39.5469 32.4684 38.8104 31.2511 38.2955L31.2507 38.2953C31.046 38.2086 30.8388 38.1289 30.6296 38.056L30.3473 37.9577C30.2382 37.9246 30.0949 37.8812 29.9161 37.8274C29.4588 37.6896 28.8118 37.4959 28.0333 37.2639C24.5166 36.2162 20.9416 36.2839 18.0002 36.9559C18.0002 36.9559 18.0002 36.9559 18.0002 36.9559L17.8331 36.2248M36.6741 43.6944L9.35823 39.9564C10.3656 38.9488 11.5391 38.1575 12.846 37.6048C13.0807 37.5052 13.3179 37.4146 13.5574 37.3326L13.5603 37.3314M17.8331 36.2248C17.5361 36.2926 17.2376 36.3577 16.9387 36.4229C15.9187 36.6454 14.8946 36.8687 13.9111 37.2062C13.7224 37.271 13.6023 37.3156 13.5603 37.3314M17.8331 36.2248C20.8852 35.5275 24.5926 35.4562 28.2474 36.5451C29.0429 36.7821 29.7014 36.9794 30.161 37.1178L17.8331 36.2248ZM13.5603 37.3314L13.8493 38.0235L13.8464 38.0247L13.8367 38.0287C13.8322 38.0304 13.8282 38.0319 13.825 38.0331L13.5918 37.415L13.5603 37.3314ZM20.1476 48.1872C20.132 48.1452 20.1159 48.103 20.0994 48.0615L20.1476 48.1872ZM20.1476 48.1872C20.2497 48.4663 20.4082 48.7185 20.6094 48.9298L20.1476 48.1872ZM8.72541 45.2514C8.76753 45.2926 8.80878 45.3309 8.84934 45.3665L7.69736 43.7363C7.69416 43.7439 7.69097 43.7515 7.68779 43.7591C7.95638 44.3187 8.32792 44.8635 8.72457 45.2506L8.72541 45.2514Z" fill="#E65A29" stroke="#151515" stroke-width="1.5"/>
<path d="M6.87361 31.9788C6.90742 32.0654 6.94267 32.1517 6.97912 32.2375C7.53184 33.5444 8.32314 34.7179 9.33074 35.7253C10.3383 36.7331 11.5119 37.5242 12.8185 38.0769C13.0386 38.1702 13.2611 38.2558 13.4856 38.3339L13.4815 38.3445C13.5237 38.3606 14.5562 38.6723 16.1144 39.1365C19.7693 40.2254 23.4767 40.1542 26.5287 39.4569C27.8394 39.1574 29.1791 38.9118 30.4507 38.4754C30.6394 38.4107 30.7595 38.3661 30.8015 38.3502C30.8027 38.3502 30.8037 38.3495 30.8044 38.349C31.0439 38.267 31.2811 38.1764 31.5158 38.0769C32.8227 37.5242 33.9962 36.7329 35.0036 35.7253C36.0114 34.7177 36.8025 33.5441 37.3552 32.2375C37.4015 32.1279 37.4461 32.0174 37.4885 31.9068C37.1857 31.1788 36.7063 30.4264 36.161 29.8943C36.1042 29.8387 36.0469 29.7857 35.9889 29.7356C35.7376 29.5372 35.4225 29.4152 35.0779 29.4058C34.6794 29.3948 34.3123 29.5363 34.032 29.7773L34.0315 29.7778C34.0025 29.8051 33.9734 29.8324 33.9437 29.8593C32.8301 30.875 31.337 31.4774 29.7112 31.4328C27.2212 31.3647 25.125 29.7979 24.2624 27.6201C24.2459 27.5786 24.2298 27.5364 24.2142 27.4945C24.2142 27.4945 24.2142 27.4945 24.2142 27.494C24.1121 27.2149 23.9536 26.9631 23.7524 26.7519C23.3973 26.395 22.9678 26.1473 22.3492 26.0922C22.2998 26.0888 22.2499 26.0869 22.1998 26.0869H22.1923C22.142 26.0869 22.0921 26.0888 22.0429 26.0922C21.4243 26.1473 20.9948 26.3948 20.6397 26.7519C20.4385 26.9631 20.28 27.2151 20.1779 27.494V27.4945C20.1623 27.5364 20.1462 27.5786 20.1297 27.6201C19.2671 29.7979 17.1709 31.3647 14.6809 31.4328C13.0552 31.4774 11.562 30.875 10.4484 29.8593C10.4187 29.8324 10.3897 29.8051 10.3606 29.7778L10.3602 29.7773C10.0801 29.5363 9.71272 29.3948 9.31419 29.4058C8.96938 29.4152 8.65429 29.5372 8.40323 29.7356C8.3452 29.7857 8.28765 29.8387 8.23106 29.8941C7.66804 30.4441 7.17503 31.2285 6.87457 31.9785L6.87361 31.9788Z" fill="#FFD7A3"/>
<path d="M3.79631 26.9915C3.88071 27.4157 4.17421 27.8365 4.46196 28.1636C4.38211 28.2446 4.31497 28.3324 4.26102 28.4266C4.10419 28.7007 4.06631 29.0249 4.15407 29.3397C4.26198 29.7284 4.67489 30.2495 5.38083 30.8871C5.65516 31.1346 5.9453 31.3696 6.20619 31.5556C6.27142 31.7537 6.34359 31.953 6.4208 32.1486C6.45317 32.2321 6.48914 32.3206 6.53039 32.4177C7.1066 33.7799 7.931 35.0028 8.98104 36.0524C10.0306 37.1024 11.2535 37.9268 12.6155 38.5031C12.8122 38.5863 13.0124 38.6644 13.2126 38.7361C13.238 38.7522 13.2654 38.7661 13.2941 38.7769L13.2968 38.7781C13.4817 38.8486 14.4794 39.22 15.9822 39.5862C16.8154 39.7895 17.7096 39.8603 18.5743 39.9286C18.6983 39.9382 18.8227 39.948 18.9472 39.9586C18.9601 39.9595 18.9728 39.9603 18.9855 39.9603C19.2239 39.9603 19.426 39.7773 19.4459 39.5356C19.4668 39.2812 19.2774 39.0577 19.023 39.0368C18.8975 39.0265 18.7721 39.0167 18.647 39.0069C17.7806 38.9385 16.9622 38.8738 16.2011 38.6879C14.917 38.375 14.0248 38.0618 13.7164 37.948C13.685 37.9273 13.6507 37.9103 13.6145 37.8978C13.4006 37.8235 13.186 37.7408 12.9759 37.6516C11.7238 37.1219 10.5999 36.3641 9.63495 35.399C8.66955 34.4338 7.91158 33.3097 7.38212 32.058C7.34472 31.969 7.31162 31.8885 7.28165 31.8112C7.20156 31.6079 7.12794 31.4026 7.06224 31.1988C7.01548 31.0542 6.92196 30.9279 6.79871 30.8425C6.55317 30.672 6.2695 30.4442 6.00045 30.2013C5.40625 29.6647 5.08877 29.2503 5.04489 29.0923C5.02283 29.0139 5.02906 28.947 5.06359 28.8868C5.11155 28.8028 5.21682 28.7211 5.36813 28.6499C5.48035 28.5969 5.56763 28.5005 5.60863 28.3815C5.65515 28.2463 5.63645 28.0957 5.5578 27.9761C5.53742 27.9449 5.51296 27.9161 5.48538 27.8907C5.06287 27.4989 4.7557 27.0752 4.70319 26.8116C4.68137 26.7013 4.7087 26.6522 4.73124 26.6248C4.73796 26.6167 4.90461 26.4258 5.79423 26.3884C5.82421 26.3872 5.85346 26.3862 5.88295 26.3855C6.26038 26.3752 6.55629 26.0712 6.55629 25.6935V25.5443C6.55629 24.1253 6.8342 22.7486 7.38212 21.4533C7.57707 20.9919 7.80703 20.5414 8.06528 20.1136C8.06888 20.1076 8.07296 20.1014 8.07655 20.0951L8.07775 20.093C8.53239 19.3326 9.26447 18.3917 10.1399 17.4426C11.0936 16.4081 12.1115 15.4775 13.0831 14.7504C13.0858 14.7483 13.0884 14.7466 13.0913 14.7445C13.3459 14.5541 13.5987 14.3776 13.8421 14.2193C13.8581 14.209 13.8744 14.1985 13.8905 14.1877C13.8965 14.1841 13.9022 14.18 13.9078 14.1762C13.909 14.1754 13.9099 14.1747 13.9109 14.1738L13.9723 14.1301C15.1175 13.3141 15.8786 12.7717 16.3539 12.3137C16.5903 12.5158 16.8996 12.6602 17.2862 12.7528C17.7362 12.8602 18.2995 12.9026 19.0361 12.9026C19.6126 12.9026 20.2948 12.8767 21.1125 12.8352C21.3676 12.8223 21.564 12.605 21.5511 12.3499C21.5379 12.0948 21.3209 11.8986 21.0657 11.9116C19.3308 11.9993 18.1914 12.0178 17.501 11.8531C16.9413 11.7193 16.743 11.5071 16.6912 10.9819C16.6912 10.9814 16.6912 10.981 16.6912 10.9807C16.69 10.9553 16.69 10.9301 16.6912 10.9059C16.721 10.3824 16.8996 10.0566 17.3077 9.78105C17.69 9.52303 18.1753 9.46428 18.6067 9.62374L19.4802 9.94674C19.6694 10.0163 19.8802 9.98918 20.0449 9.87432C20.2094 9.75946 20.3077 9.57099 20.3077 9.37029V8.28068C20.3077 7.90613 20.6106 7.60064 20.9832 7.59992H20.9883C21.7422 7.59992 22.0647 7.89822 22.8411 8.61639C22.9313 8.69983 23.026 8.7876 23.1265 8.87944C23.6451 9.34942 25.0266 10.475 25.0853 10.5227C25.0877 10.5246 25.0899 10.5266 25.0925 10.5282C25.0983 10.5328 25.104 10.5371 25.11 10.5414C25.1127 10.5436 25.1155 10.5455 25.1184 10.5474C26.309 11.3778 27.9705 12.5118 29.1836 13.3398C29.9192 13.8419 30.5 14.2383 30.677 14.3634C30.7014 14.3805 30.7163 14.391 30.7216 14.3946C30.7228 14.3956 30.7242 14.3968 30.7254 14.3975C30.8631 14.4946 31.0033 14.5963 31.1422 14.6999C33.124 16.1753 34.494 17.7435 35.2944 18.7993C35.3291 18.8453 35.3629 18.8902 35.3963 18.9348C36.1358 19.9287 36.5331 20.6653 36.6403 20.8737C36.6444 20.8821 36.6485 20.8903 36.6523 20.8977C36.6537 20.9003 36.6549 20.9032 36.6564 20.9059C36.6564 20.9063 36.6569 20.9068 36.6571 20.9073L36.665 20.9229C36.6664 20.9255 36.6676 20.9284 36.6688 20.931C36.6705 20.9341 36.6717 20.937 36.6729 20.9394C36.7537 21.1044 36.8326 21.2773 36.907 21.4533C37.4549 22.7486 37.7328 24.125 37.7328 25.5441V25.6913C37.7328 26.0676 38.0392 26.3781 38.4155 26.3836C38.4709 26.3841 38.527 26.3858 38.5896 26.3882C39.4787 26.4256 39.6456 26.6167 39.6523 26.6246C39.6744 26.6517 39.7017 26.7011 39.6799 26.8114C39.6274 27.0749 39.3202 27.4989 38.8977 27.8904C38.8713 27.9149 38.8481 27.942 38.8282 27.9715C38.7478 28.0912 38.7277 28.2425 38.7737 28.3789C38.8142 28.4988 38.902 28.5964 39.0154 28.6496C39.091 28.6851 39.155 28.7235 39.2063 28.7633C39.2576 28.8033 39.296 28.8448 39.3197 28.8865C39.3542 28.9467 39.3605 29.0141 39.3387 29.0923C39.295 29.2498 38.9773 29.6642 38.3829 30.2011C38.0757 30.4785 37.746 30.7387 37.4781 30.9147C37.3501 30.9986 37.2518 31.1264 37.2024 31.2744C37.1508 31.4295 37.0947 31.5866 37.035 31.7408C36.9942 31.8472 36.9511 31.9537 36.9072 32.0578C36.3775 33.3099 35.6198 34.4338 34.6546 35.3987C33.6897 36.3641 32.5653 37.1221 31.3136 37.6516C31.0901 37.7463 30.8609 37.8338 30.6324 37.912C30.6269 37.9141 30.6213 37.9158 30.6161 37.918C30.5849 37.93 30.4681 37.9734 30.2782 38.0386C29.0478 38.4609 27.7609 38.7529 26.4524 38.9064C26.0095 38.9582 25.5582 39.0047 25.1105 39.0443C24.8561 39.0668 24.6681 39.2913 24.6906 39.5457C24.7117 39.7864 24.9136 39.9672 25.1505 39.9672C25.1642 39.9672 25.1779 39.9667 25.1918 39.9655C25.6479 39.925 26.1083 39.8778 26.5598 39.8248C27.9338 39.6636 29.2857 39.357 30.5782 38.9133C30.765 38.8493 30.8854 38.8047 30.9348 38.7863C30.9371 38.7853 30.9393 38.7843 30.9415 38.7836C31.1872 38.6992 31.4335 38.605 31.6738 38.5033C33.0355 37.9271 34.2585 37.1027 35.308 36.0526C36.3581 35.0031 37.1825 33.7802 37.7587 32.4182C37.8069 32.3045 37.8536 32.1882 37.8978 32.0731C37.9529 31.9307 38.0054 31.7858 38.0543 31.6417C38.4474 31.3751 38.8133 31.0581 39.0025 30.8876C39.7087 30.2495 40.1216 29.7287 40.2297 29.3397C40.317 29.0249 40.2789 28.7009 40.1223 28.4271C40.0683 28.3329 40.0012 28.2451 39.9214 28.164C40.2089 27.837 40.5024 27.4161 40.587 26.992C40.658 26.6363 40.5798 26.2978 40.3676 26.0383C40.0796 25.6877 39.536 25.5057 38.6574 25.4652C38.6473 23.9495 38.345 22.4789 37.7587 21.0926C37.6779 20.902 37.5928 20.7145 37.505 20.5354C37.505 20.5347 37.5043 20.5342 37.504 20.5335C37.504 20.533 37.504 20.5327 37.5036 20.5325C37.5028 20.5308 37.5021 20.5296 37.5012 20.5282C37.5002 20.5258 37.499 20.5234 37.4978 20.5205L37.4959 20.5169C37.4959 20.5169 37.4949 20.5152 37.4947 20.5145L37.4916 20.508C37.4916 20.508 37.4908 20.5066 37.4904 20.5059C37.4877 20.4999 37.4841 20.4929 37.4803 20.4855L37.4769 20.4788C37.476 20.4771 37.4753 20.4757 37.4745 20.4742C37.4729 20.4714 37.4714 20.4682 37.4697 20.4646C37.4683 20.4618 37.4669 20.4584 37.4652 20.4555C37.3211 20.1752 36.9036 19.4112 36.1375 18.3818C36.1022 18.3348 36.0672 18.2878 36.0312 18.2403C35.1949 17.1371 33.7633 15.4986 31.6944 13.9579C31.5493 13.85 31.4028 13.7436 31.2592 13.6421C31.251 13.6364 31.2347 13.6246 31.21 13.6074C31.0271 13.4781 30.4724 13.0995 29.7049 12.5758C28.4958 11.7507 26.8408 10.621 25.6546 9.79399C25.504 9.67098 24.2206 8.62286 23.7487 8.19508C23.6509 8.10587 23.5576 8.01955 23.4689 7.93754C22.6474 7.17765 22.104 6.67505 20.988 6.67505H20.9813C20.0998 6.67673 19.3826 7.39682 19.3826 8.28068V8.92452L18.9273 8.75618C18.2175 8.49361 17.4185 8.59025 16.7898 9.0142C16.1388 9.45421 15.8138 10.0386 15.7676 10.8534C15.7642 10.9124 15.7645 10.9714 15.7676 11.0294C15.7676 11.0335 15.7676 11.0375 15.768 11.0414C15.7776 11.2167 15.8112 11.3814 15.846 11.5114C15.4647 11.9308 14.6633 12.5017 13.4354 13.3767L13.3833 13.4139C13.3687 13.4237 13.3536 13.4335 13.3385 13.4434C13.0776 13.6126 12.8083 13.8011 12.5371 14.0037C12.5318 14.0076 12.5273 14.0114 12.523 14.0145C10.2788 15.6945 8.18949 18.1039 7.28476 19.6172L7.27949 19.6261C7.27805 19.6283 7.27685 19.6302 7.27565 19.6323C6.9939 20.0985 6.74308 20.59 6.53063 21.0926C5.94362 22.4806 5.64148 23.9529 5.63189 25.4702C4.80846 25.5189 4.29315 25.7004 4.01643 26.0378C3.8035 26.297 3.72557 26.6361 3.79631 26.992V26.9915Z" fill="#151515"/>
<path d="M14.4614 30.069C11.9968 30.0014 10.0535 27.9488 10.1214 25.4842C10.1888 23.0197 12.2416 21.0767 14.7059 21.144C17.1707 21.2117 19.1138 23.2643 19.0461 25.7288C18.9785 28.1934 16.9259 30.1364 14.4614 30.069Z" fill="#FFF8F1"/>
<path d="M14.5873 30.5428C15.8544 30.5428 17.0531 30.0658 17.977 29.1913C18.9345 28.2849 19.4817 27.0601 19.5176 25.7422C19.5538 24.4243 19.0745 23.1712 18.1681 22.2137C17.2617 21.2562 16.0368 20.709 14.7187 20.673C13.4003 20.6371 12.1477 21.1162 11.1904 22.0226C10.233 22.929 9.68576 24.1538 9.64979 25.4717C9.61358 26.7896 10.0929 28.0427 10.9993 29.0002C11.9057 29.9577 13.1308 30.5046 14.4485 30.5409C14.4947 30.5421 14.541 30.5428 14.5871 30.5428H14.5873ZM14.5808 21.6144C14.6182 21.6144 14.6556 21.6149 14.693 21.6159C16.8936 21.6763 18.635 23.5155 18.5748 25.7163C18.5455 26.7824 18.1029 27.7732 17.3286 28.5062C16.5541 29.2393 15.5407 29.6273 14.4746 29.5978C13.4085 29.5685 12.4177 29.1259 11.6846 28.3516C10.9516 27.5771 10.5639 26.5635 10.5931 25.4976C10.6224 24.4315 11.0648 23.4407 11.8393 22.7076C12.5865 22.0003 13.5564 21.6144 14.5811 21.6144H14.5808Z" fill="#151515"/>
<path d="M14.499 28.6245C12.8198 28.5784 11.4959 27.1797 11.5419 25.5005C11.5877 23.8212 12.9864 22.4971 14.6657 22.5432C16.3449 22.5892 17.6688 23.9879 17.623 25.6671C17.577 27.3464 16.1783 28.6705 14.499 28.6245Z" fill="#151515"/>
<path d="M12.0399 25.6861C12.0102 25.6816 11.95 25.6693 11.9215 25.6607L11.7855 25.6202L11.4776 25.5286C11.2882 25.4698 11.1539 25.3602 11.075 25.1991C10.9968 25.0394 10.9894 24.8564 11.0537 24.6497C11.1177 24.443 11.2263 24.2944 11.3798 24.2045C11.5318 24.115 11.703 24.0997 11.8934 24.1587L12.261 24.2726C12.4505 24.3313 12.5828 24.4418 12.6581 24.6037C12.7336 24.766 12.7384 24.9519 12.6735 25.1615C12.6164 25.3471 12.5322 25.4816 12.4188 25.5753C12.3037 25.6705 12.1773 25.7075 12.0397 25.6859L12.0399 25.6861Z" fill="#FFF8F1"/>
<path d="M29.8493 30.0693C27.3848 30.0016 25.4417 27.949 25.5091 25.4845C25.5767 23.0199 27.6293 21.0769 30.0939 21.1443C32.5585 21.2119 34.5015 23.2645 34.4341 25.7291C34.3665 28.1936 32.3139 30.1366 29.8493 30.0693Z" fill="#FFF8F1"/>
<path d="M29.9752 30.543C31.2423 30.543 32.441 30.0661 33.3649 29.1916C34.3224 28.2852 34.8696 27.0603 34.9056 25.7424C34.9418 24.4245 34.4624 23.1714 33.556 22.2139C32.6496 21.2564 31.4248 20.7092 30.1069 20.6733C27.3858 20.5985 25.1123 22.7513 25.0377 25.472C25.0015 26.7898 25.4809 28.043 26.3873 29.0005C27.2937 29.9579 28.5188 30.5049 29.8364 30.5411C29.8827 30.5423 29.929 30.543 29.9752 30.543ZM29.9704 21.6147C30.0074 21.6147 30.0443 21.6152 30.0812 21.6161C31.1473 21.6454 32.1381 22.088 32.8712 22.8623C33.6042 23.6368 33.992 24.6504 33.9627 25.7163C33.9335 26.7824 33.4908 27.7732 32.7165 28.5062C31.942 29.2393 30.9282 29.6273 29.8625 29.5978C28.7964 29.5685 27.8056 29.1259 27.0726 28.3516C26.3396 27.5771 25.9518 26.5635 25.9811 25.4976C26.0403 23.334 27.8193 21.6145 29.9704 21.6145V21.6147Z" fill="#151515"/>
<path d="M29.8877 28.6247C28.2084 28.5787 26.8843 27.18 26.9303 25.5007C26.9764 23.8215 28.3751 22.4974 30.0543 22.5434C31.7336 22.5894 33.0577 23.9881 33.0117 25.6674C32.9656 27.3466 31.5669 28.6707 29.8877 28.6247Z" fill="#151515"/>
<path d="M27.4285 25.6861C27.399 25.6816 27.3385 25.6693 27.31 25.6607L27.174 25.6202L26.8664 25.5286C26.677 25.4698 26.5427 25.3602 26.4638 25.1991C26.3854 25.0394 26.3784 24.8564 26.4424 24.6497C26.5065 24.443 26.6153 24.2944 26.7686 24.2045C26.9206 24.115 27.0918 24.0997 27.2824 24.1587L27.65 24.2726C27.8395 24.3313 27.9718 24.4418 28.0471 24.6037C28.1224 24.766 28.1274 24.9519 28.0625 25.1615C28.0051 25.3471 27.921 25.4816 27.8078 25.5753C27.6929 25.6705 27.5663 25.7075 27.4287 25.6859L27.4285 25.6861Z" fill="#FFF8F1"/>
<path d="M22.9152 29.2117C22.8605 29.2196 22.7476 29.2311 22.6929 29.2318L22.4313 29.235L21.8395 29.2419C21.4738 29.2419 21.1774 29.1223 20.9506 28.882C20.7254 28.6436 20.613 28.3252 20.6127 27.9264C20.6127 27.5277 20.7228 27.2066 20.9436 26.9641C21.1623 26.7234 21.4556 26.603 21.8232 26.6028H22.5325C22.8982 26.6023 23.1912 26.7248 23.4125 26.9689C23.6336 27.2135 23.7441 27.538 23.7444 27.9425C23.7449 28.3005 23.6703 28.5832 23.5221 28.8103C23.3717 29.041 23.1694 29.1748 22.9152 29.2122V29.2117Z" fill="#151515"/>
<path d="M34.2999 21.1427C34.3649 21.1427 34.4308 21.1291 34.4934 21.1001C34.7253 20.9929 34.8265 20.7183 34.7193 20.4864C34.4241 19.8474 34.0261 19.3899 33.5021 19.0875C33.054 18.8288 32.5027 18.6775 31.7675 18.611C31.5131 18.588 31.2884 18.7755 31.2654 19.03C31.2424 19.2844 31.4299 19.5091 31.6843 19.5321C32.8983 19.6417 33.4729 19.993 33.8798 20.8742C33.958 21.0432 34.1251 21.1427 34.2999 21.1427Z" fill="#151515"/>
<path d="M10.4974 20.6703C10.6686 20.6794 10.8384 20.5926 10.9271 20.4326C11.3976 19.5835 11.9964 19.2754 13.2152 19.255C13.4706 19.2507 13.6742 19.0404 13.6699 18.785C13.6655 18.5296 13.455 18.3263 13.1999 18.3304C12.4616 18.3426 11.9009 18.4532 11.4348 18.6783C10.89 18.9416 10.4593 19.3687 10.1181 19.9842C9.99436 20.2077 10.0752 20.489 10.2984 20.6127C10.3617 20.6477 10.4296 20.6664 10.4974 20.67V20.6703Z" fill="#151515"/>
<path d="M22.2743 32.1601C23.1243 32.1601 23.8746 31.809 24.3168 31.193C24.4657 30.9856 24.4182 30.6966 24.2108 30.5477C24.0034 30.3988 23.7144 30.4463 23.5655 30.6537C23.2691 31.0666 22.7155 31.2813 22.0843 31.2271C21.5213 31.1791 21.0161 30.9151 20.8559 30.5851C20.7444 30.3554 20.4677 30.2597 20.238 30.3713C20.0082 30.4828 19.9126 30.7595 20.0241 30.9892C20.184 31.3182 20.4689 31.6019 20.8485 31.8095C21.1887 31.9956 21.5889 32.1128 22.0059 32.1486C22.0963 32.1562 22.1863 32.1601 22.2747 32.1601H22.2743Z" fill="#151515"/>
</g>
<defs>
<clipPath id="clip0_2012_1505">
<rect x="0.333374" y="0.487549" width="44" height="44" rx="22" fill="white"/>
</clipPath>
</defs>
</svg>
