<svg width="33" height="33" viewBox="0 0 33 33" fill="none" xmlns="http://www.w3.org/2000/svg">
<path d="M21.8668 1.73657C21.987 3.36215 21.4906 4.97223 20.4828 6.2249C20.0003 6.84637 19.3878 7.34636 18.6916 7.68722C17.9954 8.02807 17.2336 8.20091 16.4635 8.1927C16.4144 7.41097 16.5145 6.62688 16.7582 5.88526C17.0019 5.14364 17.3844 4.45902 17.8837 3.87054C18.9051 2.66594 20.3272 1.90401 21.8668 1.73657Z" fill="black"/>
<path d="M24.6753 13.5679C24.1636 14.5014 23.8883 15.5537 23.875 16.6269C23.8762 17.8341 24.2206 19.0142 24.8653 20.0201C25.5099 21.026 26.4262 21.8132 27.5 22.2834C27.0778 23.7035 26.4415 25.0456 25.6145 26.2599C24.5038 27.9802 23.3394 29.6608 21.4911 29.6919C20.6121 29.7129 20.0188 29.4512 19.4005 29.1785C18.7556 28.894 18.0835 28.5975 17.0319 28.5975C15.9166 28.5975 15.2145 28.9035 14.5373 29.1986C13.9521 29.4536 13.3856 29.7005 12.5871 29.7348C10.8269 29.8023 9.48175 27.8987 8.33074 26.1946C6.03022 22.7143 4.23884 16.3867 6.64044 12.0813C7.19485 11.0497 7.99788 10.1843 8.97128 9.56964C9.94468 8.95495 11.0553 8.61182 12.1948 8.5737C13.1931 8.55243 14.151 8.95085 14.9909 9.30015C15.6331 9.56729 16.2064 9.8057 16.6758 9.8057C17.0884 9.8057 17.6456 9.5767 18.295 9.30982C19.3179 8.88943 20.5696 8.37503 21.8451 8.51366C22.8227 8.54533 23.7796 8.81258 24.64 9.29419C25.5003 9.7758 26.2403 10.4585 26.8013 11.2881C25.9183 11.8502 25.1869 12.6345 24.6753 13.5679Z" fill="black"/>
</svg>
