<svg width="32" height="33" viewBox="0 0 32 33" fill="none" xmlns="http://www.w3.org/2000/svg">
<path d="M16.1396 15.586L4.11133 28.3271C4.11244 28.3292 4.11244 28.3327 4.11355 28.3348C4.48298 29.7184 5.74829 30.7366 7.25087 30.7366C7.85189 30.7366 8.41565 30.5742 8.89919 30.2901L8.93755 30.2674L22.4764 22.4708L16.1396 15.586Z" fill="#EB3131"/>
<path d="M28.3072 13.4167L28.2958 13.4087L22.4505 10.0272L15.8652 15.8757L22.4741 22.4695L28.2878 19.1219C29.3068 18.5715 29.9995 17.4994 29.9995 16.2635C29.9995 15.0345 29.3169 13.9678 28.3072 13.4167Z" fill="#F6B60B"/>
<path d="M4.11066 4.14546C4.03837 4.41148 4 4.69117 4 4.97981V27.4941C4 27.7828 4.03836 28.0623 4.11186 28.3274L16.5525 15.9122L4.11066 4.14546Z" fill="#5778C5"/>
<path d="M16.2289 16.2366L22.4537 10.025L8.93073 2.20006C8.43937 1.90576 7.86546 1.73658 7.252 1.73658C5.74949 1.73658 4.4819 2.75708 4.11244 4.14162C4.11244 4.1428 4.11133 4.14398 4.11133 4.14492L16.2289 16.2366Z" fill="#3BAD49"/>
</svg>
