<svg width="123" height="81" viewBox="0 0 123 81" fill="none" xmlns="http://www.w3.org/2000/svg">
<circle cx="86.5295" cy="40.5" r="36" fill="url(#paint0_linear_2012_1315)"/>
<path d="M73.71 30.899L78.3867 30.2324V49.1923C78.3867 50.994 77.7255 52.4478 76.4029 53.5536C75.0694 54.671 73.2953 55.2296 71.0809 55.2296C69.0971 55.2296 67.4666 54.8081 66.1894 53.9637C64.9111 53.1308 64.1676 51.9678 63.9578 50.4747C63.9136 50.1217 63.8916 49.5669 63.8977 49.3117H68.5229C68.5229 49.3117 68.5278 49.4437 68.5339 49.5923C68.5487 49.9262 68.6382 50.2551 68.8112 50.5357C69.2148 51.1895 69.9546 51.5171 71.0306 51.5171C71.8342 51.5171 72.4795 51.2771 72.9641 50.7985C73.4376 50.3198 73.6744 49.6977 73.6744 48.9346V45.2056H73.3935C73.0733 46.0499 72.5065 46.7165 71.6906 47.2066C70.8527 47.7081 69.9227 47.9595 68.8971 47.9595C67.3218 47.9595 66.0385 47.4351 65.046 46.3864C64.0547 45.3376 63.5591 43.9575 63.5591 42.2473V36.2608C63.5591 34.5506 64.0547 33.1704 65.046 32.1217C66.0373 31.0729 67.3267 30.5486 68.913 30.5486C70.0037 30.5486 70.9398 30.8114 71.7225 31.3358C72.5163 31.8601 73.0831 32.5496 73.4254 33.4053H73.7063V30.9003L73.71 30.899ZM70.9165 43.4268C71.7323 43.4268 72.3924 43.1817 72.9003 42.6917C73.407 42.2016 73.6609 41.5858 73.6609 40.8443V37.7311C73.6609 37.0124 73.407 36.4081 72.9003 35.918C72.3936 35.4279 71.7323 35.1828 70.9165 35.1828C70.1006 35.1828 69.4835 35.4165 68.9989 35.8837C68.5143 36.3509 68.2714 36.9782 68.2714 37.7654V40.81C68.2714 41.6086 68.5131 42.2587 68.9989 42.7259C69.4835 43.1932 70.1227 43.4268 70.9165 43.4268Z" fill="black"/>
<path d="M85.4553 41.3322L85.4655 42.4942C85.4745 43.2826 85.7514 43.9093 86.2949 44.3768C86.8385 44.8444 87.5467 45.0725 88.417 45.0625C89.7006 45.0487 90.5377 44.6513 90.9307 43.8692C91.1247 43.4393 91.1566 43.0946 91.1566 43.0946L94.8698 43.0971C95.2015 43.0933 96.008 43.0933 96.008 43.0933C95.971 43.5859 95.9442 43.8028 95.9021 44.1186C95.7005 45.5839 94.9298 46.7584 93.5874 47.6396C92.268 48.5095 90.6143 48.9557 88.5178 48.9795C86.1456 49.0058 84.2367 48.3904 82.7897 47.1344C81.3427 45.8785 80.6077 44.1976 80.5835 42.0931L80.5363 37.9391C80.512 35.8233 81.1972 34.1274 82.5932 32.8501C83.9994 31.5628 85.8713 30.906 88.209 30.8797C90.5466 30.8534 92.4211 31.4814 93.8349 32.7599C95.259 34.0509 95.9837 35.7481 96.0067 37.8526V41.331H85.4553V41.3322ZM88.2358 34.8105H88.2192C87.3936 34.8193 86.7211 35.0574 86.1992 35.525C85.6888 35.9812 85.4374 36.5578 85.4464 37.345L85.4566 38.2224H91.043L91.0328 37.3462C91.0239 36.5591 90.7648 35.9361 90.2557 35.4799C89.7466 35.0236 89.0728 34.8005 88.237 34.8093L88.2358 34.8105Z" fill="black"/>
<path d="M108.687 36.3584V32.0087H104.808L104.81 31.299V27L100.094 27.6578V32.0087H96.8677V36.3584H99.8545V43.8131C99.8545 45.3048 100.344 46.5 101.322 47.3985C102.312 48.3098 103.613 48.7648 105.224 48.7648H107.641V44.258H106.588C106.013 44.258 105.569 44.0983 105.259 43.7802C104.949 43.4506 104.792 43.0235 104.792 42.5001V36.3596H108.686L108.687 36.3584Z" fill="black"/>
<g filter="url(#filter0_d_2012_1315)">
<circle cx="37.5295" cy="40.5" r="36" fill="#D9D9D9"/>
<circle cx="37.5295" cy="40.5" r="36" fill="url(#paint1_linear_2012_1315)"/>
</g>
<path d="M24.71 30.899L29.3867 30.2324V49.1923C29.3867 50.994 28.7255 52.4478 27.4029 53.5536C26.0694 54.671 24.2953 55.2296 22.0809 55.2296C20.0971 55.2296 18.4666 54.8081 17.1894 53.9637C15.9111 53.1308 15.1676 51.9678 14.9578 50.4747C14.9136 50.1217 14.8916 49.5669 14.8977 49.3117H19.5229C19.5229 49.3117 19.5278 49.4437 19.5339 49.5923C19.5487 49.9262 19.6382 50.2551 19.8112 50.5357C20.2148 51.1895 20.9546 51.5171 22.0306 51.5171C22.8342 51.5171 23.4795 51.2771 23.9641 50.7985C24.4376 50.3198 24.6744 49.6977 24.6744 48.9346V45.2056H24.3935C24.0733 46.0499 23.5065 46.7165 22.6906 47.2066C21.8527 47.7081 20.9227 47.9595 19.8971 47.9595C18.3218 47.9595 17.0385 47.4351 16.046 46.3864C15.0547 45.3376 14.5591 43.9575 14.5591 42.2473V36.2608C14.5591 34.5506 15.0547 33.1704 16.046 32.1217C17.0373 31.0729 18.3267 30.5486 19.913 30.5486C21.0037 30.5486 21.9398 30.8114 22.7225 31.3358C23.5163 31.8601 24.0831 32.5496 24.4254 33.4053H24.7063V30.9003L24.71 30.899ZM21.9165 43.4268C22.7323 43.4268 23.3924 43.1817 23.9003 42.6917C24.407 42.2016 24.6609 41.5858 24.6609 40.8443V37.7311C24.6609 37.0124 24.407 36.4081 23.9003 35.918C23.3936 35.4279 22.7323 35.1828 21.9165 35.1828C21.1006 35.1828 20.4835 35.4165 19.9989 35.8837C19.5143 36.3509 19.2714 36.9782 19.2714 37.7654V40.81C19.2714 41.6086 19.5131 42.2587 19.9989 42.7259C20.4835 43.1932 21.1227 43.4268 21.9165 43.4268Z" fill="black"/>
<path d="M36.4553 41.3322L36.4655 42.4942C36.4745 43.2826 36.7514 43.9093 37.2949 44.3768C37.8385 44.8444 38.5467 45.0725 39.417 45.0625C40.7006 45.0487 41.5377 44.6513 41.9307 43.8692C42.1247 43.4393 42.1566 43.0946 42.1566 43.0946L45.8698 43.0971C46.2015 43.0933 47.008 43.0933 47.008 43.0933C46.971 43.5859 46.9442 43.8028 46.9021 44.1186C46.7005 45.5839 45.9298 46.7584 44.5874 47.6396C43.268 48.5095 41.6143 48.9557 39.5178 48.9795C37.1456 49.0058 35.2367 48.3904 33.7897 47.1344C32.3427 45.8785 31.6077 44.1976 31.5835 42.0931L31.5363 37.9391C31.512 35.8233 32.1972 34.1274 33.5932 32.8501C34.9994 31.5628 36.8713 30.906 39.209 30.8797C41.5466 30.8534 43.4211 31.4814 44.8349 32.7599C46.259 34.0509 46.9837 35.7481 47.0067 37.8526V41.331H36.4553V41.3322ZM39.2358 34.8105H39.2192C38.3936 34.8193 37.7211 35.0574 37.1992 35.525C36.6888 35.9812 36.4374 36.5578 36.4464 37.345L36.4566 38.2224H42.043L42.0328 37.3462C42.0239 36.5591 41.7648 35.9361 41.2557 35.4799C40.7466 35.0236 40.0728 34.8005 39.237 34.8093L39.2358 34.8105Z" fill="black"/>
<path d="M59.6868 36.3584V32.0087H55.8078L55.8103 31.299V27L51.0942 27.6578V32.0087H47.8677V36.3584H50.8545V43.8131C50.8545 45.3048 51.3442 46.5 52.3223 47.3985C53.3119 48.3098 54.613 48.7648 56.2244 48.7648H58.6408V44.258H57.5883C57.0128 44.258 56.5692 44.0983 56.259 43.7802C55.9488 43.4506 55.7924 43.0235 55.7924 42.5001V36.3596H59.6855L59.6868 36.3584Z" fill="black"/>
<defs>
<filter id="filter0_d_2012_1315" x="0.529541" y="0.5" width="80" height="80" filterUnits="userSpaceOnUse" color-interpolation-filters="sRGB">
<feFlood flood-opacity="0" result="BackgroundImageFix"/>
<feColorMatrix in="SourceAlpha" type="matrix" values="0 0 0 0 0 0 0 0 0 0 0 0 0 0 0 0 0 0 127 0" result="hardAlpha"/>
<feOffset dx="3"/>
<feGaussianBlur stdDeviation="2"/>
<feComposite in2="hardAlpha" operator="out"/>
<feColorMatrix type="matrix" values="0 0 0 0 0.24895 0 0 0 0 0.449238 0 0 0 0 0.432547 0 0 0 0.15 0"/>
<feBlend mode="normal" in2="BackgroundImageFix" result="effect1_dropShadow_2012_1315"/>
<feBlend mode="normal" in="SourceGraphic" in2="effect1_dropShadow_2012_1315" result="shape"/>
</filter>
<linearGradient id="paint0_linear_2012_1315" x1="86.2642" y1="75.126" x2="86.2642" y2="4.7124" gradientUnits="userSpaceOnUse">
<stop stop-color="#BEEC26"/>
<stop offset="1" stop-color="#F8FF6F"/>
</linearGradient>
<linearGradient id="paint1_linear_2012_1315" x1="37.2642" y1="75.126" x2="37.2642" y2="4.7124" gradientUnits="userSpaceOnUse">
<stop stop-color="#BEEC26"/>
<stop offset="1" stop-color="#F8FF6F"/>
</linearGradient>
</defs>
</svg>
