<svg width="104" height="83" viewBox="0 0 104 83" fill="none" xmlns="http://www.w3.org/2000/svg">
<path d="M63.3454 0.970215H41.5362C19.0996 0.970215 0.911194 19.1161 0.911194 41.5001C0.911194 63.8841 19.0996 82.03 41.5362 82.03H63.3454C85.782 82.03 103.97 63.8841 103.97 41.5001C103.97 19.1161 85.782 0.970215 63.3454 0.970215Z" fill="url(#paint0_linear_2012_1336)"/>
<path d="M24.2195 37.6473C21.6995 47.1711 27.5295 56.9969 37.1959 59.6198C46.8622 62.2427 56.7626 56.6852 59.2826 47.1614C61.8026 37.6375 55.9727 27.8117 46.3063 25.1888C36.6399 22.5659 26.7395 28.1234 24.2195 37.6473Z" fill="#A56402"/>
<path d="M25.3195 36.5333C22.7995 46.0571 28.6294 55.8829 38.2958 58.5058C47.9622 61.1286 57.8626 55.5712 60.3826 46.0473C62.9026 36.5235 57.0726 26.6977 47.4063 24.0748C37.7399 21.4519 27.8395 27.0094 25.3195 36.5333Z" fill="#FFB423"/>
<path d="M28.5071 37.3984C26.4578 45.1432 31.2478 53.1339 39.1499 55.2781C47.0521 57.4223 55.1458 52.9275 57.1951 45.1826C59.2443 37.4378 54.4543 29.4471 46.5522 27.3029C38.65 25.1587 30.5564 29.6536 28.5071 37.3984Z" fill="#FFCF23" stroke="#DF8D12" stroke-width="2"/>
<path fill-rule="evenodd" clip-rule="evenodd" d="M51.0974 49.579C52.1768 48.3093 52.9925 46.7737 53.4371 45.0341C55.0125 38.8709 51.3329 32.4822 45.2184 30.7647C41.2729 29.6565 37.2776 30.7641 34.5164 33.3454C37.2614 30.1165 41.7115 28.6078 46.1001 29.8405C52.2145 31.558 55.8941 37.9466 54.3188 44.1099C53.76 46.296 52.6151 48.1602 51.0974 49.579Z" fill="#FFDD65"/>
<path fill-rule="evenodd" clip-rule="evenodd" d="M34.4355 33.0792C33.356 34.3489 32.5403 35.8845 32.0957 37.6241C30.5204 43.7874 34.2 50.176 40.3144 51.8935C44.26 53.0017 48.2553 51.8941 51.0164 49.3128C48.2715 52.5417 43.8213 54.0504 39.4327 52.8177C33.3183 51.1002 29.6387 44.7116 31.2141 38.5483C31.7728 36.3622 32.9177 34.4981 34.4355 33.0792Z" fill="#F2BD00"/>
<path d="M58.8799 34.6879C57.0907 29.919 52.8247 26.2231 47.5156 24.7481" stroke="#FFD179" stroke-width="0.5" stroke-linecap="round" stroke-linejoin="round"/>
<path d="M28.846 51.5981C30.2745 53.4638 32.0802 55.0092 34.1376 56.1242" stroke="#FFD179" stroke-width="0.5" stroke-linecap="round" stroke-linejoin="round"/>
<path d="M55.7794 30.0671C55.7794 30.0671 54.7105 28.6438 53.031 27.6189" stroke="#FFF3D2" stroke-width="0.5" stroke-linecap="round" stroke-linejoin="round"/>
<path d="M52.1892 34.6798C52.1892 34.6798 50.7641 32.7381 48.7119 31.4998" stroke="white" stroke-width="0.5" stroke-linecap="round" stroke-linejoin="round"/>
<path d="M41.1566 34.4764C41.1566 38.0247 38.8932 40.0507 35.3892 40.0507C33.9325 40.0999 33.6453 42.783 35.1096 42.8352C38.6135 42.8352 41.1566 45.4104 41.1566 48.9585C41.1566 49.7042 41.9892 50.076 42.2602 50.076C42.8696 50.076 43.9142 50.076 43.9142 48.6836C43.9142 45.1355 45.9069 42.8352 49.4106 42.8352C50.02 42.8352 51.0642 42.0603 51.0642 41.4431C51.0642 40.8261 50.02 40.6 49.4106 40.6C45.9069 40.6 43.3638 37.194 43.3638 33.6457C43.3153 32.1705 41.2081 32.9936 41.1566 34.4764ZM45.163 41.7176C43.9533 42.4227 42.9565 43.4321 42.2602 44.6571C41.5638 43.4319 40.5671 42.4227 39.3574 41.7176C40.5671 41.0124 41.5638 40.003 42.2602 38.7778C42.9565 40.003 43.9533 41.0124 45.163 41.7176Z" fill="#FFDD65"/>
<path d="M41.7066 33.9193C41.7066 37.4676 39.1635 40.0429 35.6596 40.0429C34.2029 40.0921 34.1953 42.2258 35.6596 42.278C39.1635 42.278 41.7066 44.8532 41.7066 48.4014C41.7066 49.0184 42.2008 49.5189 42.8102 49.5189C43.4196 49.5189 43.9138 49.0184 43.9138 48.4014C43.9138 44.8532 46.4569 42.278 49.9606 42.278C50.57 42.278 51.0642 41.7775 51.0642 41.1604C51.0642 40.5434 50.57 40.0429 49.9606 40.0429C46.4569 40.0429 43.9138 37.4676 43.9138 33.9193C43.8653 32.4441 41.7581 32.4365 41.7066 33.9193ZM45.713 41.1604C44.5033 41.8656 43.5065 42.875 42.8102 44.1C42.1138 42.8747 41.1171 41.8656 39.9073 41.1604C41.1171 40.4552 42.1138 39.4459 42.8102 38.2207C43.5065 39.4459 44.5033 40.4552 45.713 41.1604Z" fill="#DF8D12"/>
<path d="M40.6142 46.1771C40.6142 46.1771 40.0642 44.2278 37.8642 43.3923" stroke="white" stroke-width="0.5" stroke-linecap="round" stroke-linejoin="round"/>
<path d="M44.2195 37.6473C41.6995 47.1711 47.5295 56.9969 57.1959 59.6198C66.8622 62.2427 76.7626 56.6852 79.2826 47.1614C81.8026 37.6375 75.9727 27.8117 66.3063 25.1888C56.6399 22.5659 46.7395 28.1234 44.2195 37.6473Z" fill="#A56402"/>
<path d="M45.3195 36.5333C42.7995 46.0571 48.6294 55.8829 58.2958 58.5058C67.9622 61.1286 77.8626 55.5712 80.3826 46.0473C82.9026 36.5235 77.0726 26.6977 67.4063 24.0748C57.7399 21.4519 47.8395 27.0094 45.3195 36.5333Z" fill="#FFB423"/>
<path d="M48.5071 37.3984C46.4578 45.1432 51.2478 53.1339 59.1499 55.2781C67.0521 57.4223 75.1458 52.9275 77.1951 45.1826C79.2443 37.4378 74.4543 29.4471 66.5522 27.3029C58.65 25.1587 50.5564 29.6536 48.5071 37.3984Z" fill="#FFCF23" stroke="#DF8D12" stroke-width="2"/>
<path fill-rule="evenodd" clip-rule="evenodd" d="M71.0974 49.579C72.1768 48.3093 72.9925 46.7737 73.4371 45.0341C75.0125 38.8709 71.3329 32.4822 65.2184 30.7647C61.2729 29.6565 57.2776 30.7641 54.5164 33.3454C57.2614 30.1165 61.7115 28.6078 66.1001 29.8405C72.2145 31.558 75.8941 37.9466 74.3188 44.1099C73.76 46.296 72.6151 48.1602 71.0974 49.579Z" fill="#FFDD65"/>
<path fill-rule="evenodd" clip-rule="evenodd" d="M54.4355 33.0792C53.356 34.3489 52.5403 35.8845 52.0957 37.6241C50.5204 43.7874 54.2 50.176 60.3144 51.8935C64.26 53.0017 68.2553 51.8941 71.0164 49.3128C68.2715 52.5417 63.8213 54.0504 59.4327 52.8177C53.3183 51.1002 49.6387 44.7116 51.2141 38.5483C51.7728 36.3622 52.9177 34.4981 54.4355 33.0792Z" fill="#F2BD00"/>
<path d="M78.8799 34.6879C77.0907 29.919 72.8247 26.2231 67.5156 24.7481" stroke="#FFD179" stroke-width="0.5" stroke-linecap="round" stroke-linejoin="round"/>
<path d="M48.846 51.5981C50.2745 53.4638 52.0802 55.0092 54.1376 56.1242" stroke="#FFD179" stroke-width="0.5" stroke-linecap="round" stroke-linejoin="round"/>
<path d="M75.7794 30.0671C75.7794 30.0671 74.7105 28.6438 73.031 27.6189" stroke="#FFF3D2" stroke-width="0.5" stroke-linecap="round" stroke-linejoin="round"/>
<path d="M72.1892 34.6798C72.1892 34.6798 70.7641 32.7381 68.7119 31.4998" stroke="white" stroke-width="0.5" stroke-linecap="round" stroke-linejoin="round"/>
<path d="M61.1566 34.4764C61.1566 38.0247 58.8932 40.0507 55.3892 40.0507C53.9325 40.0999 53.6453 42.783 55.1096 42.8352C58.6135 42.8352 61.1566 45.4104 61.1566 48.9585C61.1566 49.7042 61.9892 50.076 62.2602 50.076C62.8696 50.076 63.9142 50.076 63.9142 48.6836C63.9142 45.1355 65.9069 42.8352 69.4106 42.8352C70.02 42.8352 71.0642 42.0603 71.0642 41.4431C71.0642 40.8261 70.02 40.6 69.4106 40.6C65.9069 40.6 63.3638 37.194 63.3638 33.6457C63.3153 32.1705 61.2081 32.9936 61.1566 34.4764ZM65.163 41.7176C63.9533 42.4227 62.9565 43.4321 62.2602 44.6571C61.5638 43.4319 60.5671 42.4227 59.3574 41.7176C60.5671 41.0124 61.5638 40.003 62.2602 38.7778C62.9565 40.003 63.9533 41.0124 65.163 41.7176Z" fill="#FFDD65"/>
<path d="M61.7066 33.9193C61.7066 37.4676 59.1635 40.0429 55.6596 40.0429C54.2029 40.0921 54.1953 42.2258 55.6596 42.278C59.1635 42.278 61.7066 44.8532 61.7066 48.4014C61.7066 49.0184 62.2008 49.5189 62.8102 49.5189C63.4196 49.5189 63.9138 49.0184 63.9138 48.4014C63.9138 44.8532 66.4569 42.278 69.9606 42.278C70.57 42.278 71.0642 41.7775 71.0642 41.1604C71.0642 40.5434 70.57 40.0429 69.9606 40.0429C66.4569 40.0429 63.9138 37.4676 63.9138 33.9193C63.8653 32.4441 61.7581 32.4365 61.7066 33.9193ZM65.713 41.1604C64.5033 41.8656 63.5065 42.875 62.8102 44.1C62.1138 42.8747 61.1171 41.8656 59.9073 41.1604C61.1171 40.4552 62.1138 39.4459 62.8102 38.2207C63.5065 39.4459 64.5033 40.4552 65.713 41.1604Z" fill="#DF8D12"/>
<path d="M60.6142 46.1771C60.6142 46.1771 60.0642 44.2278 57.8642 43.3923" stroke="white" stroke-width="0.5" stroke-linecap="round" stroke-linejoin="round"/>
<defs>
<linearGradient id="paint0_linear_2012_1336" x1="52.4408" y1="-34.6534" x2="52.4408" y2="82.03" gradientUnits="userSpaceOnUse">
<stop stop-color="#5D34FF"/>
<stop offset="1" stop-color="#5C1E8E"/>
</linearGradient>
</defs>
</svg>
