<svg width="104" height="83" viewBox="0 0 104 83" fill="none" xmlns="http://www.w3.org/2000/svg">
<path d="M62.9046 0.970093H41.0954C18.6588 0.970093 0.470398 19.1159 0.470398 41.5C0.470398 63.884 18.6588 82.0299 41.0954 82.0299H62.9046C85.3412 82.0299 103.53 63.884 103.53 41.5C103.53 19.1159 85.3412 0.970093 62.9046 0.970093Z" fill="url(#paint0_linear_2012_1260)"/>
<g clip-path="url(#clip0_2012_1260)">
<path d="M85.6021 36.251C85.5573 36.5053 85.282 36.5569 85.134 36.3438C84.9309 36.0482 84.6315 35.6633 84.1807 35.2578C82.9244 34.1236 79.9577 34.6529 79.3382 37.4951C79.1489 38.368 79.1971 39.3544 79.3657 40.406C79.7478 42.7877 80.7424 45.5028 80.9764 47.9566C81.3068 51.493 80.3122 66.0546 67.0238 70.8076C56.3959 74.6121 47.4647 68.3366 44.3259 64.728C39.6383 58.6484 45.7576 63.3464 49.6433 45.2931C52.7546 30.8484 62.4739 22.9714 72.5856 22.4765C75.3562 22.3424 77.5795 22.6689 79.3554 23.3219C85.7019 25.6486 86.3111 32.0994 85.5952 36.251H85.6021Z" fill="#E65A29"/>
<path d="M85.6029 36.2511C85.5581 36.5054 85.2828 36.557 85.1348 36.3439C84.9318 36.0484 84.6323 35.6634 84.1815 35.2579C82.9253 34.1238 79.9585 34.653 79.339 37.4952C79.1497 38.3682 79.1979 39.3545 79.3666 40.4062C78.1964 39.217 76.8507 37.2237 75.3432 34.1306C73.0373 28.838 76.5753 25.4941 79.3562 23.322C85.7027 25.6487 86.3119 32.0995 85.596 36.2511H85.6029Z" fill="#FFD7A3"/>
<path d="M60.3251 72.6844C60.0188 72.6844 59.7125 72.6775 59.4062 72.6638C57.1278 72.5572 54.8425 72.0658 52.6157 71.1963C47.5771 69.227 44.5966 66.0961 43.805 65.1854C43.7947 65.1751 43.7878 65.1648 43.7809 65.1544C42.6348 63.6698 42.005 62.6868 41.9465 61.752C41.888 60.8035 42.418 60.123 43.1476 59.1848C43.8463 58.2844 44.8031 57.054 45.8356 54.9198C47.0712 52.3663 48.1243 49.0807 48.971 45.1559C49.7385 41.5886 50.9293 38.2996 52.5125 35.3818C54.0199 32.6049 55.8716 30.1751 58.0192 28.1577C60.0911 26.2125 62.4073 24.6763 64.9026 23.5937C67.3565 22.5283 69.9343 21.9234 72.5569 21.7963C77.6334 21.5488 81.4192 22.7895 83.8078 25.4839C85.0984 26.9411 85.945 28.7832 86.3167 30.9621C86.6884 33.1238 86.5026 35.1034 86.2823 36.3784C86.2135 36.7702 85.9313 37.0761 85.5596 37.1586C85.1844 37.2411 84.7921 37.0795 84.5615 36.7462C84.3171 36.3888 84.0383 36.0726 83.7148 35.7804C83.2915 35.399 82.5309 35.2959 81.8253 35.5227C80.9064 35.8182 80.2456 36.595 80.015 37.6535C79.6743 39.2138 80.2043 41.2758 80.7619 43.4616C81.137 44.9325 81.5294 46.4516 81.6636 47.9053C81.7049 48.3452 81.815 49.9777 81.4881 52.4556C81.1783 54.8132 80.5932 57.0815 79.7466 59.1985C78.6659 61.8998 77.1894 64.2609 75.3584 66.2164C73.1557 68.5706 70.4265 70.3371 67.2532 71.4746C64.9817 72.2892 62.6517 72.6981 60.3148 72.6981L60.3251 72.6844ZM44.865 64.2884C45.7014 65.2507 46.8543 66.2714 48.1071 67.1718C49.6731 68.2956 51.3595 69.2133 53.1182 69.9006C55.2039 70.7151 57.3412 71.1791 59.4681 71.2753C61.9289 71.3887 64.3932 71.0107 66.792 70.1515C69.7553 69.0895 72.2987 67.4433 74.35 65.2507C76.0639 63.4223 77.4475 61.2056 78.4628 58.6624C80.2697 54.1396 80.4452 49.7199 80.2835 48.0153C80.1561 46.6715 79.781 45.204 79.4196 43.7881C78.8173 41.4408 78.2494 39.2241 78.659 37.3442C78.9963 35.7908 79.9944 34.6394 81.3986 34.1892C82.5791 33.8112 83.8525 34.0277 84.6441 34.7391C84.7886 34.8697 84.9229 35.0003 85.0536 35.1378C85.1707 34.0414 85.2016 32.6564 84.9504 31.1786C84.62 29.2575 83.8869 27.6456 82.7684 26.3843C80.6724 24.0198 77.2582 22.9338 72.6223 23.1607C70.1649 23.2809 67.7523 23.848 65.4532 24.8447C63.106 25.8654 60.924 27.3123 58.9691 29.1475C54.7565 33.1066 51.7656 38.7361 50.327 45.4274C48.3136 54.7789 45.667 58.1847 44.2455 60.0165C43.5951 60.8516 43.3094 61.24 43.3335 61.6524C43.3645 62.1404 43.8084 62.8999 44.8685 64.2781L44.865 64.2884Z" fill="#151515"/>
<path fill-rule="evenodd" clip-rule="evenodd" d="M39.3684 52.2871C37.861 54.1464 35.3244 59.0232 35.4587 63.649C35.5344 66.2507 36.5531 68.4743 37.6992 70.1239C36.6736 70.5879 36.3535 71.7907 36.3225 72.5949C36.3157 72.7324 36.4292 72.8389 36.5635 72.8389H43.1474C44.1386 71.3577 45.1333 67.426 44.4346 63.6284C43.7394 59.8342 42.7344 54.4935 41.9084 52.2871H39.365H39.3684Z" fill="#E65A29"/>
<path d="M44.9662 62.831C44.2779 59.0712 43.4106 54.3216 42.557 52.043C42.4572 51.7715 42.1957 51.5928 41.9066 51.5928H39.3631C39.1532 51.5928 38.957 51.6856 38.8228 51.8505C38.0174 52.8438 36.9746 54.5931 36.1486 56.6757C35.3226 58.7584 34.6893 61.2295 34.7616 63.6696C34.8339 66.1406 35.7012 68.2748 36.7371 69.9313C36.4067 70.2269 36.1693 70.5843 36.0041 70.9417C35.7459 71.5019 35.6427 72.0965 35.6255 72.5673C35.6014 73.131 36.066 73.5296 36.5616 73.5296H43.1456C43.3762 73.5296 43.593 73.4128 43.7203 73.2238C44.3089 72.3474 44.7838 70.6943 45.035 68.8591C45.2897 66.9963 45.331 64.8174 44.9662 62.831ZM43.6618 68.6735C43.4519 70.2028 43.0974 71.4435 42.7463 72.148H37.071C37.1123 71.9384 37.1742 71.7253 37.2672 71.526C37.4289 71.172 37.6629 70.9039 37.9865 70.7596C38.1723 70.6737 38.3134 70.5121 38.3685 70.3128C38.4236 70.1135 38.3857 69.9038 38.2687 69.7354C37.1742 68.1614 36.2209 66.0684 36.1486 63.6352C36.0867 61.446 36.6545 59.1674 37.4392 57.1913C38.1517 55.3938 39.0259 53.892 39.7039 52.9847H41.4178C42.1681 55.2667 42.9494 59.5042 43.6067 63.0853C43.9371 64.893 43.9062 66.9173 43.6653 68.6769L43.6618 68.6735Z" fill="#151515"/>
<path fill-rule="evenodd" clip-rule="evenodd" d="M51.3111 52.2871C52.8185 54.1464 55.355 59.0232 55.2208 63.649C55.1451 66.2507 54.1264 68.4743 52.9803 70.1239C54.0059 70.5913 54.326 71.7907 54.357 72.5949C54.3638 72.7324 54.2503 72.8389 54.1126 72.8389H47.5286C46.5374 71.3577 44.7237 67.4467 45.4189 63.649C46.1141 59.8549 47.9382 54.4935 48.7642 52.2871H51.3111Z" fill="#E65A29"/>
<path d="M54.5273 56.6757C53.7013 54.5931 52.6585 52.8472 51.8531 51.8505C51.7223 51.689 51.5227 51.5928 51.3128 51.5928H48.7694C48.4803 51.5928 48.2221 51.7715 48.1189 52.043C47.2791 54.2906 45.9024 59.1365 45.1969 62.9719C44.8286 64.9858 45.0042 67.1476 45.3931 68.9794C45.7785 70.7974 46.3877 72.3783 46.9522 73.2238C47.0795 73.4162 47.2963 73.5296 47.5269 73.5296H54.1109C54.6065 73.5296 55.0677 73.131 55.047 72.5673C55.0298 72.0965 54.9266 71.5019 54.6684 70.9417C54.5032 70.5843 54.2657 70.2269 53.9353 69.9313C54.9747 68.2748 55.842 66.1372 55.9143 63.6661C55.9832 61.2295 55.3533 58.7584 54.5273 56.6723V56.6757ZM50.029 72.2821C50.029 72.2821 50.0325 72.2821 50.0359 72.2786C50.0359 72.2786 50.0325 72.2786 50.029 72.2821ZM54.5308 63.6283C54.4585 66.0615 53.5086 68.158 52.4107 69.7286C52.2937 69.897 52.2558 70.11 52.3109 70.3059C52.3659 70.5053 52.507 70.6668 52.6929 70.7527C53.0164 70.8971 53.247 71.1686 53.4122 71.5191C53.5051 71.7185 53.5671 71.9315 53.6084 72.1412H47.9227C47.5269 71.4195 47.0657 70.1822 46.7525 68.6872C46.3877 66.9688 46.2363 64.9996 46.5632 63.2159C47.2068 59.6967 48.4355 55.2976 49.2547 52.9744H50.9721C51.6501 53.8851 52.5243 55.3835 53.2367 57.1809C54.0214 59.1571 54.5893 61.4357 54.5273 63.6249L54.5308 63.6283Z" fill="#151515"/>
<path d="M52.2244 48.1836H45.3823H38.5402C37.1773 50.9983 34.8301 59.817 38.1066 64.5941C40.1062 67.5154 42.7391 68.9898 45.3857 69.0447C48.0324 68.9898 50.6618 67.5154 52.6649 64.5941C55.938 59.8136 53.5942 50.9949 52.2313 48.1836H52.2244Z" fill="#E65A29"/>
<path d="M39.0838 54.5624C39.0493 54.827 39.0012 55.3735 39.0012 55.6346V59.7553C39.0218 61.5218 39.6172 62.9446 40.7908 64.0238C41.9576 65.0961 43.5029 65.6219 45.4302 65.6013C47.3576 65.5806 48.9029 65.0308 50.0627 63.9516C51.2157 62.8828 51.7802 61.46 51.7595 59.6866L51.7216 56.2636C51.701 54.4971 51.0953 53.0914 49.901 52.0364C48.7067 50.9813 47.3232 50.4658 45.3683 50.4898C43.6371 50.507 42.0815 50.885 40.9939 51.6136C39.8891 52.3525 39.2524 53.3355 39.0838 54.5658V54.5624Z" fill="#FFD7A3"/>
<path d="M49.1032 68.0206C48.9414 67.6735 48.5284 67.5257 48.1808 67.6872C47.2756 68.1065 46.3361 68.3333 45.3827 68.3539C44.4294 68.3333 43.4864 68.1065 42.5846 67.6872C42.237 67.5257 41.824 67.6769 41.6623 68.0206C41.5005 68.3677 41.6519 68.7801 41.9961 68.9416C43.0802 69.4468 44.216 69.7149 45.3655 69.7389H45.393C46.546 69.7149 47.6783 69.4468 48.7625 68.9416C49.1101 68.7801 49.2581 68.3677 49.0963 68.0206H49.1032Z" fill="#151515"/>
<path d="M38.9158 58.4274C38.0901 58.9569 40.9645 56.6709 40.5833 56.2798L33.5095 54.5298L32.5297 60.5298L34.776 64.2299C36.1185 64.524 37.7356 64.7232 39.6793 64.2299C41.2417 63.8335 42.0362 63.0976 42.3667 62.7914L42.3709 62.7875C42.8768 62.3189 43.6573 61.5402 43.8911 60.9195C44.1249 60.2987 43.8911 59.5657 43.5521 59.185C43.3552 58.9637 43.4235 58.7082 43.6573 58.7276C43.8911 58.747 44.5297 58.3274 44.5297 57.9159C44.5297 57.413 43.8739 57.0349 42.8597 56.9736C41.8054 56.91 39.9479 57.7655 38.9158 58.4274Z" fill="#E65A29"/>
<path d="M49.5297 57.0298C49.3618 57.2023 49.815 57.5951 50.3043 57.9353C49.2861 57.4048 48.0073 56.9135 47.1998 56.9623C46.1855 57.0237 45.5297 57.4023 45.5297 57.906C45.5297 58.3181 46.1684 58.7383 46.4022 58.7189C46.636 58.6995 46.7042 58.9554 46.5073 59.177C46.1684 59.5583 45.9346 60.2924 46.1684 60.9141C46.4022 61.5357 47.1826 62.3156 47.6886 62.7849L47.6927 62.7888C48.0233 63.0954 48.8178 63.8324 50.3801 64.2295C52.3239 64.7235 53.9409 64.524 55.2835 64.2295L58.5297 59.8666L57.0067 55.5298L49.5297 57.0298Z" fill="#E65A29"/>
<path d="M59.1092 20.081L58.9631 20.8789L52.7597 20.2834L50.0109 20.017C50.0985 18.3021 50.8744 14.7917 53.2192 13.1471C53.7489 12.7784 54.4346 12.7201 55.0316 12.9626C55.3934 13.1092 55.7279 13.2854 56.035 13.4834C58.912 15.3501 59.3791 19.2156 59.106 20.0749L59.1092 20.081Z" fill="#E65A29"/>
<path d="M59.111 20.0808L58.965 20.8787L52.7617 20.2832C52.8796 18.5295 53.6725 15.1419 55.9637 13.5364C55.9897 13.5192 56.0126 13.5036 56.0385 13.4864C58.9154 15.353 59.3825 19.2185 59.1095 20.0778L59.111 20.0808Z" fill="#FFD7A3"/>
<path d="M58.963 20.8818L52.7597 20.2863L50.0108 20.02C50.0984 18.305 50.8744 14.7946 53.2191 13.15C53.7488 12.7814 54.4346 12.7231 55.0315 12.9655C55.3934 13.1121 55.7279 13.2883 56.035 13.4863C56.035 13.4863 59.854 15.4994 58.9599 20.8757L58.963 20.8818Z" stroke="#151515" stroke-width="1.4" stroke-linejoin="round"/>
<path d="M39.4528 20.2584L36.6979 20.8525L31.4345 21.9866L30.6621 22.153L30.6159 22.0017L30.4242 21.3774C30.0477 20.5439 30.0645 16.5468 32.8236 14.38C33.0736 14.1835 33.3451 14.0043 33.6402 13.8395C34.2057 13.5298 34.8959 13.5046 35.4612 13.811C37.9822 15.1695 39.1647 18.5666 39.4528 20.2584Z" fill="#E65A29"/>
<path d="M36.6966 20.8522L31.4331 21.9863L30.6145 22.0013L30.4228 21.3771C30.0463 20.5435 30.0631 16.5464 32.8222 14.3796C33.2737 14.3662 33.7176 14.5052 34.0707 14.7961C35.8955 16.3028 36.5515 18.9929 36.6987 20.8495L36.6966 20.8522Z" fill="#FFD7A3"/>
<path d="M35.4619 13.8131C37.9829 15.1716 39.1654 18.5686 39.4535 20.2604L30.6628 22.1551L30.4249 21.3795C30.0157 20.4713 30.0703 15.8001 33.6409 13.8415C34.2065 13.5318 34.8966 13.5066 35.4619 13.8131Z" stroke="#151515" stroke-width="1.4" stroke-linejoin="round"/>
<path d="M42.2931 12.3447C42.9554 11.1136 44.2358 10.2527 45.7318 10.1947C46.6328 10.1577 47.3921 10.8627 47.4293 11.7658L47.4935 13.3247C47.4997 13.4758 47.6554 13.5761 47.7941 13.5153L49.0267 13.0004C49.8327 12.6646 50.7588 12.7366 51.5046 13.1979C52.2469 13.6558 52.7051 14.4109 52.7681 15.2717C52.7767 15.4812 52.6218 16.3199 52.6218 16.3199C53.1537 17.0239 55.0436 18.3325 56.6506 19.2984C56.6754 19.3145 56.7 19.3273 56.7248 19.3435C57.1061 19.5686 57.4917 19.8142 57.8745 20.0771C57.8745 20.0771 57.878 20.0769 57.8815 20.0802C60.9973 22.2156 64.1379 25.4575 65.553 27.618C65.5568 27.6247 65.5641 27.6347 65.5678 27.6415C65.9828 28.2676 66.3508 28.9233 66.6751 29.6048C67.5767 31.5077 68.0777 33.5509 68.1649 35.6696L68.1737 35.8825C68.181 36.0611 68.3314 36.1994 68.5105 36.1989C68.5552 36.1971 68.5999 36.1952 68.6447 36.1968C69.6988 36.1983 70.3843 36.3662 70.6769 36.6947C70.8069 36.8407 70.952 37.103 70.8894 37.5046C70.7827 38.1763 70.1302 38.977 69.6472 39.4612C69.9486 39.5864 70.2318 39.7708 70.4013 40.0391C70.5487 40.2738 70.5911 40.5506 70.5236 40.8355C70.3829 41.4329 69.438 42.4107 69.0373 42.8021C68.6897 43.1431 68.2676 43.5182 67.8669 43.8236C67.8101 43.8672 67.7678 43.9274 67.75 43.9969C67.663 44.31 67.5654 44.6167 67.4609 44.9237C67.4179 45.0493 67.3714 45.1751 67.3249 45.3008C66.6076 47.2049 65.5454 48.9305 64.1572 50.4356C62.769 51.9407 61.1339 53.1395 59.2925 54.0096C58.9816 54.1565 58.6669 54.2933 58.3516 54.4163L58.359 54.4298C58.2981 54.4563 56.8735 55.0755 54.6299 55.718C49.6732 57.1426 43.1606 56.9181 39.7087 56.6574C37.7841 56.5128 35.8821 56.1644 34.0304 55.6144C33.7549 55.5329 33.5803 55.4747 33.521 55.4565L33.5176 55.4566C33.1689 55.354 32.8231 55.2375 32.4803 55.1105C30.5735 54.3943 28.8454 53.3336 27.3381 51.9474C25.8344 50.5644 24.6304 48.9284 23.7589 47.0896C23.6871 46.9343 23.6153 46.7791 23.5469 46.6236C23.448 46.3972 23.3558 46.1671 23.2671 45.9369C23.2402 45.8692 23.193 45.8092 23.1294 45.7706C22.6561 45.4873 22.1302 45.0961 21.7057 44.7421C21.2742 44.3849 20.2521 43.4878 20.0628 42.904C19.9721 42.6256 19.9916 42.3462 20.1192 42.1002C20.2661 41.819 20.5366 41.6118 20.8232 41.4625C20.3021 41.0195 19.5825 40.2751 19.4244 39.6143C19.3289 39.2192 19.4485 38.946 19.5696 38.7897C19.8375 38.4382 20.5035 38.2148 21.5539 38.1269C21.6432 38.1198 21.7324 38.1127 21.8218 38.1091C22.0007 38.1017 22.1425 37.948 22.135 37.766L22.1263 37.5565C22.0389 35.4344 22.3703 33.3604 23.1125 31.39C23.2118 31.1245 23.3182 30.8656 23.4315 30.6064C23.4315 30.6064 23.4347 30.5994 23.4377 30.589C23.4377 30.589 23.4374 30.5821 23.4409 30.582C23.444 30.5749 23.4503 30.5609 23.4568 30.5503C23.4567 30.5469 23.4599 30.5433 23.4631 30.5363C23.4661 30.5259 23.4727 30.5187 23.4756 30.5049C23.6274 30.1753 24.1673 29.0662 25.2037 27.5515C25.2492 27.4842 25.2981 27.4169 25.3434 27.3462C26.4785 25.7174 28.3894 23.355 31.1829 21.0939C31.3762 20.9381 31.573 20.7821 31.7767 20.6258C31.7802 20.6257 31.8034 20.6041 31.8435 20.5749C32.5013 20.0698 36.5353 16.8153 39.1011 15.0486C39.1078 15.0449 40.3397 14.2617 40.333 14.2654" fill="#E65A29"/>
<path d="M67.4272 44.9387C67.3842 45.0643 67.3377 45.1901 67.2912 45.3158C66.5739 47.2199 65.5117 48.9455 64.1235 50.4506C62.7353 51.9557 61.1002 53.1545 59.2587 54.0246C58.9479 54.1715 58.6332 54.3083 58.3179 54.4313L58.3253 54.4448C58.2644 54.4713 56.8041 54.9785 54.5962 55.733C47.5297 57.5298 43.1265 56.727 39.6805 56.8063C37.7818 56.4543 35.8486 56.1829 33.9968 55.6329C33.7214 55.5513 33.5467 55.4931 33.4874 55.4749L33.484 55.4751C33.1353 55.3724 32.7895 55.2559 32.4467 55.129C30.5399 54.4127 28.8118 53.352 27.3045 51.9658C25.8009 50.5829 24.5968 48.9469 23.7254 47.1081C23.6535 46.9528 23.5817 46.7975 23.5133 46.6421C23.9036 45.5804 24.5471 44.4774 25.2997 43.6829C25.379 43.6005 25.4584 43.5216 25.538 43.4461C25.8873 43.1462 26.3306 42.9526 26.8252 42.9185C27.3953 42.8779 27.9298 43.0589 28.3464 43.3892C28.3894 43.4287 28.4322 43.4648 28.4785 43.5007C30.134 44.8912 32.3119 45.6651 34.6407 45.5041C38.2062 45.2614 41.1227 42.8921 42.2288 39.7235C42.2505 39.6641 42.272 39.6013 42.2902 39.5421C42.4217 39.1377 42.6338 38.7678 42.9101 38.4504C43.0329 38.3093 43.0329 38.3093 42.9101 38.4504C43.3979 37.9178 43.9989 37.5389 44.8829 37.4235C44.9549 37.4171 45.0236 37.4108 45.0958 37.4078L45.1061 37.4074C45.1783 37.4044 45.2505 37.4015 45.3196 37.4055C46.21 37.4481 46.8402 37.7765 47.3702 38.2672C47.6058 38.4853 47.6058 38.4853 47.3702 38.2672C47.6715 38.5576 47.9133 38.9088 48.0777 39.3045C48.1043 39.3653 48.1273 39.4228 48.1538 39.4802C49.5202 42.5473 52.6181 44.6697 56.1915 44.6193C58.5257 44.5888 60.6325 43.6355 62.1682 42.1174C62.208 42.078 62.251 42.0349 62.2907 41.9955C62.6787 41.6321 63.1965 41.4079 63.7681 41.4017C64.2638 41.3951 64.7215 41.5517 65.0943 41.8219C65.1798 41.8906 65.2655 41.9627 65.3512 42.0383C66.1917 42.7915 66.9431 43.8889 67.4205 44.9424L67.4272 44.9387Z" fill="#FFD7A3"/>
<path d="M37.941 59.7909C38.93 59.1498 40.5923 57.0688 42.9294 57.2114C43.9013 57.2708 44.5297 57.637 44.5297 58.1241C44.5297 58.5226 43.9177 58.929 43.6937 58.9102C43.4697 58.8914 43.4042 59.1389 43.5929 59.3532C43.9177 59.722 44.1418 60.4319 43.9177 61.0331C43.6937 61.6343 42.9458 62.3885 42.461 62.8424C42.1466 63.1366 41.3852 63.8537 39.8817 64.2394C38.0191 64.7172 36.4695 64.5242 35.183 64.2394C33.662 63.7574 32.9901 62.523 32.6792 61.2524C32.1769 59.1986 33.0671 56.9426 33.4858 55.5298" stroke="#151515" stroke-width="1.3" stroke-linecap="round"/>
<path d="M52.1346 59.8486C51.1431 59.2153 49.4768 57.1596 47.134 57.3005C46.1597 57.3591 45.5297 57.7209 45.5297 58.202C45.5297 58.5957 46.1432 58.9971 46.3678 58.9786C46.5924 58.96 46.658 59.2045 46.4688 59.4162C46.1432 59.7805 45.9186 60.4818 46.1432 61.0756C46.3678 61.6695 47.1175 62.4145 47.6035 62.8629C47.9187 63.1536 48.6819 63.862 50.1891 64.2429C52.0563 64.7149 53.6097 64.5242 54.8993 64.2429C56.424 63.7668 57.0976 62.5474 57.4092 61.2923C57.9128 59.2635 56.7016 56.9254 56.282 55.5298" stroke="#151515" stroke-width="1.3" stroke-linecap="round"/>
<path d="M70.6597 39.3337C71.053 38.8463 71.4512 38.228 71.5465 37.6153L71.5268 37.6367C71.6054 37.121 71.4754 36.6413 71.1541 36.283C70.7353 35.8152 69.9852 35.5846 68.8029 35.5644C68.6996 33.3913 68.1795 31.3007 67.2551 29.3471C66.9194 28.6385 66.5328 27.9493 66.0996 27.2998C66.096 27.2965 66.0923 27.2898 66.0923 27.2898L66.0848 27.2763C64.6957 25.1629 61.5586 21.8383 58.2408 19.5633C58.2336 19.5567 58.2266 19.5536 58.2194 19.547C57.8188 19.2711 57.4227 19.0191 57.0378 18.7906C57.0131 18.7779 56.9919 18.765 56.9707 18.7521L56.8928 18.7003L56.8835 18.6942C55.0765 17.5166 53.8974 16.7481 53.3268 16.1706C53.3674 15.9832 53.4057 15.7443 53.4092 15.4931L53.4085 15.4759C53.4085 15.3934 53.4051 15.3109 53.3981 15.2252C53.2847 14.0604 52.7861 13.245 51.8248 12.6516C50.8988 12.0808 49.748 11.9905 48.7455 12.4066L48.1021 12.6738L48.064 11.7501C48.0119 10.483 46.9411 9.49159 45.6756 9.54355L45.6653 9.54398C44.0633 9.60975 43.3157 10.3589 42.1816 11.4953L42.1805 11.4963C42.0581 11.6183 41.9291 11.7474 41.7933 11.8803C41.1412 12.5227 39.3633 14.0989 39.1538 14.2829C37.5004 15.5375 35.1942 17.2522 33.5097 18.5047L33.4412 18.5555C32.4071 19.323 31.6592 19.8779 31.411 20.0699C31.3776 20.0953 31.3542 20.1135 31.3442 20.1208C31.1474 20.2768 30.9438 20.4365 30.7404 20.5996C27.8637 22.9294 25.9073 25.3591 24.7722 26.9879C24.7235 27.0587 24.678 27.1259 24.6292 27.1967C23.5896 28.7185 23.0362 29.835 22.8465 30.2452C22.8432 30.2488 22.84 30.2558 22.8402 30.2593C22.837 30.2663 22.8337 30.2698 22.8338 30.2733C22.834 30.2767 22.8341 30.2801 22.8272 30.2804L22.8277 30.2907C22.8248 30.3046 22.8183 30.3152 22.8152 30.3222L22.8083 30.3225L22.8087 30.3328L22.8053 30.3329L22.8056 30.3398C22.8023 30.3434 22.8026 30.3502 22.8026 30.3502L22.8028 30.3571C22.6861 30.6164 22.5769 30.8926 22.4711 31.1687C21.7105 33.1915 21.3639 35.3143 21.4395 37.485C20.1833 37.5951 19.4135 37.8881 19.0215 38.4064C18.7341 38.7897 18.6407 39.2819 18.7648 39.7859C18.9136 40.3886 19.358 40.9758 19.7899 41.4258C19.6778 41.5474 19.5902 41.6782 19.5166 41.8154C19.3094 42.2195 19.2734 42.6853 19.4157 43.1301C19.5935 43.6834 20.2157 44.4043 21.2677 45.276C21.5462 45.5123 22.091 45.9439 22.6706 46.3019C22.7479 46.5051 22.8321 46.7115 22.9196 46.9108C22.9883 47.0731 23.064 47.2386 23.1394 47.3971C24.045 49.3137 25.3001 51.0164 26.8682 52.4586C28.4363 53.9008 30.2387 55.01 32.2259 55.7539C32.5757 55.884 32.9356 56.0068 33.2913 56.1126C33.2948 56.1159 33.3017 56.1156 33.3017 56.1156C33.3751 56.1401 33.5496 56.1949 33.8216 56.2766C35.6835 56.8304 38.371 57.2964 40.3459 57.4501C40.3835 57.4531 40.4209 57.4488 40.457 57.4378L40.6692 57.3728C40.9309 57.2928 41.1265 57.0741 41.1771 56.8052C41.186 56.758 41.1824 56.7093 41.1667 56.664L41.1503 56.6165C41.0515 56.3306 40.7953 56.1283 40.4943 56.0983L39.7393 56.0233C37.8561 55.8805 35.9923 55.5374 34.2033 55.0054C33.9278 54.9239 33.7567 54.869 33.7113 54.8536C33.7045 54.8539 33.6939 54.8475 33.687 54.8478C33.3556 54.7479 33.0203 54.6344 32.695 54.5136C30.8687 53.8284 29.2112 52.8095 27.7718 51.4824C26.3326 50.1588 25.1796 48.5929 24.3458 46.8317C24.2778 46.6865 24.2096 46.5346 24.1449 46.3859C24.0497 46.1662 23.958 45.9464 23.8766 45.7261C23.7956 45.5162 23.6472 45.34 23.46 45.2273C23.0678 44.9889 22.578 44.6375 22.1214 44.2572C21.2369 43.5231 20.7552 42.9512 20.684 42.7271C20.6484 42.6151 20.6547 42.5185 20.6993 42.4307C20.7313 42.3709 20.7839 42.3103 20.8538 42.2489C20.9271 42.1909 21.0143 42.1323 21.1222 42.0762C21.2807 41.9941 21.4022 41.8481 21.4535 41.674C21.5108 41.4756 21.4744 41.2603 21.3504 41.0935C21.3211 41.0499 21.2851 41.0136 21.2459 40.9808C20.6176 40.4459 20.1524 39.8562 20.0612 39.4816C20.0203 39.325 20.0586 39.2512 20.088 39.2122C20.0978 39.198 20.3239 38.917 21.5974 38.8097C21.6865 38.7992 21.769 38.7958 21.8481 38.7925L21.8481 38.7925C22.3876 38.7601 22.8095 38.299 22.7873 37.7599L22.7787 37.5504C22.695 35.5176 23.0093 33.5303 23.7204 31.6437C23.8167 31.3886 23.92 31.1367 24.0272 30.895C24.0303 30.888 24.0336 30.8844 24.0335 30.881C24.0368 30.8774 24.0401 30.8738 24.0399 30.8704L24.0493 30.8459C24.0526 30.8424 24.0558 30.8388 24.0557 30.8354C24.0622 30.8248 24.0652 30.8143 24.0715 30.8003C24.2139 30.4952 24.7414 29.4176 25.7418 27.949C25.7873 27.8818 25.8362 27.8145 25.8816 27.7472C26.9678 26.1858 28.8389 23.8594 31.5958 21.6308C31.7892 21.4749 31.9861 21.3224 32.1763 21.1736C32.1796 21.17 32.1831 21.1698 32.1831 21.1698C32.1931 21.1625 32.2132 21.148 32.2466 21.1225C32.4937 20.9335 33.3024 20.3293 34.3286 19.5683C36.0197 18.3087 38.3359 16.5867 39.9926 15.3285C39.9995 15.3282 40.0026 15.3212 40.006 15.3211C40.0128 15.3174 40.0228 15.3101 40.0294 15.3029C40.0329 15.3028 40.0394 15.2956 40.0394 15.2956C40.1226 15.2234 42.037 13.5316 42.7521 12.8281C42.891 12.6882 43.02 12.5591 43.1457 12.4336C44.2175 11.3577 44.6642 10.9128 45.744 10.8685L45.7508 10.8682C46.2873 10.8461 46.7387 11.2679 46.7607 11.8036L46.8249 13.3625C46.8367 13.6476 46.9888 13.913 47.2329 14.0681C47.477 14.2232 47.7811 14.2486 48.0487 14.1378L49.2813 13.6229C49.891 13.3708 50.5924 13.4246 51.1545 13.773C51.7553 14.1438 52.0325 14.6003 52.1046 15.3472L52.1089 15.4536C52.0642 16.2087 51.7913 16.5226 50.998 16.7478C50.0172 17.022 48.3793 17.0652 45.8879 17.0402C45.5227 17.038 45.2213 17.3324 45.2191 17.6971C45.2169 18.0618 45.5118 18.3627 45.877 18.3649L45.9069 18.3652C47.0648 18.3752 47.8122 18.3818 48.8589 18.3388C49.9146 18.2954 50.7202 18.2004 51.3603 18.0194C51.9086 17.8662 52.3436 17.6385 52.6721 17.336C53.3799 17.9605 54.5021 18.6953 56.1939 19.7953L56.2858 19.8534L56.2893 19.8533C56.2964 19.8599 56.3069 19.8629 56.3141 19.8695C56.3353 19.8823 56.36 19.8985 56.3847 19.9113C56.7413 20.1236 57.1163 20.3628 57.492 20.6191C57.4954 20.6189 57.4991 20.6257 57.5026 20.6255C58.9381 21.6088 60.4512 22.8847 61.8808 24.3085C63.1919 25.6168 64.2962 26.9198 64.9945 27.9849C65.0018 27.9949 65.0057 28.0051 65.0128 28.0117C65.4095 28.6111 65.7662 29.2431 66.0719 29.891C66.9323 31.7131 67.4124 33.6677 67.4961 35.7006L67.5049 35.9135C67.5272 36.456 67.9716 36.8746 68.512 36.8662C68.5534 36.8679 68.5981 36.8661 68.6394 36.8644C69.8922 36.8669 70.1558 37.1216 70.1759 37.1409L70.1768 37.1418C70.2129 37.1816 70.2535 37.2487 70.2291 37.4079C70.169 37.7888 69.7538 38.4146 69.1716 38.9992C69.1354 39.0385 69.1027 39.0812 69.0736 39.1271C68.9672 39.3034 68.952 39.5207 69.0253 39.7104C69.0908 39.8796 69.2202 40.0119 69.385 40.0808C69.6059 40.1749 69.762 40.2855 69.8357 40.4028C69.8908 40.4866 69.9017 40.5824 69.8754 40.697C69.8192 40.9229 69.3898 41.5356 68.5686 42.3398C68.1978 42.7024 67.802 43.0455 67.4613 43.3037C67.291 43.4345 67.1644 43.622 67.1041 43.8308C67.0232 44.1265 66.9287 44.4228 66.8272 44.7193C66.787 44.831 66.7471 44.9496 66.6973 45.0789C66.0112 46.9026 64.9874 48.5579 63.6618 49.995C62.3363 51.4322 60.7682 52.5835 59.0044 53.4161C58.7104 53.5555 58.4059 53.6883 58.1042 53.8074C58.0499 53.8268 58.0028 53.8528 57.9593 53.8855C57.526 54.0684 56.2617 54.5675 54.4404 55.0929C53.3612 55.402 51.8696 55.7055 50.6323 55.856C50.4662 55.8789 50.297 55.8989 50.1304 55.9185L50.0943 55.9228C49.731 55.9687 49.4725 56.2992 49.5184 56.6619C49.5602 57.0076 49.8633 57.2566 50.2037 57.2426L50.2587 57.2403L50.7935 57.1771C52.0308 57.0265 53.6287 56.7119 54.81 56.371C56.9445 55.7571 58.3531 55.1661 58.6136 55.0522L58.6171 55.0521C58.6576 55.0332 58.6947 55.0145 58.7316 54.9889C59.0162 54.874 59.2971 54.7524 59.5741 54.6207C61.4934 53.7164 63.1986 52.4631 64.6428 50.8972C66.0871 49.3314 67.1979 47.5315 67.9429 45.5472C67.9957 45.4074 68.042 45.2783 68.0852 45.1561C68.1873 44.8733 68.2787 44.5841 68.3598 44.2952C68.7236 44.012 69.1258 43.6584 69.5033 43.2886C70.4801 42.3336 71.0409 41.5641 71.1727 41.0015C71.2779 40.5431 71.2038 40.0818 70.9641 39.6995C70.8794 39.5654 70.778 39.4458 70.6597 39.3337Z" fill="#151515"/>
<path d="M56.4343 42.6495C59.9652 42.4084 62.6293 39.3546 62.3874 35.8284C62.1456 32.3021 59.0875 29.6412 55.5566 29.8824C52.0257 30.1235 49.3616 33.1772 49.6035 36.7035C49.8453 40.2297 52.9034 42.8906 56.4343 42.6495Z" fill="#FFF8F1"/>
<path d="M56.2834 43.3363C54.4679 43.4108 52.7204 42.7979 51.3414 41.5989C49.9159 40.3571 49.0595 38.6345 48.9268 36.7514C48.7973 34.8648 49.4111 33.044 50.6544 31.6206C51.8977 30.1971 53.6225 29.3421 55.5081 29.2097C57.3972 29.0806 59.2204 29.6938 60.6459 30.9356C62.0715 32.1775 62.9278 33.9001 63.0606 35.7831C63.19 37.6697 62.5762 39.4905 61.3329 40.914C60.0896 42.3375 58.3648 43.1925 56.4793 43.3249L56.2798 43.3331L56.2834 43.3363ZM55.7664 30.5475L55.6048 30.5541C52.4517 30.7694 50.0639 33.5057 50.2799 36.6547C50.3842 38.1811 51.0788 39.5733 52.2328 40.5786C53.3868 41.5838 54.8641 42.0771 56.3891 41.9733C57.9176 41.8693 59.3115 41.1758 60.318 40.0234C61.3245 38.8711 61.8182 37.3958 61.714 35.8728C61.6098 34.3463 60.9152 32.9541 59.7612 31.9488C58.6466 30.9798 57.2346 30.4839 55.7663 30.5441L55.7664 30.5475Z" fill="#151515"/>
<path d="M56.296 40.584C58.7003 40.42 60.5158 38.3401 60.3513 35.9355C60.1868 33.5344 58.104 31.721 55.6962 31.8851C53.2919 32.049 51.4763 34.1289 51.6409 36.5335C51.8054 38.9347 53.8917 40.7479 56.296 40.584Z" fill="#151515"/>
<path d="M59.648 36.2295C59.6889 36.221 59.7776 36.2001 59.8149 36.1848L60.0085 36.1184L60.4432 35.9699C60.7115 35.8763 60.8975 35.7105 61.0015 35.4757C61.1055 35.241 61.1051 34.9796 61 34.6881C60.895 34.3965 60.7315 34.19 60.5061 34.0685C60.2842 33.9503 60.0356 33.9364 59.7675 34.0334L59.2482 34.2198C58.9799 34.3134 58.7975 34.4826 58.6969 34.7171C58.6 34.955 58.6005 35.2199 58.7093 35.5181C58.8027 35.7792 58.931 35.9665 59.0983 36.0973C59.269 36.2279 59.4534 36.2719 59.6481 36.233L59.648 36.2295Z" fill="#FFF8F1"/>
<path d="M34.3649 43.555C37.8958 43.3139 40.5599 40.2602 40.318 36.7339C40.0762 33.2076 37.0181 30.5468 33.4872 30.7879C29.9563 31.029 27.2922 34.0827 27.5341 37.609C27.7759 41.1353 30.834 43.7961 34.3649 43.555Z" fill="#FFF8F1"/>
<path d="M34.214 44.2423C32.3985 44.3168 30.651 43.7039 29.272 42.5049C27.8465 41.2631 26.9901 39.5404 26.8574 37.6574C26.7279 35.7708 27.3417 33.95 28.585 32.5265C29.8283 31.103 31.5531 30.248 33.4387 30.1157C37.3371 29.8492 40.724 32.7993 40.9912 36.6891C41.1206 38.5757 40.5068 40.3965 39.2635 41.82C38.0202 43.2435 36.2954 44.0985 34.4099 44.2309L34.2105 44.239L34.214 44.2423ZM33.6936 31.4536L33.5354 31.4601C32.007 31.5641 30.613 32.2576 29.6065 33.41C28.6001 34.5623 28.1064 36.0376 28.2105 37.5606C28.3148 39.0871 29.0094 40.4793 30.1634 41.4846C31.3174 42.4898 32.7947 42.9831 34.3197 42.8793C35.8482 42.7753 37.2421 42.0818 38.2486 40.9294C39.2551 39.7771 39.7488 38.3018 39.6447 36.7787C39.431 33.6847 36.778 31.3272 33.6936 31.4536Z" fill="#151515"/>
<path d="M34.2227 41.49C36.627 41.326 38.4425 39.2461 38.278 36.8415C38.1135 34.4404 36.0306 32.627 33.6229 32.7911C31.2186 32.955 29.403 35.0349 29.5676 37.4395C29.7321 39.8407 31.8149 41.6541 34.2227 41.49Z" fill="#151515"/>
<path d="M37.5786 37.135C37.6195 37.1265 37.7082 37.1057 37.7455 37.0904L37.9391 37.0239L38.3738 36.8754C38.6421 36.7818 38.8281 36.616 38.9321 36.3812C39.0361 36.1465 39.0357 35.8851 38.9306 35.5936C38.8256 35.3021 38.6621 35.0955 38.4367 34.974C38.2148 34.8558 37.9662 34.842 37.6981 34.9389L37.1788 35.1254C36.9106 35.2189 36.7281 35.3881 36.6275 35.6227C36.5306 35.8606 36.5312 36.1254 36.6399 36.4236C36.7333 36.6847 36.8616 36.8721 37.0289 37.0028C37.1996 37.1334 37.384 37.1774 37.5787 37.1385L37.5786 37.135Z" fill="#FFF8F1"/>
<path d="M44.2616 41.9207C44.3411 41.9278 44.5034 41.9383 44.5825 41.9351L44.9573 41.9197C44.9575 41.9231 45.8073 41.8985 45.8073 41.8985C46.33 41.8771 46.7493 41.6879 47.0619 41.3311C47.3711 40.9779 47.5139 40.5145 47.4903 39.9411C47.4667 39.3676 47.2897 38.9174 46.9591 38.5836C46.632 38.253 46.2052 38.0951 45.6757 38.1169L44.6578 38.1587C44.1351 38.1801 43.7193 38.3726 43.4174 38.7359C43.1154 39.0991 42.9763 39.5692 43.0002 40.1495C43.0213 40.6612 43.1446 41.062 43.3712 41.3794C43.6015 41.7002 43.8982 41.8806 44.265 41.9206L44.2616 41.9207Z" fill="#151515"/>
<path d="M27.4557 31.0359C27.3629 31.0397 27.2657 31.0231 27.1746 30.9855C26.8347 30.8447 26.6741 30.4592 26.8152 30.1197C27.2005 29.189 27.7444 28.5097 28.4796 28.0461C29.1074 27.6488 29.8894 27.4 30.9377 27.2607C31.3008 27.2113 31.6353 27.4693 31.6812 27.8321C31.7306 28.1946 31.4722 28.5286 31.109 28.5745C29.3754 28.8039 28.5708 29.3391 28.0382 30.6268C27.9348 30.8752 27.7033 31.0257 27.4523 31.0361L27.4557 31.0359Z" fill="#151515"/>
<path d="M61.5649 28.9581C61.3213 28.9819 61.0721 28.8683 60.9354 28.6435C60.2113 27.4555 59.3334 27.0479 57.5854 27.0921C57.2206 27.1002 56.9158 26.81 56.9043 26.4459C56.8962 26.0816 57.1868 25.7773 57.5514 25.7658C58.6113 25.7395 59.4224 25.8644 60.1029 26.1598C60.899 26.5055 61.5432 27.0913 62.0678 27.9537C62.2598 28.2657 62.1595 28.6757 61.847 28.864C61.7597 28.9192 61.6609 28.9473 61.5649 28.9581Z" fill="#151515"/>
<path d="M40.7888 43.9722C41.6444 45.6207 43.4018 46.6212 45.2594 46.5539C47.117 46.4867 48.7574 45.3432 49.4907 43.6396" stroke="#151515" stroke-width="1.4" stroke-miterlimit="10" stroke-linecap="round" stroke-linejoin="round"/>
</g>
<defs>
<linearGradient id="paint0_linear_2012_1260" x1="52" y1="-34.6535" x2="52" y2="82.0299" gradientUnits="userSpaceOnUse">
<stop stop-color="#5D34FF"/>
<stop offset="1" stop-color="#5C1E8E"/>
</linearGradient>
<clipPath id="clip0_2012_1260">
<rect width="82" height="81" fill="white" transform="translate(10.4704 0.999878)"/>
</clipPath>
</defs>
</svg>
