<svg width="147" height="64" viewBox="0 0 147 64" fill="none" xmlns="http://www.w3.org/2000/svg">
<g clip-path="url(#clip0_6415_7277)">
<g clip-path="url(#clip1_6415_7277)">
<path d="M116.266 39.1546C116.415 39.2442 116.495 39.4217 116.423 39.5801C116.272 39.912 115.948 40.2816 115.323 40.4471L51.7742 57.2587C48.0951 58.232 44.3236 56.0209 43.3504 52.3199L37.2216 29.0138L38.5196 28.6705L38.1503 27.2662L107.38 8.95158C107.899 8.90042 108.28 9.08133 108.52 9.28414C108.643 9.38791 108.654 9.56548 108.578 9.7072L107.596 11.5396C107.432 11.8465 107.537 12.2294 107.835 12.4088L109.862 13.6301C110.012 13.7205 110.121 13.8664 110.166 14.0365C110.209 14.2019 110.189 14.3776 110.108 14.5281L108.95 16.6886C108.786 16.9955 108.891 17.3784 109.189 17.5578L111.216 18.7791C111.366 18.8696 111.475 19.0155 111.52 19.1855C111.563 19.3509 111.543 19.5267 111.462 19.6772L110.304 21.8376C110.14 22.1445 110.245 22.5274 110.543 22.7068L112.57 23.9281C112.72 24.0186 112.829 24.1645 112.874 24.3345C112.917 24.5 112.897 24.6757 112.816 24.8262L111.658 26.9866C111.494 27.2935 111.599 27.6764 111.897 27.8558L113.924 29.0771C114.074 29.1676 114.183 29.3135 114.228 29.4836C114.271 29.649 114.251 29.8247 114.17 29.9752L113.012 32.1356C112.848 32.4425 112.953 32.8255 113.251 33.0048L115.278 34.2261C115.428 34.3166 115.537 34.4625 115.582 34.6326C115.625 34.798 115.605 34.9737 115.524 35.1242L114.367 37.2847C114.202 37.5916 114.307 37.9745 114.605 38.1539L116.266 39.1546Z" fill="url(#paint0_linear_6415_7277)"/>
<path d="M116.266 39.1546C116.415 39.2442 116.495 39.4217 116.423 39.5801C116.272 39.912 115.948 40.2816 115.323 40.4471L51.7742 57.2587C48.0951 58.232 44.3236 56.0209 43.3504 52.3199L37.2216 29.0138L38.5196 28.6705L38.1503 27.2662L107.38 8.95158C107.899 8.90042 108.28 9.08133 108.52 9.28414C108.643 9.38791 108.654 9.56548 108.578 9.7072L107.596 11.5396C107.432 11.8465 107.537 12.2294 107.835 12.4088L109.862 13.6301C110.012 13.7205 110.121 13.8664 110.166 14.0365C110.209 14.2019 110.189 14.3776 110.108 14.5281L108.95 16.6886C108.786 16.9955 108.891 17.3784 109.189 17.5578L111.216 18.7791C111.366 18.8696 111.475 19.0155 111.52 19.1855C111.563 19.3509 111.543 19.5267 111.462 19.6772L110.304 21.8376C110.14 22.1445 110.245 22.5274 110.543 22.7068L112.57 23.9281C112.72 24.0186 112.829 24.1645 112.874 24.3345C112.917 24.5 112.897 24.6757 112.816 24.8262L111.658 26.9866C111.494 27.2935 111.599 27.6764 111.897 27.8558L113.924 29.0771C114.074 29.1676 114.183 29.3135 114.228 29.4836C114.271 29.649 114.251 29.8247 114.17 29.9752L113.012 32.1356C112.848 32.4425 112.953 32.8255 113.251 33.0048L115.278 34.2261C115.428 34.3166 115.537 34.4625 115.582 34.6326C115.625 34.798 115.605 34.9737 115.524 35.1242L114.367 37.2847C114.202 37.5916 114.307 37.9745 114.605 38.1539L116.266 39.1546Z" fill="url(#paint1_radial_6415_7277)"/>
<path d="M116.266 39.1546C116.415 39.2442 116.495 39.4217 116.423 39.5801C116.272 39.912 115.948 40.2816 115.323 40.4471L51.7742 57.2587C48.0951 58.232 44.3236 56.0209 43.3504 52.3199L37.2216 29.0138L38.5196 28.6705L38.1503 27.2662L107.38 8.95158C107.899 8.90042 108.28 9.08133 108.52 9.28414C108.643 9.38791 108.654 9.56548 108.578 9.7072L107.596 11.5396C107.432 11.8465 107.537 12.2294 107.835 12.4088L109.862 13.6301C110.012 13.7205 110.121 13.8664 110.166 14.0365C110.209 14.2019 110.189 14.3776 110.108 14.5281L108.95 16.6886C108.786 16.9955 108.891 17.3784 109.189 17.5578L111.216 18.7791C111.366 18.8696 111.475 19.0155 111.52 19.1855C111.563 19.3509 111.543 19.5267 111.462 19.6772L110.304 21.8376C110.14 22.1445 110.245 22.5274 110.543 22.7068L112.57 23.9281C112.72 24.0186 112.829 24.1645 112.874 24.3345C112.917 24.5 112.897 24.6757 112.816 24.8262L111.658 26.9866C111.494 27.2935 111.599 27.6764 111.897 27.8558L113.924 29.0771C114.074 29.1676 114.183 29.3135 114.228 29.4836C114.271 29.649 114.251 29.8247 114.17 29.9752L113.012 32.1356C112.848 32.4425 112.953 32.8255 113.251 33.0048L115.278 34.2261C115.428 34.3166 115.537 34.4625 115.582 34.6326C115.625 34.798 115.605 34.9737 115.524 35.1242L114.367 37.2847C114.202 37.5916 114.307 37.9745 114.605 38.1539L116.266 39.1546Z" fill="url(#paint2_linear_6415_7277)"/>
<path d="M116.266 39.1546C116.415 39.2442 116.495 39.4217 116.423 39.5801C116.272 39.912 115.948 40.2816 115.323 40.4471L51.7742 57.2587C48.0951 58.232 44.3236 56.0209 43.3504 52.3199L37.2216 29.0138L38.5196 28.6705L38.1503 27.2662L107.38 8.95158C107.899 8.90042 108.28 9.08133 108.52 9.28414C108.643 9.38791 108.654 9.56548 108.578 9.7072L107.596 11.5396C107.432 11.8465 107.537 12.2294 107.835 12.4088L109.862 13.6301C110.012 13.7205 110.121 13.8664 110.166 14.0365C110.209 14.2019 110.189 14.3776 110.108 14.5281L108.95 16.6886C108.786 16.9955 108.891 17.3784 109.189 17.5578L111.216 18.7791C111.366 18.8696 111.475 19.0155 111.52 19.1855C111.563 19.3509 111.543 19.5267 111.462 19.6772L110.304 21.8376C110.14 22.1445 110.245 22.5274 110.543 22.7068L112.57 23.9281C112.72 24.0186 112.829 24.1645 112.874 24.3345C112.917 24.5 112.897 24.6757 112.816 24.8262L111.658 26.9866C111.494 27.2935 111.599 27.6764 111.897 27.8558L113.924 29.0771C114.074 29.1676 114.183 29.3135 114.228 29.4836C114.271 29.649 114.251 29.8247 114.17 29.9752L113.012 32.1356C112.848 32.4425 112.953 32.8255 113.251 33.0048L115.278 34.2261C115.428 34.3166 115.537 34.4625 115.582 34.6326C115.625 34.798 115.605 34.9737 115.524 35.1242L114.367 37.2847C114.202 37.5916 114.307 37.9745 114.605 38.1539L116.266 39.1546Z" fill="url(#paint3_linear_6415_7277)"/>
<path d="M116.266 39.1546C116.415 39.2442 116.495 39.4217 116.423 39.5801C116.272 39.912 115.948 40.2816 115.323 40.4471L51.7742 57.2587C48.0951 58.232 44.3236 56.0209 43.3504 52.3199L37.2216 29.0138L38.5196 28.6705L38.1503 27.2662L107.38 8.95158C107.899 8.90042 108.28 9.08133 108.52 9.28414C108.643 9.38791 108.654 9.56548 108.578 9.7072L107.596 11.5396C107.432 11.8465 107.537 12.2294 107.835 12.4088L109.862 13.6301C110.012 13.7205 110.121 13.8664 110.166 14.0365C110.209 14.2019 110.189 14.3776 110.108 14.5281L108.95 16.6886C108.786 16.9955 108.891 17.3784 109.189 17.5578L111.216 18.7791C111.366 18.8696 111.475 19.0155 111.52 19.1855C111.563 19.3509 111.543 19.5267 111.462 19.6772L110.304 21.8376C110.14 22.1445 110.245 22.5274 110.543 22.7068L112.57 23.9281C112.72 24.0186 112.829 24.1645 112.874 24.3345C112.917 24.5 112.897 24.6757 112.816 24.8262L111.658 26.9866C111.494 27.2935 111.599 27.6764 111.897 27.8558L113.924 29.0771C114.074 29.1676 114.183 29.3135 114.228 29.4836C114.271 29.649 114.251 29.8247 114.17 29.9752L113.012 32.1356C112.848 32.4425 112.953 32.8255 113.251 33.0048L115.278 34.2261C115.428 34.3166 115.537 34.4625 115.582 34.6326C115.625 34.798 115.605 34.9737 115.524 35.1242L114.367 37.2847C114.202 37.5916 114.307 37.9745 114.605 38.1539L116.266 39.1546Z" fill="url(#paint4_linear_6415_7277)"/>
<path d="M102.378 15.3343C103.228 15.1094 104.098 15.6165 104.322 16.4669L109.298 35.3877C109.521 36.2381 109.013 37.1098 108.163 37.3347C107.313 37.5596 106.443 37.0525 106.219 36.2021L101.244 17.2813C101.02 16.4309 101.528 15.5592 102.378 15.3343Z" fill="url(#paint5_linear_6415_7277)"/>
<path d="M102.378 15.3343C103.228 15.1094 104.098 15.6165 104.322 16.4669L109.298 35.3877C109.521 36.2381 109.013 37.1098 108.163 37.3347C107.313 37.5596 106.443 37.0525 106.219 36.2021L101.244 17.2813C101.02 16.4309 101.528 15.5592 102.378 15.3343Z" fill="url(#paint6_radial_6415_7277)"/>
<path d="M96.8492 16.7969C97.2981 16.6782 97.7577 16.9459 97.8757 17.3949L101.154 29.861C101.272 30.31 101.004 30.7702 100.555 30.889C100.106 31.0077 99.6466 30.74 99.5286 30.291L96.2504 17.8249C96.1323 17.3759 96.4004 16.9157 96.8492 16.7969Z" fill="url(#paint7_linear_6415_7277)"/>
<path d="M96.8492 16.7969C97.2981 16.6782 97.7577 16.9459 97.8757 17.3949L101.154 29.861C101.272 30.31 101.004 30.7702 100.555 30.889C100.106 31.0077 99.6466 30.74 99.5286 30.291L96.2504 17.8249C96.1323 17.3759 96.4004 16.9157 96.8492 16.7969Z" fill="url(#paint8_radial_6415_7277)"/>
<path d="M92.1701 18.0348C92.619 17.916 93.0785 18.1838 93.1966 18.6328L96.4748 31.0988C96.5929 31.5478 96.3248 32.0081 95.8759 32.1268C95.4271 32.2456 94.9675 31.9778 94.8495 31.5288L91.5713 19.0628C91.4532 18.6138 91.7213 18.1535 92.1701 18.0348Z" fill="url(#paint9_linear_6415_7277)"/>
<path d="M92.1701 18.0348C92.619 17.916 93.0785 18.1838 93.1966 18.6328L96.4748 31.0988C96.5929 31.5478 96.3248 32.0081 95.8759 32.1268C95.4271 32.2456 94.9675 31.9778 94.8495 31.5288L91.5713 19.0628C91.4532 18.6138 91.7213 18.1535 92.1701 18.0348Z" fill="url(#paint10_radial_6415_7277)"/>
<path d="M87.4048 19.2954C87.8537 19.1767 88.3133 19.4444 88.4313 19.8934L91.7095 32.3595C91.8276 32.8085 91.5595 33.2687 91.1106 33.3875C90.6618 33.5062 90.2022 33.2385 90.0842 32.7895L86.806 20.3234C86.6879 19.8744 86.956 19.4142 87.4048 19.2954Z" fill="url(#paint11_linear_6415_7277)"/>
<path d="M87.4048 19.2954C87.8537 19.1767 88.3133 19.4444 88.4313 19.8934L91.7095 32.3595C91.8276 32.8085 91.5595 33.2687 91.1106 33.3875C90.6618 33.5062 90.2022 33.2385 90.0842 32.7895L86.806 20.3234C86.6879 19.8744 86.956 19.4142 87.4048 19.2954Z" fill="url(#paint12_radial_6415_7277)"/>
<path d="M82.6395 20.5561C83.0884 20.4373 83.548 20.7051 83.666 21.1541L86.9442 33.6201C87.0623 34.0691 86.7942 34.5294 86.3453 34.6481C85.8965 34.7669 85.4369 34.4991 85.3189 34.0501L82.0407 21.5841C81.9226 21.1351 82.1907 20.6748 82.6395 20.5561Z" fill="url(#paint13_linear_6415_7277)"/>
<path d="M82.6395 20.5561C83.0884 20.4373 83.548 20.7051 83.666 21.1541L86.9442 33.6201C87.0623 34.0691 86.7942 34.5294 86.3453 34.6481C85.8965 34.7669 85.4369 34.4991 85.3189 34.0501L82.0407 21.5841C81.9226 21.1351 82.1907 20.6748 82.6395 20.5561Z" fill="url(#paint14_radial_6415_7277)"/>
<path d="M77.8742 21.8167C78.3231 21.698 78.7827 21.9657 78.9007 22.4147L82.1789 34.8808C82.297 35.3298 82.0289 35.79 81.58 35.9088C81.1312 36.0275 80.6716 35.7598 80.5536 35.3108L77.2754 22.8447C77.1573 22.3957 77.4254 21.9355 77.8742 21.8167Z" fill="url(#paint15_linear_6415_7277)"/>
<path d="M77.8742 21.8167C78.3231 21.698 78.7827 21.9657 78.9007 22.4147L82.1789 34.8808C82.297 35.3298 82.0289 35.79 81.58 35.9088C81.1312 36.0275 80.6716 35.7598 80.5536 35.3108L77.2754 22.8447C77.1573 22.3957 77.4254 21.9355 77.8742 21.8167Z" fill="url(#paint16_radial_6415_7277)"/>
<path d="M96.3035 33.7528C96.7524 33.6341 97.2119 33.9018 97.33 34.3508L98.5545 39.0071C98.6726 39.4561 98.4044 39.9164 97.9556 40.0351C97.5068 40.1539 97.0472 39.8861 96.9291 39.4371L95.7046 34.7808C95.5866 34.3318 95.8547 33.8716 96.3035 33.7528Z" fill="url(#paint17_linear_6415_7277)"/>
<path d="M96.3035 33.7528C96.7524 33.6341 97.2119 33.9018 97.33 34.3508L98.5545 39.0071C98.6726 39.4561 98.4044 39.9164 97.9556 40.0351C97.5068 40.1539 97.0472 39.8861 96.9291 39.4371L95.7046 34.7808C95.5866 34.3318 95.8547 33.8716 96.3035 33.7528Z" fill="url(#paint18_radial_6415_7277)"/>
<path d="M100.983 32.515C101.431 32.3963 101.891 32.664 102.009 33.113L103.234 37.7693C103.352 38.2183 103.084 38.6785 102.635 38.7973C102.186 38.916 101.726 38.6483 101.608 38.1993L100.384 33.543C100.266 33.094 100.534 32.6337 100.983 32.515Z" fill="url(#paint19_linear_6415_7277)"/>
<path d="M100.983 32.515C101.431 32.3963 101.891 32.664 102.009 33.113L103.234 37.7693C103.352 38.2183 103.084 38.6785 102.635 38.7973C102.186 38.916 101.726 38.6483 101.608 38.1993L100.384 33.543C100.266 33.094 100.534 32.6337 100.983 32.515Z" fill="url(#paint20_radial_6415_7277)"/>
<path d="M91.5382 35.0135C91.9871 34.8947 92.4466 35.1625 92.5647 35.6115L93.7892 40.2678C93.9073 40.7168 93.6391 41.177 93.1903 41.2958C92.7415 41.4145 92.2819 41.1468 92.1638 40.6978L90.9393 36.0415C90.8213 35.5925 91.0894 35.1322 91.5382 35.0135Z" fill="url(#paint21_linear_6415_7277)"/>
<path d="M91.5382 35.0135C91.9871 34.8947 92.4466 35.1625 92.5647 35.6115L93.7892 40.2678C93.9073 40.7168 93.6391 41.177 93.1903 41.2958C92.7415 41.4145 92.2819 41.1468 92.1638 40.6978L90.9393 36.0415C90.8213 35.5925 91.0894 35.1322 91.5382 35.0135Z" fill="url(#paint22_radial_6415_7277)"/>
<path d="M86.7729 36.2741C87.2218 36.1554 87.6813 36.4231 87.7994 36.8721L89.0239 41.5284C89.142 41.9774 88.8738 42.4377 88.425 42.5564C87.9762 42.6752 87.5166 42.4074 87.3985 41.9584L86.174 37.3021C86.056 36.8531 86.3241 36.3929 86.7729 36.2741Z" fill="url(#paint23_linear_6415_7277)"/>
<path d="M86.7729 36.2741C87.2218 36.1554 87.6813 36.4231 87.7994 36.8721L89.0239 41.5284C89.142 41.9774 88.8738 42.4377 88.425 42.5564C87.9762 42.6752 87.5166 42.4074 87.3985 41.9584L86.174 37.3021C86.056 36.8531 86.3241 36.3929 86.7729 36.2741Z" fill="url(#paint24_radial_6415_7277)"/>
<path d="M82.0076 37.5348C82.4565 37.416 82.916 37.6838 83.0341 38.1328L84.2586 42.7891C84.3767 43.2381 84.1085 43.6983 83.6597 43.8171C83.2109 43.9358 82.7513 43.6681 82.6332 43.2191L81.4087 38.5628C81.2907 38.1138 81.5588 37.6535 82.0076 37.5348Z" fill="url(#paint25_linear_6415_7277)"/>
<path d="M82.0076 37.5348C82.4565 37.416 82.916 37.6838 83.0341 38.1328L84.2586 42.7891C84.3767 43.2381 84.1085 43.6983 83.6597 43.8171C83.2109 43.9358 82.7513 43.6681 82.6332 43.2191L81.4087 38.5628C81.2907 38.1138 81.5588 37.6535 82.0076 37.5348Z" fill="url(#paint26_radial_6415_7277)"/>
<path d="M73.73 22.9131C74.1788 22.7943 74.6384 23.0621 74.7565 23.5111L78.0347 35.9771C78.1528 36.4261 77.8846 36.8864 77.4358 37.0051C76.987 37.1238 76.5274 36.8561 76.4093 36.4071L73.1311 23.9411C73.013 23.4921 73.2812 23.0318 73.73 22.9131Z" fill="url(#paint27_linear_6415_7277)"/>
<path d="M73.73 22.9131C74.1788 22.7943 74.6384 23.0621 74.7565 23.5111L78.0347 35.9771C78.1528 36.4261 77.8846 36.8864 77.4358 37.0051C76.987 37.1238 76.5274 36.8561 76.4093 36.4071L73.1311 23.9411C73.013 23.4921 73.2812 23.0318 73.73 22.9131Z" fill="url(#paint28_radial_6415_7277)"/>
<path d="M69.0509 24.1509C69.4997 24.0322 69.9593 24.2999 70.0774 24.7489L73.3556 37.215C73.4737 37.664 73.2055 38.1242 72.7567 38.243C72.3079 38.3617 71.8483 38.094 71.7302 37.6449L68.452 25.1789C68.3339 24.7299 68.6021 24.2696 69.0509 24.1509Z" fill="url(#paint29_linear_6415_7277)"/>
<path d="M69.0509 24.1509C69.4997 24.0322 69.9593 24.2999 70.0774 24.7489L73.3556 37.215C73.4737 37.664 73.2055 38.1242 72.7567 38.243C72.3079 38.3617 71.8483 38.094 71.7302 37.6449L68.452 25.1789C68.3339 24.7299 68.6021 24.2696 69.0509 24.1509Z" fill="url(#paint30_radial_6415_7277)"/>
<path d="M64.2856 25.4116C64.7344 25.2928 65.194 25.5606 65.3121 26.0096L68.5903 38.4756C68.7084 38.9246 68.4402 39.3849 67.9914 39.5036C67.5426 39.6223 67.083 39.3546 66.9649 38.9056L63.6867 26.4395C63.5686 25.9905 63.8368 25.5303 64.2856 25.4116Z" fill="url(#paint31_linear_6415_7277)"/>
<path d="M64.2856 25.4116C64.7344 25.2928 65.194 25.5606 65.3121 26.0096L68.5903 38.4756C68.7084 38.9246 68.4402 39.3849 67.9914 39.5036C67.5426 39.6223 67.083 39.3546 66.9649 38.9056L63.6867 26.4395C63.5686 25.9905 63.8368 25.5303 64.2856 25.4116Z" fill="url(#paint32_radial_6415_7277)"/>
<path d="M59.5203 26.6722C59.9691 26.5535 60.4287 26.8212 60.5468 27.2702L63.825 39.7362C63.9431 40.1853 63.6749 40.6455 63.2261 40.7642C62.7773 40.883 62.3177 40.6152 62.1996 40.1662L58.9214 27.7002C58.8033 27.2512 59.0715 26.7909 59.5203 26.6722Z" fill="url(#paint33_linear_6415_7277)"/>
<path d="M59.5203 26.6722C59.9691 26.5535 60.4287 26.8212 60.5468 27.2702L63.825 39.7362C63.9431 40.1853 63.6749 40.6455 63.2261 40.7642C62.7773 40.883 62.3177 40.6152 62.1996 40.1662L58.9214 27.7002C58.8033 27.2512 59.0715 26.7909 59.5203 26.6722Z" fill="url(#paint34_radial_6415_7277)"/>
<path d="M54.755 27.9328C55.2038 27.8141 55.6634 28.0818 55.7815 28.5309L59.0597 40.9969C59.1778 41.4459 58.9096 41.9062 58.4608 42.0249C58.012 42.1436 57.5524 41.8759 57.4343 41.4269L54.1561 28.9608C54.038 28.5118 54.3062 28.0516 54.755 27.9328Z" fill="url(#paint35_linear_6415_7277)"/>
<path d="M54.755 27.9328C55.2038 27.8141 55.6634 28.0818 55.7815 28.5309L59.0597 40.9969C59.1778 41.4459 58.9096 41.9062 58.4608 42.0249C58.012 42.1436 57.5524 41.8759 57.4343 41.4269L54.1561 28.9608C54.038 28.5118 54.3062 28.0516 54.755 27.9328Z" fill="url(#paint36_radial_6415_7277)"/>
<path d="M73.1843 39.869C73.6331 39.7502 74.0927 40.018 74.2108 40.467L75.4352 45.1233C75.5533 45.5723 75.2852 46.0325 74.8364 46.1513C74.3875 46.27 73.9279 46.0023 73.8099 45.5532L72.5854 40.897C72.4673 40.4479 72.7355 39.9877 73.1843 39.869Z" fill="url(#paint37_linear_6415_7277)"/>
<path d="M73.1843 39.869C73.6331 39.7502 74.0927 40.018 74.2108 40.467L75.4352 45.1233C75.5533 45.5723 75.2852 46.0325 74.8364 46.1513C74.3875 46.27 73.9279 46.0023 73.8099 45.5532L72.5854 40.897C72.4673 40.4479 72.7355 39.9877 73.1843 39.869Z" fill="url(#paint38_radial_6415_7277)"/>
<path d="M77.8634 38.6311C78.3122 38.5124 78.7718 38.7801 78.8899 39.2291L80.1143 43.8854C80.2324 44.3344 79.9643 44.7947 79.5155 44.9134C79.0666 45.0321 78.6071 44.7644 78.489 44.3154L77.2645 39.6591C77.1464 39.2101 77.4146 38.7499 77.8634 38.6311Z" fill="url(#paint39_linear_6415_7277)"/>
<path d="M77.8634 38.6311C78.3122 38.5124 78.7718 38.7801 78.8899 39.2291L80.1143 43.8854C80.2324 44.3344 79.9643 44.7947 79.5155 44.9134C79.0666 45.0321 78.6071 44.7644 78.489 44.3154L77.2645 39.6591C77.1464 39.2101 77.4146 38.7499 77.8634 38.6311Z" fill="url(#paint40_radial_6415_7277)"/>
<path d="M68.419 41.1296C68.8678 41.0109 69.3274 41.2786 69.4455 41.7276L70.6699 46.3839C70.788 46.8329 70.5199 47.2932 70.0711 47.4119C69.6222 47.5306 69.1626 47.2629 69.0446 46.8139L67.8201 42.1576C67.702 41.7086 67.9702 41.2483 68.419 41.1296Z" fill="url(#paint41_linear_6415_7277)"/>
<path d="M68.419 41.1296C68.8678 41.0109 69.3274 41.2786 69.4455 41.7276L70.6699 46.3839C70.788 46.8329 70.5199 47.2932 70.0711 47.4119C69.6222 47.5306 69.1626 47.2629 69.0446 46.8139L67.8201 42.1576C67.702 41.7086 67.9702 41.2483 68.419 41.1296Z" fill="url(#paint42_radial_6415_7277)"/>
<path d="M63.6537 42.3902C64.1025 42.2715 64.5621 42.5392 64.6802 42.9883L65.9046 47.6445C66.0227 48.0936 65.7546 48.5538 65.3058 48.6725C64.8569 48.7913 64.3973 48.5235 64.2793 48.0745L63.0548 43.4182C62.9367 42.9692 63.2049 42.509 63.6537 42.3902Z" fill="url(#paint43_linear_6415_7277)"/>
<path d="M63.6537 42.3902C64.1025 42.2715 64.5621 42.5392 64.6802 42.9883L65.9046 47.6445C66.0227 48.0936 65.7546 48.5538 65.3058 48.6725C64.8569 48.7913 64.3973 48.5235 64.2793 48.0745L63.0548 43.4182C62.9367 42.9692 63.2049 42.509 63.6537 42.3902Z" fill="url(#paint44_radial_6415_7277)"/>
<path d="M58.8884 43.6509C59.3372 43.5322 59.7968 43.7999 59.9149 44.2489L61.1393 48.9052C61.2574 49.3542 60.9893 49.8144 60.5405 49.9332C60.0916 50.0519 59.632 49.7842 59.514 49.3352L58.2895 44.6789C58.1714 44.2299 58.4396 43.7696 58.8884 43.6509Z" fill="url(#paint45_linear_6415_7277)"/>
<path d="M58.8884 43.6509C59.3372 43.5322 59.7968 43.7999 59.9149 44.2489L61.1393 48.9052C61.2574 49.3542 60.9893 49.8144 60.5405 49.9332C60.0916 50.0519 59.632 49.7842 59.514 49.3352L58.2895 44.6789C58.1714 44.2299 58.4396 43.7696 58.8884 43.6509Z" fill="url(#paint46_radial_6415_7277)"/>
<path d="M50.0882 29.1674C50.537 29.0487 50.9966 29.3164 51.1147 29.7654L54.3929 42.2315C54.511 42.6805 54.2428 43.1407 53.794 43.2595C53.3452 43.3782 52.8856 43.1105 52.7675 42.6615L49.4893 30.1954C49.3712 29.7464 49.6394 29.2862 50.0882 29.1674Z" fill="url(#paint47_linear_6415_7277)"/>
<path d="M50.0882 29.1674C50.537 29.0487 50.9966 29.3164 51.1147 29.7654L54.3929 42.2315C54.511 42.6805 54.2428 43.1407 53.794 43.2595C53.3452 43.3782 52.8856 43.1105 52.7675 42.6615L49.4893 30.1954C49.3712 29.7464 49.6394 29.2862 50.0882 29.1674Z" fill="url(#paint48_radial_6415_7277)"/>
<path d="M45.0962 29.5658C45.545 29.4471 46.0046 29.7148 46.1226 30.1638L49.4008 42.6298C49.5189 43.0789 49.2508 43.5391 48.802 43.6578C48.3531 43.7766 47.8935 43.5088 47.7755 43.0598L44.4973 30.5938C44.3792 30.1448 44.6473 29.6845 45.0962 29.5658Z" fill="url(#paint49_linear_6415_7277)"/>
<path d="M45.0962 29.5658C45.545 29.4471 46.0046 29.7148 46.1226 30.1638L49.4008 42.6298C49.5189 43.0789 49.2508 43.5391 48.802 43.6578C48.3531 43.7766 47.8935 43.5088 47.7755 43.0598L44.4973 30.5938C44.3792 30.1448 44.6473 29.6845 45.0962 29.5658Z" fill="url(#paint50_radial_6415_7277)"/>
<path d="M39.7283 28.5353C40.1772 28.4165 40.6367 28.6843 40.7548 29.1333L44.033 41.5993C44.1511 42.0483 43.883 42.5086 43.4341 42.6273C42.9853 42.746 42.5257 42.4783 42.4077 42.0293L39.1295 29.5633C39.0114 29.1142 39.2795 28.654 39.7283 28.5353Z" fill="url(#paint51_linear_6415_7277)"/>
<path d="M39.7283 28.5353C40.1772 28.4165 40.6367 28.6843 40.7548 29.1333L44.033 41.5993C44.1511 42.0483 43.883 42.5086 43.4341 42.6273C42.9853 42.746 42.5257 42.4783 42.4077 42.0293L39.1295 29.5633C39.0114 29.1142 39.2795 28.654 39.7283 28.5353Z" fill="url(#paint52_radial_6415_7277)"/>
<path d="M54.2216 44.8855C54.6704 44.7667 55.13 45.0345 55.2481 45.4835L56.4726 50.1398C56.5906 50.5888 56.3225 51.049 55.8737 51.1678C55.4248 51.2865 54.9653 51.0188 54.8472 50.5698L53.6227 45.9135C53.5046 45.4645 53.7728 45.0042 54.2216 44.8855Z" fill="url(#paint53_linear_6415_7277)"/>
<path d="M54.2216 44.8855C54.6704 44.7667 55.13 45.0345 55.2481 45.4835L56.4726 50.1398C56.5906 50.5888 56.3225 51.049 55.8737 51.1678C55.4248 51.2865 54.9653 51.0188 54.8472 50.5698L53.6227 45.9135C53.5046 45.4645 53.7728 45.0042 54.2216 44.8855Z" fill="url(#paint54_radial_6415_7277)"/>
<path d="M49.2295 45.2838C49.6784 45.1651 50.138 45.4329 50.256 45.8819L51.4805 50.5381C51.5986 50.9872 51.3304 51.4474 50.8816 51.5661C50.4328 51.6849 49.9732 51.4171 49.8551 50.9681L48.6307 46.3118C48.5126 45.8628 48.7807 45.4026 49.2295 45.2838Z" fill="url(#paint55_linear_6415_7277)"/>
<path d="M49.2295 45.2838C49.6784 45.1651 50.138 45.4329 50.256 45.8819L51.4805 50.5381C51.5986 50.9872 51.3304 51.4474 50.8816 51.5661C50.4328 51.6849 49.9732 51.4171 49.8551 50.9681L48.6307 46.3118C48.5126 45.8628 48.7807 45.4026 49.2295 45.2838Z" fill="url(#paint56_radial_6415_7277)"/>
<path d="M43.8617 44.2533C44.3106 44.1346 44.7701 44.4023 44.8882 44.8513L46.1127 49.5076C46.2308 49.9566 45.9626 50.4169 45.5138 50.5356C45.065 50.6543 44.6054 50.3866 44.4873 49.9376L43.2628 45.2813C43.1448 44.8323 43.4129 44.372 43.8617 44.2533Z" fill="url(#paint57_linear_6415_7277)"/>
<path d="M43.8617 44.2533C44.3106 44.1346 44.7701 44.4023 44.8882 44.8513L46.1127 49.5076C46.2308 49.9566 45.9626 50.4169 45.5138 50.5356C45.065 50.6543 44.6054 50.3866 44.4873 49.9376L43.2628 45.2813C43.1448 44.8323 43.4129 44.372 43.8617 44.2533Z" fill="url(#paint58_radial_6415_7277)"/>
<path d="M114.943 40.3009C115.564 40.0253 115.955 39.9889 116.106 39.657C116.178 39.4986 116.097 39.3212 115.948 39.2315L114.287 38.2308C113.99 38.0514 113.885 37.6685 114.049 37.3616L115.207 35.2012C115.287 35.0507 115.308 34.875 115.264 34.7095C115.22 34.5395 115.111 34.3936 114.96 34.3031L112.933 33.0818C112.636 32.9024 112.531 32.5195 112.695 32.2126L113.853 30.0522C113.933 29.9017 113.954 29.7259 113.91 29.5605C113.866 29.3905 113.757 29.2446 113.606 29.1541L111.579 27.9328C111.282 27.7534 111.177 27.3705 111.341 27.0636L112.499 24.9031C112.579 24.7526 112.6 24.5769 112.556 24.4115C112.512 24.2414 112.403 24.0955 112.252 24.0051L110.225 22.7838C109.928 22.6044 109.823 22.2215 109.987 21.9146L111.145 19.7541C111.225 19.6036 111.246 19.4279 111.202 19.2625C111.158 19.0924 111.049 18.9465 110.898 18.856L108.871 17.6348C108.574 17.4554 108.469 17.0724 108.633 16.7655L109.791 14.6051C109.871 14.4546 109.892 14.2789 109.848 14.1135C109.804 13.9434 109.694 13.7975 109.544 13.707L107.517 12.4857C107.219 12.3063 107.114 11.9234 107.279 11.6165L108.261 9.78416C108.337 9.64244 108.281 9.50038 108.159 9.39661C107.919 9.1938 107.657 9.15211 107.139 9.20327" stroke="url(#paint59_linear_6415_7277)" stroke-opacity="0.7" stroke-width="0.2"/>
<path d="M48.0863 45.0284C48.952 44.7994 49.4682 43.9078 49.2392 43.037L43.8085 22.386C43.581 21.5206 42.6991 21.0036 41.8388 21.2312C38.3978 22.1415 36.3461 25.6855 37.2564 29.147L43.1233 51.4569C42.4636 47.5918 45.8697 45.6563 47.9485 45.0649L48.0863 45.0284Z" fill="url(#paint60_linear_6415_7277)"/>
<path d="M48.0863 45.0284C48.952 44.7994 49.4682 43.9078 49.2392 43.037L43.8085 22.386C43.581 21.5206 42.6991 21.0036 41.8388 21.2312C38.3978 22.1415 36.3461 25.6855 37.2564 29.147L43.1233 51.4569C42.4636 47.5918 45.8697 45.6563 47.9485 45.0649L48.0863 45.0284Z" fill="url(#paint61_linear_6415_7277)"/>
<path d="M48.0863 45.0284C48.952 44.7994 49.4682 43.9078 49.2392 43.037L43.8085 22.386C43.581 21.5206 42.6991 21.0036 41.8388 21.2312C38.3978 22.1415 36.3461 25.6855 37.2564 29.147L43.1233 51.4569C42.4636 47.5918 45.8697 45.6563 47.9485 45.0649L48.0863 45.0284Z" fill="url(#paint62_radial_6415_7277)"/>
<path d="M51.911 57.0312C47.9699 58.0738 44.522 56.0275 43.4872 52.0924L43.1274 50.7244" stroke="url(#paint63_linear_6415_7277)" stroke-width="0.2"/>
</g>
<g clip-path="url(#clip2_6415_7277)">
<path d="M84.271 3.68778C84.3934 3.56812 84.582 3.53574 84.7142 3.64442C84.9912 3.87216 85.2607 4.2743 85.2607 4.91358L85.2605 58.4635C85.2605 59.0149 84.8141 59.4623 84.2627 59.4635L54.387 59.5304C53.8339 59.5317 53.3848 59.0836 53.3848 58.5304L53.385 4.58898C53.4665 4.08071 53.7339 3.76153 53.9865 3.58336C54.1158 3.49219 54.2871 3.52596 54.4025 3.63416L55.8946 5.03304C56.1445 5.26732 56.5342 5.26321 56.7791 5.02375L58.4466 3.39324C58.5701 3.27246 58.736 3.20483 58.9085 3.20483C59.0764 3.20483 59.2379 3.26875 59.3605 3.38361L61.1197 5.03304C61.3696 5.26732 61.7593 5.26321 62.0042 5.02375L63.6717 3.39324C63.7953 3.27246 63.9611 3.20483 64.1337 3.20483C64.3015 3.20483 64.4631 3.26875 64.5856 3.38361L66.3448 5.03304C66.5947 5.26732 66.9844 5.26321 67.2293 5.02375L68.8968 3.39324C69.0204 3.27246 69.1862 3.20483 69.3588 3.20483C69.5266 3.20483 69.6882 3.26875 69.8107 3.38361L71.5699 5.03304C71.8199 5.26732 72.2095 5.26321 72.4544 5.02375L74.122 3.39324C74.2455 3.27246 74.4113 3.20483 74.5839 3.20483C74.7518 3.20483 74.9133 3.26875 75.0358 3.38361L76.7951 5.03304C77.045 5.26732 77.4346 5.26321 77.6796 5.02375L79.3471 3.39324C79.4706 3.27246 79.6364 3.20483 79.809 3.20483C79.9769 3.20483 80.1384 3.26875 80.261 3.38361L82.0202 5.03304C82.2701 5.26732 82.6597 5.26321 82.9047 5.02375L84.271 3.68778Z" fill="url(#paint64_linear_6415_7277)"/>
<path d="M84.271 3.68778C84.3934 3.56812 84.582 3.53574 84.7142 3.64442C84.9912 3.87216 85.2607 4.2743 85.2607 4.91358L85.2605 58.4635C85.2605 59.0149 84.8141 59.4623 84.2627 59.4635L54.387 59.5304C53.8339 59.5317 53.3848 59.0836 53.3848 58.5304L53.385 4.58898C53.4665 4.08071 53.7339 3.76153 53.9865 3.58336C54.1158 3.49219 54.2871 3.52596 54.4025 3.63416L55.8946 5.03304C56.1445 5.26732 56.5342 5.26321 56.7791 5.02375L58.4466 3.39324C58.5701 3.27246 58.736 3.20483 58.9085 3.20483C59.0764 3.20483 59.2379 3.26875 59.3605 3.38361L61.1197 5.03304C61.3696 5.26732 61.7593 5.26321 62.0042 5.02375L63.6717 3.39324C63.7953 3.27246 63.9611 3.20483 64.1337 3.20483C64.3015 3.20483 64.4631 3.26875 64.5856 3.38361L66.3448 5.03304C66.5947 5.26732 66.9844 5.26321 67.2293 5.02375L68.8968 3.39324C69.0204 3.27246 69.1862 3.20483 69.3588 3.20483C69.5266 3.20483 69.6882 3.26875 69.8107 3.38361L71.5699 5.03304C71.8199 5.26732 72.2095 5.26321 72.4544 5.02375L74.122 3.39324C74.2455 3.27246 74.4113 3.20483 74.5839 3.20483C74.7518 3.20483 74.9133 3.26875 75.0358 3.38361L76.7951 5.03304C77.045 5.26732 77.4346 5.26321 77.6796 5.02375L79.3471 3.39324C79.4706 3.27246 79.6364 3.20483 79.809 3.20483C79.9769 3.20483 80.1384 3.26875 80.261 3.38361L82.0202 5.03304C82.2701 5.26732 82.6597 5.26321 82.9047 5.02375L84.271 3.68778Z" fill="url(#paint65_radial_6415_7277)"/>
<path d="M84.271 3.68778C84.3934 3.56812 84.582 3.53574 84.7142 3.64442C84.9912 3.87216 85.2607 4.2743 85.2607 4.91358L85.2605 58.4635C85.2605 59.0149 84.8141 59.4623 84.2627 59.4635L54.387 59.5304C53.8339 59.5317 53.3848 59.0836 53.3848 58.5304L53.385 4.58898C53.4665 4.08071 53.7339 3.76153 53.9865 3.58336C54.1158 3.49219 54.2871 3.52596 54.4025 3.63416L55.8946 5.03304C56.1445 5.26732 56.5342 5.26321 56.7791 5.02375L58.4466 3.39324C58.5701 3.27246 58.736 3.20483 58.9085 3.20483C59.0764 3.20483 59.2379 3.26875 59.3605 3.38361L61.1197 5.03304C61.3696 5.26732 61.7593 5.26321 62.0042 5.02375L63.6717 3.39324C63.7953 3.27246 63.9611 3.20483 64.1337 3.20483C64.3015 3.20483 64.4631 3.26875 64.5856 3.38361L66.3448 5.03304C66.5947 5.26732 66.9844 5.26321 67.2293 5.02375L68.8968 3.39324C69.0204 3.27246 69.1862 3.20483 69.3588 3.20483C69.5266 3.20483 69.6882 3.26875 69.8107 3.38361L71.5699 5.03304C71.8199 5.26732 72.2095 5.26321 72.4544 5.02375L74.122 3.39324C74.2455 3.27246 74.4113 3.20483 74.5839 3.20483C74.7518 3.20483 74.9133 3.26875 75.0358 3.38361L76.7951 5.03304C77.045 5.26732 77.4346 5.26321 77.6796 5.02375L79.3471 3.39324C79.4706 3.27246 79.6364 3.20483 79.809 3.20483C79.9769 3.20483 80.1384 3.26875 80.261 3.38361L82.0202 5.03304C82.2701 5.26732 82.6597 5.26321 82.9047 5.02375L84.271 3.68778Z" fill="url(#paint66_linear_6415_7277)"/>
<path d="M84.271 3.68778C84.3934 3.56812 84.582 3.53574 84.7142 3.64442C84.9912 3.87216 85.2607 4.2743 85.2607 4.91358L85.2605 58.4635C85.2605 59.0149 84.8141 59.4623 84.2627 59.4635L54.387 59.5304C53.8339 59.5317 53.3848 59.0836 53.3848 58.5304L53.385 4.58898C53.4665 4.08071 53.7339 3.76153 53.9865 3.58336C54.1158 3.49219 54.2871 3.52596 54.4025 3.63416L55.8946 5.03304C56.1445 5.26732 56.5342 5.26321 56.7791 5.02375L58.4466 3.39324C58.5701 3.27246 58.736 3.20483 58.9085 3.20483C59.0764 3.20483 59.2379 3.26875 59.3605 3.38361L61.1197 5.03304C61.3696 5.26732 61.7593 5.26321 62.0042 5.02375L63.6717 3.39324C63.7953 3.27246 63.9611 3.20483 64.1337 3.20483C64.3015 3.20483 64.4631 3.26875 64.5856 3.38361L66.3448 5.03304C66.5947 5.26732 66.9844 5.26321 67.2293 5.02375L68.8968 3.39324C69.0204 3.27246 69.1862 3.20483 69.3588 3.20483C69.5266 3.20483 69.6882 3.26875 69.8107 3.38361L71.5699 5.03304C71.8199 5.26732 72.2095 5.26321 72.4544 5.02375L74.122 3.39324C74.2455 3.27246 74.4113 3.20483 74.5839 3.20483C74.7518 3.20483 74.9133 3.26875 75.0358 3.38361L76.7951 5.03304C77.045 5.26732 77.4346 5.26321 77.6796 5.02375L79.3471 3.39324C79.4706 3.27246 79.6364 3.20483 79.809 3.20483C79.9769 3.20483 80.1384 3.26875 80.261 3.38361L82.0202 5.03304C82.2701 5.26732 82.6597 5.26321 82.9047 5.02375L84.271 3.68778Z" fill="url(#paint67_linear_6415_7277)"/>
<path d="M58.7988 9.64091C58.7988 8.76405 59.5097 8.05322 60.3865 8.05322H79.896C80.7729 8.05322 81.4837 8.76405 81.4837 9.64091C81.4837 10.5178 80.7729 11.2286 79.896 11.2286H60.3865C59.5097 11.2286 58.7988 10.5178 58.7988 9.64091Z" fill="url(#paint68_linear_6415_7277)"/>
<path d="M58.7988 15.3439C58.7988 14.8809 59.1741 14.5056 59.6371 14.5056H72.491C72.954 14.5056 73.3293 14.8809 73.3293 15.3439C73.3293 15.8069 72.954 16.1822 72.491 16.1822H59.6371C59.1741 16.1822 58.7988 15.8069 58.7988 15.3439Z" fill="url(#paint69_linear_6415_7277)"/>
<path d="M58.7988 20.1704C58.7988 19.7075 59.1741 19.3321 59.6371 19.3321H72.491C72.954 19.3321 73.3293 19.7075 73.3293 20.1704C73.3293 20.6334 72.954 21.0087 72.491 21.0087H59.6371C59.1741 21.0087 58.7988 20.6334 58.7988 20.1704Z" fill="url(#paint70_linear_6415_7277)"/>
<path d="M58.7988 25.0859C58.7988 24.6229 59.1741 24.2476 59.6371 24.2476H72.491C72.954 24.2476 73.3293 24.6229 73.3293 25.0859C73.3293 25.5489 72.954 25.9242 72.491 25.9242H59.6371C59.1741 25.9242 58.7988 25.5489 58.7988 25.0859Z" fill="url(#paint71_linear_6415_7277)"/>
<path d="M58.7988 30.0014C58.7988 29.5384 59.1741 29.1631 59.6371 29.1631H72.491C72.954 29.1631 73.3293 29.5384 73.3293 30.0014C73.3293 30.4644 72.954 30.8397 72.491 30.8397H59.6371C59.1741 30.8397 58.7988 30.4644 58.7988 30.0014Z" fill="url(#paint72_linear_6415_7277)"/>
<path d="M58.7988 34.9169C58.7988 34.4539 59.1741 34.0786 59.6371 34.0786H72.491C72.954 34.0786 73.3293 34.4539 73.3293 34.9169C73.3293 35.3799 72.954 35.7552 72.491 35.7552H59.6371C59.1741 35.7552 58.7988 35.3799 58.7988 34.9169Z" fill="url(#paint73_linear_6415_7277)"/>
<path d="M75.0059 20.1704C75.0059 19.7075 75.3813 19.3321 75.8442 19.3321H80.6454C81.1084 19.3321 81.4837 19.7075 81.4837 20.1704C81.4837 20.6334 81.1084 21.0087 80.6454 21.0087H75.8442C75.3813 21.0087 75.0059 20.6334 75.0059 20.1704Z" fill="url(#paint74_linear_6415_7277)"/>
<path d="M75.0059 15.3439C75.0059 14.8809 75.3813 14.5056 75.8442 14.5056H80.6454C81.1084 14.5056 81.4837 14.8809 81.4837 15.3439C81.4837 15.8069 81.1084 16.1822 80.6454 16.1822H75.8442C75.3813 16.1822 75.0059 15.8069 75.0059 15.3439Z" fill="url(#paint75_linear_6415_7277)"/>
<path d="M75.0059 25.0859C75.0059 24.6229 75.3813 24.2476 75.8442 24.2476H80.6454C81.1084 24.2476 81.4837 24.6229 81.4837 25.0859C81.4837 25.5489 81.1084 25.9242 80.6454 25.9242H75.8442C75.3813 25.9242 75.0059 25.5489 75.0059 25.0859Z" fill="url(#paint76_linear_6415_7277)"/>
<path d="M75.0059 30.0014C75.0059 29.5384 75.3813 29.1631 75.8442 29.1631H80.6454C81.1084 29.1631 81.4837 29.5384 81.4837 30.0014C81.4837 30.4644 81.1084 30.8397 80.6454 30.8397H75.8442C75.3813 30.8397 75.0059 30.4644 75.0059 30.0014Z" fill="url(#paint77_linear_6415_7277)"/>
<path d="M75.0059 34.9169C75.0059 34.4539 75.3813 34.0786 75.8442 34.0786H80.6454C81.1084 34.0786 81.4837 34.4539 81.4837 34.9169C81.4837 35.3799 81.1084 35.7552 80.6454 35.7552H75.8442C75.3813 35.7552 75.0059 35.3799 75.0059 34.9169Z" fill="url(#paint78_linear_6415_7277)"/>
<path d="M58.7988 39.1917C58.7988 38.7287 59.1741 38.3534 59.6371 38.3534H72.491C72.954 38.3534 73.3293 38.7287 73.3293 39.1917C73.3293 39.6547 72.954 40.03 72.491 40.03H59.6371C59.1741 40.03 58.7988 39.6547 58.7988 39.1917Z" fill="url(#paint79_linear_6415_7277)"/>
<path d="M58.7988 44.0183C58.7988 43.5553 59.1741 43.18 59.6371 43.18H72.491C72.954 43.18 73.3293 43.5553 73.3293 44.0183C73.3293 44.4813 72.954 44.8566 72.491 44.8566H59.6371C59.1741 44.8566 58.7988 44.4813 58.7988 44.0183Z" fill="url(#paint80_linear_6415_7277)"/>
<path d="M58.7988 48.9338C58.7988 48.4708 59.1741 48.0955 59.6371 48.0955H72.491C72.954 48.0955 73.3293 48.4708 73.3293 48.9338C73.3293 49.3968 72.954 49.7721 72.491 49.7721H59.6371C59.1741 49.7721 58.7988 49.3968 58.7988 48.9338Z" fill="url(#paint81_linear_6415_7277)"/>
<path d="M58.7988 53.8493C58.7988 53.3863 59.1741 53.011 59.6371 53.011H72.491C72.954 53.011 73.3293 53.3863 73.3293 53.8493C73.3293 54.3122 72.954 54.6875 72.491 54.6875H59.6371C59.1741 54.6875 58.7988 54.3122 58.7988 53.8493Z" fill="url(#paint82_linear_6415_7277)"/>
<path d="M75.0059 44.0183C75.0059 43.5553 75.3813 43.18 75.8442 43.18H80.6454C81.1084 43.18 81.4837 43.5553 81.4837 44.0183C81.4837 44.4813 81.1084 44.8566 80.6454 44.8566H75.8442C75.3813 44.8566 75.0059 44.4813 75.0059 44.0183Z" fill="url(#paint83_linear_6415_7277)"/>
<path d="M75.0059 39.1917C75.0059 38.7287 75.3813 38.3534 75.8442 38.3534H80.6454C81.1084 38.3534 81.4837 38.7287 81.4837 39.1917C81.4837 39.6547 81.1084 40.03 80.6454 40.03H75.8442C75.3813 40.03 75.0059 39.6547 75.0059 39.1917Z" fill="url(#paint84_linear_6415_7277)"/>
<path d="M75.0059 48.9338C75.0059 48.4708 75.3813 48.0955 75.8442 48.0955H80.6454C81.1084 48.0955 81.4837 48.4708 81.4837 48.9338C81.4837 49.3968 81.1084 49.7721 80.6454 49.7721H75.8442C75.3813 49.7721 75.0059 49.3968 75.0059 48.9338Z" fill="url(#paint85_linear_6415_7277)"/>
<path d="M75.0059 53.8493C75.0059 53.3863 75.3813 53.011 75.8442 53.011H80.6454C81.1084 53.011 81.4837 53.3863 81.4837 53.8493C81.4837 54.3122 81.1084 54.6875 80.6454 54.6875H75.8442C75.3813 54.6875 75.0059 54.3122 75.0059 53.8493Z" fill="url(#paint86_linear_6415_7277)"/>
<path d="M85.0714 4.93005C84.9641 4.25755 85.0287 3.86928 84.7472 3.63819C84.6129 3.52791 84.4212 3.56077 84.2969 3.68218L82.9086 5.0378C82.6597 5.28078 82.2638 5.28495 82.0098 5.04723L80.2223 3.37354C80.0978 3.25699 79.9336 3.19214 79.7631 3.19214C79.5877 3.19214 79.4192 3.26076 79.2937 3.38332L77.5994 5.0378C77.3505 5.28078 76.9546 5.28495 76.7006 5.04723L74.9131 3.37354C74.7885 3.25699 74.6244 3.19214 74.4538 3.19214C74.2785 3.19214 74.11 3.26076 73.9845 3.38332L72.2901 5.0378C72.0413 5.28078 71.6453 5.28495 71.3914 5.04723L69.6039 3.37354C69.4793 3.25699 69.3152 3.19214 69.1446 3.19214C68.9693 3.19214 68.8008 3.26076 68.6753 3.38332L66.9809 5.0378C66.732 5.28078 66.3361 5.28495 66.0822 5.04723L64.2946 3.37354C64.1701 3.25699 64.006 3.19214 63.8354 3.19214C63.6601 3.19214 63.4916 3.26076 63.366 3.38332L61.6717 5.0378C61.4228 5.28078 61.0269 5.28495 60.7729 5.04723L58.9854 3.37354C58.8609 3.25699 58.6967 3.19214 58.5262 3.19214C58.3508 3.19214 58.1823 3.26076 58.0568 3.38332L56.3624 5.0378C56.1136 5.28078 55.7177 5.28495 55.4637 5.04723L53.9476 3.62777C53.8303 3.51798 53.6793 3.53527 53.548 3.62777C53.2913 3.80857 53.1844 4.05162 53.1016 4.56737" stroke="url(#paint87_linear_6415_7277)" stroke-opacity="0.7" stroke-width="0.2"/>
</g>
<g filter="url(#filter0_d_6415_7277)">
<circle cx="86" cy="41.5" r="11.5" fill="url(#paint88_linear_6415_7277)"/>
</g>
<path d="M81.6195 44.156C81.6195 43.8798 81.3957 43.656 81.1195 43.656H81C80.7239 43.656 80.5 43.8798 80.5 44.156V45.9017C80.5 46.5193 81.0038 47.0246 81.6195 47.0246H83.3586C83.6347 47.0246 83.8586 46.8007 83.8586 46.5246V46.4017C83.8586 46.1256 83.6347 45.9017 83.3586 45.9017H82.1195C81.8434 45.9017 81.6195 45.6779 81.6195 45.4017V44.156ZM81.6195 37.6229C81.6195 37.3467 81.8434 37.1229 82.1195 37.1229H83.3586C83.6347 37.1229 83.8586 36.899 83.8586 36.6229V36.5C83.8586 36.2239 83.6347 36 83.3586 36H81.6195C81.0038 36 80.5 36.5053 80.5 37.1229V38.8686C80.5 39.1448 80.7239 39.3686 81 39.3686H81.1195C81.3957 39.3686 81.6195 39.1448 81.6195 38.8686V37.6229ZM85.9958 39.2665C84.7588 39.2665 83.7568 40.2715 83.7568 41.5123C83.7568 42.7531 84.7588 43.758 85.9958 43.758C87.2329 43.758 88.2349 42.7531 88.2349 41.5123C88.2349 40.2715 87.2329 39.2665 85.9958 39.2665ZM85.9958 42.6352C85.3801 42.6352 84.8763 42.1299 84.8763 41.5123C84.8763 40.8947 85.3801 40.3894 85.9958 40.3894C86.6116 40.3894 87.1154 40.8947 87.1154 41.5123C87.1154 42.1299 86.6116 42.6352 85.9958 42.6352ZM90.3722 36H88.6331C88.357 36 88.1331 36.2239 88.1331 36.5V36.6229C88.1331 36.899 88.357 37.1229 88.6331 37.1229H89.8722C90.1483 37.1229 90.3722 37.3467 90.3722 37.6229V38.8686C90.3722 39.1448 90.596 39.3686 90.8722 39.3686H90.9917C91.2678 39.3686 91.4917 39.1448 91.4917 38.8686V37.1229C91.4917 36.5053 90.9879 36 90.3722 36ZM90.3722 45.4017C90.3722 45.6779 90.1483 45.9017 89.8722 45.9017H88.6331C88.357 45.9017 88.1331 46.1256 88.1331 46.4017V46.5246C88.1331 46.8007 88.357 47.0246 88.6331 47.0246H90.3722C90.9879 47.0246 91.4917 46.5193 91.4917 45.9017V44.156C91.4917 43.8798 91.2678 43.656 90.9917 43.656H90.8722C90.596 43.656 90.3722 43.8798 90.3722 44.156V45.4017Z" fill="black"/>
<path d="M51.8333 2.83333C51.8333 2.55719 52.0572 2.33333 52.3333 2.33333H56C56.2761 2.33333 56.5 2.10948 56.5 1.83333V1.5C56.5 1.22386 56.2761 1 56 1H51.8333C51.1 1 50.5 1.6 50.5 2.33333V6.5C50.5 6.77614 50.7239 7 51 7H51.3333C51.6095 7 51.8333 6.77614 51.8333 6.5V2.83333Z" fill="black"/>
<path d="M51.8333 2.83333C51.8333 2.55719 52.0572 2.33333 52.3333 2.33333H56C56.2761 2.33333 56.5 2.10948 56.5 1.83333V1.5C56.5 1.22386 56.2761 1 56 1H51.8333C51.1 1 50.5 1.6 50.5 2.33333V6.5C50.5 6.77614 50.7239 7 51 7H51.3333C51.6095 7 51.8333 6.77614 51.8333 6.5V2.83333Z" fill="url(#paint89_linear_6415_7277)"/>
<path d="M86.6667 2.33333C86.9428 2.33333 87.1667 2.55719 87.1667 2.83333V6.5C87.1667 6.77614 87.3905 7 87.6667 7H88C88.2761 7 88.5 6.77614 88.5 6.5V2.33333C88.5 1.6 87.9 1 87.1667 1H83C82.7239 1 82.5 1.22386 82.5 1.5V1.83333C82.5 2.10948 82.7239 2.33333 83 2.33333H86.6667Z" fill="black"/>
<path d="M86.6667 2.33333C86.9428 2.33333 87.1667 2.55719 87.1667 2.83333V6.5C87.1667 6.77614 87.3905 7 87.6667 7H88C88.2761 7 88.5 6.77614 88.5 6.5V2.33333C88.5 1.6 87.9 1 87.1667 1H83C82.7239 1 82.5 1.22386 82.5 1.5V1.83333C82.5 2.10948 82.7239 2.33333 83 2.33333H86.6667Z" fill="url(#paint90_linear_6415_7277)"/>
<path d="M51.8333 61.1667C51.8333 61.4428 52.0572 61.6667 52.3333 61.6667H56C56.2761 61.6667 56.5 61.8905 56.5 62.1667V62.5C56.5 62.7761 56.2761 63 56 63H51.8333C51.1 63 50.5 62.4 50.5 61.6667V57.5C50.5 57.2239 50.7239 57 51 57H51.3333C51.6095 57 51.8333 57.2239 51.8333 57.5V61.1667Z" fill="black"/>
<path d="M51.8333 61.1667C51.8333 61.4428 52.0572 61.6667 52.3333 61.6667H56C56.2761 61.6667 56.5 61.8905 56.5 62.1667V62.5C56.5 62.7761 56.2761 63 56 63H51.8333C51.1 63 50.5 62.4 50.5 61.6667V57.5C50.5 57.2239 50.7239 57 51 57H51.3333C51.6095 57 51.8333 57.2239 51.8333 57.5V61.1667Z" fill="url(#paint91_linear_6415_7277)"/>
<path d="M86.6667 61.6667C86.9428 61.6667 87.1667 61.4428 87.1667 61.1667V57.5C87.1667 57.2239 87.3905 57 87.6667 57H88C88.2761 57 88.5 57.2239 88.5 57.5V61.6667C88.5 62.4 87.9 63 87.1667 63H83C82.7239 63 82.5 62.7761 82.5 62.5V62.1667C82.5 61.8905 82.7239 61.6667 83 61.6667H86.6667Z" fill="black"/>
<path d="M86.6667 61.6667C86.9428 61.6667 87.1667 61.4428 87.1667 61.1667V57.5C87.1667 57.2239 87.3905 57 87.6667 57H88C88.2761 57 88.5 57.2239 88.5 57.5V61.6667C88.5 62.4 87.9 63 87.1667 63H83C82.7239 63 82.5 62.7761 82.5 62.5V62.1667C82.5 61.8905 82.7239 61.6667 83 61.6667H86.6667Z" fill="url(#paint92_linear_6415_7277)"/>
</g>
<defs>
<filter id="filter0_d_6415_7277" x="73.5" y="30" width="25" height="25" filterUnits="userSpaceOnUse" color-interpolation-filters="sRGB">
<feFlood flood-opacity="0" result="BackgroundImageFix"/>
<feColorMatrix in="SourceAlpha" type="matrix" values="0 0 0 0 0 0 0 0 0 0 0 0 0 0 0 0 0 0 127 0" result="hardAlpha"/>
<feOffset dy="1"/>
<feGaussianBlur stdDeviation="0.5"/>
<feComposite in2="hardAlpha" operator="out"/>
<feColorMatrix type="matrix" values="0 0 0 0 0.780154 0 0 0 0 0.758574 0 0 0 0 0.815467 0 0 0 1 0"/>
<feBlend mode="normal" in2="BackgroundImageFix" result="effect1_dropShadow_6415_7277"/>
<feBlend mode="normal" in="SourceGraphic" in2="effect1_dropShadow_6415_7277" result="shape"/>
</filter>
<linearGradient id="paint0_linear_6415_7277" x1="86.6448" y1="17.7309" x2="94.137" y2="46.0518" gradientUnits="userSpaceOnUse">
<stop stop-color="#DFD8E8"/>
<stop offset="1" stop-color="#E0DBEA"/>
</linearGradient>
<radialGradient id="paint1_radial_6415_7277" cx="0" cy="0" r="1" gradientTransform="matrix(-15.938 1.65369 -2.56044 -25.1348 99.8637 30.375)" gradientUnits="userSpaceOnUse">
<stop stop-color="#F9F3FE"/>
<stop offset="1" stop-color="#F9F3FE" stop-opacity="0"/>
</radialGradient>
<linearGradient id="paint2_linear_6415_7277" x1="85.4342" y1="48.3541" x2="85.2274" y2="47.5721" gradientUnits="userSpaceOnUse">
<stop stop-color="#FCF9FF"/>
<stop offset="1" stop-color="#FCF9FF" stop-opacity="0"/>
</linearGradient>
<linearGradient id="paint3_linear_6415_7277" x1="77.1739" y1="16.9426" x2="77.3711" y2="17.6879" gradientUnits="userSpaceOnUse">
<stop stop-color="#BBB8C3"/>
<stop offset="1" stop-color="#C7C1CF" stop-opacity="0"/>
</linearGradient>
<linearGradient id="paint4_linear_6415_7277" x1="38.3102" y1="43.6045" x2="88.3449" y2="29.3515" gradientUnits="userSpaceOnUse">
<stop stop-color="#786992"/>
<stop offset="1" stop-color="#C7C1CF" stop-opacity="0"/>
</linearGradient>
<linearGradient id="paint5_linear_6415_7277" x1="106.395" y1="24.3506" x2="42.1981" y2="41.2326" gradientUnits="userSpaceOnUse">
<stop stop-color="#B6ADC5"/>
<stop offset="0.716346" stop-color="#948AA3"/>
<stop offset="1" stop-color="#AEA4BE"/>
</linearGradient>
<radialGradient id="paint6_radial_6415_7277" cx="0" cy="0" r="1" gradientTransform="matrix(11.4119 25.7027 -12.4826 5.56313 72.876 26.9565)" gradientUnits="userSpaceOnUse">
<stop stop-color="white"/>
<stop offset="1" stop-color="#C7C1CF" stop-opacity="0"/>
</radialGradient>
<linearGradient id="paint7_linear_6415_7277" x1="106.395" y1="24.3506" x2="42.1981" y2="41.2326" gradientUnits="userSpaceOnUse">
<stop stop-color="#B6ADC5"/>
<stop offset="0.716346" stop-color="#948AA3"/>
<stop offset="1" stop-color="#AEA4BE"/>
</linearGradient>
<radialGradient id="paint8_radial_6415_7277" cx="0" cy="0" r="1" gradientTransform="matrix(11.4119 25.7027 -12.4826 5.56313 72.876 26.9565)" gradientUnits="userSpaceOnUse">
<stop stop-color="white"/>
<stop offset="1" stop-color="#C7C1CF" stop-opacity="0"/>
</radialGradient>
<linearGradient id="paint9_linear_6415_7277" x1="106.395" y1="24.3506" x2="42.1981" y2="41.2326" gradientUnits="userSpaceOnUse">
<stop stop-color="#B6ADC5"/>
<stop offset="0.716346" stop-color="#948AA3"/>
<stop offset="1" stop-color="#AEA4BE"/>
</linearGradient>
<radialGradient id="paint10_radial_6415_7277" cx="0" cy="0" r="1" gradientTransform="matrix(11.4119 25.7027 -12.4826 5.56313 72.876 26.9565)" gradientUnits="userSpaceOnUse">
<stop stop-color="white"/>
<stop offset="1" stop-color="#C7C1CF" stop-opacity="0"/>
</radialGradient>
<linearGradient id="paint11_linear_6415_7277" x1="106.395" y1="24.3506" x2="42.1981" y2="41.2326" gradientUnits="userSpaceOnUse">
<stop stop-color="#B6ADC5"/>
<stop offset="0.716346" stop-color="#948AA3"/>
<stop offset="1" stop-color="#AEA4BE"/>
</linearGradient>
<radialGradient id="paint12_radial_6415_7277" cx="0" cy="0" r="1" gradientTransform="matrix(11.4119 25.7027 -12.4826 5.56313 72.876 26.9565)" gradientUnits="userSpaceOnUse">
<stop stop-color="white"/>
<stop offset="1" stop-color="#C7C1CF" stop-opacity="0"/>
</radialGradient>
<linearGradient id="paint13_linear_6415_7277" x1="106.395" y1="24.3506" x2="42.1981" y2="41.2326" gradientUnits="userSpaceOnUse">
<stop stop-color="#B6ADC5"/>
<stop offset="0.716346" stop-color="#948AA3"/>
<stop offset="1" stop-color="#AEA4BE"/>
</linearGradient>
<radialGradient id="paint14_radial_6415_7277" cx="0" cy="0" r="1" gradientTransform="matrix(11.4119 25.7027 -12.4826 5.56313 72.876 26.9565)" gradientUnits="userSpaceOnUse">
<stop stop-color="white"/>
<stop offset="1" stop-color="#C7C1CF" stop-opacity="0"/>
</radialGradient>
<linearGradient id="paint15_linear_6415_7277" x1="106.395" y1="24.3506" x2="42.1981" y2="41.2326" gradientUnits="userSpaceOnUse">
<stop stop-color="#B6ADC5"/>
<stop offset="0.716346" stop-color="#948AA3"/>
<stop offset="1" stop-color="#AEA4BE"/>
</linearGradient>
<radialGradient id="paint16_radial_6415_7277" cx="0" cy="0" r="1" gradientTransform="matrix(11.4119 25.7027 -12.4826 5.56313 72.876 26.9565)" gradientUnits="userSpaceOnUse">
<stop stop-color="white"/>
<stop offset="1" stop-color="#C7C1CF" stop-opacity="0"/>
</radialGradient>
<linearGradient id="paint17_linear_6415_7277" x1="106.395" y1="24.3506" x2="42.1981" y2="41.2326" gradientUnits="userSpaceOnUse">
<stop stop-color="#B6ADC5"/>
<stop offset="0.716346" stop-color="#948AA3"/>
<stop offset="1" stop-color="#AEA4BE"/>
</linearGradient>
<radialGradient id="paint18_radial_6415_7277" cx="0" cy="0" r="1" gradientTransform="matrix(11.4119 25.7027 -12.4826 5.56313 72.876 26.9565)" gradientUnits="userSpaceOnUse">
<stop stop-color="white"/>
<stop offset="1" stop-color="#C7C1CF" stop-opacity="0"/>
</radialGradient>
<linearGradient id="paint19_linear_6415_7277" x1="106.395" y1="24.3506" x2="42.1981" y2="41.2326" gradientUnits="userSpaceOnUse">
<stop stop-color="#B6ADC5"/>
<stop offset="0.716346" stop-color="#948AA3"/>
<stop offset="1" stop-color="#AEA4BE"/>
</linearGradient>
<radialGradient id="paint20_radial_6415_7277" cx="0" cy="0" r="1" gradientTransform="matrix(11.4119 25.7027 -12.4826 5.56313 72.876 26.9565)" gradientUnits="userSpaceOnUse">
<stop stop-color="white"/>
<stop offset="1" stop-color="#C7C1CF" stop-opacity="0"/>
</radialGradient>
<linearGradient id="paint21_linear_6415_7277" x1="106.395" y1="24.3506" x2="42.1981" y2="41.2326" gradientUnits="userSpaceOnUse">
<stop stop-color="#B6ADC5"/>
<stop offset="0.716346" stop-color="#948AA3"/>
<stop offset="1" stop-color="#AEA4BE"/>
</linearGradient>
<radialGradient id="paint22_radial_6415_7277" cx="0" cy="0" r="1" gradientTransform="matrix(11.4119 25.7027 -12.4826 5.56313 72.876 26.9565)" gradientUnits="userSpaceOnUse">
<stop stop-color="white"/>
<stop offset="1" stop-color="#C7C1CF" stop-opacity="0"/>
</radialGradient>
<linearGradient id="paint23_linear_6415_7277" x1="106.395" y1="24.3506" x2="42.1981" y2="41.2326" gradientUnits="userSpaceOnUse">
<stop stop-color="#B6ADC5"/>
<stop offset="0.716346" stop-color="#948AA3"/>
<stop offset="1" stop-color="#AEA4BE"/>
</linearGradient>
<radialGradient id="paint24_radial_6415_7277" cx="0" cy="0" r="1" gradientTransform="matrix(11.4119 25.7027 -12.4826 5.56313 72.876 26.9565)" gradientUnits="userSpaceOnUse">
<stop stop-color="white"/>
<stop offset="1" stop-color="#C7C1CF" stop-opacity="0"/>
</radialGradient>
<linearGradient id="paint25_linear_6415_7277" x1="106.395" y1="24.3506" x2="42.1981" y2="41.2326" gradientUnits="userSpaceOnUse">
<stop stop-color="#B6ADC5"/>
<stop offset="0.716346" stop-color="#948AA3"/>
<stop offset="1" stop-color="#AEA4BE"/>
</linearGradient>
<radialGradient id="paint26_radial_6415_7277" cx="0" cy="0" r="1" gradientTransform="matrix(11.4119 25.7027 -12.4826 5.56313 72.876 26.9565)" gradientUnits="userSpaceOnUse">
<stop stop-color="white"/>
<stop offset="1" stop-color="#C7C1CF" stop-opacity="0"/>
</radialGradient>
<linearGradient id="paint27_linear_6415_7277" x1="106.395" y1="24.3506" x2="42.1981" y2="41.2326" gradientUnits="userSpaceOnUse">
<stop stop-color="#B6ADC5"/>
<stop offset="0.716346" stop-color="#948AA3"/>
<stop offset="1" stop-color="#AEA4BE"/>
</linearGradient>
<radialGradient id="paint28_radial_6415_7277" cx="0" cy="0" r="1" gradientTransform="matrix(11.4119 25.7027 -12.4826 5.56313 72.876 26.9565)" gradientUnits="userSpaceOnUse">
<stop stop-color="white"/>
<stop offset="1" stop-color="#C7C1CF" stop-opacity="0"/>
</radialGradient>
<linearGradient id="paint29_linear_6415_7277" x1="106.395" y1="24.3506" x2="42.1981" y2="41.2326" gradientUnits="userSpaceOnUse">
<stop stop-color="#B6ADC5"/>
<stop offset="0.716346" stop-color="#948AA3"/>
<stop offset="1" stop-color="#AEA4BE"/>
</linearGradient>
<radialGradient id="paint30_radial_6415_7277" cx="0" cy="0" r="1" gradientTransform="matrix(11.4119 25.7027 -12.4826 5.56313 72.876 26.9565)" gradientUnits="userSpaceOnUse">
<stop stop-color="white"/>
<stop offset="1" stop-color="#C7C1CF" stop-opacity="0"/>
</radialGradient>
<linearGradient id="paint31_linear_6415_7277" x1="106.395" y1="24.3506" x2="42.1981" y2="41.2326" gradientUnits="userSpaceOnUse">
<stop stop-color="#B6ADC5"/>
<stop offset="0.716346" stop-color="#948AA3"/>
<stop offset="1" stop-color="#AEA4BE"/>
</linearGradient>
<radialGradient id="paint32_radial_6415_7277" cx="0" cy="0" r="1" gradientTransform="matrix(11.4119 25.7027 -12.4826 5.56313 72.876 26.9565)" gradientUnits="userSpaceOnUse">
<stop stop-color="white"/>
<stop offset="1" stop-color="#C7C1CF" stop-opacity="0"/>
</radialGradient>
<linearGradient id="paint33_linear_6415_7277" x1="106.395" y1="24.3506" x2="42.1981" y2="41.2326" gradientUnits="userSpaceOnUse">
<stop stop-color="#B6ADC5"/>
<stop offset="0.716346" stop-color="#948AA3"/>
<stop offset="1" stop-color="#AEA4BE"/>
</linearGradient>
<radialGradient id="paint34_radial_6415_7277" cx="0" cy="0" r="1" gradientTransform="matrix(11.4119 25.7027 -12.4826 5.56313 72.876 26.9565)" gradientUnits="userSpaceOnUse">
<stop stop-color="white"/>
<stop offset="1" stop-color="#C7C1CF" stop-opacity="0"/>
</radialGradient>
<linearGradient id="paint35_linear_6415_7277" x1="106.395" y1="24.3506" x2="42.1981" y2="41.2326" gradientUnits="userSpaceOnUse">
<stop stop-color="#B6ADC5"/>
<stop offset="0.716346" stop-color="#948AA3"/>
<stop offset="1" stop-color="#AEA4BE"/>
</linearGradient>
<radialGradient id="paint36_radial_6415_7277" cx="0" cy="0" r="1" gradientTransform="matrix(11.4119 25.7027 -12.4826 5.56313 72.876 26.9565)" gradientUnits="userSpaceOnUse">
<stop stop-color="white"/>
<stop offset="1" stop-color="#C7C1CF" stop-opacity="0"/>
</radialGradient>
<linearGradient id="paint37_linear_6415_7277" x1="106.395" y1="24.3506" x2="42.1981" y2="41.2326" gradientUnits="userSpaceOnUse">
<stop stop-color="#B6ADC5"/>
<stop offset="0.716346" stop-color="#948AA3"/>
<stop offset="1" stop-color="#AEA4BE"/>
</linearGradient>
<radialGradient id="paint38_radial_6415_7277" cx="0" cy="0" r="1" gradientTransform="matrix(11.4119 25.7027 -12.4826 5.56313 72.876 26.9565)" gradientUnits="userSpaceOnUse">
<stop stop-color="white"/>
<stop offset="1" stop-color="#C7C1CF" stop-opacity="0"/>
</radialGradient>
<linearGradient id="paint39_linear_6415_7277" x1="106.395" y1="24.3506" x2="42.1981" y2="41.2326" gradientUnits="userSpaceOnUse">
<stop stop-color="#B6ADC5"/>
<stop offset="0.716346" stop-color="#948AA3"/>
<stop offset="1" stop-color="#AEA4BE"/>
</linearGradient>
<radialGradient id="paint40_radial_6415_7277" cx="0" cy="0" r="1" gradientTransform="matrix(11.4119 25.7027 -12.4826 5.56313 72.876 26.9565)" gradientUnits="userSpaceOnUse">
<stop stop-color="white"/>
<stop offset="1" stop-color="#C7C1CF" stop-opacity="0"/>
</radialGradient>
<linearGradient id="paint41_linear_6415_7277" x1="106.395" y1="24.3506" x2="42.1981" y2="41.2326" gradientUnits="userSpaceOnUse">
<stop stop-color="#B6ADC5"/>
<stop offset="0.716346" stop-color="#948AA3"/>
<stop offset="1" stop-color="#AEA4BE"/>
</linearGradient>
<radialGradient id="paint42_radial_6415_7277" cx="0" cy="0" r="1" gradientTransform="matrix(11.4119 25.7027 -12.4826 5.56313 72.876 26.9565)" gradientUnits="userSpaceOnUse">
<stop stop-color="white"/>
<stop offset="1" stop-color="#C7C1CF" stop-opacity="0"/>
</radialGradient>
<linearGradient id="paint43_linear_6415_7277" x1="106.395" y1="24.3506" x2="42.1981" y2="41.2326" gradientUnits="userSpaceOnUse">
<stop stop-color="#B6ADC5"/>
<stop offset="0.716346" stop-color="#948AA3"/>
<stop offset="1" stop-color="#AEA4BE"/>
</linearGradient>
<radialGradient id="paint44_radial_6415_7277" cx="0" cy="0" r="1" gradientTransform="matrix(11.4119 25.7027 -12.4826 5.56313 72.876 26.9565)" gradientUnits="userSpaceOnUse">
<stop stop-color="white"/>
<stop offset="1" stop-color="#C7C1CF" stop-opacity="0"/>
</radialGradient>
<linearGradient id="paint45_linear_6415_7277" x1="106.395" y1="24.3506" x2="42.1981" y2="41.2326" gradientUnits="userSpaceOnUse">
<stop stop-color="#B6ADC5"/>
<stop offset="0.716346" stop-color="#948AA3"/>
<stop offset="1" stop-color="#AEA4BE"/>
</linearGradient>
<radialGradient id="paint46_radial_6415_7277" cx="0" cy="0" r="1" gradientTransform="matrix(11.4119 25.7027 -12.4826 5.56313 72.876 26.9565)" gradientUnits="userSpaceOnUse">
<stop stop-color="white"/>
<stop offset="1" stop-color="#C7C1CF" stop-opacity="0"/>
</radialGradient>
<linearGradient id="paint47_linear_6415_7277" x1="106.395" y1="24.3506" x2="42.1981" y2="41.2326" gradientUnits="userSpaceOnUse">
<stop stop-color="#B6ADC5"/>
<stop offset="0.716346" stop-color="#948AA3"/>
<stop offset="1" stop-color="#AEA4BE"/>
</linearGradient>
<radialGradient id="paint48_radial_6415_7277" cx="0" cy="0" r="1" gradientTransform="matrix(11.4119 25.7027 -12.4826 5.56313 72.876 26.9565)" gradientUnits="userSpaceOnUse">
<stop stop-color="white"/>
<stop offset="1" stop-color="#C7C1CF" stop-opacity="0"/>
</radialGradient>
<linearGradient id="paint49_linear_6415_7277" x1="106.395" y1="24.3506" x2="42.1981" y2="41.2326" gradientUnits="userSpaceOnUse">
<stop stop-color="#B6ADC5"/>
<stop offset="0.716346" stop-color="#948AA3"/>
<stop offset="1" stop-color="#AEA4BE"/>
</linearGradient>
<radialGradient id="paint50_radial_6415_7277" cx="0" cy="0" r="1" gradientTransform="matrix(11.4119 25.7027 -12.4826 5.56313 72.876 26.9565)" gradientUnits="userSpaceOnUse">
<stop stop-color="white"/>
<stop offset="1" stop-color="#C7C1CF" stop-opacity="0"/>
</radialGradient>
<linearGradient id="paint51_linear_6415_7277" x1="106.395" y1="24.3506" x2="42.1981" y2="41.2326" gradientUnits="userSpaceOnUse">
<stop stop-color="#B6ADC5"/>
<stop offset="0.716346" stop-color="#948AA3"/>
<stop offset="1" stop-color="#AEA4BE"/>
</linearGradient>
<radialGradient id="paint52_radial_6415_7277" cx="0" cy="0" r="1" gradientTransform="matrix(11.4119 25.7027 -12.4826 5.56313 72.876 26.9565)" gradientUnits="userSpaceOnUse">
<stop stop-color="white"/>
<stop offset="1" stop-color="#C7C1CF" stop-opacity="0"/>
</radialGradient>
<linearGradient id="paint53_linear_6415_7277" x1="106.395" y1="24.3506" x2="42.1981" y2="41.2326" gradientUnits="userSpaceOnUse">
<stop stop-color="#B6ADC5"/>
<stop offset="0.716346" stop-color="#948AA3"/>
<stop offset="1" stop-color="#AEA4BE"/>
</linearGradient>
<radialGradient id="paint54_radial_6415_7277" cx="0" cy="0" r="1" gradientTransform="matrix(11.4119 25.7027 -12.4826 5.56313 72.876 26.9565)" gradientUnits="userSpaceOnUse">
<stop stop-color="white"/>
<stop offset="1" stop-color="#C7C1CF" stop-opacity="0"/>
</radialGradient>
<linearGradient id="paint55_linear_6415_7277" x1="106.395" y1="24.3506" x2="42.1981" y2="41.2326" gradientUnits="userSpaceOnUse">
<stop stop-color="#B6ADC5"/>
<stop offset="0.716346" stop-color="#948AA3"/>
<stop offset="1" stop-color="#AEA4BE"/>
</linearGradient>
<radialGradient id="paint56_radial_6415_7277" cx="0" cy="0" r="1" gradientTransform="matrix(11.4119 25.7027 -12.4826 5.56313 72.876 26.9565)" gradientUnits="userSpaceOnUse">
<stop stop-color="white"/>
<stop offset="1" stop-color="#C7C1CF" stop-opacity="0"/>
</radialGradient>
<linearGradient id="paint57_linear_6415_7277" x1="106.395" y1="24.3506" x2="42.1981" y2="41.2326" gradientUnits="userSpaceOnUse">
<stop stop-color="#B6ADC5"/>
<stop offset="0.716346" stop-color="#948AA3"/>
<stop offset="1" stop-color="#AEA4BE"/>
</linearGradient>
<radialGradient id="paint58_radial_6415_7277" cx="0" cy="0" r="1" gradientTransform="matrix(11.4119 25.7027 -12.4826 5.56313 72.876 26.9565)" gradientUnits="userSpaceOnUse">
<stop stop-color="white"/>
<stop offset="1" stop-color="#C7C1CF" stop-opacity="0"/>
</radialGradient>
<linearGradient id="paint59_linear_6415_7277" x1="116.618" y1="39.8577" x2="108.419" y2="8.86462" gradientUnits="userSpaceOnUse">
<stop stop-color="white"/>
<stop offset="0.0209492" stop-color="white" stop-opacity="0"/>
<stop offset="0.0838254" stop-color="white" stop-opacity="0"/>
<stop offset="0.0899253" stop-color="white"/>
<stop offset="0.15984" stop-color="white"/>
<stop offset="0.17204" stop-color="white" stop-opacity="0"/>
<stop offset="0.24477" stop-color="white" stop-opacity="0"/>
<stop offset="0.251016" stop-color="white"/>
<stop offset="0.320315" stop-color="white"/>
<stop offset="0.340022" stop-color="white" stop-opacity="0"/>
<stop offset="0.400552" stop-color="white" stop-opacity="0"/>
<stop offset="0.410365" stop-color="white"/>
<stop offset="0.494397" stop-color="white"/>
<stop offset="0.504525" stop-color="white" stop-opacity="0"/>
<stop offset="0.575104" stop-color="white" stop-opacity="0"/>
<stop offset="0.581095" stop-color="white"/>
<stop offset="0.65628" stop-color="white"/>
<stop offset="0.66801" stop-color="white" stop-opacity="0"/>
<stop offset="0.743548" stop-color="white" stop-opacity="0"/>
<stop offset="0.748721" stop-color="white"/>
<stop offset="0.824257" stop-color="white"/>
<stop offset="0.83787" stop-color="white" stop-opacity="0"/>
<stop offset="0.909661" stop-color="white" stop-opacity="0"/>
<stop offset="0.912477" stop-color="white" stop-opacity="0.898358"/>
<stop offset="0.97723" stop-color="white" stop-opacity="0.823752"/>
<stop offset="0.985676" stop-color="white" stop-opacity="0"/>
</linearGradient>
<linearGradient id="paint60_linear_6415_7277" x1="47.154" y1="35.1078" x2="39.3627" y2="37.1567" gradientUnits="userSpaceOnUse">
<stop stop-color="#DCD4E8"/>
<stop offset="1" stop-color="#C9BADD"/>
</linearGradient>
<linearGradient id="paint61_linear_6415_7277" x1="40.4608" y1="41.3321" x2="44.3564" y2="40.3077" gradientUnits="userSpaceOnUse">
<stop stop-color="#A58BC5"/>
<stop offset="1" stop-color="#C7B7DD" stop-opacity="0"/>
</linearGradient>
<radialGradient id="paint62_radial_6415_7277" cx="0" cy="0" r="1" gradientTransform="matrix(-3.63321 -5.42039 5.14171 -3.48066 48.3699 51.009)" gradientUnits="userSpaceOnUse">
<stop offset="0.851516" stop-color="white"/>
<stop offset="0.938869" stop-color="white" stop-opacity="0"/>
</radialGradient>
<linearGradient id="paint63_linear_6415_7277" x1="43.1442" y1="50.788" x2="51.3424" y2="56.8573" gradientUnits="userSpaceOnUse">
<stop offset="0.0284376" stop-color="#F8F5FC" stop-opacity="0"/>
<stop offset="0.214791" stop-color="#F8F5FC"/>
<stop offset="1" stop-color="#F8F5FC" stop-opacity="0"/>
</linearGradient>
<linearGradient id="paint64_linear_6415_7277" x1="56.5098" y1="26.614" x2="85.2605" y2="26.614" gradientUnits="userSpaceOnUse">
<stop stop-color="#DFD8E8"/>
<stop offset="1" stop-color="#E0DBEA"/>
</linearGradient>
<radialGradient id="paint65_radial_6415_7277" cx="0" cy="0" r="1" gradientTransform="matrix(-8.00018 -35.2514 55.1948 -12.5623 59.7099 43.4331)" gradientUnits="userSpaceOnUse">
<stop stop-color="#F9F3FE"/>
<stop offset="1" stop-color="#F9F3FE" stop-opacity="0"/>
</radialGradient>
<linearGradient id="paint66_linear_6415_7277" x1="85.2605" y1="35.4678" x2="84.4666" y2="35.4678" gradientUnits="userSpaceOnUse">
<stop stop-color="#FCF9FF"/>
<stop offset="1" stop-color="#FCF9FF" stop-opacity="0"/>
</linearGradient>
<linearGradient id="paint67_linear_6415_7277" x1="53.3848" y1="35.4678" x2="54.1414" y2="35.4678" gradientUnits="userSpaceOnUse">
<stop stop-color="#BBB8C3"/>
<stop offset="1" stop-color="#C7C1CF" stop-opacity="0"/>
</linearGradient>
<linearGradient id="paint68_linear_6415_7277" x1="68.5157" y1="8.05322" x2="68.5157" y2="74.2478" gradientUnits="userSpaceOnUse">
<stop stop-color="#B6ADC5"/>
<stop offset="0.716346" stop-color="#948AA3"/>
<stop offset="1" stop-color="#AEA4BE"/>
</linearGradient>
<linearGradient id="paint69_linear_6415_7277" x1="68.5157" y1="8.05322" x2="68.5157" y2="74.2478" gradientUnits="userSpaceOnUse">
<stop stop-color="#B6ADC5"/>
<stop offset="0.716346" stop-color="#948AA3"/>
<stop offset="1" stop-color="#AEA4BE"/>
</linearGradient>
<linearGradient id="paint70_linear_6415_7277" x1="68.5157" y1="8.05322" x2="68.5157" y2="74.2478" gradientUnits="userSpaceOnUse">
<stop stop-color="#B6ADC5"/>
<stop offset="0.716346" stop-color="#948AA3"/>
<stop offset="1" stop-color="#AEA4BE"/>
</linearGradient>
<linearGradient id="paint71_linear_6415_7277" x1="68.5157" y1="8.05322" x2="68.5157" y2="74.2478" gradientUnits="userSpaceOnUse">
<stop stop-color="#B6ADC5"/>
<stop offset="0.716346" stop-color="#948AA3"/>
<stop offset="1" stop-color="#AEA4BE"/>
</linearGradient>
<linearGradient id="paint72_linear_6415_7277" x1="68.5157" y1="8.05322" x2="68.5157" y2="74.2478" gradientUnits="userSpaceOnUse">
<stop stop-color="#B6ADC5"/>
<stop offset="0.716346" stop-color="#948AA3"/>
<stop offset="1" stop-color="#AEA4BE"/>
</linearGradient>
<linearGradient id="paint73_linear_6415_7277" x1="68.5157" y1="8.05322" x2="68.5157" y2="74.2478" gradientUnits="userSpaceOnUse">
<stop stop-color="#B6ADC5"/>
<stop offset="0.716346" stop-color="#948AA3"/>
<stop offset="1" stop-color="#AEA4BE"/>
</linearGradient>
<linearGradient id="paint74_linear_6415_7277" x1="68.5157" y1="8.05322" x2="68.5157" y2="74.2478" gradientUnits="userSpaceOnUse">
<stop stop-color="#B6ADC5"/>
<stop offset="0.716346" stop-color="#948AA3"/>
<stop offset="1" stop-color="#AEA4BE"/>
</linearGradient>
<linearGradient id="paint75_linear_6415_7277" x1="68.5157" y1="8.05322" x2="68.5157" y2="74.2478" gradientUnits="userSpaceOnUse">
<stop stop-color="#B6ADC5"/>
<stop offset="0.716346" stop-color="#948AA3"/>
<stop offset="1" stop-color="#AEA4BE"/>
</linearGradient>
<linearGradient id="paint76_linear_6415_7277" x1="68.5157" y1="8.05322" x2="68.5157" y2="74.2478" gradientUnits="userSpaceOnUse">
<stop stop-color="#B6ADC5"/>
<stop offset="0.716346" stop-color="#948AA3"/>
<stop offset="1" stop-color="#AEA4BE"/>
</linearGradient>
<linearGradient id="paint77_linear_6415_7277" x1="68.5157" y1="8.05322" x2="68.5157" y2="74.2478" gradientUnits="userSpaceOnUse">
<stop stop-color="#B6ADC5"/>
<stop offset="0.716346" stop-color="#948AA3"/>
<stop offset="1" stop-color="#AEA4BE"/>
</linearGradient>
<linearGradient id="paint78_linear_6415_7277" x1="68.5157" y1="8.05322" x2="68.5157" y2="74.2478" gradientUnits="userSpaceOnUse">
<stop stop-color="#B6ADC5"/>
<stop offset="0.716346" stop-color="#948AA3"/>
<stop offset="1" stop-color="#AEA4BE"/>
</linearGradient>
<linearGradient id="paint79_linear_6415_7277" x1="68.5157" y1="8.05322" x2="68.5157" y2="74.2478" gradientUnits="userSpaceOnUse">
<stop stop-color="#B6ADC5"/>
<stop offset="0.716346" stop-color="#948AA3"/>
<stop offset="1" stop-color="#AEA4BE"/>
</linearGradient>
<linearGradient id="paint80_linear_6415_7277" x1="68.5157" y1="8.05322" x2="68.5157" y2="74.2478" gradientUnits="userSpaceOnUse">
<stop stop-color="#B6ADC5"/>
<stop offset="0.716346" stop-color="#948AA3"/>
<stop offset="1" stop-color="#AEA4BE"/>
</linearGradient>
<linearGradient id="paint81_linear_6415_7277" x1="68.5157" y1="8.05322" x2="68.5157" y2="74.2478" gradientUnits="userSpaceOnUse">
<stop stop-color="#B6ADC5"/>
<stop offset="0.716346" stop-color="#948AA3"/>
<stop offset="1" stop-color="#AEA4BE"/>
</linearGradient>
<linearGradient id="paint82_linear_6415_7277" x1="68.5157" y1="8.05322" x2="68.5157" y2="74.2478" gradientUnits="userSpaceOnUse">
<stop stop-color="#B6ADC5"/>
<stop offset="0.716346" stop-color="#948AA3"/>
<stop offset="1" stop-color="#AEA4BE"/>
</linearGradient>
<linearGradient id="paint83_linear_6415_7277" x1="68.5157" y1="8.05322" x2="68.5157" y2="74.2478" gradientUnits="userSpaceOnUse">
<stop stop-color="#B6ADC5"/>
<stop offset="0.716346" stop-color="#948AA3"/>
<stop offset="1" stop-color="#AEA4BE"/>
</linearGradient>
<linearGradient id="paint84_linear_6415_7277" x1="68.5157" y1="8.05322" x2="68.5157" y2="74.2478" gradientUnits="userSpaceOnUse">
<stop stop-color="#B6ADC5"/>
<stop offset="0.716346" stop-color="#948AA3"/>
<stop offset="1" stop-color="#AEA4BE"/>
</linearGradient>
<linearGradient id="paint85_linear_6415_7277" x1="68.5157" y1="8.05322" x2="68.5157" y2="74.2478" gradientUnits="userSpaceOnUse">
<stop stop-color="#B6ADC5"/>
<stop offset="0.716346" stop-color="#948AA3"/>
<stop offset="1" stop-color="#AEA4BE"/>
</linearGradient>
<linearGradient id="paint86_linear_6415_7277" x1="68.5157" y1="8.05322" x2="68.5157" y2="74.2478" gradientUnits="userSpaceOnUse">
<stop stop-color="#B6ADC5"/>
<stop offset="0.716346" stop-color="#948AA3"/>
<stop offset="1" stop-color="#AEA4BE"/>
</linearGradient>
<linearGradient id="paint87_linear_6415_7277" x1="85.0714" y1="3.19214" x2="53.1016" y2="3.19214" gradientUnits="userSpaceOnUse">
<stop stop-color="white"/>
<stop offset="0.0209492" stop-color="white" stop-opacity="0"/>
<stop offset="0.0838254" stop-color="white" stop-opacity="0"/>
<stop offset="0.0899253" stop-color="white"/>
<stop offset="0.15984" stop-color="white"/>
<stop offset="0.17204" stop-color="white" stop-opacity="0"/>
<stop offset="0.24477" stop-color="white" stop-opacity="0"/>
<stop offset="0.251016" stop-color="white"/>
<stop offset="0.320315" stop-color="white"/>
<stop offset="0.340022" stop-color="white" stop-opacity="0"/>
<stop offset="0.400552" stop-color="white" stop-opacity="0"/>
<stop offset="0.410365" stop-color="white"/>
<stop offset="0.494397" stop-color="white"/>
<stop offset="0.504525" stop-color="white" stop-opacity="0"/>
<stop offset="0.575104" stop-color="white" stop-opacity="0"/>
<stop offset="0.581095" stop-color="white"/>
<stop offset="0.65628" stop-color="white"/>
<stop offset="0.66801" stop-color="white" stop-opacity="0"/>
<stop offset="0.743548" stop-color="white" stop-opacity="0"/>
<stop offset="0.748721" stop-color="white"/>
<stop offset="0.824257" stop-color="white"/>
<stop offset="0.83787" stop-color="white" stop-opacity="0"/>
<stop offset="0.909661" stop-color="white" stop-opacity="0"/>
<stop offset="0.912477" stop-color="white" stop-opacity="0.898358"/>
<stop offset="0.97723" stop-color="white" stop-opacity="0.823752"/>
<stop offset="0.985676" stop-color="white" stop-opacity="0"/>
</linearGradient>
<linearGradient id="paint88_linear_6415_7277" x1="85.9152" y1="52.5611" x2="85.9152" y2="30.0678" gradientUnits="userSpaceOnUse">
<stop stop-color="#BEEC26"/>
<stop offset="1" stop-color="#F8FF6F"/>
</linearGradient>
<linearGradient id="paint89_linear_6415_7277" x1="53.4779" y1="6.8855" x2="53.4779" y2="1.01769" gradientUnits="userSpaceOnUse">
<stop stop-color="#BEEC26"/>
<stop offset="1" stop-color="#F8FF6F"/>
</linearGradient>
<linearGradient id="paint90_linear_6415_7277" x1="82.6145" y1="3.97789" x2="88.4823" y2="3.97789" gradientUnits="userSpaceOnUse">
<stop stop-color="#BEEC26"/>
<stop offset="1" stop-color="#F8FF6F"/>
</linearGradient>
<linearGradient id="paint91_linear_6415_7277" x1="53.4779" y1="57.1145" x2="53.4779" y2="62.9823" gradientUnits="userSpaceOnUse">
<stop stop-color="#BEEC26"/>
<stop offset="1" stop-color="#F8FF6F"/>
</linearGradient>
<linearGradient id="paint92_linear_6415_7277" x1="82.6145" y1="60.0221" x2="88.4823" y2="60.0221" gradientUnits="userSpaceOnUse">
<stop stop-color="#BEEC26"/>
<stop offset="1" stop-color="#F8FF6F"/>
</linearGradient>
<clipPath id="clip0_6415_7277">
<rect width="146" height="64" fill="white" transform="translate(0.5)"/>
</clipPath>
<clipPath id="clip1_6415_7277">
<rect width="44.0192" height="79.447" fill="white" transform="matrix(0.254324 0.967119 -0.966743 0.255749 108.205 -2.30737)"/>
</clipPath>
<clipPath id="clip2_6415_7277">
<rect width="34.0743" height="60.6352" fill="white" transform="translate(53.6992 0.057373)"/>
</clipPath>
</defs>
</svg>
