<svg width="147" height="64" viewBox="0 0 147 64" fill="none" xmlns="http://www.w3.org/2000/svg">
<g clip-path="url(#clip0_6415_7311)">
<path d="M48.177 22.1256C47.9309 18.342 47.6233 16.3014 47.531 14.9582C47.4617 13.9497 47.5771 12.8587 48.9307 12.6126C50.1073 12.4665 50.6687 13.5021 50.7148 13.9123C50.7097 13.5175 50.7148 12.5745 50.7148 12.3281C50.7148 11.9128 50.7302 10.4054 52.4067 10.4054C53.5906 10.4054 54.014 11.5616 53.9833 12.105C54.0038 11.9051 54.0279 11.2914 54.0525 10.7131C54.0888 9.85999 54.5477 8.76584 55.9136 8.79045C57.0902 8.86735 57.4747 9.99784 57.4209 10.7131L57.1902 14.3891C57.2363 14.0199 57.3917 13.0802 57.7362 11.7513C58.0807 10.4224 59.1174 10.3342 59.6203 10.4054C60.2621 10.4964 61.3522 11.116 60.897 12.9125C60.3555 15.1889 59.9869 18.1189 59.8588 19.3802C60.4971 19.1187 61.1233 18.5679 61.8308 17.8296C62.5383 17.0913 63.5765 17.0759 64.161 17.5143C64.8301 18.0911 65.1882 19.4186 64.3961 20.2107C63.4856 21.0475 60.2048 24.9455 58.5744 26.8937C58.1233 27.4679 56.6118 28.6164 54.1755 28.6164C49.8381 28.4318 48.3845 25.3165 48.177 22.1256Z" fill="url(#paint0_radial_6415_7311)"/>
<path d="M48.177 22.1256C47.9309 18.342 47.6233 16.3014 47.531 14.9582C47.4617 13.9497 47.5771 12.8587 48.9307 12.6126C50.1073 12.4665 50.6687 13.5021 50.7148 13.9123C50.7097 13.5175 50.7148 12.5745 50.7148 12.3281C50.7148 11.9128 50.7302 10.4054 52.4067 10.4054C53.5906 10.4054 54.014 11.5616 53.9833 12.105C54.0038 11.9051 54.0279 11.2914 54.0525 10.7131C54.0888 9.85999 54.5477 8.76584 55.9136 8.79045C57.0902 8.86735 57.4747 9.99784 57.4209 10.7131L57.1902 14.3891C57.2363 14.0199 57.3917 13.0802 57.7362 11.7513C58.0807 10.4224 59.1174 10.3342 59.6203 10.4054C60.2621 10.4964 61.3522 11.116 60.897 12.9125C60.3555 15.1889 59.9869 18.1189 59.8588 19.3802C60.4971 19.1187 61.1233 18.5679 61.8308 17.8296C62.5383 17.0913 63.5765 17.0759 64.161 17.5143C64.8301 18.0911 65.1882 19.4186 64.3961 20.2107C63.4856 21.0475 60.2048 24.9455 58.5744 26.8937C58.1233 27.4679 56.6118 28.6164 54.1755 28.6164C49.8381 28.4318 48.3845 25.3165 48.177 22.1256Z" fill="url(#paint1_radial_6415_7311)"/>
<path d="M48.177 22.1256C47.9309 18.342 47.6233 16.3014 47.531 14.9582C47.4617 13.9497 47.5771 12.8587 48.9307 12.6126C50.1073 12.4665 50.6687 13.5021 50.7148 13.9123C50.7097 13.5175 50.7148 12.5745 50.7148 12.3281C50.7148 11.9128 50.7302 10.4054 52.4067 10.4054C53.5906 10.4054 54.014 11.5616 53.9833 12.105C54.0038 11.9051 54.0279 11.2914 54.0525 10.7131C54.0888 9.85999 54.5477 8.76584 55.9136 8.79045C57.0902 8.86735 57.4747 9.99784 57.4209 10.7131L57.1902 14.3891C57.2363 14.0199 57.3917 13.0802 57.7362 11.7513C58.0807 10.4224 59.1174 10.3342 59.6203 10.4054C60.2621 10.4964 61.3522 11.116 60.897 12.9125C60.3555 15.1889 59.9869 18.1189 59.8588 19.3802C60.4971 19.1187 61.1233 18.5679 61.8308 17.8296C62.5383 17.0913 63.5765 17.0759 64.161 17.5143C64.8301 18.0911 65.1882 19.4186 64.3961 20.2107C63.4856 21.0475 60.2048 24.9455 58.5744 26.8937C58.1233 27.4679 56.6118 28.6164 54.1755 28.6164C49.8381 28.4318 48.3845 25.3165 48.177 22.1256Z" fill="url(#paint2_linear_6415_7311)"/>
<path d="M48.177 22.1256C47.9309 18.342 47.6233 16.3014 47.531 14.9582C47.4617 13.9497 47.5771 12.8587 48.9307 12.6126C50.1073 12.4665 50.6687 13.5021 50.7148 13.9123C50.7097 13.5175 50.7148 12.5745 50.7148 12.3281C50.7148 11.9128 50.7302 10.4054 52.4067 10.4054C53.5906 10.4054 54.014 11.5616 53.9833 12.105C54.0038 11.9051 54.0279 11.2914 54.0525 10.7131C54.0888 9.85999 54.5477 8.76584 55.9136 8.79045C57.0902 8.86735 57.4747 9.99784 57.4209 10.7131L57.1902 14.3891C57.2363 14.0199 57.3917 13.0802 57.7362 11.7513C58.0807 10.4224 59.1174 10.3342 59.6203 10.4054C60.2621 10.4964 61.3522 11.116 60.897 12.9125C60.3555 15.1889 59.9869 18.1189 59.8588 19.3802C60.4971 19.1187 61.1233 18.5679 61.8308 17.8296C62.5383 17.0913 63.5765 17.0759 64.161 17.5143C64.8301 18.0911 65.1882 19.4186 64.3961 20.2107C63.4856 21.0475 60.2048 24.9455 58.5744 26.8937C58.1233 27.4679 56.6118 28.6164 54.1755 28.6164C49.8381 28.4318 48.3845 25.3165 48.177 22.1256Z" fill="url(#paint3_radial_6415_7311)"/>
<path d="M48.177 22.1256C47.9309 18.342 47.6233 16.3014 47.531 14.9582C47.4617 13.9497 47.5771 12.8587 48.9307 12.6126C50.1073 12.4665 50.6687 13.5021 50.7148 13.9123C50.7097 13.5175 50.7148 12.5745 50.7148 12.3281C50.7148 11.9128 50.7302 10.4054 52.4067 10.4054C53.5906 10.4054 54.014 11.5616 53.9833 12.105C54.0038 11.9051 54.0279 11.2914 54.0525 10.7131C54.0888 9.85999 54.5477 8.76584 55.9136 8.79045C57.0902 8.86735 57.4747 9.99784 57.4209 10.7131L57.1902 14.3891C57.2363 14.0199 57.3917 13.0802 57.7362 11.7513C58.0807 10.4224 59.1174 10.3342 59.6203 10.4054C60.2621 10.4964 61.3522 11.116 60.897 12.9125C60.3555 15.1889 59.9869 18.1189 59.8588 19.3802C60.4971 19.1187 61.1233 18.5679 61.8308 17.8296C62.5383 17.0913 63.5765 17.0759 64.161 17.5143C64.8301 18.0911 65.1882 19.4186 64.3961 20.2107C63.4856 21.0475 60.2048 24.9455 58.5744 26.8937C58.1233 27.4679 56.6118 28.6164 54.1755 28.6164C49.8381 28.4318 48.3845 25.3165 48.177 22.1256Z" fill="url(#paint4_radial_6415_7311)"/>
<path d="M48.177 22.1256C47.9309 18.342 47.6233 16.3014 47.531 14.9582C47.4617 13.9497 47.5771 12.8587 48.9307 12.6126C50.1073 12.4665 50.6687 13.5021 50.7148 13.9123C50.7097 13.5175 50.7148 12.5745 50.7148 12.3281C50.7148 11.9128 50.7302 10.4054 52.4067 10.4054C53.5906 10.4054 54.014 11.5616 53.9833 12.105C54.0038 11.9051 54.0279 11.2914 54.0525 10.7131C54.0888 9.85999 54.5477 8.76584 55.9136 8.79045C57.0902 8.86735 57.4747 9.99784 57.4209 10.7131L57.1902 14.3891C57.2363 14.0199 57.3917 13.0802 57.7362 11.7513C58.0807 10.4224 59.1174 10.3342 59.6203 10.4054C60.2621 10.4964 61.3522 11.116 60.897 12.9125C60.3555 15.1889 59.9869 18.1189 59.8588 19.3802C60.4971 19.1187 61.1233 18.5679 61.8308 17.8296C62.5383 17.0913 63.5765 17.0759 64.161 17.5143C64.8301 18.0911 65.1882 19.4186 64.3961 20.2107C63.4856 21.0475 60.2048 24.9455 58.5744 26.8937C58.1233 27.4679 56.6118 28.6164 54.1755 28.6164C49.8381 28.4318 48.3845 25.3165 48.177 22.1256Z" fill="url(#paint5_radial_6415_7311)"/>
<path d="M48.177 22.1256C47.9309 18.342 47.6233 16.3014 47.531 14.9582C47.4617 13.9497 47.5771 12.8587 48.9307 12.6126C50.1073 12.4665 50.6687 13.5021 50.7148 13.9123C50.7097 13.5175 50.7148 12.5745 50.7148 12.3281C50.7148 11.9128 50.7302 10.4054 52.4067 10.4054C53.5906 10.4054 54.014 11.5616 53.9833 12.105C54.0038 11.9051 54.0279 11.2914 54.0525 10.7131C54.0888 9.85999 54.5477 8.76584 55.9136 8.79045C57.0902 8.86735 57.4747 9.99784 57.4209 10.7131L57.1902 14.3891C57.2363 14.0199 57.3917 13.0802 57.7362 11.7513C58.0807 10.4224 59.1174 10.3342 59.6203 10.4054C60.2621 10.4964 61.3522 11.116 60.897 12.9125C60.3555 15.1889 59.9869 18.1189 59.8588 19.3802C60.4971 19.1187 61.1233 18.5679 61.8308 17.8296C62.5383 17.0913 63.5765 17.0759 64.161 17.5143C64.8301 18.0911 65.1882 19.4186 64.3961 20.2107C63.4856 21.0475 60.2048 24.9455 58.5744 26.8937C58.1233 27.4679 56.6118 28.6164 54.1755 28.6164C49.8381 28.4318 48.3845 25.3165 48.177 22.1256Z" fill="url(#paint6_radial_6415_7311)"/>
<path d="M48.177 22.1256C47.9309 18.342 47.6233 16.3014 47.531 14.9582C47.4617 13.9497 47.5771 12.8587 48.9307 12.6126C50.1073 12.4665 50.6687 13.5021 50.7148 13.9123C50.7097 13.5175 50.7148 12.5745 50.7148 12.3281C50.7148 11.9128 50.7302 10.4054 52.4067 10.4054C53.5906 10.4054 54.014 11.5616 53.9833 12.105C54.0038 11.9051 54.0279 11.2914 54.0525 10.7131C54.0888 9.85999 54.5477 8.76584 55.9136 8.79045C57.0902 8.86735 57.4747 9.99784 57.4209 10.7131L57.1902 14.3891C57.2363 14.0199 57.3917 13.0802 57.7362 11.7513C58.0807 10.4224 59.1174 10.3342 59.6203 10.4054C60.2621 10.4964 61.3522 11.116 60.897 12.9125C60.3555 15.1889 59.9869 18.1189 59.8588 19.3802C60.4971 19.1187 61.1233 18.5679 61.8308 17.8296C62.5383 17.0913 63.5765 17.0759 64.161 17.5143C64.8301 18.0911 65.1882 19.4186 64.3961 20.2107C63.4856 21.0475 60.2048 24.9455 58.5744 26.8937C58.1233 27.4679 56.6118 28.6164 54.1755 28.6164C49.8381 28.4318 48.3845 25.3165 48.177 22.1256Z" fill="url(#paint7_radial_6415_7311)"/>
<path d="M48.177 22.1256C47.9309 18.342 47.6233 16.3014 47.531 14.9582C47.4617 13.9497 47.5771 12.8587 48.9307 12.6126C50.1073 12.4665 50.6687 13.5021 50.7148 13.9123C50.7097 13.5175 50.7148 12.5745 50.7148 12.3281C50.7148 11.9128 50.7302 10.4054 52.4067 10.4054C53.5906 10.4054 54.014 11.5616 53.9833 12.105C54.0038 11.9051 54.0279 11.2914 54.0525 10.7131C54.0888 9.85999 54.5477 8.76584 55.9136 8.79045C57.0902 8.86735 57.4747 9.99784 57.4209 10.7131L57.1902 14.3891C57.2363 14.0199 57.3917 13.0802 57.7362 11.7513C58.0807 10.4224 59.1174 10.3342 59.6203 10.4054C60.2621 10.4964 61.3522 11.116 60.897 12.9125C60.3555 15.1889 59.9869 18.1189 59.8588 19.3802C60.4971 19.1187 61.1233 18.5679 61.8308 17.8296C62.5383 17.0913 63.5765 17.0759 64.161 17.5143C64.8301 18.0911 65.1882 19.4186 64.3961 20.2107C63.4856 21.0475 60.2048 24.9455 58.5744 26.8937C58.1233 27.4679 56.6118 28.6164 54.1755 28.6164C49.8381 28.4318 48.3845 25.3165 48.177 22.1256Z" fill="url(#paint8_radial_6415_7311)"/>
<path d="M48.177 22.1256C47.9309 18.342 47.6233 16.3014 47.531 14.9582C47.4617 13.9497 47.5771 12.8587 48.9307 12.6126C50.1073 12.4665 50.6687 13.5021 50.7148 13.9123C50.7097 13.5175 50.7148 12.5745 50.7148 12.3281C50.7148 11.9128 50.7302 10.4054 52.4067 10.4054C53.5906 10.4054 54.014 11.5616 53.9833 12.105C54.0038 11.9051 54.0279 11.2914 54.0525 10.7131C54.0888 9.85999 54.5477 8.76584 55.9136 8.79045C57.0902 8.86735 57.4747 9.99784 57.4209 10.7131L57.1902 14.3891C57.2363 14.0199 57.3917 13.0802 57.7362 11.7513C58.0807 10.4224 59.1174 10.3342 59.6203 10.4054C60.2621 10.4964 61.3522 11.116 60.897 12.9125C60.3555 15.1889 59.9869 18.1189 59.8588 19.3802C60.4971 19.1187 61.1233 18.5679 61.8308 17.8296C62.5383 17.0913 63.5765 17.0759 64.161 17.5143C64.8301 18.0911 65.1882 19.4186 64.3961 20.2107C63.4856 21.0475 60.2048 24.9455 58.5744 26.8937C58.1233 27.4679 56.6118 28.6164 54.1755 28.6164C49.8381 28.4318 48.3845 25.3165 48.177 22.1256Z" fill="url(#paint9_radial_6415_7311)"/>
<path d="M48.177 22.1256C47.9309 18.342 47.6233 16.3014 47.531 14.9582C47.4617 13.9497 47.5771 12.8587 48.9307 12.6126C50.1073 12.4665 50.6687 13.5021 50.7148 13.9123C50.7097 13.5175 50.7148 12.5745 50.7148 12.3281C50.7148 11.9128 50.7302 10.4054 52.4067 10.4054C53.5906 10.4054 54.014 11.5616 53.9833 12.105C54.0038 11.9051 54.0279 11.2914 54.0525 10.7131C54.0888 9.85999 54.5477 8.76584 55.9136 8.79045C57.0902 8.86735 57.4747 9.99784 57.4209 10.7131L57.1902 14.3891C57.2363 14.0199 57.3917 13.0802 57.7362 11.7513C58.0807 10.4224 59.1174 10.3342 59.6203 10.4054C60.2621 10.4964 61.3522 11.116 60.897 12.9125C60.3555 15.1889 59.9869 18.1189 59.8588 19.3802C60.4971 19.1187 61.1233 18.5679 61.8308 17.8296C62.5383 17.0913 63.5765 17.0759 64.161 17.5143C64.8301 18.0911 65.1882 19.4186 64.3961 20.2107C63.4856 21.0475 60.2048 24.9455 58.5744 26.8937C58.1233 27.4679 56.6118 28.6164 54.1755 28.6164C49.8381 28.4318 48.3845 25.3165 48.177 22.1256Z" fill="url(#paint10_radial_6415_7311)"/>
<path d="M48.177 22.1256C47.9309 18.342 47.6233 16.3014 47.531 14.9582C47.4617 13.9497 47.5771 12.8587 48.9307 12.6126C50.1073 12.4665 50.6687 13.5021 50.7148 13.9123C50.7097 13.5175 50.7148 12.5745 50.7148 12.3281C50.7148 11.9128 50.7302 10.4054 52.4067 10.4054C53.5906 10.4054 54.014 11.5616 53.9833 12.105C54.0038 11.9051 54.0279 11.2914 54.0525 10.7131C54.0888 9.85999 54.5477 8.76584 55.9136 8.79045C57.0902 8.86735 57.4747 9.99784 57.4209 10.7131L57.1902 14.3891C57.2363 14.0199 57.3917 13.0802 57.7362 11.7513C58.0807 10.4224 59.1174 10.3342 59.6203 10.4054C60.2621 10.4964 61.3522 11.116 60.897 12.9125C60.3555 15.1889 59.9869 18.1189 59.8588 19.3802C60.4971 19.1187 61.1233 18.5679 61.8308 17.8296C62.5383 17.0913 63.5765 17.0759 64.161 17.5143C64.8301 18.0911 65.1882 19.4186 64.3961 20.2107C63.4856 21.0475 60.2048 24.9455 58.5744 26.8937C58.1233 27.4679 56.6118 28.6164 54.1755 28.6164C49.8381 28.4318 48.3845 25.3165 48.177 22.1256Z" fill="url(#paint11_linear_6415_7311)"/>
<path d="M50.2832 27.6985C50.2832 27.5881 50.3727 27.4985 50.4832 27.4985H58.3735C58.4839 27.4985 58.5735 27.5881 58.5735 27.6985V31.2668H50.2832V27.6985Z" fill="url(#paint12_linear_6415_7311)"/>
<path d="M50.2832 27.6985C50.2832 27.5881 50.3727 27.4985 50.4832 27.4985H58.3735C58.4839 27.4985 58.5735 27.5881 58.5735 27.6985V31.2668H50.2832V27.6985Z" fill="url(#paint13_linear_6415_7311)"/>
<path d="M81.1466 45.2634H83.0625C87.9844 45.2634 97.8281 53.1541 97.8281 63.9822H62.3906V56.0916C62.3906 55.5469 62.0558 55.0425 61.5722 54.861L55.5 52.1541C50.5781 50.1853 48.6094 45.2634 48.6094 41.9205V31.5107C48.6094 30.4011 49.4464 29.5134 50.4509 29.5134L58.5804 29.5134C59.6034 29.5134 60.4219 30.4213 60.4219 31.5107V39.3572C60.4219 41.9205 62.3906 42.3103 62.3906 42.3103L74.2031 45.2634H81.1466Z" fill="#FF611D"/>
<path d="M81.1466 45.2634H83.0625C87.9844 45.2634 97.8281 53.1541 97.8281 63.9822H62.3906V56.0916C62.3906 55.5469 62.0558 55.0425 61.5722 54.861L55.5 52.1541C50.5781 50.1853 48.6094 45.2634 48.6094 41.9205V31.5107C48.6094 30.4011 49.4464 29.5134 50.4509 29.5134L58.5804 29.5134C59.6034 29.5134 60.4219 30.4213 60.4219 31.5107V39.3572C60.4219 41.9205 62.3906 42.3103 62.3906 42.3103L74.2031 45.2634H81.1466Z" fill="url(#paint14_radial_6415_7311)"/>
<path d="M81.1466 45.2634H83.0625C87.9844 45.2634 97.8281 53.1541 97.8281 63.9822H62.3906V56.0916C62.3906 55.5469 62.0558 55.0425 61.5722 54.861L55.5 52.1541C50.5781 50.1853 48.6094 45.2634 48.6094 41.9205V31.5107C48.6094 30.4011 49.4464 29.5134 50.4509 29.5134L58.5804 29.5134C59.6034 29.5134 60.4219 30.4213 60.4219 31.5107V39.3572C60.4219 41.9205 62.3906 42.3103 62.3906 42.3103L74.2031 45.2634H81.1466Z" fill="url(#paint15_radial_6415_7311)"/>
<path d="M77.8611 45.4788L62.3597 55.8055C62.2664 55.3772 61.9695 55.0101 61.5722 54.861L55.5 52.1541C50.5781 50.1853 48.6094 45.2634 48.6094 41.9205V31.5107C48.6094 30.4011 49.4464 29.5134 50.4509 29.5134L58.5804 29.5134C59.6034 29.5134 60.4219 30.4213 60.4219 31.5107V39.3572C60.4219 41.9205 62.3906 42.3103 62.3906 42.3103L74.2031 45.2634L77.8611 45.4788Z" fill="url(#paint16_linear_6415_7311)"/>
<path d="M77.8611 45.4788L62.3597 55.8055C62.2664 55.3772 61.9695 55.0101 61.5722 54.861L55.5 52.1541C50.5781 50.1853 48.6094 45.2634 48.6094 41.9205V31.5107C48.6094 30.4011 49.4464 29.5134 50.4509 29.5134L58.5804 29.5134C59.6034 29.5134 60.4219 30.4213 60.4219 31.5107V39.3572C60.4219 41.9205 62.3906 42.3103 62.3906 42.3103L74.2031 45.2634L77.8611 45.4788Z" fill="url(#paint17_radial_6415_7311)"/>
<path d="M77.8611 45.4788L62.3597 55.8055C62.2664 55.3772 61.9695 55.0101 61.5722 54.861L55.5 52.1541C50.5781 50.1853 48.6094 45.2634 48.6094 41.9205V31.5107C48.6094 30.4011 49.4464 29.5134 50.4509 29.5134L58.5804 29.5134C59.6034 29.5134 60.4219 30.4213 60.4219 31.5107V39.3572C60.4219 41.9205 62.3906 42.3103 62.3906 42.3103L74.2031 45.2634L77.8611 45.4788Z" fill="url(#paint18_radial_6415_7311)"/>
<path d="M77.8611 45.4788L62.3597 55.8055C62.2664 55.3772 61.9695 55.0101 61.5722 54.861L55.5 52.1541C50.5781 50.1853 48.6094 45.2634 48.6094 41.9205V31.5107C48.6094 30.4011 49.4464 29.5134 50.4509 29.5134L58.5804 29.5134C59.6034 29.5134 60.4219 30.4213 60.4219 31.5107V39.3572C60.4219 41.9205 62.3906 42.3103 62.3906 42.3103L74.2031 45.2634L77.8611 45.4788Z" fill="url(#paint19_linear_6415_7311)"/>
<path d="M79.1261 51.1697C76.6302 51.1697 74.6055 49.2296 74.6055 46.838V41.7202C74.6055 39.3285 76.6302 37.3884 79.1261 37.3884C81.6221 37.3884 83.6467 39.3285 83.6467 41.7202V46.838C83.6467 49.2296 81.6221 51.1697 79.1261 51.1697Z" fill="url(#paint20_linear_6415_7311)"/>
<path d="M79.1261 51.1697C76.6302 51.1697 74.6055 49.2296 74.6055 46.838V41.7202C74.6055 39.3285 76.6302 37.3884 79.1261 37.3884C81.6221 37.3884 83.6467 39.3285 83.6467 41.7202V46.838C83.6467 49.2296 81.6221 51.1697 79.1261 51.1697Z" fill="url(#paint21_radial_6415_7311)"/>
<g filter="url(#filter0_f_6415_7311)">
<path d="M56.1758 30.8054V44.0577C56.1758 44.9235 56.7329 45.6911 57.5562 45.9593L67.127 49.0779" stroke="url(#paint22_linear_6415_7311)"/>
</g>
<g filter="url(#filter1_f_6415_7311)">
<path d="M50.7305 14.2249L51.0227 18.0547" stroke="url(#paint23_linear_6415_7311)" stroke-width="0.075" stroke-linecap="round"/>
</g>
<g filter="url(#filter2_f_6415_7311)">
<path d="M53.9275 13.3789L53.7891 17.9009" stroke="url(#paint24_linear_6415_7311)" stroke-width="0.075" stroke-linecap="round"/>
</g>
<g filter="url(#filter3_f_6415_7311)">
<path d="M57.1587 14.5632L56.6973 17.3318" stroke="url(#paint25_linear_6415_7311)" stroke-width="0.075" stroke-linecap="round"/>
</g>
<g filter="url(#filter4_f_6415_7311)">
<path d="M49.4023 13.5149L50.1099 18.6982" stroke="url(#paint26_linear_6415_7311)" stroke-width="0.4"/>
</g>
<g filter="url(#filter5_f_6415_7311)">
<path d="M52.7266 11.6335V17.7142" stroke="url(#paint27_linear_6415_7311)" stroke-width="0.4"/>
</g>
<g filter="url(#filter6_f_6415_7311)">
<path d="M56.3406 9.83923L55.7715 17.6039" stroke="url(#paint28_linear_6415_7311)" stroke-width="0.4"/>
</g>
<g filter="url(#filter7_f_6415_7311)">
<path d="M60.123 11.8999L58.5234 18.606" stroke="url(#paint29_linear_6415_7311)" stroke-width="0.4"/>
</g>
<g filter="url(#filter8_f_6415_7311)">
<path d="M49.3867 19.7135C49.6021 19.5905 50.6018 18.9675 50.9863 18.2216" stroke="url(#paint30_linear_6415_7311)" stroke-width="0.2" stroke-linecap="round"/>
</g>
<g filter="url(#filter9_f_6415_7311)">
<path d="M53.6538 17.8125C53.3968 18.1367 52.999 18.4028 52.6334 18.5987" stroke="url(#paint31_linear_6415_7311)" stroke-width="0.2" stroke-linecap="round"/>
</g>
<g filter="url(#filter10_f_6415_7311)">
<path d="M56.5261 17.4352C56.2691 17.7594 55.5394 18.1444 55.1241 18.2675" stroke="url(#paint32_linear_6415_7311)" stroke-width="0.2" stroke-linecap="round"/>
</g>
<path d="M90.5054 34.909C91.2902 34.8837 92.0251 34.6176 92.623 34.1868V36.3663C92.623 38.4571 91.3774 40.3198 89.484 41.0928C89.8826 40.2438 90.1566 39.3187 90.2936 38.3304L90.5054 34.909Z" fill="url(#paint33_radial_6415_7311)"/>
<path d="M67.7446 34.909C66.9598 34.8837 66.2249 34.6176 65.627 34.1868V36.3663C65.627 38.4571 66.8726 40.3198 68.766 41.0928C68.3674 40.2438 68.0934 39.3187 67.9564 38.3304L67.7446 34.909Z" fill="url(#paint34_radial_6415_7311)"/>
<g filter="url(#filter11_ii_6415_7311)">
<path d="M67.8313 38.456C68.4335 43.0265 72.323 46.4293 76.9278 46.4293H81.3443C85.949 46.4293 89.8385 43.0265 90.4408 38.456C90.7169 34.0462 90.9947 29.6541 91.1996 25.2467C91.1748 23.4511 89.7593 21.9695 87.9714 21.8942H84.6935C82.4585 21.8942 80.4347 20.5757 79.5159 18.5165C79.28 17.9264 78.7088 17.5371 78.0756 17.5371H75.0957C70.7748 17.5371 67.2734 21.078 67.2734 25.4476C67.2734 29.8036 67.5455 34.089 67.8313 38.456Z" fill="url(#paint35_radial_6415_7311)"/>
</g>
<path d="M67.8313 38.456C68.4335 43.0265 72.323 46.4293 76.9278 46.4293H81.3443C85.949 46.4293 89.8385 43.0265 90.4408 38.456C90.7169 34.0462 90.9947 29.6541 91.1996 25.2467C91.1748 23.4511 89.7593 21.9695 87.9714 21.8942H84.6935C82.4585 21.8942 80.4347 20.5757 79.5159 18.5165C79.28 17.9264 78.7088 17.5371 78.0756 17.5371H75.0957C70.7748 17.5371 67.2734 21.078 67.2734 25.4476C67.2734 29.8036 67.5455 34.089 67.8313 38.456Z" fill="url(#paint36_linear_6415_7311)"/>
<path d="M67.8313 38.456C68.4335 43.0265 72.323 46.4293 76.9278 46.4293H81.3443C85.949 46.4293 89.8385 43.0265 90.4408 38.456C90.7169 34.0462 90.9947 29.6541 91.1996 25.2467C91.1748 23.4511 89.7593 21.9695 87.9714 21.8942H84.6935C82.4585 21.8942 80.4347 20.5757 79.5159 18.5165C79.28 17.9264 78.7088 17.5371 78.0756 17.5371H75.0957C70.7748 17.5371 67.2734 21.078 67.2734 25.4476C67.2734 29.8036 67.5455 34.089 67.8313 38.456Z" fill="url(#paint37_radial_6415_7311)"/>
<path d="M67.8313 38.456C68.4335 43.0265 72.323 46.4293 76.9278 46.4293H81.3443C85.949 46.4293 89.8385 43.0265 90.4408 38.456C90.7169 34.0462 90.9947 29.6541 91.1996 25.2467C91.1748 23.4511 89.7593 21.9695 87.9714 21.8942H84.6935C82.4585 21.8942 80.4347 20.5757 79.5159 18.5165C79.28 17.9264 78.7088 17.5371 78.0756 17.5371H75.0957C70.7748 17.5371 67.2734 21.078 67.2734 25.4476C67.2734 29.8036 67.5455 34.089 67.8313 38.456Z" fill="url(#paint38_radial_6415_7311)"/>
<path d="M67.8313 38.456C68.4335 43.0265 72.323 46.4293 76.9278 46.4293H81.3443C85.949 46.4293 89.8385 43.0265 90.4408 38.456C90.7169 34.0462 90.9947 29.6541 91.1996 25.2467C91.1748 23.4511 89.7593 21.9695 87.9714 21.8942H84.6935C82.4585 21.8942 80.4347 20.5757 79.5159 18.5165C79.28 17.9264 78.7088 17.5371 78.0756 17.5371H75.0957C70.7748 17.5371 67.2734 21.078 67.2734 25.4476C67.2734 29.8036 67.5455 34.089 67.8313 38.456Z" fill="url(#paint39_radial_6415_7311)"/>
<path d="M67.8313 38.456C68.4335 43.0265 72.323 46.4293 76.9278 46.4293H81.3443C85.949 46.4293 89.8385 43.0265 90.4408 38.456C90.7169 34.0462 90.9947 29.6541 91.1996 25.2467C91.1748 23.4511 89.7593 21.9695 87.9714 21.8942H84.6935C82.4585 21.8942 80.4347 20.5757 79.5159 18.5165C79.28 17.9264 78.7088 17.5371 78.0756 17.5371H75.0957C70.7748 17.5371 67.2734 21.078 67.2734 25.4476C67.2734 29.8036 67.5455 34.089 67.8313 38.456Z" fill="url(#paint40_radial_6415_7311)"/>
<path d="M67.8313 38.456C68.4335 43.0265 72.323 46.4293 76.9278 46.4293H81.3443C85.949 46.4293 89.8385 43.0265 90.4408 38.456C90.7169 34.0462 90.9947 29.6541 91.1996 25.2467C91.1748 23.4511 89.7593 21.9695 87.9714 21.8942H84.6935C82.4585 21.8942 80.4347 20.5757 79.5159 18.5165C79.28 17.9264 78.7088 17.5371 78.0756 17.5371H75.0957C70.7748 17.5371 67.2734 21.078 67.2734 25.4476C67.2734 29.8036 67.5455 34.089 67.8313 38.456Z" fill="url(#paint41_radial_6415_7311)"/>
<path d="M67.8313 38.456C68.4335 43.0265 72.323 46.4293 76.9278 46.4293H81.3443C85.949 46.4293 89.8385 43.0265 90.4408 38.456C90.7169 34.0462 90.9947 29.6541 91.1996 25.2467C91.1748 23.4511 89.7593 21.9695 87.9714 21.8942H84.6935C82.4585 21.8942 80.4347 20.5757 79.5159 18.5165C79.28 17.9264 78.7088 17.5371 78.0756 17.5371H75.0957C70.7748 17.5371 67.2734 21.078 67.2734 25.4476C67.2734 29.8036 67.5455 34.089 67.8313 38.456Z" fill="url(#paint42_radial_6415_7311)"/>
<g filter="url(#filter12_f_6415_7311)">
<path d="M78.1852 30.7567L76.8021 35.0604C76.5659 35.9456 77.1329 36.8308 77.9362 36.8308H79.6491C80.4524 36.8308 81.0194 35.932 80.7831 35.0604L79.6254 30.7567C79.3774 29.8034 78.4451 29.8034 78.1852 30.7567Z" fill="#D69790"/>
</g>
<g filter="url(#filter13_f_6415_7311)">
<path d="M78.23 30.3102L76.9859 34.6138C76.7319 35.4991 77.3413 36.3843 78.2046 36.3843H80.0455C80.9089 36.3843 81.5183 35.4854 81.2643 34.6138L80.0202 30.3102C79.7535 29.3569 78.5093 29.3569 78.23 30.3102Z" fill="#F6BFAB"/>
<path d="M78.23 30.3102L76.9859 34.6138C76.7319 35.4991 77.3413 36.3843 78.2046 36.3843H80.0455C80.9089 36.3843 81.5183 35.4854 81.2643 34.6138L80.0202 30.3102C79.7535 29.3569 78.5093 29.3569 78.23 30.3102Z" fill="url(#paint43_linear_6415_7311)"/>
<path d="M78.23 30.3102L76.9859 34.6138C76.7319 35.4991 77.3413 36.3843 78.2046 36.3843H80.0455C80.9089 36.3843 81.5183 35.4854 81.2643 34.6138L80.0202 30.3102C79.7535 29.3569 78.5093 29.3569 78.23 30.3102Z" fill="url(#paint44_radial_6415_7311)"/>
<path d="M78.23 30.3102L76.9859 34.6138C76.7319 35.4991 77.3413 36.3843 78.2046 36.3843H80.0455C80.9089 36.3843 81.5183 35.4854 81.2643 34.6138L80.0202 30.3102C79.7535 29.3569 78.5093 29.3569 78.23 30.3102Z" fill="url(#paint45_linear_6415_7311)"/>
<path d="M78.23 30.3102L76.9859 34.6138C76.7319 35.4991 77.3413 36.3843 78.2046 36.3843H80.0455C80.9089 36.3843 81.5183 35.4854 81.2643 34.6138L80.0202 30.3102C79.7535 29.3569 78.5093 29.3569 78.23 30.3102Z" fill="url(#paint46_radial_6415_7311)"/>
<path d="M78.23 30.3102L76.9859 34.6138C76.7319 35.4991 77.3413 36.3843 78.2046 36.3843H80.0455C80.9089 36.3843 81.5183 35.4854 81.2643 34.6138L80.0202 30.3102C79.7535 29.3569 78.5093 29.3569 78.23 30.3102Z" fill="url(#paint47_linear_6415_7311)"/>
</g>
<g filter="url(#filter14_f_6415_7311)">
<path d="M82.3359 37.9283C82.5286 37.8306 82.7301 37.8872 82.8516 38.0133C82.9586 38.1246 83.0058 38.293 82.9336 38.4567L82.8955 38.526C82.0979 39.7346 80.7082 40.5397 79.126 40.5397C77.544 40.5396 76.155 39.7345 75.3574 38.526L75.3584 38.525C75.2352 38.346 75.2797 38.1455 75.4004 38.0182C75.5211 37.8911 75.7232 37.8298 75.917 37.9283H75.918C76.8453 38.4118 77.9497 38.689 79.126 38.6891C80.3142 38.6891 81.4074 38.4119 82.335 37.9283H82.3359Z" stroke="url(#paint48_linear_6415_7311)" stroke-width="0.15"/>
</g>
<path d="M79.1263 38.7641C77.9382 38.7641 76.8215 38.4846 75.8829 37.9953C75.5622 37.8322 75.2176 38.1933 75.4196 38.4846C76.2037 39.6728 77.57 40.465 79.1263 40.465C80.6826 40.465 82.0489 39.6728 82.833 38.4846C83.0349 38.1817 82.6904 37.8322 82.3696 37.9953C81.4311 38.4846 80.3262 38.7641 79.1263 38.7641Z" fill="url(#paint49_radial_6415_7311)"/>
<g filter="url(#filter15_ii_6415_7311)">
<path d="M90.4896 16.4321C91.694 16.8465 92.7742 17.6878 93.4571 18.8932C94.5497 20.8143 94.3883 23.1121 93.2087 24.8072C92.799 25.4099 92.5755 26.1256 92.5755 26.8539V29.6351C92.1376 29.3301 91.5599 29.104 91.0135 29.0073L91.1973 25.2467C91.1725 23.4511 89.757 21.9695 87.9691 21.8942H84.6912C82.4563 21.8942 80.4324 20.5757 79.5136 18.5165C79.2777 17.9263 78.7065 17.5371 78.0733 17.5371H75.0934C70.7725 17.5371 67.2712 21.078 67.2712 25.4476L67.3429 29.0466C66.7483 29.1339 66.1272 29.3327 65.657 29.6638V26.8539C65.657 26.1256 65.4335 25.4099 65.0238 24.8072C63.9063 23.1623 63.7077 20.9524 64.6886 19.0815C65.3715 17.7882 66.4765 16.8842 67.7306 16.4447C69.0715 15.9676 70.2138 15.0635 70.9712 13.8455C71.9397 12.3011 73.6407 11.2715 75.5901 11.2715C76.3474 11.2715 77.0676 11.4347 77.7381 11.711C78.632 12.1002 79.6378 12.1002 80.5317 11.711C81.1898 11.4347 81.9099 11.2715 82.6673 11.2715C84.6415 11.2715 86.3674 12.3388 87.3234 13.9209C88.0436 15.1137 89.1735 15.9801 90.4896 16.4321Z" fill="url(#paint50_linear_6415_7311)"/>
<path d="M90.4896 16.4321C91.694 16.8465 92.7742 17.6878 93.4571 18.8932C94.5497 20.8143 94.3883 23.1121 93.2087 24.8072C92.799 25.4099 92.5755 26.1256 92.5755 26.8539V29.6351C92.1376 29.3301 91.5599 29.104 91.0135 29.0073L91.1973 25.2467C91.1725 23.4511 89.757 21.9695 87.9691 21.8942H84.6912C82.4563 21.8942 80.4324 20.5757 79.5136 18.5165C79.2777 17.9263 78.7065 17.5371 78.0733 17.5371H75.0934C70.7725 17.5371 67.2712 21.078 67.2712 25.4476L67.3429 29.0466C66.7483 29.1339 66.1272 29.3327 65.657 29.6638V26.8539C65.657 26.1256 65.4335 25.4099 65.0238 24.8072C63.9063 23.1623 63.7077 20.9524 64.6886 19.0815C65.3715 17.7882 66.4765 16.8842 67.7306 16.4447C69.0715 15.9676 70.2138 15.0635 70.9712 13.8455C71.9397 12.3011 73.6407 11.2715 75.5901 11.2715C76.3474 11.2715 77.0676 11.4347 77.7381 11.711C78.632 12.1002 79.6378 12.1002 80.5317 11.711C81.1898 11.4347 81.9099 11.2715 82.6673 11.2715C84.6415 11.2715 86.3674 12.3388 87.3234 13.9209C88.0436 15.1137 89.1735 15.9801 90.4896 16.4321Z" fill="url(#paint51_radial_6415_7311)"/>
<path d="M90.4896 16.4321C91.694 16.8465 92.7742 17.6878 93.4571 18.8932C94.5497 20.8143 94.3883 23.1121 93.2087 24.8072C92.799 25.4099 92.5755 26.1256 92.5755 26.8539V29.6351C92.1376 29.3301 91.5599 29.104 91.0135 29.0073L91.1973 25.2467C91.1725 23.4511 89.757 21.9695 87.9691 21.8942H84.6912C82.4563 21.8942 80.4324 20.5757 79.5136 18.5165C79.2777 17.9263 78.7065 17.5371 78.0733 17.5371H75.0934C70.7725 17.5371 67.2712 21.078 67.2712 25.4476L67.3429 29.0466C66.7483 29.1339 66.1272 29.3327 65.657 29.6638V26.8539C65.657 26.1256 65.4335 25.4099 65.0238 24.8072C63.9063 23.1623 63.7077 20.9524 64.6886 19.0815C65.3715 17.7882 66.4765 16.8842 67.7306 16.4447C69.0715 15.9676 70.2138 15.0635 70.9712 13.8455C71.9397 12.3011 73.6407 11.2715 75.5901 11.2715C76.3474 11.2715 77.0676 11.4347 77.7381 11.711C78.632 12.1002 79.6378 12.1002 80.5317 11.711C81.1898 11.4347 81.9099 11.2715 82.6673 11.2715C84.6415 11.2715 86.3674 12.3388 87.3234 13.9209C88.0436 15.1137 89.1735 15.9801 90.4896 16.4321Z" fill="url(#paint52_radial_6415_7311)"/>
<path d="M90.4896 16.4321C91.694 16.8465 92.7742 17.6878 93.4571 18.8932C94.5497 20.8143 94.3883 23.1121 93.2087 24.8072C92.799 25.4099 92.5755 26.1256 92.5755 26.8539V29.6351C92.1376 29.3301 91.5599 29.104 91.0135 29.0073L91.1973 25.2467C91.1725 23.4511 89.757 21.9695 87.9691 21.8942H84.6912C82.4563 21.8942 80.4324 20.5757 79.5136 18.5165C79.2777 17.9263 78.7065 17.5371 78.0733 17.5371H75.0934C70.7725 17.5371 67.2712 21.078 67.2712 25.4476L67.3429 29.0466C66.7483 29.1339 66.1272 29.3327 65.657 29.6638V26.8539C65.657 26.1256 65.4335 25.4099 65.0238 24.8072C63.9063 23.1623 63.7077 20.9524 64.6886 19.0815C65.3715 17.7882 66.4765 16.8842 67.7306 16.4447C69.0715 15.9676 70.2138 15.0635 70.9712 13.8455C71.9397 12.3011 73.6407 11.2715 75.5901 11.2715C76.3474 11.2715 77.0676 11.4347 77.7381 11.711C78.632 12.1002 79.6378 12.1002 80.5317 11.711C81.1898 11.4347 81.9099 11.2715 82.6673 11.2715C84.6415 11.2715 86.3674 12.3388 87.3234 13.9209C88.0436 15.1137 89.1735 15.9801 90.4896 16.4321Z" fill="url(#paint53_radial_6415_7311)"/>
<path d="M90.4896 16.4321C91.694 16.8465 92.7742 17.6878 93.4571 18.8932C94.5497 20.8143 94.3883 23.1121 93.2087 24.8072C92.799 25.4099 92.5755 26.1256 92.5755 26.8539V29.6351C92.1376 29.3301 91.5599 29.104 91.0135 29.0073L91.1973 25.2467C91.1725 23.4511 89.757 21.9695 87.9691 21.8942H84.6912C82.4563 21.8942 80.4324 20.5757 79.5136 18.5165C79.2777 17.9263 78.7065 17.5371 78.0733 17.5371H75.0934C70.7725 17.5371 67.2712 21.078 67.2712 25.4476L67.3429 29.0466C66.7483 29.1339 66.1272 29.3327 65.657 29.6638V26.8539C65.657 26.1256 65.4335 25.4099 65.0238 24.8072C63.9063 23.1623 63.7077 20.9524 64.6886 19.0815C65.3715 17.7882 66.4765 16.8842 67.7306 16.4447C69.0715 15.9676 70.2138 15.0635 70.9712 13.8455C71.9397 12.3011 73.6407 11.2715 75.5901 11.2715C76.3474 11.2715 77.0676 11.4347 77.7381 11.711C78.632 12.1002 79.6378 12.1002 80.5317 11.711C81.1898 11.4347 81.9099 11.2715 82.6673 11.2715C84.6415 11.2715 86.3674 12.3388 87.3234 13.9209C88.0436 15.1137 89.1735 15.9801 90.4896 16.4321Z" fill="url(#paint54_radial_6415_7311)"/>
</g>
<g filter="url(#filter16_i_6415_7311)">
<path d="M87.8641 25.0077C87.454 24.6505 86.977 24.272 86.2546 24.0446C85.5424 23.8204 84.6503 23.7601 83.4162 23.9111C83.0603 23.9547 82.807 24.2785 82.8506 24.6344C82.8941 24.9903 83.2179 25.2435 83.5738 25.2C84.7003 25.0622 85.3903 25.1338 85.8647 25.2831C86.3289 25.4292 86.6429 25.666 87.0113 25.9868C87.2817 26.2223 87.6918 26.1941 87.9273 25.9237C88.1627 25.6533 88.1345 25.2432 87.8641 25.0077Z" fill="#202020"/>
</g>
<g filter="url(#filter17_i_6415_7311)">
<path d="M71.1409 24.7526C71.3519 24.6263 71.6555 24.4648 72.0388 24.3141C72.8054 24.0127 73.9009 23.7509 75.2118 23.9113C75.5677 23.9548 75.8209 24.2786 75.7774 24.6345C75.7338 24.9904 75.41 25.2437 75.0541 25.2001C74.0044 25.0717 73.1286 25.2808 72.514 25.5225C72.2067 25.6433 71.9672 25.7713 71.8078 25.8667C71.7282 25.9144 71.6691 25.9536 71.632 25.9792C71.6134 25.992 71.6004 26.0014 71.5932 26.0068L71.5867 26.0116C71.3038 26.2297 70.8974 26.1783 70.6778 25.896C70.4577 25.613 70.5087 25.2051 70.7917 24.985L71.1409 24.7526Z" fill="#202020"/>
</g>
<g filter="url(#filter18_if_6415_7311)">
<path d="M79.6709 18.8368C79.6163 18.7322 79.5646 18.6254 79.516 18.5165C79.2801 17.9264 78.709 17.5371 78.0758 17.5371H75.0959C70.775 17.5371 67.2736 21.078 67.2736 25.4476V26.0918C66.4777 25.4861 65.4766 24.2083 65.4766 22.1406C65.4766 19.6314 67.3066 18.3631 68.474 17.5541C68.8035 17.3257 69.0803 17.1339 69.2481 16.9611C69.3194 16.8877 69.397 16.8054 69.4815 16.7158C70.2997 15.848 71.7577 14.3016 74.3036 13.6258C76.0376 13.1655 77.8035 13.1898 78.9189 13.309C79.389 13.3593 79.7202 13.7681 79.7202 14.2409V18.8053L79.6709 18.8368Z" fill="#23181C"/>
<path d="M79.6709 18.8368C79.6163 18.7322 79.5646 18.6254 79.516 18.5165C79.2801 17.9264 78.709 17.5371 78.0758 17.5371H75.0959C70.775 17.5371 67.2736 21.078 67.2736 25.4476V26.0918C66.4777 25.4861 65.4766 24.2083 65.4766 22.1406C65.4766 19.6314 67.3066 18.3631 68.474 17.5541C68.8035 17.3257 69.0803 17.1339 69.2481 16.9611C69.3194 16.8877 69.397 16.8054 69.4815 16.7158C70.2997 15.848 71.7577 14.3016 74.3036 13.6258C76.0376 13.1655 77.8035 13.1898 78.9189 13.309C79.389 13.3593 79.7202 13.7681 79.7202 14.2409V18.8053L79.6709 18.8368Z" fill="url(#paint55_radial_6415_7311)"/>
<path d="M79.6709 18.8368C79.6163 18.7322 79.5646 18.6254 79.516 18.5165C79.2801 17.9264 78.709 17.5371 78.0758 17.5371H75.0959C70.775 17.5371 67.2736 21.078 67.2736 25.4476V26.0918C66.4777 25.4861 65.4766 24.2083 65.4766 22.1406C65.4766 19.6314 67.3066 18.3631 68.474 17.5541C68.8035 17.3257 69.0803 17.1339 69.2481 16.9611C69.3194 16.8877 69.397 16.8054 69.4815 16.7158C70.2997 15.848 71.7577 14.3016 74.3036 13.6258C76.0376 13.1655 77.8035 13.1898 78.9189 13.309C79.389 13.3593 79.7202 13.7681 79.7202 14.2409V18.8053L79.6709 18.8368Z" fill="url(#paint56_radial_6415_7311)"/>
</g>
<g filter="url(#filter19_f_6415_7311)">
<path d="M91.3271 26.4841L91.2588 25.0065C91.234 23.2192 89.757 21.7444 87.9691 21.6694H84.6912C82.6103 21.6694 80.7124 20.5318 79.7191 18.7206C79.7191 18.7206 79.1498 17.402 79.115 15.5362C79.0962 14.5333 79.9954 13.8189 80.9916 13.9358C83.6055 14.2425 87.4873 15.05 90.1078 16.7591C94.1918 19.4229 93.4768 24.2235 91.3271 26.4841Z" fill="#1F151B"/>
<path d="M91.3271 26.4841L91.2588 25.0065C91.234 23.2192 89.757 21.7444 87.9691 21.6694H84.6912C82.6103 21.6694 80.7124 20.5318 79.7191 18.7206C79.7191 18.7206 79.1498 17.402 79.115 15.5362C79.0962 14.5333 79.9954 13.8189 80.9916 13.9358C83.6055 14.2425 87.4873 15.05 90.1078 16.7591C94.1918 19.4229 93.4768 24.2235 91.3271 26.4841Z" fill="url(#paint57_radial_6415_7311)"/>
<path d="M91.3271 26.4841L91.2588 25.0065C91.234 23.2192 89.757 21.7444 87.9691 21.6694H84.6912C82.6103 21.6694 80.7124 20.5318 79.7191 18.7206C79.7191 18.7206 79.1498 17.402 79.115 15.5362C79.0962 14.5333 79.9954 13.8189 80.9916 13.9358C83.6055 14.2425 87.4873 15.05 90.1078 16.7591C94.1918 19.4229 93.4768 24.2235 91.3271 26.4841Z" fill="url(#paint58_radial_6415_7311)"/>
<path d="M91.3271 26.4841L91.2588 25.0065C91.234 23.2192 89.757 21.7444 87.9691 21.6694H84.6912C82.6103 21.6694 80.7124 20.5318 79.7191 18.7206C79.7191 18.7206 79.1498 17.402 79.115 15.5362C79.0962 14.5333 79.9954 13.8189 80.9916 13.9358C83.6055 14.2425 87.4873 15.05 90.1078 16.7591C94.1918 19.4229 93.4768 24.2235 91.3271 26.4841Z" fill="url(#paint59_radial_6415_7311)"/>
</g>
<path d="M84.724 28.0854C86.253 28.0854 87.5445 29.1396 87.8959 30.5641C88.0003 30.9724 87.6869 31.3618 87.2691 31.3618H82.046C81.7136 31.3618 81.4477 31.0579 81.5142 30.7255C81.8086 29.225 83.1286 28.0854 84.724 28.0854Z" fill="white"/>
<path d="M84.2394 28.7218C85.398 28.7218 86.3286 29.662 86.3286 30.811C86.3286 31.001 86.3001 31.1909 86.2526 31.3619H82.2166C82.1691 31.1814 82.1406 31.001 82.1406 30.811C82.1406 29.662 83.0808 28.7218 84.2394 28.7218Z" fill="url(#paint60_radial_6415_7311)"/>
<path d="M83.041 30.8109C83.041 30.1462 83.5728 29.6144 84.2376 29.6144C84.9023 29.6144 85.4342 30.1462 85.4342 30.8109C85.4342 31.0104 85.3867 31.2003 85.3012 31.3618H83.1835C83.0885 31.2003 83.041 31.0104 83.041 30.8109Z" fill="black"/>
<g filter="url(#filter20_f_6415_7311)">
<path d="M84.0838 29.1631C84.2327 29.3622 83.9215 29.6049 83.5678 29.8694C83.214 30.1339 82.9516 30.3201 82.8027 30.121C82.6539 29.9219 82.82 29.5461 83.1737 29.2816C83.5275 29.0171 83.935 28.9641 84.0838 29.1631Z" fill="#C7A7A3"/>
<path d="M84.0838 29.1631C84.2327 29.3622 83.9215 29.6049 83.5678 29.8694C83.214 30.1339 82.9516 30.3201 82.8027 30.121C82.6539 29.9219 82.82 29.5461 83.1737 29.2816C83.5275 29.0171 83.935 28.9641 84.0838 29.1631Z" fill="url(#paint61_radial_6415_7311)"/>
</g>
<g filter="url(#filter21_f_6415_7311)">
<path d="M86.0992 30.5356C86.022 29.9955 85.706 29.5884 85.5576 29.4524L84.9492 30.1201L85.2237 30.6543L86.0992 30.5356Z" fill="url(#paint62_linear_6415_7311)"/>
</g>
<path d="M73.5282 28.0854C71.9992 28.0854 70.7076 29.1396 70.3562 30.5642C70.2517 30.9726 70.5651 31.3619 70.983 31.3619H76.2064C76.5388 31.3619 76.8047 31.058 76.7382 30.7256C76.4438 29.2251 75.1142 28.0854 73.5282 28.0854Z" fill="white"/>
<path d="M74.0132 28.7213C72.8545 28.7213 71.9238 29.6615 71.9238 30.8107C71.9238 31.0006 71.9523 31.1906 71.9998 31.3615H76.0361C76.0835 31.1811 76.112 31.0006 76.112 30.8107C76.1025 29.6615 75.1718 28.7213 74.0132 28.7213Z" fill="url(#paint63_radial_6415_7311)"/>
<path d="M75.2097 30.8111C75.2097 30.1463 74.6778 29.6145 74.013 29.6145C73.3482 29.6145 72.8164 30.1463 72.8164 30.8111C72.8164 31.0106 72.8639 31.2005 72.9494 31.362H75.0672C75.1527 31.2005 75.2097 31.0106 75.2097 30.8111Z" fill="black"/>
<g filter="url(#filter22_f_6415_7311)">
<path d="M75.9215 30.5653C75.9215 29.8901 75.3724 29.44 75.224 29.304L74.5488 29.9569L74.9643 30.8027L75.9215 30.5653Z" fill="url(#paint64_linear_6415_7311)"/>
</g>
<g filter="url(#filter23_f_6415_7311)">
<ellipse cx="73.3815" cy="29.6141" rx="0.912115" ry="0.461614" transform="rotate(-27.914 73.3815 29.6141)" fill="#C7A7A3" fill-opacity="0.9"/>
<ellipse cx="73.3815" cy="29.6141" rx="0.912115" ry="0.461614" transform="rotate(-27.914 73.3815 29.6141)" fill="url(#paint65_radial_6415_7311)"/>
</g>
<path d="M90.6484 35.1222C90.8025 32.631 90.951 30.1427 91.0805 27.6514C92.8494 27.9609 94.1937 29.5043 94.1937 31.3618C94.1937 33.3678 92.6257 35.0075 90.6484 35.1222Z" fill="url(#paint66_linear_6415_7311)"/>
<path d="M90.6484 35.1222C90.8025 32.631 90.951 30.1427 91.0805 27.6514C92.8494 27.9609 94.1937 29.5043 94.1937 31.3618C94.1937 33.3678 92.6257 35.0075 90.6484 35.1222Z" fill="url(#paint67_radial_6415_7311)"/>
<path d="M90.6484 35.1222C90.8025 32.631 90.951 30.1427 91.0805 27.6514C92.8494 27.9609 94.1937 29.5043 94.1937 31.3618C94.1937 33.3678 92.6257 35.0075 90.6484 35.1222Z" fill="url(#paint68_radial_6415_7311)"/>
<path d="M90.6484 35.1222C90.8025 32.631 90.951 30.1427 91.0805 27.6514C92.8494 27.9609 94.1937 29.5043 94.1937 31.3618C94.1937 33.3678 92.6257 35.0075 90.6484 35.1222Z" fill="url(#paint69_radial_6415_7311)"/>
<path d="M67.3155 27.6307C65.4864 27.8886 64.0566 29.4616 64.0566 31.3619C64.0566 33.373 65.6326 35.016 67.617 35.1232C67.4659 32.6217 67.3639 30.1331 67.3155 27.6307Z" fill="url(#paint70_linear_6415_7311)"/>
<path d="M67.3155 27.6307C65.4864 27.8886 64.0566 29.4616 64.0566 31.3619C64.0566 33.373 65.6326 35.016 67.617 35.1232C67.4659 32.6217 67.3639 30.1331 67.3155 27.6307Z" fill="url(#paint71_radial_6415_7311)"/>
<g filter="url(#filter24_f_6415_7311)">
<path d="M67.2217 29.1775C66.2229 29.4014 65.4766 30.2935 65.4766 31.3599C65.4766 32.4948 66.3218 33.4322 67.417 33.5771C67.3359 32.1097 67.2674 30.6451 67.2217 29.1775Z" fill="url(#paint72_radial_6415_7311)"/>
</g>
<g filter="url(#filter25_f_6415_7311)">
<path d="M90.8438 33.6145C90.934 32.129 91.0212 30.6442 91.1027 29.1587C92.2059 29.2963 93.0596 30.2374 93.0596 31.378C93.0596 32.6063 92.0694 33.6033 90.8438 33.6145Z" fill="url(#paint73_linear_6415_7311)"/>
</g>
<g filter="url(#filter26_f_6415_7311)">
<path d="M71.2285 25.4072C71.8302 24.9756 73.3297 24.2163 75.1033 24.5145" stroke="#353535" stroke-width="0.25" stroke-linecap="round"/>
</g>
<g filter="url(#filter27_f_6415_7311)">
<path d="M87.4609 25.2995C86.8593 24.8679 85.3597 24.1086 83.5861 24.4069" stroke="#353535" stroke-width="0.25" stroke-linecap="round"/>
</g>
</g>
<defs>
<filter id="filter0_f_6415_7311" x="54.1758" y="29.3054" width="14.6055" height="21.7478" filterUnits="userSpaceOnUse" color-interpolation-filters="sRGB">
<feFlood flood-opacity="0" result="BackgroundImageFix"/>
<feBlend mode="normal" in="SourceGraphic" in2="BackgroundImageFix" result="shape"/>
<feGaussianBlur stdDeviation="0.75" result="effect1_foregroundBlur_6415_7311"/>
</filter>
<filter id="filter1_f_6415_7311" x="50.5934" y="14.0874" width="0.567188" height="4.10479" filterUnits="userSpaceOnUse" color-interpolation-filters="sRGB">
<feFlood flood-opacity="0" result="BackgroundImageFix"/>
<feBlend mode="normal" in="SourceGraphic" in2="BackgroundImageFix" result="shape"/>
<feGaussianBlur stdDeviation="0.05" result="effect1_foregroundBlur_6415_7311"/>
</filter>
<filter id="filter2_f_6415_7311" x="53.652" y="13.2414" width="0.412891" height="4.79692" filterUnits="userSpaceOnUse" color-interpolation-filters="sRGB">
<feFlood flood-opacity="0" result="BackgroundImageFix"/>
<feBlend mode="normal" in="SourceGraphic" in2="BackgroundImageFix" result="shape"/>
<feGaussianBlur stdDeviation="0.05" result="effect1_foregroundBlur_6415_7311"/>
</filter>
<filter id="filter3_f_6415_7311" x="56.5602" y="14.4258" width="0.735156" height="3.04351" filterUnits="userSpaceOnUse" color-interpolation-filters="sRGB">
<feFlood flood-opacity="0" result="BackgroundImageFix"/>
<feBlend mode="normal" in="SourceGraphic" in2="BackgroundImageFix" result="shape"/>
<feGaussianBlur stdDeviation="0.05" result="effect1_foregroundBlur_6415_7311"/>
</filter>
<filter id="filter4_f_6415_7311" x="48.8051" y="13.0878" width="1.90352" height="6.03755" filterUnits="userSpaceOnUse" color-interpolation-filters="sRGB">
<feFlood flood-opacity="0" result="BackgroundImageFix"/>
<feBlend mode="normal" in="SourceGraphic" in2="BackgroundImageFix" result="shape"/>
<feGaussianBlur stdDeviation="0.2" result="effect1_foregroundBlur_6415_7311"/>
</filter>
<filter id="filter5_f_6415_7311" x="52.1273" y="11.2335" width="1.19844" height="6.88069" filterUnits="userSpaceOnUse" color-interpolation-filters="sRGB">
<feFlood flood-opacity="0" result="BackgroundImageFix"/>
<feBlend mode="normal" in="SourceGraphic" in2="BackgroundImageFix" result="shape"/>
<feGaussianBlur stdDeviation="0.2" result="effect1_foregroundBlur_6415_7311"/>
</filter>
<filter id="filter6_f_6415_7311" x="55.1723" y="9.42458" width="1.76875" height="8.59395" filterUnits="userSpaceOnUse" color-interpolation-filters="sRGB">
<feFlood flood-opacity="0" result="BackgroundImageFix"/>
<feBlend mode="normal" in="SourceGraphic" in2="BackgroundImageFix" result="shape"/>
<feGaussianBlur stdDeviation="0.2" result="effect1_foregroundBlur_6415_7311"/>
</filter>
<filter id="filter7_f_6415_7311" x="57.9281" y="11.4535" width="2.79023" height="7.59883" filterUnits="userSpaceOnUse" color-interpolation-filters="sRGB">
<feFlood flood-opacity="0" result="BackgroundImageFix"/>
<feBlend mode="normal" in="SourceGraphic" in2="BackgroundImageFix" result="shape"/>
<feGaussianBlur stdDeviation="0.2" result="effect1_foregroundBlur_6415_7311"/>
</filter>
<filter id="filter8_f_6415_7311" x="49.0871" y="17.9216" width="2.19883" height="2.09189" filterUnits="userSpaceOnUse" color-interpolation-filters="sRGB">
<feFlood flood-opacity="0" result="BackgroundImageFix"/>
<feBlend mode="normal" in="SourceGraphic" in2="BackgroundImageFix" result="shape"/>
<feGaussianBlur stdDeviation="0.1" result="effect1_foregroundBlur_6415_7311"/>
</filter>
<filter id="filter9_f_6415_7311" x="52.3332" y="17.5125" width="1.6207" height="1.38621" filterUnits="userSpaceOnUse" color-interpolation-filters="sRGB">
<feFlood flood-opacity="0" result="BackgroundImageFix"/>
<feBlend mode="normal" in="SourceGraphic" in2="BackgroundImageFix" result="shape"/>
<feGaussianBlur stdDeviation="0.1" result="effect1_foregroundBlur_6415_7311"/>
</filter>
<filter id="filter10_f_6415_7311" x="54.8234" y="17.1352" width="2.00352" height="1.43235" filterUnits="userSpaceOnUse" color-interpolation-filters="sRGB">
<feFlood flood-opacity="0" result="BackgroundImageFix"/>
<feBlend mode="normal" in="SourceGraphic" in2="BackgroundImageFix" result="shape"/>
<feGaussianBlur stdDeviation="0.1" result="effect1_foregroundBlur_6415_7311"/>
</filter>
<filter id="filter11_ii_6415_7311" x="67.2734" y="17.5371" width="24.9258" height="29.0921" filterUnits="userSpaceOnUse" color-interpolation-filters="sRGB">
<feFlood flood-opacity="0" result="BackgroundImageFix"/>
<feBlend mode="normal" in="SourceGraphic" in2="BackgroundImageFix" result="shape"/>
<feColorMatrix in="SourceAlpha" type="matrix" values="0 0 0 0 0 0 0 0 0 0 0 0 0 0 0 0 0 0 127 0" result="hardAlpha"/>
<feOffset dx="1"/>
<feGaussianBlur stdDeviation="0.7"/>
<feComposite in2="hardAlpha" operator="arithmetic" k2="-1" k3="1"/>
<feColorMatrix type="matrix" values="0 0 0 0 0.913725 0 0 0 0 0.686275 0 0 0 0 0.592157 0 0 0 1 0"/>
<feBlend mode="normal" in2="shape" result="effect1_innerShadow_6415_7311"/>
<feColorMatrix in="SourceAlpha" type="matrix" values="0 0 0 0 0 0 0 0 0 0 0 0 0 0 0 0 0 0 127 0" result="hardAlpha"/>
<feOffset dy="0.2"/>
<feGaussianBlur stdDeviation="0.375"/>
<feComposite in2="hardAlpha" operator="arithmetic" k2="-1" k3="1"/>
<feColorMatrix type="matrix" values="0 0 0 0 0.780392 0 0 0 0 0.568627 0 0 0 0 0.486275 0 0 0 1 0"/>
<feBlend mode="normal" in2="effect1_innerShadow_6415_7311" result="effect2_innerShadow_6415_7311"/>
</filter>
<filter id="filter12_f_6415_7311" x="75.748" y="29.0417" width="6.08984" height="8.78906" filterUnits="userSpaceOnUse" color-interpolation-filters="sRGB">
<feFlood flood-opacity="0" result="BackgroundImageFix"/>
<feBlend mode="normal" in="SourceGraphic" in2="BackgroundImageFix" result="shape"/>
<feGaussianBlur stdDeviation="0.5" result="effect1_foregroundBlur_6415_7311"/>
</filter>
<filter id="filter13_f_6415_7311" x="76.7277" y="29.3952" width="4.79453" height="7.18906" filterUnits="userSpaceOnUse" color-interpolation-filters="sRGB">
<feFlood flood-opacity="0" result="BackgroundImageFix"/>
<feBlend mode="normal" in="SourceGraphic" in2="BackgroundImageFix" result="shape"/>
<feGaussianBlur stdDeviation="0.1" result="effect1_foregroundBlur_6415_7311"/>
</filter>
<filter id="filter14_f_6415_7311" x="75.109" y="37.7036" width="8.03398" height="3.0114" filterUnits="userSpaceOnUse" color-interpolation-filters="sRGB">
<feFlood flood-opacity="0" result="BackgroundImageFix"/>
<feBlend mode="normal" in="SourceGraphic" in2="BackgroundImageFix" result="shape"/>
<feGaussianBlur stdDeviation="0.05" result="effect1_foregroundBlur_6415_7311"/>
</filter>
<filter id="filter15_ii_6415_7311" x="64.0566" y="10.7715" width="30.1348" height="18.8923" filterUnits="userSpaceOnUse" color-interpolation-filters="sRGB">
<feFlood flood-opacity="0" result="BackgroundImageFix"/>
<feBlend mode="normal" in="SourceGraphic" in2="BackgroundImageFix" result="shape"/>
<feColorMatrix in="SourceAlpha" type="matrix" values="0 0 0 0 0 0 0 0 0 0 0 0 0 0 0 0 0 0 127 0" result="hardAlpha"/>
<feOffset dy="-0.5"/>
<feGaussianBlur stdDeviation="0.625"/>
<feComposite in2="hardAlpha" operator="arithmetic" k2="-1" k3="1"/>
<feColorMatrix type="matrix" values="0 0 0 0 0.137255 0 0 0 0 0.0901961 0 0 0 0 0.145098 0 0 0 1 0"/>
<feBlend mode="normal" in2="shape" result="effect1_innerShadow_6415_7311"/>
<feColorMatrix in="SourceAlpha" type="matrix" values="0 0 0 0 0 0 0 0 0 0 0 0 0 0 0 0 0 0 127 0" result="hardAlpha"/>
<feOffset dy="-0.2"/>
<feGaussianBlur stdDeviation="0.2"/>
<feComposite in2="hardAlpha" operator="arithmetic" k2="-1" k3="1"/>
<feColorMatrix type="matrix" values="0 0 0 0 0.0784314 0 0 0 0 0.0352941 0 0 0 0 0.0470588 0 0 0 1 0"/>
<feBlend mode="normal" in2="effect1_innerShadow_6415_7311" result="effect2_innerShadow_6415_7311"/>
</filter>
<filter id="filter16_i_6415_7311" x="82.8457" y="23.6279" width="5.34219" height="2.5186" filterUnits="userSpaceOnUse" color-interpolation-filters="sRGB">
<feFlood flood-opacity="0" result="BackgroundImageFix"/>
<feBlend mode="normal" in="SourceGraphic" in2="BackgroundImageFix" result="shape"/>
<feColorMatrix in="SourceAlpha" type="matrix" values="0 0 0 0 0 0 0 0 0 0 0 0 0 0 0 0 0 0 127 0" result="hardAlpha"/>
<feOffset dx="0.1" dy="-0.2"/>
<feGaussianBlur stdDeviation="0.125"/>
<feComposite in2="hardAlpha" operator="arithmetic" k2="-1" k3="1"/>
<feColorMatrix type="matrix" values="0 0 0 0 0.0588235 0 0 0 0 0.054902 0 0 0 0 0.0588235 0 0 0 1 0"/>
<feBlend mode="normal" in2="shape" result="effect1_innerShadow_6415_7311"/>
</filter>
<filter id="filter17_i_6415_7311" x="70.541" y="23.6625" width="5.34219" height="2.48406" filterUnits="userSpaceOnUse" color-interpolation-filters="sRGB">
<feFlood flood-opacity="0" result="BackgroundImageFix"/>
<feBlend mode="normal" in="SourceGraphic" in2="BackgroundImageFix" result="shape"/>
<feColorMatrix in="SourceAlpha" type="matrix" values="0 0 0 0 0 0 0 0 0 0 0 0 0 0 0 0 0 0 127 0" result="hardAlpha"/>
<feOffset dx="0.1" dy="-0.2"/>
<feGaussianBlur stdDeviation="0.125"/>
<feComposite in2="hardAlpha" operator="arithmetic" k2="-1" k3="1"/>
<feColorMatrix type="matrix" values="0 0 0 0 0.0588235 0 0 0 0 0.054902 0 0 0 0 0.0588235 0 0 0 1 0"/>
<feBlend mode="normal" in2="shape" result="effect1_innerShadow_6415_7311"/>
</filter>
<filter id="filter18_if_6415_7311" x="64.9766" y="12.7354" width="15.2441" height="13.8564" filterUnits="userSpaceOnUse" color-interpolation-filters="sRGB">
<feFlood flood-opacity="0" result="BackgroundImageFix"/>
<feBlend mode="normal" in="SourceGraphic" in2="BackgroundImageFix" result="shape"/>
<feColorMatrix in="SourceAlpha" type="matrix" values="0 0 0 0 0 0 0 0 0 0 0 0 0 0 0 0 0 0 127 0" result="hardAlpha"/>
<feOffset dx="0.4" dy="0.2"/>
<feGaussianBlur stdDeviation="0.2"/>
<feComposite in2="hardAlpha" operator="arithmetic" k2="-1" k3="1"/>
<feColorMatrix type="matrix" values="0 0 0 0 0.286275 0 0 0 0 0.243137 0 0 0 0 0.227451 0 0 0 1 0"/>
<feBlend mode="normal" in2="shape" result="effect1_innerShadow_6415_7311"/>
<feGaussianBlur stdDeviation="0.25" result="effect2_foregroundBlur_6415_7311"/>
</filter>
<filter id="filter19_f_6415_7311" x="78.6152" y="13.4232" width="14.9434" height="13.5609" filterUnits="userSpaceOnUse" color-interpolation-filters="sRGB">
<feFlood flood-opacity="0" result="BackgroundImageFix"/>
<feBlend mode="normal" in="SourceGraphic" in2="BackgroundImageFix" result="shape"/>
<feGaussianBlur stdDeviation="0.25" result="effect1_foregroundBlur_6415_7311"/>
</filter>
<filter id="filter20_f_6415_7311" x="82.648" y="28.9426" width="1.57305" height="1.36187" filterUnits="userSpaceOnUse" color-interpolation-filters="sRGB">
<feFlood flood-opacity="0" result="BackgroundImageFix"/>
<feBlend mode="normal" in="SourceGraphic" in2="BackgroundImageFix" result="shape"/>
<feGaussianBlur stdDeviation="0.05" result="effect1_foregroundBlur_6415_7311"/>
</filter>
<filter id="filter21_f_6415_7311" x="84.7492" y="29.2524" width="1.55039" height="1.6019" filterUnits="userSpaceOnUse" color-interpolation-filters="sRGB">
<feFlood flood-opacity="0" result="BackgroundImageFix"/>
<feBlend mode="normal" in="SourceGraphic" in2="BackgroundImageFix" result="shape"/>
<feGaussianBlur stdDeviation="0.1" result="effect1_foregroundBlur_6415_7311"/>
</filter>
<filter id="filter22_f_6415_7311" x="74.3488" y="29.104" width="1.77305" height="1.89878" filterUnits="userSpaceOnUse" color-interpolation-filters="sRGB">
<feFlood flood-opacity="0" result="BackgroundImageFix"/>
<feBlend mode="normal" in="SourceGraphic" in2="BackgroundImageFix" result="shape"/>
<feGaussianBlur stdDeviation="0.1" result="effect1_foregroundBlur_6415_7311"/>
</filter>
<filter id="filter23_f_6415_7311" x="72.4469" y="28.9236" width="1.86992" height="1.38103" filterUnits="userSpaceOnUse" color-interpolation-filters="sRGB">
<feFlood flood-opacity="0" result="BackgroundImageFix"/>
<feBlend mode="normal" in="SourceGraphic" in2="BackgroundImageFix" result="shape"/>
<feGaussianBlur stdDeviation="0.05" result="effect1_foregroundBlur_6415_7311"/>
</filter>
<filter id="filter24_f_6415_7311" x="65.2266" y="28.9275" width="2.44141" height="4.89966" filterUnits="userSpaceOnUse" color-interpolation-filters="sRGB">
<feFlood flood-opacity="0" result="BackgroundImageFix"/>
<feBlend mode="normal" in="SourceGraphic" in2="BackgroundImageFix" result="shape"/>
<feGaussianBlur stdDeviation="0.125" result="effect1_foregroundBlur_6415_7311"/>
</filter>
<filter id="filter25_f_6415_7311" x="90.3438" y="28.6587" width="3.2168" height="5.45581" filterUnits="userSpaceOnUse" color-interpolation-filters="sRGB">
<feFlood flood-opacity="0" result="BackgroundImageFix"/>
<feBlend mode="normal" in="SourceGraphic" in2="BackgroundImageFix" result="shape"/>
<feGaussianBlur stdDeviation="0.25" result="effect1_foregroundBlur_6415_7311"/>
</filter>
<filter id="filter26_f_6415_7311" x="70.8535" y="24.0719" width="4.625" height="1.71033" filterUnits="userSpaceOnUse" color-interpolation-filters="sRGB">
<feFlood flood-opacity="0" result="BackgroundImageFix"/>
<feBlend mode="normal" in="SourceGraphic" in2="BackgroundImageFix" result="shape"/>
<feGaussianBlur stdDeviation="0.125" result="effect1_foregroundBlur_6415_7311"/>
</filter>
<filter id="filter27_f_6415_7311" x="83.2109" y="23.9642" width="4.625" height="1.71033" filterUnits="userSpaceOnUse" color-interpolation-filters="sRGB">
<feFlood flood-opacity="0" result="BackgroundImageFix"/>
<feBlend mode="normal" in="SourceGraphic" in2="BackgroundImageFix" result="shape"/>
<feGaussianBlur stdDeviation="0.125" result="effect1_foregroundBlur_6415_7311"/>
</filter>
<radialGradient id="paint0_radial_6415_7311" cx="0" cy="0" r="1" gradientTransform="matrix(4.59381 -11.8958 14.3373 5.22096 53.2551 27.3153)" gradientUnits="userSpaceOnUse">
<stop offset="0.474886" stop-color="#F0BBA8"/>
<stop offset="1" stop-color="#F4BDA7"/>
</radialGradient>
<radialGradient id="paint1_radial_6415_7311" cx="0" cy="0" r="1" gradientUnits="userSpaceOnUse" gradientTransform="translate(61.6502 23.6022) rotate(130.764) scale(18.8451 3.70621)">
<stop offset="0.146595" stop-color="#BE8479"/>
<stop offset="1" stop-color="#C38E7C" stop-opacity="0"/>
</radialGradient>
<linearGradient id="paint2_linear_6415_7311" x1="54.2058" y1="28.6164" x2="54.2058" y2="25.2633" gradientUnits="userSpaceOnUse">
<stop stop-color="#DD9C7F"/>
<stop offset="1" stop-color="#DD9C7F" stop-opacity="0"/>
</linearGradient>
<radialGradient id="paint3_radial_6415_7311" cx="0" cy="0" r="1" gradientUnits="userSpaceOnUse" gradientTransform="translate(50.7452 13.9022) rotate(85.0559) scale(4.46167 0.66373)">
<stop offset="0.07668" stop-color="#E1A587"/>
<stop offset="1" stop-color="#E1A587" stop-opacity="0"/>
</radialGradient>
<radialGradient id="paint4_radial_6415_7311" cx="0" cy="0" r="1" gradientUnits="userSpaceOnUse" gradientTransform="translate(53.9905 11.6105) rotate(90.7884) scale(6.70669 0.523747)">
<stop stop-color="#E1A587"/>
<stop offset="1" stop-color="#E1A587" stop-opacity="0"/>
</radialGradient>
<radialGradient id="paint5_radial_6415_7311" cx="0" cy="0" r="1" gradientUnits="userSpaceOnUse" gradientTransform="translate(57.8665 10.1032) rotate(99.6086) scale(7.92465 0.98273)">
<stop offset="0.201687" stop-color="#E1A587"/>
<stop offset="1" stop-color="#E1A587" stop-opacity="0"/>
</radialGradient>
<radialGradient id="paint6_radial_6415_7311" cx="0" cy="0" r="1" gradientUnits="userSpaceOnUse" gradientTransform="translate(60.8169 10.8129) rotate(131.934) scale(1.9529 1.71557)">
<stop stop-color="#FFD2BA"/>
<stop offset="1" stop-color="#FFD2BA" stop-opacity="0"/>
</radialGradient>
<radialGradient id="paint7_radial_6415_7311" cx="0" cy="0" r="1" gradientUnits="userSpaceOnUse" gradientTransform="translate(57.0249 8.79004) rotate(121.412) scale(2.4568 1.51788)">
<stop stop-color="#FFD2BA"/>
<stop offset="1" stop-color="#FFD2BA" stop-opacity="0"/>
</radialGradient>
<radialGradient id="paint8_radial_6415_7311" cx="0" cy="0" r="1" gradientUnits="userSpaceOnUse" gradientTransform="translate(52.9619 9.95108) rotate(99.8411) scale(2.44917 1.87938)">
<stop stop-color="#FFD2BA"/>
<stop offset="1" stop-color="#FFD2BA" stop-opacity="0"/>
</radialGradient>
<radialGradient id="paint9_radial_6415_7311" cx="0" cy="0" r="1" gradientUnits="userSpaceOnUse" gradientTransform="translate(49.5146 12.3642) rotate(98.1301) scale(1.91528 1.36159)">
<stop stop-color="#FFD2BA"/>
<stop offset="1" stop-color="#FFD2BA" stop-opacity="0"/>
</radialGradient>
<radialGradient id="paint10_radial_6415_7311" cx="0" cy="0" r="1" gradientUnits="userSpaceOnUse" gradientTransform="translate(65.3351 17.2488) rotate(135) scale(3.03828 2.37756)">
<stop stop-color="#FFD2BA"/>
<stop offset="1" stop-color="#FFD2BA" stop-opacity="0"/>
</radialGradient>
<linearGradient id="paint11_linear_6415_7311" x1="47.875" y1="22.4262" x2="49.29" y2="22.2416" gradientUnits="userSpaceOnUse">
<stop stop-color="#FFD5B9"/>
<stop offset="1" stop-color="#FFD5B9" stop-opacity="0"/>
</linearGradient>
<linearGradient id="paint12_linear_6415_7311" x1="49.9602" y1="28.6521" x2="58.5735" y2="28.6521" gradientUnits="userSpaceOnUse">
<stop stop-color="#E6724B"/>
<stop offset="0.742857" stop-color="#D64D18"/>
</linearGradient>
<linearGradient id="paint13_linear_6415_7311" x1="54.4283" y1="27.4985" x2="54.4283" y2="28.0061" gradientUnits="userSpaceOnUse">
<stop stop-color="#DD6422"/>
<stop offset="1" stop-color="#DD6422" stop-opacity="0"/>
</linearGradient>
<radialGradient id="paint14_radial_6415_7311" cx="0" cy="0" r="1" gradientUnits="userSpaceOnUse" gradientTransform="translate(93.2447 57.4728) rotate(162.199) scale(18.0213 19.2162)">
<stop stop-color="#FF8045"/>
<stop offset="1" stop-color="#FF8045" stop-opacity="0"/>
</radialGradient>
<radialGradient id="paint15_radial_6415_7311" cx="0" cy="0" r="1" gradientUnits="userSpaceOnUse" gradientTransform="translate(63.1878 62.9822) rotate(-90) scale(9.1055 5.24905)">
<stop stop-color="#FF6E45"/>
<stop offset="1" stop-color="#FF6E45" stop-opacity="0"/>
</radialGradient>
<linearGradient id="paint16_linear_6415_7311" x1="60.3285" y1="56.4223" x2="64.1804" y2="44.0495" gradientUnits="userSpaceOnUse">
<stop stop-color="#FF4B54"/>
<stop offset="1" stop-color="#FF4B54" stop-opacity="0"/>
</linearGradient>
<radialGradient id="paint17_radial_6415_7311" cx="0" cy="0" r="1" gradientUnits="userSpaceOnUse" gradientTransform="translate(47.5608 29.5134) rotate(90) scale(17.3496 10.7051)">
<stop stop-color="#FF7C1F"/>
<stop offset="1" stop-color="#FF7C1F" stop-opacity="0"/>
</radialGradient>
<radialGradient id="paint18_radial_6415_7311" cx="0" cy="0" r="1" gradientUnits="userSpaceOnUse" gradientTransform="translate(75.1525 45.8587) rotate(-166.974) scale(16.0542 5.40683)">
<stop stop-color="#D93F13"/>
<stop offset="1" stop-color="#D93F13" stop-opacity="0"/>
</radialGradient>
<linearGradient id="paint19_linear_6415_7311" x1="68.3865" y1="51.8772" x2="67.2791" y2="49.7854" gradientUnits="userSpaceOnUse">
<stop offset="0.133109" stop-color="#FF611D"/>
<stop offset="1" stop-color="#FF611D" stop-opacity="0"/>
</linearGradient>
<linearGradient id="paint20_linear_6415_7311" x1="76.8838" y1="44.9434" x2="83.6467" y2="51.1697" gradientUnits="userSpaceOnUse">
<stop stop-color="#C47874"/>
<stop offset="1" stop-color="#FFC2AE"/>
</linearGradient>
<radialGradient id="paint21_radial_6415_7311" cx="0" cy="0" r="1" gradientUnits="userSpaceOnUse" gradientTransform="translate(79.1261 42.2979) rotate(90) scale(7.875 7.90781)">
<stop offset="0.179687" stop-color="#CE7E7D"/>
<stop offset="1" stop-color="#CE7E7D" stop-opacity="0"/>
</radialGradient>
<linearGradient id="paint22_linear_6415_7311" x1="55.499" y1="34.0046" x2="66.8193" y2="50.3083" gradientUnits="userSpaceOnUse">
<stop stop-color="#FF7636"/>
<stop offset="1" stop-color="#FF7636" stop-opacity="0"/>
</linearGradient>
<linearGradient id="paint23_linear_6415_7311" x1="51.2338" y1="14.2314" x2="49.3602" y2="17.7472" gradientUnits="userSpaceOnUse">
<stop stop-color="#D59776"/>
<stop offset="1" stop-color="#D59776" stop-opacity="0"/>
</linearGradient>
<linearGradient id="paint24_linear_6415_7311" x1="54.0275" y1="13.3866" x2="51.4664" y2="15.3147" gradientUnits="userSpaceOnUse">
<stop stop-color="#D59776"/>
<stop offset="1" stop-color="#D59776" stop-opacity="0"/>
</linearGradient>
<linearGradient id="paint25_linear_6415_7311" x1="57.4919" y1="14.5679" x2="56.7405" y2="17.6479" gradientUnits="userSpaceOnUse">
<stop stop-color="#D59776"/>
<stop offset="1" stop-color="#D59776" stop-opacity="0"/>
</linearGradient>
<linearGradient id="paint26_linear_6415_7311" x1="48.8025" y1="14.4531" x2="49.6287" y2="19.5861" gradientUnits="userSpaceOnUse">
<stop stop-color="#F1BEA1"/>
<stop offset="1" stop-color="#F1BEA1" stop-opacity="0"/>
</linearGradient>
<linearGradient id="paint27_linear_6415_7311" x1="51.8787" y1="12.7342" x2="52.6896" y2="18.8034" gradientUnits="userSpaceOnUse">
<stop stop-color="#F1BEA1"/>
<stop offset="1" stop-color="#F1BEA1" stop-opacity="0"/>
</linearGradient>
<linearGradient id="paint28_linear_6415_7311" x1="55.289" y1="11.2447" x2="57.4589" y2="18.4827" gradientUnits="userSpaceOnUse">
<stop stop-color="#F1BEA1"/>
<stop offset="1" stop-color="#F1BEA1" stop-opacity="0"/>
</linearGradient>
<linearGradient id="paint29_linear_6415_7311" x1="57.1672" y1="13.1138" x2="57.7895" y2="19.8694" gradientUnits="userSpaceOnUse">
<stop stop-color="#F1BEA1"/>
<stop offset="1" stop-color="#F1BEA1" stop-opacity="0"/>
</linearGradient>
<linearGradient id="paint30_linear_6415_7311" x1="51.3513" y1="18.129" x2="49.2012" y2="17.9946" gradientUnits="userSpaceOnUse">
<stop stop-color="#EFB99B"/>
<stop offset="1" stop-color="#EFB99B" stop-opacity="0"/>
</linearGradient>
<linearGradient id="paint31_linear_6415_7311" x1="53.8555" y1="17.791" x2="52.7451" y2="17.513" gradientUnits="userSpaceOnUse">
<stop stop-color="#EFB99B"/>
<stop offset="1" stop-color="#EFB99B" stop-opacity="0"/>
</linearGradient>
<linearGradient id="paint32_linear_6415_7311" x1="56.8111" y1="17.4225" x2="55.2298" y2="17.0031" gradientUnits="userSpaceOnUse">
<stop stop-color="#EFB99B"/>
<stop offset="1" stop-color="#EFB99B" stop-opacity="0"/>
</linearGradient>
<radialGradient id="paint33_radial_6415_7311" cx="0" cy="0" r="1" gradientUnits="userSpaceOnUse" gradientTransform="translate(90.2527 34.1868) rotate(69.6569) scale(5.04227 5.98983)">
<stop offset="0.214643" stop-color="#313131"/>
<stop offset="1" stop-color="#1A161E"/>
</radialGradient>
<radialGradient id="paint34_radial_6415_7311" cx="0" cy="0" r="1" gradientUnits="userSpaceOnUse" gradientTransform="translate(64.9467 35.3347) rotate(17.4472) scale(3.62311 11.1775)">
<stop stop-color="#564943"/>
<stop offset="0.745836" stop-color="#1E191C"/>
</radialGradient>
<radialGradient id="paint35_radial_6415_7311" cx="0" cy="0" r="1" gradientUnits="userSpaceOnUse" gradientTransform="translate(85.6994 31.9832) rotate(180) scale(12.2385 21.6498)">
<stop stop-color="#FFDCC0"/>
<stop offset="1" stop-color="#D6A195"/>
</radialGradient>
<linearGradient id="paint36_linear_6415_7311" x1="91.1996" y1="35.9289" x2="81.01" y2="35.9289" gradientUnits="userSpaceOnUse">
<stop stop-color="#FFD6BA"/>
<stop offset="1" stop-color="#FFD6BA" stop-opacity="0"/>
</linearGradient>
<radialGradient id="paint37_radial_6415_7311" cx="0" cy="0" r="1" gradientUnits="userSpaceOnUse" gradientTransform="translate(82.8288 18.1396) rotate(94.4701) scale(29.9812 24.8281)">
<stop offset="0.767031" stop-color="#C9747E" stop-opacity="0"/>
<stop offset="1" stop-color="#C9747E"/>
</radialGradient>
<radialGradient id="paint38_radial_6415_7311" cx="0" cy="0" r="1" gradientUnits="userSpaceOnUse" gradientTransform="translate(84.8554 28.9097) rotate(-90) scale(2.68831 3.32679)">
<stop offset="0.325" stop-color="#F6B8A8"/>
<stop offset="1" stop-color="#F6B8A8" stop-opacity="0"/>
</radialGradient>
<radialGradient id="paint39_radial_6415_7311" cx="0" cy="0" r="1" gradientUnits="userSpaceOnUse" gradientTransform="translate(73.7417 29.0185) rotate(-89.7942) scale(2.56174 2.78778)">
<stop offset="0.377617" stop-color="#D39991"/>
<stop offset="1" stop-color="#D39991" stop-opacity="0"/>
</radialGradient>
<radialGradient id="paint40_radial_6415_7311" cx="0" cy="0" r="1" gradientUnits="userSpaceOnUse" gradientTransform="translate(87.1627 34.2962) rotate(176.388) scale(19.9289 50.9082)">
<stop offset="0.835902" stop-color="#E6AD97" stop-opacity="0"/>
<stop offset="1" stop-color="#E6AD97"/>
</radialGradient>
<radialGradient id="paint41_radial_6415_7311" cx="0" cy="0" r="1" gradientUnits="userSpaceOnUse" gradientTransform="translate(66.327 21.8576) rotate(-46.6112) scale(10.559 3.86533)">
<stop offset="0.427646" stop-color="#9F6D5C"/>
<stop offset="1" stop-color="#9F6D5C" stop-opacity="0"/>
</radialGradient>
<radialGradient id="paint42_radial_6415_7311" cx="0" cy="0" r="1" gradientUnits="userSpaceOnUse" gradientTransform="translate(84.8084 20.3273) rotate(121.159) scale(7.88686 6.51124)">
<stop offset="0.0780198" stop-color="#F6C3B0"/>
<stop offset="1" stop-color="#F6C3B0" stop-opacity="0"/>
</radialGradient>
<linearGradient id="paint43_linear_6415_7311" x1="81.0874" y1="33.563" x2="79.1251" y2="33.6447" gradientUnits="userSpaceOnUse">
<stop offset="0.360477" stop-color="#FFDFC7"/>
<stop offset="1" stop-color="#FFDFC7" stop-opacity="0"/>
</linearGradient>
<radialGradient id="paint44_radial_6415_7311" cx="0" cy="0" r="1" gradientUnits="userSpaceOnUse" gradientTransform="translate(80.2166 35.1685) rotate(90) scale(0.57145 1.79599)">
<stop stop-color="#FFDDC7"/>
<stop offset="1" stop-color="#FFDDC7" stop-opacity="0"/>
</radialGradient>
<linearGradient id="paint45_linear_6415_7311" x1="79.1251" y1="36.2298" x2="79.1251" y2="35.1413" gradientUnits="userSpaceOnUse">
<stop stop-color="#D89793"/>
<stop offset="1" stop-color="#D89793" stop-opacity="0"/>
</linearGradient>
<radialGradient id="paint46_radial_6415_7311" cx="0" cy="0" r="1" gradientUnits="userSpaceOnUse" gradientTransform="translate(80.4888 33.8352) rotate(155.369) scale(3.91748 6.29571)">
<stop offset="0.714105" stop-color="#D3968C" stop-opacity="0"/>
<stop offset="1" stop-color="#D3968C"/>
</radialGradient>
<linearGradient id="paint47_linear_6415_7311" x1="79.1251" y1="29.5952" x2="79.1251" y2="31.1768" gradientUnits="userSpaceOnUse">
<stop stop-color="#E8BBA8"/>
<stop offset="1" stop-color="#E8BBA8" stop-opacity="0"/>
</linearGradient>
<linearGradient id="paint48_linear_6415_7311" x1="76.313" y1="39.9073" x2="77.0585" y2="37.9537" gradientUnits="userSpaceOnUse">
<stop stop-color="#E1ACA6"/>
<stop offset="1" stop-color="#E1ACA6" stop-opacity="0"/>
</linearGradient>
<radialGradient id="paint49_radial_6415_7311" cx="0" cy="0" r="1" gradientUnits="userSpaceOnUse" gradientTransform="translate(79.1263 40.2688) rotate(-90) scale(1.68726 6.78828)">
<stop stop-color="#88014E"/>
<stop offset="1" stop-color="#86004D"/>
</radialGradient>
<linearGradient id="paint50_linear_6415_7311" x1="95.165" y1="18.7268" x2="67.9805" y2="18.7268" gradientUnits="userSpaceOnUse">
<stop stop-color="#443D40"/>
<stop offset="1" stop-color="#272127"/>
</linearGradient>
<radialGradient id="paint51_radial_6415_7311" cx="0" cy="0" r="1" gradientUnits="userSpaceOnUse" gradientTransform="translate(66.8818 25.2123) rotate(-90) scale(8.19667 20.7284)">
<stop offset="0.535851" stop-color="#3E3433"/>
<stop offset="1" stop-color="#3E3433" stop-opacity="0"/>
</radialGradient>
<radialGradient id="paint52_radial_6415_7311" cx="0" cy="0" r="1" gradientUnits="userSpaceOnUse" gradientTransform="translate(90.5034 28.2797) rotate(-87.4012) scale(5.88797 10.4323)">
<stop stop-color="#4F4D4D"/>
<stop offset="1" stop-color="#4F4D4D" stop-opacity="0"/>
</radialGradient>
<radialGradient id="paint53_radial_6415_7311" cx="0" cy="0" r="1" gradientUnits="userSpaceOnUse" gradientTransform="translate(88.7377 13.5866) rotate(-146.667) scale(6.60937 4.85162)">
<stop stop-color="#5E5A5B"/>
<stop offset="1" stop-color="#5E5A5B" stop-opacity="0"/>
</radialGradient>
<radialGradient id="paint54_radial_6415_7311" cx="0" cy="0" r="1" gradientUnits="userSpaceOnUse" gradientTransform="translate(77.0054 9.85889) rotate(58.4652) scale(4.05128 9.38086)">
<stop offset="0.286771" stop-color="#484646"/>
<stop offset="1" stop-color="#484646" stop-opacity="0"/>
</radialGradient>
<radialGradient id="paint55_radial_6415_7311" cx="0" cy="0" r="1" gradientUnits="userSpaceOnUse" gradientTransform="translate(79.7202 15.1478) rotate(180) scale(5.15288 1.91244)">
<stop stop-color="#423C3F"/>
<stop offset="1" stop-color="#423C3F" stop-opacity="0"/>
</radialGradient>
<radialGradient id="paint56_radial_6415_7311" cx="0" cy="0" r="1" gradientUnits="userSpaceOnUse" gradientTransform="translate(66.4134 24.3772) rotate(-57.7244) scale(14.1084 15.6307)">
<stop offset="0.0926981" stop-color="#0B0306"/>
<stop offset="0.311222" stop-color="#1C0C20"/>
<stop offset="1" stop-color="#1C0C20" stop-opacity="0"/>
</radialGradient>
<radialGradient id="paint57_radial_6415_7311" cx="0" cy="0" r="1" gradientUnits="userSpaceOnUse" gradientTransform="translate(87.1165 16.9661) scale(7.15975 2.79934)">
<stop stop-color="#4E494B"/>
<stop offset="1" stop-color="#4E494B" stop-opacity="0"/>
</radialGradient>
<radialGradient id="paint58_radial_6415_7311" cx="0" cy="0" r="1" gradientUnits="userSpaceOnUse" gradientTransform="translate(85.2895 24.0765) rotate(-43.6141) scale(8.66151 15.857)">
<stop offset="0.856906" stop-color="#545051" stop-opacity="0"/>
<stop offset="1" stop-color="#545051"/>
</radialGradient>
<radialGradient id="paint59_radial_6415_7311" cx="0" cy="0" r="1" gradientUnits="userSpaceOnUse" gradientTransform="translate(83.2157 20.6201) rotate(6.66666) scale(7.65591 3.20538)">
<stop stop-color="#200E25"/>
<stop offset="1" stop-color="#200E25" stop-opacity="0"/>
</radialGradient>
<radialGradient id="paint60_radial_6415_7311" cx="0" cy="0" r="1" gradientUnits="userSpaceOnUse" gradientTransform="translate(84.2346 29.8385) rotate(90) scale(1.89932 3.02107)">
<stop offset="0.80198" stop-color="#7D574A"/>
<stop offset="1" stop-color="#694B43"/>
<stop offset="1" stop-color="#804D49"/>
<stop offset="1" stop-color="#664842"/>
</radialGradient>
<radialGradient id="paint61_radial_6415_7311" cx="0" cy="0" r="1" gradientTransform="matrix(-0.542922 -0.699633 0.955027 -0.75804 83.6985 30.0351)" gradientUnits="userSpaceOnUse">
<stop offset="0.765532" stop-color="#FFE6E2" stop-opacity="0"/>
<stop offset="0.966159" stop-color="#FFE6E2"/>
</radialGradient>
<linearGradient id="paint62_linear_6415_7311" x1="86.0547" y1="29.9643" x2="85.3202" y2="30.4169" gradientUnits="userSpaceOnUse">
<stop stop-color="#B4948D"/>
<stop offset="1" stop-color="#B4948D" stop-opacity="0"/>
</linearGradient>
<radialGradient id="paint63_radial_6415_7311" cx="0" cy="0" r="1" gradientUnits="userSpaceOnUse" gradientTransform="translate(74.0179 29.8381) rotate(90) scale(1.89941 3.02123)">
<stop offset="0.80198" stop-color="#7D574A"/>
<stop offset="1" stop-color="#694B43"/>
<stop offset="1" stop-color="#804D49"/>
<stop offset="1" stop-color="#664842"/>
</radialGradient>
<linearGradient id="paint64_linear_6415_7311" x1="75.7588" y1="29.9643" x2="75.0242" y2="30.4169" gradientUnits="userSpaceOnUse">
<stop stop-color="#B4948D"/>
<stop offset="1" stop-color="#B4948D" stop-opacity="0"/>
</linearGradient>
<radialGradient id="paint65_radial_6415_7311" cx="0" cy="0" r="1" gradientTransform="matrix(-0.01811 -1.15666 1.38997 -0.0460295 73.3461 30.3513)" gradientUnits="userSpaceOnUse">
<stop offset="0.765532" stop-color="#FFE6E2" stop-opacity="0"/>
<stop offset="0.966159" stop-color="#FFE6E2"/>
</radialGradient>
<linearGradient id="paint66_linear_6415_7311" x1="94.1937" y1="30.0276" x2="91.3686" y2="35.1222" gradientUnits="userSpaceOnUse">
<stop stop-color="#FFD6BD"/>
<stop offset="1" stop-color="#F0B8A6"/>
</linearGradient>
<radialGradient id="paint67_radial_6415_7311" cx="0" cy="0" r="1" gradientUnits="userSpaceOnUse" gradientTransform="translate(89.9364 29.8707) rotate(74.3475) scale(5.4538 5.20335)">
<stop offset="0.856273" stop-color="#CE978E" stop-opacity="0"/>
<stop offset="1" stop-color="#CE978E"/>
</radialGradient>
<radialGradient id="paint68_radial_6415_7311" cx="0" cy="0" r="1" gradientUnits="userSpaceOnUse" gradientTransform="translate(90.78 31.1459) rotate(-53.9198) scale(3.13154 2.62485)">
<stop offset="0.663731" stop-color="#F7B99C"/>
<stop offset="1" stop-color="#F7B99C" stop-opacity="0"/>
</radialGradient>
<radialGradient id="paint69_radial_6415_7311" cx="0" cy="0" r="1" gradientUnits="userSpaceOnUse" gradientTransform="translate(91.0469 31.5496) rotate(-69.2631) scale(3.881 5.18555)">
<stop offset="0.803247" stop-color="#EBBB9D" stop-opacity="0"/>
<stop offset="1" stop-color="#EBBB9D"/>
</radialGradient>
<linearGradient id="paint70_linear_6415_7311" x1="65.43" y1="31.6758" x2="68.8437" y2="31.3776" gradientUnits="userSpaceOnUse">
<stop stop-color="#D19787"/>
<stop offset="1" stop-color="#C9887D"/>
</linearGradient>
<radialGradient id="paint71_radial_6415_7311" cx="0" cy="0" r="1" gradientUnits="userSpaceOnUse" gradientTransform="translate(67.617 31.3776) rotate(-173.034) scale(3.80454 4.084)">
<stop offset="0.77507" stop-color="#E8AF99" stop-opacity="0"/>
<stop offset="1" stop-color="#E8AF99"/>
</radialGradient>
<radialGradient id="paint72_radial_6415_7311" cx="0" cy="0" r="1" gradientUnits="userSpaceOnUse" gradientTransform="translate(67.6221 31.3773) rotate(170.26) scale(2.17687 2.67114)">
<stop stop-color="#C18472"/>
<stop offset="1" stop-color="#CA8B7A"/>
</radialGradient>
<linearGradient id="paint73_linear_6415_7311" x1="91.9517" y1="29.1587" x2="91.9517" y2="33.6145" gradientUnits="userSpaceOnUse">
<stop stop-color="#F9BB9E"/>
<stop offset="1" stop-color="#F6BBA0"/>
</linearGradient>
<clipPath id="clip0_6415_7311">
<rect width="146" height="64" fill="white" transform="translate(0.171875)"/>
</clipPath>
</defs>
</svg>
