<svg width="60" height="61" viewBox="0 0 60 61" fill="none" xmlns="http://www.w3.org/2000/svg">
<g clip-path="url(#clip0_6414_3282)">
<path d="M30.0683 0.816406H29.9317C13.4009 0.816406 0 14.2173 0 30.7481V30.8847C0 47.4155 13.4009 60.8164 29.9317 60.8164H30.0683C46.5991 60.8164 60 47.4155 60 30.8847V30.7481C60 14.2173 46.5991 0.816406 30.0683 0.816406Z" fill="url(#paint0_linear_6414_3282)"/>
<path d="M37.3676 15.8477H22.466C18.3491 15.8477 15 19.1968 15 23.3136V36.9464C15 41.0632 18.3491 44.4124 22.466 44.4124H37.3676C41.4844 44.4124 44.8335 41.0632 44.8335 36.9464V23.3136C44.8335 19.1968 41.4844 15.8477 37.3676 15.8477ZM17.6338 23.3136C17.6338 20.6495 19.8018 18.4814 22.466 18.4814H37.3676C40.0317 18.4814 42.1998 20.6495 42.1998 23.3136V36.9464C42.1998 39.6105 40.0317 41.7786 37.3676 41.7786H22.466C19.8018 41.7786 17.6338 39.6105 17.6338 36.9464V23.3136Z" fill="white"/>
<path d="M29.9173 37.0723C33.7456 37.0723 36.8619 33.9577 36.8619 30.1277C36.8619 26.2977 33.7473 23.1831 29.9173 23.1831C26.0873 23.1831 22.9727 26.2977 22.9727 30.1277C22.9727 33.9577 26.0873 37.0723 29.9173 37.0723ZM29.9173 25.8186C32.2946 25.8186 34.2281 27.7521 34.2281 30.1294C34.2281 32.5067 32.2946 34.4403 29.9173 34.4403C27.54 34.4403 25.6064 32.5067 25.6064 30.1294C25.6064 27.7521 27.54 25.8186 29.9173 25.8186Z" fill="white"/>
<path d="M37.5039 24.3057C38.5348 24.3057 39.3751 23.4672 39.3751 22.4346C39.3751 21.402 38.5365 20.5635 37.5039 20.5635C36.4714 20.5635 35.6328 21.402 35.6328 22.4346C35.6328 23.4672 36.4714 24.3057 37.5039 24.3057Z" fill="white"/>
</g>
<defs>
<linearGradient id="paint0_linear_6414_3282" x1="8.76572" y1="52.0507" x2="51.2343" y2="9.58423" gradientUnits="userSpaceOnUse">
<stop stop-color="#FAAD4F"/>
<stop offset="0.35" stop-color="#DD2A7B"/>
<stop offset="0.62" stop-color="#9537B0"/>
<stop offset="1" stop-color="#515BD4"/>
</linearGradient>
<clipPath id="clip0_6414_3282">
<rect width="60" height="60" fill="white" transform="translate(0 0.816406)"/>
</clipPath>
</defs>
</svg>
