<!-- Generated by IcoMoon.io -->
<svg version="1.1" xmlns="http://www.w3.org/2000/svg" width="75" height="32" viewBox="0 0 75 32">
<path fill="#77798e" d="M0.531 30.174v-3.652h1.494c0.393 0.002 0.706 0.093 0.937 0.271 0.234 0.176 0.35 0.411 0.347 0.702 0.002 0.222-0.063 0.393-0.197 0.513-0.131 0.12-0.299 0.201-0.505 0.245 0.133 0.020 0.263 0.068 0.39 0.144 0.129 0.076 0.236 0.181 0.321 0.314 0.085 0.131 0.128 0.292 0.128 0.483 0 0.187-0.048 0.355-0.144 0.503s-0.233 0.265-0.41 0.35c-0.177 0.085-0.39 0.127-0.639 0.127h-1.724zM1.062 29.658h1.193c0.192 0.002 0.343-0.042 0.452-0.134 0.111-0.092 0.166-0.217 0.164-0.376 0.002-0.189-0.052-0.338-0.164-0.444-0.109-0.109-0.26-0.163-0.452-0.163h-1.193v1.117zM1.062 28.057h0.963c0.225-0.002 0.402-0.049 0.531-0.14 0.129-0.094 0.192-0.221 0.19-0.382 0.002-0.155-0.061-0.276-0.19-0.363-0.129-0.089-0.306-0.134-0.531-0.134h-0.963v1.019zM5.467 30.252c-0.341 0-0.636-0.081-0.885-0.242-0.247-0.163-0.438-0.387-0.574-0.67-0.133-0.283-0.2-0.607-0.2-0.97 0-0.372 0.069-0.7 0.206-0.983 0.138-0.285 0.33-0.508 0.577-0.67 0.249-0.161 0.539-0.242 0.868-0.242 0.258 0 0.489 0.048 0.695 0.144 0.208 0.094 0.377 0.227 0.508 0.398 0.133 0.172 0.215 0.372 0.246 0.601h-0.564c-0.028-0.111-0.080-0.216-0.154-0.314s-0.173-0.176-0.295-0.235c-0.12-0.061-0.263-0.091-0.429-0.091-0.218 0-0.41 0.057-0.573 0.17s-0.292 0.273-0.383 0.48c-0.092 0.205-0.138 0.445-0.138 0.722 0 0.281 0.045 0.527 0.134 0.738 0.090 0.209 0.216 0.371 0.38 0.487 0.166 0.115 0.359 0.173 0.58 0.173s0.41-0.057 0.567-0.17c0.157-0.115 0.261-0.272 0.311-0.47h0.564c-0.031 0.216-0.109 0.41-0.236 0.582-0.125 0.172-0.289 0.309-0.495 0.412-0.203 0.1-0.44 0.15-0.711 0.15zM8.973 30.252c-0.352 0-0.656-0.078-0.914-0.235-0.256-0.157-0.452-0.376-0.59-0.657-0.138-0.283-0.206-0.611-0.206-0.983 0-0.375 0.068-0.705 0.203-0.99s0.325-0.508 0.57-0.67c0.247-0.161 0.535-0.242 0.865-0.242 0.19 0 0.379 0.032 0.567 0.095s0.358 0.165 0.511 0.307c0.155 0.141 0.279 0.329 0.37 0.562s0.138 0.519 0.138 0.859v0.242h-2.825v-0.484h2.52l-0.259 0.183c0-0.244-0.038-0.461-0.115-0.65s-0.191-0.339-0.344-0.448c-0.151-0.109-0.339-0.163-0.564-0.163s-0.418 0.056-0.58 0.167c-0.159 0.109-0.282 0.252-0.367 0.428s-0.128 0.366-0.128 0.568v0.32c0 0.277 0.048 0.511 0.144 0.702s0.23 0.338 0.403 0.438c0.173 0.098 0.373 0.147 0.6 0.147 0.146 0 0.28-0.021 0.4-0.062 0.12-0.044 0.224-0.108 0.311-0.193 0.087-0.087 0.154-0.194 0.2-0.32l0.544 0.157c-0.057 0.183-0.153 0.344-0.288 0.483-0.133 0.137-0.299 0.245-0.498 0.323-0.199 0.076-0.422 0.114-0.669 0.114zM13.732 25.156l0.288 0.34c-0.111 0.109-0.24 0.185-0.387 0.229-0.146 0.041-0.312 0.068-0.498 0.078-0.183 0.009-0.389 0.017-0.616 0.026-0.254 0.009-0.463 0.071-0.629 0.186-0.166 0.113-0.295 0.278-0.387 0.493-0.090 0.216-0.146 0.481-0.17 0.797h0.046c0.122-0.229 0.293-0.396 0.511-0.503 0.221-0.109 0.457-0.163 0.708-0.163 0.286 0 0.543 0.066 0.77 0.199 0.229 0.133 0.411 0.33 0.544 0.591 0.135 0.261 0.202 0.584 0.2 0.967 0.002 0.381-0.064 0.711-0.2 0.99-0.135 0.276-0.326 0.49-0.57 0.64-0.245 0.148-0.53 0.223-0.855 0.225-0.494-0.002-0.891-0.176-1.193-0.523-0.299-0.348-0.45-0.86-0.452-1.535v-0.385c0.002-0.814 0.141-1.431 0.416-1.849 0.277-0.42 0.696-0.638 1.255-0.653 0.197-0.006 0.371-0.008 0.524-0.003 0.155 0.002 0.289-0.005 0.403-0.023 0.116-0.017 0.213-0.059 0.292-0.124zM12.486 29.749c0.221-0.002 0.41-0.058 0.567-0.167 0.159-0.111 0.282-0.268 0.367-0.47 0.087-0.203 0.13-0.441 0.128-0.715 0.002-0.266-0.041-0.492-0.128-0.679-0.085-0.187-0.209-0.33-0.37-0.428-0.16-0.098-0.352-0.147-0.577-0.147-0.164 0-0.311 0.028-0.442 0.085-0.129 0.055-0.239 0.136-0.331 0.245-0.092 0.107-0.163 0.237-0.213 0.392s-0.078 0.332-0.082 0.532c0 0.407 0.096 0.734 0.288 0.98s0.457 0.37 0.793 0.372zM16.137 30.252c-0.33 0-0.619-0.078-0.868-0.235s-0.444-0.377-0.583-0.66c-0.138-0.283-0.206-0.612-0.206-0.987 0-0.381 0.069-0.713 0.206-0.996 0.14-0.285 0.334-0.506 0.583-0.663s0.539-0.235 0.868-0.235c0.332 0 0.623 0.078 0.872 0.235s0.444 0.378 0.583 0.663c0.14 0.283 0.21 0.615 0.21 0.996 0 0.375-0.070 0.703-0.21 0.987s-0.334 0.503-0.583 0.66c-0.249 0.157-0.54 0.235-0.872 0.235zM16.137 29.749c0.253 0 0.461-0.064 0.623-0.193s0.282-0.297 0.361-0.506c0.079-0.211 0.118-0.438 0.118-0.679 0-0.246-0.039-0.475-0.118-0.686s-0.199-0.381-0.361-0.51c-0.162-0.131-0.369-0.196-0.623-0.196-0.249 0-0.454 0.065-0.616 0.196-0.162 0.129-0.282 0.298-0.361 0.51s-0.118 0.44-0.118 0.686c0 0.242 0.039 0.468 0.118 0.679 0.079 0.209 0.199 0.378 0.361 0.506s0.367 0.193 0.616 0.193zM20.791 28.090v0.523h-2.019v-0.523h2.019zM18.903 26.522v3.652h-0.557v-3.652h0.557zM21.223 26.522v3.652h-0.564v-3.652h0.564zM22.174 31.539c-0.096 0.002-0.181-0.004-0.256-0.020s-0.127-0.030-0.157-0.046l0.144-0.49 0.056 0.013c0.188 0.044 0.345 0.034 0.472-0.029 0.129-0.061 0.241-0.223 0.337-0.487l0.105-0.287-1.35-3.672h0.61l1.009 2.914h0.039l1.009-2.914h0.61l-1.553 4.181c-0.070 0.19-0.156 0.346-0.259 0.47s-0.222 0.216-0.357 0.274c-0.135 0.061-0.288 0.091-0.459 0.091zM26.585 30.252c-0.341 0-0.636-0.081-0.885-0.242-0.247-0.163-0.438-0.387-0.573-0.67-0.133-0.283-0.2-0.607-0.2-0.97 0-0.372 0.069-0.7 0.206-0.983 0.138-0.285 0.33-0.508 0.577-0.67 0.249-0.161 0.538-0.242 0.868-0.242 0.258 0 0.489 0.048 0.695 0.144 0.207 0.094 0.377 0.227 0.508 0.398 0.133 0.172 0.215 0.372 0.246 0.601h-0.564c-0.028-0.111-0.080-0.216-0.154-0.314s-0.173-0.176-0.295-0.235c-0.12-0.061-0.263-0.091-0.429-0.091-0.218 0-0.41 0.057-0.574 0.17s-0.292 0.273-0.383 0.48c-0.092 0.205-0.138 0.445-0.138 0.722 0 0.281 0.045 0.527 0.134 0.738 0.090 0.209 0.216 0.371 0.38 0.487 0.166 0.115 0.359 0.173 0.58 0.173s0.41-0.057 0.567-0.17c0.157-0.115 0.261-0.272 0.311-0.47h0.564c-0.031 0.216-0.109 0.41-0.236 0.582-0.125 0.172-0.29 0.309-0.495 0.412-0.203 0.1-0.44 0.15-0.711 0.15zM31.002 28.090v0.523h-2.019v-0.523h2.019zM29.115 26.522v3.652h-0.557v-3.652h0.557zM31.435 26.522v3.652h-0.564v-3.652h0.564zM32.713 29.344l1.763-2.822h0.649v3.652h-0.557v-2.822l-1.757 2.822h-0.655v-3.652h0.557v2.822zM36.403 29.344l1.763-2.822h0.649v3.652h-0.557v-2.822l-1.757 2.822h-0.655v-3.652h0.557v2.822zM37.327 26.087c-0.293 0-0.531-0.082-0.714-0.245-0.181-0.165-0.272-0.38-0.272-0.644h0.524c0 0.142 0.043 0.257 0.128 0.346s0.197 0.134 0.334 0.134c0.138 0 0.249-0.045 0.334-0.134s0.128-0.205 0.128-0.346h0.524c0 0.264-0.092 0.478-0.275 0.644-0.181 0.163-0.418 0.245-0.711 0.245zM41.037 29.24h0.596c0.015 0.166 0.092 0.292 0.229 0.379 0.138 0.085 0.317 0.129 0.537 0.131 0.225-0.002 0.417-0.049 0.577-0.14 0.159-0.094 0.24-0.245 0.242-0.454 0-0.122-0.031-0.228-0.092-0.317-0.061-0.092-0.146-0.162-0.255-0.212-0.109-0.052-0.238-0.078-0.387-0.078h-0.629v-0.503h0.629c0.223 0 0.388-0.050 0.495-0.15s0.161-0.226 0.161-0.379c0-0.163-0.058-0.294-0.174-0.392-0.116-0.1-0.281-0.15-0.495-0.15-0.212 0-0.39 0.048-0.534 0.144-0.142 0.094-0.218 0.216-0.226 0.366h-0.59c0.007-0.196 0.067-0.369 0.18-0.519 0.114-0.153 0.269-0.271 0.465-0.356 0.199-0.087 0.425-0.131 0.679-0.131 0.258 0 0.48 0.045 0.668 0.134 0.19 0.089 0.338 0.211 0.443 0.366 0.105 0.152 0.156 0.326 0.154 0.519 0.002 0.205-0.056 0.371-0.174 0.5-0.116 0.126-0.261 0.217-0.436 0.271v0.033c0.138 0.011 0.258 0.056 0.36 0.134 0.105 0.078 0.186 0.181 0.243 0.307 0.057 0.124 0.085 0.262 0.085 0.415 0 0.222-0.060 0.416-0.18 0.581-0.118 0.163-0.281 0.29-0.488 0.379s-0.446 0.135-0.714 0.137c-0.26-0.002-0.493-0.046-0.698-0.131-0.203-0.085-0.365-0.203-0.485-0.353-0.118-0.152-0.18-0.329-0.187-0.529zM45.186 30.259c-0.231 0-0.443-0.044-0.633-0.131-0.19-0.089-0.341-0.218-0.452-0.385s-0.167-0.37-0.167-0.608c0-0.209 0.041-0.378 0.125-0.506 0.083-0.131 0.193-0.233 0.331-0.307 0.14-0.076 0.293-0.133 0.459-0.17 0.168-0.037 0.338-0.066 0.508-0.088 0.223-0.028 0.403-0.050 0.541-0.065 0.14-0.015 0.242-0.041 0.305-0.078 0.066-0.037 0.098-0.1 0.098-0.19v-0.020c0-0.233-0.065-0.414-0.193-0.542-0.127-0.131-0.32-0.196-0.58-0.196-0.266 0-0.476 0.059-0.629 0.176-0.153 0.116-0.26 0.24-0.321 0.372l-0.538-0.189c0.096-0.222 0.224-0.395 0.383-0.519 0.162-0.124 0.337-0.211 0.524-0.261 0.19-0.050 0.377-0.075 0.56-0.075 0.118 0 0.254 0.014 0.406 0.043 0.153 0.026 0.302 0.083 0.446 0.17 0.146 0.085 0.266 0.215 0.36 0.389 0.096 0.172 0.144 0.403 0.144 0.692v2.404h-0.564v-0.497h-0.026c-0.037 0.078-0.1 0.163-0.19 0.255-0.089 0.089-0.208 0.167-0.357 0.232-0.146 0.063-0.327 0.095-0.541 0.095zM45.271 29.756c0.223 0 0.411-0.044 0.564-0.131s0.268-0.199 0.347-0.336c0.078-0.139 0.118-0.284 0.118-0.434v-0.516c-0.024 0.028-0.076 0.054-0.157 0.078-0.079 0.022-0.17 0.041-0.275 0.059-0.103 0.017-0.204 0.033-0.302 0.046-0.098 0.011-0.177 0.020-0.236 0.026-0.146 0.020-0.283 0.051-0.409 0.095-0.127 0.041-0.229 0.103-0.308 0.186-0.077 0.083-0.115 0.196-0.115 0.34 0 0.194 0.072 0.341 0.216 0.441 0.146 0.098 0.332 0.147 0.557 0.147zM49.066 30.252c-0.341 0-0.636-0.081-0.885-0.242-0.247-0.163-0.438-0.387-0.573-0.67-0.133-0.283-0.2-0.607-0.2-0.97 0-0.372 0.069-0.7 0.206-0.983 0.138-0.285 0.33-0.508 0.577-0.67 0.249-0.161 0.539-0.242 0.868-0.242 0.258 0 0.489 0.048 0.695 0.144 0.208 0.094 0.377 0.227 0.508 0.398 0.133 0.172 0.215 0.372 0.246 0.601h-0.564c-0.028-0.111-0.080-0.216-0.154-0.314s-0.172-0.176-0.295-0.235c-0.12-0.061-0.263-0.091-0.429-0.091-0.219 0-0.41 0.057-0.573 0.17s-0.292 0.273-0.383 0.48c-0.092 0.205-0.138 0.445-0.138 0.722 0 0.281 0.045 0.527 0.135 0.738 0.089 0.209 0.216 0.371 0.38 0.487 0.166 0.115 0.359 0.173 0.58 0.173s0.409-0.057 0.567-0.17c0.157-0.115 0.261-0.272 0.311-0.47h0.564c-0.031 0.216-0.109 0.41-0.236 0.582-0.125 0.172-0.289 0.309-0.495 0.412-0.203 0.1-0.44 0.15-0.711 0.15zM50.56 27.044v-0.523h2.969v0.523h-1.199v3.13h-0.564v-3.13h-1.206zM55.332 30.252c-0.33 0-0.619-0.078-0.868-0.235s-0.443-0.377-0.583-0.66c-0.138-0.283-0.206-0.612-0.206-0.987 0-0.381 0.069-0.713 0.206-0.996 0.14-0.285 0.334-0.506 0.583-0.663s0.539-0.235 0.868-0.235c0.332 0 0.623 0.078 0.872 0.235s0.444 0.378 0.583 0.663c0.14 0.283 0.21 0.615 0.21 0.996 0 0.375-0.070 0.703-0.21 0.987s-0.334 0.503-0.583 0.66c-0.249 0.157-0.54 0.235-0.872 0.235zM55.332 29.749c0.253 0 0.461-0.064 0.623-0.193s0.281-0.297 0.36-0.506c0.079-0.211 0.118-0.438 0.118-0.679 0-0.246-0.039-0.475-0.118-0.686s-0.199-0.381-0.36-0.51c-0.162-0.131-0.37-0.196-0.623-0.196-0.249 0-0.454 0.065-0.616 0.196-0.162 0.129-0.282 0.298-0.361 0.51s-0.118 0.44-0.118 0.686c0 0.242 0.039 0.468 0.118 0.679 0.079 0.209 0.199 0.378 0.361 0.506s0.367 0.193 0.616 0.193zM59.022 30.252c-0.341 0-0.636-0.081-0.885-0.242-0.247-0.163-0.438-0.387-0.573-0.67-0.133-0.283-0.2-0.607-0.2-0.97 0-0.372 0.069-0.7 0.206-0.983 0.138-0.285 0.33-0.508 0.577-0.67 0.249-0.161 0.539-0.242 0.869-0.242 0.258 0 0.489 0.048 0.695 0.144 0.208 0.094 0.377 0.227 0.508 0.398 0.133 0.172 0.215 0.372 0.246 0.601h-0.564c-0.028-0.111-0.080-0.216-0.154-0.314s-0.173-0.176-0.295-0.235c-0.12-0.061-0.263-0.091-0.43-0.091-0.219 0-0.41 0.057-0.573 0.17s-0.292 0.273-0.383 0.48c-0.092 0.205-0.138 0.445-0.138 0.722 0 0.281 0.045 0.527 0.134 0.738 0.090 0.209 0.216 0.371 0.38 0.487 0.166 0.115 0.359 0.173 0.58 0.173s0.41-0.057 0.567-0.17c0.157-0.115 0.261-0.272 0.311-0.47h0.564c-0.031 0.216-0.11 0.41-0.236 0.582-0.125 0.172-0.289 0.309-0.495 0.412-0.203 0.1-0.44 0.15-0.711 0.15zM61.224 31.539c-0.096 0.002-0.181-0.004-0.255-0.020s-0.127-0.030-0.157-0.046l0.144-0.49 0.056 0.013c0.188 0.044 0.345 0.034 0.472-0.029 0.129-0.061 0.242-0.223 0.338-0.487l0.105-0.287-1.35-3.672h0.609l1.010 2.914h0.039l1.010-2.914h0.609l-1.553 4.181c-0.070 0.19-0.156 0.346-0.259 0.47s-0.222 0.216-0.357 0.274c-0.135 0.061-0.289 0.091-0.459 0.091zM66.73 28.090v0.523h-2.019v-0.523h2.019zM64.842 26.522v3.652h-0.557v-3.652h0.557zM67.162 26.522v3.652h-0.563v-3.652h0.563zM69.364 30.252c-0.33 0-0.619-0.078-0.868-0.235s-0.443-0.377-0.583-0.66c-0.138-0.283-0.206-0.612-0.206-0.987 0-0.381 0.069-0.713 0.206-0.996 0.14-0.285 0.334-0.506 0.583-0.663s0.539-0.235 0.868-0.235c0.332 0 0.623 0.078 0.872 0.235s0.443 0.378 0.583 0.663c0.14 0.283 0.21 0.615 0.21 0.996 0 0.375-0.070 0.703-0.21 0.987s-0.334 0.503-0.583 0.66c-0.249 0.157-0.54 0.235-0.872 0.235zM69.364 29.749c0.254 0 0.461-0.064 0.623-0.193s0.282-0.297 0.36-0.506c0.079-0.211 0.118-0.438 0.118-0.679 0-0.246-0.039-0.475-0.118-0.686s-0.199-0.381-0.36-0.51c-0.162-0.131-0.369-0.196-0.623-0.196-0.249 0-0.454 0.065-0.616 0.196-0.162 0.129-0.282 0.298-0.361 0.51s-0.118 0.44-0.118 0.686c0 0.242 0.039 0.468 0.118 0.679 0.079 0.209 0.199 0.378 0.361 0.506s0.367 0.193 0.616 0.193zM71.573 30.174v-3.652h0.557v1.588h0.374l1.317-1.588h0.721l-1.474 1.764 1.494 1.888h-0.721l-1.206-1.542h-0.505v1.542h-0.557z"></path>
<path fill="#77798e" d="M7.504 3.74l3.457-0.492v13.99c0 1.329-0.489 2.402-1.467 3.218-0.986 0.824-2.297 1.237-3.934 1.237-1.467 0-2.672-0.311-3.616-0.934-0.945-0.614-1.495-1.473-1.65-2.575-0.033-0.26-0.049-0.67-0.044-0.858h3.419c0 0 0.004 0.097 0.008 0.207 0.011 0.246 0.077 0.489 0.205 0.696 0.298 0.482 0.845 0.724 1.641 0.724 0.594 0 1.071-0.177 1.429-0.53 0.35-0.353 0.525-0.812 0.525-1.375v-2.752h-0.208c-0.237 0.623-0.656 1.115-1.259 1.476-0.619 0.37-1.307 0.556-2.065 0.556-1.165 0-2.113-0.387-2.847-1.161s-1.099-1.792-1.099-3.054v-4.417c0-1.262 0.366-2.28 1.099-3.054s1.686-1.161 2.859-1.161c0.806 0 1.498 0.194 2.077 0.581 0.587 0.387 1.006 0.896 1.259 1.527h0.208v-1.848l0.003-0.001zM5.439 12.984c0.603 0 1.091-0.181 1.467-0.543s0.562-0.816 0.562-1.363v-2.297c0-0.53-0.188-0.976-0.562-1.338s-0.863-0.542-1.467-0.542-1.059 0.172-1.418 0.517c-0.358 0.345-0.538 0.808-0.538 1.388v2.247c0 0.589 0.179 1.069 0.538 1.414s0.831 0.517 1.418 0.517z"></path>
<path fill="#77798e" d="M16.187 11.438l0.008 0.857c0.006 0.582 0.211 1.044 0.613 1.389s0.925 0.513 1.569 0.506c0.949-0.010 1.568-0.303 1.858-0.881 0.143-0.317 0.167-0.572 0.167-0.572l2.745 0.002c0.245-0.003 0.841-0.003 0.841-0.003-0.027 0.363-0.047 0.524-0.078 0.757-0.149 1.081-0.719 1.948-1.711 2.598-0.975 0.642-2.198 0.971-3.748 0.989-1.754 0.020-3.165-0.435-4.235-1.361s-1.613-2.167-1.631-3.72l-0.035-3.065c-0.018-1.561 0.489-2.813 1.521-3.755 1.039-0.95 2.423-1.434 4.151-1.454s3.114 0.444 4.159 1.387c1.053 0.953 1.589 2.205 1.606 3.758v2.567l-7.8 0.001zM18.242 6.626h-0.012c-0.61 0.006-1.107 0.182-1.493 0.527-0.377 0.337-0.563 0.762-0.557 1.343l0.008 0.647h4.13l-0.007-0.646c-0.007-0.581-0.198-1.041-0.575-1.377s-0.874-0.501-1.492-0.495l-0.001 0.001z"></path>
<path fill="#77798e" d="M33.363 7.769v-3.21h-2.868l0.002-0.524v-3.172l-3.486 0.485v3.211h-2.385v3.21h2.208v5.501c0 1.101 0.362 1.983 1.085 2.646 0.732 0.672 1.694 1.008 2.885 1.008h1.786v-3.326h-0.778c-0.425 0-0.753-0.118-0.983-0.353-0.229-0.243-0.345-0.558-0.345-0.945v-4.531l2.879-0.001z"></path>
<path fill="#77798e" d="M49.127 3.74l3.457-0.492v13.99c0 1.329-0.489 2.402-1.467 3.218-0.986 0.824-2.297 1.237-3.934 1.237-1.467 0-2.672-0.311-3.616-0.934-0.945-0.614-1.495-1.473-1.65-2.575-0.033-0.26-0.049-0.67-0.044-0.858h3.42c0 0 0.003 0.097 0.008 0.207 0.011 0.246 0.077 0.489 0.205 0.696 0.298 0.482 0.845 0.724 1.641 0.724 0.594 0 1.071-0.177 1.43-0.53 0.35-0.353 0.525-0.812 0.525-1.375v-2.752h-0.208c-0.237 0.623-0.656 1.115-1.259 1.476-0.619 0.37-1.307 0.556-2.065 0.556-1.164 0-2.113-0.387-2.847-1.161s-1.099-1.792-1.099-3.054v-4.417c0-1.262 0.366-2.28 1.099-3.054s1.686-1.161 2.859-1.161c0.806 0 1.498 0.194 2.077 0.581 0.587 0.387 1.005 0.896 1.259 1.527h0.208v-1.848l0.002-0.001zM47.063 12.984c0.603 0 1.091-0.181 1.467-0.543s0.562-0.816 0.562-1.363v-2.297c0-0.53-0.188-0.976-0.562-1.338s-0.863-0.542-1.467-0.542-1.059 0.172-1.417 0.517c-0.358 0.345-0.538 0.808-0.538 1.388v2.247c0 0.589 0.179 1.069 0.538 1.414s0.831 0.517 1.417 0.517z"></path>
<path fill="#77798e" d="M57.81 11.438l0.008 0.857c0.007 0.582 0.211 1.044 0.613 1.389s0.925 0.513 1.568 0.506c0.949-0.010 1.568-0.303 1.859-0.881 0.143-0.317 0.167-0.572 0.167-0.572l2.745 0.002c0.245-0.003 0.841-0.003 0.841-0.003-0.028 0.363-0.047 0.524-0.078 0.757-0.149 1.081-0.719 1.948-1.711 2.598-0.976 0.642-2.198 0.971-3.748 0.989-1.754 0.020-3.165-0.435-4.235-1.361s-1.613-2.167-1.631-3.72l-0.035-3.065c-0.018-1.561 0.489-2.813 1.521-3.755 1.039-0.95 2.423-1.434 4.152-1.454s3.114 0.444 4.159 1.387c1.053 0.953 1.589 2.205 1.605 3.758v2.567l-7.8 0.001zM59.864 6.626h-0.012c-0.61 0.006-1.108 0.182-1.493 0.527-0.378 0.337-0.563 0.762-0.557 1.343l0.008 0.647h4.13l-0.007-0.646c-0.007-0.581-0.198-1.041-0.574-1.377s-0.875-0.501-1.492-0.495l-0.001 0.001z"></path>
<path fill="#77798e" d="M74.668 7.769v-3.21h-2.764l0.002-0.524v-3.172l-3.36 0.485v3.211h-2.298v3.21h2.128v5.501c0 1.101 0.349 1.983 1.046 2.646 0.705 0.672 1.632 1.008 2.78 1.008h1.722v-3.325h-0.75c-0.41 0-0.726-0.118-0.947-0.353-0.221-0.243-0.333-0.558-0.333-0.945v-4.531l2.774-0.001z"></path>
</svg>
