<svg width="105" height="102" viewBox="0 0 105 102" fill="none" xmlns="http://www.w3.org/2000/svg">
<g clip-path="url(#clip0_6256_1873)">
<path d="M93.1481 48.3001C96.6336 48.3001 99.459 45.9105 99.459 42.9631V12.9839H46.7699C43.2845 12.9839 40.459 15.3734 40.459 18.3209V52.8309V52.9839H40.462C40.46 52.9332 40.459 52.8821 40.459 52.8309C40.459 50.3287 42.8577 48.3001 45.8167 48.3001H93.1481Z" fill="url(#paint0_linear_6256_1873)"/>
<path d="M93.1481 48.3001C96.6336 48.3001 99.459 45.9105 99.459 42.9631V12.9839H46.7699C43.2845 12.9839 40.459 15.3734 40.459 18.3209V52.8309V52.9839H40.462C40.46 52.9332 40.459 52.8821 40.459 52.8309C40.459 50.3287 42.8577 48.3001 45.8167 48.3001H93.1481Z" fill="url(#paint1_linear_6256_1873)"/>
<path d="M99.459 12.9839V42.6946C99.459 45.6157 96.6674 47.9839 93.2237 47.9839H46.459V13.0438C46.7661 13.0044 47.0806 12.9839 47.4008 12.9839H99.459Z" fill="url(#paint2_radial_6256_1873)"/>
<path d="M99.459 12.9839V42.6946C99.459 45.6157 96.6674 47.9839 93.2237 47.9839H46.459V13.0438C46.7661 13.0044 47.0806 12.9839 47.4008 12.9839H99.459Z" fill="url(#paint3_radial_6256_1873)"/>
<path d="M99.459 12.9839V42.6946C99.459 45.6157 96.6674 47.9839 93.2237 47.9839H46.459V13.0438C46.7661 13.0044 47.0806 12.9839 47.4008 12.9839H99.459Z" fill="url(#paint4_radial_6256_1873)"/>
<path d="M99.459 12.9839V42.6946C99.459 45.6157 96.6674 47.9839 93.2237 47.9839H46.459V13.0438C46.7661 13.0044 47.0806 12.9839 47.4008 12.9839H99.459Z" fill="url(#paint5_radial_6256_1873)"/>
<path d="M99.459 12.9839V42.6946C99.459 45.6157 96.6674 47.9839 93.2237 47.9839H46.459V13.0438C46.7661 13.0044 47.0806 12.9839 47.4008 12.9839H99.459Z" fill="url(#paint6_linear_6256_1873)"/>
<path d="M99.459 12.9839V42.6946C99.459 45.6157 96.6674 47.9839 93.2237 47.9839H46.459V13.0438C46.7661 13.0044 47.0806 12.9839 47.4008 12.9839H99.459Z" fill="url(#paint7_linear_6256_1873)"/>
<path d="M99.459 12.9839V42.6946C99.459 45.6157 96.6674 47.9839 93.2237 47.9839H46.459V13.0438C46.7661 13.0044 47.0806 12.9839 47.4008 12.9839H99.459Z" fill="url(#paint8_linear_6256_1873)"/>
<path d="M99.459 12.9839V42.6946C99.459 45.6157 96.6674 47.9839 93.2237 47.9839H46.459V13.0438C46.7661 13.0044 47.0806 12.9839 47.4008 12.9839H99.459Z" fill="url(#paint9_linear_6256_1873)"/>
<path d="M99.459 12.9839V42.6946C99.459 45.6157 96.6674 47.9839 93.2237 47.9839H46.459V13.0438C46.7661 13.0044 47.0806 12.9839 47.4008 12.9839H99.459Z" fill="url(#paint10_linear_6256_1873)"/>
<path d="M99.459 12.9839V42.6946C99.459 45.6157 96.6674 47.9839 93.2237 47.9839H46.459V13.0438C46.7661 13.0044 47.0806 12.9839 47.4008 12.9839H99.459Z" fill="url(#paint11_linear_6256_1873)"/>
<path d="M99.459 12.9839V42.6946C99.459 45.6157 96.6674 47.9839 93.2237 47.9839H46.459V13.0438C46.7661 13.0044 47.0806 12.9839 47.4008 12.9839H99.459Z" fill="url(#paint12_linear_6256_1873)"/>
<path d="M99.459 12.9839V42.6946C99.459 45.6157 96.6674 47.9839 93.2237 47.9839H46.459V13.0438C46.7661 13.0044 47.0806 12.9839 47.4008 12.9839H99.459Z" fill="url(#paint13_linear_6256_1873)"/>
<path d="M99.459 12.9839V42.6946C99.459 45.6157 96.6674 47.9839 93.2237 47.9839H46.459V13.0438C46.7661 13.0044 47.0806 12.9839 47.4008 12.9839H99.459Z" fill="url(#paint14_linear_6256_1873)"/>
<path d="M99.459 12.9839V42.6946C99.459 45.6157 96.6674 47.9839 93.2237 47.9839H46.459V13.0438C46.7661 13.0044 47.0806 12.9839 47.4008 12.9839H99.459Z" fill="url(#paint15_linear_6256_1873)"/>
<path d="M99.459 12.9839V42.6946C99.459 45.6157 96.6674 47.9839 93.2237 47.9839H46.459V13.0438C46.7661 13.0044 47.0806 12.9839 47.4008 12.9839H99.459Z" fill="url(#paint16_linear_6256_1873)"/>
<path d="M99.459 12.9839V42.6946C99.459 45.6157 96.6674 47.9839 93.2237 47.9839H46.459V13.0438C46.7661 13.0044 47.0806 12.9839 47.4008 12.9839H99.459Z" fill="url(#paint17_linear_6256_1873)" fill-opacity="0.76"/>
<path d="M99.459 12.9839V42.6946C99.459 45.6157 96.6674 47.9839 93.2237 47.9839H46.459V13.0438C46.7661 13.0044 47.0806 12.9839 47.4008 12.9839H99.459Z" fill="url(#paint18_radial_6256_1873)" fill-opacity="0.79"/>
<path d="M99.459 12.9839V42.6946C99.459 45.6157 96.6674 47.9839 93.2237 47.9839H46.459V13.0438C46.7661 13.0044 47.0806 12.9839 47.4008 12.9839H99.459Z" fill="url(#paint19_radial_6256_1873)" fill-opacity="0.44"/>
<path d="M99.459 12.9839V42.6946C99.459 45.6157 96.6674 47.9839 93.2237 47.9839H46.459V13.0438C46.7661 13.0044 47.0806 12.9839 47.4008 12.9839H99.459Z" fill="url(#paint20_linear_6256_1873)"/>
<path d="M99.459 12.9839V42.6946C99.459 45.6157 96.6674 47.9839 93.2237 47.9839H46.459V13.0438C46.7661 13.0044 47.0806 12.9839 47.4008 12.9839H99.459Z" fill="url(#paint21_linear_6256_1873)"/>
<path d="M99.459 12.9839V42.6946C99.459 45.6157 96.6674 47.9839 93.2237 47.9839H46.459V13.0438C46.7661 13.0044 47.0806 12.9839 47.4008 12.9839H99.459Z" fill="url(#paint22_radial_6256_1873)"/>
<path d="M40.459 56.5072C40.459 58.9687 42.4545 60.9643 44.916 60.9643H46.1492C46.2459 60.9643 46.3242 60.886 46.3242 60.7893V52.0503H44.916C42.4545 52.0503 40.459 54.0458 40.459 56.5072Z" fill="url(#paint23_radial_6256_1873)"/>
<path d="M40.459 56.5072C40.459 58.9687 42.4545 60.9643 44.916 60.9643H46.1492C46.2459 60.9643 46.3242 60.886 46.3242 60.7893V52.0503H44.916C42.4545 52.0503 40.459 54.0458 40.459 56.5072Z" fill="url(#paint24_radial_6256_1873)"/>
<path d="M40.459 56.5072C40.459 58.9687 42.4545 60.9643 44.916 60.9643H46.1492C46.2459 60.9643 46.3242 60.886 46.3242 60.7893V52.0503H44.916C42.4545 52.0503 40.459 54.0458 40.459 56.5072Z" fill="url(#paint25_radial_6256_1873)"/>
<path d="M40.459 56.5072C40.459 58.9687 42.4545 60.9643 44.916 60.9643H46.1492C46.2459 60.9643 46.3242 60.886 46.3242 60.7893V52.0503H44.916C42.4545 52.0503 40.459 54.0458 40.459 56.5072Z" fill="url(#paint26_radial_6256_1873)"/>
<path d="M40.459 56.5072C40.459 58.9687 42.4545 60.9643 44.916 60.9643H46.1492C46.2459 60.9643 46.3242 60.886 46.3242 60.7893V52.0503H44.916C42.4545 52.0503 40.459 54.0458 40.459 56.5072Z" fill="url(#paint27_radial_6256_1873)"/>
<path d="M40.459 56.5072C40.459 58.9687 42.4545 60.9643 44.916 60.9643H46.1492C46.2459 60.9643 46.3242 60.886 46.3242 60.7893V52.0503H44.916C42.4545 52.0503 40.459 54.0458 40.459 56.5072Z" fill="url(#paint28_radial_6256_1873)" fill-opacity="0.66"/>
<path d="M40.459 56.5072C40.459 58.9687 42.4545 60.9643 44.916 60.9643H46.1492C46.2459 60.9643 46.3242 60.886 46.3242 60.7893V52.0503H44.916C42.4545 52.0503 40.459 54.0458 40.459 56.5072Z" fill="url(#paint29_radial_6256_1873)" fill-opacity="0.66"/>
<path d="M40.459 56.5072C40.459 58.9687 42.4545 60.9643 44.916 60.9643H46.1492C46.2459 60.9643 46.3242 60.886 46.3242 60.7893V52.0503H44.916C42.4545 52.0503 40.459 54.0458 40.459 56.5072Z" fill="url(#paint30_radial_6256_1873)" fill-opacity="0.66"/>
<path d="M40.459 56.658V56.5075V50.1548H44.916V52.0506C42.4545 52.0506 40.459 54.0461 40.459 56.5075C40.459 56.5579 40.4598 56.6081 40.4615 56.658H40.459Z" fill="url(#paint31_radial_6256_1873)"/>
<path d="M40.459 56.658V56.5075V50.1548H44.916V52.0506C42.4545 52.0506 40.459 54.0461 40.459 56.5075C40.459 56.5579 40.4598 56.6081 40.4615 56.658H40.459Z" fill="url(#paint32_radial_6256_1873)"/>
<path d="M40.459 56.658V56.5075V50.1548H44.916V52.0506C42.4545 52.0506 40.459 54.0461 40.459 56.5075C40.459 56.5579 40.4598 56.6081 40.4615 56.658H40.459Z" fill="url(#paint33_radial_6256_1873)"/>
<path d="M40.459 56.658V56.5075V50.1548H44.916V52.0506C42.4545 52.0506 40.459 54.0461 40.459 56.5075C40.459 56.5579 40.4598 56.6081 40.4615 56.658H40.459Z" fill="url(#paint34_radial_6256_1873)"/>
<path d="M40.459 56.658V56.5075V50.1548H44.916V52.0506C42.4545 52.0506 40.459 54.0461 40.459 56.5075C40.459 56.5579 40.4598 56.6081 40.4615 56.658H40.459Z" fill="url(#paint35_radial_6256_1873)"/>
<path d="M96.8272 80.3001C100.49 80.3001 103.459 77.9105 103.459 74.9631V44.9839H48.0907C44.4281 44.9839 41.459 47.3735 41.459 50.3209V84.8309V84.9839H41.4621C41.46 84.9332 41.459 84.8821 41.459 84.8309C41.459 82.3287 43.9797 80.3001 47.0891 80.3001H96.8272Z" fill="url(#paint36_linear_6256_1873)"/>
<path d="M96.8272 80.3001C100.49 80.3001 103.459 77.9105 103.459 74.9631V44.9839H48.0907C44.4281 44.9839 41.459 47.3735 41.459 50.3209V84.8309V84.9839H41.4621C41.46 84.9332 41.459 84.8821 41.459 84.8309C41.459 82.3287 43.9797 80.3001 47.0891 80.3001H96.8272Z" fill="url(#paint37_linear_6256_1873)"/>
<path d="M96.8272 80.3001C100.49 80.3001 103.459 77.9105 103.459 74.9631V44.9839H48.0907C44.4281 44.9839 41.459 47.3735 41.459 50.3209V84.8309V84.9839H41.4621C41.46 84.9332 41.459 84.8821 41.459 84.8309C41.459 82.3287 43.9797 80.3001 47.0891 80.3001H96.8272Z" fill="url(#paint38_linear_6256_1873)"/>
<path d="M96.8272 80.3001C100.49 80.3001 103.459 77.9105 103.459 74.9631V44.9839H48.0907C44.4281 44.9839 41.459 47.3735 41.459 50.3209V84.8309V84.9839H41.4621C41.46 84.9332 41.459 84.8821 41.459 84.8309C41.459 82.3287 43.9797 80.3001 47.0891 80.3001H96.8272Z" fill="url(#paint39_radial_6256_1873)"/>
<path d="M96.8272 80.3001C100.49 80.3001 103.459 77.9105 103.459 74.9631V44.9839H48.0907C44.4281 44.9839 41.459 47.3735 41.459 50.3209V84.8309V84.9839H41.4621C41.46 84.9332 41.459 84.8821 41.459 84.8309C41.459 82.3287 43.9797 80.3001 47.0891 80.3001H96.8272Z" fill="url(#paint40_radial_6256_1873)"/>
<path d="M96.8272 80.3001C100.49 80.3001 103.459 77.9105 103.459 74.9631V44.9839H48.0907C44.4281 44.9839 41.459 47.3735 41.459 50.3209V84.8309V84.9839H41.4621C41.46 84.9332 41.459 84.8821 41.459 84.8309C41.459 82.3287 43.9797 80.3001 47.0891 80.3001H96.8272Z" fill="url(#paint41_linear_6256_1873)"/>
<path d="M96.8272 80.3001C100.49 80.3001 103.459 77.9105 103.459 74.9631V44.9839H48.0907C44.4281 44.9839 41.459 47.3735 41.459 50.3209V84.8309V84.9839H41.4621C41.46 84.9332 41.459 84.8821 41.459 84.8309C41.459 82.3287 43.9797 80.3001 47.0891 80.3001H96.8272Z" fill="url(#paint42_linear_6256_1873)" fill-opacity="0.76"/>
<path d="M96.8272 80.3001C100.49 80.3001 103.459 77.9105 103.459 74.9631V44.9839H48.0907C44.4281 44.9839 41.459 47.3735 41.459 50.3209V84.8309V84.9839H41.4621C41.46 84.9332 41.459 84.8821 41.459 84.8309C41.459 82.3287 43.9797 80.3001 47.0891 80.3001H96.8272Z" fill="url(#paint43_radial_6256_1873)" fill-opacity="0.79"/>
<path d="M96.8272 80.3001C100.49 80.3001 103.459 77.9105 103.459 74.9631V44.9839H48.0907C44.4281 44.9839 41.459 47.3735 41.459 50.3209V84.8309V84.9839H41.4621C41.46 84.9332 41.459 84.8821 41.459 84.8309C41.459 82.3287 43.9797 80.3001 47.0891 80.3001H96.8272Z" fill="url(#paint44_radial_6256_1873)" fill-opacity="0.44"/>
<path d="M103.459 44.9839V74.6946C103.459 77.6157 100.509 79.9839 96.8707 79.9839H47.459V45.0438C47.7835 45.0043 48.1158 44.9839 48.4541 44.9839H103.459Z" fill="url(#paint45_linear_6256_1873)"/>
<path d="M103.459 44.9839V74.6946C103.459 77.6157 100.509 79.9839 96.8707 79.9839H47.459V45.0438C47.7835 45.0043 48.1158 44.9839 48.4541 44.9839H103.459Z" fill="url(#paint46_linear_6256_1873)"/>
<path d="M103.459 44.9839V74.6946C103.459 77.6157 100.509 79.9839 96.8707 79.9839H47.459V45.0438C47.7835 45.0043 48.1158 44.9839 48.4541 44.9839H103.459Z" fill="url(#paint47_linear_6256_1873)"/>
<path d="M103.459 44.9839V74.6946C103.459 77.6157 100.509 79.9839 96.8707 79.9839H47.459V45.0438C47.7835 45.0043 48.1158 44.9839 48.4541 44.9839H103.459Z" fill="url(#paint48_linear_6256_1873)"/>
<path d="M103.459 44.9839V74.6946C103.459 77.6157 100.509 79.9839 96.8707 79.9839H47.459V45.0438C47.7835 45.0043 48.1158 44.9839 48.4541 44.9839H103.459Z" fill="url(#paint49_linear_6256_1873)"/>
<path d="M103.459 44.9839V74.6946C103.459 77.6157 100.509 79.9839 96.8707 79.9839H47.459V45.0438C47.7835 45.0043 48.1158 44.9839 48.4541 44.9839H103.459Z" fill="url(#paint50_linear_6256_1873)"/>
<path d="M103.459 44.9839V74.6946C103.459 77.6157 100.509 79.9839 96.8707 79.9839H47.459V45.0438C47.7835 45.0043 48.1158 44.9839 48.4541 44.9839H103.459Z" fill="url(#paint51_linear_6256_1873)"/>
<path d="M103.459 44.9839V74.6946C103.459 77.6157 100.509 79.9839 96.8707 79.9839H47.459V45.0438C47.7835 45.0043 48.1158 44.9839 48.4541 44.9839H103.459Z" fill="url(#paint52_linear_6256_1873)"/>
<path d="M103.459 44.9839V74.6946C103.459 77.6157 100.509 79.9839 96.8707 79.9839H47.459V45.0438C47.7835 45.0043 48.1158 44.9839 48.4541 44.9839H103.459Z" fill="url(#paint53_linear_6256_1873)"/>
<path d="M103.459 44.9839V74.6946C103.459 77.6157 100.509 79.9839 96.8707 79.9839H47.459V45.0438C47.7835 45.0043 48.1158 44.9839 48.4541 44.9839H103.459Z" fill="url(#paint54_linear_6256_1873)"/>
<path d="M103.459 44.9839V74.6946C103.459 77.6157 100.509 79.9839 96.8707 79.9839H47.459V45.0438C47.7835 45.0043 48.1158 44.9839 48.4541 44.9839H103.459Z" fill="url(#paint55_linear_6256_1873)"/>
<path d="M103.459 44.9839V74.6946C103.459 77.6157 100.509 79.9839 96.8707 79.9839H47.459V45.0438C47.7835 45.0043 48.1158 44.9839 48.4541 44.9839H103.459Z" fill="url(#paint56_linear_6256_1873)" fill-opacity="0.76"/>
<path d="M103.459 44.9839V74.6946C103.459 77.6157 100.509 79.9839 96.8707 79.9839H47.459V45.0438C47.7835 45.0043 48.1158 44.9839 48.4541 44.9839H103.459Z" fill="url(#paint57_radial_6256_1873)" fill-opacity="0.79"/>
<path d="M103.459 44.9839V74.6946C103.459 77.6157 100.509 79.9839 96.8707 79.9839H47.459V45.0438C47.7835 45.0043 48.1158 44.9839 48.4541 44.9839H103.459Z" fill="url(#paint58_radial_6256_1873)" fill-opacity="0.44"/>
<path d="M103.459 44.9839V72.9839C103.459 77.4839 100.509 79.9839 96.8707 79.9839H47.459V45.0438C47.7835 45.0043 48.1158 44.9839 48.4541 44.9839H103.459Z" fill="url(#paint59_radial_6256_1873)"/>
<path d="M103.459 44.9839V72.9839C103.459 77.4839 100.509 79.9839 96.8707 79.9839H47.459V45.0438C47.7835 45.0043 48.1158 44.9839 48.4541 44.9839H103.459Z" fill="url(#paint60_radial_6256_1873)"/>
<path d="M40.459 84.5072C40.459 86.9687 42.4545 88.9643 44.916 88.9643H46.1492C46.2459 88.9643 46.3242 88.886 46.3242 88.7893V80.0503H44.916C42.4545 80.0503 40.459 82.0458 40.459 84.5072Z" fill="url(#paint61_radial_6256_1873)"/>
<path d="M40.459 84.5072C40.459 86.9687 42.4545 88.9643 44.916 88.9643H46.1492C46.2459 88.9643 46.3242 88.886 46.3242 88.7893V80.0503H44.916C42.4545 80.0503 40.459 82.0458 40.459 84.5072Z" fill="url(#paint62_radial_6256_1873)"/>
<path d="M40.459 84.5072C40.459 86.9687 42.4545 88.9643 44.916 88.9643H46.1492C46.2459 88.9643 46.3242 88.886 46.3242 88.7893V80.0503H44.916C42.4545 80.0503 40.459 82.0458 40.459 84.5072Z" fill="url(#paint63_radial_6256_1873)"/>
<path d="M40.459 84.5072C40.459 86.9687 42.4545 88.9643 44.916 88.9643H46.1492C46.2459 88.9643 46.3242 88.886 46.3242 88.7893V80.0503H44.916C42.4545 80.0503 40.459 82.0458 40.459 84.5072Z" fill="url(#paint64_radial_6256_1873)"/>
<path d="M40.459 84.5072C40.459 86.9687 42.4545 88.9643 44.916 88.9643H46.1492C46.2459 88.9643 46.3242 88.886 46.3242 88.7893V80.0503H44.916C42.4545 80.0503 40.459 82.0458 40.459 84.5072Z" fill="url(#paint65_radial_6256_1873)"/>
<path d="M40.459 84.5072C40.459 86.9687 42.4545 88.9643 44.916 88.9643H46.1492C46.2459 88.9643 46.3242 88.886 46.3242 88.7893V80.0503H44.916C42.4545 80.0503 40.459 82.0458 40.459 84.5072Z" fill="url(#paint66_radial_6256_1873)" fill-opacity="0.66"/>
<path d="M40.459 84.5072C40.459 86.9687 42.4545 88.9643 44.916 88.9643H46.1492C46.2459 88.9643 46.3242 88.886 46.3242 88.7893V80.0503H44.916C42.4545 80.0503 40.459 82.0458 40.459 84.5072Z" fill="url(#paint67_radial_6256_1873)" fill-opacity="0.66"/>
<path d="M40.459 84.5072C40.459 86.9687 42.4545 88.9643 44.916 88.9643H46.1492C46.2459 88.9643 46.3242 88.886 46.3242 88.7893V80.0503H44.916C42.4545 80.0503 40.459 82.0458 40.459 84.5072Z" fill="url(#paint68_radial_6256_1873)" fill-opacity="0.66"/>
<path d="M40.459 84.658V84.5075V78.1548H44.916V80.0506C42.4545 80.0506 40.459 82.0461 40.459 84.5075C40.459 84.5579 40.4598 84.6081 40.4615 84.658H40.459Z" fill="url(#paint69_radial_6256_1873)"/>
<path d="M40.459 84.658V84.5075V78.1548H44.916V80.0506C42.4545 80.0506 40.459 82.0461 40.459 84.5075C40.459 84.5579 40.4598 84.6081 40.4615 84.658H40.459Z" fill="url(#paint70_radial_6256_1873)"/>
<path d="M40.459 84.658V84.5075V78.1548H44.916V80.0506C42.4545 80.0506 40.459 82.0461 40.459 84.5075C40.459 84.5579 40.4598 84.6081 40.4615 84.658H40.459Z" fill="url(#paint71_radial_6256_1873)"/>
<path d="M40.459 84.658V84.5075V78.1548H44.916V80.0506C42.4545 80.0506 40.459 82.0461 40.459 84.5075C40.459 84.5579 40.4598 84.6081 40.4615 84.658H40.459Z" fill="url(#paint72_radial_6256_1873)"/>
<path d="M40.459 84.658V84.5075V78.1548H44.916V80.0506C42.4545 80.0506 40.459 82.0461 40.459 84.5075C40.459 84.5579 40.4598 84.6081 40.4615 84.658H40.459Z" fill="url(#paint73_radial_6256_1873)"/>
<path d="M40.459 50.5601C40.459 47.6607 42.8095 45.3101 45.709 45.3101H47.2856V59.7735H40.459V50.5601Z" fill="url(#paint74_radial_6256_1873)"/>
<path d="M40.459 50.5601C40.459 47.6607 42.8095 45.3101 45.709 45.3101H47.2856V59.7735H40.459V50.5601Z" fill="url(#paint75_radial_6256_1873)"/>
<path d="M40.459 50.5601C40.459 47.6607 42.8095 45.3101 45.709 45.3101H47.2856V59.7735H40.459V50.5601Z" fill="url(#paint76_radial_6256_1873)"/>
<path d="M40.459 50.5601C40.459 47.6607 42.8095 45.3101 45.709 45.3101H47.2856V59.7735H40.459V50.5601Z" fill="url(#paint77_radial_6256_1873)"/>
<path d="M40.459 50.5601C40.459 47.6607 42.8095 45.3101 45.709 45.3101H47.2856V59.7735H40.459V50.5601Z" fill="url(#paint78_radial_6256_1873)"/>
<path d="M40.459 50.5601C40.459 47.6607 42.8095 45.3101 45.709 45.3101H47.2856V59.7735H40.459V50.5601Z" fill="url(#paint79_radial_6256_1873)"/>
<path d="M40.459 50.5601C40.459 47.6607 42.8095 45.3101 45.709 45.3101H47.2856V59.7735H40.459V50.5601Z" fill="url(#paint80_radial_6256_1873)"/>
<path d="M95.541 37.1668C95.541 37.0659 95.6708 36.9839 95.8306 36.9839C100.089 36.9841 103.541 39.1646 103.541 41.8543V70.9839C103.541 68.139 100.726 65.867 96.2732 65.7373L96.276 65.7304H96.2405C95.8541 65.7304 95.541 65.5324 95.541 65.2885V37.1668Z" fill="url(#paint81_linear_6256_1873)"/>
<path d="M95.541 37.1668C95.541 37.0659 95.6708 36.9839 95.8306 36.9839C100.089 36.9841 103.541 39.1646 103.541 41.8543V70.9839C103.541 68.139 100.726 65.867 96.2732 65.7373L96.276 65.7304H96.2405C95.8541 65.7304 95.541 65.5324 95.541 65.2885V37.1668Z" fill="url(#paint82_linear_6256_1873)"/>
<path d="M95.541 37.1668C95.541 37.0659 95.6708 36.9839 95.8306 36.9839C100.089 36.9841 103.541 39.1646 103.541 41.8543V70.9839C103.541 68.139 100.726 65.867 96.2732 65.7373L96.276 65.7304H96.2405C95.8541 65.7304 95.541 65.5324 95.541 65.2885V37.1668Z" fill="url(#paint83_linear_6256_1873)" fill-opacity="0.61"/>
<path d="M95.541 37.1668C95.541 37.0659 95.6708 36.9839 95.8306 36.9839C100.089 36.9841 103.541 39.1646 103.541 41.8543V70.9839C103.541 68.139 100.726 65.867 96.2732 65.7373L96.276 65.7304H96.2405C95.8541 65.7304 95.541 65.5324 95.541 65.2885V37.1668Z" fill="url(#paint84_linear_6256_1873)" fill-opacity="0.61"/>
<path d="M95.541 37.1668C95.541 37.0659 95.6708 36.9839 95.8306 36.9839C100.089 36.9841 103.541 39.1646 103.541 41.8543V70.9839C103.541 68.139 100.726 65.867 96.2732 65.7373L96.276 65.7304H96.2405C95.8541 65.7304 95.541 65.5324 95.541 65.2885V37.1668Z" fill="url(#paint85_linear_6256_1873)" fill-opacity="0.61"/>
<path d="M95.541 37.1668C95.541 37.0659 95.6708 36.9839 95.8306 36.9839C100.089 36.9841 103.541 39.1646 103.541 41.8543V70.9839C103.541 68.139 100.726 65.867 96.2732 65.7373L96.276 65.7304H96.2405C95.8541 65.7304 95.541 65.5324 95.541 65.2885V37.1668Z" fill="url(#paint86_linear_6256_1873)" fill-opacity="0.61"/>
<path d="M95.541 37.1668C95.541 37.0659 95.6708 36.9839 95.8306 36.9839C100.089 36.9841 103.541 39.1646 103.541 41.8543V70.9839C103.541 68.139 100.726 65.867 96.2732 65.7373L96.276 65.7304H96.2405C95.8541 65.7304 95.541 65.5324 95.541 65.2885V37.1668Z" fill="url(#paint87_linear_6256_1873)" fill-opacity="0.61"/>
<path d="M95.541 37.1668C95.541 37.0659 95.6708 36.9839 95.8306 36.9839C100.089 36.9841 103.541 39.1646 103.541 41.8543V70.9839C103.541 68.139 100.726 65.867 96.2732 65.7373L96.276 65.7304H96.2405C95.8541 65.7304 95.541 65.5324 95.541 65.2885V37.1668Z" fill="url(#paint88_linear_6256_1873)" fill-opacity="0.61"/>
<path d="M95.541 37.1668C95.541 37.0659 95.6708 36.9839 95.8306 36.9839C100.089 36.9841 103.541 39.1646 103.541 41.8543V70.9839C103.541 68.139 100.726 65.867 96.2732 65.7373L96.276 65.7304H96.2405C95.8541 65.7304 95.541 65.5324 95.541 65.2885V37.1668Z" fill="url(#paint89_linear_6256_1873)"/>
<path d="M95.541 9.16684C95.541 9.06593 95.6708 8.98389 95.8306 8.98389C100.089 8.98405 103.541 11.1646 103.541 13.8544V42.9839C103.541 40.139 100.726 37.867 96.2732 37.7373L96.276 37.7304H96.2405C95.8541 37.7304 95.541 37.5324 95.541 37.2885V9.16684Z" fill="url(#paint90_linear_6256_1873)"/>
<path d="M95.541 9.16684C95.541 9.06593 95.6708 8.98389 95.8306 8.98389C100.089 8.98405 103.541 11.1646 103.541 13.8544V42.9839C103.541 40.139 100.726 37.867 96.2732 37.7373L96.276 37.7304H96.2405C95.8541 37.7304 95.541 37.5324 95.541 37.2885V9.16684Z" fill="url(#paint91_linear_6256_1873)"/>
<path d="M95.541 9.16684C95.541 9.06593 95.6708 8.98389 95.8306 8.98389C100.089 8.98405 103.541 11.1646 103.541 13.8544V42.9839C103.541 40.139 100.726 37.867 96.2732 37.7373L96.276 37.7304H96.2405C95.8541 37.7304 95.541 37.5324 95.541 37.2885V9.16684Z" fill="url(#paint92_linear_6256_1873)" fill-opacity="0.61"/>
<path d="M95.541 9.16684C95.541 9.06593 95.6708 8.98389 95.8306 8.98389C100.089 8.98405 103.541 11.1646 103.541 13.8544V42.9839C103.541 40.139 100.726 37.867 96.2732 37.7373L96.276 37.7304H96.2405C95.8541 37.7304 95.541 37.5324 95.541 37.2885V9.16684Z" fill="url(#paint93_linear_6256_1873)" fill-opacity="0.61"/>
<path d="M95.541 9.16684C95.541 9.06593 95.6708 8.98389 95.8306 8.98389C100.089 8.98405 103.541 11.1646 103.541 13.8544V42.9839C103.541 40.139 100.726 37.867 96.2732 37.7373L96.276 37.7304H96.2405C95.8541 37.7304 95.541 37.5324 95.541 37.2885V9.16684Z" fill="url(#paint94_linear_6256_1873)" fill-opacity="0.61"/>
<path d="M95.541 9.16684C95.541 9.06593 95.6708 8.98389 95.8306 8.98389C100.089 8.98405 103.541 11.1646 103.541 13.8544V42.9839C103.541 40.139 100.726 37.867 96.2732 37.7373L96.276 37.7304H96.2405C95.8541 37.7304 95.541 37.5324 95.541 37.2885V9.16684Z" fill="url(#paint95_linear_6256_1873)" fill-opacity="0.61"/>
<path d="M95.541 9.16684C95.541 9.06593 95.6708 8.98389 95.8306 8.98389C100.089 8.98405 103.541 11.1646 103.541 13.8544V42.9839C103.541 40.139 100.726 37.867 96.2732 37.7373L96.276 37.7304H96.2405C95.8541 37.7304 95.541 37.5324 95.541 37.2885V9.16684Z" fill="url(#paint96_linear_6256_1873)" fill-opacity="0.61"/>
<path d="M95.541 9.16684C95.541 9.06593 95.6708 8.98389 95.8306 8.98389C100.089 8.98405 103.541 11.1646 103.541 13.8544V42.9839C103.541 40.139 100.726 37.867 96.2732 37.7373L96.276 37.7304H96.2405C95.8541 37.7304 95.541 37.5324 95.541 37.2885V9.16684Z" fill="url(#paint97_linear_6256_1873)" fill-opacity="0.61"/>
<path d="M95.541 9.16684C95.541 9.06593 95.6708 8.98389 95.8306 8.98389C100.089 8.98405 103.541 11.1646 103.541 13.8544V42.9839C103.541 40.139 100.726 37.867 96.2732 37.7373L96.276 37.7304H96.2405C95.8541 37.7304 95.541 37.5324 95.541 37.2885V9.16684Z" fill="url(#paint98_linear_6256_1873)"/>
</g>
<g clip-path="url(#clip1_6256_1873)">
<path d="M18.652 43.0749C21.4964 42.3128 24.4202 44.0008 25.1824 46.8453L30.5911 59.3035L47.1929 54.855L47.4123 55.6738C46.6501 52.8293 48.3382 49.9056 51.1826 49.1434C54.0271 48.3812 56.9508 50.0693 57.713 52.9137L60.6965 64.0483C64.142 76.9072 59.8233 86.7186 47.6436 89.9822C42.3008 91.4138 34.985 90.4437 29.1641 85.5516C24.4267 81.0622 22.8209 74.6417 22.2654 71.0945C21.9522 69.1017 21.5167 67.2028 21.1366 65.2217L14.8817 49.6053C14.1195 46.7609 15.8075 43.8371 18.652 43.0749Z" fill="url(#paint99_radial_6256_1873)"/>
<path d="M18.652 43.0749C21.4964 42.3128 24.4202 44.0008 25.1824 46.8453L30.5911 59.3035L47.1929 54.855L47.4123 55.6738C46.6501 52.8293 48.3382 49.9056 51.1826 49.1434C54.0271 48.3812 56.9508 50.0693 57.713 52.9137L60.6965 64.0483C64.142 76.9072 59.8233 86.7186 47.6436 89.9822C42.3008 91.4138 34.985 90.4437 29.1641 85.5516C24.4267 81.0622 22.8209 74.6417 22.2654 71.0945C21.9522 69.1017 21.5167 67.2028 21.1366 65.2217L14.8817 49.6053C14.1195 46.7609 15.8075 43.8371 18.652 43.0749Z" fill="url(#paint100_radial_6256_1873)"/>
<path d="M18.652 43.0749C21.4964 42.3128 24.4202 44.0008 25.1824 46.8453L30.5911 59.3035L47.1929 54.855L47.4123 55.6738C46.6501 52.8293 48.3382 49.9056 51.1826 49.1434C54.0271 48.3812 56.9508 50.0693 57.713 52.9137L60.6965 64.0483C64.142 76.9072 59.8233 86.7186 47.6436 89.9822C42.3008 91.4138 34.985 90.4437 29.1641 85.5516C24.4267 81.0622 22.8209 74.6417 22.2654 71.0945C21.9522 69.1017 21.5167 67.2028 21.1366 65.2217L14.8817 49.6053C14.1195 46.7609 15.8075 43.8371 18.652 43.0749Z" fill="url(#paint101_radial_6256_1873)"/>
<path d="M18.652 43.0749C21.4964 42.3128 24.4202 44.0008 25.1824 46.8453L30.5911 59.3035L47.1929 54.855L47.4123 55.6738C46.6501 52.8293 48.3382 49.9056 51.1826 49.1434C54.0271 48.3812 56.9508 50.0693 57.713 52.9137L60.6965 64.0483C64.142 76.9072 59.8233 86.7186 47.6436 89.9822C42.3008 91.4138 34.985 90.4437 29.1641 85.5516C24.4267 81.0622 22.8209 74.6417 22.2654 71.0945C21.9522 69.1017 21.5167 67.2028 21.1366 65.2217L14.8817 49.6053C14.1195 46.7609 15.8075 43.8371 18.652 43.0749Z" fill="url(#paint102_radial_6256_1873)"/>
<path d="M18.652 43.0749C21.4964 42.3128 24.4202 44.0008 25.1824 46.8453L30.5911 59.3035L47.1929 54.855L47.4123 55.6738C46.6501 52.8293 48.3382 49.9056 51.1826 49.1434C54.0271 48.3812 56.9508 50.0693 57.713 52.9137L60.6965 64.0483C64.142 76.9072 59.8233 86.7186 47.6436 89.9822C42.3008 91.4138 34.985 90.4437 29.1641 85.5516C24.4267 81.0622 22.8209 74.6417 22.2654 71.0945C21.9522 69.1017 21.5167 67.2028 21.1366 65.2217L14.8817 49.6053C14.1195 46.7609 15.8075 43.8371 18.652 43.0749Z" fill="url(#paint103_radial_6256_1873)"/>
<path d="M18.652 43.0749C21.4964 42.3128 24.4202 44.0008 25.1824 46.8453L30.5911 59.3035L47.1929 54.855L47.4123 55.6738C46.6501 52.8293 48.3382 49.9056 51.1826 49.1434C54.0271 48.3812 56.9508 50.0693 57.713 52.9137L60.6965 64.0483C64.142 76.9072 59.8233 86.7186 47.6436 89.9822C42.3008 91.4138 34.985 90.4437 29.1641 85.5516C24.4267 81.0622 22.8209 74.6417 22.2654 71.0945C21.9522 69.1017 21.5167 67.2028 21.1366 65.2217L14.8817 49.6053C14.1195 46.7609 15.8075 43.8371 18.652 43.0749Z" fill="url(#paint104_radial_6256_1873)"/>
<path d="M18.652 43.0749C21.4964 42.3128 24.4202 44.0008 25.1824 46.8453L30.5911 59.3035L47.1929 54.855L47.4123 55.6738C46.6501 52.8293 48.3382 49.9056 51.1826 49.1434C54.0271 48.3812 56.9508 50.0693 57.713 52.9137L60.6965 64.0483C64.142 76.9072 59.8233 86.7186 47.6436 89.9822C42.3008 91.4138 34.985 90.4437 29.1641 85.5516C24.4267 81.0622 22.8209 74.6417 22.2654 71.0945C21.9522 69.1017 21.5167 67.2028 21.1366 65.2217L14.8817 49.6053C14.1195 46.7609 15.8075 43.8371 18.652 43.0749Z" fill="url(#paint105_radial_6256_1873)"/>
<path d="M18.652 43.0749C21.4964 42.3128 24.4202 44.0008 25.1824 46.8453L30.5911 59.3035L47.1929 54.855L47.4123 55.6738C46.6501 52.8293 48.3382 49.9056 51.1826 49.1434C54.0271 48.3812 56.9508 50.0693 57.713 52.9137L60.6965 64.0483C64.142 76.9072 59.8233 86.7186 47.6436 89.9822C42.3008 91.4138 34.985 90.4437 29.1641 85.5516C24.4267 81.0622 22.8209 74.6417 22.2654 71.0945C21.9522 69.1017 21.5167 67.2028 21.1366 65.2217L14.8817 49.6053C14.1195 46.7609 15.8075 43.8371 18.652 43.0749Z" fill="url(#paint106_radial_6256_1873)"/>
<path d="M18.652 43.0749C21.4964 42.3128 24.4202 44.0008 25.1824 46.8453L30.5911 59.3035L47.1929 54.855L47.4123 55.6738C46.6501 52.8293 48.3382 49.9056 51.1826 49.1434C54.0271 48.3812 56.9508 50.0693 57.713 52.9137L60.6965 64.0483C64.142 76.9072 59.8233 86.7186 47.6436 89.9822C42.3008 91.4138 34.985 90.4437 29.1641 85.5516C24.4267 81.0622 22.8209 74.6417 22.2654 71.0945C21.9522 69.1017 21.5167 67.2028 21.1366 65.2217L14.8817 49.6053C14.1195 46.7609 15.8075 43.8371 18.652 43.0749Z" fill="url(#paint107_radial_6256_1873)"/>
<path d="M18.652 43.0749C21.4964 42.3128 24.4202 44.0008 25.1824 46.8453L30.5911 59.3035L47.1929 54.855L47.4123 55.6738C46.6501 52.8293 48.3382 49.9056 51.1826 49.1434C54.0271 48.3812 56.9508 50.0693 57.713 52.9137L60.6965 64.0483C64.142 76.9072 59.8233 86.7186 47.6436 89.9822C42.3008 91.4138 34.985 90.4437 29.1641 85.5516C24.4267 81.0622 22.8209 74.6417 22.2654 71.0945C21.9522 69.1017 21.5167 67.2028 21.1366 65.2217L14.8817 49.6053C14.1195 46.7609 15.8075 43.8371 18.652 43.0749Z" fill="url(#paint108_radial_6256_1873)"/>
<path d="M18.652 43.0749C21.4964 42.3128 24.4202 44.0008 25.1824 46.8453L30.5911 59.3035L47.1929 54.855L47.4123 55.6738C46.6501 52.8293 48.3382 49.9056 51.1826 49.1434C54.0271 48.3812 56.9508 50.0693 57.713 52.9137L60.6965 64.0483C64.142 76.9072 59.8233 86.7186 47.6436 89.9822C42.3008 91.4138 34.985 90.4437 29.1641 85.5516C24.4267 81.0622 22.8209 74.6417 22.2654 71.0945C21.9522 69.1017 21.5167 67.2028 21.1366 65.2217L14.8817 49.6053C14.1195 46.7609 15.8075 43.8371 18.652 43.0749Z" fill="url(#paint109_radial_6256_1873)"/>
<path d="M18.652 43.0749C21.4964 42.3128 24.4202 44.0008 25.1824 46.8453L30.5911 59.3035L47.1929 54.855L47.4123 55.6738C46.6501 52.8293 48.3382 49.9056 51.1826 49.1434C54.0271 48.3812 56.9508 50.0693 57.713 52.9137L60.6965 64.0483C64.142 76.9072 59.8233 86.7186 47.6436 89.9822C42.3008 91.4138 34.985 90.4437 29.1641 85.5516C24.4267 81.0622 22.8209 74.6417 22.2654 71.0945C21.9522 69.1017 21.5167 67.2028 21.1366 65.2217L14.8817 49.6053C14.1195 46.7609 15.8075 43.8371 18.652 43.0749Z" fill="url(#paint110_radial_6256_1873)"/>
<path d="M18.652 43.0749C21.4964 42.3128 24.4202 44.0008 25.1824 46.8453L30.5911 59.3035L47.1929 54.855L47.4123 55.6738C46.6501 52.8293 48.3382 49.9056 51.1826 49.1434C54.0271 48.3812 56.9508 50.0693 57.713 52.9137L60.6965 64.0483C64.142 76.9072 59.8233 86.7186 47.6436 89.9822C42.3008 91.4138 34.985 90.4437 29.1641 85.5516C24.4267 81.0622 22.8209 74.6417 22.2654 71.0945C21.9522 69.1017 21.5167 67.2028 21.1366 65.2217L14.8817 49.6053C14.1195 46.7609 15.8075 43.8371 18.652 43.0749Z" fill="url(#paint111_radial_6256_1873)"/>
<path d="M18.652 43.0749C21.4964 42.3128 24.4202 44.0008 25.1824 46.8453L30.5911 59.3035L47.1929 54.855L47.4123 55.6738C46.6501 52.8293 48.3382 49.9056 51.1826 49.1434C54.0271 48.3812 56.9508 50.0693 57.713 52.9137L60.6965 64.0483C64.142 76.9072 59.8233 86.7186 47.6436 89.9822C42.3008 91.4138 34.985 90.4437 29.1641 85.5516C24.4267 81.0622 22.8209 74.6417 22.2654 71.0945C21.9522 69.1017 21.5167 67.2028 21.1366 65.2217L14.8817 49.6053C14.1195 46.7609 15.8075 43.8371 18.652 43.0749Z" fill="url(#paint112_radial_6256_1873)"/>
<path d="M18.652 43.0749C21.4964 42.3128 24.4202 44.0008 25.1824 46.8453L30.5911 59.3035L47.1929 54.855L47.4123 55.6738C46.6501 52.8293 48.3382 49.9056 51.1826 49.1434C54.0271 48.3812 56.9508 50.0693 57.713 52.9137L60.6965 64.0483C64.142 76.9072 59.8233 86.7186 47.6436 89.9822C42.3008 91.4138 34.985 90.4437 29.1641 85.5516C24.4267 81.0622 22.8209 74.6417 22.2654 71.0945C21.9522 69.1017 21.5167 67.2028 21.1366 65.2217L14.8817 49.6053C14.1195 46.7609 15.8075 43.8371 18.652 43.0749Z" fill="url(#paint113_radial_6256_1873)"/>
<path d="M18.652 43.0749C21.4964 42.3128 24.4202 44.0008 25.1824 46.8453L30.5911 59.3035L47.1929 54.855L47.4123 55.6738C46.6501 52.8293 48.3382 49.9056 51.1826 49.1434C54.0271 48.3812 56.9508 50.0693 57.713 52.9137L60.6965 64.0483C64.142 76.9072 59.8233 86.7186 47.6436 89.9822C42.3008 91.4138 34.985 90.4437 29.1641 85.5516C24.4267 81.0622 22.8209 74.6417 22.2654 71.0945C21.9522 69.1017 21.5167 67.2028 21.1366 65.2217L14.8817 49.6053C14.1195 46.7609 15.8075 43.8371 18.652 43.0749Z" fill="url(#paint114_radial_6256_1873)" fill-opacity="0.5"/>
<path d="M18.652 43.0749C21.4964 42.3128 24.4202 44.0008 25.1824 46.8453L30.5911 59.3035L47.1929 54.855L47.4123 55.6738C46.6501 52.8293 48.3382 49.9056 51.1826 49.1434C54.0271 48.3812 56.9508 50.0693 57.713 52.9137L60.6965 64.0483C64.142 76.9072 59.8233 86.7186 47.6436 89.9822C42.3008 91.4138 34.985 90.4437 29.1641 85.5516C24.4267 81.0622 22.8209 74.6417 22.2654 71.0945C21.9522 69.1017 21.5167 67.2028 21.1366 65.2217L14.8817 49.6053C14.1195 46.7609 15.8075 43.8371 18.652 43.0749Z" fill="url(#paint115_radial_6256_1873)"/>
<path d="M18.652 43.0749C21.4964 42.3128 24.4202 44.0008 25.1824 46.8453L30.5911 59.3035L47.1929 54.855L47.4123 55.6738C46.6501 52.8293 48.3382 49.9056 51.1826 49.1434C54.0271 48.3812 56.9508 50.0693 57.713 52.9137L60.6965 64.0483C64.142 76.9072 59.8233 86.7186 47.6436 89.9822C42.3008 91.4138 34.985 90.4437 29.1641 85.5516C24.4267 81.0622 22.8209 74.6417 22.2654 71.0945C21.9522 69.1017 21.5167 67.2028 21.1366 65.2217L14.8817 49.6053C14.1195 46.7609 15.8075 43.8371 18.652 43.0749Z" fill="url(#paint116_radial_6256_1873)"/>
<path d="M35.6964 39.5961C34.9343 36.7517 32.0105 35.0637 29.1661 35.8258C26.3216 36.588 24.6336 39.5118 25.3957 42.3562L29.8584 59.0109C30.6205 61.8553 33.5443 63.5434 36.3887 62.7812C39.2332 62.019 40.9212 59.0953 40.159 56.2508L35.6964 39.5961Z" fill="url(#paint117_radial_6256_1873)"/>
<path d="M35.6964 39.5961C34.9343 36.7517 32.0105 35.0637 29.1661 35.8258C26.3216 36.588 24.6336 39.5118 25.3957 42.3562L29.8584 59.0109C30.6205 61.8553 33.5443 63.5434 36.3887 62.7812C39.2332 62.019 40.9212 59.0953 40.159 56.2508L35.6964 39.5961Z" fill="url(#paint118_radial_6256_1873)"/>
<path d="M35.6964 39.5961C34.9343 36.7517 32.0105 35.0637 29.1661 35.8258C26.3216 36.588 24.6336 39.5118 25.3957 42.3562L29.8584 59.0109C30.6205 61.8553 33.5443 63.5434 36.3887 62.7812C39.2332 62.019 40.9212 59.0953 40.159 56.2508L35.6964 39.5961Z" fill="url(#paint119_radial_6256_1873)"/>
<path d="M47.3989 37.9749C46.8701 35.0779 44.093 33.1582 41.196 33.687C38.2991 34.2157 36.3794 36.9928 36.9081 39.8898L40.1839 57.8355C40.7127 60.7324 43.4898 62.6521 46.3867 62.1234C49.2836 61.5946 51.2034 58.8175 50.6746 55.9205L47.3989 37.9749Z" fill="url(#paint120_radial_6256_1873)"/>
<path d="M47.3989 37.9749C46.8701 35.0779 44.093 33.1582 41.196 33.687C38.2991 34.2157 36.3794 36.9928 36.9081 39.8898L40.1839 57.8355C40.7127 60.7324 43.4898 62.6521 46.3867 62.1234C49.2836 61.5946 51.2034 58.8175 50.6746 55.9205L47.3989 37.9749Z" fill="url(#paint121_radial_6256_1873)"/>
<path d="M47.3989 37.9749C46.8701 35.0779 44.093 33.1582 41.196 33.687C38.2991 34.2157 36.3794 36.9928 36.9081 39.8898L40.1839 57.8355C40.7127 60.7324 43.4898 62.6521 46.3867 62.1234C49.2836 61.5946 51.2034 58.8175 50.6746 55.9205L47.3989 37.9749Z" fill="url(#paint122_radial_6256_1873)"/>
<path d="M47.3989 37.9749C46.8701 35.0779 44.093 33.1582 41.196 33.687C38.2991 34.2157 36.3794 36.9928 36.9081 39.8898L40.1839 57.8355C40.7127 60.7324 43.4898 62.6521 46.3867 62.1234C49.2836 61.5946 51.2034 58.8175 50.6746 55.9205L47.3989 37.9749Z" fill="url(#paint123_radial_6256_1873)"/>
<path d="M47.3989 37.9749C46.8701 35.0779 44.093 33.1582 41.196 33.687C38.2991 34.2157 36.3794 36.9928 36.9081 39.8898L40.1839 57.8355C40.7127 60.7324 43.4898 62.6521 46.3867 62.1234C49.2836 61.5946 51.2034 58.8175 50.6746 55.9205L47.3989 37.9749Z" fill="url(#paint124_radial_6256_1873)"/>
<path d="M47.3989 37.9749C46.8701 35.0779 44.093 33.1582 41.196 33.687C38.2991 34.2157 36.3794 36.9928 36.9081 39.8898L40.1839 57.8355C40.7127 60.7324 43.4898 62.6521 46.3867 62.1234C49.2836 61.5946 51.2034 58.8175 50.6746 55.9205L47.3989 37.9749Z" fill="url(#paint125_radial_6256_1873)"/>
<path d="M47.3989 37.9749C46.8701 35.0779 44.093 33.1582 41.196 33.687C38.2991 34.2157 36.3794 36.9928 36.9081 39.8898L40.1839 57.8355C40.7127 60.7324 43.4898 62.6521 46.3867 62.1234C49.2836 61.5946 51.2034 58.8175 50.6746 55.9205L47.3989 37.9749Z" fill="url(#paint126_radial_6256_1873)"/>
<path d="M47.3989 37.9749C46.8701 35.0779 44.093 33.1582 41.196 33.687C38.2991 34.2157 36.3794 36.9928 36.9081 39.8898L40.1839 57.8355C40.7127 60.7324 43.4898 62.6521 46.3867 62.1234C49.2836 61.5946 51.2034 58.8175 50.6746 55.9205L47.3989 37.9749Z" fill="url(#paint127_radial_6256_1873)"/>
<path d="M47.3989 37.9749C46.8701 35.0779 44.093 33.1582 41.196 33.687C38.2991 34.2157 36.3794 36.9928 36.9081 39.8898L40.1839 57.8355C40.7127 60.7324 43.4898 62.6521 46.3867 62.1234C49.2836 61.5946 51.2034 58.8175 50.6746 55.9205L47.3989 37.9749Z" fill="url(#paint128_radial_6256_1873)"/>
<path d="M35.959 60.4378C39.0353 59.6135 42.1822 61.624 42.9974 64.6664C43.8126 67.7088 41.7815 70.9451 38.7051 71.7694L35.8035 72.5469C35.2311 72.7553 34.7791 73.2098 34.5799 73.7873C34.5799 73.7873 31.8129 79.5528 30.3415 81.3059C29.2807 82.5697 25.9057 83.7076 23.7811 77.0462C21.6565 70.3847 25.8282 63.1611 32.6627 61.321" fill="url(#paint129_radial_6256_1873)"/>
<path d="M35.959 60.4378C39.0353 59.6135 42.1822 61.624 42.9974 64.6664C43.8126 67.7088 41.7815 70.9451 38.7051 71.7694L35.8035 72.5469C35.2311 72.7553 34.7791 73.2098 34.5799 73.7873C34.5799 73.7873 31.8129 79.5528 30.3415 81.3059C29.2807 82.5697 25.9057 83.7076 23.7811 77.0462C21.6565 70.3847 25.8282 63.1611 32.6627 61.321" fill="url(#paint130_linear_6256_1873)"/>
<path d="M35.959 60.4378C39.0353 59.6135 42.1822 61.624 42.9974 64.6664C43.8126 67.7088 41.7815 70.9451 38.7051 71.7694L35.8035 72.5469C35.2311 72.7553 34.7791 73.2098 34.5799 73.7873C34.5799 73.7873 31.8129 79.5528 30.3415 81.3059C29.2807 82.5697 25.9057 83.7076 23.7811 77.0462C21.6565 70.3847 25.8282 63.1611 32.6627 61.321" fill="url(#paint131_radial_6256_1873)"/>
<path d="M35.959 60.4378C39.0353 59.6135 42.1822 61.624 42.9974 64.6664C43.8126 67.7088 41.7815 70.9451 38.7051 71.7694L35.8035 72.5469C35.2311 72.7553 34.7791 73.2098 34.5799 73.7873C34.5799 73.7873 31.8129 79.5528 30.3415 81.3059C29.2807 82.5697 25.9057 83.7076 23.7811 77.0462C21.6565 70.3847 25.8282 63.1611 32.6627 61.321" fill="url(#paint132_radial_6256_1873)"/>
<path d="M35.959 60.4378C39.0353 59.6135 42.1822 61.624 42.9974 64.6664C43.8126 67.7088 41.7815 70.9451 38.7051 71.7694L35.8035 72.5469C35.2311 72.7553 34.7791 73.2098 34.5799 73.7873C34.5799 73.7873 31.8129 79.5528 30.3415 81.3059C29.2807 82.5697 25.9057 83.7076 23.7811 77.0462C21.6565 70.3847 25.8282 63.1611 32.6627 61.321" fill="url(#paint133_radial_6256_1873)"/>
<path d="M35.959 60.4378C39.0353 59.6135 42.1822 61.624 42.9974 64.6664C43.8126 67.7088 41.7815 70.9451 38.7051 71.7694L35.8035 72.5469C35.2311 72.7553 34.7791 73.2098 34.5799 73.7873C34.5799 73.7873 31.8129 79.5528 30.3415 81.3059C29.2807 82.5697 25.9057 83.7076 23.7811 77.0462C21.6565 70.3847 25.8282 63.1611 32.6627 61.321" fill="url(#paint134_radial_6256_1873)"/>
<path d="M35.959 60.4378C39.0353 59.6135 42.1822 61.624 42.9974 64.6664C43.8126 67.7088 41.7815 70.9451 38.7051 71.7694L35.8035 72.5469C35.2311 72.7553 34.7791 73.2098 34.5799 73.7873C34.5799 73.7873 31.8129 79.5528 30.3415 81.3059C29.2807 82.5697 25.9057 83.7076 23.7811 77.0462C21.6565 70.3847 25.8282 63.1611 32.6627 61.321" fill="url(#paint135_radial_6256_1873)"/>
<path d="M35.959 60.4378C39.0353 59.6135 42.1822 61.624 42.9974 64.6664C43.8126 67.7088 41.7815 70.9451 38.7051 71.7694L35.8035 72.5469C35.2311 72.7553 34.7791 73.2098 34.5799 73.7873C34.5799 73.7873 31.8129 79.5528 30.3415 81.3059C29.2807 82.5697 25.9057 83.7076 23.7811 77.0462C21.6565 70.3847 25.8282 63.1611 32.6627 61.321" fill="url(#paint136_radial_6256_1873)"/>
<path d="M59.3737 53.6667C60.0572 50.7668 58.2605 47.8619 55.3607 47.1784L55.0641 47.1085C52.1643 46.4249 49.2594 48.2216 48.5759 51.1215L47.4269 55.9957C46.7434 58.8956 48.5401 61.8005 51.4399 62.484L51.7365 62.5539C54.6363 63.2374 57.5413 61.4407 58.2248 58.5409L59.3737 53.6667Z" fill="url(#paint137_radial_6256_1873)"/>
<path d="M59.3737 53.6667C60.0572 50.7668 58.2605 47.8619 55.3607 47.1784L55.0641 47.1085C52.1643 46.4249 49.2594 48.2216 48.5759 51.1215L47.4269 55.9957C46.7434 58.8956 48.5401 61.8005 51.4399 62.484L51.7365 62.5539C54.6363 63.2374 57.5413 61.4407 58.2248 58.5409L59.3737 53.6667Z" fill="url(#paint138_radial_6256_1873)"/>
<path d="M59.3737 53.6667C60.0572 50.7668 58.2605 47.8619 55.3607 47.1784L55.0641 47.1085C52.1643 46.4249 49.2594 48.2216 48.5759 51.1215L47.4269 55.9957C46.7434 58.8956 48.5401 61.8005 51.4399 62.484L51.7365 62.5539C54.6363 63.2374 57.5413 61.4407 58.2248 58.5409L59.3737 53.6667Z" fill="url(#paint139_radial_6256_1873)"/>
</g>
<defs>
<linearGradient id="paint0_linear_6256_1873" x1="38.4047" y1="40.1008" x2="46.8192" y2="40.1008" gradientUnits="userSpaceOnUse">
<stop stop-color="#3DB2F1"/>
<stop offset="0.736387" stop-color="#57D2F4"/>
</linearGradient>
<linearGradient id="paint1_linear_6256_1873" x1="49.14" y1="12.6771" x2="49.5841" y2="16.5704" gradientUnits="userSpaceOnUse">
<stop offset="0.0135725" stop-color="#7FECFF"/>
<stop offset="1" stop-color="#60DEFF" stop-opacity="0"/>
</linearGradient>
<radialGradient id="paint2_radial_6256_1873" cx="0" cy="0" r="1" gradientTransform="matrix(-4.15687 -44.9586 11.3431 -0.682973 101.489 36.331)" gradientUnits="userSpaceOnUse">
<stop offset="0.624" stop-color="#2B9BD4"/>
<stop offset="1" stop-color="#2B9BD4" stop-opacity="0"/>
</radialGradient>
<radialGradient id="paint3_radial_6256_1873" cx="0" cy="0" r="1" gradientTransform="matrix(1.77564e-07 -23.6757 13.5204 -6.11717 44.7772 43.887)" gradientUnits="userSpaceOnUse">
<stop offset="0.396347" stop-color="#46ADD7"/>
<stop offset="0.89218" stop-color="#46ADD7" stop-opacity="0"/>
</radialGradient>
<radialGradient id="paint4_radial_6256_1873" cx="0" cy="0" r="1" gradientTransform="matrix(-4.15687 -44.9586 11.3431 -0.682973 101.489 36.331)" gradientUnits="userSpaceOnUse">
<stop offset="0.624" stop-color="#2B9BD4"/>
<stop offset="1" stop-color="#2B9BD4" stop-opacity="0"/>
</radialGradient>
<radialGradient id="paint5_radial_6256_1873" cx="0" cy="0" r="1" gradientTransform="matrix(1.78152 -18.6383 11.104 -4.08358 44.7772 43.887)" gradientUnits="userSpaceOnUse">
<stop offset="0.396347" stop-color="#46ADD7"/>
<stop offset="0.89218" stop-color="#46ADD7" stop-opacity="0"/>
</radialGradient>
<linearGradient id="paint6_linear_6256_1873" x1="76.0843" y1="47.9839" x2="76.0843" y2="47.581" gradientUnits="userSpaceOnUse">
<stop stop-color="#DDA07F"/>
<stop offset="1" stop-color="#DDA07F" stop-opacity="0"/>
</linearGradient>
<linearGradient id="paint7_linear_6256_1873" x1="99.459" y1="44.2964" x2="98.8982" y2="44.2964" gradientUnits="userSpaceOnUse">
<stop stop-color="#DDA07F"/>
<stop offset="1" stop-color="#DDA07F" stop-opacity="0"/>
</linearGradient>
<linearGradient id="paint8_linear_6256_1873" x1="98.9587" y1="45.8074" x2="98.2343" y2="45.6101" gradientUnits="userSpaceOnUse">
<stop stop-color="#DDA07F"/>
<stop offset="1" stop-color="#DDA07F" stop-opacity="0"/>
</linearGradient>
<linearGradient id="paint9_linear_6256_1873" x1="98.2013" y1="46.1903" x2="97.7245" y2="45.8617" gradientUnits="userSpaceOnUse">
<stop stop-color="#DDA07F"/>
<stop offset="1" stop-color="#DDA07F" stop-opacity="0"/>
</linearGradient>
<linearGradient id="paint10_linear_6256_1873" x1="97.4072" y1="46.7905" x2="97.081" y2="46.2275" gradientUnits="userSpaceOnUse">
<stop stop-color="#DDA07F"/>
<stop offset="1" stop-color="#DDA07F" stop-opacity="0"/>
</linearGradient>
<linearGradient id="paint11_linear_6256_1873" x1="98.1884" y1="46.2903" x2="97.7176" y2="45.7497" gradientUnits="userSpaceOnUse">
<stop stop-color="#DDA07F"/>
<stop offset="1" stop-color="#DDA07F" stop-opacity="0"/>
</linearGradient>
<linearGradient id="paint12_linear_6256_1873" x1="96.8227" y1="47.3836" x2="96.6199" y2="46.7709" gradientUnits="userSpaceOnUse">
<stop stop-color="#DDA07F"/>
<stop offset="1" stop-color="#DDA07F" stop-opacity="0"/>
</linearGradient>
<linearGradient id="paint13_linear_6256_1873" x1="99.0288" y1="45.3648" x2="98.2839" y2="44.9584" gradientUnits="userSpaceOnUse">
<stop stop-color="#DDA07F"/>
<stop offset="1" stop-color="#DDA07F" stop-opacity="0"/>
</linearGradient>
<linearGradient id="paint14_linear_6256_1873" x1="96.2798" y1="47.5849" x2="96.1433" y2="46.9412" gradientUnits="userSpaceOnUse">
<stop stop-color="#DDA07F"/>
<stop offset="1" stop-color="#DDA07F" stop-opacity="0"/>
</linearGradient>
<linearGradient id="paint15_linear_6256_1873" x1="61.5409" y1="13.2709" x2="61.5409" y2="13.3743" gradientUnits="userSpaceOnUse">
<stop stop-color="#FFE09D"/>
<stop offset="1" stop-color="#FEDD97" stop-opacity="0"/>
</linearGradient>
<linearGradient id="paint16_linear_6256_1873" x1="46.459" y1="30.4839" x2="99.459" y2="30.4839" gradientUnits="userSpaceOnUse">
<stop stop-color="#FFEA3A"/>
<stop offset="1" stop-color="#FFD336"/>
</linearGradient>
<linearGradient id="paint17_linear_6256_1873" x1="99.7269" y1="30.4839" x2="98.0047" y2="30.4839" gradientUnits="userSpaceOnUse">
<stop stop-color="#8F581B"/>
<stop offset="1" stop-color="#D18E27" stop-opacity="0"/>
</linearGradient>
<radialGradient id="paint18_radial_6256_1873" cx="0" cy="0" r="1" gradientTransform="matrix(2.55589 -1.18113 0.620423 0.691053 97.6252 48.151)" gradientUnits="userSpaceOnUse">
<stop stop-color="#8F581B" stop-opacity="0.77"/>
<stop offset="1" stop-color="#D18E27" stop-opacity="0"/>
</radialGradient>
<radialGradient id="paint19_radial_6256_1873" cx="0" cy="0" r="1" gradientTransform="matrix(-0.850323 0.467437 -1.13757 -1.06516 98.1776 12.8434)" gradientUnits="userSpaceOnUse">
<stop stop-color="#8F581B"/>
<stop offset="1" stop-color="#D18E27" stop-opacity="0"/>
</radialGradient>
<linearGradient id="paint20_linear_6256_1873" x1="46.459" y1="29.303" x2="99.459" y2="29.303" gradientUnits="userSpaceOnUse">
<stop stop-color="#56D1F3"/>
<stop offset="1" stop-color="#39ADF1"/>
</linearGradient>
<linearGradient id="paint21_linear_6256_1873" x1="54.2571" y1="12.7155" x2="54.636" y2="16.1243" gradientUnits="userSpaceOnUse">
<stop offset="0.0135725" stop-color="#7FECFF"/>
<stop offset="1" stop-color="#60DEFF" stop-opacity="0"/>
</linearGradient>
<radialGradient id="paint22_radial_6256_1873" cx="0" cy="0" r="1" gradientTransform="matrix(-4.15687 -44.9586 11.3431 -0.682973 101.489 36.331)" gradientUnits="userSpaceOnUse">
<stop offset="0.624" stop-color="#2B9BD4"/>
<stop offset="1" stop-color="#2B9BD4" stop-opacity="0"/>
</radialGradient>
<radialGradient id="paint23_radial_6256_1873" cx="0" cy="0" r="1" gradientUnits="userSpaceOnUse" gradientTransform="translate(46.3242 60.5131) rotate(-90) scale(6.83594 10.3893)">
<stop stop-color="#EB9160"/>
<stop offset="1" stop-color="#C36241"/>
</radialGradient>
<radialGradient id="paint24_radial_6256_1873" cx="0" cy="0" r="1" gradientUnits="userSpaceOnUse" gradientTransform="translate(44.0227 61.2408) rotate(-93.3665) scale(0.594444 3.93461)">
<stop stop-color="#CE7E69"/>
<stop offset="1" stop-color="#CE7E69" stop-opacity="0"/>
</radialGradient>
<radialGradient id="paint25_radial_6256_1873" cx="0" cy="0" r="1" gradientUnits="userSpaceOnUse" gradientTransform="translate(43.0278 61.0836) rotate(-75.6997) scale(0.918591 7.72581)">
<stop stop-color="#CE7E69"/>
<stop offset="1" stop-color="#CE7E69" stop-opacity="0"/>
</radialGradient>
<radialGradient id="paint26_radial_6256_1873" cx="0" cy="0" r="1" gradientUnits="userSpaceOnUse" gradientTransform="translate(42.2773 60.595) rotate(-55.6698) scale(0.866544 7.28807)">
<stop stop-color="#CE7E69"/>
<stop offset="1" stop-color="#CE7E69" stop-opacity="0"/>
</radialGradient>
<radialGradient id="paint27_radial_6256_1873" cx="0" cy="0" r="1" gradientUnits="userSpaceOnUse" gradientTransform="translate(41.0905 59.4955) rotate(-35.789) scale(0.925199 7.78139)">
<stop stop-color="#CE7E69"/>
<stop offset="1" stop-color="#CE7E69" stop-opacity="0"/>
</radialGradient>
<radialGradient id="paint28_radial_6256_1873" cx="0" cy="0" r="1" gradientUnits="userSpaceOnUse" gradientTransform="translate(40.3051 57.2614) rotate(-7.12499) scale(0.844286 7.10087)">
<stop stop-color="#CE7E69"/>
<stop offset="1" stop-color="#CE7E69" stop-opacity="0"/>
</radialGradient>
<radialGradient id="paint29_radial_6256_1873" cx="0" cy="0" r="1" gradientUnits="userSpaceOnUse" gradientTransform="translate(40.6212 54.5815) rotate(27.7585) scale(0.757036 6.36706)">
<stop stop-color="#CE7E69"/>
<stop offset="1" stop-color="#CE7E69" stop-opacity="0"/>
</radialGradient>
<radialGradient id="paint30_radial_6256_1873" cx="0" cy="0" r="1" gradientUnits="userSpaceOnUse" gradientTransform="translate(43.1774 51.0027) rotate(94.87) scale(3.94559 33.1844)">
<stop stop-color="#CE7E69"/>
<stop offset="0.395933" stop-color="#CE7E69" stop-opacity="0"/>
</radialGradient>
<radialGradient id="paint31_radial_6256_1873" cx="0" cy="0" r="1" gradientUnits="userSpaceOnUse" gradientTransform="translate(44.54 52.192) rotate(89.8676) scale(0.578991 1.47744)">
<stop stop-color="#DDA07F"/>
<stop offset="1" stop-color="#DD9E7F" stop-opacity="0"/>
</radialGradient>
<radialGradient id="paint32_radial_6256_1873" cx="0" cy="0" r="1" gradientUnits="userSpaceOnUse" gradientTransform="translate(43.1728 52.6295) rotate(68.5619) scale(0.612052 1.5618)">
<stop stop-color="#DDA07F"/>
<stop offset="1" stop-color="#DD9E7F" stop-opacity="0"/>
</radialGradient>
<radialGradient id="paint33_radial_6256_1873" cx="0" cy="0" r="1" gradientUnits="userSpaceOnUse" gradientTransform="translate(41.8603 53.4429) rotate(43.5056) scale(0.55607 1.41895)">
<stop stop-color="#DDA07F"/>
<stop offset="1" stop-color="#DD9E7F" stop-opacity="0"/>
</radialGradient>
<radialGradient id="paint34_radial_6256_1873" cx="0" cy="0" r="1" gradientUnits="userSpaceOnUse" gradientTransform="translate(41.2136 54.4257) rotate(18.4349) scale(0.546465 1.39444)">
<stop stop-color="#DDA07F"/>
<stop offset="1" stop-color="#DD9E7F" stop-opacity="0"/>
</radialGradient>
<radialGradient id="paint35_radial_6256_1873" cx="0" cy="0" r="1" gradientUnits="userSpaceOnUse" gradientTransform="translate(41.0572 54.9111) rotate(18.435) scale(0.546465 1.39444)">
<stop stop-color="#DDA07F"/>
<stop offset="1" stop-color="#DD9E7F" stop-opacity="0"/>
</radialGradient>
<linearGradient id="paint36_linear_6256_1873" x1="72.459" y1="77.4418" x2="80.5362" y2="48.3955" gradientUnits="userSpaceOnUse">
<stop stop-color="#FFBF82"/>
<stop offset="0.736387" stop-color="#FFD8A3"/>
</linearGradient>
<linearGradient id="paint37_linear_6256_1873" x1="41.459" y1="64.9839" x2="56.2768" y2="64.9839" gradientUnits="userSpaceOnUse">
<stop stop-color="#FFD27C"/>
<stop offset="1" stop-color="#FFD27C" stop-opacity="0"/>
</linearGradient>
<linearGradient id="paint38_linear_6256_1873" x1="40.8027" y1="64.9839" x2="44.6713" y2="64.9839" gradientUnits="userSpaceOnUse">
<stop stop-color="#F9B76C"/>
<stop offset="1" stop-color="#FFC573" stop-opacity="0"/>
</linearGradient>
<radialGradient id="paint39_radial_6256_1873" cx="0" cy="0" r="1" gradientUnits="userSpaceOnUse" gradientTransform="translate(103.459 72.5148) rotate(180) scale(6.91016 9.08408)">
<stop stop-color="#FFDA8D"/>
<stop offset="1" stop-color="#FFDA8D" stop-opacity="0"/>
</radialGradient>
<radialGradient id="paint40_radial_6256_1873" cx="0" cy="0" r="1" gradientUnits="userSpaceOnUse" gradientTransform="translate(98.6972 54.5356) rotate(180) scale(6.12227 37.255)">
<stop stop-color="#FFDD93"/>
<stop offset="1" stop-color="#FFDD93" stop-opacity="0"/>
</radialGradient>
<linearGradient id="paint41_linear_6256_1873" x1="41.459" y1="64.9839" x2="103.459" y2="64.9839" gradientUnits="userSpaceOnUse">
<stop stop-color="#FFEA3A"/>
<stop offset="1" stop-color="#FFD336"/>
</linearGradient>
<linearGradient id="paint42_linear_6256_1873" x1="103.772" y1="64.9839" x2="101.758" y2="64.9839" gradientUnits="userSpaceOnUse">
<stop stop-color="#8F581B"/>
<stop offset="1" stop-color="#D18E27" stop-opacity="0"/>
</linearGradient>
<radialGradient id="paint43_radial_6256_1873" cx="0" cy="0" r="1" gradientTransform="matrix(2.98991 -1.34986 0.725778 0.789774 101.314 85.175)" gradientUnits="userSpaceOnUse">
<stop stop-color="#8F581B" stop-opacity="0.77"/>
<stop offset="1" stop-color="#D18E27" stop-opacity="0"/>
</radialGradient>
<radialGradient id="paint44_radial_6256_1873" cx="0" cy="0" r="1" gradientTransform="matrix(-0.994716 0.534214 -1.33075 -1.21733 101.96 44.8234)" gradientUnits="userSpaceOnUse">
<stop stop-color="#8F581B"/>
<stop offset="1" stop-color="#D18E27" stop-opacity="0"/>
</radialGradient>
<linearGradient id="paint45_linear_6256_1873" x1="78.7612" y1="79.9839" x2="78.7612" y2="79.581" gradientUnits="userSpaceOnUse">
<stop stop-color="#DDA07F"/>
<stop offset="1" stop-color="#DDA07F" stop-opacity="0"/>
</linearGradient>
<linearGradient id="paint46_linear_6256_1873" x1="103.459" y1="76.2964" x2="102.866" y2="76.2964" gradientUnits="userSpaceOnUse">
<stop stop-color="#DDA07F"/>
<stop offset="1" stop-color="#DDA07F" stop-opacity="0"/>
</linearGradient>
<linearGradient id="paint47_linear_6256_1873" x1="102.93" y1="77.8074" x2="102.171" y2="77.5889" gradientUnits="userSpaceOnUse">
<stop stop-color="#DDA07F"/>
<stop offset="1" stop-color="#DDA07F" stop-opacity="0"/>
</linearGradient>
<linearGradient id="paint48_linear_6256_1873" x1="102.13" y1="78.1903" x2="101.644" y2="77.8367" gradientUnits="userSpaceOnUse">
<stop stop-color="#DDA07F"/>
<stop offset="1" stop-color="#DDA07F" stop-opacity="0"/>
</linearGradient>
<linearGradient id="paint49_linear_6256_1873" x1="101.291" y1="78.7905" x2="100.974" y2="78.2124" gradientUnits="userSpaceOnUse">
<stop stop-color="#DDA07F"/>
<stop offset="1" stop-color="#DDA07F" stop-opacity="0"/>
</linearGradient>
<linearGradient id="paint50_linear_6256_1873" x1="102.117" y1="78.2903" x2="101.65" y2="77.7242" gradientUnits="userSpaceOnUse">
<stop stop-color="#DDA07F"/>
<stop offset="1" stop-color="#DDA07F" stop-opacity="0"/>
</linearGradient>
<linearGradient id="paint51_linear_6256_1873" x1="100.673" y1="79.3836" x2="100.48" y2="78.7645" gradientUnits="userSpaceOnUse">
<stop stop-color="#DDA07F"/>
<stop offset="1" stop-color="#DDA07F" stop-opacity="0"/>
</linearGradient>
<linearGradient id="paint52_linear_6256_1873" x1="103.004" y1="77.3648" x2="102.238" y2="76.9229" gradientUnits="userSpaceOnUse">
<stop stop-color="#DDA07F"/>
<stop offset="1" stop-color="#DDA07F" stop-opacity="0"/>
</linearGradient>
<linearGradient id="paint53_linear_6256_1873" x1="100.1" y1="79.5849" x2="99.97" y2="78.9382" gradientUnits="userSpaceOnUse">
<stop stop-color="#DDA07F"/>
<stop offset="1" stop-color="#DDA07F" stop-opacity="0"/>
</linearGradient>
<linearGradient id="paint54_linear_6256_1873" x1="63.3945" y1="45.2709" x2="63.3945" y2="45.3742" gradientUnits="userSpaceOnUse">
<stop stop-color="#FFE09D"/>
<stop offset="1" stop-color="#FEDD97" stop-opacity="0"/>
</linearGradient>
<linearGradient id="paint55_linear_6256_1873" x1="47.459" y1="62.4839" x2="103.459" y2="62.4839" gradientUnits="userSpaceOnUse">
<stop stop-color="#FFEA3A"/>
<stop offset="1" stop-color="#FFD336"/>
</linearGradient>
<linearGradient id="paint56_linear_6256_1873" x1="103.742" y1="62.4839" x2="101.922" y2="62.4839" gradientUnits="userSpaceOnUse">
<stop stop-color="#8F581B"/>
<stop offset="1" stop-color="#D18E27" stop-opacity="0"/>
</linearGradient>
<radialGradient id="paint57_radial_6256_1873" cx="0" cy="0" r="1" gradientTransform="matrix(2.70057 -1.18113 0.655541 0.691052 101.521 80.151)" gradientUnits="userSpaceOnUse">
<stop stop-color="#8F581B" stop-opacity="0.77"/>
<stop offset="1" stop-color="#D18E27" stop-opacity="0"/>
</radialGradient>
<radialGradient id="paint58_radial_6256_1873" cx="0" cy="0" r="1" gradientTransform="matrix(-0.898454 0.467437 -1.20196 -1.06516 102.105 44.8434)" gradientUnits="userSpaceOnUse">
<stop stop-color="#8F581B"/>
<stop offset="1" stop-color="#D18E27" stop-opacity="0"/>
</radialGradient>
<radialGradient id="paint59_radial_6256_1873" cx="0" cy="0" r="1" gradientTransform="matrix(-6.58825 -43.1955 11.5189 -1.06288 107.8 66.5679)" gradientUnits="userSpaceOnUse">
<stop offset="0.624" stop-color="#DAA914"/>
<stop offset="1" stop-color="#DAA914" stop-opacity="0"/>
</radialGradient>
<radialGradient id="paint60_radial_6256_1873" cx="0" cy="0" r="1" gradientTransform="matrix(-2.41402e-07 -37.7803 22.7963 -9.76143 54.4663 75.3833)" gradientUnits="userSpaceOnUse">
<stop offset="0.396347" stop-color="#A78600"/>
<stop offset="0.89218" stop-color="#C58985" stop-opacity="0"/>
</radialGradient>
<radialGradient id="paint61_radial_6256_1873" cx="0" cy="0" r="1" gradientUnits="userSpaceOnUse" gradientTransform="translate(46.3242 88.5131) rotate(-90) scale(6.83593 10.3893)">
<stop stop-color="#EB9160"/>
<stop offset="1" stop-color="#C36241"/>
</radialGradient>
<radialGradient id="paint62_radial_6256_1873" cx="0" cy="0" r="1" gradientUnits="userSpaceOnUse" gradientTransform="translate(44.0227 89.2408) rotate(-93.3665) scale(0.594443 3.93461)">
<stop stop-color="#CE7E69"/>
<stop offset="1" stop-color="#CE7E69" stop-opacity="0"/>
</radialGradient>
<radialGradient id="paint63_radial_6256_1873" cx="0" cy="0" r="1" gradientUnits="userSpaceOnUse" gradientTransform="translate(43.0278 89.0836) rotate(-75.6997) scale(0.91859 7.72581)">
<stop stop-color="#CE7E69"/>
<stop offset="1" stop-color="#CE7E69" stop-opacity="0"/>
</radialGradient>
<radialGradient id="paint64_radial_6256_1873" cx="0" cy="0" r="1" gradientUnits="userSpaceOnUse" gradientTransform="translate(42.2773 88.595) rotate(-55.6698) scale(0.866544 7.28807)">
<stop stop-color="#CE7E69"/>
<stop offset="1" stop-color="#CE7E69" stop-opacity="0"/>
</radialGradient>
<radialGradient id="paint65_radial_6256_1873" cx="0" cy="0" r="1" gradientUnits="userSpaceOnUse" gradientTransform="translate(41.0905 87.4955) rotate(-35.789) scale(0.925199 7.78139)">
<stop stop-color="#CE7E69"/>
<stop offset="1" stop-color="#CE7E69" stop-opacity="0"/>
</radialGradient>
<radialGradient id="paint66_radial_6256_1873" cx="0" cy="0" r="1" gradientUnits="userSpaceOnUse" gradientTransform="translate(40.3051 85.2614) rotate(-7.12499) scale(0.844286 7.10087)">
<stop stop-color="#CE7E69"/>
<stop offset="1" stop-color="#CE7E69" stop-opacity="0"/>
</radialGradient>
<radialGradient id="paint67_radial_6256_1873" cx="0" cy="0" r="1" gradientUnits="userSpaceOnUse" gradientTransform="translate(40.6212 82.5815) rotate(27.7585) scale(0.757036 6.36706)">
<stop stop-color="#CE7E69"/>
<stop offset="1" stop-color="#CE7E69" stop-opacity="0"/>
</radialGradient>
<radialGradient id="paint68_radial_6256_1873" cx="0" cy="0" r="1" gradientUnits="userSpaceOnUse" gradientTransform="translate(43.1774 79.0027) rotate(94.87) scale(3.94558 33.1844)">
<stop stop-color="#CE7E69"/>
<stop offset="0.395933" stop-color="#CE7E69" stop-opacity="0"/>
</radialGradient>
<radialGradient id="paint69_radial_6256_1873" cx="0" cy="0" r="1" gradientUnits="userSpaceOnUse" gradientTransform="translate(44.54 80.192) rotate(89.8676) scale(0.578991 1.47744)">
<stop stop-color="#DDA07F"/>
<stop offset="1" stop-color="#DD9E7F" stop-opacity="0"/>
</radialGradient>
<radialGradient id="paint70_radial_6256_1873" cx="0" cy="0" r="1" gradientUnits="userSpaceOnUse" gradientTransform="translate(43.1728 80.6295) rotate(68.5619) scale(0.612052 1.5618)">
<stop stop-color="#DDA07F"/>
<stop offset="1" stop-color="#DD9E7F" stop-opacity="0"/>
</radialGradient>
<radialGradient id="paint71_radial_6256_1873" cx="0" cy="0" r="1" gradientUnits="userSpaceOnUse" gradientTransform="translate(41.8603 81.4429) rotate(43.5056) scale(0.556069 1.41895)">
<stop stop-color="#DDA07F"/>
<stop offset="1" stop-color="#DD9E7F" stop-opacity="0"/>
</radialGradient>
<radialGradient id="paint72_radial_6256_1873" cx="0" cy="0" r="1" gradientUnits="userSpaceOnUse" gradientTransform="translate(41.2136 82.4257) rotate(18.4349) scale(0.546465 1.39444)">
<stop stop-color="#DDA07F"/>
<stop offset="1" stop-color="#DD9E7F" stop-opacity="0"/>
</radialGradient>
<radialGradient id="paint73_radial_6256_1873" cx="0" cy="0" r="1" gradientUnits="userSpaceOnUse" gradientTransform="translate(41.0572 82.9111) rotate(18.435) scale(0.546465 1.39444)">
<stop stop-color="#DDA07F"/>
<stop offset="1" stop-color="#DD9E7F" stop-opacity="0"/>
</radialGradient>
<radialGradient id="paint74_radial_6256_1873" cx="0" cy="0" r="1" gradientUnits="userSpaceOnUse" gradientTransform="translate(43.8723 45.5255) rotate(90) scale(0.625084 7.78701)">
<stop stop-color="#FFE09E"/>
<stop offset="0.583333" stop-color="#FEDD97" stop-opacity="0"/>
</radialGradient>
<radialGradient id="paint75_radial_6256_1873" cx="0" cy="0" r="1" gradientUnits="userSpaceOnUse" gradientTransform="translate(43.8723 45.5255) rotate(90) scale(0.625084 7.78701)">
<stop stop-color="#FFE09E"/>
<stop offset="0.583333" stop-color="#FEDD97" stop-opacity="0"/>
</radialGradient>
<radialGradient id="paint76_radial_6256_1873" cx="0" cy="0" r="1" gradientUnits="userSpaceOnUse" gradientTransform="translate(43.3619 45.5736) rotate(67.5316) scale(1.33552 16.6373)">
<stop stop-color="#FFE09E"/>
<stop offset="0.583333" stop-color="#FEDD97" stop-opacity="0"/>
</radialGradient>
<radialGradient id="paint77_radial_6256_1873" cx="0" cy="0" r="1" gradientUnits="userSpaceOnUse" gradientTransform="translate(43.3619 45.5736) rotate(67.5316) scale(1.33552 16.6373)">
<stop stop-color="#FFE09E"/>
<stop offset="0.583333" stop-color="#FEDD97" stop-opacity="0"/>
</radialGradient>
<radialGradient id="paint78_radial_6256_1873" cx="0" cy="0" r="1" gradientUnits="userSpaceOnUse" gradientTransform="translate(43.3619 45.5736) rotate(67.5316) scale(1.33552 16.6373)">
<stop stop-color="#FFE09E"/>
<stop offset="0.583333" stop-color="#FEDD97" stop-opacity="0"/>
</radialGradient>
<radialGradient id="paint79_radial_6256_1873" cx="0" cy="0" r="1" gradientUnits="userSpaceOnUse" gradientTransform="translate(42.865 45.9583) rotate(44.1467) scale(1.40373 17.487)">
<stop stop-color="#FFE09E"/>
<stop offset="0.583333" stop-color="#FEDD97" stop-opacity="0"/>
</radialGradient>
<radialGradient id="paint80_radial_6256_1873" cx="0" cy="0" r="1" gradientUnits="userSpaceOnUse" gradientTransform="translate(41.8411 46.3709) rotate(51.2073) scale(1.50636 18.7654)">
<stop stop-color="#FFE09E"/>
<stop offset="0.583333" stop-color="#FEDD97" stop-opacity="0"/>
</radialGradient>
<linearGradient id="paint81_linear_6256_1873" x1="95.541" y1="53.9839" x2="103.541" y2="53.9839" gradientUnits="userSpaceOnUse">
<stop stop-color="#E58F4F"/>
<stop offset="1" stop-color="#EE9880"/>
</linearGradient>
<linearGradient id="paint82_linear_6256_1873" x1="103.541" y1="57.8603" x2="101.006" y2="57.8603" gradientUnits="userSpaceOnUse">
<stop stop-color="#E07E98"/>
<stop offset="1" stop-color="#E07E98" stop-opacity="0"/>
</linearGradient>
<linearGradient id="paint83_linear_6256_1873" x1="95.4207" y1="53.9839" x2="95.7923" y2="53.9839" gradientUnits="userSpaceOnUse">
<stop stop-color="#B96D34"/>
<stop offset="1" stop-color="#B96D34" stop-opacity="0"/>
</linearGradient>
<linearGradient id="paint84_linear_6256_1873" x1="103.432" y1="54.1088" x2="103.213" y2="54.1088" gradientUnits="userSpaceOnUse">
<stop stop-color="#B96D34"/>
<stop offset="1" stop-color="#B96D34" stop-opacity="0"/>
</linearGradient>
<linearGradient id="paint85_linear_6256_1873" x1="103.188" y1="40.3333" x2="102.933" y2="40.4406" gradientUnits="userSpaceOnUse">
<stop stop-color="#B96D34"/>
<stop offset="1" stop-color="#B96D34" stop-opacity="0"/>
</linearGradient>
<linearGradient id="paint86_linear_6256_1873" x1="102.722" y1="39.4071" x2="102.487" y2="39.6469" gradientUnits="userSpaceOnUse">
<stop stop-color="#B95B34"/>
<stop offset="1" stop-color="#B96D34" stop-opacity="0"/>
</linearGradient>
<linearGradient id="paint87_linear_6256_1873" x1="100.929" y1="38.0954" x2="100.813" y2="38.2884" gradientUnits="userSpaceOnUse">
<stop stop-color="#B95B34"/>
<stop offset="1" stop-color="#B96D34" stop-opacity="0"/>
</linearGradient>
<linearGradient id="paint88_linear_6256_1873" x1="99.4536" y1="37.4049" x2="99.366" y2="37.6415" gradientUnits="userSpaceOnUse">
<stop stop-color="#B95B34"/>
<stop offset="1" stop-color="#B96D34" stop-opacity="0"/>
</linearGradient>
<linearGradient id="paint89_linear_6256_1873" x1="95.541" y1="53.9839" x2="103.541" y2="53.9839" gradientUnits="userSpaceOnUse">
<stop stop-color="#FFF5A2"/>
<stop offset="1" stop-color="#D68315"/>
</linearGradient>
<linearGradient id="paint90_linear_6256_1873" x1="95.541" y1="25.9839" x2="103.541" y2="25.9839" gradientUnits="userSpaceOnUse">
<stop stop-color="#E58F4F"/>
<stop offset="1" stop-color="#EE9880"/>
</linearGradient>
<linearGradient id="paint91_linear_6256_1873" x1="103.541" y1="29.8603" x2="101.006" y2="29.8603" gradientUnits="userSpaceOnUse">
<stop stop-color="#E07E98"/>
<stop offset="1" stop-color="#E07E98" stop-opacity="0"/>
</linearGradient>
<linearGradient id="paint92_linear_6256_1873" x1="95.4207" y1="25.9839" x2="95.7923" y2="25.9839" gradientUnits="userSpaceOnUse">
<stop stop-color="#B96D34"/>
<stop offset="1" stop-color="#B96D34" stop-opacity="0"/>
</linearGradient>
<linearGradient id="paint93_linear_6256_1873" x1="103.432" y1="26.1089" x2="103.213" y2="26.1089" gradientUnits="userSpaceOnUse">
<stop stop-color="#B96D34"/>
<stop offset="1" stop-color="#B96D34" stop-opacity="0"/>
</linearGradient>
<linearGradient id="paint94_linear_6256_1873" x1="103.188" y1="12.3333" x2="102.933" y2="12.4408" gradientUnits="userSpaceOnUse">
<stop stop-color="#B96D34"/>
<stop offset="1" stop-color="#B96D34" stop-opacity="0"/>
</linearGradient>
<linearGradient id="paint95_linear_6256_1873" x1="102.722" y1="11.4071" x2="102.487" y2="11.6469" gradientUnits="userSpaceOnUse">
<stop stop-color="#B95B34"/>
<stop offset="1" stop-color="#B96D34" stop-opacity="0"/>
</linearGradient>
<linearGradient id="paint96_linear_6256_1873" x1="100.929" y1="10.0954" x2="100.813" y2="10.2885" gradientUnits="userSpaceOnUse">
<stop stop-color="#B95B34"/>
<stop offset="1" stop-color="#B96D34" stop-opacity="0"/>
</linearGradient>
<linearGradient id="paint97_linear_6256_1873" x1="99.4536" y1="9.405" x2="99.366" y2="9.64158" gradientUnits="userSpaceOnUse">
<stop stop-color="#B95B34"/>
<stop offset="1" stop-color="#B96D34" stop-opacity="0"/>
</linearGradient>
<linearGradient id="paint98_linear_6256_1873" x1="95.541" y1="24.8368" x2="103.541" y2="24.8368" gradientUnits="userSpaceOnUse">
<stop stop-color="#8BE6FF"/>
<stop offset="1" stop-color="#39ADF1"/>
</linearGradient>
<radialGradient id="paint99_radial_6256_1873" cx="0" cy="0" r="1" gradientTransform="matrix(-26.0161 -35.8966 -24.3619 21.1419 49.4674 78.154)" gradientUnits="userSpaceOnUse">
<stop stop-color="#E7B0A8"/>
<stop offset="0.925314" stop-color="#F3BCA6"/>
</radialGradient>
<radialGradient id="paint100_radial_6256_1873" cx="0" cy="0" r="1" gradientTransform="matrix(3.15552 12.7425 22.1391 -5.47374 53.6934 63.6601)" gradientUnits="userSpaceOnUse">
<stop offset="0.303958" stop-color="#DDAA98"/>
<stop offset="1" stop-color="#DDAA98" stop-opacity="0"/>
</radialGradient>
<radialGradient id="paint101_radial_6256_1873" cx="0" cy="0" r="1" gradientUnits="userSpaceOnUse" gradientTransform="translate(55.5687 44.9109) rotate(75) scale(13.5781 5.08594)">
<stop stop-color="#E0A993"/>
<stop offset="1" stop-color="#E0A993" stop-opacity="0"/>
</radialGradient>
<radialGradient id="paint102_radial_6256_1873" cx="0" cy="0" r="1" gradientUnits="userSpaceOnUse" gradientTransform="translate(48.1357 48.7143) rotate(75) scale(13.375 5.26463)">
<stop stop-color="#FFD3BA"/>
<stop offset="0.851064" stop-color="#FFD3BA" stop-opacity="0"/>
</radialGradient>
<radialGradient id="paint103_radial_6256_1873" cx="0" cy="0" r="1" gradientTransform="matrix(3.27148 4.7669 7.37065 -5.83316 37.0979 76.9294)" gradientUnits="userSpaceOnUse">
<stop offset="0.273559" stop-color="#ECB5AA"/>
<stop offset="1" stop-color="#ECB5AA" stop-opacity="0"/>
</radialGradient>
<radialGradient id="paint104_radial_6256_1873" cx="0" cy="0" r="1" gradientTransform="matrix(2.84623 3.87755 8.55755 -6.33701 40.6601 81.6184)" gradientUnits="userSpaceOnUse">
<stop offset="0.153704" stop-color="#F4BCB1"/>
<stop offset="1" stop-color="#F4BCB1" stop-opacity="0"/>
</radialGradient>
<radialGradient id="paint105_radial_6256_1873" cx="0" cy="0" r="1" gradientUnits="userSpaceOnUse" gradientTransform="translate(40.1652 69.679) rotate(167.232) scale(17.8551 9.17721)">
<stop offset="0.396347" stop-color="#AD6968"/>
<stop offset="0.528242" stop-color="#C58985"/>
<stop offset="0.89218" stop-color="#C58985" stop-opacity="0"/>
</radialGradient>
<radialGradient id="paint106_radial_6256_1873" cx="0" cy="0" r="1" gradientUnits="userSpaceOnUse" gradientTransform="translate(52.6182 60.1306) rotate(171.71) scale(8.55862 4.39899)">
<stop offset="0.396347" stop-color="#AD6968"/>
<stop offset="0.528242" stop-color="#C58985"/>
<stop offset="0.89218" stop-color="#C58985" stop-opacity="0"/>
</radialGradient>
<radialGradient id="paint107_radial_6256_1873" cx="0" cy="0" r="1" gradientUnits="userSpaceOnUse" gradientTransform="translate(53.6188 61.9331) rotate(-146.009) scale(15.2398 7.83298)">
<stop offset="0.396347" stop-color="#AD6968"/>
<stop offset="0.89218" stop-color="#C58985" stop-opacity="0"/>
</radialGradient>
<radialGradient id="paint108_radial_6256_1873" cx="0" cy="0" r="1" gradientTransform="matrix(-3.24547 11.8431 2.51152 0.702886 34.2126 70.1152)" gradientUnits="userSpaceOnUse">
<stop offset="0.624" stop-color="#C07B7C"/>
<stop offset="1" stop-color="#B97776" stop-opacity="0"/>
<stop offset="1" stop-color="#C07B7C" stop-opacity="0"/>
</radialGradient>
<radialGradient id="paint109_radial_6256_1873" cx="0" cy="0" r="1" gradientTransform="matrix(-1.96546 7.54965 1.79087 0.476443 35.5094 69.1407)" gradientUnits="userSpaceOnUse">
<stop offset="0.624" stop-color="#A45C62"/>
<stop offset="1" stop-color="#BC7678" stop-opacity="0"/>
</radialGradient>
<radialGradient id="paint110_radial_6256_1873" cx="0" cy="0" r="1" gradientTransform="matrix(33.701 48.6007 30.5643 -21.3735 28.1019 49.8683)" gradientUnits="userSpaceOnUse">
<stop offset="0.711382" stop-color="#D49B9F" stop-opacity="0"/>
<stop offset="0.76759" stop-color="#C28595"/>
</radialGradient>
<radialGradient id="paint111_radial_6256_1873" cx="0" cy="0" r="1" gradientTransform="matrix(5.33451 27.554 9.25805 -1.59855 63.6029 70.9102)" gradientUnits="userSpaceOnUse">
<stop offset="0.0570815" stop-color="#DCA593"/>
<stop offset="1" stop-color="#DCA593" stop-opacity="0"/>
</radialGradient>
<radialGradient id="paint112_radial_6256_1873" cx="0" cy="0" r="1" gradientUnits="userSpaceOnUse" gradientTransform="translate(37.9789 69.4884) rotate(82.188) scale(63.4361 28.7084)">
<stop offset="0.719994" stop-color="#EEB39B" stop-opacity="0"/>
<stop offset="0.783416" stop-color="#EEB39B"/>
</radialGradient>
<radialGradient id="paint113_radial_6256_1873" cx="0" cy="0" r="1" gradientTransform="matrix(-1.9898 15.6184 10.9632 1.44455 22.4737 65.6105)" gradientUnits="userSpaceOnUse">
<stop offset="0.104159" stop-color="#FFE4C5"/>
<stop offset="1" stop-color="#FFE0C2" stop-opacity="0"/>
</radialGradient>
<radialGradient id="paint114_radial_6256_1873" cx="0" cy="0" r="1" gradientUnits="userSpaceOnUse" gradientTransform="translate(45.3411 61.7084) rotate(-179.857) scale(6.28057)">
<stop offset="0.452253" stop-color="#C1827B"/>
<stop offset="1" stop-color="#BB7975" stop-opacity="0"/>
</radialGradient>
<radialGradient id="paint115_radial_6256_1873" cx="0" cy="0" r="1" gradientUnits="userSpaceOnUse" gradientTransform="translate(48.7239 55.7389) rotate(61.2392) scale(6.306 3.68987)">
<stop offset="0.404659" stop-color="#A9594B"/>
<stop offset="0.959991" stop-color="#C68576" stop-opacity="0"/>
</radialGradient>
<radialGradient id="paint116_radial_6256_1873" cx="0" cy="0" r="1" gradientUnits="userSpaceOnUse" gradientTransform="translate(46.7844 43.1882) rotate(56.565) scale(4.74342)">
<stop offset="0.179344" stop-color="#FFE0C4"/>
<stop offset="1" stop-color="#FDCFB7" stop-opacity="0"/>
</radialGradient>
<radialGradient id="paint117_radial_6256_1873" cx="0" cy="0" r="1" gradientTransform="matrix(10.6647 -2.8576 -15.3963 -59.5836 28.6675 48.9824)" gradientUnits="userSpaceOnUse">
<stop offset="0.163942" stop-color="#FFD7BE"/>
<stop offset="0.431818" stop-color="#F2BAA2"/>
<stop offset="0.713257" stop-color="#E5A98E"/>
</radialGradient>
<radialGradient id="paint118_radial_6256_1873" cx="0" cy="0" r="1" gradientUnits="userSpaceOnUse" gradientTransform="translate(39.3964 45.5565) rotate(75) scale(14.5 4.21892)">
<stop offset="0.446041" stop-color="#C96F54"/>
<stop offset="0.90578" stop-color="#E39679" stop-opacity="0"/>
</radialGradient>
<radialGradient id="paint119_radial_6256_1873" cx="0" cy="0" r="1" gradientUnits="userSpaceOnUse" gradientTransform="translate(27.3237 39.8621) rotate(66.3112) scale(5.94118)">
<stop stop-color="#FFDFC5"/>
<stop offset="1" stop-color="#FFDCC1" stop-opacity="0"/>
</radialGradient>
<radialGradient id="paint120_radial_6256_1873" cx="0" cy="0" r="1" gradientTransform="matrix(10.8614 -1.9826 -10.5095 -60.6366 39.2722 44.7922)" gradientUnits="userSpaceOnUse">
<stop offset="0.163942" stop-color="#FFD7BE"/>
<stop offset="0.431818" stop-color="#F2BAA2"/>
<stop offset="0.713257" stop-color="#E5A98E"/>
</radialGradient>
<radialGradient id="paint121_radial_6256_1873" cx="0" cy="0" r="1" gradientUnits="userSpaceOnUse" gradientTransform="translate(53.6966 44.8305) rotate(115.815) scale(14.5344 7.76938)">
<stop offset="0.446041" stop-color="#C96F54"/>
<stop offset="0.90578" stop-color="#E39679" stop-opacity="0"/>
</radialGradient>
<radialGradient id="paint122_radial_6256_1873" cx="0" cy="0" r="1" gradientUnits="userSpaceOnUse" gradientTransform="translate(48.7354 59.741) rotate(113.91) scale(12.3253 8.06377)">
<stop offset="0.383146" stop-color="#FFCEAD"/>
<stop offset="0.707419" stop-color="#FFCEAD" stop-opacity="0"/>
</radialGradient>
<radialGradient id="paint123_radial_6256_1873" cx="0" cy="0" r="1" gradientUnits="userSpaceOnUse" gradientTransform="translate(50.7033 56.0781) rotate(79.6554) scale(7.3125 2.15625)">
<stop offset="0.601626" stop-color="#F19F84"/>
<stop offset="1" stop-color="#F19F84" stop-opacity="0"/>
</radialGradient>
<radialGradient id="paint124_radial_6256_1873" cx="0" cy="0" r="1" gradientUnits="userSpaceOnUse" gradientTransform="translate(38.6731 35.5929) rotate(70.9665) scale(5.94118)">
<stop stop-color="#FFDFC5"/>
<stop offset="1" stop-color="#FFDCC1" stop-opacity="0"/>
</radialGradient>
<radialGradient id="paint125_radial_6256_1873" cx="0" cy="0" r="1" gradientUnits="userSpaceOnUse" gradientTransform="translate(48.0521 41.5536) rotate(79.6554) scale(14.8455 1.61305)">
<stop offset="0.188053" stop-color="#EAAC8E"/>
<stop offset="1" stop-color="#EAAC8E" stop-opacity="0"/>
</radialGradient>
<radialGradient id="paint126_radial_6256_1873" cx="0" cy="0" r="1" gradientUnits="userSpaceOnUse" gradientTransform="translate(36.8006 60.1406) rotate(-4.51828) scale(15.392 7.06129)">
<stop offset="0.376289" stop-color="#FEE2C4"/>
<stop offset="0.829897" stop-color="#FCDBBE" stop-opacity="0"/>
</radialGradient>
<radialGradient id="paint127_radial_6256_1873" cx="0" cy="0" r="1" gradientTransform="matrix(2.2879 27.8571 39.5589 -2.65298 40.9061 41.5284)" gradientUnits="userSpaceOnUse">
<stop offset="0.305684" stop-color="#D89F9A" stop-opacity="0"/>
<stop offset="0.749601" stop-color="#CC9187"/>
</radialGradient>
<radialGradient id="paint128_radial_6256_1873" cx="0" cy="0" r="1" gradientTransform="matrix(-6.99492 -4.85501 -1.70182 7.76616 51.2657 58.9404)" gradientUnits="userSpaceOnUse">
<stop offset="0.396347" stop-color="#AD6968"/>
<stop offset="0.528242" stop-color="#C58985"/>
<stop offset="0.89218" stop-color="#C58985" stop-opacity="0"/>
</radialGradient>
<radialGradient id="paint129_radial_6256_1873" cx="0" cy="0" r="1" gradientTransform="matrix(6.61419 8.45228 26.3255 -20.2666 27.6284 65.7847)" gradientUnits="userSpaceOnUse">
<stop stop-color="#FFE54A"/>
<stop offset="1" stop-color="#ED7F37"/>
</radialGradient>
<linearGradient id="paint130_linear_6256_1873" x1="26.977" y1="80.85" x2="31.4786" y2="74.3808" gradientUnits="userSpaceOnUse">
<stop offset="0.249477" stop-color="#FFAF42"/>
<stop offset="1" stop-color="#FFAF42" stop-opacity="0"/>
</linearGradient>
<radialGradient id="paint131_radial_6256_1873" cx="0" cy="0" r="1" gradientTransform="matrix(3.66904 14.3095 18.1541 -4.6999 35.9285 73.3366)" gradientUnits="userSpaceOnUse">
<stop offset="0.123809" stop-color="#E3ADA7"/>
<stop offset="0.260422" stop-color="#F7C2B4"/>
<stop offset="0.643132" stop-color="#FFE7CB"/>
<stop offset="1" stop-color="#FFD1B0"/>
</radialGradient>
<radialGradient id="paint132_radial_6256_1873" cx="0" cy="0" r="1" gradientTransform="matrix(-15.5115 8.18646 13.3917 20.5568 49.155 66.1378)" gradientUnits="userSpaceOnUse">
<stop offset="0.350045" stop-color="#DAA591"/>
<stop offset="0.692652" stop-color="#DAA591" stop-opacity="0"/>
</radialGradient>
<radialGradient id="paint133_radial_6256_1873" cx="0" cy="0" r="1" gradientTransform="matrix(-6.22056 9.69018 8.12663 3.68523 34.9174 76.5857)" gradientUnits="userSpaceOnUse">
<stop offset="0.201318" stop-color="#BB7B82"/>
<stop offset="1" stop-color="#D99F9F" stop-opacity="0"/>
</radialGradient>
<radialGradient id="paint134_radial_6256_1873" cx="0" cy="0" r="1" gradientTransform="matrix(-12.5114 7.88175 19.141 27.2384 25.1006 88.7924)" gradientUnits="userSpaceOnUse">
<stop offset="0.449121" stop-color="#F0B9A7"/>
<stop offset="1" stop-color="#F0B9A7" stop-opacity="0"/>
</radialGradient>
<radialGradient id="paint135_radial_6256_1873" cx="0" cy="0" r="1" gradientTransform="matrix(2.68997 4.05428 10.3174 -6.77903 42.081 70.6873)" gradientUnits="userSpaceOnUse">
<stop offset="0.176957" stop-color="#C1838D"/>
<stop offset="1" stop-color="#D49A9B" stop-opacity="0"/>
</radialGradient>
<radialGradient id="paint136_radial_6256_1873" cx="0" cy="0" r="1" gradientTransform="matrix(-0.24497 2.43725 0.909783 0.086922 42.3153 66.2951)" gradientUnits="userSpaceOnUse">
<stop stop-color="#D89F90"/>
<stop offset="1" stop-color="#D89F90" stop-opacity="0"/>
</radialGradient>
<radialGradient id="paint137_radial_6256_1873" cx="0" cy="0" r="1" gradientTransform="matrix(10.1424 2.28647 6.11043 -27.8155 50.9183 52.6505)" gradientUnits="userSpaceOnUse">
<stop stop-color="#FFCFB9"/>
<stop offset="0.309397" stop-color="#F2BFAA"/>
<stop offset="0.645667" stop-color="#DEA893"/>
</radialGradient>
<radialGradient id="paint138_radial_6256_1873" cx="0" cy="0" r="1" gradientTransform="matrix(-3.68766 15.0725 11.1513 2.71354 51.5126 53.9698)" gradientUnits="userSpaceOnUse">
<stop offset="0.535856" stop-color="#E6AC94" stop-opacity="0"/>
<stop offset="0.615094" stop-color="#E6AC94"/>
</radialGradient>
<radialGradient id="paint139_radial_6256_1873" cx="0" cy="0" r="1" gradientTransform="matrix(4.97762 14.713 3.02187 -1.03574 44.6592 55.5344)" gradientUnits="userSpaceOnUse">
<stop offset="0.550536" stop-color="#D48D75" stop-opacity="0.79"/>
<stop offset="1" stop-color="#D48D75" stop-opacity="0"/>
</radialGradient>
<clipPath id="clip0_6256_1873">
<rect width="68" height="84" fill="white" transform="translate(37 8.98389)"/>
</clipPath>
<clipPath id="clip1_6256_1873">
<rect width="64" height="64" fill="white" transform="matrix(-0.965926 0.258819 0.258819 0.965926 61.8184 22.9839)"/>
</clipPath>
</defs>
</svg>
