<svg width="55" height="54" viewBox="0 0 55 54" fill="none" xmlns="http://www.w3.org/2000/svg">
<path d="M27.5007 0.189392C12.7807 0.189392 0.833984 12.1361 0.833984 26.8561C0.833984 41.5761 12.7807 53.5227 27.5007 53.5227C42.2207 53.5227 54.1673 41.5761 54.1673 26.8561C54.1673 12.1361 42.2207 0.189392 27.5007 0.189392ZM27.5007 48.1894C15.7407 48.1894 6.16732 38.6161 6.16732 26.8561C6.16732 15.0961 15.7407 5.52273 27.5007 5.52273C39.2607 5.52273 48.834 15.0961 48.834 26.8561C48.834 38.6161 39.2607 48.1894 27.5007 48.1894ZM20.834 38.8561L39.5007 26.8561L20.834 14.8561V38.8561Z" fill="white"/>
</svg>
