<svg width="60" height="61" viewBox="0 0 60 61" fill="none" xmlns="http://www.w3.org/2000/svg">
<rect y="0.816406" width="60" height="60" rx="30" fill="url(#paint0_linear_6414_3288)"/>
<path fill-rule="evenodd" clip-rule="evenodd" d="M18.7186 28.8817C25.4295 25.9181 29.9045 23.9643 32.1435 23.0203C38.5365 20.3251 39.8649 19.8569 40.7307 19.8415C40.9212 19.8381 41.347 19.8859 41.6228 20.1128C41.8557 20.3043 41.9197 20.563 41.9504 20.7447C41.9811 20.9263 42.0192 21.34 41.9889 21.6632C41.6424 25.3528 40.1434 34.3063 39.3808 38.4387C39.0581 40.1872 38.4227 40.7735 37.8076 40.8309C36.4707 40.9556 35.4556 39.9354 34.1608 39.0751C32.1348 37.7289 30.9901 36.8909 29.0235 35.5773C26.7507 34.0592 28.224 33.2248 29.5193 31.8612C29.8583 31.5043 35.7484 26.0739 35.8624 25.5813C35.8767 25.5197 35.8899 25.2901 35.7553 25.1688C35.6207 25.0475 35.422 25.089 35.2787 25.122C35.0754 25.1687 31.8388 27.3372 25.5686 31.6273C24.6499 32.2667 23.8177 32.5783 23.0721 32.5619C22.2502 32.5439 20.6691 32.0909 19.4937 31.7036C18.0521 31.2286 16.9063 30.9775 17.0061 30.1708C17.058 29.7506 17.6289 29.3209 18.7186 28.8817Z" fill="white"/>
<defs>
<linearGradient id="paint0_linear_6414_3288" x1="30" y1="0.816406" x2="30" y2="60.3714" gradientUnits="userSpaceOnUse">
<stop offset="1" stop-color="#229ED9"/>
</linearGradient>
</defs>
</svg>
