<svg width="60" height="61" viewBox="0 0 60 61" fill="none" xmlns="http://www.w3.org/2000/svg">
<rect y="0.816406" width="60" height="60" rx="30" fill="white"/>
<path d="M42.9459 25.1058V30.1073C42.0581 30.0219 40.9045 29.8233 39.6283 29.3631C37.962 28.7618 36.7217 27.9396 35.9093 27.3031V37.4118L35.8885 37.3803C35.9017 37.5807 35.9093 37.7849 35.9093 37.9909C35.9093 43.0109 31.7604 47.0974 26.6597 47.0974C21.559 47.0974 17.4102 43.0109 17.4102 37.9909C17.4102 32.9708 21.559 28.8824 26.6597 28.8824C27.1592 28.8824 27.6493 28.9214 28.1281 28.9975V33.9266C27.6682 33.7651 27.1743 33.6779 26.6597 33.6779C24.2451 33.6779 22.279 35.6117 22.279 37.9909C22.279 40.37 24.2451 42.3038 26.6597 42.3038C29.0744 42.3038 31.0404 40.3682 31.0404 37.9909C31.0404 37.9018 31.0385 37.8127 31.0328 37.7236V18.0796H36.1091C36.1279 18.5027 36.1449 18.9296 36.1637 19.3527C36.1977 20.186 36.4993 20.9858 37.0252 21.641C37.6416 22.4111 38.552 23.3056 39.83 24.0201C41.027 24.6864 42.1504 24.974 42.9459 25.1095V25.1058Z" fill="#FF004F"/>
<path d="M41.7857 21.6257V26.6253C40.8979 26.54 39.7443 26.3414 38.4682 25.8812C36.8019 25.2799 35.5615 24.4577 34.7491 23.8212V33.9299L34.7284 33.8984C34.7416 34.0988 34.7491 34.3029 34.7491 34.5089C34.7491 39.529 30.6003 43.6155 25.4996 43.6155C20.3988 43.6155 16.25 39.529 16.25 34.5089C16.25 29.4889 20.3988 25.4005 25.4996 25.4005C25.9991 25.4005 26.4892 25.4395 26.9679 25.5156V30.4446C26.508 30.2832 26.0142 30.196 25.4996 30.196C23.0849 30.196 21.1189 32.1298 21.1189 34.5089C21.1189 36.8881 23.0849 38.8219 25.4996 38.8219C27.9142 38.8219 29.8802 36.8863 29.8802 34.5089C29.8802 34.4199 29.8783 34.3308 29.8727 34.2417V14.5977H34.9489C34.9678 15.0208 34.9847 15.4476 35.0036 15.8708C35.0375 16.704 35.3391 17.5039 35.865 18.159C36.4814 18.9292 37.3918 19.8237 38.6699 20.5382C39.8668 21.2044 40.9903 21.4921 41.7857 21.6276V21.6257Z" fill="#00F7EF"/>
<path d="M41.7852 23.9451V28.9466C40.9377 28.8612 39.8365 28.6627 38.6184 28.2024C37.0278 27.6011 35.8439 26.779 35.0684 26.1424V36.2512L35.0486 36.2196C35.0612 36.4201 35.0684 36.6242 35.0684 36.8302C35.0684 41.8503 31.1082 45.9368 26.2393 45.9368C21.3704 45.9368 17.4102 41.8503 17.4102 36.8302C17.4102 31.8102 21.3704 27.7218 26.2393 27.7218C26.7161 27.7218 27.1839 27.7607 27.6409 27.8368V32.7659C27.2019 32.6045 26.7305 32.5172 26.2393 32.5172C23.9344 32.5172 22.0577 34.451 22.0577 36.8302C22.0577 39.2094 23.9344 41.1432 26.2393 41.1432C28.5442 41.1432 30.4208 39.2076 30.4208 36.8302C30.4208 36.7411 30.419 36.6521 30.4136 36.563V16.9189H35.2591C35.2771 17.3421 35.2933 17.7689 35.3113 18.192C35.3437 19.0253 35.6316 19.8252 36.1336 20.4803C36.7219 21.2505 37.591 22.145 38.8109 22.8595C39.9535 23.5257 41.0259 23.8134 41.7852 23.9489V23.9451Z" fill="black"/>
</svg>
